<svg width="48" height="48" viewBox="0 0 48 48" fill="none" xmlns="http://www.w3.org/2000/svg">
<g id="technical-support 1">
<g id="g995">
<path id="path997" d="M38.0137 4.19553H44.1488" stroke="#E94E1B" stroke-width="1.5" stroke-miterlimit="10" stroke-linecap="round" stroke-linejoin="round"/>
</g>
<g id="g999">
<path id="path1001" d="M34.5312 4.19543H35.2791" stroke="#E94E1B" stroke-width="1.5" stroke-miterlimit="10" stroke-linecap="round" stroke-linejoin="round"/>
</g>
<g id="g1003">
<path id="path1005" d="M34.5312 7.49847H44.1504" stroke="#E94E1B" stroke-width="1.5" stroke-miterlimit="10" stroke-linecap="round" stroke-linejoin="round"/>
</g>
<g id="g1007">
<g id="Clip path group">
<mask id="mask0_132_579" style="mask-type:luminance" maskUnits="userSpaceOnUse" x="0" y="0" width="48" height="48">
<g id="clipPath1013">
<path id="path1011" d="M0 0H48V48H0V0Z" fill="white"/>
</g>
</mask>
<g mask="url(#mask0_132_579)">
<g id="g1009">
<g id="g1015">
<path id="path1017" d="M29.5932 16.9374V19.8143C29.5932 21.0026 28.6299 21.9659 27.4415 21.9659H25.668" stroke="#E94E1B" stroke-width="1.5" stroke-miterlimit="10" stroke-linecap="round" stroke-linejoin="round"/>
</g>
<g id="g1019">
<path id="path1021" d="M35.4203 44.2439H2.21503C1.38 44.2439 0.703125 44.9207 0.703125 45.7558C0.703125 46.5907 1.38 47.2676 2.21503 47.2676H35.4203C36.2554 47.2676 36.9323 46.5907 36.9323 45.7558C36.9323 44.9207 36.2554 44.2439 35.4203 44.2439Z" stroke="#E94E1B" stroke-width="1.5" stroke-miterlimit="10" stroke-linecap="round" stroke-linejoin="round"/>
</g>
<g id="g1023">
<path id="path1025" d="M20.7042 44.2439C20.7042 43.0049 21.1685 41.8137 21.9974 40.8929C22.0036 40.886 22.0098 40.8791 22.016 40.8721C22.6939 40.1137 23.1061 39.1128 23.1061 38.0155C23.1061 36.4164 22.2308 35.0218 20.9331 34.2845C20.6869 34.1446 20.3812 34.3205 20.3812 34.6036V37.7941C20.3812 38.3288 19.9477 38.7623 19.4128 38.7623H18.2226C17.6878 38.7623 17.2542 38.3288 17.2542 37.7941V34.6036C17.2542 34.3205 16.9484 34.1446 16.7022 34.2845C15.4046 35.0218 14.5293 36.4164 14.5293 38.0155C14.5293 39.1128 14.9415 40.1137 15.6194 40.8721C15.6256 40.8791 15.6318 40.886 15.638 40.8929C16.4669 41.8137 16.9312 43.0049 16.9312 44.2439" stroke="#E94E1B" stroke-width="1.5" stroke-miterlimit="10" stroke-linecap="round" stroke-linejoin="round"/>
</g>
<g id="g1027">
<path id="path1029" d="M4.32617 41.5001L4.47505 44.2438" stroke="#E94E1B" stroke-width="1.5" stroke-miterlimit="10" stroke-linecap="round" stroke-linejoin="round"/>
</g>
<g id="g1031">
<path id="path1033" d="M33.1581 44.2439L33.855 31.4056C33.922 30.1694 32.9378 29.1302 31.6998 29.1302H5.93473C4.69676 29.1302 3.71248 30.1694 3.77961 31.4056L4.1503 38.2367" stroke="#E94E1B" stroke-width="1.5" stroke-miterlimit="10" stroke-linecap="round" stroke-linejoin="round"/>
</g>
<g id="g1035">
<path id="path1037" d="M36.3709 44.5798V41.6344C36.3709 38.7975 35.3852 36.1563 33.7119 34.0699" stroke="#E94E1B" stroke-width="1.5" stroke-miterlimit="10" stroke-linecap="round" stroke-linejoin="round"/>
</g>
<g id="g1039">
<path id="path1041" d="M3.92456 34.0699C2.25131 36.1563 1.26562 38.7975 1.26562 41.6344V44.5798" stroke="#E94E1B" stroke-width="1.5" stroke-miterlimit="10" stroke-linecap="round" stroke-linejoin="round"/>
</g>
<g id="g1043">
<path id="path1045" d="M25.9748 6.49944H25.8959C25.4595 6.49944 25.1057 6.14572 25.1057 5.70932C25.1057 4.41716 24.0583 3.36969 22.7662 3.36969H15.3197C12.0057 3.36969 9.31934 6.0561 9.31934 9.37007V13.3354C9.31934 13.9179 9.68787 14.4366 10.238 14.6281L11.716 15.1427C12.2326 15.3226 12.7721 14.9385 12.7713 14.3915L12.768 11.5953C12.7624 10.2355 13.8468 9.12838 15.1902 9.12257L15.2195 9.12247C15.6308 9.12069 16.0375 9.18453 16.426 9.30941C17.1143 9.53057 17.8275 9.66463 18.5505 9.66153H19.0831C19.8061 9.66463 20.5194 9.53057 21.2077 9.30941C21.5962 9.18453 22.0029 9.12069 22.4142 9.12247L22.4434 9.12257C23.7868 9.12838 24.8712 10.2355 24.8656 11.5953L24.8629 14.3917C24.8622 14.9387 25.4017 15.3226 25.9181 15.1427L27.3957 14.6281C27.9458 14.4366 28.3143 13.918 28.3143 13.3355V8.83907C28.3143 7.54691 27.2668 6.49944 25.9748 6.49944Z" stroke="#E94E1B" stroke-width="1.5" stroke-miterlimit="10" stroke-linecap="round" stroke-linejoin="round"/>
</g>
<g id="g1047">
<path id="path1049" d="M11.1436 18.7055H11.1567C11.2084 20.7449 12.0634 22.7046 13.5988 24.0313C14.835 25.0995 16.5701 26.029 18.8571 26.0452C21.1439 26.0095 22.8713 25.0652 24.0984 23.9865C25.5925 22.6733 26.4257 20.7575 26.4911 18.7611" stroke="#E94E1B" stroke-width="1.5" stroke-miterlimit="10" stroke-linecap="round" stroke-linejoin="round"/>
</g>
<g id="g1051">
<path id="path1053" d="M9.32055 13.0273C8.59334 13.1612 8.04199 13.7972 8.04199 14.5631V17.2337C8.04199 18.0969 8.74174 18.7967 9.60499 18.7967H11.1444V14.9432" stroke="#E94E1B" stroke-width="1.5" stroke-miterlimit="10" stroke-linecap="round" stroke-linejoin="round"/>
</g>
<g id="g1055">
<path id="path1057" d="M26.4932 14.9434V18.7967H28.0324C28.8957 18.7967 29.5954 18.0969 29.5954 17.2338V14.5632C29.5954 13.7973 29.0441 13.1612 28.3169 13.0274" stroke="#E94E1B" stroke-width="1.5" stroke-miterlimit="10" stroke-linecap="round" stroke-linejoin="round"/>
</g>
<g id="g1059">
<path id="path1061" d="M24.1242 23.0697H22.3597C21.6864 23.0697 21.1406 22.524 21.1406 21.8508C21.1406 21.1775 21.6864 20.6317 22.3597 20.6317H24.1242C24.7974 20.6317 25.3432 21.1775 25.3432 21.8508C25.3432 22.524 24.7974 23.0697 24.1242 23.0697Z" stroke="#E94E1B" stroke-width="1.5" stroke-miterlimit="10" stroke-linecap="round" stroke-linejoin="round"/>
</g>
<g id="g1063">
<path id="path1065" d="M23.805 29.1302C23.159 28.78 22.7324 28.0988 22.7324 27.3316V24.9747" stroke="#E94E1B" stroke-width="1.5" stroke-miterlimit="10" stroke-linecap="round" stroke-linejoin="round"/>
</g>
<g id="g1067">
<path id="path1069" d="M14.9029 24.9673V27.3316C14.9029 28.1119 14.4638 28.7846 13.8281 29.1302" stroke="#E94E1B" stroke-width="1.5" stroke-miterlimit="10" stroke-linecap="round" stroke-linejoin="round"/>
</g>
<g id="g1071">
<path id="path1073" d="M47.2973 4.13819V2.77731C47.2973 1.648 46.3818 0.732529 45.2524 0.732529H33.4267C32.2973 0.732529 31.3818 1.648 31.3818 2.77731V8.69181C31.3818 9.82112 32.2973 10.7366 33.4267 10.7366C34.0862 10.7366 34.6209 11.2712 34.6209 11.9308V15.5884C34.6209 16.0528 35.2324 16.2221 35.4712 15.8238L38.1741 11.3166C38.3898 10.9568 38.7787 10.7366 39.1982 10.7366H45.2524C46.3818 10.7366 47.2973 9.82112 47.2973 8.69181V7.42544" stroke="#E94E1B" stroke-width="1.5" stroke-miterlimit="10" stroke-linecap="round" stroke-linejoin="round"/>
</g>
</g>
</g>
</g>
</g>
</g>
</svg>
