<svg width="164" height="86" viewBox="0 0 164 86" fill="none" xmlns="http://www.w3.org/2000/svg">
<g id="Group 37">
<g id="Group">
<g id="Group_2">
<path id="Vector" d="M159.404 0H68.5961C66.0619 0 64 2.06192 64 4.5961V60.9597C64 63.4941 66.0619 65.5558 68.5961 65.5558H92.8421L91.1756 68.8886H85.8182C85.0092 68.8886 84.3534 69.5445 84.3534 70.3535C84.3534 71.1625 85.0092 71.8183 85.8182 71.8183H142.182C142.991 71.8183 143.647 71.1625 143.647 70.3535C143.647 69.5445 142.991 68.8886 142.182 68.8886H136.824L135.158 65.5558H159.404C161.938 65.5558 164 63.4939 164 60.9597V4.5961C164 2.06192 161.938 0 159.404 0ZM161.071 56.3634H156.273C155.464 56.3634 154.808 57.0193 154.808 57.8282C154.808 58.6372 155.464 59.2931 156.273 59.2931H161.071V60.9597C161.071 61.8786 160.323 62.6263 159.404 62.6263H104.606C103.797 62.6263 103.141 63.2822 103.141 64.0911C103.141 64.9001 103.797 65.556 104.606 65.556H131.883L133.549 68.8888H94.451L96.1174 65.556H98.3436C99.1526 65.556 99.8085 64.9001 99.8085 64.0911C99.8085 63.2822 99.1526 62.6263 98.3436 62.6263H68.5961C67.6772 62.6263 66.9297 61.8786 66.9297 60.9599V59.2933H150.011C150.82 59.2933 151.476 58.6374 151.476 57.8284C151.476 57.0195 150.82 56.3636 150.011 56.3636H66.9297V4.5961C66.9297 3.67716 67.6774 2.92969 68.5961 2.92969H159.404C160.323 2.92969 161.071 3.67735 161.071 4.5961V56.3634Z" fill="#E94E1B"/>
<rect id="Rectangle 37" x="61" y="17" width="23" height="49" fill="white"/>
</g>
</g>
<g id="Group_3">
<g id="Group_4">
<path id="Vector_2" d="M133.076 8.42908C132.504 7.85701 131.577 7.85701 131.005 8.42888L93.4291 46.0047C92.857 46.5768 92.857 47.5044 93.4291 48.0762C93.715 48.3622 94.09 48.5053 94.4648 48.5053C94.8396 48.5053 95.2146 48.3624 95.5005 48.0762L133.076 10.5006C133.648 9.92849 133.648 9.00095 133.076 8.42908Z" fill="#E94E1B"/>
</g>
</g>
<g id="Group_5">
<g id="Group_6">
<path id="Vector_3" d="M134.541 17.0351C133.969 16.463 133.041 16.463 132.469 17.0351L110.55 38.9543C109.978 39.5263 109.978 40.4539 110.55 41.0257C110.836 41.3119 111.211 41.4548 111.586 41.4548C111.961 41.4548 112.336 41.3119 112.622 41.0257L134.541 19.1066C135.113 18.5345 135.113 17.6069 134.541 17.0351Z" fill="#E94E1B"/>
</g>
</g>
<g id="Mobile service">
<g id="Group_7">
<path id="Vector_4" d="M69.3905 78.9822H66.7319C66.0735 78.9822 65.54 79.5157 65.54 80.1741C65.54 80.8325 66.0735 81.3659 66.7319 81.3659H69.3905C70.0489 81.3659 70.5824 80.8325 70.5824 80.1741C70.5824 79.5157 70.0487 78.9822 69.3905 78.9822Z" fill="#E94E1B"/>
<path id="Vector_5" d="M40.5944 34.1951C35.4942 34.1951 30.6991 36.1813 27.0928 39.7877C26.6273 40.2533 26.6273 41.0078 27.0928 41.4733C27.5585 41.9388 28.3129 41.9386 28.7784 41.4733C31.9344 38.317 36.1308 36.5788 40.5944 36.5788C45.0579 36.5788 49.2542 38.317 52.4105 41.4733C52.8761 41.9386 53.6306 41.9386 54.0961 41.4733C54.5616 41.0077 54.5616 40.2531 54.0961 39.7877C50.4896 36.1813 45.6947 34.1951 40.5944 34.1951Z" fill="#E94E1B"/>
<path id="Vector_6" d="M50.032 45.5378C50.4975 45.0722 50.4975 44.3176 50.032 43.8522C44.8281 38.6485 36.3613 38.6485 31.1572 43.8522C30.6917 44.3178 30.6917 45.0723 31.1572 45.5378C31.6228 46.0031 32.3774 46.0031 32.8429 45.5378C37.117 41.2635 44.0721 41.2635 48.3462 45.5378C48.812 46.0031 49.5664 46.003 50.032 45.5378Z" fill="#E94E1B"/>
<path id="Vector_7" d="M35.2217 47.9162C34.7562 48.3818 34.7562 49.1364 35.2217 49.6018C35.6873 50.0672 36.4418 50.0672 36.9073 49.6018C38.9404 47.5685 42.2487 47.5685 44.2818 49.6018C44.7476 50.0673 45.502 50.0672 45.9675 49.6018C46.4329 49.1362 46.4329 48.3817 45.9675 47.9162C43.0049 44.9536 38.1842 44.9536 35.2217 47.9162Z" fill="#E94E1B"/>
<path id="Vector_8" d="M50.3438 62.3638C51.0022 62.3638 51.5357 61.8304 51.5357 61.172C51.5357 60.5135 51.0022 59.9801 50.3438 59.9801H13.2368V27.9787H68.1294V39.4485C68.1294 40.1069 68.6628 40.6404 69.3213 40.6404C69.9797 40.6404 70.5131 40.1069 70.5131 39.4485V27.8773C70.5131 26.6188 69.4894 25.5951 68.2309 25.5951H13.1353C11.8768 25.5951 10.853 26.6188 10.853 27.8773V60.0816C10.853 61.3401 11.8768 62.3638 13.1353 62.3638H50.3438Z" fill="#E94E1B"/>
<path id="Vector_9" d="M77.7 43.8374H76.1082V25.3236C76.1082 22.3881 73.7201 20 70.7846 20H10.5819C7.64639 20 5.25831 22.3881 5.25831 25.3236V65.5748H3.16662C1.42042 65.575 0 66.9954 0 68.7413C0 73.5808 3.93722 77.5182 8.77694 77.5182H54.7516V81.8451C54.7516 83.8689 56.398 85.5155 58.422 85.5155H77.7001C79.7238 85.5155 81.3704 83.8691 81.3704 81.8451V47.5078C81.37 45.4839 79.7236 43.8374 77.7 43.8374ZM7.6421 25.3236C7.6421 23.7027 8.96097 22.3838 10.5819 22.3838H70.7846C72.4056 22.3838 73.7244 23.7027 73.7244 25.3236V43.8374H58.4218C56.398 43.8374 54.7514 45.4838 54.7514 47.5078V65.575C52.9374 65.575 9.97567 65.575 7.64194 65.575L7.6421 25.3236ZM29.1934 67.9587H49.3126V69.1567C49.3126 69.8171 48.7751 70.3546 48.1145 70.3546H30.3915C29.7309 70.3546 29.1934 69.8171 29.1934 69.1567V67.9587ZM8.77694 75.1344C5.2518 75.1344 2.38379 72.2664 2.38379 68.7413C2.38379 68.3096 2.735 67.9586 3.16662 67.9586H26.8096V69.1565C26.8096 71.1316 28.4165 72.7382 30.3915 72.7382H48.1143C50.0894 72.7382 51.6962 71.1316 51.6962 69.1565V67.9586H54.7514V75.1343L8.77694 75.1344ZM78.9863 81.8449C78.9863 82.5543 78.4092 83.1315 77.6998 83.1315H58.4218C57.7124 83.1315 57.1352 82.5543 57.1352 81.8449V47.5078C57.1352 46.7984 57.7124 46.2212 58.4218 46.2212H77.7C78.4094 46.2212 78.9864 46.7984 78.9864 47.5078V81.8449H78.9863Z" fill="#E94E1B"/>
<path id="Vector_10" d="M74.8756 48.1961H61.2462C60.0685 48.1961 59.1104 49.1542 59.1104 50.3319V75.0159C59.1104 76.1936 60.0685 77.1517 61.2462 77.1517H74.8756C76.0533 77.1517 77.0115 76.1936 77.0115 75.0159V50.3321C77.0116 49.1542 76.0533 48.1961 74.8756 48.1961ZM74.6278 74.7681H61.4941V50.5798H74.6278V74.7681Z" fill="#E94E1B"/>
</g>
</g>
</g>
</svg>
