<svg width="25" height="25" viewBox="0 0 25 25" fill="none" xmlns="http://www.w3.org/2000/svg">
<g id="Phone" clip-path="url(#clip0_82_1289)">
<path id="Vector" d="M14.2305 0C13.9608 0 13.7422 0.218582 13.7422 0.488281C13.7422 0.757979 13.9608 0.976561 14.2305 0.976561C19.6304 0.976561 24.0234 5.36975 24.0234 10.7694C24.0234 11.0391 24.2422 11.2577 24.5117 11.2577C24.7814 11.2577 25 11.0391 25 10.7694C25 4.83131 20.1689 0 14.2305 0Z" fill="black"/>
<path id="Vector_2" d="M21.5744 11.258C21.8441 11.258 22.0627 11.0392 22.0627 10.7697C22.0627 6.4509 18.5491 2.93738 14.2305 2.93738C13.9608 2.93738 13.7422 3.15615 13.7422 3.42566C13.7422 3.69536 13.9608 3.91394 14.2305 3.91394C18.0107 3.91394 21.0861 6.98934 21.0861 10.7697C21.0861 11.0392 21.3047 11.258 21.5744 11.258Z" fill="black"/>
<path id="Vector_3" d="M18.1482 10.7696C18.1482 11.0391 18.3668 11.2579 18.6365 11.2579C18.9062 11.2579 19.1248 11.0391 19.1248 10.7696C19.1248 8.07091 16.9292 5.87537 14.2305 5.87537C13.9608 5.87537 13.7422 6.09395 13.7422 6.36346C13.7422 6.63315 13.9608 6.85174 14.2305 6.85174C16.3908 6.85174 18.1482 8.60916 18.1482 10.7696Z" fill="black"/>
<path id="Vector_4" d="M13.7422 9.30102C13.7422 9.57053 13.9608 9.78911 14.2305 9.78911C14.7711 9.78911 15.2109 10.2289 15.2109 10.7697C15.2109 11.0392 15.4295 11.258 15.6992 11.258C15.9687 11.258 16.1875 11.0392 16.1875 10.7697C16.1875 9.6905 15.3095 8.81274 14.2305 8.81274C13.9608 8.81274 13.7422 9.03133 13.7422 9.30102Z" fill="black"/>
<path id="Vector_5" d="M9.15201 15.8535C9.15201 16.1232 8.93342 16.3418 8.66373 16.3418C8.39403 16.3418 8.17545 16.1232 8.17545 15.8535C8.17545 15.584 8.39403 15.3652 8.66373 15.3652C8.93342 15.3652 9.15201 15.584 9.15201 15.8535Z" fill="black"/>
<path id="Vector_6" d="M13.3804 24.4072C15.6038 25.4969 18.2787 25.0435 20.0369 23.2853L21.0464 22.2757C21.5946 21.7281 21.5948 20.841 21.0466 20.293L17.1457 16.3925C16.5985 15.8445 15.7112 15.8438 15.1634 16.3923L13.5059 18.05C13.1813 18.3746 12.6802 18.4408 12.3148 18.2075C11.7189 17.8266 11.1393 17.4067 10.5921 16.9592C10.3832 16.7885 10.0757 16.8194 9.90503 17.028C9.73432 17.2369 9.76522 17.5446 9.97389 17.7151C10.5505 18.1866 11.161 18.6291 11.7891 19.0304C12.5377 19.5085 13.5502 19.3867 14.1964 18.7405L15.8542 17.0826C16.02 16.9167 16.2885 16.9163 16.455 17.0828L20.3561 20.9835C20.5223 21.1498 20.5227 21.4188 20.3561 21.5849L19.3464 22.5948C17.8817 24.0595 15.657 24.4354 13.8101 23.5304C7.0442 20.2125 3.36303 14.9517 1.46636 11.1225C0.559036 9.29128 0.935737 7.07494 2.40382 5.60724L3.39144 4.61981C3.557 4.45387 3.82575 4.45329 3.99207 4.62L7.89354 8.52128C8.05872 8.68627 8.06044 8.9552 7.89316 9.1221L6.23568 10.7798C5.58947 11.426 5.46759 12.4384 5.94576 13.1872C6.22748 13.628 6.53113 14.0629 6.84851 14.4796C7.01178 14.6942 7.3181 14.7356 7.53267 14.5723C7.74725 14.4091 7.78883 14.1027 7.62537 13.888C7.32439 13.4926 7.036 13.0798 6.76859 12.6616C6.53532 12.2959 6.60151 11.7949 6.92614 11.4702L8.58343 9.81294C9.13141 9.26572 9.13198 8.37823 8.58381 7.83063L4.68272 3.92973C4.13569 3.38175 3.2482 3.38098 2.7006 3.92954L1.71336 4.91678C-0.0513144 6.68088 -0.502211 9.34907 0.59127 11.5561C2.55526 15.5209 6.36805 20.9686 13.3804 24.4072Z" fill="black"/>
</g>
<defs>
<clipPath id="clip0_82_1289">
<rect width="25" height="25" fill="white"/>
</clipPath>
</defs>
</svg>
