<svg width="47" height="47" viewBox="0 0 47 47" fill="none" xmlns="http://www.w3.org/2000/svg">
<g id="g5535">
<g id="g5537">
<g id="Clip path group">
<mask id="mask0_132_630" style="mask-type:luminance" maskUnits="userSpaceOnUse" x="0" y="0" width="47" height="47">
<g id="clipPath5543">
<path id="path5541" d="M0 3.8147e-06H47V47H0V3.8147e-06Z" fill="white"/>
</g>
</mask>
<g mask="url(#mask0_132_630)">
<g id="g5539">
<g id="g5545">
<path id="path5547" d="M6.83496 26.3108H4.99902C4.23803 26.3108 3.62207 26.9268 3.62207 27.6878V44.9346C3.62207 45.6946 4.23803 46.3115 4.99902 46.3115H12.8559" stroke="#E94E1B" stroke-width="1.5" stroke-miterlimit="10" stroke-linecap="round" stroke-linejoin="round"/>
</g>
<g id="g5549">
<path id="path5551" d="M26.6718 26.3108H42.0001C42.7611 26.3108 43.377 26.9268 43.377 27.6878V44.9346C43.377 45.6946 42.7611 46.3115 42.0001 46.3115H16.0684" stroke="#E94E1B" stroke-width="1.5" stroke-miterlimit="10" stroke-linecap="round" stroke-linejoin="round"/>
</g>
<g id="g5553">
<path id="path5555" d="M26.6723 16.2049V26.3108V39.0724C26.6723 40.4915 25.522 41.6427 24.102 41.6427H9.40527C7.98518 41.6427 6.83496 40.4915 6.83496 39.0724V26.3108V3.25882C6.83496 1.83964 7.98518 0.688506 9.40527 0.688506H24.102C25.522 0.688506 26.6723 1.83964 26.6723 3.25882V12.992" stroke="#E94E1B" stroke-width="1.5" stroke-miterlimit="10" stroke-linecap="round" stroke-linejoin="round"/>
</g>
<g id="g5557">
<path id="path5559" d="M12.4814 5.40241V4.70411C12.4814 4.26073 12.8408 3.90134 13.2841 3.90134H20.2237C20.667 3.90134 21.0264 4.26073 21.0264 4.70411V5.40231C21.0264 5.84569 20.667 6.20508 20.2237 6.20508H13.2841C12.8408 6.20508 12.4814 5.84569 12.4814 5.40241Z" stroke="#E94E1B" stroke-width="1.5" stroke-miterlimit="10" stroke-linecap="round" stroke-linejoin="round"/>
</g>
<g id="g5561">
<path id="path5563" d="M10.0479 17.5739V10.4709C10.0479 9.88939 10.5192 9.41792 11.1009 9.41792H22.4069C22.9885 9.41792 23.4599 9.88939 23.4599 10.471V17.5739C23.4599 18.1555 22.9885 18.627 22.4069 18.627H11.1009C10.5193 18.627 10.0479 18.1555 10.0479 17.5739Z" stroke="#E94E1B" stroke-width="1.5" stroke-miterlimit="10" stroke-linecap="round" stroke-linejoin="round"/>
</g>
<g id="g5565">
<path id="path5567" d="M10.0479 34.1989V22.8928C10.0479 22.3113 10.5192 21.8398 11.1009 21.8398H22.4069C22.9885 21.8398 23.4599 22.3113 23.4599 22.8928V34.1989C23.4599 34.7805 22.9885 35.252 22.4069 35.252H11.1009C10.5193 35.252 10.0479 34.7805 10.0479 34.1989Z" stroke="#E94E1B" stroke-width="1.5" stroke-miterlimit="10" stroke-linecap="round" stroke-linejoin="round"/>
</g>
<g id="g5569">
<path id="path5571" d="M23.4594 26.3108H10.0479" stroke="#E94E1B" stroke-width="1.5" stroke-miterlimit="10" stroke-linecap="round" stroke-linejoin="round"/>
</g>
<g id="g5573">
<path id="path5575" d="M23.4594 30.7813H10.0479" stroke="#E94E1B" stroke-width="1.5" stroke-miterlimit="10" stroke-linecap="round" stroke-linejoin="round"/>
</g>
<g id="g5577">
<path id="path5579" d="M14.5186 35.2518V21.8394" stroke="#E94E1B" stroke-width="1.5" stroke-miterlimit="10" stroke-linecap="round" stroke-linejoin="round"/>
</g>
<g id="g5581">
<path id="path5583" d="M18.9893 35.2518V21.8395" stroke="#E94E1B" stroke-width="1.5" stroke-miterlimit="10" stroke-linecap="round" stroke-linejoin="round"/>
</g>
<g id="g5585">
<path id="path5587" d="M12.4814 38.4297H21.0264" stroke="#E94E1B" stroke-width="1.5" stroke-miterlimit="10" stroke-linecap="round" stroke-linejoin="round"/>
</g>
<g id="g5589">
<path id="path5591" d="M39.6143 33.2305H31.0771C30.7729 33.2305 30.5264 32.9838 30.5264 32.6797V30.0742C30.5264 29.7701 30.7729 29.5234 31.0771 29.5234H39.6143C39.9184 29.5234 40.165 29.7701 40.165 30.0742V32.6797C40.165 32.9838 39.9184 33.2305 39.6143 33.2305Z" stroke="#E94E1B" stroke-width="1.5" stroke-miterlimit="10" stroke-linecap="round" stroke-linejoin="round"/>
</g>
<g id="g5593">
<path id="path5595" d="M33.7392 38.035C33.7475 38.9221 33.035 39.6479 32.1478 39.6562C31.2606 39.6644 30.5347 38.9519 30.5264 38.0647C30.5183 37.1776 31.2308 36.4517 32.1179 36.4435C33.0051 36.4352 33.731 37.1477 33.7392 38.035Z" stroke="#E94E1B" stroke-width="1.5" stroke-miterlimit="10" stroke-linecap="round" stroke-linejoin="round"/>
</g>
<g id="g5597">
<path id="path5599" d="M40.165 38.035C40.1733 38.9221 39.4608 39.6479 38.5735 39.6562C37.6864 39.6644 36.9605 38.9519 36.9522 38.0647C36.944 37.1776 37.6566 36.4517 38.5437 36.4435C39.4309 36.4352 40.1568 37.1477 40.165 38.035Z" stroke="#E94E1B" stroke-width="1.5" stroke-miterlimit="10" stroke-linecap="round" stroke-linejoin="round"/>
</g>
</g>
</g>
</g>
</g>
</g>
</svg>
