<svg width="100" height="81" viewBox="0 0 100 81" fill="none" xmlns="http://www.w3.org/2000/svg">
<g id="Mobile service">
<g id="Group">
<path id="Vector" d="M85.2774 72.4863H82.0102C81.201 72.4863 80.5454 73.142 80.5454 73.9511C80.5454 74.7603 81.201 75.4159 82.0102 75.4159H85.2774C86.0866 75.4159 86.7422 74.7603 86.7422 73.9511C86.7422 73.142 86.0864 72.4863 85.2774 72.4863Z" fill="#E94E1B"/>
<path id="Vector_2" d="M49.8886 17.4451C43.6207 17.4451 37.7278 19.8861 33.2957 24.3181C32.7237 24.8903 32.7237 25.8176 33.2957 26.3897C33.8682 26.9617 34.7953 26.9615 35.3673 26.3897C39.2459 22.5107 44.4031 20.3745 49.8886 20.3745C55.3741 20.3745 60.5311 22.5107 64.41 26.3897C64.9823 26.9615 65.9096 26.9615 66.4816 26.3897C67.0537 25.8174 67.0537 24.8901 66.4816 24.3181C62.0494 19.8861 56.1567 17.4451 49.8886 17.4451Z" fill="#E94E1B"/>
<path id="Vector_3" d="M61.4866 31.3848C62.0587 30.8125 62.0587 29.8852 61.4866 29.3132C55.0912 22.9182 44.686 22.9182 38.2904 29.3132C37.7183 29.8854 37.7183 30.8127 38.2904 31.3848C38.8626 31.9566 39.7899 31.9566 40.362 31.3848C45.6147 26.1319 54.1621 26.1319 59.4148 31.3848C59.9873 31.9566 60.9144 31.9564 61.4866 31.3848Z" fill="#E94E1B"/>
<path id="Vector_4" d="M43.2855 34.3077C42.7134 34.8799 42.7134 35.8072 43.2855 36.3793C43.8577 36.9511 44.785 36.9511 45.3571 36.3793C47.8556 33.8804 51.9214 33.8804 54.42 36.3793C54.9924 36.9513 55.9195 36.9511 56.4916 36.3793C57.0636 35.8071 57.0636 34.8797 56.4916 34.3077C52.8507 30.6668 46.9263 30.6668 43.2855 34.3077Z" fill="#E94E1B"/>
<path id="Vector_5" d="M61.8702 52.0632C62.6793 52.0632 63.335 51.4076 63.335 50.5984C63.335 49.7893 62.6793 49.1336 61.8702 49.1336H16.2675V9.80543H83.7278V23.9013C83.7278 24.7105 84.3835 25.3661 85.1926 25.3661C86.0018 25.3661 86.6574 24.7105 86.6574 23.9013V9.68083C86.6574 8.13422 85.3992 6.87607 83.8526 6.87607H16.1427C14.596 6.87607 13.3379 8.13422 13.3379 9.68083V49.2584C13.3379 50.805 14.596 52.0632 16.1427 52.0632H61.8702Z" fill="#E94E1B"/>
<path id="Vector_6" d="M95.4896 29.295H93.5335V6.54249C93.5335 2.93484 90.5986 0 86.991 0H13.0047C9.39706 0 6.46222 2.93484 6.46222 6.54249V56.0093H3.89163C1.74563 56.0095 0 57.7551 0 59.9007C0 65.8483 4.83866 70.6872 10.7865 70.6872H67.2871V76.0047C67.2871 78.4919 69.3105 80.5155 71.7979 80.5155H95.4898C97.9768 80.5155 100 78.4921 100 76.0047V33.8058C100 31.3186 97.9766 29.295 95.4896 29.295ZM9.39178 6.54249C9.39178 4.55039 11.0126 2.92956 13.0047 2.92956H86.991C88.9831 2.92956 90.6039 4.55039 90.6039 6.54249V29.295H71.7977C69.3105 29.295 67.2869 31.3184 67.2869 33.8058V56.0095C65.0575 56.0095 12.2596 56.0095 9.39159 56.0095L9.39178 6.54249ZM35.8774 58.9391H60.6029V60.4113C60.6029 61.223 59.9423 61.8835 59.1305 61.8835H37.3498C36.5379 61.8835 35.8774 61.223 35.8774 60.4113V58.9391ZM10.7865 67.7576C6.45421 67.7576 2.92956 64.233 2.92956 59.9007C2.92956 59.3703 3.36118 58.9389 3.89163 58.9389H32.9478V60.4111C32.9478 62.8383 34.9225 64.8128 37.3498 64.8128H59.1303C61.5575 64.8128 63.5322 62.8383 63.5322 60.4111V58.9389H67.2869V67.7574L10.7865 67.7576ZM97.0704 76.0045C97.0704 76.8764 96.3613 77.5857 95.4894 77.5857H71.7977C70.9258 77.5857 70.2165 76.8764 70.2165 76.0045V33.8058C70.2165 32.9339 70.9258 32.2246 71.7977 32.2246H95.4896C96.3615 32.2246 97.0706 32.9339 97.0706 33.8058V76.0045H97.0704Z" fill="#E94E1B"/>
<path id="Vector_7" d="M92.0183 34.6516H75.2684C73.821 34.6516 72.6436 35.8291 72.6436 37.2765V67.6119C72.6436 69.0593 73.821 70.2368 75.2684 70.2368H92.0183C93.4657 70.2368 94.6432 69.0593 94.6432 67.6119V37.2767C94.6434 35.8291 93.4657 34.6516 92.0183 34.6516ZM91.7138 67.3075H75.5731V37.5812H91.7138V67.3075Z" fill="#E94E1B"/>
</g>
</g>
</svg>
