<svg width="120" height="100" viewBox="0 0 120 100" fill="none" xmlns="http://www.w3.org/2000/svg">
<path d="M107.6 49.2353H104.871C104.195 49.2353 103.647 49.8145 103.647 50.5294C103.647 51.2443 104.195 51.8235 104.871 51.8235H107.6C108.276 51.8235 108.824 51.2443 108.824 50.5294C108.824 49.8145 108.276 49.2353 107.6 49.2353Z" fill="#E94E1B"/>
<path d="M112.978 16.8824H98.1989C96.9218 16.8824 95.8828 17.9101 95.8828 19.1734V45.6502C95.8828 46.9135 96.9218 47.9412 98.1989 47.9412H112.978C114.256 47.9412 115.295 46.9135 115.295 45.6502V19.1735C115.295 17.9101 114.256 16.8824 112.978 16.8824ZM112.71 45.3844H98.4678V19.4393H112.71V45.3844Z" fill="#E94E1B"/>
<path d="M115.934 13H95.2426C93.4546 13 92 14.4559 92 16.2456V53.7544C92 55.5441 93.4546 57 95.2426 57H115.934C117.722 57 119.176 55.5441 119.176 53.7544V16.2458C119.177 14.4559 117.722 13 115.934 13ZM116.603 54.4255H94.5737V15.5747H116.603V54.4255Z" fill="#E94E1B"/>
<g clip-path="url(#clip0_150_346)">
<path d="M21.6367 67.2135C21.6367 69.7848 23.7286 71.8767 26.2997 71.8767C28.871 71.8767 30.9629 69.7848 30.9629 67.2135C30.9629 64.6422 28.871 62.5505 26.2997 62.5505C23.7286 62.5503 21.6367 64.6422 21.6367 67.2135ZM28.0334 67.2135C28.0334 68.1695 27.2557 68.9472 26.2997 68.9472C25.3437 68.9472 24.5662 68.1695 24.5662 67.2135C24.5662 66.2575 25.3437 65.48 26.2997 65.48C27.2557 65.48 28.0334 66.2575 28.0334 67.2135Z" fill="#E94E1B"/>
<path d="M33.3701 67.2135C33.3701 69.7848 35.462 71.8767 38.0333 71.8767C40.6046 71.8767 42.6965 69.7848 42.6965 67.2135C42.6965 64.6422 40.6046 62.5505 38.0333 62.5505C35.462 62.5505 33.3701 64.6422 33.3701 67.2135ZM38.0333 65.4798C38.9893 65.4798 39.767 66.2575 39.767 67.2133C39.767 68.1691 38.9893 68.947 38.0333 68.947C37.0773 68.947 36.2996 68.1693 36.2996 67.2133C36.2996 66.2573 37.0775 65.4798 38.0333 65.4798Z" fill="#E94E1B"/>
<path d="M23.5308 33.016C31.2774 25.269 43.8832 25.269 51.6301 33.016C51.9163 33.3019 52.2912 33.4451 52.666 33.4451C53.0408 33.4451 53.4158 33.3021 53.7019 33.016C54.2739 32.4439 54.2739 31.5165 53.7019 30.9446C44.812 22.0552 30.3487 22.0554 21.4593 30.9446C20.8873 31.5167 20.8873 32.4441 21.4593 33.016C22.0313 33.588 22.9586 33.588 23.5308 33.016Z" fill="#E94E1B"/>
<path d="M47.8251 38.2855C48.1998 38.2855 48.5748 38.1426 48.8609 37.8565C49.433 37.2844 49.433 36.357 48.8609 35.7851C45.8521 32.7763 41.8458 31.1192 37.58 31.1192C33.3143 31.1192 29.3083 32.7761 26.2991 35.7851C25.7271 36.3572 25.7271 37.2846 26.2991 37.8565C26.8712 38.4283 27.7985 38.4287 28.3707 37.8565C30.8262 35.401 34.0967 34.0487 37.5798 34.0487C41.0632 34.0487 44.3337 35.401 46.789 37.8565C47.0753 38.1426 47.4501 38.2855 47.8251 38.2855Z" fill="#E94E1B"/>
<path d="M42.9851 43.126C43.3598 43.126 43.7348 42.9831 44.0209 42.697C44.5929 42.1249 44.5929 41.1975 44.0209 40.6256C42.3003 38.9052 40.0132 37.9578 37.5803 37.9578C35.1475 37.9578 32.8603 38.9052 31.1399 40.6256C30.5679 41.1977 30.5679 42.1251 31.1401 42.697C31.712 43.2692 32.6394 43.269 33.2115 42.697C34.3784 41.5301 35.9299 40.8873 37.5801 40.8873C39.2304 40.8873 40.7823 41.5301 41.949 42.697C42.2353 42.9831 42.6103 43.126 42.9851 43.126Z" fill="#E94E1B"/>
<path fill-rule="evenodd" clip-rule="evenodd" d="M85.8142 38.4144C86.2693 37.7457 87.1806 37.5725 87.8493 38.0278C88.5962 38.5361 89.3136 39.0773 90 39.6486V43.6304C88.8544 42.4584 87.5844 41.391 86.2009 40.4495C85.5322 39.9942 85.359 39.0831 85.8142 38.4144ZM96.987 59C97.0387 59.6514 97.0649 60.3075 97.0649 60.9672C97.0649 70.3627 91.8545 78.7934 83.6204 83.0214V75.835C83.6204 74.0058 82.341 72.4729 80.6312 72.0753C82.1034 69.3436 84.8848 66.9249 84.9215 66.8932C85.5346 66.3661 85.6045 65.4417 85.0776 64.8283C84.5509 64.2149 83.6259 64.1442 83.0123 64.6713C82.9039 64.7643 81.4395 66.0343 79.9637 67.8691V63.3663C79.9637 61.3258 78.3724 59.654 76.3658 59.5168V54.7192C76.3658 52.9742 75.2685 51.4841 73.7291 50.8927V42.6194C73.7291 41.8105 73.0735 41.1547 72.2644 41.1547C71.4552 41.1547 70.7996 41.8105 70.7996 42.6194V50.8927C69.2603 51.4841 68.1627 52.9742 68.1627 54.7192V59.5168C66.1564 59.654 64.5649 61.3258 64.5649 63.3663V67.8691C63.089 66.0343 61.6246 64.7643 61.5162 64.6713C60.9034 64.145 59.9796 64.2145 59.4521 64.8277C58.9248 65.4408 58.9943 66.3653 59.607 66.893C59.641 66.9221 62.4242 69.3419 63.8973 72.0749C62.1869 72.4721 60.9071 74.0054 60.9071 75.835V83.0209C52.7049 78.827 47.4469 70.3281 47.4627 60.9672C47.4627 47.2924 58.5889 36.1671 72.2648 36.1671C75.0472 36.1671 77.7771 36.6247 80.3802 37.5256C81.2997 37.8977 82.4016 37.1468 82.3615 36.1376L83.3466 15.9382C83.5665 13.4927 81.5653 11.2754 79.0602 11.2985C76.9287 11.2985 75.1011 12.8923 74.8085 15.0062L72.2923 33.238L72.2646 33.2378C58.7153 33.2378 47.406 43.0052 45.0048 55.868H41.0069C40.1977 55.868 39.5421 56.5238 39.5421 57.3327C39.5421 58.1416 40.1977 58.7975 41.0069 58.7975H44.6176C44.5619 59.5136 44.533 60.2374 44.533 60.9676C44.533 66.1913 45.9802 71.2347 48.7257 75.6305H4.1179C3.74488 75.6305 3.40135 75.4604 3.17499 75.1636C2.94845 74.8665 2.87521 74.4896 2.97383 74.1302L6.35642 61.8297L6.48454 64.4606C6.5734 68.033 9.99134 70.9875 13.5282 70.5719C15.2986 70.4068 16.8819 69.5489 17.9861 68.156C19.0905 66.7631 19.5649 65.0261 19.3218 63.2649L18.705 58.7975H34.1614C34.9705 58.7975 35.6262 58.1416 35.6262 57.3327C35.6262 56.5238 34.9705 55.868 34.1614 55.868H18.3009L12.6603 15.0056C12.3584 12.7363 10.2388 11.0911 8.00514 11.3164C6.14042 11.4905 4.66259 12.8242 4.23449 14.5527C4.13567 14.9515 4.09271 15.3716 4.11399 15.8031L6.12226 57.0198C4.94187 57.8536 4.07513 59.0752 3.68805 60.4847L0.149218 73.3539C-0.193533 74.6029 0.0605517 75.9098 0.845851 76.9396C1.60752 77.9384 2.75315 78.5221 4.00287 78.5563V80.6845C4.00287 82.8931 5.79962 84.6901 8.00846 84.6901H57.8972C62.2086 87.3133 67.1905 88.7074 72.2649 88.6988C87.1413 89.0158 100.309 75.8629 99.9946 60.9672C99.9945 60.308 99.9712 59.6519 99.9249 59H96.987ZM76.3819 25.0339H79.9697L80.4177 15.8493C80.548 15.0283 79.9287 14.2153 79.06 14.228C78.3835 14.228 77.8035 14.735 77.7105 15.4072L76.3819 25.0339ZM79.827 27.9634H75.9776L75.228 33.3945C76.6815 33.5488 78.1159 33.8179 79.5229 34.1987L79.827 27.9634ZM13.2567 67.6545C14.2233 67.5645 15.0879 67.0961 15.6908 66.3356C16.2937 65.5751 16.5526 64.6268 16.42 63.6651L11.4916 27.9634H7.63935L9.41071 64.3174C9.46266 66.2685 11.3168 67.8789 13.2567 67.6545ZM9.75815 15.407C9.66206 14.6963 9.00195 14.1647 8.26802 14.234C7.54736 14.3014 7.00404 14.9281 7.03978 15.6599L7.49697 25.0337H11.087L9.75815 15.407ZM72.2644 53.5472C71.6179 53.5472 71.0922 54.073 71.0922 54.7192V59.5035H73.4364V54.7192C73.4364 54.073 72.9106 53.5472 72.2644 53.5472ZM76.1004 62.4328H68.4279C67.9133 62.4328 67.4944 62.8515 67.4942 63.3665V71.972H71.1699C70.7348 70.3828 69.7954 68.6617 69.3689 67.9842C68.9382 67.3 69.1429 66.3956 69.8268 65.9644C70.5102 65.533 71.4144 65.7367 71.846 66.4202C72.0599 66.7583 73.669 69.3667 74.1765 71.9718H77.034V63.3663C77.034 62.8515 76.6152 62.4328 76.1004 62.4328ZM6.93217 80.6843C6.93217 81.2776 7.41495 81.7604 8.00827 81.7604H53.9138C52.8063 80.7814 51.7763 79.7115 50.8312 78.5594H6.93217V80.6843ZM63.8366 84.3003C66.3507 85.2145 69.0152 85.7013 71.6886 85.7625C74.7453 85.8326 77.8163 85.3453 80.6909 84.3003V75.8352C80.6909 75.3204 80.2722 74.9015 79.7572 74.9015H64.7703C64.2555 74.9015 63.8366 75.3204 63.8366 75.8352V84.3003Z" fill="#E94E1B"/>
</g>
<defs>
<clipPath id="clip0_150_346">
<rect width="100" height="100" fill="white"/>
</clipPath>
</defs>
</svg>
