<svg width="10" height="21" viewBox="0 0 10 21" fill="none" xmlns="http://www.w3.org/2000/svg">
<path d="M1.98478 19.8833V10.6877H0.704126C0.315106 10.6877 0 10.3673 0 9.97359V7.06199C0 6.66983 0.316662 6.34869 0.704126 6.34869H1.98478V4.00758C1.98478 1.7943 3.75482 0 5.93722 0H9.22366C9.61268 0 9.92778 0.319565 9.92778 0.714089V3.62489C9.92778 4.01942 9.61268 4.33898 9.22366 4.33898H7.27856C7.05682 4.33898 6.87398 4.52441 6.87398 4.74929V6.35027L9.18087 6.34869C9.56989 6.37631 9.88499 6.64222 9.88499 7.06199C9.81652 8.0483 9.7216 9.04487 9.63913 10.0328C9.60879 10.4012 9.30302 10.6877 8.93812 10.6877H6.87398V19.8833C6.87398 20.2754 6.5581 20.5966 6.17063 20.5966L2.6889 20.5973C2.30066 20.5973 1.98478 20.277 1.98478 19.8833ZM2.90442 19.6663H5.95434V9.75502H8.7405L8.94668 7.27898H5.95434V4.74929C5.95434 4.00758 6.5472 3.40633 7.27856 3.40633H9.00814V0.932656H5.93722C4.2621 0.932656 2.90442 2.30955 2.90442 4.00758V7.28056H0.919643V9.75502H2.90442V19.6663Z" fill="#29235C"/>
</svg>
