<svg width="49" height="43" viewBox="0 0 49 43" fill="none" xmlns="http://www.w3.org/2000/svg">
<g id="calendar(2) 1">
<g id="Group">
<path id="Vector" d="M4.00391 23.2743V36.8462C4.00391 37.1061 4.21461 37.3168 4.47443 37.3168H13.0891V12.5747H4.47443C4.21461 12.5747 4.00391 12.7854 4.00391 13.0452V19.9807" stroke="#E94E1B" stroke-width="1.5" stroke-miterlimit="10" stroke-linecap="round" stroke-linejoin="round"/>
<path id="Vector_2" d="M22.174 12.5748H13.0889V18.7603H22.174V12.5748Z" stroke="#E94E1B" stroke-width="1.5" stroke-miterlimit="10" stroke-linecap="round" stroke-linejoin="round"/>
<path id="Vector_3" d="M31.259 12.5748H22.1738V18.7603H31.259V12.5748Z" stroke="#E94E1B" stroke-width="1.5" stroke-miterlimit="10" stroke-linecap="round" stroke-linejoin="round"/>
<path id="Vector_4" d="M31.2598 12.5748H39.8744C40.1342 12.5748 40.3449 12.7855 40.3449 13.0453V18.7603H31.2598V12.5748Z" stroke="#E94E1B" stroke-width="1.5" stroke-miterlimit="10" stroke-linecap="round" stroke-linejoin="round"/>
<path id="Vector_5" d="M22.174 18.7603V24.9457H13.0889" stroke="#E94E1B" stroke-width="1.5" stroke-miterlimit="10" stroke-linejoin="round"/>
<path id="Vector_6" d="M31.2598 24.278V18.7603" stroke="#E94E1B" stroke-width="1.5" stroke-miterlimit="10" stroke-linejoin="round"/>
<path id="Vector_7" d="M40.3447 24.1396V18.7603" stroke="#E94E1B" stroke-width="1.5" stroke-miterlimit="10" stroke-linejoin="round"/>
<path id="Vector_8" d="M22.174 24.9457V31.1312H13.0889" stroke="#E94E1B" stroke-width="1.5" stroke-miterlimit="10" stroke-linejoin="round"/>
<path id="Vector_9" d="M30.2827 24.9457H22.1738" stroke="#E94E1B" stroke-width="1.5" stroke-miterlimit="10" stroke-linejoin="round"/>
<path id="Vector_10" d="M22.174 37.3167H13.0889" stroke="#E94E1B" stroke-width="1.5" stroke-miterlimit="10" stroke-linejoin="round"/>
<path id="Vector_11" d="M29.7022 31.1312H22.1738V37.3167H29.7022V31.1312Z" stroke="#E94E1B" stroke-width="1.5" stroke-miterlimit="10" stroke-linecap="round" stroke-linejoin="round"/>
<g id="Group_2">
<g id="Group_3">
<path id="Vector_12" d="M41.0684 28.3333H43.1376V38.0141" stroke="#E94E1B" stroke-width="1.5" stroke-miterlimit="10" stroke-linecap="round" stroke-linejoin="round"/>
</g>
<g id="Group_4">
<path id="Vector_13" d="M34.3838 30.2165C34.6074 29.0782 35.6106 28.2195 36.8144 28.2195C38.1825 28.2195 39.2915 29.3285 39.2915 30.6966C39.2915 32.0647 38.1825 33.1738 36.8144 33.1738" stroke="#E94E1B" stroke-width="1.5" stroke-miterlimit="10" stroke-linecap="round" stroke-linejoin="round"/>
<path id="Vector_14" d="M36.8131 33.1738C38.1812 33.1738 39.2902 34.2828 39.2902 35.6509C39.2902 37.019 38.1812 38.128 36.8131 38.128C35.5622 38.128 34.5279 37.2009 34.3598 35.9964C34.3441 35.8835 34.3359 35.7681 34.3359 35.6508" stroke="#E94E1B" stroke-width="1.5" stroke-miterlimit="10" stroke-linecap="round" stroke-linejoin="round"/>
</g>
</g>
<path id="Vector_15" d="M13.039 1.51965H3.35262C2.05332 1.51965 1 2.57297 1 3.87227V9.57145H43.3472V3.87227C43.3472 2.57297 42.2939 1.51965 40.9946 1.51965H16.3327" stroke="#E94E1B" stroke-width="1.5" stroke-miterlimit="10" stroke-linecap="round" stroke-linejoin="round"/>
<path id="Vector_16" d="M42.9351 42.2077H45.4177C46.717 42.2077 47.7703 41.1544 47.7703 39.8551V26.4922C47.7703 25.1929 46.717 24.1396 45.4177 24.1396H32.0548C30.7555 24.1396 29.7021 25.1929 29.7021 26.4922V39.8551C29.7021 41.1544 30.7555 42.2077 32.0548 42.2077H39.6414" stroke="#E94E1B" stroke-width="1.5" stroke-miterlimit="10" stroke-linecap="round" stroke-linejoin="round"/>
<path id="Vector_17" d="M5.35544 6.89704C6.10187 6.89704 6.70697 6.29194 6.70697 5.5455C6.70697 4.79907 6.10187 4.19397 5.35544 4.19397C4.60901 4.19397 4.00391 4.79907 4.00391 5.5455C4.00391 6.29194 4.60901 6.89704 5.35544 6.89704Z" stroke="#E94E1B" stroke-width="1.5" stroke-miterlimit="10" stroke-linejoin="round"/>
<path id="Vector_18" d="M38.9922 6.89704C39.7386 6.89704 40.3437 6.29194 40.3437 5.5455C40.3437 4.79907 39.7386 4.19397 38.9922 4.19397C38.2457 4.19397 37.6406 4.79907 37.6406 5.5455C37.6406 6.29194 38.2457 6.89704 38.9922 6.89704Z" stroke="#E94E1B" stroke-width="1.5" stroke-miterlimit="10" stroke-linejoin="round"/>
<path id="Vector_19" d="M29.702 39.8551V26.4922C29.702 25.1929 30.7553 24.1395 32.0546 24.1395H43.3472V9.57137H1V37.9674C1 39.2667 2.05332 40.32 3.35262 40.32H29.7482C29.718 40.1697 29.702 40.0142 29.702 39.8551Z" stroke="#E94E1B" stroke-width="1.5" stroke-miterlimit="10" stroke-linejoin="round"/>
</g>
</g>
</svg>
