<svg width="36" height="36" viewBox="0 0 36 36" fill="none" xmlns="http://www.w3.org/2000/svg">
<g clip-path="url(#clip0_82_1541)">
<path d="M35.9214 13.8245C35.7339 13.2476 35.2446 12.8352 34.6445 12.7479L24.1235 11.2191L19.4184 1.68561C19.15 1.14174 18.6065 0.803894 18 0.803894C17.3935 0.803894 16.8499 1.14174 16.5816 1.68561L11.8765 11.2191L1.35549 12.748C0.755232 12.8352 0.265999 13.2476 0.0785459 13.8245C-0.108907 14.4015 0.0445147 15.0227 0.478834 15.4461L8.09183 22.8669L7.39497 26.93C7.34575 27.217 7.53855 27.4896 7.82556 27.5389C8.11293 27.5881 8.38525 27.3953 8.43447 27.1082L9.17823 22.7719C9.20755 22.6009 9.15088 22.4263 9.02657 22.3051L1.215 14.6907C1.06812 14.5475 1.01827 14.3455 1.08162 14.1504C1.14504 13.9553 1.30409 13.8211 1.50715 13.7916L12.3025 12.2229C12.4743 12.198 12.6227 12.0901 12.6995 11.9344L17.5273 2.1522C17.6182 1.9682 17.7948 1.85837 18 1.85837C18.2051 1.85837 18.3818 1.9682 18.4726 2.1522L23.3005 11.9344C23.3773 12.0901 23.5258 12.1979 23.6975 12.2229L34.4929 13.7916C34.6959 13.8211 34.855 13.9552 34.9183 14.1503C34.9817 14.3454 34.9319 14.5474 34.785 14.6907L26.9734 22.3051C26.8491 22.4263 26.7923 22.6008 26.8217 22.7719L28.6658 33.5235C28.7005 33.7258 28.6221 33.9185 28.4561 34.0391C28.2901 34.1596 28.0826 34.1747 27.901 34.0791L18.2454 29.0029C18.0917 28.9222 17.9082 28.9222 17.7546 29.0029L8.09894 34.0791C7.91732 34.1746 7.70976 34.1596 7.54389 34.0391C7.37788 33.9185 7.29948 33.7258 7.33422 33.5235L8.07798 29.1872C8.1272 28.9001 7.93441 28.6275 7.64739 28.5783C7.36009 28.5293 7.0877 28.7219 7.03849 29.0089L6.29472 33.3453C6.19221 33.9431 6.43331 34.5359 6.92402 34.8924C7.20126 35.0938 7.52568 35.1961 7.85221 35.1961C8.10358 35.1961 8.35628 35.1355 8.58979 35.0128L18 30.0656L27.4102 35.0128C27.947 35.295 28.5853 35.2488 29.076 34.8924C29.5667 34.5359 29.8078 33.943 29.7052 33.3453L27.908 22.8669L35.5211 15.446C35.9554 15.0226 36.1088 14.4012 35.9214 13.8245Z" fill="white"/>
</g>
<defs>
<clipPath id="clip0_82_1541">
<rect width="36" height="36" fill="white"/>
</clipPath>
</defs>
</svg>
