<svg width="21" height="21" viewBox="0 0 21 21" fill="none" xmlns="http://www.w3.org/2000/svg">
<path d="M4.23104 4.34061L4.231 4.34056L4.2289 4.34266C3.86954 4.70203 3.38265 4.9276 2.86686 4.89538L2.86687 4.89524H2.8626C2.37399 4.89524 1.85297 4.69932 1.49631 4.34266L1.49635 4.34262L1.49417 4.34061C1.1061 3.98487 0.91006 3.46531 0.91006 2.9427C0.91006 2.4219 1.10497 1.93407 1.49631 1.54274C1.85296 1.18608 2.34032 0.990154 2.89627 0.990154C3.38366 0.990154 3.87142 1.18525 4.2289 1.54274C4.62024 1.93407 4.81515 2.4219 4.81515 2.9427C4.81515 3.46531 4.61911 3.98487 4.23104 4.34061ZM2.89627 0.18004C2.13822 0.18004 1.44694 0.455999 0.928255 0.974682C0.376672 1.52626 0.0999467 2.21716 0.0999467 2.94266C0.0999467 3.70289 0.411118 4.39354 0.928255 4.91068C1.44477 5.42719 2.16942 5.73947 2.86429 5.70532H2.86431H2.86436H2.86441H2.86446H2.86451H2.86456H2.86461H2.86467H2.86472H2.86477H2.86483H2.86489H2.86494H2.865H2.86506H2.86512H2.86518H2.86523H2.8653H2.86536H2.86542H2.86548H2.86554H2.86561H2.86567H2.86574H2.8658H2.86587H2.86593H2.866H2.86607H2.86614H2.86621H2.86628H2.86635H2.86642H2.86649H2.86656H2.86664H2.86671H2.86678H2.86686H2.86693H2.86701H2.86709H2.86716H2.86724H2.86732H2.8674H2.86748H2.86756H2.86764H2.86772H2.8678H2.86788H2.86797H2.86805H2.86814H2.86822H2.86831H2.86839H2.86848H2.86857H2.86865H2.86874H2.86883H2.86892H2.86901H2.8691H2.86919H2.86928H2.86938H2.86947H2.86956H2.86966H2.86975H2.86985H2.86994H2.87004H2.87013H2.87023H2.87033H2.87043H2.87053H2.87063H2.87073H2.87083H2.87093H2.87103H2.87113H2.87123H2.87134H2.87144H2.87155H2.87165H2.87176H2.87186H2.87197H2.87208H2.87218H2.87229H2.8724H2.87251H2.87262H2.87273H2.87284H2.87295H2.87306H2.87317H2.87329H2.8734H2.87351H2.87363H2.87374H2.87386H2.87397H2.87409H2.8742H2.87432H2.87444H2.87456H2.87468H2.8748H2.87491H2.87503H2.87516H2.87528H2.8754H2.87552H2.87564H2.87576H2.87589H2.87601H2.87614H2.87626H2.87639H2.87651H2.87664H2.87676H2.87689H2.87702H2.87715H2.87728H2.8774H2.87753H2.87766H2.87779H2.87792H2.87806H2.87819H2.87832H2.87845H2.87858H2.87872H2.87885H2.87899H2.87912H2.87926H2.87939H2.87953H2.87966H2.8798H2.87994H2.88008H2.88021H2.88035H2.88049H2.88063H2.88077H2.88091H2.88105H2.88119H2.88133H2.88148H2.88162H2.88176H2.8819H2.88205H2.88219H2.88234H2.88248H2.88263H2.88277H2.88292H2.88306H2.88321H2.88336H2.8835H2.88365H2.8838H2.88395H2.8841H2.88425H2.8844H2.88455H2.8847H2.88485H2.885H2.88515H2.8853H2.88545H2.88561H2.88576H2.88591H2.88607H2.88622H2.88638H2.88653H2.88669H2.88684H2.887H2.88715H2.88731H2.88747H2.88763H2.88778H2.88794H2.8881H2.88826H2.88842H2.88858H2.88874H2.8889H2.88906H2.88922H2.88938H2.88954H2.8897H2.88986H2.89003H2.89019H2.89035H2.89052H2.89068H2.89084H2.89101H2.89117H2.89134H2.8915H2.89167H2.89183H2.892H2.89217H2.89233H2.8925H2.89267H2.89284H2.893H2.89317H2.89334H2.89351H2.89368H2.89385H2.89402H2.89419H2.89436H2.89453H2.8947H2.89487H2.89504H2.89521H2.89539H2.89556H2.89573H2.8959H2.89608H2.89625H2.89642H2.8966H2.89677H2.89695H2.89712H2.8973H2.89747H2.89765H2.89782H2.898H2.89818H2.89835H2.89853H2.89871H2.89888H2.89906H2.89924H2.89942H2.89959H2.89977H2.89995H2.90013H2.90031H2.90049H2.90067H2.90085H2.90103H2.90121H2.90139H2.90157H2.90175H2.90193H2.90211H2.9023H2.90248H2.90266H2.90284H2.90302H2.90321H2.90339H2.90357H2.90376H2.90394H2.90412H2.90431H2.90449H2.90468H2.90486H2.90505H2.90523H2.90542H2.9056H2.90579H2.90597H2.90616H2.90634H2.90653H2.90672H2.9069H2.90709H2.90728H2.90747H2.90765H2.90784H2.90803H2.90822H2.9084H2.90859H2.90878H2.90897H2.90916H2.90935H2.90954H2.90972H2.90991H2.9101H2.91029H2.91048H2.91067H2.91086H2.91105H2.91124H2.91143H2.91163H2.91182H2.91201H2.9122H2.91239H2.91258H2.91277H2.91296H2.91316H2.91335H2.91354H2.91373H2.91392H2.91412H2.91431H2.9145H2.91469H2.91489H2.91508H2.91527H2.91547H2.91566H2.91585H2.91605H2.91624H2.91644H2.91663H2.91682H2.91702H2.91721H2.91741H2.9176H2.91779H2.91799H2.91818H2.91838H2.91857H2.91877H2.91896H2.91916H2.91935H2.91955H2.91974H2.91994H2.92014H2.92033H2.92053H2.92072H2.92092H2.92111H2.92131H2.92151H2.9217H2.9219H2.92209H2.92229H2.92249H2.92268H2.92288H2.92308H2.92327H2.92347H2.92367H2.92386H2.92406H2.92426H2.92445H2.92465H2.92485H2.92504H2.92524H2.92544H2.92564H2.92583H2.92603H2.92623H2.92642H2.92662H2.92682H2.92702H2.92721H2.92741H2.92761H2.92781H2.928H2.9282H2.9284H2.9286H2.92879H2.92899H2.92919H2.92939H2.92958H2.92978H2.92998C3.62256 5.70532 4.27958 5.42805 4.79695 4.91068C5.31372 4.39391 5.62482 3.70387 5.62526 2.94428C5.65942 2.21591 5.34719 1.52526 4.8314 1.00908C4.31269 0.456256 3.62103 0.18004 2.89627 0.18004Z" fill="#29235C" stroke="#29235C" stroke-width="0.136502"/>
<path d="M4.20983 6.24254H1.48176C0.903696 6.24254 0.436776 6.71244 0.436776 7.32119V19.1092C0.436776 19.6857 0.938865 20.1878 1.51543 20.1878H4.20983C4.7849 20.1878 5.28848 19.6872 5.28848 19.1428V7.32119C5.28848 6.74459 4.78639 6.24254 4.20983 6.24254ZM4.47837 19.1428C4.47837 19.2033 4.4481 19.2614 4.39667 19.306C4.34504 19.3507 4.27646 19.3777 4.20983 19.3777H1.51543C1.45342 19.3777 1.38571 19.346 1.33214 19.2925C1.27857 19.2389 1.24689 19.1712 1.24689 19.1092V7.32119C1.24689 7.25454 1.27388 7.18596 1.31862 7.13434C1.36319 7.08291 1.42126 7.05265 1.48176 7.05265H4.20983C4.27184 7.05265 4.33955 7.08434 4.39312 7.13791C4.44668 7.19149 4.47837 7.2592 4.47837 7.32119V19.1428Z" fill="#29235C" stroke="#29235C" stroke-width="0.136502"/>
<path d="M13.807 9.50966L13.8086 9.50962C14.5335 9.50964 15.2246 9.78591 15.743 10.3043C16.1976 10.7589 16.4028 11.385 16.4029 12.2046L13.807 9.50966ZM13.807 9.50966C12.354 9.54424 11.2144 10.721 11.2144 12.2386V19.3778H7.64608V7.05277H10.8776V9.14002V9.30479L10.9941 9.18828L11.9034 8.27892L11.9371 8.24526L11.9378 8.24592L11.9444 8.23667C12.6047 7.31228 13.7624 6.71598 14.9874 6.71598H15.6947C17.9117 6.71598 19.6344 8.50228 19.6344 10.7567V19.3778H16.4362L16.4029 12.2049L13.807 9.50966ZM14.9537 5.90587C13.684 5.90587 12.4758 6.43301 11.654 7.28215V6.98452C11.654 6.79393 11.5594 6.60904 11.4235 6.47316C11.2876 6.33727 11.1028 6.24266 10.9121 6.24266H7.54417C7.37393 6.24266 7.19004 6.31752 7.04887 6.44047C6.907 6.56403 6.8023 6.7416 6.8023 6.95081V19.5134C6.8023 19.7234 6.90778 19.8932 7.05085 20.0086C7.19299 20.1232 7.37638 20.1879 7.54417 20.1879H11.249C11.4168 20.1879 11.6002 20.1232 11.7423 20.0086C11.8854 19.8932 11.9908 19.7234 11.9908 19.5134V12.2385C11.9908 11.16 12.7732 10.3197 13.775 10.3197C14.2966 10.3197 14.7842 10.5152 15.1413 10.8723L15.1412 10.8723L15.1439 10.8747C15.4596 11.1589 15.5928 11.6066 15.5928 12.2049V19.4461C15.5928 19.6367 15.6874 19.8216 15.8233 19.9574C15.9592 20.0933 16.1441 20.1879 16.3347 20.1879H19.7026C19.8932 20.1879 20.0781 20.0933 20.214 19.9575C20.3499 19.8216 20.4445 19.6367 20.4445 19.4461V10.7567C20.4445 8.02555 18.3604 5.90587 15.661 5.90587H14.9537Z" fill="#29235C" stroke="#29235C" stroke-width="0.136502"/>
</svg>
