<svg width="25" height="25" viewBox="0 0 25 25" fill="none" xmlns="http://www.w3.org/2000/svg">
<g id="fluent:location-28-regular">
<path id="Vector" d="M12.5 2.00903C14.8088 2.00903 17.0231 2.9262 18.6556 4.55877C20.2882 6.19134 21.2054 8.40559 21.2054 10.7144C21.2054 14.393 18.6205 18.4019 13.5179 22.784C13.2341 23.0278 12.8724 23.1616 12.4983 23.1613C12.1243 23.161 11.7628 23.0265 11.4795 22.7822L11.142 22.4894C6.26518 18.2215 3.79465 14.3108 3.79465 10.7144C3.79465 8.40559 4.71182 6.19134 6.34439 4.55877C7.97696 2.9262 10.1912 2.00903 12.5 2.00903ZM12.5 3.34832C10.5464 3.34832 8.67281 4.12438 7.29141 5.50579C5.91 6.8872 5.13393 8.76079 5.13393 10.7144C5.13393 13.8412 7.40893 17.4439 12.0214 21.4796L12.3545 21.768C12.395 21.8028 12.4466 21.8219 12.5 21.8219C12.5534 21.8219 12.605 21.8028 12.6455 21.768C17.4813 17.6144 19.8661 13.9153 19.8661 10.7144C19.8661 9.74706 19.6755 8.78921 19.3054 7.89552C18.9352 7.00182 18.3926 6.18979 17.7086 5.50579C17.0246 4.82179 16.2126 4.27921 15.3189 3.90903C14.4252 3.53885 13.4673 3.34832 12.5 3.34832ZM12.5 7.36618C13.388 7.36618 14.2396 7.71893 14.8676 8.34685C15.4955 8.97476 15.8482 9.82639 15.8482 10.7144C15.8482 11.6024 15.4955 12.454 14.8676 13.0819C14.2396 13.7098 13.388 14.0626 12.5 14.0626C11.612 14.0626 10.7604 13.7098 10.1325 13.0819C9.50455 12.454 9.15179 11.6024 9.15179 10.7144C9.15179 9.82639 9.50455 8.97476 10.1325 8.34685C10.7604 7.71893 11.612 7.36618 12.5 7.36618ZM12.5 8.70546C11.9672 8.70546 11.4562 8.91712 11.0795 9.29386C10.7027 9.67061 10.4911 10.1816 10.4911 10.7144C10.4911 11.2472 10.7027 11.7582 11.0795 12.1349C11.4562 12.5117 11.9672 12.7233 12.5 12.7233C13.0328 12.7233 13.5438 12.5117 13.9205 12.1349C14.2973 11.7582 14.5089 11.2472 14.5089 10.7144C14.5089 10.1816 14.2973 9.67061 13.9205 9.29386C13.5438 8.91712 13.0328 8.70546 12.5 8.70546Z" fill="black"/>
</g>
</svg>
