<svg width="42" height="42" viewBox="0 0 42 42" fill="none" xmlns="http://www.w3.org/2000/svg">
<g id="customer-support 1" clip-path="url(#clip0_132_621)">
<g id="Group">
<path id="Vector" d="M28.8547 41.0118L28.8547 41.0117C13.4793 40.3668 1.05448 27.7702 0.619003 12.3317C0.612337 12.2426 0.616049 11.8835 0.631707 11.5085C0.647359 11.1336 0.675715 10.7197 0.722738 10.5305C1.30414 7.0464 4.0805 4.34246 7.62189 3.84649C8.09869 3.77564 8.58226 3.74981 9.07249 3.77556C10.6477 3.83499 11.9603 5.01644 12.177 6.5852L28.8547 41.0118ZM28.8547 41.0118H28.8589M28.8547 41.0118H28.8589M28.8589 41.0118H28.8653M28.8589 41.0118H28.8653M7.78889 5.04637L7.80289 5.14539C4.82974 5.56564 2.50305 7.83586 2.00752 10.7965L2.00665 10.8017L2.00651 10.8017C1.99557 10.8509 1.98402 10.9545 1.9734 11.0922C1.96297 11.2273 1.95388 11.3888 1.94675 11.5497C1.93236 11.8742 1.92639 12.1864 1.93231 12.2752L1.93257 12.279L1.93249 12.279C2.34464 27.0467 14.2144 39.082 28.9499 39.7045L9.02344 4.9891C8.92798 4.98273 8.83889 4.98273 8.7498 4.98273C8.42526 4.98273 8.10707 5.00183 7.78889 5.04637ZM7.78889 5.04637L7.80276 5.1454C8.11571 5.10159 8.42921 5.08273 8.7498 5.08273C8.83927 5.08273 8.92515 5.08277 9.01679 5.08888L9.01678 5.08892M7.78889 5.04637L9.01678 5.08892M9.01678 5.08892L9.0196 5.08902M9.01678 5.08892L9.0196 5.08902M9.0196 5.08902C9.96362 5.12533 10.7447 5.83333 10.878 6.77209L9.0196 5.08902ZM28.8653 41.0118C28.9266 41.0118 29.4173 41.007 29.9042 40.9991M28.8653 41.0118L29.9042 40.9991M29.9042 40.9991C30.1477 40.9951 30.3908 40.9903 30.5791 40.9849M29.9042 40.9991L30.5791 40.9849M30.5791 40.9849C30.6732 40.9823 30.7542 40.9794 30.8149 40.9764M30.5791 40.9849L30.8149 40.9764M30.8149 40.9764C30.8452 40.9749 30.8711 40.9733 30.8914 40.9716M30.8149 40.9764L30.8914 40.9716M30.8914 40.9716C30.9056 40.9705 30.9238 40.9688 30.9389 40.9657M30.8914 40.9716L30.9389 40.9657M30.9389 40.9657C34.4938 40.4424 37.32 37.5895 37.8161 34.0405C37.8871 33.5627 37.9063 33.0729 37.887 32.5969C37.8278 31.015 36.6461 29.7086 35.0773 29.4919L30.9389 40.9657ZM25.5572 28.1555C23.9963 27.9391 22.5118 28.8441 22.0187 30.3161L35.0771 29.4919L25.5573 28.1555L25.5572 28.1555ZM36.5171 33.8597L36.5171 33.8598L10.8781 6.77224L12.2144 16.2917C12.2144 16.2918 12.2144 16.2919 12.2144 16.292C12.3416 17.226 11.808 18.1083 10.9325 18.4043C10.4631 18.5608 9.97457 18.6674 9.4225 18.724L9.32265 18.7302L9.32151 18.7303C9.11779 18.7454 8.93082 18.8581 8.81877 19.0299C8.7056 19.2035 8.68331 19.4216 8.75817 19.6165C11.091 25.7395 15.9357 30.5778 22.0586 32.9043C22.2536 32.9792 22.4718 32.957 22.6453 32.8438C22.8174 32.7316 22.9287 32.5455 22.951 32.3447L22.9512 32.3447L22.9515 32.338L22.9578 32.1945C23.008 31.6939 23.1145 31.2062 23.277 30.7373L23.2772 30.7368C23.5732 29.867 24.4559 29.3273 25.3896 29.4545C25.3897 29.4545 25.3898 29.4545 25.3899 29.4545L34.9094 30.7908C35.8476 30.924 36.5554 31.7042 36.5925 32.6474C36.5925 33.0511 36.5735 33.4591 36.5171 33.8597ZM30.7871 39.7664L30.784 39.6664C30.7821 39.6665 30.78 39.6665 30.7778 39.6666C30.7757 39.6669 30.7736 39.6673 30.7715 39.6676L30.7871 39.7664Z" fill="#E94E1B" stroke="#E94E1B" stroke-width="0.2"/>
<path id="Vector_2" d="M18.0857 16.9749L18.0856 16.9748C17.9769 17.0401 17.8575 17.0782 17.7287 17.0782C17.6148 17.0782 17.5096 17.0476 17.4141 16.9963M18.0857 16.9749L17.414 16.9962C17.4141 16.9962 17.4141 16.9963 17.4141 16.9963M18.0857 16.9749L18.0886 16.973L22.4547 14.1445H31.2196C32.4712 14.1445 33.4896 13.1261 33.4896 11.8745V3.25182C33.4896 2.00023 32.4712 0.981818 31.2196 0.981818H16.7042C15.4526 0.981818 14.4342 2.00023 14.4342 3.25182V11.8745C14.4342 13.1261 15.4526 14.1445 16.7042 14.1445H17.0687M18.0857 16.9749L17.0687 14.1445M17.4141 16.9963C17.2035 16.8834 17.0687 16.6586 17.0687 16.4182V14.1445M17.4141 16.9963L17.0687 14.1445M15.7415 3.35182H15.7478V3.25182C15.7478 2.72756 16.1743 2.29545 16.7042 2.29545H31.2069C31.7312 2.29545 32.1633 2.72198 32.1633 3.25182V11.8745C32.1633 12.3988 31.7367 12.8309 31.2069 12.8309H22.2533C22.1245 12.8309 22.0051 12.869 21.8964 12.9342L21.8963 12.9342L21.8935 12.936L18.376 15.2099V13.4845C18.376 13.1246 18.0838 12.8245 17.716 12.8245H16.6978C16.1736 12.8245 15.7415 12.398 15.7415 11.8682V3.35182Z" fill="#E94E1B" stroke="#E94E1B" stroke-width="0.2"/>
<path id="Vector_3" d="M19.0267 9.55636C20.1256 9.55636 21.0167 8.66523 21.0167 7.56636C21.0167 6.4675 20.1256 5.57636 19.0267 5.57636C17.9279 5.57636 17.0367 6.4675 17.0367 7.56636C17.0367 8.66523 17.9279 9.55636 19.0267 9.55636ZM19.0267 6.89C19.3979 6.89 19.7031 7.19523 19.7031 7.56636C19.7031 7.9375 19.3979 8.24272 19.0267 8.24272C18.6556 8.24272 18.3504 7.9375 18.3504 7.56636C18.3504 7.1894 18.655 6.89 19.0267 6.89Z" fill="#E94E1B" stroke="#E94E1B" stroke-width="0.2"/>
<path id="Vector_4" d="M21.9694 7.56606C21.9628 8.66581 22.8612 9.55636 23.9594 9.55636C25.0582 9.55636 25.9494 8.66523 25.9494 7.56636C25.9494 6.4675 25.0582 5.57636 23.9594 5.57636C22.8606 5.57636 21.9695 6.46733 21.9694 7.56606ZM21.9694 7.56606C21.9694 7.56595 21.9694 7.56585 21.9694 7.56575L22.0694 7.56636H21.9694C21.9694 7.56626 21.9694 7.56616 21.9694 7.56606ZM23.283 7.56636L23.283 7.56489C23.2775 7.18989 23.5805 6.89 23.9594 6.89C24.3305 6.89 24.6357 7.19523 24.6357 7.56636C24.6357 7.9375 24.3305 8.24272 23.9594 8.24272C23.5882 8.24272 23.283 7.9375 23.283 7.56636Z" fill="#E94E1B" stroke="#E94E1B" stroke-width="0.2"/>
<path id="Vector_5" d="M28.8841 9.55636C29.983 9.55636 30.8741 8.66523 30.8741 7.56636C30.8741 6.4675 29.983 5.57636 28.8841 5.57636C27.7853 5.57636 26.8941 6.4675 26.8941 7.56636C26.8941 8.66523 27.7853 9.55636 28.8841 9.55636ZM28.8841 6.89C29.2553 6.89 29.5605 7.19523 29.5605 7.56636C29.5605 7.9375 29.2553 8.24272 28.8841 8.24272C28.513 8.24272 28.2078 7.9375 28.2078 7.56636C28.2078 7.1894 28.5125 6.89 28.8841 6.89Z" fill="#E94E1B" stroke="#E94E1B" stroke-width="0.2"/>
<path id="Vector_6" d="M38.7527 18.0136H39.1173C40.3689 18.0136 41.3873 16.9952 41.3873 15.7436V7.10819C41.3873 5.85659 40.3689 4.83819 39.1173 4.83819H35.3691C35.0092 4.83819 34.7091 5.1304 34.7091 5.49819C34.7091 5.86523 35.0021 6.15819 35.3691 6.15819H39.1173C39.6415 6.15819 40.0737 6.58472 40.0737 7.11455V15.7373C40.0737 16.2615 39.6471 16.6936 39.1173 16.6936H38.0991C37.7392 16.6936 37.4391 16.9859 37.4391 17.3536V19.079L33.9216 16.8051L33.9214 16.805C33.816 16.7372 33.689 16.7 33.5618 16.7H26.0018C25.5469 16.7 25.1491 16.3712 25.0627 15.9283C24.9953 15.5764 24.6513 15.3357 24.2967 15.4036C23.9447 15.471 23.7039 15.8151 23.7718 16.1697L23.7718 16.1699C23.9781 17.2345 24.9096 18.0136 25.9955 18.0136H33.3668L37.7329 20.8421L37.7332 20.8423C37.8386 20.91 37.9656 20.9473 38.0927 20.9473L38.7527 18.0136ZM38.7527 18.0136V20.2873C38.7527 20.5277 38.618 20.7525 38.4072 20.8654L38.7527 18.0136Z" fill="#E94E1B" stroke="#E94E1B" stroke-width="0.2"/>
</g>
</g>
<defs>
<clipPath id="clip0_132_621">
<rect width="42" height="42" fill="white"/>
</clipPath>
</defs>
</svg>
