<svg width="83" height="83" viewBox="0 0 83 83" fill="none" xmlns="http://www.w3.org/2000/svg">
<g id="Group 75">
<path id="Vector" d="M43.2148 25.0838C44.0863 24.2136 45.0038 23.3545 45.9397 22.531L44.1658 20.5107C43.1852 21.3718 42.2263 22.2715 41.3128 23.1825C37.9705 26.5247 35.0354 30.2558 32.5876 34.2706L34.885 35.6709C37.2198 31.8393 40.0229 28.2757 43.2148 25.0838Z" fill="#E94E1B"/>
<path id="Vector_2" d="M33.3769 38.3006L31.0079 37.0245C30.5212 37.9282 30.0569 38.8457 29.6162 39.7777L32.0476 40.9277C32.4685 40.0384 32.9125 39.1617 33.3769 38.3006Z" fill="#E94E1B"/>
<path id="Vector_3" d="M78.965 0L70.6655 1.63338C58.0628 4.15405 46.5976 10.2902 37.5073 19.3785C35.5088 21.3771 33.6515 23.4932 31.9419 25.7176C18.5544 26.9202 14.6493 36.7592 14.4897 37.1854L14.1816 37.9979L21.2228 45.0397L19.5106 48.7071L20.8353 50.0324L18.1452 55.4127L27.5876 64.855L32.9678 62.1649L34.2925 63.4896L37.9605 61.7774L45.001 68.8186L45.8135 68.5106C46.2397 68.349 56.08 64.4445 57.2813 51.057C59.5044 49.3474 61.6205 47.4901 63.6204 45.4916C72.71 36.4026 78.8462 24.9374 81.3668 12.3341L82.9746 4.29919L83.0002 4.03517C83.0002 1.8107 81.1895 0 78.965 0ZM17.361 37.3739C18.3876 35.401 21.789 30.2697 29.7772 28.725C27.8148 31.6049 26.0744 34.6378 24.5894 37.8218L22.4319 42.4448L17.361 37.3739ZM28.1176 61.581L21.4192 54.8827L22.8411 52.0375L30.9627 60.1591L28.1176 61.581ZM45.6263 65.6392L40.5541 60.5683L45.1771 58.4108C48.3604 56.9259 51.3953 55.1854 54.2752 53.2217C52.7318 61.2139 47.5953 64.614 45.6263 65.6392ZM61.7184 43.5896C56.5752 48.7314 50.6269 52.8986 44.0389 55.9722L34.8619 60.2563L22.7426 48.137L27.0267 38.96C30.1017 32.372 34.2675 26.4224 39.4093 21.2805C46.9457 13.7441 56.1877 8.33173 66.3643 5.44262L77.5563 16.6346C74.6672 26.8125 69.2548 36.0545 61.7184 43.5896ZM78.7293 11.806C78.6084 12.4096 78.4725 13.0099 78.3339 13.6082L69.3907 4.66501C69.989 4.52643 70.5893 4.39048 71.1929 4.26964L79.0741 2.69274C79.7276 2.7466 80.251 3.27004 80.3042 3.92352L78.7293 11.806Z" fill="#E94E1B"/>
<path id="Vector_4" d="M27.386 49.8578L33.1425 55.613L50.0313 41.7966L41.205 32.9703L27.386 49.8578ZM46.027 41.5976L33.3245 51.9923L31.0107 49.6772L41.404 36.9746L46.027 41.5976Z" fill="#E94E1B"/>
<path id="Vector_5" d="M58.789 13.4506C52.8558 13.4506 48.0286 18.2784 48.0286 24.211C48.0286 30.1442 52.8558 34.9715 58.789 34.9715C64.7216 34.9715 69.5495 30.1442 69.5495 24.211C69.5495 18.2784 64.7216 13.4506 58.789 13.4506ZM58.789 32.2814C54.3381 32.2814 50.7187 28.6619 50.7187 24.211C50.7187 19.7601 54.3381 16.1407 58.789 16.1407C63.2393 16.1407 66.8594 19.7601 66.8594 24.211C66.8594 28.6619 63.2393 32.2814 58.789 32.2814Z" fill="#E94E1B"/>
<path id="Vector_6" d="M58.7892 18.8308C55.8219 18.8308 53.4089 21.2438 53.4089 24.211C53.4089 27.1783 55.8219 29.5913 58.7892 29.5913C61.7564 29.5913 64.1694 27.1783 64.1694 24.211C64.1694 21.2438 61.7564 18.8308 58.7892 18.8308ZM58.7892 26.9012C57.3055 26.9012 56.099 25.6947 56.099 24.211C56.099 22.7274 57.3055 21.5209 58.7892 21.5209C60.2728 21.5209 61.4793 22.7274 61.4793 24.211C61.4793 25.6947 60.2728 26.9012 58.7892 26.9012Z" fill="#E94E1B"/>
<path id="Vector_7" d="M51.1116 81.0975L53.8017 78.4073L55.7037 80.31L53.0142 82.9995L51.1116 81.0975Z" fill="#E94E1B"/>
<path id="Vector_8" d="M80.7043 51.5062L68.5876 63.6229C68.0622 63.37 67.4809 63.2177 66.8596 63.2177C64.6345 63.2177 62.8245 65.0284 62.8245 67.2528C62.8245 67.8742 62.9762 68.4554 63.229 68.9815L55.1482 77.0623L57.0502 78.9643L65.131 70.8835C65.6571 71.1363 66.2377 71.288 66.8596 71.288C69.0841 71.288 70.8948 69.478 70.8948 67.2528C70.8948 66.6315 70.7424 66.0503 70.4896 65.5249L82.6063 53.4082L80.7043 51.5062ZM66.8596 68.5979C66.1182 68.5979 65.5146 67.9957 65.5146 67.2528C65.5146 66.5107 66.1182 65.9078 66.8596 65.9078C67.6005 65.9078 68.2047 66.5107 68.2047 67.2528C68.2047 67.9957 67.6005 68.5979 66.8596 68.5979Z" fill="#E94E1B"/>
<path id="Vector_9" d="M0 81.0968L2.68946 78.4073L4.59211 80.3093L1.90199 82.9988L0 81.0968Z" fill="#E94E1B"/>
<path id="Vector_10" d="M4.0354 77.0617L20.1767 60.921L22.0787 62.823L5.9374 78.9637L4.0354 77.0617Z" fill="#E94E1B"/>
<path id="Vector_11" d="M10.7605 77.0616L13.45 74.3722L15.352 76.2742L12.6625 78.9643L10.7605 77.0616Z" fill="#E94E1B"/>
<path id="Vector_12" d="M14.7952 73.0271L22.8649 64.9574L24.7675 66.8594L16.6972 74.9291L14.7952 73.0271Z" fill="#E94E1B"/>
<path id="Vector_13" d="M4.0354 70.3364L6.72486 67.647L8.62751 69.549L5.9374 72.2391L4.0354 70.3364Z" fill="#E94E1B"/>
<path id="Vector_14" d="M8.06982 66.3019L16.1402 58.2322L18.0422 60.1342L9.97182 68.2039L8.06982 66.3019Z" fill="#E94E1B"/>
<path id="Vector_15" d="M65.908 48.8162L68.5974 46.1267L70.4994 48.0287L67.81 50.7182L65.908 48.8162Z" fill="#E94E1B"/>
<path id="Vector_16" d="M69.9424 44.7816L80.7028 34.0205L82.6055 35.9232L71.8444 46.6836L69.9424 44.7816Z" fill="#E94E1B"/>
<path id="Vector_17" d="M25.5562 20.5699L28.2463 17.8804L30.1483 19.7824L27.4581 22.4719L25.5562 20.5699Z" fill="#E94E1B"/>
<path id="Vector_18" d="M29.5913 16.5353L40.3518 5.77423L42.2538 7.67688L31.4933 18.4373L29.5913 16.5353Z" fill="#E94E1B"/>
<path id="Vector_19" d="M1.90273 33.2323L5.94841 29.1867C6.47448 29.4395 7.05506 29.5912 7.67701 29.5912C9.90148 29.5912 11.7122 27.7812 11.7122 25.5561C11.7122 24.9348 11.5598 24.3535 11.307 23.8281L32.839 2.29604L30.937 0.394043L9.40497 21.9261C8.87955 21.6733 8.29832 21.5209 7.67701 21.5209C5.45189 21.5209 3.64184 23.3316 3.64184 25.5561C3.64184 26.1774 3.79356 26.7586 4.04641 27.2847L0.000732422 31.3304L1.90273 33.2323ZM7.67701 24.211C8.41785 24.211 9.02207 24.8139 9.02207 25.5561C9.02207 26.2989 8.41785 26.9011 7.67701 26.9011C6.93553 26.9011 6.33196 26.2989 6.33196 25.5561C6.33196 24.8139 6.93553 24.211 7.67701 24.211Z" fill="#E94E1B"/>
<path id="Vector_20" d="M4.03589 48.8154L9.41612 43.4352L11.3181 45.3372L5.93788 50.7174L4.03589 48.8154Z" fill="#E94E1B"/>
<path id="Vector_21" d="M0 52.8506L2.69011 50.1611L4.59211 52.0631L1.90199 54.7532L0 52.8506Z" fill="#E94E1B"/>
<path id="Vector_22" d="M37.6619 77.0616L43.0421 71.6814L44.9441 73.5834L39.5639 78.9636L37.6619 77.0616Z" fill="#E94E1B"/>
<path id="Vector_23" d="M33.6265 81.0968L36.3159 78.4073L38.2179 80.3093L35.5285 82.9995L33.6265 81.0968Z" fill="#E94E1B"/>
</g>
</svg>
