<svg width="52" height="52" viewBox="0 0 52 52" fill="none" xmlns="http://www.w3.org/2000/svg">
<g id="g1635">
<g id="g1649">
<g id="Clip path group">
<mask id="mask0_132_678" style="mask-type:luminance" maskUnits="userSpaceOnUse" x="0" y="0" width="52" height="52">
<g id="clipPath1655">
<path id="path1653" d="M0 0H52V52H0V0Z" fill="white"/>
</g>
</mask>
<g mask="url(#mask0_132_678)">
<g id="g1651">
<g id="g1657">
<path id="path1659" d="M0.826172 24.8913H4.56591" stroke="#E94E1B" stroke-width="1.5" stroke-miterlimit="10" stroke-linecap="round" stroke-linejoin="round"/>
</g>
<g id="g1661">
<path id="path1663" d="M0.761719 38.7909H4.56483" stroke="#E94E1B" stroke-width="1.5" stroke-miterlimit="10" stroke-linecap="round" stroke-linejoin="round"/>
</g>
<g id="g1665">
<path id="path1667" d="M0.761719 31.3905H9.53388" stroke="#E94E1B" stroke-width="1.5" stroke-miterlimit="10" stroke-linecap="round" stroke-linejoin="round"/>
</g>
<g id="g1669">
<path id="path1671" d="M16.7223 44.7891H7.13256C5.72186 44.7891 4.56445 43.6315 4.56445 42.2176V20.8255C4.56445 19.4115 5.72186 18.254 7.13256 18.254H9.5336M45.1116 39.2402H45.126V42.2176C45.126 43.6315 43.9715 44.7891 42.558 44.7891H20.2404" stroke="#E94E1B" stroke-width="1.5" stroke-miterlimit="10" stroke-linecap="round" stroke-linejoin="round"/>
</g>
<g id="g1673">
<path id="path1675" d="M9.61816 36.6226L24.4419 27.0509" stroke="#E94E1B" stroke-width="1.5" stroke-miterlimit="10" stroke-linecap="round" stroke-linejoin="round"/>
</g>
<g id="g1677">
<path id="path1679" d="M47.7299 36.6227L32.5752 26.8379" stroke="#E94E1B" stroke-width="1.5" stroke-miterlimit="10" stroke-linecap="round" stroke-linejoin="round"/>
</g>
<g id="g1681">
<path id="path1683" d="M9.5332 16.1199L14.0243 19.4146L24.4405 27.0511L27.4437 29.254C28.5315 30.0513 28.1891 30.0513 29.28 29.254L32.5737 26.8378L39.2473 21.9446" stroke="#E94E1B" stroke-width="1.5" stroke-miterlimit="10" stroke-linecap="round" stroke-linejoin="round"/>
</g>
<g id="g1685">
<path id="path1687" d="M5.56445 44.2506L13.3261 39.2402" stroke="#E94E1B" stroke-width="1.5" stroke-miterlimit="10" stroke-linecap="round" stroke-linejoin="round"/>
</g>
<g id="g1689">
<path id="path1691" d="M44.3861 44.0202L36.9785 39.2401" stroke="#E94E1B" stroke-width="1.5" stroke-miterlimit="10" stroke-linecap="round" stroke-linejoin="round"/>
</g>
<g id="g1693">
<path id="path1695" d="M43.3115 7.21088C47.6875 7.21088 51.2372 10.7585 51.2372 15.1382C51.2372 19.5152 47.6875 23.0657 43.3115 23.0657C38.9326 23.0657 35.3857 19.5152 35.3857 15.1382C35.3857 10.7585 38.9326 7.21088 43.3115 7.21088Z" stroke="#E94E1B" stroke-width="1.5" stroke-miterlimit="10" stroke-linecap="round" stroke-linejoin="round"/>
</g>
<g id="g1697">
<path id="path1699" d="M47.7281 21.7209V36.6226C47.7281 38.0623 46.5506 39.2401 45.1112 39.2401H12.1472C10.7107 39.2401 9.5332 38.0623 9.5332 36.6226V15.2967C9.5332 13.8598 10.7107 12.682 12.1472 12.682H32.2567" stroke="#E94E1B" stroke-width="1.5" stroke-miterlimit="10" stroke-linecap="round" stroke-linejoin="round"/>
</g>
<g id="g1701">
<path id="path1703" d="M40.3721 15.746L42.3297 17.4191L46.2508 12.8549" stroke="#E94E1B" stroke-width="1.5" stroke-miterlimit="10" stroke-linecap="round" stroke-linejoin="round"/>
</g>
</g>
</g>
</g>
</g>
</g>
</svg>
