<svg width="58" height="48" viewBox="0 0 58 48" fill="none" xmlns="http://www.w3.org/2000/svg">
<mask id="mask0_336_4" style="mask-type:luminance" maskUnits="userSpaceOnUse" x="0" y="0" width="47" height="48">
<path d="M0 0.369694H47V47.3697H0V0.369694Z" fill="white"/>
</mask>
<g mask="url(#mask0_336_4)">
<path d="M6.83594 26.6805H5C4.239 26.6805 3.62305 27.2965 3.62305 28.0575V45.3043C3.62305 46.0643 4.239 46.6812 5 46.6812H12.8569" stroke="#E94E1B" stroke-width="1.5" stroke-miterlimit="10" stroke-linecap="round" stroke-linejoin="round"/>
<path d="M26.6738 26.6805H42.002C42.763 26.6805 43.379 27.2965 43.379 28.0575V45.3043C43.379 46.0643 42.763 46.6812 42.002 46.6812H16.0703" stroke="#E94E1B" stroke-width="1.5" stroke-miterlimit="10" stroke-linecap="round" stroke-linejoin="round"/>
<path d="M26.6732 16.5746V26.6805V39.442C26.6732 40.8612 25.523 42.0123 24.1029 42.0123H9.40625C7.98615 42.0123 6.83594 40.8612 6.83594 39.442V26.6805V3.62849C6.83594 2.20931 7.98615 1.05818 9.40625 1.05818H24.1029C25.523 1.05818 26.6732 2.20931 26.6732 3.62849V13.3617" stroke="#E94E1B" stroke-width="1.5" stroke-miterlimit="10" stroke-linecap="round" stroke-linejoin="round"/>
<path d="M12.4824 5.7721V5.0738C12.4824 4.63042 12.8418 4.27103 13.2851 4.27103H20.2247C20.6679 4.27103 21.0273 4.63042 21.0273 5.0738V5.772C21.0273 6.21538 20.6679 6.57477 20.2247 6.57477H13.2851C12.8418 6.57477 12.4824 6.21538 12.4824 5.7721Z" stroke="#E94E1B" stroke-width="1.5" stroke-miterlimit="10" stroke-linecap="round" stroke-linejoin="round"/>
<path d="M10.0488 17.9436V10.8406C10.0488 10.2591 10.5202 9.78763 11.1018 9.78763H22.4079C22.9894 9.78763 23.4609 10.2591 23.4609 10.8407V17.9436C23.4609 18.5252 22.9894 18.9967 22.4079 18.9967H11.1018C10.5203 18.9967 10.0488 18.5252 10.0488 17.9436Z" stroke="#E94E1B" stroke-width="1.5" stroke-miterlimit="10" stroke-linecap="round" stroke-linejoin="round"/>
<path d="M10.0488 34.5686V23.2625C10.0488 22.681 10.5202 22.2095 11.1018 22.2095H22.4079C22.9894 22.2095 23.4609 22.681 23.4609 23.2625V34.5686C23.4609 35.1502 22.9894 35.6217 22.4079 35.6217H11.1018C10.5203 35.6217 10.0488 35.1502 10.0488 34.5686Z" stroke="#E94E1B" stroke-width="1.5" stroke-miterlimit="10" stroke-linecap="round" stroke-linejoin="round"/>
<path d="M23.4604 26.6805H10.0488" stroke="#E94E1B" stroke-width="1.5" stroke-miterlimit="10" stroke-linecap="round" stroke-linejoin="round"/>
<path d="M23.4604 31.151H10.0488" stroke="#E94E1B" stroke-width="1.5" stroke-miterlimit="10" stroke-linecap="round" stroke-linejoin="round"/>
<path d="M14.5195 35.6215V22.2091" stroke="#E94E1B" stroke-width="1.5" stroke-miterlimit="10" stroke-linecap="round" stroke-linejoin="round"/>
<path d="M18.9902 35.6215V22.2092" stroke="#E94E1B" stroke-width="1.5" stroke-miterlimit="10" stroke-linecap="round" stroke-linejoin="round"/>
<path d="M12.4824 38.7994H21.0273" stroke="#E94E1B" stroke-width="1.5" stroke-miterlimit="10" stroke-linecap="round" stroke-linejoin="round"/>
<path d="M39.6152 33.6001H31.0781C30.7739 33.6001 30.5273 33.3535 30.5273 33.0494V30.4439C30.5273 30.1398 30.7739 29.8931 31.0781 29.8931H39.6152C39.9194 29.8931 40.166 30.1398 40.166 30.4439V33.0494C40.166 33.3535 39.9194 33.6001 39.6152 33.6001Z" stroke="#E94E1B" stroke-width="1.5" stroke-miterlimit="10" stroke-linecap="round" stroke-linejoin="round"/>
<path d="M33.7402 38.4046C33.7485 39.2918 33.0359 40.0176 32.1487 40.0259C31.2616 40.0341 30.5357 39.3216 30.5274 38.4344C30.5192 37.5473 31.2318 36.8214 32.1189 36.8132C33.0061 36.8049 33.732 37.5174 33.7402 38.4046Z" stroke="#E94E1B" stroke-width="1.5" stroke-miterlimit="10" stroke-linecap="round" stroke-linejoin="round"/>
<path d="M40.166 38.4046C40.1743 39.2918 39.4617 40.0176 38.5745 40.0259C37.6874 40.0341 36.9615 39.3216 36.9532 38.4344C36.945 37.5473 37.6576 36.8214 38.5447 36.8132C39.4319 36.8049 40.1577 37.5174 40.166 38.4046Z" stroke="#E94E1B" stroke-width="1.5" stroke-miterlimit="10" stroke-linecap="round" stroke-linejoin="round"/>
</g>
<path fill-rule="evenodd" clip-rule="evenodd" d="M54.5032 3.48779C52.2471 1.23984 49.2467 0.00131836 46.0502 0C39.4635 0 34.1029 5.33481 34.1002 11.8917C34.0994 13.9878 34.6495 16.0339 35.6953 17.8374L34 24L40.3349 22.3462C42.0804 23.2938 44.0455 23.7932 46.0453 23.7938H46.0503C52.6363 23.7938 57.9975 18.4585 58 11.9013C58.0013 8.72344 56.7595 5.7356 54.5032 3.48779ZM46.0502 21.7853H46.0461C44.2639 21.7846 42.516 21.3079 40.9909 20.4075L40.6283 20.1932L36.8691 21.1746L37.8725 17.527L37.6363 17.153C36.642 15.5792 36.117 13.7602 36.1179 11.8925C36.12 6.44253 40.5757 2.00859 46.0542 2.00859C48.7071 2.00947 51.2009 3.03896 53.0761 4.90737C54.9513 6.77578 55.9834 9.25928 55.9825 11.9005C55.9801 17.3509 51.5247 21.7853 46.0502 21.7853ZM51.4982 14.3821C51.1997 14.2333 49.7317 13.5146 49.4579 13.4153C49.1844 13.3162 48.9851 13.2668 48.7863 13.5642C48.5871 13.8615 48.015 14.531 47.8407 14.7292C47.6665 14.9275 47.4925 14.9524 47.1938 14.8036C46.8952 14.6549 45.9332 14.341 44.7926 13.3286C43.9051 12.5407 43.3059 11.5676 43.1316 11.2702C42.9576 10.9726 43.1301 10.8272 43.2626 10.6638C43.5858 10.2643 43.9095 9.84551 44.009 9.64731C44.1086 9.44897 44.0587 9.27539 43.984 9.12671C43.9095 8.97803 43.3123 7.51538 43.0636 6.92022C42.821 6.34102 42.5751 6.41924 42.3917 6.41016C42.2177 6.40151 42.0185 6.39976 41.8194 6.39976C41.6204 6.39976 41.2969 6.47402 41.0231 6.77168C40.7495 7.06919 39.9782 7.78799 39.9782 9.25064C39.9782 10.7133 41.0481 12.1263 41.1974 12.3246C41.3466 12.5229 43.3029 15.5244 46.2981 16.8114C47.0105 17.1179 47.5665 17.3005 48.0003 17.4375C48.7156 17.6637 49.3664 17.6317 49.8809 17.5553C50.4547 17.4699 51.6473 16.8363 51.8964 16.1423C52.1451 15.4481 52.1451 14.8532 52.0704 14.7292C51.9959 14.6052 51.7967 14.531 51.4982 14.3821Z" fill="#E94E1B"/>
</svg>
