<svg width="100" height="100" viewBox="0 0 100 100" fill="none" xmlns="http://www.w3.org/2000/svg">
<rect width="100" height="100" fill="#F5F5F5"/>
<g id="Home" clip-path="url(#clip0_0_1)">
<rect width="1900" height="2871" transform="translate(-1049 -1224)" fill="white"/>
<rect id="Rectangle 9" x="-683" y="-122" width="1168" height="399" rx="10" fill="#FAD6CB"/>
<g id="Group 2">
<g id="Group 19">
<g id="Mobile service" clip-path="url(#clip1_0_1)">
<g id="Group">
<g id="Group_2">
<path id="Vector" d="M85.2774 82.2287H82.0101C81.201 82.2287 80.5453 82.8843 80.5453 83.6935C80.5453 84.5026 81.201 85.1583 82.0101 85.1583H85.2774C86.0865 85.1583 86.7422 84.5026 86.7422 83.6935C86.7422 82.8843 86.0863 82.2287 85.2774 82.2287Z" fill="#E94E1B"/>
<path id="Vector_2" d="M49.8887 27.1875C43.6208 27.1875 37.7279 29.6284 33.2959 34.0604C32.7238 34.6327 32.7238 35.56 33.2959 36.132C33.8683 36.7041 34.7954 36.7039 35.3674 36.132C39.246 32.2531 44.4032 30.1169 49.8887 30.1169C55.3742 30.1169 60.5312 32.2531 64.4101 36.132C64.9824 36.7039 65.9097 36.7039 66.4817 36.132C67.0538 35.5598 67.0538 34.6325 66.4817 34.0604C62.0495 29.6284 56.1568 27.1875 49.8887 27.1875Z" fill="#E94E1B"/>
<path id="Vector_3" d="M61.4868 41.1271C62.0589 40.5549 62.0589 39.6276 61.4868 39.0556C55.0914 32.6605 44.6862 32.6605 38.2905 39.0556C37.7185 39.6278 37.7185 40.5551 38.2905 41.1271C38.8628 41.699 39.7901 41.699 40.3621 41.1271C45.6148 35.8742 54.1623 35.8742 59.415 41.1271C59.9875 41.699 60.9146 41.6988 61.4868 41.1271Z" fill="#E94E1B"/>
<path id="Vector_4" d="M43.2857 44.0501C42.7136 44.6223 42.7136 45.5496 43.2857 46.1217C43.8579 46.6935 44.7852 46.6935 45.3573 46.1217C47.8558 43.6228 51.9216 43.6228 54.4201 46.1217C54.9926 46.6937 55.9197 46.6935 56.4917 46.1217C57.0638 45.5495 57.0638 44.6221 56.4917 44.0501C52.8509 40.4092 46.9265 40.4092 43.2857 44.0501Z" fill="#E94E1B"/>
<path id="Vector_5" d="M61.8704 61.8056C62.6795 61.8056 63.3351 61.15 63.3351 60.3408C63.3351 59.5317 62.6795 58.876 61.8704 58.876H16.2676V19.5478H83.728V33.6437C83.728 34.4529 84.3837 35.1085 85.1928 35.1085C86.0019 35.1085 86.6576 34.4529 86.6576 33.6437V19.4232C86.6576 17.8766 85.3994 16.6185 83.8528 16.6185H16.1428C14.5962 16.6185 13.3381 17.8766 13.3381 19.4232V59.0008C13.3381 60.5474 14.5962 61.8056 16.1428 61.8056H61.8704Z" fill="#E94E1B"/>
<path id="Vector_6" d="M95.4896 39.0374H93.5335V16.2849C93.5335 12.6772 90.5986 9.74237 86.991 9.74237H13.0047C9.39706 9.74237 6.46222 12.6772 6.46222 16.2849V65.7517H3.89163C1.74563 65.7519 0 67.4975 0 69.6431C0 75.5907 4.83866 80.4296 10.7865 80.4296H67.2871V85.7471C67.2871 88.2343 69.3105 90.2579 71.7979 90.2579H95.4898C97.9768 90.2579 100 88.2345 100 85.7471V43.5481C100 41.0609 97.9766 39.0374 95.4896 39.0374ZM9.39178 16.2849C9.39178 14.2928 11.0126 12.6719 13.0047 12.6719H86.991C88.9831 12.6719 90.6039 14.2928 90.6039 16.2849V39.0374H71.7977C69.3105 39.0374 67.2869 41.0608 67.2869 43.5481V65.7519C65.0575 65.7519 12.2596 65.7519 9.39159 65.7519L9.39178 16.2849ZM35.8774 68.6814H60.6029V70.1536C60.6029 70.9653 59.9423 71.6258 59.1305 71.6258H37.3498C36.5379 71.6258 35.8774 70.9653 35.8774 70.1536V68.6814ZM10.7865 77.5C6.45421 77.5 2.92956 73.9754 2.92956 69.6431C2.92956 69.1127 3.36118 68.6812 3.89163 68.6812H32.9478V70.1534C32.9478 72.5807 34.9225 74.5552 37.3498 74.5552H59.1303C61.5575 74.5552 63.5322 72.5807 63.5322 70.1534V68.6812H67.2869V77.4998L10.7865 77.5ZM97.0704 85.7469C97.0704 86.6188 96.3613 87.3281 95.4894 87.3281H71.7977C70.9258 87.3281 70.2165 86.6188 70.2165 85.7469V43.5481C70.2165 42.6763 70.9258 41.967 71.7977 41.967H95.4896C96.3615 41.967 97.0706 42.6763 97.0706 43.5481V85.7469H97.0704Z" fill="#E94E1B"/>
<path id="Vector_7" d="M92.0185 44.394H75.2686C73.8212 44.394 72.6437 45.5715 72.6437 47.0189V77.3543C72.6437 78.8017 73.8212 79.9792 75.2686 79.9792H92.0185C93.4659 79.9792 94.6434 78.8017 94.6434 77.3543V47.0191C94.6436 45.5715 93.4659 44.394 92.0185 44.394ZM91.714 77.0498H75.5733V47.3235H91.714V77.0498Z" fill="#E94E1B"/>
</g>
</g>
</g>
</g>
</g>
</g>
<defs>
<clipPath id="clip0_0_1">
<rect width="1900" height="2871" fill="white" transform="translate(-1049 -1224)"/>
</clipPath>
<clipPath id="clip1_0_1">
<rect width="100" height="100" fill="white"/>
</clipPath>
</defs>
</svg>
