<svg width="100" height="100" viewBox="0 0 100 100" fill="none" xmlns="http://www.w3.org/2000/svg">
<path d="M71.4844 0H28.5156C24.477 0 21.1914 3.28555 21.1914 7.32422V92.6758C21.1914 96.7145 24.477 100 28.5156 100H71.4844C75.523 100 78.8086 96.7145 78.8086 92.6758V7.32422C78.8086 3.28555 75.523 0 71.4844 0ZM75.8789 79.4922H34.375C33.566 79.4922 32.9102 80.148 32.9102 80.957C32.9102 81.766 33.566 82.4219 34.375 82.4219H75.8789V92.6758C75.8789 95.099 73.9076 97.0703 71.4844 97.0703H28.5156C26.0924 97.0703 24.1211 95.099 24.1211 92.6758V82.4219H28.5156C29.3246 82.4219 29.9805 81.766 29.9805 80.957C29.9805 80.148 29.3246 79.4922 28.5156 79.4922H24.1211V14.6484H75.8789V79.4922ZM75.8789 11.7188H24.1211V7.32422C24.1211 4.90098 26.0924 2.92969 28.5156 2.92969H71.4844C73.9076 2.92969 75.8789 4.90098 75.8789 7.32422V11.7188Z" fill="#E94E1B"/>
<path d="M55.8594 5.85938H50C49.191 5.85938 48.5352 6.51523 48.5352 7.32422C48.5352 8.1332 49.191 8.78906 50 8.78906H55.8594C56.6684 8.78906 57.3242 8.1332 57.3242 7.32422C57.3242 6.51523 56.6684 5.85938 55.8594 5.85938Z" fill="#E94E1B"/>
<path d="M50 85.3516C47.5768 85.3516 45.6055 87.3229 45.6055 89.7461C45.6055 92.1693 47.5768 94.1406 50 94.1406C52.4232 94.1406 54.3945 92.1693 54.3945 89.7461C54.3945 87.3229 52.4232 85.3516 50 85.3516ZM50 91.2109C49.1922 91.2109 48.5352 90.5539 48.5352 89.7461C48.5352 88.9383 49.1922 88.2812 50 88.2812C50.8078 88.2812 51.4648 88.9383 51.4648 89.7461C51.4648 90.5539 50.8078 91.2109 50 91.2109Z" fill="#E94E1B"/>
<path d="M44.1406 8.78906C44.9496 8.78906 45.6055 8.13323 45.6055 7.32422C45.6055 6.51521 44.9496 5.85938 44.1406 5.85938C43.3316 5.85938 42.6758 6.51521 42.6758 7.32422C42.6758 8.13323 43.3316 8.78906 44.1406 8.78906Z" fill="#E94E1B"/>
</svg>
