<svg width="73" height="84" viewBox="0 0 73 84" fill="none" xmlns="http://www.w3.org/2000/svg">
<g id="Group">
<g id="Group_2">
<path id="Vector" d="M32.3545 18.6127C29.5647 17.1315 27.6672 14.1965 27.6672 10.8194C27.6672 5.94825 31.6139 2 36.4851 2C38.2486 2 39.8912 2.51794 41.2675 3.40859" stroke="#E94E1B" stroke-width="3" stroke-miterlimit="10" stroke-linecap="round" stroke-linejoin="round"/>
<path id="Vector_2" d="M44.6656 7.51819C45.0771 8.53793 45.303 9.65124 45.303 10.8194C45.303 14.1965 43.4055 17.1315 40.6157 18.6127" stroke="#E94E1B" stroke-width="3" stroke-miterlimit="10" stroke-linecap="round" stroke-linejoin="round"/>
</g>
<g id="Group_3">
<path id="Vector_3" d="M23.7416 32.9792H60.2972C61.759 32.9792 62.9449 31.7933 62.9449 30.3315C62.9449 29.6006 62.6481 28.939 62.1689 28.4598C61.6896 27.9806 61.0281 27.6837 60.2972 27.6837H12.6729C11.2111 27.6837 10.0251 28.8696 10.0251 30.3315C10.0251 31.0624 10.322 31.7239 10.8012 32.2032C11.2805 32.6824 11.942 32.9792 12.6729 32.9792H18.0943" stroke="#E94E1B" stroke-width="3" stroke-miterlimit="10" stroke-linecap="round" stroke-linejoin="round"/>
<path id="Vector_4" d="M59.5893 27.6843V22.6997C59.5893 20.443 57.7599 18.6135 55.5031 18.6135H17.4685C15.2119 18.6135 13.3823 20.4429 13.3823 22.6997V27.6843" stroke="#E94E1B" stroke-width="3" stroke-miterlimit="10" stroke-linecap="round" stroke-linejoin="round"/>
<path id="Vector_5" d="M59.5895 32.9795V36.6163C59.5895 38.1332 60.5342 39.4722 61.9437 40.0323C67.2322 42.1332 70.9702 47.2968 70.9702 53.3337V67.8558C70.9702 75.7568 64.5652 82.1618 56.6642 82.1618H16.3078C8.40579 82.1618 2 75.756 2 67.854V53.3337C2 47.2968 5.7393 42.1334 11.0281 40.0323C12.4378 39.4722 13.3825 38.1332 13.3825 36.6163V32.9795" stroke="#E94E1B" stroke-width="3" stroke-miterlimit="10" stroke-linecap="round" stroke-linejoin="round"/>
</g>
<g id="Group_4">
<path id="Vector_6" d="M53.6108 81.8848C53.3446 82.0591 53.0251 82.1607 52.6831 82.1607H38.4342C37.4983 82.1607 36.74 81.4024 36.74 80.4665V77.5396C36.74 76.6038 37.4983 75.8455 38.4342 75.8455H47.3472" stroke="#E94E1B" stroke-width="3" stroke-miterlimit="10" stroke-linecap="round" stroke-linejoin="round"/>
</g>
<g id="Group_5">
<path id="Vector_7" d="M47.8411 69.5494C47.7572 69.5365 47.6733 69.53 47.5861 69.53H38.4343H33.3372C32.4014 69.53 31.6431 70.29 31.6431 71.2242V74.1511C31.6431 75.087 32.4014 75.8453 33.3372 75.8453H47.3473" stroke="#E94E1B" stroke-width="3" stroke-miterlimit="10" stroke-linecap="round" stroke-linejoin="round"/>
</g>
<g id="Group_6">
<path id="Vector_8" d="M54.3563 64.6428C54.2272 63.8344 53.5285 63.2164 52.6831 63.2164H38.4342C37.4983 63.2164 36.74 63.9748 36.74 64.9106V67.8375C36.74 68.7717 37.4983 69.5301 38.4342 69.5301H47.8506" stroke="#E94E1B" stroke-width="3" stroke-miterlimit="10" stroke-linecap="round" stroke-linejoin="round"/>
</g>
<g id="Group_7">
<path id="Vector_9" d="M42.6907 56.9012H48.3686C49.3044 56.9012 50.0628 57.6596 50.0628 58.5954V61.5223C50.0628 62.4582 49.3044 63.2165 48.3686 63.2165H34.1197C33.1839 63.2165 32.4255 62.4582 32.4255 61.5223V58.5954C32.4255 57.6596 33.1839 56.9012 34.1197 56.9012H37.0434" stroke="#E94E1B" stroke-width="3" stroke-miterlimit="10" stroke-linecap="round" stroke-linejoin="round"/>
</g>
<g id="Group_8">
<path id="Vector_10" d="M27.1232 65.8583L19.9505 78.1707C19.4795 78.9792 19.7532 80.0164 20.5616 80.4874L23.0904 81.9605C23.8989 82.4315 24.9361 82.1578 25.4071 81.3495L32.5799 69.0371C33.0509 68.2286 32.7773 67.1914 31.9689 66.7204L29.44 65.2473C28.6314 64.7763 27.5942 65.0498 27.1232 65.8583Z" stroke="#E94E1B" stroke-width="3" stroke-miterlimit="10" stroke-linecap="round" stroke-linejoin="round"/>
</g>
<g id="Group_9">
<path id="Vector_11" d="M19.5298 67.494L6.55949 73.3945C5.70788 73.7819 5.33145 74.7864 5.71885 75.638L6.93076 78.3019C7.31816 79.1535 8.32273 79.53 9.17434 79.1426L22.1447 73.2421C22.9963 72.8547 23.3727 71.8502 22.9853 70.9986L21.7734 68.3347C21.386 67.4829 20.3814 67.1066 19.5298 67.494Z" stroke="#E94E1B" stroke-width="3" stroke-miterlimit="10" stroke-linecap="round" stroke-linejoin="round"/>
</g>
<g id="Group_10">
<path id="Vector_12" d="M55.8046 82.1606C60.6751 82.1606 64.6234 78.2123 64.6234 73.3419C64.6234 68.4714 60.6751 64.5231 55.8046 64.5231C50.9341 64.5231 46.9858 68.4714 46.9858 73.3419C46.9858 78.2123 50.9341 82.1606 55.8046 82.1606Z" stroke="#E94E1B" stroke-width="3" stroke-miterlimit="10" stroke-linecap="round" stroke-linejoin="round"/>
</g>
</g>
</svg>
