<svg width="330" height="321" viewBox="0 0 330 321" fill="none" xmlns="http://www.w3.org/2000/svg">
<path d="M48.5019 85.2843C34.5748 80.7835 23.8282 88.5565 24.0234 103.712C1.60007 109.039 -4.74918 133.208 9.3271 149.029C-5.97769 170.787 6.61749 198.641 30.2119 200.639C22.5882 224.75 40.9126 248.815 66.39 241.8C75.1159 269.803 100.306 274.924 124.222 258.08C140.044 275.946 160.021 277.771 179.207 258.08C196.154 267.346 218.072 263.052 220.529 237.494C243.675 224.233 238.038 199.513 216.694 192.797C220.529 178.089 210.643 164.989 193.341 168.376L146.393 155.78L48.5019 85.2843Z" fill="#EAE7E4"/>
<g opacity="0.3">
<path d="M11.7259 146.239C-3.59038 167.997 9.00479 195.851 32.6107 197.849C24.9755 221.96 43.3114 246.036 68.7773 239.01C77.5032 267.013 102.694 272.134 126.609 255.29C142.431 273.156 162.409 274.981 181.594 255.29C196.956 263.695 216.395 260.939 221.733 241.34C213.386 250.859 199.046 251.054 187.151 244.544C167.966 264.234 147.976 262.409 132.166 244.544C108.262 261.387 83.0717 256.266 74.3343 228.263C48.8569 235.278 30.5325 211.213 38.1562 187.102C14.5618 185.104 1.96663 157.25 17.2714 135.493C10.5892 127.984 8.51108 118.592 10.5663 110.234C2.02405 120.154 1.92073 135.217 11.7259 146.239Z" fill="#371A45"/>
</g>
<path d="M151.158 274.028C160.836 274.028 170.389 269.436 179.563 260.354C189.506 265.371 200.229 265.796 208.462 261.433C213.927 258.54 220.689 252.236 222.262 238.631C232.837 232.27 238.267 223.004 237.2 213.073C236.166 203.509 229.197 195.403 218.864 191.603C220.31 184.209 218.531 177.044 213.95 172.176C209.059 166.975 201.779 164.966 193.421 166.493L147.196 154.093L49.5695 83.7802C49.4088 83.6654 49.2366 83.585 49.0643 83.5276C41.7392 81.1624 34.9421 81.8972 29.9133 85.6058C25.137 89.1306 22.4158 95.0206 22.1862 102.288C11.8529 105.17 4.28662 112.151 1.30144 121.612C-1.64931 130.981 0.486252 141.176 7.00772 149.167C-0.0763397 160.006 -1.21301 172.98 3.98808 184.14C8.58067 193.979 17.387 200.616 27.8351 202.223C24.6892 214.508 27.6973 227.184 35.941 235.737C43.4729 243.556 54.0473 246.53 65.1614 244.016C69.3751 256.243 76.8725 264.487 86.9302 267.897C98.1017 271.686 111.179 269.068 123.935 260.526C131.983 269.137 141.111 273.799 150.411 274.017C150.664 274.028 150.916 274.028 151.158 274.028ZM179.218 256.243C178.736 256.243 178.254 256.439 177.898 256.794C168.931 265.991 159.7 270.549 150.515 270.32C141.835 270.113 133.224 265.451 125.611 256.852C124.991 256.151 123.935 256.025 123.166 256.565C110.984 265.141 98.5495 267.92 88.1358 264.384C78.8014 261.215 71.8895 253.212 68.158 241.237C67.8595 240.284 66.8721 239.744 65.9077 240.009C55.5169 242.867 45.574 240.364 38.6162 233.154C30.8433 225.083 28.2944 212.82 31.9799 201.178C32.1521 200.639 32.0603 200.065 31.7503 199.594C31.4403 199.123 30.9351 198.825 30.3725 198.779C20.2918 197.929 11.6807 191.855 7.34067 182.544C2.50697 172.188 3.81587 160.04 10.8311 150.063C11.3248 149.362 11.2673 148.421 10.7047 147.778C4.33253 140.613 2.13957 131.233 4.82625 122.691C7.53587 114.068 14.6888 107.799 24.4481 105.492C25.2862 105.296 25.8718 104.539 25.8603 103.678C25.7684 96.9609 27.9844 91.5991 32.0947 88.5565C36.0788 85.6173 41.5899 85.0432 47.6521 86.9376L145.325 157.285C145.509 157.411 145.704 157.514 145.922 157.572L192.87 170.167C193.145 170.236 193.421 170.247 193.696 170.19C200.953 168.766 207.187 170.362 211.263 174.702C215.305 179.007 216.671 185.598 214.914 192.337C214.662 193.29 215.213 194.266 216.143 194.565C225.948 197.653 232.607 204.887 233.537 213.463C234.479 222.12 229.404 230.295 219.622 235.91C219.105 236.208 218.76 236.736 218.703 237.333C217.739 247.334 213.605 254.544 206.739 258.172C199.368 262.076 189.161 261.421 180.102 256.473C179.827 256.324 179.517 256.243 179.218 256.243Z" fill="#371A45"/>
<path d="M115.29 212.637C116.977 215.748 117.689 219.342 118.332 222.809C118.895 219.296 119.285 215.702 118.872 212.131C118.826 211.844 118.803 211.592 118.711 211.282C118.722 211.282 115.29 212.637 115.29 212.637Z" fill="#371A45"/>
<path d="M86.6087 197.47C86.6316 201.339 86.3446 205.243 85.8738 209.1C87.1253 206.425 88.2735 203.658 89.2838 200.868C89.6283 199.927 89.9498 198.997 90.2598 197.998L86.6087 197.47Z" fill="#371A45"/>
<path d="M70.4087 171.326C66.1261 171.384 61.9583 172.532 57.9283 173.864C61.9009 173.783 65.9883 173.875 69.8232 174.966C69.8117 174.966 70.4087 171.326 70.4087 171.326Z" fill="#371A45"/>
<path d="M52.1302 151.372C48.4446 152.83 45.2298 155.344 42.7613 158.398C45.7809 156.492 49.2828 155.183 52.8535 154.988L52.1302 151.372Z" fill="#371A45"/>
<path d="M33.4144 139.844C29.8781 141.199 26.6518 143.3 24.0226 146.01C26.3992 144.804 28.9711 144.058 31.6003 143.679C32.3925 143.576 33.3225 143.461 34.0918 143.472L33.4144 139.844Z" fill="#371A45"/>
<path d="M36.9272 124.321C35.3084 120.705 33.2302 117.203 30.0728 114.769C32.1509 117.811 33.0006 121.6 33.3565 125.194C33.345 125.205 36.9272 124.321 36.9272 124.321Z" fill="#371A45"/>
<path d="M31.8192 201.569L34.5288 193.267L28.6273 199.72L31.8192 201.569Z" fill="#371A45"/>
<path d="M67.4 243.35L75.8389 235.669L65.3907 240.261L67.4 243.35Z" fill="#371A45"/>
<path d="M125.6 259.32L128.218 253.637L122.856 256.863L125.6 259.32Z" fill="#371A45"/>
<path d="M181.044 258.379L180.757 248.413L177.393 257.805L181.044 258.379Z" fill="#371A45"/>
<path d="M222.354 237.23L219.001 227.528L218.714 237.793L222.354 237.23Z" fill="#371A45"/>
<g opacity="0.3">
<path d="M192.515 173.864C192.515 173.864 195.351 196.494 180.758 196.953C166.165 197.412 166.371 212.981 172.307 216.77C178.243 220.559 192.147 228.894 191.045 229.216C189.943 229.537 175.384 255.784 154.086 244.521C132.788 233.257 137.702 216.77 137.702 216.77C137.702 216.77 126.025 227.012 118.344 214.772C110.663 202.533 96.0474 166.252 89.48 163.714C82.9126 161.165 36.9867 131.945 36.9867 131.945L31.9234 117.134C31.9234 117.134 30.0749 106.479 41.5908 107.398C53.1067 108.316 34.323 95.5717 54.0826 92.8046C73.8422 90.0376 137.691 141.245 137.691 141.245" fill="#371A45"/>
</g>
<path d="M44.8161 129.683C40.2924 124.333 38.9376 117.306 38.5357 113.311C38.3406 111.382 39.4083 109.568 41.1765 108.775C48.5246 105.469 62.6353 100.957 62.6353 100.957L69.4438 115.527" fill="white"/>
<path d="M43.4039 130.866L46.2169 128.489C41.9573 123.449 40.7173 116.698 40.3614 113.127C40.2465 112.002 40.878 110.922 41.9229 110.452C49.0873 107.237 63.0487 102.759 63.1865 102.713L62.0613 99.1998C61.4758 99.3835 47.7554 103.781 40.4073 107.088C37.9158 108.213 36.4117 110.785 36.6873 113.494C37.1006 117.501 38.5128 125.068 43.4039 130.866Z" fill="#371A45"/>
<g opacity="0.3">
<path d="M47.6298 106.158C47.6298 106.158 54.7368 106.33 44.7135 114.78C44.7135 114.78 64.5879 104.722 63.4053 104.63C62.2227 104.539 58.4798 102.323 58.4798 102.323" fill="#371A45"/>
</g>
<path d="M174.052 113.138L189.276 101.68C190.735 100.578 192.801 100.796 194.007 102.174L194.971 103.287C196.223 104.722 196.085 106.881 194.684 108.167L181.526 120.119" fill="#E94E1B"/>
<g opacity="0.3">
<path d="M174.04 113.138L181.514 120.119L194.672 108.167C196.084 106.892 196.199 104.722 194.959 103.299L194.316 102.564C194.213 103.345 193.834 104.114 193.202 104.688L180.045 116.64L175.28 112.197L174.04 113.138Z" fill="#371A45"/>
</g>
<g opacity="0.7">
<path d="M174.04 113.138L175.9 114.872L190.895 103.574C192.238 102.564 194.075 102.656 195.292 103.735C195.201 103.574 195.086 103.425 194.971 103.287L193.995 102.174C192.79 100.796 190.723 100.578 189.265 101.68L174.04 113.138Z" fill="white"/>
</g>
<path d="M191.859 100.979C227.44 70.8635 262.722 44.9384 301.621 20.5173C302.437 20.0006 303.516 20.3451 303.906 21.2291C304.205 21.9065 303.975 22.6988 303.378 23.1236C265.994 50.0132 230.069 77.718 195.751 106.307" fill="#CECCCA"/>
<path d="M181.526 121.968C181.974 121.968 182.41 121.807 182.766 121.485L195.924 109.533C198.059 107.593 198.255 104.252 196.36 102.082L195.396 100.968C193.57 98.8668 190.39 98.5338 188.162 100.21L172.938 111.669C172.123 112.277 171.962 113.437 172.571 114.252C173.179 115.067 174.339 115.228 175.154 114.619L190.378 103.161C191.067 102.644 192.043 102.748 192.606 103.391L193.57 104.504C194.156 105.17 194.098 106.203 193.432 106.801L180.275 118.753C179.517 119.442 179.46 120.601 180.148 121.359C180.527 121.761 181.021 121.968 181.526 121.968Z" fill="#371A45"/>
<path d="M174.051 158.398C174.201 157.537 172.409 143.289 151.065 145.573C129.71 147.858 125.622 163.817 126.644 169.156C127.666 174.484 128.286 183.945 132.994 187.71C137.701 191.476 155.095 197.619 159.608 190.041C164.12 182.463 171.078 172.658 171.078 172.658" fill="white"/>
<path d="M151.375 195.483C152.466 195.483 153.511 195.403 154.498 195.219C157.598 194.657 159.849 193.233 161.181 190.983C165.601 183.554 172.501 173.818 172.57 173.726C173.156 172.899 172.961 171.74 172.134 171.154C171.307 170.569 170.148 170.764 169.562 171.59C169.493 171.694 162.501 181.545 158 189.1C157.219 190.409 155.853 191.224 153.821 191.603C147.334 192.785 137.23 188.767 134.119 186.275C130.789 183.612 129.733 176.895 128.964 172.004C128.78 170.856 128.608 169.776 128.424 168.812C128.011 166.653 128.642 161.751 132.087 157.101C134.888 153.312 140.48 148.57 151.238 147.422C158.896 146.607 164.659 147.881 168.379 151.211C171.468 153.978 172.18 157.457 172.203 158.249C172.111 159.19 172.765 160.063 173.718 160.235C174.717 160.419 175.682 159.742 175.854 158.743C176.072 157.503 175.234 153.082 171.858 149.466C168.781 146.171 162.639 142.508 150.859 143.759C138.78 145.045 132.374 150.533 129.136 154.919C125.255 160.166 124.176 166.171 124.819 169.524C124.991 170.431 125.163 171.476 125.335 172.589C126.254 178.399 127.391 185.621 131.834 189.169C135.416 192.016 144.268 195.483 151.375 195.483ZM172.226 158.077C172.214 158.123 172.214 158.157 172.203 158.203C172.214 158.157 172.226 158.111 172.226 158.077Z" fill="#371A45"/>
<path d="M33.7599 141.658C49.1221 140.43 52.3484 152.945 52.3484 152.945C58.8239 152.37 63.3821 156.906 66.4017 160.786C66.4821 160.89 66.5624 160.993 66.6428 161.096C66.9298 161.498 67.435 162.267 67.9862 163.404C68.1354 163.726 68.2962 164.07 68.4454 164.46C69.2836 166.516 70.0758 169.432 70.1217 173.152C81.9706 176.378 88.5609 184.14 88.4461 197.734C101.317 196.034 110.766 200.937 117.012 211.971C117.012 211.971 128.379 213.555 142.822 209.1C142.822 209.1 145.578 225.806 152.065 235.714C153.408 237.758 155.67 239.021 158.116 238.998C164.385 238.952 177.91 237.93 190.895 230.846C191.286 230.628 191.653 230.376 191.997 230.1C193.926 228.539 194.96 226.07 194.627 223.556C193.835 217.711 190.849 209.169 179.988 212.786C179.988 212.786 173.489 189.26 169.54 182.578C165.59 175.896 158.322 168.238 142.662 169.168C142.662 169.168 142.019 158.26 141.571 151.969C141.571 151.969 147.116 154.885 167.083 137.835C167.083 137.835 179.173 145.413 186.854 133.736C194.535 122.059 189.816 114.08 179.885 116.939C179.885 116.939 182.548 104.722 172.112 104.642C172.112 104.642 166.061 104.676 162.892 111.37C162.892 111.37 148.942 118.064 141.582 121.267C141.582 121.267 132.891 111.198 125.715 107.57L121.421 103.735H69.2376C67.6302 104.275 66.1032 104.814 64.6335 105.365C40.4651 114.401 35.1377 124.78 35.1377 124.78C36.6762 133.059 33.7599 141.658 33.7599 141.658Z" fill="white"/>
<path d="M158.058 240.835C158.081 240.835 158.104 240.835 158.115 240.835C165.038 240.789 178.609 239.63 191.767 232.465C195.062 230.663 196.945 226.989 196.44 223.303C195.901 219.365 194.408 214.141 190.286 211.58C187.806 210.042 184.775 209.686 181.25 210.501C179.631 204.818 174.534 187.423 171.124 181.637C165.268 171.728 156.508 167.009 144.383 167.239C144.211 164.334 143.855 158.502 143.545 153.943C147.081 153.622 154.188 151.073 167.277 140.062C172.421 142.703 182.042 144.368 188.369 134.746C192.789 128.03 193.708 121.681 190.837 117.777C188.966 115.228 185.82 114.137 181.985 114.608C182.1 112.208 181.813 108.695 179.746 106.089C178.012 103.919 175.441 102.805 172.099 102.782C171.789 102.782 165.199 102.897 161.502 109.969C158.976 111.175 148.597 116.123 142.041 119.028C139.159 115.848 130.112 106.364 123.372 104.699C122.385 104.458 121.386 105.055 121.145 106.043C120.904 107.03 121.501 108.029 122.488 108.27C128.148 109.671 137.161 118.982 140.158 122.45C140.686 123.058 141.547 123.253 142.294 122.932C149.596 119.752 163.523 113.081 163.672 113.012C164.051 112.828 164.361 112.518 164.545 112.139C167.197 106.548 172.054 106.468 172.099 106.468C174.281 106.491 175.854 107.111 176.864 108.385C178.77 110.762 178.38 115.079 178.07 116.537C177.932 117.168 178.139 117.834 178.621 118.271C179.092 118.707 179.769 118.879 180.389 118.695C183.833 117.696 186.566 118.156 187.886 119.958C189.368 121.968 189.471 126.376 185.303 132.714C178.724 142.715 168.483 136.526 168.058 136.262C167.381 135.837 166.496 135.906 165.888 136.423C149.148 150.717 143.132 150.396 142.362 150.269C141.811 149.879 141.191 149.913 140.571 150.235C139.928 150.579 139.687 151.36 139.733 152.083C140.181 158.295 140.812 169.156 140.824 169.26C140.858 169.753 141.076 170.201 141.444 170.534C141.811 170.856 142.282 171.028 142.776 170.993C154.349 170.316 162.593 174.403 167.966 183.508C171.744 189.903 178.162 213.039 178.219 213.268C178.357 213.75 178.678 214.164 179.126 214.405C179.574 214.646 180.091 214.692 180.573 214.531C183.811 213.452 186.428 213.509 188.357 214.715C191.251 216.517 192.376 220.651 192.801 223.808C193.099 225.99 191.974 228.16 190.011 229.239C177.565 236.024 164.671 237.115 158.104 237.161C156.312 237.173 154.625 236.254 153.603 234.704C147.403 225.243 144.659 208.963 144.636 208.802C144.544 208.274 144.234 207.814 143.786 207.539C143.338 207.263 142.787 207.183 142.271 207.344C130.663 210.926 121.007 210.478 118.125 210.237C111.764 199.582 102.407 194.703 90.248 195.69C89.7429 183.416 83.5773 175.379 71.9006 171.763C71.4299 163.99 67.9625 159.799 67.8018 159.615C67.1473 158.835 65.9762 158.743 65.2069 159.397C64.4377 160.052 64.3344 161.211 64.9773 161.992C65.0117 162.026 68.1692 165.942 68.261 173.198C68.2725 174.025 68.8236 174.736 69.6158 174.954C81.1432 178.089 86.7003 185.54 86.5855 197.734C86.5855 198.262 86.8036 198.779 87.2054 199.134C87.6073 199.49 88.1354 199.651 88.6636 199.582C100.673 197.998 109.411 202.349 115.392 212.901C115.679 213.394 116.173 213.739 116.736 213.819C117.195 213.888 127.655 215.277 141.352 211.466C142.317 216.311 145.152 228.596 150.491 236.748C152.214 239.297 155.026 240.835 158.058 240.835Z" fill="#371A45"/>
<path d="M136.427 124.804C138.746 129.878 142.271 138.467 144.004 146.871C144.601 149.764 142.994 152.658 140.238 153.725L105.633 167.078C102.889 168.135 99.7663 167.078 98.2507 164.541C95.633 160.144 91.7867 152.807 89.6626 144.552C89.0081 142.037 90.03 139.362 92.2115 137.95C103.142 130.889 115.404 125.286 129.274 121.474C132.156 120.682 135.187 122.082 136.427 124.804Z" fill="white"/>
<path d="M106.996 142.043C105.758 139.621 106.32 136.857 108.251 135.87C110.182 134.883 112.751 136.047 113.989 138.469C115.227 140.891 114.665 143.655 112.734 144.642C110.803 145.629 108.234 144.465 106.996 142.043Z" fill="#00AAFF"/>
<path d="M103.441 169.329C104.393 169.329 105.358 169.156 106.299 168.789L140.905 155.436C144.521 154.035 146.588 150.281 145.807 146.492C144.085 138.134 140.663 129.66 138.103 124.034C136.484 120.475 132.569 118.649 128.792 119.694C115.243 123.426 102.602 129.04 91.2127 136.4C88.3653 138.237 87.022 141.704 87.8717 145.011C90.0187 153.346 93.842 160.741 96.6664 165.482C98.1361 167.928 100.731 169.329 103.441 169.329ZM130.916 123.093C132.535 123.093 134.05 124.023 134.75 125.561C137.242 131.015 140.549 139.201 142.202 147.227C142.615 149.236 141.513 151.234 139.584 151.98L104.979 165.333C103.05 166.079 100.903 165.333 99.8468 163.576C97.1487 159.053 93.4976 151.992 91.4539 144.069C90.9946 142.301 91.7065 140.453 93.222 139.477C104.29 132.324 116.587 126.859 129.768 123.231C130.146 123.139 130.537 123.093 130.916 123.093Z" fill="#371A45"/>
<path d="M111.696 166.275C112.075 166.275 112.442 166.137 112.741 165.861C113.361 165.287 113.395 164.311 112.821 163.691C99.4225 149.293 99.2158 134.758 99.2158 134.609C99.2158 133.759 98.5269 133.082 97.6773 133.082C96.8277 133.082 96.1388 133.77 96.1388 134.62C96.1388 135.263 96.2995 150.465 110.559 165.792C110.869 166.102 111.283 166.275 111.696 166.275Z" fill="#371A45"/>
<path d="M125.715 159.937C125.887 159.937 126.059 159.902 126.231 159.845C127.035 159.558 127.448 158.685 127.161 157.882L121.937 143.254L126.886 137.479C127.219 137.1 127.334 136.572 127.207 136.09L123.935 123.701C123.717 122.886 122.879 122.392 122.052 122.61C121.237 122.829 120.743 123.667 120.961 124.493L124.027 136.101L119.021 141.945C118.665 142.359 118.55 142.944 118.745 143.461L124.28 158.926C124.486 159.546 125.083 159.937 125.715 159.937Z" fill="#371A45"/>
<path d="M111.282 146.216C111.993 146.216 112.682 146.056 113.314 145.734C114.588 145.091 115.449 143.886 115.759 142.347C116.046 140.912 115.817 139.339 115.093 137.927C114.37 136.515 113.233 135.401 111.902 134.792C110.478 134.149 108.985 134.149 107.722 134.792C106.459 135.435 105.587 136.641 105.277 138.179C104.99 139.615 105.219 141.188 105.943 142.6C106.666 144.012 107.803 145.126 109.134 145.734C109.846 146.056 110.57 146.216 111.282 146.216ZM109.754 136.744C110.122 136.744 110.512 136.836 110.903 137.008C111.741 137.387 112.453 138.111 112.935 139.041C113.406 139.971 113.566 140.981 113.394 141.876C113.233 142.669 112.82 143.277 112.223 143.587C111.626 143.897 110.891 143.874 110.145 143.541C109.307 143.162 108.595 142.439 108.113 141.509C107.642 140.579 107.481 139.569 107.653 138.673C107.814 137.881 108.227 137.272 108.825 136.962C109.112 136.813 109.422 136.744 109.754 136.744Z" fill="#371A45"/>
<path d="M89.9378 145.574C89.9378 145.574 99.6282 150.958 95.357 159.282C95.357 159.282 86.3785 165.058 80.3393 163.416C74.3 161.774 79.8226 150.109 79.8226 150.109L89.9378 145.574Z" fill="white"/>
<path d="M82.6711 165.551C88.9515 165.551 96.0126 161.062 96.357 160.844C96.6325 160.672 96.8507 160.419 97 160.132C101.018 152.29 94.7152 146.125 90.8344 143.966C90.3292 143.679 89.7207 143.656 89.1811 143.897L79.0774 148.432C78.6755 148.616 78.3541 148.926 78.1704 149.328C77.7685 150.178 74.2781 157.801 76.3333 162.256C77.0222 163.749 78.2393 164.77 79.8696 165.207C80.7652 165.448 81.7181 165.551 82.6711 165.551ZM93.9344 158.008C91.2822 159.604 84.8755 162.738 80.8341 161.648C80.26 161.487 79.9155 161.211 79.6859 160.718C78.7215 158.616 80.1796 153.978 81.2359 151.509L89.8011 147.663C91.6841 148.96 96.2652 152.761 93.9344 158.008Z" fill="#371A45"/>
<path d="M45.8489 144.322C50.9811 147.686 52.3359 152.945 52.3359 152.945C60.017 152.256 65.0115 158.777 67.9277 162.853C70.8555 166.929 78.9155 164.438 78.9155 164.438C91.0055 158.605 86.8262 146.262 86.8262 146.262C86.8262 146.262 93.1984 145.757 93.0492 142.118C92.8425 137.169 82.9111 137.054 82.9111 137.054C67.2389 127.995 58.18 124.769 58.18 124.769C50.7515 127.169 45.5274 134.459 45.8489 144.322Z" fill="white"/>
<path d="M73.806 167.055C76.5386 167.055 78.9612 166.355 79.4549 166.206C79.5467 166.183 79.6271 166.148 79.7189 166.102C89.0763 161.579 90.0867 153.048 89.1108 147.755C91.9238 147.078 95.0352 145.401 94.8974 142.037C94.6448 136.078 85.85 135.321 83.4389 135.217C68.0538 126.354 59.1786 123.15 58.8112 123.024C58.4323 122.886 58.0075 122.886 57.6286 123.012C49.913 125.515 44.8268 132.531 44.1034 141.314C41.9449 140.384 39.3386 139.787 36.2271 139.741C36.9964 136.584 37.9953 130.889 37.0882 125.148C38.5808 122.944 46.1471 113.379 69.8334 105.48C70.7978 105.159 71.326 104.114 71.0045 103.15C70.683 102.185 69.6382 101.657 68.6738 101.978C40.1768 111.474 33.7701 123.426 33.5175 123.931C33.3338 124.298 33.2649 124.712 33.3453 125.114C34.7805 132.841 32.0594 141.004 32.0249 141.084C31.8297 141.67 31.9331 142.324 32.312 142.806C32.6908 143.3 33.2994 143.564 33.9079 143.507C38.7645 143.116 42.2549 144.219 44.7579 145.815C44.8268 145.861 44.8842 145.906 44.9531 145.941C49.2701 148.811 50.4871 153.14 50.5675 153.427C50.7971 154.288 51.6238 154.874 52.5193 154.793C58.616 154.242 62.8067 158.869 66.4464 163.944C68.203 166.401 71.1538 167.055 73.806 167.055ZM78.2378 162.715C76.3549 163.255 71.1193 164.151 69.4201 161.774C66.8941 158.249 61.7849 151.119 53.5986 151.05C52.8293 149.202 51.0727 145.929 47.6742 143.381C47.7201 135.504 51.7386 129.086 58.1453 126.721C60.3841 127.594 68.8919 131.072 81.9808 138.65C82.2563 138.811 82.5663 138.891 82.8763 138.903C85.4367 138.937 91.0971 139.821 91.1889 142.209C91.2463 143.61 87.8478 144.345 86.6652 144.437C86.1026 144.483 85.586 144.781 85.276 145.264C84.966 145.746 84.8856 146.331 85.0693 146.871C85.2186 147.296 88.5137 157.664 78.2378 162.715Z" fill="#371A45"/>
<path d="M75.0468 133.162C77.0905 129.97 79.559 126.962 82.085 124.103C80.3972 125.079 78.7439 126.112 77.102 127.192C75.4257 128.328 73.8527 129.419 72.2683 130.739L75.0468 133.162Z" fill="#371A45"/>
<path d="M88.4111 145.332L84.2893 141.968L85.2422 147.204L88.4111 145.332Z" fill="#371A45"/>
<path d="M40.8432 58.6816C40.8432 90.0835 66.2976 115.526 97.688 115.526C115.346 115.526 131.122 107.466 141.547 94.8368C141.559 94.8253 141.57 94.8138 141.582 94.7909C149.676 84.9742 154.533 72.3905 154.533 58.6702C154.533 41.758 147.15 26.5795 135.428 16.1773C125.393 7.24468 112.178 1.82542 97.688 1.82542C66.2862 1.84839 40.8432 27.2913 40.8432 58.6816Z" fill="white"/>
<g opacity="0.3">
<path d="M40.8439 58.6816C40.8439 90.0834 66.2983 115.526 97.6886 115.526C109.216 115.526 119.94 112.093 128.907 106.192C123.223 108.109 117.138 109.143 110.8 109.143C79.4101 109.143 53.9672 83.6882 53.9672 52.2979C53.9672 32.4235 64.1627 14.9372 79.6168 4.77612C57.0672 12.3309 40.8439 33.6176 40.8439 58.6816Z" fill="#371A45"/>
</g>
<path d="M65.1617 49.5997L66.0228 76.9486C78.905 100.532 122.271 115.515 141.536 94.8482C141.548 94.8367 141.559 94.8252 141.571 94.8023C149.665 84.9856 154.522 72.4019 154.522 58.6816C154.522 41.7694 147.139 26.5909 135.417 16.1887C113.487 5.26979 78.905 16.7857 65.1617 49.5997Z" fill="#371A45"/>
<g opacity="0.35">
<path d="M65.2182 51.4253L66.0334 76.9371C78.9156 100.52 122.281 115.503 141.547 94.8368C141.558 94.8253 141.57 94.8138 141.581 94.7908C146.851 88.3956 150.744 80.8294 152.822 72.5397C143.212 81.7364 130.169 87.3738 115.828 87.3738C92.4178 87.3853 72.5089 72.356 65.2182 51.4253Z" fill="#101928"/>
</g>
<path d="M116.414 105.779C127.138 105.779 136.22 102.254 142.408 95.5831C142.845 95.1238 142.81 94.389 142.351 93.9642C141.892 93.5279 141.157 93.5623 140.732 94.0216C133.82 101.462 122.959 104.676 110.134 103.08C92.2228 100.842 74.5987 89.9916 67.1702 76.6386L66.3206 49.8179C73.0258 33.985 85.0354 22.182 100.179 16.5561C112.35 12.0324 125.014 12.285 134.934 17.2335C135.496 17.5206 136.185 17.2909 136.472 16.7169C136.759 16.1543 136.53 15.4654 135.956 15.1783C125.473 9.94279 112.132 9.66723 99.3758 14.4091C83.5658 20.2876 71.0395 32.6302 64.1047 49.1635C64.0358 49.3128 64.0128 49.4735 64.0128 49.6457L64.8739 76.9946C64.8739 77.1783 64.9313 77.3505 65.0117 77.5112C72.6928 91.576 91.1321 103.035 109.835 105.377C112.097 105.641 114.29 105.779 116.414 105.779Z" fill="#371A45"/>
<path d="M110.421 112.874C114.118 112.874 117.872 112.541 121.684 111.852C122.522 111.703 123.073 110.899 122.924 110.073C122.775 109.246 121.971 108.683 121.144 108.833C96.6543 113.253 74.1276 102.369 62.2902 80.4045L60.5335 46.1094C70.0287 21.4012 91.8091 6.39498 117.459 6.9346C118.297 6.94609 119.009 6.28016 119.032 5.43053C119.055 4.58091 118.377 3.88054 117.528 3.85757C104.886 3.5935 92.785 6.94609 82.532 13.5594C71.3376 20.7698 62.7036 31.7461 57.5599 45.3286C57.4795 45.5238 57.4565 45.742 57.4565 45.9486L59.2476 80.9097C59.2591 81.1393 59.3165 81.3575 59.4313 81.5527C70.0402 101.496 88.9731 112.874 110.421 112.874Z" fill="#371A45"/>
<path d="M97.6761 117.375C115.254 117.375 131.753 109.591 142.948 96.0309C142.959 96.008 142.982 95.9965 142.993 95.9735C151.616 85.5139 156.358 72.2758 156.358 58.6817C156.358 41.9302 149.171 25.9366 136.633 14.811C125.909 5.25844 112.074 -7.62939e-05 97.6761 -7.62939e-05C65.3213 -7.62939e-05 38.9944 26.3269 38.9944 58.6817C38.9944 91.048 65.3213 117.375 97.6761 117.375ZM140.158 93.6198C140.146 93.6313 140.135 93.6543 140.123 93.6657C129.629 106.387 114.164 113.678 97.6876 113.678C67.3651 113.678 42.6914 89.0043 42.6914 58.6702C42.6914 28.3477 67.3651 3.67399 97.6876 3.67399C111.178 3.67399 124.152 8.59955 134.199 17.5551C145.944 27.9803 152.684 42.9751 152.684 58.6702C152.672 71.4147 148.229 83.8261 140.158 93.6198Z" fill="#371A45"/>
<path d="M53.9551 82.3681C44.4942 82.3681 36.8247 74.0149 36.8247 63.7107C36.8247 53.4065 44.4942 45.0533 53.9551 45.0533C63.4159 45.0533 71.0854 53.4065 71.0854 63.7107C71.0854 74.0149 63.4159 82.3681 53.9551 82.3681Z" fill="white"/>
<g opacity="0.3">
<path d="M36.8246 63.7106C36.8246 74.0095 44.4942 82.368 53.9549 82.368C62.7956 82.368 70.0749 75.0658 70.9819 65.6969C67.859 70.1173 62.9564 72.9532 57.4338 72.9532C47.9731 72.9532 40.3149 64.5947 40.3149 54.2843C40.3149 53.6184 40.3494 52.9525 40.4183 52.298C38.1564 55.4554 36.8246 59.4051 36.8246 63.7106Z" fill="#371A45"/>
</g>
<path d="M53.9554 83.9065C64.2428 83.9065 72.6128 74.8476 72.6128 63.7106C72.6128 52.5736 64.2428 43.5147 53.9554 43.5147C43.668 43.5147 35.298 52.5736 35.298 63.7106C35.2865 74.8476 43.668 83.9065 53.9554 83.9065ZM53.9554 46.5802C62.555 46.5802 69.5472 54.2613 69.5472 63.7106C69.5472 73.1598 62.555 80.8409 53.9554 80.8409C45.3558 80.8409 38.3636 73.1598 38.3636 63.7106C38.3636 54.2613 45.3558 46.5802 53.9554 46.5802Z" fill="#371A45"/>
<path d="M49.3514 80.0602C56.9292 80.0602 63.0947 72.9532 63.0947 64.2158C63.0947 55.4784 56.9292 48.3714 49.3514 48.3714C41.7736 48.3714 35.6081 55.4784 35.6081 64.2158C35.6081 72.9532 41.7622 80.0602 49.3514 80.0602ZM49.3514 50.8284C55.5744 50.8284 60.6377 56.8332 60.6377 64.2158C60.6377 71.5984 55.5744 77.6032 49.3514 77.6032C43.1285 77.6032 38.0651 71.5984 38.0651 64.2158C38.0651 56.8332 43.117 50.8284 49.3514 50.8284Z" fill="#371A45"/>
<g opacity="0.5">
<path d="M146.541 54.6861C140.272 24.3636 121.959 14.4321 89.214 28.9562C88.1348 29.4384 88.5251 31.0573 89.7077 30.9884C114.003 29.5188 132.315 37.6936 144.635 55.5128C145.29 56.4658 146.771 55.8228 146.541 54.6861Z" fill="white"/>
</g>
<g opacity="0.5">
<path d="M96.2761 84.8135C95.0016 88.4301 97.7227 92.7012 102.361 94.3316C107 95.9735 111.799 94.3661 113.073 90.7494C114.348 87.1327 112.385 83.4701 107.746 81.8283C103.108 80.1864 97.562 81.1853 96.2761 84.8135Z" fill="white"/>
</g>
<g opacity="0.5">
<path d="M82.4703 77.4268C81.8175 74.6621 83.5295 71.8918 86.2942 71.2389C89.0588 70.5861 91.8292 72.2981 92.482 75.0628C93.1349 77.8274 91.4229 80.5978 88.6582 81.2506C85.8936 81.9034 83.1232 80.1914 82.4703 77.4268Z" fill="white"/>
</g>
<path d="M174.763 149.672C191.664 130.452 203.983 152.474 194.729 169.007C194.729 169.007 180.963 195.219 164.935 185.598C150.342 176.838 174.763 149.672 174.763 149.672Z" fill="white"/>
<g opacity="0.3">
<path d="M164.935 185.587C180.964 195.197 194.73 168.996 194.73 168.996C198.186 162.819 198.634 155.861 196.946 150.591C196.911 154.449 195.935 158.594 193.777 162.451C193.777 162.451 180.011 188.652 163.982 179.042C162.306 178.032 161.147 176.792 160.4 175.357C159.895 179.524 160.986 183.221 164.935 185.587Z" fill="#371A45"/>
</g>
<path d="M172.18 189.559C173.581 189.559 174.993 189.364 176.428 188.962C187.921 185.747 196.027 170.511 196.372 169.868C202.48 158.972 199.781 146.802 193.409 142.301C190.7 140.384 183.329 137.158 173.386 148.467C172.616 149.328 156.772 167.147 158.586 179.26C159.103 182.682 160.917 185.357 163.982 187.194C166.634 188.755 169.379 189.559 172.18 189.559ZM187.37 144.046C188.782 144.046 190.091 144.46 191.274 145.298C196.211 148.788 198.059 159.294 193.122 168.1C193.019 168.284 185.372 182.624 175.418 185.414C172.111 186.344 168.988 185.885 165.877 184.013C163.776 182.751 162.582 181.005 162.226 178.698C160.928 170.029 171.813 155.7 176.13 150.912L176.141 150.901C180.102 146.389 184.006 144.046 187.37 144.046Z" fill="#371A45"/>
<path d="M197.209 163.909C197.565 163.909 197.921 163.76 198.162 163.462C198.587 162.934 198.518 162.164 197.99 161.728C179.057 146.239 178.816 146.159 178.529 146.067C177.886 145.849 177.185 146.205 176.979 146.848C176.795 147.411 177.036 148.008 177.518 148.295C178.448 148.961 189.298 157.79 196.44 163.634C196.658 163.818 196.933 163.909 197.209 163.909Z" fill="#371A45"/>
<path d="M192.513 173.887C192.869 173.887 193.214 173.737 193.466 173.439C193.903 172.911 193.822 172.142 193.306 171.705L171.87 154.001C171.342 153.565 170.572 153.645 170.136 154.162C169.7 154.69 169.78 155.459 170.297 155.895L191.733 173.6C191.962 173.795 192.238 173.887 192.513 173.887Z" fill="#371A45"/>
<path d="M186.337 180.73C186.704 180.73 187.06 180.569 187.301 180.259C187.714 179.719 187.622 178.95 187.094 178.537L166.921 162.75C166.382 162.337 165.613 162.428 165.199 162.956C164.786 163.496 164.878 164.265 165.406 164.679L185.579 180.466C185.797 180.638 186.072 180.73 186.337 180.73Z" fill="#371A45"/>
<path d="M177.725 186.356C178.081 186.356 178.425 186.206 178.666 185.919C179.103 185.403 179.045 184.645 178.529 184.197C178.161 183.887 164.774 173.715 162.087 171.682C161.547 171.269 160.778 171.372 160.365 171.924C159.951 172.463 160.055 173.232 160.606 173.646C166.944 178.456 176.519 185.736 176.944 186.08C177.174 186.264 177.449 186.356 177.725 186.356Z" fill="#371A45"/>
<path d="M142.501 167.319C137.518 168.467 132.707 170.155 128.275 172.67C132.983 171.372 137.966 170.89 142.822 170.993C145.589 170.959 145.245 166.872 142.501 167.319Z" fill="#371A45"/>
<path d="M143.637 210.742C145.887 208.894 147.908 206.907 149.986 204.898C147.357 205.805 144.67 206.758 141.995 207.447C140.973 207.677 140.342 208.699 140.572 209.72C140.847 211.075 142.604 211.649 143.637 210.742Z" fill="#371A45"/>
<path d="M146.484 212.706C162.157 212.706 176.371 201.236 177.014 200.707C177.668 200.168 177.771 199.203 177.232 198.549C176.692 197.894 175.728 197.791 175.073 198.331C174.913 198.457 159.034 211.259 143.35 209.456C142.512 209.353 141.743 209.962 141.651 210.811C141.559 211.649 142.156 212.419 143.006 212.51C144.154 212.648 145.325 212.706 146.484 212.706Z" fill="#371A45"/>
<path d="M178.977 211.236L173.834 216.77L180.987 214.324C181.974 213.98 182.514 212.901 182.169 211.913C181.756 210.57 179.907 210.191 178.977 211.236Z" fill="#371A45"/>
<path d="M157.989 146.515C158.632 146.515 159.229 146.102 159.447 145.459C159.711 144.655 159.275 143.782 158.471 143.518C145.416 139.213 145.658 120.337 145.658 120.154C145.681 119.304 145.003 118.604 144.154 118.581C143.304 118.558 142.604 119.235 142.581 120.085C142.558 120.957 142.282 141.417 157.495 146.435C157.667 146.492 157.828 146.515 157.989 146.515Z" fill="#371A45"/>
<path d="M170.033 117.949L161.364 126.135C160.17 127.261 160.147 129.144 161.295 130.303L164.717 133.771C165.888 134.965 167.828 134.919 168.954 133.679L174.051 128.076L175.682 120.28L171.996 120.108" fill="#E94E1B"/>
<g opacity="0.3">
<path d="M160.642 129.27C160.78 129.649 160.998 130.005 161.296 130.315L164.718 133.782C165.9 134.976 167.829 134.942 168.954 133.702L174.052 128.099L175.441 121.474L166.497 130.843C165.372 132.083 163.432 132.117 162.261 130.923L160.642 129.27Z" fill="#371A45"/>
</g>
<g opacity="0.7">
<path d="M161.295 130.315L162.202 131.233C161.915 130.223 162.179 129.086 163.006 128.317L171.675 120.119L173.649 122.289L175.257 122.358L175.682 120.291L171.996 120.108L170.033 117.949L161.364 126.135C160.182 127.272 160.147 129.155 161.295 130.315Z" fill="white"/>
</g>
<path d="M129.836 120.682C127.517 118.523 124.957 116.755 122.305 115.09C123.992 117.536 125.623 120.108 126.817 122.806C126.817 122.794 129.836 120.682 129.836 120.682Z" fill="#371A45"/>
<path d="M181.457 139.19C183.053 139.19 184.66 138.627 186.142 137.525C186.957 136.916 187.129 135.757 186.52 134.942C185.912 134.126 184.764 133.954 183.937 134.563C182.536 135.608 181.193 135.78 179.838 135.091C177.657 134 175.889 130.854 175.889 128.087C175.889 124.264 179.7 119.683 181.17 118.236C181.893 117.524 181.905 116.353 181.193 115.63C180.481 114.906 179.31 114.895 178.587 115.607C178.323 115.859 172.203 121.956 172.203 128.087C172.203 132.244 174.775 136.675 178.185 138.386C179.253 138.926 180.355 139.19 181.457 139.19Z" fill="#371A45"/>
<path d="M173.294 122.691C175.315 122.691 177.634 121.692 179.758 119.798C180.516 119.12 180.585 117.961 179.907 117.191C179.23 116.434 178.07 116.365 177.301 117.042C175.223 118.891 173.271 119.327 172.479 118.81C171.79 118.351 171.514 116.606 172.49 113.747C172.823 112.782 172.307 111.738 171.342 111.405C170.378 111.072 169.333 111.588 169 112.553C166.899 118.718 169.298 121.129 170.435 121.876C171.285 122.415 172.249 122.691 173.294 122.691Z" fill="#371A45"/>
<path d="M166.795 136.492C166.83 136.492 166.864 136.492 166.887 136.492C168.184 136.469 169.436 135.895 170.308 134.93L175.406 129.327C176.095 128.57 176.038 127.41 175.28 126.721C174.522 126.032 173.362 126.09 172.674 126.847L167.576 132.45C167.3 132.749 166.979 132.795 166.807 132.806C166.634 132.818 166.301 132.772 166.014 132.485L162.593 129.017C162.386 128.811 162.283 128.535 162.283 128.248C162.283 127.961 162.409 127.685 162.616 127.49L171.284 119.304C172.019 118.604 172.054 117.433 171.353 116.698C170.653 115.963 169.482 115.928 168.747 116.629L160.078 124.815C159.137 125.699 158.609 126.905 158.586 128.191C158.563 129.477 159.045 130.694 159.952 131.624L163.374 135.091C164.292 135.987 165.521 136.492 166.795 136.492Z" fill="#371A45"/>
<g opacity="0.3">
<path d="M33.7592 141.658C49.1214 140.43 52.3477 152.945 52.3477 152.945C58.8232 152.37 63.3814 156.906 66.401 160.786C66.4814 160.89 66.5617 160.993 66.6421 161.096C66.9291 161.498 67.4344 162.268 67.9855 163.404C86.8954 166.757 86.264 150.924 86.264 150.924C80.4773 162.038 66.6421 151.75 52.9218 139.052C39.2014 126.353 64.3344 115.09 64.3344 115.09C86.2869 122.611 108.676 114.459 108.676 114.459C91.6488 119.051 71.8088 109.361 64.6329 105.342C40.4644 114.378 35.137 124.758 35.137 124.758C36.6755 133.059 33.7592 141.658 33.7592 141.658Z" fill="#371A45"/>
</g>
<g opacity="0.3">
<path d="M68.4327 164.46C69.2709 166.516 70.0631 169.432 70.109 173.152C81.9579 176.378 88.5482 184.14 88.4334 197.734C101.304 196.035 110.753 200.937 116.999 211.971C116.999 211.971 128.366 213.555 142.81 209.1C142.81 209.1 145.565 225.806 152.052 235.714C153.396 237.758 155.657 239.021 158.103 238.998C164.372 238.952 177.897 237.93 190.883 230.846C191.273 230.628 191.64 230.376 191.985 230.1L192.501 228.768C191.927 228.952 164.234 238.183 158.011 228.297C151.708 218.309 150.261 202.648 150.261 202.648C150.261 202.648 144.681 194.967 130.525 200.191C116.379 205.415 87.9627 184.989 92.1075 175.919C96.2523 166.86 99.4786 173.416 107.01 172.67C114.542 171.923 128.263 163.358 135.45 154.965C117.286 155.585 105.713 148.639 102.096 132.553L93.5197 137.123C93.5197 137.123 94.7712 141.624 91.7975 143.048C88.8353 144.483 93.026 146.94 93.026 146.94L94.8745 153.599L86.9753 155.298C86.9753 155.298 83.8868 167.698 71.1998 164.748C70.1664 164.483 69.2479 164.403 68.4327 164.46Z" fill="#371A45"/>
</g>
<g opacity="0.3">
<path d="M154.522 147.238C154.522 147.238 138.356 162.888 162.938 167.205L160.285 172.222L143.58 167.469V153.323L149.722 150.246" fill="#371A45"/>
</g>
<g opacity="0.3">
<path d="M140.033 133.506C140.033 133.506 146.405 145.068 162.938 131.21C162.938 131.21 166.463 136.434 169.62 132.955C172.778 129.488 175.786 124.092 175.786 124.092C175.786 124.092 181.217 140.682 191.86 123.173C191.86 123.173 184.879 139.948 175.786 139.041C166.692 138.145 165.946 138.019 165.946 138.019C165.946 138.019 163.294 141.865 162.938 142.186C162.582 142.508 147.507 151.016 147.507 151.016H144.97" fill="#371A45"/>
</g>
<path d="M195.751 107.834C196.095 107.834 196.451 107.719 196.738 107.478C230.39 79.4517 266.58 51.4943 304.285 24.3636C305.456 23.514 305.893 21.941 305.318 20.6091C304.963 19.7825 304.251 19.151 303.39 18.8755C302.517 18.6114 301.587 18.7262 300.818 19.2084C261.907 43.641 226.98 69.2447 190.883 99.7968C190.24 100.348 190.159 101.312 190.699 101.967C191.25 102.61 192.215 102.69 192.869 102.151C228.852 71.7017 263.664 46.1669 302.448 21.8147L302.494 21.8721C264.731 49.0373 228.484 77.052 194.775 105.113C194.12 105.652 194.029 106.628 194.58 107.271C194.867 107.65 195.303 107.834 195.751 107.834Z" fill="#371A45"/>
<path d="M297.086 254.475C297.936 254.475 298.625 253.786 298.625 252.937V27.8539C298.625 27.0043 297.936 26.3154 297.086 26.3154C296.236 26.3154 295.547 27.0043 295.547 27.8539V252.937C295.547 253.786 296.236 254.475 297.086 254.475Z" fill="#371A45"/>
<path d="M293.631 181.809L326.996 246.22L297.982 245.21L305.744 318.094L270.381 230.663L298.924 231.65L293.631 181.809Z" fill="white"/>
<path d="M305.744 320.563C305.939 320.563 306.145 320.54 306.341 320.494C307.535 320.195 308.315 319.07 308.189 317.853L300.726 247.782L326.904 248.7C327.777 248.746 328.603 248.298 329.062 247.552C329.533 246.817 329.568 245.887 329.166 245.106L295.801 180.695C295.261 179.65 294.044 179.134 292.907 179.467C291.771 179.811 291.047 180.902 291.174 182.085L296.168 229.113L270.45 228.217C269.623 228.183 268.831 228.585 268.348 229.262C267.866 229.939 267.774 230.823 268.084 231.593L303.459 319.036C303.849 319.966 304.768 320.563 305.744 320.563ZM297.982 242.753C297.305 242.753 296.65 243.04 296.18 243.533C295.697 244.05 295.456 244.762 295.537 245.474L301.438 300.918L274.066 233.257L298.832 234.119C299.544 234.142 300.232 233.854 300.715 233.338C301.197 232.821 301.438 232.109 301.358 231.397L297.442 194.53L322.862 243.614L298.051 242.753C298.04 242.753 298.005 242.753 297.982 242.753Z" fill="#371A45"/>
</svg>
