<svg width="374" height="595" viewBox="0 0 374 595" fill="none" xmlns="http://www.w3.org/2000/svg">
<path d="M248.597 139.66C248.043 142.683 245.171 144.698 242.147 144.161C242.013 144.127 231.095 142.28 217.709 144.564C200.274 147.537 186.971 155.868 178.137 169.288C157.309 200.949 151.682 229.083 161.827 250.633C172.006 272.266 181.529 300.971 164.649 331.037C163.625 332.868 161.743 333.875 159.778 333.875C158.854 333.875 157.914 333.64 157.057 333.17C154.37 331.658 153.429 328.265 154.924 325.595C168.781 300.887 161.827 277.322 152.657 257.335L152.64 257.318C152.337 256.663 152.035 256.008 151.733 255.369C143.435 237.767 139.69 207.466 168.815 163.158C179.312 147.184 195.706 136.922 216.197 133.512C231.431 130.976 243.575 133.109 244.079 133.193C247.119 133.747 249.135 136.636 248.597 139.66Z" fill="white"/>
<path d="M159.779 336.025C158.469 336.025 157.159 335.689 156.016 335.034C152.304 332.952 150.994 328.249 153.06 324.537C166.9 299.88 159.191 276.197 149.819 256.276C141.303 238.17 137.372 207.114 167.052 161.982C177.885 145.488 194.765 134.923 215.878 131.396C231.533 128.792 243.979 130.976 244.499 131.077C246.515 131.446 248.279 132.571 249.454 134.268C250.63 135.964 251.084 138.013 250.714 140.029C249.958 144.211 245.961 146.999 241.778 146.26C241.678 146.244 231.029 144.446 218.079 146.664C201.249 149.553 188.416 157.548 179.951 170.447C159.56 201.453 153.967 228.865 163.776 249.709C174.173 271.813 183.881 301.139 166.514 332.078C165.154 334.514 162.567 336.025 159.779 336.025ZM231.516 134.419C227.25 134.419 222.143 134.721 216.567 135.645C196.68 138.954 180.791 148.881 170.629 164.35C142.042 207.836 145.636 237.364 153.698 254.479C163.541 275.391 171.603 300.316 156.806 326.653C155.882 328.299 156.47 330.398 158.116 331.322C158.637 331.608 159.191 331.759 159.796 331.759C161.038 331.759 162.181 331.087 162.785 330.012C179.195 300.787 169.857 272.737 159.896 251.557C149.415 229.285 155.109 200.429 176.357 168.112C185.511 154.188 199.3 145.555 217.34 142.464C231.163 140.096 242.4 142.045 242.517 142.061C244.382 142.397 246.162 141.154 246.481 139.29C246.649 138.383 246.448 137.476 245.927 136.72C245.406 135.964 244.617 135.46 243.727 135.309C243.408 135.242 238.688 134.419 231.516 134.419Z" fill="#371B45"/>
<path d="M236.672 127.801L231.465 128.624C229.231 128.977 227.585 130.909 227.585 133.159V142.464C227.585 144.833 229.399 146.815 231.75 147.05L235.211 147.369" fill="white"/>
<path d="M235.228 149.519C235.16 149.519 235.093 149.519 235.026 149.502L231.566 149.183C228.089 148.864 225.452 145.975 225.452 142.481V133.176C225.452 129.834 227.837 127.045 231.146 126.525L236.353 125.702C237.529 125.517 238.62 126.323 238.805 127.482C238.99 128.658 238.184 129.75 237.025 129.934L231.818 130.757C230.609 130.942 229.752 131.967 229.752 133.176V142.481C229.752 143.758 230.709 144.816 231.986 144.934L235.446 145.253C236.622 145.37 237.495 146.412 237.378 147.587C237.243 148.696 236.319 149.519 235.228 149.519Z" fill="#371B45"/>
<path d="M275.404 451.349C274.43 450.895 273.657 450.039 273.372 448.796C270.013 434.301 263.412 411.239 252.041 391.352C227.602 348.639 251.335 307.891 292.049 313.686C304.378 315.433 314.422 320.505 321.342 327.829C336.862 344.188 336.862 371.801 312.356 398.608C294.922 417.672 285.448 436.87 280.628 449.3C279.754 451.601 277.252 452.222 275.404 451.349Z" fill="#FF8138"/>
<path d="M277.117 454.355C276.949 454.355 276.797 454.355 276.63 454.339C273.757 454.137 271.473 452.189 270.818 449.384C267.291 434.133 260.774 411.894 249.772 392.662C236.839 370.055 236.05 346.338 247.656 329.24C257.297 315.03 273.623 308.412 292.435 311.1C311.986 313.871 326.481 324.587 332.192 340.493C338.793 358.902 332.276 380.737 314.304 400.389C297.255 419.033 287.917 437.794 283.079 450.257C282.105 452.777 279.787 454.355 277.117 454.355ZM284.423 315.735C270.784 315.735 259.195 321.513 251.972 332.162C241.508 347.564 242.382 369.215 254.307 390.042C265.628 409.828 272.313 432.587 275.924 448.191C276.092 448.93 276.68 449.081 276.999 449.115C277.335 449.132 277.923 449.065 278.192 448.359C283.18 435.493 292.821 416.11 310.424 396.862C327.035 378.688 333.166 358.784 327.237 342.274C322.215 328.265 309.248 318.792 291.679 316.29C289.21 315.92 286.791 315.735 284.423 315.735Z" fill="#090069"/>
<path d="M290.017 331.356C310.642 333.808 319.377 355.039 301.673 376.101C294.35 384.819 289.916 393.519 287.329 400.019C286.204 402.841 282.139 402.455 281.299 399.448C279.183 391.94 275.723 381.879 270.516 373.095C257.348 350.789 268.971 328.853 290.017 331.356Z" fill="#E94E1B"/>
<path d="M288.874 336.781C298.851 337.957 303.067 348.236 294.501 358.415C290.957 362.631 288.824 366.83 287.564 369.971C287.027 371.331 285.061 371.146 284.642 369.702C283.617 366.074 281.937 361.22 279.435 356.97C273.086 346.187 278.712 335.572 288.874 336.781Z" fill="white"/>
<path d="M305.603 326.871L283.751 325.863L268.5 325.158C258.708 324.705 250.881 316.894 250.377 307.102L249.907 297.881L249.437 288.727L286.405 291.885L326.061 295.277L325.776 302.265L325.507 308.647C325.07 319.195 316.135 327.358 305.603 326.871Z" fill="white"/>
<path d="M306.51 329.408C306.174 329.408 305.821 329.408 305.485 329.391L268.399 327.661C257.263 327.14 248.445 318.356 247.874 307.236L246.933 288.861C246.9 288.139 247.169 287.434 247.706 286.93C248.227 286.426 248.949 286.174 249.671 286.224L326.296 292.792C327.64 292.909 328.648 294.051 328.597 295.395L328.043 308.765C327.808 314.543 325.322 319.85 321.056 323.764C317.025 327.409 311.902 329.408 306.51 329.408ZM252.107 291.481L252.896 306.968C253.333 315.5 260.085 322.235 268.634 322.639L305.721 324.369C310.172 324.587 314.371 323.042 317.646 320.052C320.904 317.062 322.819 312.981 323.004 308.563L323.458 297.612L252.107 291.481Z" fill="#090069"/>
<path d="M359.839 335.941C358.747 329.878 356.832 323.394 353.456 317.768C344.437 302.701 323.794 295.076 323.794 295.076L343.866 254.966C343.866 254.966 351.575 260.627 358.713 271.931C367.212 285.368 374.922 306.783 367.951 336.126C367.616 337.537 366.742 338.478 365.684 338.948C363.45 339.972 360.376 338.948 359.839 335.941Z" fill="#E94E1B"/>
<g opacity="0.6">
<path d="M365.079 339.2C367.85 307.455 359.956 282.395 351.659 265.582C350.416 263.045 349.139 260.694 347.913 258.544C350.802 261.349 354.85 265.833 358.73 271.964C367.229 285.401 374.938 306.817 367.968 336.16C367.632 337.571 366.759 338.511 365.7 338.981C365.499 339.065 365.28 339.133 365.079 339.2Z" fill="white"/>
</g>
<g opacity="0.2">
<path d="M359.839 335.941C358.747 329.878 356.832 323.394 353.456 317.768C344.437 302.701 323.794 295.076 323.794 295.076L343.866 254.966C343.866 254.966 351.575 260.627 358.713 271.931C358.294 275.693 357.202 279.019 355.522 282.159C352.23 288.24 351.861 295.496 354.968 301.66C357.034 305.758 359.167 310.831 360.628 316.491C363.198 326.468 363.786 334.161 365.701 338.948C363.45 339.972 360.376 338.948 359.839 335.941Z" fill="#090069"/>
</g>
<path d="M201.753 329.307C199.804 329.172 197.94 327.778 197.738 325.36C192.884 267.799 235.093 245.56 235.093 245.56L249.538 289.953C249.538 289.953 240.905 291.75 231.583 296.453C225.872 299.359 219.909 303.34 215.492 308.698C211.159 313.972 208.169 320.338 206.103 326.418C205.397 328.517 203.55 329.441 201.753 329.307Z" fill="#E94E1B"/>
<g opacity="0.2">
<path d="M201.753 329.307C199.804 329.172 197.94 327.778 197.738 325.36C192.884 267.799 235.093 245.56 235.093 245.56L249.538 289.953C249.538 289.953 240.905 291.75 231.583 296.453C230.609 295.294 229.635 293.967 228.677 292.472C225.486 287.417 218.331 286.862 214.4 291.364C208.538 298.099 202.173 309.84 201.753 329.307Z" fill="#090069"/>
</g>
<path d="M363.937 341.854C363.87 341.854 363.803 341.854 363.736 341.854C360.511 341.77 357.958 339.569 357.387 336.378C356.161 329.559 354.128 323.73 351.323 319.061C342.875 304.952 323.156 297.528 322.954 297.444C322.283 297.192 321.745 296.671 321.493 296.016C321.224 295.345 321.258 294.606 321.577 293.967L341.649 253.858C341.985 253.203 342.589 252.715 343.312 252.531C344.034 252.363 344.79 252.514 345.394 252.951C345.797 253.236 355.153 260.223 362.946 274.08C370.119 286.829 377.257 308.043 370.438 336.731C369.682 339.821 367.078 341.854 363.937 341.854ZM327.271 293.799C333.284 296.436 348.099 303.927 355.623 316.491C358.747 321.698 360.998 328.097 362.325 335.505C362.527 336.664 363.467 336.831 363.87 336.831C364.173 336.848 365.231 336.781 365.516 335.572C370.673 313.904 368.355 294.118 358.647 276.751C353.641 267.782 347.83 261.819 344.689 258.964L327.271 293.799Z" fill="#090069"/>
<path d="M202.122 331.944C201.819 331.944 201.517 331.927 201.215 331.893C197.855 331.49 195.42 328.954 195.134 325.578C192.565 295.009 203.18 274.282 212.535 262.273C222.714 249.222 233.43 243.494 233.883 243.259C234.572 242.906 235.378 242.856 236.084 243.142C236.806 243.427 237.344 244.015 237.595 244.754L252.04 289.147C252.275 289.852 252.191 290.625 251.822 291.263C251.452 291.901 250.814 292.355 250.092 292.506C249.874 292.556 228.425 297.142 217.541 310.36C213.929 314.744 210.923 320.421 208.622 327.241C207.614 330.147 205.078 331.944 202.122 331.944ZM233.632 249.524C229.953 251.976 223.05 257.217 216.516 265.665C203.835 282.025 198.41 302.03 200.341 325.124C200.442 326.418 201.517 326.636 201.836 326.687C202.239 326.737 203.23 326.72 203.633 325.561C206.153 318.137 209.462 311.906 213.476 307.035C223.167 295.277 239.577 289.852 246.162 288.089L233.632 249.524Z" fill="#090069"/>
<path d="M316.136 303.793L285.667 301.643L257.113 299.644C254.577 299.477 252.158 298.855 249.924 297.881C249.286 297.612 248.648 297.293 248.043 296.957C243.374 294.37 239.712 290.087 237.949 284.813C226.863 251.708 204.07 164.636 236.773 83.0559C236.773 83.0559 236.773 83.0559 236.773 83.0391C247.187 57.1056 263.194 31.7263 286.994 8.81615C297.139 -0.959308 313.65 0.938675 321.426 12.6625C331.974 28.5686 345.932 53.0409 356.262 83.6774C374.688 138.333 381.557 212.572 336.728 292.674C334.242 297.125 330.345 300.467 325.777 302.281C322.77 303.474 319.478 304.028 316.136 303.793Z" fill="white"/>
<path d="M236.756 83.0559C236.756 83.0559 236.756 83.0559 236.756 83.0391C247.17 57.1055 263.176 31.7263 286.977 8.81612C297.122 -0.959338 313.633 0.938645 321.409 12.6625C331.957 28.5686 345.915 53.0408 356.245 83.6773C356.262 83.6773 287.716 56.0138 236.756 83.0559Z" fill="#E94E1B"/>
<g opacity="0.4">
<path d="M356.261 83.6773C356.261 83.6773 352.146 82.0145 345.193 79.915C334.913 50.0175 321.258 26.0995 310.878 10.4622C308.51 6.90135 305.352 4.24753 301.791 2.5511C309.299 2.31595 316.841 5.79279 321.392 12.6625C331.957 28.5518 345.915 53.0408 356.261 83.6773Z" fill="white"/>
</g>
<g opacity="0.2">
<path d="M283.752 325.847L268.501 325.141C258.709 324.688 250.881 316.877 250.378 307.085L249.907 297.864C249.269 297.595 248.631 297.276 248.026 296.94C248.194 294.303 248.463 291.683 248.866 289.13C247.354 287.937 246.061 286.342 245.07 284.158C230.188 251.405 196.109 106.235 290.168 8.79932C294.854 3.94519 301.254 2.28235 307.216 3.22294C289.983 23.9328 277.588 46.1543 268.87 68.8462V68.863C264.436 80.3852 260.976 92.0083 258.305 103.615C257.482 107.209 261.43 109.964 264.52 107.931C267.308 106.1 270.365 104.589 273.674 103.48C294.921 96.325 317.983 108.183 324.365 129.867C330.194 149.67 319.562 170.934 300.229 178.157C287.901 182.776 274.833 180.861 264.671 174.226C258.658 170.313 252.208 174.713 250.898 181.751C247.035 202.679 249.739 228.697 253.67 250.314C255.148 258.493 263.697 263.482 271.457 260.509C281.468 256.696 288.992 258.964 288.992 258.964L286.406 291.885L285.65 301.643L283.752 325.847Z" fill="#090069"/>
</g>
<path d="M324.946 165.495C340.426 150.015 340.426 124.917 324.946 109.437C309.466 93.9567 284.368 93.9567 268.888 109.437C253.408 124.917 253.408 150.015 268.888 165.495C284.368 180.975 309.466 180.975 324.946 165.495Z" fill="#E94E1B"/>
<g opacity="0.2">
<path d="M309.585 175.016C288.842 182.003 266.351 170.867 259.364 150.124C252.377 129.38 263.513 106.89 284.273 99.9026C296.199 95.8883 308.695 97.8534 318.504 104.202C310.257 100.272 300.364 99.4659 290.824 102.674C271.861 109.073 261.447 128.994 267.578 147.167C273.708 165.358 294.049 174.915 313.012 168.516C323.073 165.123 330.732 157.934 334.78 149.217C331.152 160.924 322.115 170.8 309.585 175.016Z" fill="#090069"/>
</g>
<path d="M317.629 306.363C317.075 306.363 316.504 306.346 315.949 306.296L256.927 302.147C247.068 301.458 238.686 294.958 235.546 285.603C224.242 251.809 201.499 164.384 234.37 82.2329C234.387 82.1825 234.403 82.1321 234.42 82.0985C245.774 53.7799 262.873 28.5182 285.229 6.98535C290.587 1.82888 297.893 -0.65698 305.284 0.149243C312.725 0.972263 319.359 5.02018 323.491 11.2516C333.686 26.6202 348.047 51.5124 358.629 82.8543C369.395 114.767 374.132 147.033 372.721 178.728C370.957 218.216 359.586 256.948 338.927 293.883C334.61 301.593 326.38 306.363 317.629 306.363ZM316.302 301.274C323.743 301.794 330.898 297.931 334.526 291.431C371.428 225.489 377.945 155.851 353.859 84.4668C343.462 53.6455 329.336 29.1565 319.309 14.0398C316 9.0513 310.692 5.8096 304.73 5.15454C298.817 4.49949 292.989 6.49825 288.706 10.6133C266.904 31.6088 250.225 56.249 239.123 83.8453C239.106 83.8957 239.09 83.9461 239.073 83.9965C206.74 164.619 229.163 250.734 240.299 284.024C242.785 291.448 249.436 296.604 257.263 297.142L316.302 301.274Z" fill="#090069"/>
<path d="M356.245 86.1968C355.926 86.1968 355.607 86.1296 355.305 86.012C354.633 85.7433 287.246 59.1211 237.932 85.273C237.26 85.6257 236.471 85.6593 235.782 85.3738C235.094 85.0882 234.556 84.5004 234.338 83.7781C234.17 83.2239 234.203 82.636 234.422 82.0985C245.776 53.7799 262.875 28.5182 285.231 6.98535C290.589 1.82888 297.895 -0.65698 305.285 0.149243C312.726 0.972263 319.361 5.02018 323.493 11.2516C333.688 26.6202 348.049 51.5124 358.63 82.8543C358.95 83.7781 358.681 84.8195 357.975 85.4914C357.505 85.9449 356.884 86.1968 356.245 86.1968ZM289.782 68.7118C299.323 68.7118 308.275 69.5684 315.985 70.7442C332.227 73.1796 345.328 77.1772 352.13 79.4951C341.935 50.9917 328.783 28.3335 319.31 14.0398C316.001 9.0513 310.694 5.8096 304.731 5.15454C298.819 4.49949 292.99 6.49825 288.707 10.6133C268.485 30.0971 252.662 52.7049 241.627 77.8994C257.399 70.9793 274.363 68.7118 289.782 68.7118Z" fill="#090069"/>
<path d="M296.886 179.635C290.47 179.635 284.104 178.157 278.209 175.234C268.114 170.229 260.589 161.595 256.995 150.93C249.571 128.91 261.446 104.941 283.483 97.5175C305.503 90.0935 329.471 101.969 336.895 124.005C344.319 146.042 332.444 169.994 310.407 177.418C305.973 178.896 301.421 179.635 296.886 179.635ZM296.903 100.339C292.973 100.339 288.992 100.961 285.078 102.288C265.679 108.821 255.215 129.934 261.765 149.317C264.94 158.707 271.574 166.315 280.459 170.716C289.345 175.117 299.406 175.805 308.812 172.631C328.211 166.097 338.676 144.984 332.125 125.601C326.885 110.115 312.389 100.339 296.903 100.339Z" fill="#090069"/>
<path d="M314.506 155.055C324.221 145.341 324.221 129.591 314.506 119.876C304.792 110.162 289.042 110.162 279.328 119.876C269.613 129.591 269.613 145.341 279.328 155.055C289.042 164.769 304.792 164.769 314.506 155.055Z" fill="#FD7D53"/>
<g opacity="0.2">
<path d="M291.344 161.713C292.217 161.528 293.074 161.276 293.93 160.991C306.964 156.607 313.952 142.481 309.568 129.464C306.696 120.965 299.708 115.036 291.579 113.155C303.823 110.434 316.404 117.337 320.502 129.515C324.886 142.532 317.899 156.641 304.882 161.024C300.347 162.553 295.677 162.704 291.344 161.713Z" fill="#090069"/>
</g>
<path d="M296.953 164.854C285.515 164.854 274.816 157.632 270.969 146.21C266.149 131.9 273.858 116.329 288.186 111.492C302.496 106.672 318.066 114.381 322.904 128.708C327.724 143.019 320.015 158.589 305.687 163.426C302.782 164.4 299.842 164.854 296.953 164.854ZM296.903 115.086C294.535 115.086 292.133 115.456 289.781 116.262C278.091 120.209 271.792 132.907 275.739 144.598C279.687 156.288 292.401 162.586 304.075 158.639C315.765 154.692 322.064 141.994 318.133 130.304C314.976 120.982 306.242 115.086 296.903 115.086Z" fill="#090069"/>
<path d="M296.836 265.094C302.362 280.413 306.561 307.22 286.792 337.436C284.692 340.644 279.788 340.023 278.545 336.395C273.624 321.95 266.233 290.894 281.384 263.902C284.944 257.519 294.35 258.225 296.836 265.094Z" fill="#E94E1B"/>
<g opacity="0.6">
<path d="M278.545 336.378C278.36 335.824 278.175 335.269 277.974 334.665C279.653 334.95 281.501 334.312 282.593 332.649C302.328 302.483 298.196 275.71 292.67 260.391C294.501 261.298 296.046 262.86 296.853 265.094C302.379 280.396 306.578 307.203 286.792 337.436C284.675 340.644 279.771 340.006 278.545 336.378Z" fill="white"/>
</g>
<g opacity="0.2">
<path d="M284.34 339.284C282.089 339.989 279.418 338.931 278.545 336.378C273.624 321.933 266.233 290.86 281.384 263.885C284.961 257.519 294.367 258.208 296.853 265.078C297.542 266.976 298.213 269.058 298.801 271.309C295.173 260.089 288.253 261.853 286.506 269.764C280.51 296.923 282.442 321.379 284.34 339.284Z" fill="#090069"/>
</g>
<path d="M282.946 342.122C282.644 342.122 282.325 342.105 282.022 342.072C279.251 341.719 276.967 339.872 276.06 337.235C270.584 321.144 263.681 290.054 279.083 262.625C281.25 258.745 285.365 256.579 289.782 256.931C294.149 257.301 297.794 260.072 299.289 264.204C304.412 278.38 309.871 306.917 288.959 338.864C287.632 340.93 285.365 342.122 282.946 342.122ZM288.825 262.121C286.658 262.121 284.743 263.23 283.652 265.178C269.24 290.843 275.808 320.287 281.015 335.538C281.384 336.596 282.291 336.831 282.677 336.882C283.047 336.932 283.988 336.932 284.592 336.008C303.27 307.455 300.213 282.176 294.368 265.985C293.561 263.784 291.697 262.34 289.346 262.155C289.178 262.121 289.01 262.121 288.825 262.121Z" fill="#090069"/>
<path d="M293.382 133.638C297.593 132.219 300.187 128.639 299.177 125.641C298.166 122.644 293.934 121.364 289.723 122.783C285.513 124.203 282.919 127.783 283.929 130.781C284.939 133.778 289.172 135.057 293.382 133.638Z" fill="white"/>
<g opacity="0.3">
<path d="M164.649 331.037C163.624 332.868 161.743 333.875 159.778 333.875C158.854 333.875 157.914 333.64 157.057 333.17C154.369 331.658 153.429 328.265 154.924 325.595C168.781 300.887 161.827 277.322 152.656 257.335C159.24 263.381 161.827 250.633 161.827 250.633C172.006 272.283 181.529 300.971 164.649 331.037Z" fill="#371B45"/>
</g>
<path d="M104.485 387.052L188.416 406.704C192.867 407.746 195.689 412.129 194.799 416.631L179.195 494.834C178.338 499.168 174.29 502.107 169.89 501.603L61.436 489.157C56.8842 485.445 54.9526 479.399 56.5314 473.738L73.2774 413.725" fill="white"/>
<path d="M170.864 503.804C170.461 503.804 170.074 503.787 169.671 503.737L61.2173 491.291C60.8142 491.24 60.4279 491.089 60.1088 490.82C54.8851 486.571 52.6848 479.651 54.4988 473.167L71.2447 413.154C71.5639 412.012 72.7396 411.357 73.8818 411.659C75.0239 411.978 75.679 413.154 75.3766 414.296L58.6307 474.309C57.3374 478.945 58.7987 483.9 62.3595 487.091L170.158 499.47C173.417 499.857 176.474 497.623 177.112 494.398L192.716 416.194C193.388 412.818 191.288 409.56 187.946 408.77L104.014 389.119C102.855 388.85 102.15 387.691 102.419 386.549C102.687 385.407 103.846 384.684 104.989 384.953L188.92 404.605C194.53 405.915 198.04 411.374 196.915 417.034L181.311 495.238C180.32 500.243 175.852 503.804 170.864 503.804Z" fill="#371B45"/>
<path d="M248.009 461.007C248.009 461.007 249.319 461.847 250.159 463.241C251.301 465.088 251.687 467.893 247.371 471.068C245.473 472.462 243.407 473.554 241.374 474.427C235.832 476.778 229.768 477.635 223.755 477.215C214.181 476.527 194.597 474.225 180.437 466.667C179.06 465.945 177.75 465.172 176.507 464.332C176.507 464.332 176.289 481.885 171.367 503.081C166.446 524.278 175.214 539.059 175.214 539.059C175.214 539.059 183.142 541.915 183.713 555.906C183.847 559.4 182.89 563.414 181.176 567.445C176.003 579.606 164.095 592.119 155.31 592.001C143.603 591.867 140.613 584.292 137.758 579.152C134.903 574.012 129.041 548.045 125.345 541.192C125.345 541.192 125.228 541.562 124.993 542.217C123.968 545.123 120.76 553.706 116.007 561.465C116.007 561.465 116.007 561.466 115.99 561.482C112.261 567.563 107.558 573.122 102.217 575.037C88.5111 579.891 79.945 568.755 79.945 563.75C79.945 558.761 81.9438 550.901 81.9438 550.901C81.9438 550.901 56.2454 535.918 53.8267 518.349C53.306 514.621 53.642 510.707 54.4986 506.844C57.6395 492.567 67.8181 479.096 67.8181 479.096C67.8181 479.096 69.7496 452.273 76.4178 435.997C76.4178 435.997 76.233 435.98 75.8971 435.963C75.6787 435.947 75.41 435.913 75.0741 435.879C75.0405 435.879 75.0069 435.863 74.9901 435.863C70.136 435.292 53.8435 432.235 40.4905 415.959C38.9452 414.078 37.4335 412.012 35.989 409.744C32.0083 403.53 28.4643 396.794 25.5921 390.025C25.5921 390.009 25.5753 389.992 25.5753 389.992C22.5352 382.853 20.2341 375.665 18.924 368.996C16.4045 356.114 17.5635 345.129 24.2652 340.073C25.2226 339.351 26.1464 338.797 27.0534 338.377C39.0124 332.834 46.957 351.511 46.957 351.511C46.957 351.511 51.7776 341.753 55.8423 344.86C59.907 347.967 56.2622 360.162 53.0541 363.588C53.0541 363.588 59.0504 377.294 66.0041 384.248C72.9745 391.218 99.5127 392.276 99.5127 392.276L175.566 409.761C175.566 409.761 195.504 424.29 203.868 432.218C212.233 440.146 229.785 445.705 229.785 445.705C229.785 445.705 250.243 438.533 254.089 447.519C257.969 456.505 248.009 461.007 248.009 461.007Z" fill="white"/>
<path d="M155.412 594.134C155.361 594.134 155.328 594.134 155.277 594.134C143.285 593.983 139.254 586.475 136.583 581.504C136.348 581.05 136.113 580.613 135.878 580.193C134.416 577.556 132.468 570.72 130.2 562.809C128.638 557.367 126.942 551.421 125.447 547.088C121.937 555.94 113.841 573.173 102.923 577.036C96.4398 579.337 90.0404 578.598 84.8839 574.953C80.7184 572.014 77.7959 567.395 77.7959 563.733C77.7959 559.853 78.9044 554.512 79.4923 551.908C73.9663 548.448 53.9283 534.81 51.6944 518.635C49.3597 501.721 63.1663 481.834 65.7193 478.307C66.0384 474.309 67.9532 452.995 73.412 437.811C66.2736 436.753 47.6801 431.999 34.1758 410.887C17.3795 384.634 8.32627 349.429 22.9895 338.343C26.7854 335.471 30.6654 334.547 34.5453 335.572C40.508 337.167 44.8415 343.13 47.1258 347.077C48.5703 345.028 50.6362 342.761 53.0213 342.206C54.4994 341.854 55.9438 342.173 57.17 343.113C58.6816 344.272 59.5551 346.137 59.7734 348.69C60.1933 353.678 58.0098 360.363 55.5911 363.84C57.17 367.233 62.1249 377.243 67.5669 382.685C72.7906 387.909 92.4926 389.807 99.6479 390.093C99.7822 390.093 99.9166 390.109 100.034 390.143L176.088 407.628C176.373 407.695 176.642 407.813 176.877 407.981C177.7 408.585 197.016 422.678 205.398 430.605C212.418 437.257 226.628 442.312 229.836 443.387C234.086 441.993 251.907 436.803 256.106 446.629C259.079 453.566 255.283 458.672 251.537 461.376C252.326 462.418 253.032 463.812 253.082 465.491C253.166 468.095 251.671 470.547 248.648 472.747C246.784 474.108 244.617 475.317 242.215 476.342C236.572 478.744 230.139 479.751 223.605 479.281C212.586 478.492 192.783 475.972 178.507 467.994C178.187 474.276 177.096 487.83 173.451 503.501C169.302 521.339 175.332 534.558 176.777 537.346C179.078 538.555 185.343 543.04 185.863 555.738C186.267 565.547 178.927 577.758 171.939 584.947C166.195 590.909 160.333 594.134 155.412 594.134ZM125.329 539.042C126.102 539.042 126.841 539.462 127.211 540.168C129.293 543.997 131.846 552.967 134.315 561.633C136.314 568.654 138.397 575.91 139.623 578.128C139.875 578.564 140.11 579.018 140.362 579.488C142.949 584.309 145.871 589.751 155.328 589.868C159.023 589.885 163.961 587.063 168.849 582.041C176.508 574.164 181.866 563.196 181.564 555.99C181.06 543.796 174.727 541.176 174.459 541.058C174.022 540.89 173.619 540.554 173.367 540.151C172.997 539.513 164.213 524.379 169.269 502.611C174.072 481.901 174.341 464.484 174.358 464.316C174.375 463.526 174.811 462.821 175.5 462.451C176.189 462.082 177.029 462.132 177.684 462.552C191.725 471.857 214.686 474.41 223.907 475.082C229.769 475.502 235.513 474.595 240.535 472.462C242.635 471.572 244.499 470.53 246.112 469.355C247.355 468.448 248.816 467.07 248.782 465.693C248.749 464.131 246.851 462.821 246.834 462.804C246.179 462.367 245.81 461.611 245.877 460.839C245.944 460.066 246.414 459.377 247.12 459.058C247.926 458.689 255.047 455.178 252.142 448.359C249.639 442.514 235.329 446.024 230.525 447.721C230.088 447.872 229.618 447.889 229.164 447.738C228.425 447.503 211.041 441.926 202.408 433.763C194.833 426.591 177.364 413.725 174.66 411.743L99.228 394.409C95.6168 394.258 71.682 392.948 64.4932 385.759C57.3379 378.604 51.3417 365.016 51.0897 364.445C50.7538 363.655 50.905 362.748 51.4928 362.127C53.3236 360.162 55.8431 353.544 55.4736 349.093C55.3728 347.833 55.0368 346.943 54.5498 346.573C54.3146 346.389 54.1634 346.372 53.9787 346.422C52.4334 346.792 50.0316 350.168 48.8894 352.469C48.5199 353.225 47.7472 353.661 46.9074 353.661C46.0676 353.645 45.3286 353.124 44.9926 352.351C44.9423 352.251 40.3065 341.568 33.42 339.737C30.8501 339.049 28.2803 339.721 25.5593 341.786C13.2476 351.092 21.9481 383.861 37.7702 408.602C53.1893 432.722 76.2506 433.847 76.469 433.847C77.1744 433.881 77.8127 434.233 78.199 434.821C78.5853 435.409 78.6525 436.148 78.3837 436.786C71.9172 452.558 69.952 478.962 69.9352 479.231C69.9016 479.651 69.7504 480.037 69.5153 480.373C69.3641 480.591 53.6596 501.587 55.9439 518.047C58.1946 534.356 82.7676 548.885 83.0195 549.036C83.8425 549.523 84.2457 550.481 84.0105 551.421C83.9937 551.505 82.0789 559.08 82.0789 563.733C82.0789 565.345 83.7586 568.906 87.353 571.443C90.1748 573.441 94.9113 575.323 101.495 572.988C114.042 568.537 123.213 540.789 123.297 540.521C123.566 539.714 124.288 539.126 125.145 539.042C125.195 539.042 125.262 539.042 125.329 539.042Z" fill="#371B45"/>
<path d="M150.456 593.58C150.238 593.58 150.003 593.546 149.785 593.479C145.753 592.152 143.133 589.331 142.193 585.333C139.673 574.617 149.902 557.434 158.267 549.154C161.458 545.996 165.271 543.897 169.302 543.107C173.854 542.2 178.002 542.939 180.975 545.139C183.73 547.189 185.393 550.43 185.779 554.512C185.897 555.688 185.023 556.729 183.847 556.846C182.672 556.964 181.63 556.091 181.513 554.915C181.244 552.043 180.203 549.91 178.405 548.583C176.424 547.105 173.467 546.651 170.125 547.306C166.934 547.944 163.86 549.624 161.273 552.194C152.674 560.71 144.46 576.28 146.358 584.342C146.963 586.878 148.508 588.541 151.128 589.398C152.254 589.767 152.858 590.977 152.489 592.102C152.186 593.009 151.347 593.58 150.456 593.58Z" fill="#371B45"/>
<path d="M182.671 561.415C182.369 561.415 182.066 561.348 181.781 561.214L161.911 552.009C160.836 551.505 160.365 550.246 160.869 549.171C161.373 548.096 162.633 547.625 163.708 548.129L183.578 557.334C184.653 557.838 185.123 559.097 184.619 560.172C184.25 560.962 183.477 561.415 182.671 561.415Z" fill="#371B45"/>
<path d="M177.683 572.014C177.363 572.014 177.044 571.946 176.742 571.795L154.151 560.659C153.093 560.139 152.656 558.845 153.177 557.787C153.697 556.729 154.991 556.292 156.049 556.813L178.64 567.949C179.698 568.47 180.135 569.763 179.614 570.821C179.228 571.577 178.472 572.014 177.683 572.014Z" fill="#371B45"/>
<path d="M170.394 582.83C170.024 582.83 169.655 582.73 169.302 582.528L148.105 569.981C147.081 569.377 146.745 568.067 147.349 567.042C147.954 566.017 149.264 565.681 150.289 566.286L171.486 578.833C172.51 579.438 172.846 580.748 172.241 581.772C171.838 582.444 171.133 582.83 170.394 582.83Z" fill="#371B45"/>
<path d="M161.828 591.397C161.424 591.397 161.005 591.279 160.652 591.044C155.243 587.466 146.392 581.638 145.166 580.949C144.393 580.63 143.855 579.858 143.855 578.967C143.855 577.792 144.813 576.834 145.989 576.834C146.845 576.834 146.946 576.834 163.02 587.466C164.011 588.121 164.28 589.448 163.625 590.439C163.205 591.061 162.533 591.397 161.828 591.397Z" fill="#371B45"/>
<path d="M174.257 540.957C168.009 538.371 160.954 540.504 155.546 544.451C149.667 548.7 145.199 554.797 142.159 561.466C143.973 554.042 147.752 547.138 153.446 541.881C159.291 536.372 168.63 532.777 176.155 537.128C178.456 538.505 176.726 541.965 174.257 540.957Z" fill="#371B45"/>
<path d="M129.511 554.932C129.125 554.932 128.722 554.831 128.369 554.596C127.361 553.974 127.059 552.647 127.697 551.64C127.865 551.354 145.417 524.01 171.267 535.65C172.342 536.137 172.829 537.396 172.342 538.488C171.854 539.563 170.595 540.05 169.503 539.563C147.08 529.469 131.946 552.933 131.308 553.941C130.922 554.579 130.233 554.932 129.511 554.932Z" fill="#371B45"/>
<path d="M91.2822 504.795C96.8418 509.195 103.896 510.724 110.682 512.051C111.656 512.202 114.176 512.555 115.116 512.706C116.074 512.773 118.61 513.075 119.601 513.193C125.715 513.764 131.829 513.932 137.959 514.637C135.96 515.276 133.928 515.729 131.879 516.199C124.657 517.543 117.115 517.627 109.909 516.199C104.686 515.041 99.5292 513.143 95.3469 509.716C93.7681 508.322 92.122 506.726 91.2822 504.795Z" fill="#371B45"/>
<path d="M125.328 543.326C124.589 543.326 123.867 542.939 123.464 542.234C115.335 527.923 106.432 515.007 106.348 514.873C105.677 513.898 105.929 512.571 106.903 511.9C107.877 511.228 109.204 511.48 109.876 512.454C109.96 512.588 118.963 525.656 127.193 540.134C127.781 541.159 127.411 542.469 126.386 543.057C126.051 543.242 125.698 543.326 125.328 543.326Z" fill="#371B45"/>
<path d="M68.7756 543.325C67.6167 543.325 66.6593 542.402 66.6425 541.243C66.6089 540.067 67.5495 539.076 68.7252 539.042C96.288 538.371 107.222 514.738 107.34 514.503C107.827 513.428 109.087 512.941 110.179 513.428C111.253 513.915 111.741 515.175 111.254 516.267C111.136 516.535 99.0594 542.586 68.8428 543.325C68.8092 543.325 68.7924 543.325 68.7756 543.325Z" fill="#371B45"/>
<path d="M110.263 517.879C102.15 523.875 92.3579 527.974 82.2129 528.276C84.6484 527.806 87.0334 527.268 89.3177 526.361C96.0531 523.842 102.285 519.76 107.357 514.721C109.524 512.555 112.614 515.914 110.263 517.879Z" fill="#371B45"/>
<path d="M82.5324 548.835C88.5118 551.035 95.6503 551.018 101.21 547.609C97.3971 551.237 92.0727 552.983 86.849 553.219C84.9678 553.286 83.2882 553.269 81.3566 552.95C78.2661 552.278 79.5426 547.777 82.5324 548.835Z" fill="#371B45"/>
<path d="M248.329 463.123L238.939 462.401L247.674 458.89C251.117 457.782 251.94 463.14 248.329 463.123Z" fill="#371B45"/>
<path d="M195.135 473.671C194.379 473.671 193.657 473.268 193.271 472.579C192.7 471.555 193.069 470.245 194.094 469.674C210.705 460.385 207.665 437.156 207.631 436.921C207.463 435.745 208.286 434.67 209.445 434.502C210.604 434.334 211.696 435.157 211.864 436.316C212.015 437.391 215.358 462.67 196.176 473.402C195.84 473.587 195.488 473.671 195.135 473.671Z" fill="#371B45"/>
<path d="M174.358 464.316L176.491 442.413L178.624 464.316C178.809 467.44 174.19 467.44 174.358 464.316Z" fill="#371B45"/>
<path d="M74.4364 435.157C77.8628 429.06 81.9107 423.366 86.5129 418.143C83.1537 424.072 80.4326 430.37 78.3835 436.82C77.3253 439.793 73.0423 437.979 74.4364 435.157Z" fill="#371B45"/>
<path d="M33.9238 403.916C32.8488 403.916 31.7739 403.815 30.7157 403.614C29.5567 403.379 28.8009 402.253 29.0361 401.094C29.2712 399.935 30.3966 399.179 31.5555 399.415C44.9422 402.068 62.7295 381.443 62.8974 381.224C63.6701 380.334 65.0138 380.216 65.9208 380.989C66.8278 381.762 66.9286 383.105 66.1559 384.012C65.4001 384.869 48.9733 403.916 33.9238 403.916Z" fill="#371B45"/>
<path d="M49.0072 352.167L47.3948 357.172C47.0924 358.112 46.2022 358.7 45.2616 358.65C44.7409 358.549 44.0523 358.448 43.414 358.398C38.9126 358.012 33.9409 359.12 31.1191 362.95C31.6734 361.69 32.3957 360.447 33.4202 359.423C36.5779 356.231 41.0794 354.736 45.5136 354.384L43.3301 355.862L44.9425 350.856C45.8495 348.186 49.7966 349.446 49.0072 352.167Z" fill="#371B45"/>
<path d="M176.171 473.234C175.97 473.234 175.751 473.201 175.533 473.134L157.628 467.591C156.503 467.238 155.865 466.046 156.217 464.92C156.57 463.795 157.763 463.157 158.888 463.509L176.793 469.052C177.918 469.405 178.556 470.597 178.204 471.723C177.935 472.647 177.078 473.234 176.171 473.234Z" fill="#371B45"/>
<path d="M173.602 488.301C173.384 488.301 173.149 488.267 172.931 488.2L154.085 481.985C152.96 481.616 152.355 480.407 152.725 479.281C153.094 478.156 154.304 477.551 155.429 477.921L174.274 484.135C175.4 484.505 176.004 485.714 175.635 486.839C175.349 487.73 174.509 488.301 173.602 488.301Z" fill="#371B45"/>
<path d="M95.1972 452.592C94.9621 452.592 94.7101 452.558 94.475 452.474L73.8659 445.151C72.7573 444.748 72.1695 443.539 72.5726 442.413C72.9757 441.305 74.185 440.717 75.3104 441.12L95.9195 448.443C97.028 448.846 97.6159 450.055 97.2128 451.181C96.9104 452.054 96.0706 452.592 95.1972 452.592Z" fill="#371B45"/>
<path d="M90.5945 467.692C90.3761 467.692 90.1578 467.658 89.9394 467.591L69.6998 461.057C68.5745 460.688 67.953 459.495 68.3226 458.37C68.6921 457.244 69.9014 456.623 71.01 456.992L91.2495 463.526C92.3749 463.896 92.9963 465.088 92.6268 466.214C92.3413 467.104 91.5015 467.692 90.5945 467.692Z" fill="#371B45"/>
<path d="M95.4819 452.827L92.3578 462.283C86.6134 459.26 77.2411 460.15 69.7163 462.905C61.7381 465.811 53.9782 470.413 48.9897 473.369C47.0245 474.528 45.4457 475.452 44.1859 476.107C40.8267 477.853 35.9221 479.08 30.5137 479.08C27.1041 479.08 23.5096 478.592 19.9824 477.417C12.928 475.065 7.56994 470.413 4.44582 463.946C1.72482 458.336 1.40569 452.357 3.47164 446.831L3.48843 446.797C3.80756 445.924 4.19387 445.067 4.63058 444.227C8.77927 436.333 17.7821 430.169 29.2876 427.145C31.2863 426.625 33.3523 426.188 35.4854 425.869C41.045 425.012 44.7738 423.954 47.2429 422.98C49.8295 425.348 53.0376 427.548 56.5984 429.631C53.1719 431.966 47.6124 434.233 38.6431 435.762C38.1225 435.846 37.6018 435.93 37.0643 436.014C25.9787 437.727 17.0431 442.699 13.7342 448.997C11.9706 452.34 11.9706 455.867 13.7006 459.478C15.6154 463.442 18.8235 466.197 23.2409 467.658C29.1364 469.623 36.0061 468.767 39.4661 466.969C40.4739 466.449 41.9856 465.542 43.7492 464.5C50.7029 460.385 61.0662 454.255 71.8159 451.416C73.9154 450.862 76.0485 450.425 78.1649 450.173C84.178 449.4 90.1238 449.988 95.4819 452.827Z" fill="white"/>
<path d="M30.5305 481.213C26.6338 481.213 22.8546 480.625 19.3274 479.449C11.7186 476.913 5.90709 471.874 2.53103 464.87C-0.912213 457.731 -0.84503 450.039 2.74938 443.219C7.92265 433.36 20.0496 426.07 35.1663 423.736C39.8021 423.013 43.6148 422.09 46.4702 420.964C47.226 420.662 48.0827 420.83 48.6873 421.384C50.9884 423.484 53.9278 425.566 57.6734 427.767C58.3116 428.136 58.6979 428.808 58.7315 429.547C58.7483 430.286 58.4124 430.975 57.7909 431.395C53.2895 434.468 46.4198 436.736 37.3834 438.13C26.9697 439.743 18.6219 444.294 15.6154 450.005C14.1709 452.743 14.1709 455.548 15.6154 458.554C17.2782 461.981 20.0664 464.366 23.896 465.642C29.0356 467.356 35.3511 466.701 38.4752 465.088C39.4662 464.568 41.0954 463.61 42.6574 462.686C49.6951 458.521 60.26 452.289 71.2784 449.367C81.1042 446.763 89.5696 447.301 96.4729 450.946C97.3967 451.433 97.8334 452.525 97.4974 453.516L94.3733 462.972C94.1718 463.577 93.7183 464.047 93.1472 464.282C92.5593 464.517 91.9043 464.484 91.35 464.198C86.7142 461.746 78.316 462.048 70.4553 464.92C62.729 467.742 55.2043 472.193 50.199 475.132L50.0646 475.216C48.1498 476.342 46.5038 477.333 45.1601 478.021C41.2466 480.037 35.9053 481.213 30.5305 481.213ZM46.7725 425.398C43.7996 426.423 40.1212 427.28 35.8046 427.952C22.0148 430.085 11.0804 436.534 6.52856 445.201C3.5892 450.795 3.53882 457.11 6.37739 463.005C9.24957 468.935 14.1877 473.218 20.6711 475.384C23.7616 476.409 27.0873 476.93 30.5305 476.93C35.2503 476.93 39.8693 475.939 43.2117 474.192C44.4379 473.554 46.0503 472.613 47.8979 471.504L48.0323 471.42C53.1551 468.397 60.8983 463.828 68.9941 460.872C75.1583 458.605 84.2283 457.06 91.0644 459.394L92.8616 453.935C87.2181 451.534 80.3484 451.382 72.3869 453.482C61.9396 456.237 51.6771 462.3 44.8914 466.314C42.9094 467.49 41.4649 468.33 40.4571 468.867C36.4932 470.917 29.086 471.857 22.569 469.69C17.5973 468.044 13.9525 464.92 11.7858 460.402C9.77025 456.203 9.78705 451.92 11.8362 448.006C15.4642 441.12 25.0045 435.711 36.7283 433.897C43.2621 432.89 48.5194 431.428 52.3993 429.564C50.2494 428.153 48.385 426.776 46.7725 425.398Z" fill="#371B45"/>
<path d="M96.691 445.571L90.4428 466.062C88.9479 470.984 91.249 476.258 95.868 478.475C104.451 482.607 119.752 488.805 140.445 492.718C145.518 493.676 150.523 490.753 152.203 485.865C154.47 479.298 157.46 469.875 159.19 461.527C160.198 456.707 157.628 451.802 153.076 449.904C140.026 444.479 125.026 441.523 108.633 438.382C103.376 437.374 98.2363 440.482 96.691 445.571Z" fill="white"/>
<path d="M142.327 495.036C141.571 495.036 140.798 494.969 140.042 494.818C119.484 490.938 104.165 484.841 94.9443 480.406C89.3175 477.702 86.5629 471.404 88.3937 465.441L94.642 444.949C96.5232 438.802 102.687 435.073 109.02 436.283C124.388 439.222 140.278 442.262 153.883 447.922C159.375 450.207 162.482 456.119 161.273 461.964C159.509 470.463 156.452 480.037 154.202 486.554C152.455 491.677 147.567 495.036 142.327 495.036ZM106.635 440.33C103.057 440.33 99.8152 442.648 98.7403 446.192L92.4921 466.684C91.2827 470.614 93.0967 474.763 96.8087 476.543C105.812 480.86 120.743 486.823 140.849 490.619C144.846 491.374 148.844 489.04 150.171 485.177C152.371 478.76 155.377 469.388 157.091 461.107C157.88 457.261 155.848 453.398 152.253 451.903C139.051 446.411 123.38 443.404 108.23 440.515C107.676 440.381 107.155 440.33 106.635 440.33Z" fill="#371B45"/>
<path d="M120.122 489.896C119.904 489.896 119.685 489.863 119.467 489.796C118.342 489.426 117.72 488.234 118.09 487.108L122.759 472.613C123.263 471.034 122.826 469.271 121.634 468.112L115.503 462.216C113.219 460.016 112.312 456.74 113.168 453.684L116.964 439.86C117.283 438.718 118.459 438.046 119.601 438.365C120.744 438.684 121.415 439.86 121.096 441.002L117.3 454.826C116.88 456.371 117.334 458.034 118.493 459.142L124.623 465.038C126.992 467.322 127.865 470.816 126.857 473.94L122.188 488.435C121.869 489.325 121.029 489.896 120.122 489.896Z" fill="#371B45"/>
<path d="M143.233 468.968C147 468.968 150.053 465.915 150.053 462.149C150.053 458.383 147 455.33 143.233 455.33C139.467 455.33 136.414 458.383 136.414 462.149C136.414 465.915 139.467 468.968 143.233 468.968Z" fill="#0096F0"/>
<path d="M143.234 470.665C138.548 470.665 134.735 466.852 134.735 462.166C134.735 457.479 138.548 453.667 143.234 453.667C147.92 453.667 151.733 457.479 151.733 462.166C151.733 466.835 147.92 470.665 143.234 470.665ZM143.234 457.009C140.396 457.009 138.095 459.31 138.095 462.149C138.095 464.987 140.396 467.289 143.234 467.289C146.073 467.289 148.374 464.987 148.374 462.149C148.374 459.31 146.073 457.009 143.234 457.009Z" fill="#371B45"/>
<g opacity="0.25">
<path d="M95.4824 402.858C114.194 439.457 176.172 445.705 186.77 418.143L177.281 413.725" fill="#371B45"/>
</g>
<path d="M144.528 421.3C185.632 421.3 218.953 387.979 218.953 346.876C218.953 305.772 185.632 272.451 144.528 272.451C103.424 272.451 70.1035 305.772 70.1035 346.876C70.1035 387.979 103.424 421.3 144.528 421.3Z" fill="white"/>
<g opacity="0.25">
<path d="M218.969 346.876C218.969 387.976 185.645 421.3 144.544 421.3C122.524 421.3 102.722 411.726 89.083 396.509C100.085 402.942 112.9 406.62 126.572 406.62C167.673 406.62 200.997 373.296 200.997 332.196C200.997 313.132 193.825 295.731 182.051 282.579C204.121 295.479 218.969 319.447 218.969 346.876Z" fill="#371B45"/>
</g>
<path d="M227.35 359.691C227.367 362.799 227.165 366.847 226.393 371.18C225.519 376.135 223.89 381.476 220.968 386.246C218.196 390.764 212.838 393.032 207.648 391.974L202.374 390.882L209.227 372.675L218.952 346.859L222.815 350.101C225.654 352.486 227.333 355.979 227.35 359.691Z" fill="white"/>
<path d="M214.819 371.415C216.969 283.822 117.905 274.114 83.5561 319.347L73.3271 339.502L77.1567 350.101C92.223 403.446 164.733 425.986 207.513 386.549" fill="#371B45"/>
<path d="M214.819 371.415L207.53 386.549C164.733 426.003 92.223 403.446 77.1735 350.101L73.3271 339.502L80.0625 326.25C87.0665 360.094 117.031 385.524 152.942 385.524C178.103 385.524 200.341 373.044 213.812 353.93C214.618 359.372 214.971 365.201 214.819 371.415Z" fill="#121A27"/>
<path d="M155.53 407.359C147.871 407.359 140.077 406.284 132.351 404.101C104.586 396.257 83.6415 376.152 76.3519 350.319L72.5391 339.771C72.4551 339.553 72.4719 339.317 72.5727 339.099L82.8017 318.943C82.8185 318.893 82.8521 318.859 82.8856 318.809C100.824 295.21 137.675 285.603 168.614 296.453C199.419 307.253 216.568 334.581 215.661 371.415C215.644 371.885 215.257 372.238 214.804 372.238C214.334 372.221 213.981 371.835 213.981 371.382C214.871 335.32 198.125 308.58 168.06 298.049C137.793 287.45 101.782 296.789 84.263 319.783L74.2355 339.553L77.9475 349.815C85.1028 375.127 105.594 394.812 132.804 402.488C159.729 410.097 187.46 403.899 206.96 385.927C207.296 385.608 207.833 385.642 208.153 385.978C208.472 386.314 208.438 386.851 208.102 387.17C193.758 400.372 175.097 407.359 155.53 407.359Z" fill="#371B45"/>
<path d="M144.528 423.45C102.302 423.45 67.9531 389.102 67.9531 346.876C67.9531 304.65 102.302 270.301 144.528 270.301C186.753 270.301 221.102 304.65 221.102 346.876C221.102 389.102 186.753 423.45 144.528 423.45ZM144.528 274.584C104.67 274.584 72.2362 307.018 72.2362 346.876C72.2362 386.733 104.67 419.167 144.528 419.167C184.385 419.167 216.819 386.733 216.819 346.876C216.819 307.018 184.402 274.584 144.528 274.584Z" fill="#371B45"/>
<path d="M83.7087 321.144C83.7087 322.387 83.6415 323.663 83.5575 324.973V324.99C82.5665 338.562 76.923 355.207 71.397 356.718C68.7768 357.424 66.4757 357.071 64.6449 356.349C61.6383 355.156 59.4884 352.469 58.8165 349.294C57.4056 342.66 57.9263 336.412 59.2532 331.02C60.9161 324.268 63.8554 318.859 65.8542 315.719C67.7018 312.813 70.9099 310.965 74.3363 311.1C74.6219 311.116 74.9242 311.133 75.2097 311.167C80.1479 311.738 83.7255 316.155 83.7087 321.144Z" fill="white"/>
<path d="M68.5418 359.255C66.9629 359.255 65.384 358.952 63.8388 358.331C60.2108 356.886 57.5402 353.678 56.7003 349.748C53.4083 334.329 59.8748 321.093 64.0235 314.56C66.3246 310.948 70.3054 308.782 74.3869 308.95C74.7396 308.966 75.0923 308.983 75.4282 309.034C81.3909 309.739 85.8587 314.946 85.8252 321.161C85.7748 334.497 79.7785 356.651 71.9346 358.801C70.8092 359.103 69.6671 359.255 68.5418 359.255ZM74.0006 313.233C71.4979 313.233 69.0792 314.61 67.6347 316.861C63.8388 322.84 57.9097 334.934 60.8826 348.858C61.4201 351.36 63.1501 353.46 65.4176 354.35C67.1812 355.056 68.9952 355.156 70.826 354.652C75.1091 353.477 81.5085 335.622 81.5589 321.127C81.5757 317.096 78.7371 313.72 74.9411 313.266C74.706 313.233 74.4708 313.216 74.2357 313.216C74.1517 313.233 74.0845 313.233 74.0006 313.233Z" fill="#371B45"/>
<path d="M61.5875 354.35C60.6301 354.35 59.6559 354.115 58.6986 353.645C57.6404 353.124 57.2037 351.831 57.7412 350.773C58.2619 349.714 59.5552 349.278 60.6133 349.815C62.8137 350.907 64.8964 347.867 66.2737 345.112C68.642 340.359 70.456 333.019 71.0271 325.981C71.6653 318.07 70.3888 314.677 69.7001 314.324C68.5412 314.375 67.5334 313.434 67.5166 312.242C67.483 311.066 68.4236 310.075 69.5994 310.041C70.7583 310.008 72.9586 310.428 74.2688 313.653C77.628 321.866 73.6641 345.515 66.4585 352.217C64.93 353.628 63.2672 354.35 61.5875 354.35Z" fill="#371B45"/>
<g opacity="0.25">
<path d="M83.5399 324.99C82.5489 338.562 76.9054 355.207 71.3794 356.718C68.7592 357.424 66.4581 357.071 64.6273 356.349C61.6207 355.156 59.4708 352.469 58.799 349.294C57.3881 342.66 57.9087 336.412 59.2357 331.02C65.1144 343.97 73.3614 341.064 83.5399 324.99Z" fill="#371B45"/>
</g>
<path d="M150.676 415.875C138.347 415.875 126.052 413.171 114.681 407.93C89.7555 396.425 74.2861 374.808 74.2861 351.511C74.2861 350.336 75.2435 349.378 76.4193 349.378C77.595 349.378 78.5524 350.336 78.5524 351.511C78.5524 373.112 93.0812 393.25 116.462 404.034C138.75 414.313 172.293 417.017 199.604 393.737C200.511 392.965 201.854 393.082 202.627 393.973C203.399 394.88 203.282 396.223 202.392 396.996C190.013 407.544 174.863 413.943 158.604 415.489C155.95 415.757 153.313 415.875 150.676 415.875Z" fill="#371B45"/>
<path d="M218.264 359.255C217.172 359.255 216.248 358.432 216.131 357.323C210.806 301.358 172.443 289.785 156.201 287.4C141.504 285.25 126.085 287.333 112.766 293.262C99.4129 299.191 89.671 308.379 85.304 319.128C84.8673 320.22 83.6075 320.757 82.5158 320.304C81.424 319.867 80.8865 318.608 81.34 317.516C91.0819 293.48 124.238 278.397 156.823 283.167C173.182 285.552 187.543 292.758 198.36 303.995C210.89 317.012 218.314 334.816 220.414 356.92C220.531 358.096 219.658 359.137 218.482 359.255C218.398 359.255 218.331 359.255 218.264 359.255Z" fill="#371B45"/>
<g opacity="0.52">
<path d="M188.332 385.625C215.038 363.622 199.115 327.879 169.083 312.359C167.236 311.402 165.422 313.703 166.749 315.315C182.974 335.269 189.272 358.079 185.208 383.844C184.922 385.608 186.955 386.767 188.332 385.625Z" fill="white"/>
</g>
<g opacity="0.52">
<path d="M101.714 338.444C104.942 338.444 107.559 335.278 107.559 331.373C107.559 327.467 104.942 324.301 101.714 324.301C98.4861 324.301 95.8691 327.467 95.8691 331.373C95.8691 335.278 98.4861 338.444 101.714 338.444Z" fill="white"/>
</g>
<g opacity="0.52">
<path d="M99.4299 347.413L100.387 347.279C103.595 346.825 106.535 349.059 106.988 352.267C107.593 356.55 108.836 362.328 111.372 366.679C112.917 369.316 112.111 372.709 109.575 374.422C107.509 375.816 104.771 375.765 102.789 374.271C97.2128 370.055 93.8871 363.504 94.391 352.939C94.5254 350.117 96.6417 347.8 99.4299 347.413Z" fill="white"/>
</g>
<path d="M210.201 394.376C209.21 394.376 208.202 394.275 207.211 394.073L201.937 392.982C200.778 392.746 200.039 391.604 200.274 390.445C200.509 389.286 201.651 388.531 202.81 388.783L208.084 389.874C212.418 390.765 216.869 388.867 219.153 385.138C224.494 376.437 225.25 365.469 225.217 359.708C225.2 356.651 223.822 353.762 221.454 351.763L217.591 348.539C216.684 347.783 216.566 346.422 217.322 345.515C218.078 344.608 219.439 344.491 220.346 345.247L224.209 348.471C227.551 351.276 229.483 355.358 229.516 359.675C229.55 367.266 228.425 378.251 222.815 387.372C220.094 391.772 215.273 394.376 210.201 394.376Z" fill="#371B45"/>
<g opacity="0.25">
<path d="M226.41 371.18C225.537 376.135 223.908 381.476 220.985 386.246C218.214 390.765 212.856 393.032 207.666 391.974L202.392 390.882L211.21 374.187L213.343 370.978C213.326 370.978 219.893 372.994 226.41 371.18Z" fill="#371B45"/>
</g>
<g opacity="0.25">
<path d="M84.8843 420.477L75.8815 435.963L75.8647 435.997C75.8647 435.997 75.5791 435.963 75.0585 435.879C75.0249 435.879 74.9913 435.863 74.9745 435.863C71.0105 435.241 54.5333 431.798 40.4748 415.959C34.7809 409.56 29.49 401.128 25.5765 390.042C25.5765 390.025 25.5597 390.009 25.5597 390.009C22.7883 382.131 20.6048 375.161 18.9084 369.013C16.3889 356.13 17.5479 345.146 24.2496 340.09C25.207 339.368 26.1308 338.813 27.0378 338.394C27.2561 347.346 30.5482 411.945 84.8843 420.477Z" fill="#371B45"/>
</g>
<g opacity="0.25">
<path d="M250.159 463.241C251.301 465.088 251.687 467.893 247.371 471.068C245.473 472.462 243.407 473.554 241.374 474.427C235.831 476.778 229.768 477.635 223.755 477.215C214.181 476.527 194.596 474.225 180.437 466.667C178.153 464.181 176.507 462.418 176.507 462.418V444.395C176.507 444.395 202.138 468.28 229.667 466.281C241.895 465.374 247.589 464.232 250.159 463.241Z" fill="#371B45"/>
</g>
<path d="M251.924 461.242C251.738 461.074 251.654 461.007 251.654 461.007C251.654 461.007 251.789 461.091 251.924 461.242Z" fill="#371B45"/>
<g opacity="0.25">
<path d="M173.601 475.384C173.601 475.384 166.967 479.046 157.292 473.671L158.266 466.818C158.266 466.818 136.599 498.463 91.2827 464.081L89.2168 465.542L76.5859 461.024L70.3545 464.332L89.0152 471.538C89.0152 471.538 86.4958 481.162 96.204 487.763C105.912 494.364 137.456 503.686 146.727 501.671C155.999 499.655 157.141 491.946 157.141 491.946L172.711 492.903L174.122 481.498" fill="#371B45"/>
</g>
<g opacity="0.25">
<path d="M96.2711 509.078L85.6055 501.956C85.6055 501.956 87.8394 524.228 108.113 536.691C128.386 549.154 111.959 567.227 111.959 567.227L124.691 543.023L110.128 514.621L101.881 512.152" fill="#371B45"/>
</g>
<g opacity="0.25">
<path d="M115.972 561.466C112.244 567.546 107.541 573.105 102.199 575.02C88.4937 579.874 79.9276 568.738 79.9276 563.733C79.9276 558.745 81.9263 550.884 81.9263 550.884C81.9263 550.884 56.228 535.902 53.8093 518.333C53.2886 514.604 53.6245 510.69 54.4811 506.827L54.8843 506.71C54.8843 506.71 64.0886 536.254 98.2356 549.473C98.2356 549.473 84.261 556.595 89.0144 564.304C93.7341 571.93 115.485 561.701 115.972 561.466Z" fill="#371B45"/>
</g>
<g opacity="0.25">
<path d="M181.16 567.428C175.987 579.589 164.078 592.102 155.294 591.984C143.587 591.85 140.597 584.275 137.742 579.135C134.886 573.996 129.024 548.028 125.329 541.176C125.329 541.176 125.212 541.545 124.976 542.2C124.59 540.487 124.372 539.496 124.372 539.496L109.91 514.201L122.541 515.914L133.307 515.376C133.307 515.376 131.628 538.757 146.593 552.177C146.593 552.177 138.313 573.038 149.936 563.683L154.656 556.527C154.689 556.527 156.705 588.424 181.16 567.428Z" fill="#371B45"/>
</g>
<g opacity="0.25">
<path d="M56.5813 429.614C53.1549 431.949 47.5953 434.217 38.626 435.745C36.8288 431.126 32.529 428.506 29.2705 427.129C31.2693 426.608 33.3352 426.171 35.4684 425.852C41.0279 424.995 44.7567 423.937 47.2258 422.963C49.8292 425.331 53.0373 427.515 56.5813 429.614Z" fill="#371B45"/>
</g>
<g opacity="0.25">
<path d="M95.4819 452.827L92.3578 462.283C86.6134 459.26 77.2411 460.15 69.7163 462.905C61.7381 465.81 53.9782 470.413 48.9897 473.369C47.0245 474.528 45.4457 475.452 44.1859 476.107C40.8267 477.853 35.9221 479.08 30.5137 479.08C27.1041 479.08 23.5096 478.592 19.9824 477.417C12.928 475.065 7.56994 470.413 4.44582 463.946C1.72482 458.336 1.40569 452.357 3.47164 446.831L3.48843 446.797C3.48843 446.797 5.43679 482.792 38.6263 471.101C71.8159 459.411 74.8224 455.565 76.4181 451.702C76.6532 451.13 77.2747 450.61 78.1817 450.173C84.178 449.4 90.1238 449.988 95.4819 452.827Z" fill="#371B45"/>
</g>
<path d="M316.761 232.02C314.839 231.936 313.696 230.518 313.334 227.767C313.257 226.987 313.243 226.046 313.291 224.945C313.332 224.006 313.417 222.956 313.546 221.793C313.834 219.253 314.298 216.626 314.939 213.912L315.06 213.389C308.865 213.966 305.752 214.255 305.719 214.253C305.576 214.247 305.45 214.202 305.343 214.119C305.185 213.988 305.111 213.825 305.12 213.63C305.126 213.486 305.177 213.358 305.274 213.245C305.37 213.125 305.507 213.056 305.684 213.037L315.399 212.121C316.512 208.018 317.757 205.239 319.132 203.784C319.583 203.328 320.071 202.996 320.596 202.791C321.106 202.611 321.56 202.53 321.958 202.547C322.368 202.565 322.722 202.691 323.018 202.926C323.599 203.383 323.943 203.953 324.05 204.636C324.157 205.313 324.201 205.88 324.181 206.336C324.121 207.704 323.623 209.406 322.685 211.441L330.099 210.747C330.242 210.753 330.367 210.801 330.474 210.891C330.638 211.022 330.716 211.185 330.707 211.381C330.701 211.524 330.646 211.655 330.543 211.775C330.447 211.888 330.31 211.957 330.133 211.982L322.05 212.735C320.589 215.557 318.343 218.837 315.314 222.575C315.223 223.459 315.162 224.263 315.13 224.986C315.085 226.002 315.1 226.862 315.174 227.563C315.329 228.797 315.614 229.593 316.029 229.951C316.444 230.309 316.867 230.497 317.297 230.516C317.499 230.524 317.709 230.504 317.926 230.455C319.132 230.194 320.617 229.3 322.382 227.771L322.595 227.584C322.724 227.479 322.867 227.43 323.023 227.437C323.205 227.445 323.356 227.513 323.474 227.643C323.593 227.765 323.649 227.905 323.642 228.061C323.634 228.244 323.562 228.394 323.426 228.512L323.203 228.698C322.206 229.686 321.173 230.476 320.103 231.069C319.039 231.662 318.242 231.97 317.712 231.993C317.182 232.015 316.865 232.024 316.761 232.02ZM321.24 211.573C322.199 209.631 322.742 208.039 322.868 206.798C322.893 206.524 322.908 206.336 322.913 206.232C322.967 205 322.665 204.37 322.006 204.341C321.804 204.332 321.561 204.38 321.276 204.485C320.997 204.591 320.728 204.775 320.468 205.038C319.893 205.652 319.34 206.565 318.811 207.775C318.288 208.98 317.806 210.366 317.366 211.933L321.24 211.573ZM315.614 220.189C317.801 217.36 319.451 214.923 320.566 212.876L317.026 213.21C316.437 215.476 315.966 217.802 315.614 220.189Z" fill="#E94E1B"/>
<path d="M302.878 231.295C302.181 231.264 301.575 231.084 301.06 230.755C300.174 230.122 299.757 229.21 299.809 228.017C299.839 227.34 300.013 226.639 300.332 225.915C300.724 225.005 301.227 224.251 301.841 223.651C302.631 222.915 303.43 222.47 304.24 222.316C305.056 222.163 305.728 222.097 306.256 222.12C306.673 222.139 307.075 222.199 307.462 222.301C308.812 222.647 309.469 223.224 309.433 224.032C309.39 225.009 308.394 225.857 306.443 226.574C305.308 226.995 303.733 227.35 301.716 227.64C301.683 227.783 301.664 227.935 301.656 228.098C301.633 228.632 301.789 229.021 302.124 229.264C302.581 229.565 302.982 229.733 303.326 229.767C303.678 229.796 303.906 229.812 304.01 229.817C304.915 229.856 305.947 229.712 307.103 229.384C308.748 228.954 310.838 228.183 313.374 227.073C313.473 227.039 313.569 227.023 313.66 227.027C313.907 227.038 314.088 227.157 314.202 227.384C314.244 227.484 314.262 227.582 314.258 227.68C314.248 227.915 314.126 228.089 313.892 228.203C311.29 229.342 309.137 230.133 307.433 230.574C306.845 230.744 306.159 230.91 305.375 231.071C304.591 231.233 303.993 231.311 303.582 231.306C303.171 231.301 302.936 231.297 302.878 231.295ZM302.165 226.319C305.228 225.845 307.129 225.214 307.869 224.424C308.068 224.21 308.17 224.022 308.178 223.859C308.182 223.749 308.141 223.652 308.053 223.57C307.865 223.399 307.549 223.303 307.106 223.284C306.513 223.258 305.835 223.391 305.071 223.684C304.394 223.948 303.755 224.364 303.156 224.932C302.774 225.32 302.443 225.782 302.165 226.319Z" fill="#E94E1B"/>
<path d="M294.35 231.069C293.112 231.015 292.443 230.114 292.343 228.366C292.303 227.634 292.3 226.892 292.333 226.143L292.365 225.41C292.405 224.478 292.42 223.63 292.407 222.866C292.386 221.272 292.059 220.461 291.427 220.434C291.29 220.428 291.135 220.454 290.963 220.511C290.44 220.691 289.689 221.288 288.711 222.303C287.048 223.901 285.367 226.148 283.667 229.044C283.578 229.282 283.443 229.449 283.263 229.546C283.089 229.636 282.918 229.678 282.748 229.67C282.683 229.667 282.612 229.658 282.534 229.641C282.283 229.558 282.109 229.427 282.013 229.246C281.91 229.065 281.862 228.89 281.869 228.721C281.872 228.656 281.882 228.584 281.898 228.507C281.951 228.339 282.127 227.374 282.426 225.612C283.027 222.178 283.436 220.071 283.653 219.291C283.735 219.046 283.867 218.876 284.047 218.779C284.235 218.676 284.41 218.629 284.573 218.636C284.651 218.639 284.728 218.652 284.806 218.675C285.057 218.758 285.231 218.89 285.327 219.07C285.43 219.251 285.478 219.426 285.471 219.595C285.468 219.661 285.455 219.732 285.432 219.809C285.248 220.441 284.868 222.409 284.292 225.713C285.498 223.964 286.677 222.534 287.829 221.422C289.151 220.142 290.114 219.4 290.717 219.198C291.327 218.99 291.775 218.892 292.062 218.905C292.479 218.923 292.827 219.085 293.108 219.391C293.981 220.33 294.343 222.481 294.196 225.843L294.166 226.321L294.148 226.722C294.085 228.155 294.234 229.001 294.595 229.258C294.829 229.432 295.041 229.522 295.23 229.531C295.569 229.546 296.008 229.431 296.547 229.187C297.727 228.631 298.956 227.774 300.234 226.616C300.363 226.504 300.505 226.452 300.662 226.459C300.844 226.467 300.995 226.535 301.113 226.664C301.231 226.794 301.287 226.94 301.28 227.103C301.273 227.265 301.204 227.409 301.075 227.534C299.682 228.772 298.353 229.697 297.086 230.307C295.926 230.844 295.014 231.098 294.35 231.069Z" fill="#E94E1B"/>
<path d="M262.939 239.937C262.861 239.934 262.783 239.92 262.705 239.897C262.454 239.821 262.277 239.689 262.174 239.502C262.078 239.322 262.033 239.15 262.04 238.987C262.043 238.915 262.053 238.844 262.069 238.773C264.281 231.349 265.951 224.284 267.08 217.576C267.82 213.052 268.255 209.304 268.385 206.333C268.459 204.645 268.433 203.208 268.309 202.021L268.305 201.884C268.314 201.682 268.381 201.505 268.505 201.354C268.704 201.121 268.964 201.012 269.283 201.026C269.485 201.035 269.661 201.101 269.813 201.225C270.229 201.557 270.369 203.293 270.231 206.433C270.026 211.131 269.223 216.857 267.825 223.612C271.376 219.576 274.486 216.242 277.154 213.61C280.149 210.66 283.002 208.122 285.712 205.994C285.847 205.896 285.993 205.85 286.149 205.857C286.325 205.865 286.472 205.943 286.589 206.092C286.695 206.214 286.745 206.346 286.739 206.49C286.73 206.679 286.652 206.832 286.503 206.949C283.833 209.046 281.014 211.556 278.046 214.482C275.174 217.313 271.779 220.971 267.862 225.454L283.841 236.23C284.031 236.368 284.121 236.549 284.111 236.77C284.106 236.881 284.069 236.987 283.999 237.088C283.867 237.278 283.69 237.369 283.469 237.359C283.351 237.354 283.239 237.32 283.13 237.256L267.199 226.492C266.298 230.52 265.182 234.783 263.849 239.282C263.766 239.526 263.635 239.697 263.454 239.793C263.274 239.896 263.102 239.944 262.939 239.937Z" fill="#E94E1B"/>
</svg>
