<svg width="145" height="214" viewBox="0 0 145 214" fill="none" xmlns="http://www.w3.org/2000/svg">
<g id="Group 71">
<g id="Group 69">
<path id="Vector" opacity="0.25" d="M75.6076 213.938C44.78 213.938 19.7893 211.34 19.7893 208.137C19.7893 204.933 44.78 202.335 75.6076 202.335C106.435 202.335 131.426 204.933 131.426 208.137C131.426 211.34 106.435 213.938 75.6076 213.938Z" fill="#371A45"/>
<g id="Group">
<g id="Group_2">
<path id="Vector_2" d="M86.435 80.7214L89.0331 89.8208L93.9209 106.881C93.9209 106.881 94.5022 107.165 95.5581 107.545C99.3544 108.921 109.249 111.638 120.436 107.557C131.778 103.428 137.65 93.7477 139.904 88.8598C141.909 84.5178 140.996 80.4723 139.43 77.5064C135.657 70.3526 123.865 67.7545 118.692 77.1505C118.028 78.3368 116.782 82.9518 111.633 84.2924C108.169 85.194 102.7 84.5534 97.741 83.5806C95.736 83.1891 93.826 82.7382 92.1532 82.3111C88.7958 81.4807 86.435 80.7214 86.435 80.7214Z" fill="white"/>
</g>
<g id="Group_3" opacity="0.25">
<path id="Vector_3" d="M88.4437 87.709L89.0487 89.8208L93.9365 106.881C93.9365 106.881 94.5178 107.165 95.5737 107.545C99.37 108.921 109.264 111.638 120.452 107.557C131.793 103.428 137.666 93.7476 139.92 88.8598C141.925 84.5177 141.011 80.4723 139.445 77.5064C139.006 76.664 138.449 75.881 137.808 75.1811C134.818 77.6962 129.017 80.6502 127.499 83.5568C123.916 90.3902 131.841 92.0037 131.188 94.7679C130.785 96.4881 125.173 100.368 120.452 102.088C109.264 106.169 101.921 104.389 99.0023 102.23C95.7516 99.8455 96.5109 91.4698 88.4437 87.709Z" fill="#371A45"/>
</g>
<g id="Group_4">
<path id="Vector_4" d="M108.198 110.95C112.03 110.95 116.372 110.369 120.939 108.708C133.123 104.271 139.09 93.724 141.084 89.3938C143.421 84.3399 142.104 79.8436 140.585 76.9726C138.379 72.7848 133.609 69.9375 128.722 69.9019C124.107 69.8545 120.085 72.2984 117.712 76.6049C117.594 76.8303 117.475 77.1031 117.333 77.4234C116.597 79.0843 115.245 82.1689 111.413 83.1654C104.164 85.0517 87.0567 79.6657 86.8906 79.6063C86.4635 79.4759 86.0008 79.5826 85.6805 79.8911C85.3602 80.1995 85.2416 80.6622 85.3602 81.0893L92.8461 107.249C92.941 107.581 93.1783 107.854 93.4868 108.008C93.8308 108.15 99.7626 110.95 108.198 110.95ZM128.591 72.2984C128.627 72.2984 128.662 72.2984 128.686 72.2984C132.708 72.334 136.635 74.6592 138.438 78.0878C139.707 80.4843 140.811 84.2094 138.889 88.3735C137.014 92.4309 131.427 102.301 120.109 106.43C108.032 110.831 97.3662 106.976 95.0172 106.003L88.2905 82.5129C93.2732 83.9484 105.647 87.1279 112.018 85.467C116.989 84.1738 118.709 80.247 119.539 78.3607C119.658 78.0997 119.741 77.8861 119.824 77.7438C121.77 74.2321 124.878 72.2984 128.591 72.2984Z" fill="#371A45"/>
</g>
<g id="Group_5">
<path id="Vector_5" d="M120.52 108.779C121.03 108.779 121.505 108.458 121.671 107.936C121.873 107.296 121.528 106.62 120.9 106.418C114.885 104.46 112.263 89.88 111.753 84.4346C111.694 83.7702 111.1 83.2838 110.436 83.3432C109.772 83.4025 109.285 83.9956 109.345 84.66C109.428 85.5261 111.397 105.884 120.152 108.731C120.271 108.755 120.39 108.779 120.52 108.779Z" fill="#371A45"/>
</g>
<g id="Group_6">
<path id="Vector_6" d="M95.3008 131.071C95.3008 131.071 89.9147 169.888 48.7718 163.731C48.7718 163.731 45.0229 177.374 34.4643 176.888C27.7851 176.579 24.2616 172.629 23.7396 168.88C22.4464 159.496 28.2715 147.193 33.966 144.31C39.6842 141.416 47.704 145.603 56.0916 136.943L95.3008 131.071Z" fill="white"/>
</g>
<g id="Group_7" opacity="0.25">
<path id="Vector_7" d="M25.0464 172.225C26.6836 174.693 29.8037 176.686 34.4779 176.9C45.0365 177.386 48.7854 163.743 48.7854 163.743C89.9284 169.9 95.3145 131.082 95.3145 131.082L86.049 132.47C79.4766 146.197 62.998 172.214 38.1912 155.32C38.3455 155.557 45.4874 166.744 39.0336 172.32C36.2338 174.717 30.3257 175.642 25.0464 172.225Z" fill="#371A45"/>
</g>
<g id="Group_8">
<path id="Vector_8" d="M35.0323 178.122C44.3334 178.122 48.4856 168.334 49.6127 165.083C62.0457 166.744 72.4857 164.49 80.6597 158.392C93.9707 148.427 96.4027 131.948 96.4976 131.248C96.5451 130.869 96.4264 130.489 96.1536 130.228C95.8807 129.955 95.5011 129.837 95.1214 129.896L55.9122 135.769C55.6512 135.804 55.4021 135.935 55.2242 136.124C50.1821 141.333 45.4486 141.582 40.8811 141.819C38.2236 141.961 35.7085 142.092 33.4189 143.254C27.4752 146.268 21.1519 159.021 22.54 169.07C23.1331 173.329 27.0244 177.789 34.4036 178.122C34.6171 178.11 34.8306 178.122 35.0323 178.122ZM48.7704 162.533C48.2365 162.533 47.7501 162.889 47.6077 163.423C47.5721 163.553 43.9656 176.152 34.5222 175.701C28.5311 175.428 25.3991 172 24.9483 168.737C23.7144 159.852 29.3022 148.059 34.5222 145.414C36.3492 144.488 38.5084 144.37 41.0116 144.239C45.496 144.002 51.0719 143.705 56.6715 138.106L93.7927 132.53C92.8318 136.86 89.3557 148.878 79.2005 156.459C71.3468 162.319 61.1797 164.372 48.9602 162.545C48.889 162.533 48.8297 162.533 48.7704 162.533Z" fill="#371A45"/>
</g>
<g id="Group_9">
<path id="Vector_9" d="M24.1308 131.901C30.0863 139.66 45.5801 136.967 45.5801 136.967L45.7106 84.5178L45.7344 73.9236C45.7344 73.9236 36.896 74.1609 30.1693 76.937C26.9306 78.2776 24.1901 80.1995 23.1579 82.9756C19.5989 92.6088 19.2311 125.518 24.1308 131.901Z" fill="white"/>
</g>
<g id="Group_10" opacity="0.25">
<path id="Vector_10" d="M20.5002 104.852C20.2867 116.348 21.3781 128.306 24.1305 131.889C30.086 139.648 45.5917 136.967 45.5917 136.967L45.7578 73.9236C45.7578 73.9236 45.5917 73.9236 45.2951 73.9473L45.1765 123.098C45.1765 123.098 29.6708 125.791 23.7153 118.021C22.09 115.921 21.0459 110.938 20.5002 104.852Z" fill="#371A45"/>
</g>
<g id="Group_11">
<path id="Vector_11" d="M39.4942 138.639C42.9347 138.639 45.5328 138.2 45.7938 138.165C46.4463 138.046 46.8971 137.429 46.7785 136.765C46.6598 136.112 46.0429 135.674 45.3786 135.78C45.2362 135.804 30.5253 138.248 25.0918 131.165C20.5836 125.281 20.6904 93.1663 24.3088 83.4025C26.6697 77.0437 40.6094 75.2878 45.7701 75.1455C46.4344 75.1218 46.9683 74.576 46.9446 73.8998C46.9208 73.2354 46.3751 72.7016 45.6989 72.7253C44.8684 72.749 25.4359 73.3659 22.031 82.5602C18.5075 92.063 17.8787 125.756 23.158 132.636C26.99 137.619 34.2268 138.639 39.4942 138.639Z" fill="#371A45"/>
</g>
<g id="Group_12">
<path id="Vector_12" d="M21.6398 109.692L32.2103 110.487C33.1594 110.558 33.9305 111.258 34.0966 112.184C34.7135 115.588 35.7338 123.537 32.412 126.159C29.6596 128.342 25.187 128.081 22.577 125.862C19.6467 123.383 19.362 115.588 19.4095 111.733C19.4213 110.535 20.4416 109.597 21.6398 109.692Z" fill="white"/>
</g>
<g id="Group_13" opacity="0.25">
<path id="Vector_13" d="M34.0966 112.184C34.7135 115.589 35.7338 123.537 32.412 126.159C29.6596 128.342 25.1989 128.081 22.577 125.862C20.7738 124.332 19.9789 120.797 19.6349 117.416C20.1094 119.112 20.8568 120.488 21.7822 121.39C27.1089 126.562 31.0832 120.464 31.0832 120.464C31.0832 120.464 31.7713 121.947 32.3171 122.03C34.6186 122.386 34.144 115.185 33.8119 111.46C33.9542 111.674 34.0491 111.923 34.0966 112.184Z" fill="#371A45"/>
</g>
<g id="Group_14">
<path id="Vector_14" d="M27.75 128.674C29.6719 128.674 31.5701 128.105 33.0293 126.942C36.6477 124.083 35.8647 116.348 35.0817 111.994C34.8325 110.618 33.6818 109.574 32.2819 109.479L21.7114 108.684C20.8691 108.625 20.0268 108.909 19.398 109.491C18.7692 110.06 18.4133 110.879 18.4015 111.721C18.3303 117.107 18.8879 124.059 21.925 126.634C23.5265 127.986 25.6501 128.674 27.75 128.674ZM21.569 110.689L32.1395 111.484C32.6259 111.519 33.0293 111.875 33.1123 112.362C34.2987 118.922 33.8004 123.786 31.7955 125.376C29.4821 127.203 25.5671 127.084 23.2299 125.103C21.3911 123.537 20.3352 118.554 20.4183 111.757C20.4183 111.46 20.5488 111.175 20.7623 110.974C20.9759 110.772 21.2606 110.665 21.569 110.689Z" fill="#371A45"/>
</g>
<g id="Group_15">
<path id="Vector_15" d="M30.158 114.224C29.8258 118.554 30.4308 125.032 25.1753 126.384C24.6295 126.515 24.2974 127.061 24.4279 127.606C25.0448 129.647 28.6394 126.895 29.2919 125.898C30.1936 124.735 30.6681 123.383 30.9291 122.066C31.4511 119.492 31.1782 116.846 31.2138 114.295C31.2257 113.607 30.2292 113.548 30.158 114.224Z" fill="#371A45"/>
</g>
<g id="Group_16">
<path id="Vector_16" d="M27.8786 82.6671C31.7698 83.0349 35.6967 83.7823 39.4219 84.9449C40.9523 85.3839 41.6641 83.1535 40.1455 82.6315C36.0882 81.8248 32.019 81.5401 27.9023 81.6231C27.2379 81.635 27.2261 82.6315 27.8786 82.6671Z" fill="#371A45"/>
</g>
<g id="Group_17" opacity="0.35">
<path id="Vector_17" d="M30.1812 76.937C34.808 80.4605 40.0991 83.0349 45.7106 84.5178L45.7344 73.9236C45.7462 73.9236 36.9079 74.1609 30.1812 76.937Z" fill="#371A45"/>
</g>
<g id="Group_18" opacity="0.35">
<path id="Vector_18" d="M67.8828 130.43C68.0014 131.035 68.0964 131.616 68.2031 132.198C68.0964 131.628 68.0014 131.035 67.8828 130.43Z" fill="#371A45"/>
</g>
<g id="Group_19">
<path id="Vector_19" d="M35.3655 113.56C35.3655 113.75 35.3774 113.928 35.3774 114.117C35.4723 117.866 35.8994 121.105 36.6468 123.739C36.7535 124.095 36.8603 124.439 36.9671 124.783C37.0027 124.878 37.0264 124.961 37.062 125.056C37.667 126.776 38.4263 128.401 39.3279 129.92C42.2108 134.819 46.5173 138.592 51.7373 140.917C54.0981 141.961 60.4451 144.571 68.9513 144.666C70.0784 144.678 71.241 144.642 72.4392 144.571C77.7423 144.203 90.5075 141.155 94.7428 133.242C96.7596 129.469 96.9969 120.631 95.7156 107.497C95.1936 102.194 94.4343 96.2034 93.4378 89.5479C93.331 88.8361 93.2243 88.1242 93.1056 87.4006C92.8446 85.7278 92.5836 84.0194 92.2989 82.2755C91.1125 74.9794 89.6889 67.0071 88.0517 58.4178L46.7427 60.6482C44.7377 65.8919 43.0056 71.0288 41.5464 75.9759C41.0482 77.6606 40.5736 79.3333 40.1465 80.9824C39.9567 81.6942 39.7669 82.3941 39.5889 83.0941C37.8687 89.8563 36.6942 96.1915 36.018 101.898C35.5197 106.145 35.3062 110.072 35.3655 113.56Z" fill="white"/>
</g>
<g id="Group_20">
<path id="Vector_20" d="M35.3655 113.121C35.3655 113.406 35.3655 113.56 35.3655 113.56C35.3655 113.75 35.3774 113.928 35.3774 114.117C35.4723 117.866 35.8994 121.105 36.6468 123.739C36.7535 124.095 36.8603 124.439 36.9671 124.783C37.0027 124.878 37.0264 124.961 37.062 125.056C37.667 126.776 38.4263 128.401 39.3279 129.92C42.2108 134.819 46.5173 138.592 51.7373 140.917C54.0981 141.961 60.4451 144.571 68.9513 144.666C70.0784 144.678 71.241 144.642 72.4392 144.571C77.7423 144.203 90.5075 141.155 94.7428 133.242C96.7596 129.469 96.9969 120.631 95.7156 107.497C95.1936 102.194 94.4343 96.2034 93.4378 89.5479C93.331 88.8361 93.2243 88.1242 93.1056 87.4006C92.8446 85.7278 92.5836 84.0194 92.2989 82.2755C91.1125 74.9794 89.6889 67.0071 88.0517 58.4178L50.2543 60.4583L46.7546 60.6482C44.7496 65.8919 43.0175 71.0288 41.5583 75.9759C41.06 77.6606 40.5855 79.3333 40.1584 80.9824C39.9686 81.6942 39.7788 82.3941 39.6008 83.0941C37.8806 89.8563 36.7061 96.1915 36.0299 101.898C35.7214 104.496 35.5197 106.975 35.4248 109.301C35.413 109.467 35.413 109.621 35.413 109.763C35.3655 110.902 35.3536 112.029 35.3655 113.121Z" fill="white"/>
</g>
<g id="Group_21" opacity="0.25">
<path id="Vector_21" d="M35.3652 113.56L38.6514 114.117C38.6514 114.117 39.7073 78.5623 50.0049 60.6245L50.2422 60.4347L46.7424 60.6245C37.3939 76.5099 35.7093 99.7744 35.4246 109.277C35.4127 109.443 35.4127 109.597 35.4127 109.74C35.3415 112.148 35.3652 113.56 35.3652 113.56Z" fill="#371A45"/>
</g>
<g id="Group_22" opacity="0.25">
<path id="Vector_22" d="M36.9298 125.127C39.5042 132.423 44.7598 137.94 51.6051 140.989C54.2744 142.175 62.0569 145.354 72.307 144.631C77.6101 144.263 90.3753 141.214 94.6106 133.301C95.9275 130.845 96.485 126.242 96.3545 119.717C96.2478 123.596 95.6783 126.408 94.6106 128.045C90.3872 134.535 77.6101 137.038 72.307 137.335C62.0569 137.928 54.2744 135.318 51.6051 134.345C44.7598 131.854 38.3178 128.164 36.0756 122.042C34.735 118.365 35.2808 115.541 35.2214 111.591C35.1621 117.143 35.7316 121.746 36.9298 125.127Z" fill="#371A45"/>
</g>
<g id="Group_23" opacity="0.35">
<path id="Vector_23" d="M95.2036 104.069C95.8799 110.108 96.2714 115.351 96.3425 119.717C96.4612 115.648 96.0697 110.392 95.2036 104.069Z" fill="#371A45"/>
</g>
<g id="Group_24" opacity="0.35">
<path id="Vector_24" d="M35.2232 111.59C35.2469 109.241 35.3892 106.726 35.6621 104.057C35.3299 106.762 35.1876 109.289 35.2232 111.59Z" fill="#371A45"/>
</g>
<g id="Group_25">
<path id="Vector_25" d="M69.283 145.947C70.2914 145.947 71.3354 145.912 72.4031 145.841C73.0675 145.793 73.5776 145.212 73.5301 144.548C73.4827 143.883 72.9014 143.385 72.237 143.42C63.5529 144.026 56.494 141.831 52.1045 139.873C45.4609 136.919 40.4782 131.533 38.0699 124.712C34.582 114.805 36.2073 91.3037 47.7387 61.1227C47.976 60.4939 47.6675 59.794 47.0387 59.5567C46.41 59.3194 45.71 59.6279 45.4727 60.2567C35.3056 86.8904 31.4144 113.121 35.792 125.518C38.4258 132.969 43.8712 138.853 51.1198 142.08C55.2128 143.919 61.5242 145.947 69.283 145.947Z" fill="#371A45"/>
</g>
<g id="Group_26">
<path id="Vector_26" d="M93.4152 93.2255C92.6204 95.8236 93.2135 98.3031 93.5694 100.854C94.5423 108.316 95.2541 115.932 95.1236 123.418C94.9219 127.025 94.9219 130.726 92.9051 133.763C90.1409 137.667 85.5734 140.099 81.0178 141.463C79.8433 141.843 78.6925 142.21 77.6722 143.337C77.435 143.575 77.5417 144.014 77.8621 144.12C79.95 144.915 81.8245 143.883 83.6515 143.171C89.1087 141.024 95.0287 137.37 96.6303 131.308C98.2912 123.632 97.4251 115.838 96.8319 108.162C96.4048 104.496 96.1439 100.403 95.5625 96.7727C95.5032 96.0372 94.3406 91.7544 93.4152 93.2255Z" fill="#371A45"/>
</g>
<g id="Group_27">
<path id="Vector_27" d="M36.5745 123.952C40.1217 143.361 59.2577 152.069 69.5435 169.034C74.9177 177.908 80.6241 189.25 90.4708 192.69C102.75 196.973 125.777 179.296 119.81 167.966C114.969 158.772 102.726 167.053 102.726 167.053C102.726 167.053 99.2024 142.638 80.7546 134.131" fill="white"/>
</g>
<g id="Group_28" opacity="0.25">
<path id="Vector_28" d="M36.6482 123.739C36.6838 123.751 36.7194 123.751 36.7549 123.763L36.577 123.964C40.1242 143.373 59.2602 152.093 69.5459 169.046C74.9201 177.92 80.6265 189.262 90.4733 192.702C102.752 196.985 125.779 179.308 119.8 167.978C119.219 166.875 118.531 166.033 117.771 165.38C114.438 165.273 109.918 166.555 106.406 172.842C101.85 180.981 96.939 189.665 90.4733 187.185C75.2167 181.349 72.3101 160.101 68.0393 154.003C62.7244 146.41 52.1539 141.428 44.5612 133.242C41.6309 130.086 43.7901 124.961 48.0965 124.795C50.5167 124.7 53.1623 124.415 56.0214 123.858L56.1638 126.598C56.3299 129.778 59.0704 132.245 62.2498 132.079L89.0971 130.703C92.2766 130.537 94.7442 127.808 94.5781 124.629L94.4239 121.651L93.8426 110.333C93.6765 107.154 90.9478 104.686 87.7565 104.852L60.9092 106.228C60.5177 106.252 60.1262 106.311 59.7585 106.406C57.1485 107.082 55.274 109.526 55.4164 112.314L55.5469 114.782C52.8301 115.09 42.5444 116.028 35.3669 113.584C35.4381 117.546 35.8652 120.975 36.6482 123.739Z" fill="#371A45"/>
</g>
<g id="Group_29">
<path id="Vector_29" d="M94.6693 194.565C101.016 194.565 108.182 190.982 113.26 186.711C119.464 181.491 122.679 175.381 121.861 170.339C121.849 170.244 121.813 170.149 121.778 170.054C120.532 167.136 118.254 165.807 115.371 166.317C112.299 166.863 109.961 170.434 106.996 174.954C103.021 181.028 98.0622 188.585 89.6391 191.373C89.1527 191.539 88.8205 191.99 88.8086 192.5C88.7968 193.01 89.1171 193.473 89.5916 193.663C89.7459 193.722 89.912 193.782 90.0662 193.829C91.5135 194.327 93.0558 194.565 94.6693 194.565ZM119.488 170.861C120.081 175.025 117.186 180.245 111.694 184.848C106.023 189.606 99.2486 192.31 94.0405 192.109C101.052 188.407 105.406 181.764 109.012 176.271C111.551 172.391 113.746 169.046 115.786 168.69C116.878 168.5 118.432 168.524 119.488 170.861Z" fill="#371A45"/>
</g>
<g id="Group_30">
<path id="Vector_30" d="M90.0101 192.524C90.1643 192.583 90.3185 192.631 90.4727 192.69C101.862 196.664 122.493 181.74 120.666 170.529C119.835 168.583 118.317 167.029 115.588 167.504C109.312 168.607 104.923 187.589 90.0101 192.524Z" fill="#AFAFB2"/>
</g>
<g id="Group_31">
<path id="Vector_31" d="M94.6693 194.565C101.016 194.565 108.182 190.982 113.26 186.711C119.464 181.491 122.679 175.381 121.861 170.339C121.849 170.244 121.813 170.149 121.778 170.054C120.532 167.136 118.254 165.807 115.371 166.317C112.299 166.863 109.961 170.434 106.996 174.954C103.021 181.028 98.0622 188.585 89.6391 191.373C89.1527 191.539 88.8205 191.99 88.8086 192.5C88.7968 193.01 89.1171 193.473 89.5916 193.663C89.7459 193.722 89.912 193.782 90.0662 193.829C91.5135 194.327 93.0558 194.565 94.6693 194.565ZM119.488 170.861C120.081 175.025 117.186 180.245 111.694 184.848C106.023 189.606 99.2486 192.31 94.0405 192.109C101.052 188.407 105.406 181.764 109.012 176.271C111.551 172.391 113.746 169.046 115.786 168.69C116.878 168.5 118.432 168.524 119.488 170.861Z" fill="#371A45"/>
</g>
<g id="Group_32">
<path id="Vector_32" d="M90.0074 193.734C90.4938 193.734 90.9565 193.438 91.1344 192.951C91.3717 192.322 91.0514 191.622 90.4345 191.397C82.3791 188.348 77.0998 179.427 72.4493 171.549C71.8205 170.481 71.1917 169.426 70.5748 168.417C66.4463 161.607 60.9297 156.115 55.603 150.812C47.5001 142.744 39.8363 135.128 37.7601 123.739C37.6415 123.086 37.0127 122.647 36.3484 122.766C35.6959 122.885 35.2569 123.513 35.3755 124.178C37.594 136.314 45.5071 144.192 53.8946 152.532C59.1265 157.728 64.5244 163.114 68.5106 169.675C69.1275 170.683 69.7444 171.727 70.3613 172.783C75.2254 180.993 80.7301 190.306 89.5685 193.663C89.7227 193.71 89.865 193.734 90.0074 193.734Z" fill="#371A45"/>
</g>
<g id="Group_33">
<path id="Vector_33" d="M89.5468 138.592C87.3402 136.077 84.0659 134.618 80.8271 133.977C80.6491 133.941 80.5424 134.179 80.6847 134.286C83.2235 136.302 85.3471 138.485 87.9334 140.372C89.0842 141.131 90.401 139.648 89.5468 138.592Z" fill="#371A45"/>
</g>
<g id="Group_34">
<path id="Vector_34" d="M120.665 171.727C120.724 171.727 120.795 171.727 120.855 171.715C121.519 171.608 121.958 170.992 121.851 170.327C121.685 169.307 121.353 168.322 120.867 167.409C119.55 164.917 117.628 163.339 115.16 162.723C110.866 161.643 106.013 163.802 103.593 165.131C102.644 160.504 99.3104 147.869 90.0093 139.031C89.5229 138.568 88.7636 138.592 88.301 139.078C87.8383 139.565 87.862 140.324 88.3484 140.787C99.0494 150.954 101.493 167.065 101.517 167.231C101.576 167.646 101.849 167.99 102.229 168.168C102.608 168.334 103.047 168.298 103.391 168.061C103.451 168.014 109.727 163.85 114.579 165.072C116.382 165.522 117.746 166.661 118.731 168.548C119.099 169.236 119.336 169.971 119.467 170.731C119.562 171.312 120.084 171.727 120.665 171.727Z" fill="#371A45"/>
</g>
<g id="Group_35">
<path id="Vector_35" d="M49.0073 162.557C46.9667 161.999 44.9025 161.097 43.1348 159.887C41.1536 158.642 40.0028 156.886 38.2588 155.26C38.2114 155.213 38.1402 155.213 38.1046 155.26C38.2588 159.958 44.2737 164.063 48.5446 164.906C50.1106 165.19 50.5614 162.912 49.0073 162.557Z" fill="#371A45"/>
</g>
<g id="Group_36">
<path id="Vector_36" d="M142.754 84.5415C142.754 84.5415 141.758 91.4343 137.131 91.7427C132.504 92.0393 118.873 79.4639 119.359 74.671C119.68 71.5272 124.022 67.5528 127.581 66.7698C131.14 65.9868 133.679 69.0595 135.494 71.1001C139.35 75.4303 144.214 78.1945 142.754 84.5415Z" fill="white"/>
</g>
<g id="Group_37" opacity="0.25">
<path id="Vector_37" d="M137.13 91.7308C141.757 91.4342 142.754 84.5296 142.754 84.5296C143.489 81.3265 142.611 79.0249 141.069 76.9844C141.057 77.625 140.974 78.3131 140.808 79.0486C140.808 79.0486 139.811 85.9414 135.185 86.2498C131.756 86.4753 123.368 79.6062 119.465 74.0897C119.418 74.2795 119.382 74.4693 119.37 74.6591C118.872 79.452 132.503 92.0393 137.13 91.7308Z" fill="#371A45"/>
</g>
<g id="Group_38">
<path id="Vector_38" d="M136.977 92.9527C137.06 92.9527 137.131 92.9527 137.203 92.9408C142.565 92.5849 143.822 85.5024 143.929 84.7668C145.21 79.1079 141.948 75.8928 138.792 72.7727C137.986 71.9779 137.155 71.1593 136.384 70.2932L136.159 70.0441C134.272 67.9087 131.413 64.6817 127.296 65.5834C123.476 66.4257 118.529 70.6017 118.138 74.5404C117.829 77.6249 121.602 82.0501 123.88 84.4109C127.913 88.5632 133.655 92.9527 136.977 92.9527ZM141.556 84.3635C141.545 84.4228 140.643 90.2952 137.048 90.5325C135.281 90.6274 130.428 87.6971 125.636 82.7263C121.958 78.9181 120.439 75.9877 120.558 74.7777C120.807 72.2744 124.686 68.6323 127.83 67.9442C130.547 67.3392 132.659 69.7238 134.355 71.6457L134.581 71.8948C135.411 72.8202 136.265 73.6744 137.096 74.4929C140.157 77.5063 142.565 79.8909 141.568 84.2685C141.568 84.3041 141.556 84.3279 141.556 84.3635Z" fill="#371A45"/>
</g>
<g id="Group_39">
<path id="Vector_39" d="M117.568 81.9197C117.568 81.9197 114.982 75.0862 119.549 73.2711C122.657 72.0373 130.084 76.9014 128.304 79.8198C126.916 82.0858 122.859 79.7131 122.859 79.7131C122.859 79.7131 127.462 83.2009 126.133 87.5786" fill="white"/>
</g>
<g id="Group_40">
<path id="Vector_40" d="M117.744 81.8484C118.337 79.8553 117.649 77.3877 118.681 75.6793C119.714 73.9828 121.517 74.2557 123.261 75.0031C124.874 75.7505 126.95 76.9962 127.354 78.7994C127.366 78.9893 127.318 79.1198 127.211 79.2503C126.417 80.0926 124.459 79.1791 123.498 78.6096C122.905 78.2419 122.122 78.4198 121.754 79.013C121.422 79.5469 121.529 80.2231 121.991 80.6264C122.241 80.84 122.513 81.101 122.774 81.3857C123.913 82.5839 125.005 83.8415 125.562 85.4193C125.8 86.06 125.883 86.7481 125.954 87.531C125.966 87.6378 126.061 87.7209 126.167 87.709C127.923 85.7278 126.986 82.3822 125.456 80.4722C124.91 79.7723 124.364 79.2384 123.629 78.6927L122.217 80.8044C122.857 81.1366 123.427 81.362 124.079 81.5874C125.064 81.9077 126.322 82.1806 127.401 81.8721C128.801 81.5518 129.881 80.1163 129.774 78.6808C129.418 75.7268 126.678 73.9591 124.305 72.7134C122.383 71.7643 119.88 71.2068 117.958 72.5948C114.992 74.6116 114.755 79.7011 117.4 81.9789C117.519 82.0857 117.721 82.0026 117.744 81.8484Z" fill="#371A45"/>
</g>
<g id="Group_41">
<path id="Vector_41" d="M1.50632 111.009C2.65709 115.161 5.99075 119.337 8.69566 120.88C18.5068 126.467 21.1643 118.946 21.1643 118.946C21.1643 118.946 24.4386 119.148 25.4233 116.704C26.2775 114.592 24.5098 112.54 24.8776 111.389C25.2928 110.096 25.6962 105.659 30.4298 103.025C31.9839 102.159 34.0956 101.933 35.887 101.945C37.8682 101.957 39.458 102.23 39.458 102.23L43.3729 84.3635L45.1406 76.3081C45.1406 76.3081 43.7407 76.0946 41.4155 76.0234C40.0037 75.9759 38.2716 75.9878 36.2904 76.142C30.9399 76.5335 23.9048 77.9216 17.3086 81.9077C6.97544 88.148 3.09604 98.7778 1.81477 104.01C1.36395 105.813 0.901276 108.826 1.50632 111.009Z" fill="white"/>
</g>
<g id="Group_42" opacity="0.25">
<path id="Vector_42" d="M1.52051 111.009C2.67128 115.161 6.00496 119.337 8.70986 120.88C18.5211 126.467 21.1785 118.946 21.1785 118.946C21.1785 118.946 24.4529 119.148 25.4375 116.704C26.2917 114.592 24.524 112.54 24.8918 111.389C25.307 110.096 25.7104 105.659 30.444 103.025C31.9981 102.159 34.1098 101.933 35.9012 101.945C37.8824 101.957 39.4722 102.23 39.4722 102.23C39.4722 102.23 41.7856 99.3947 40.5755 97.1762C39.3654 94.9577 21.8666 99.1455 22.7919 109.858C23.0767 113.085 23.9902 112.753 23.5868 114.995C23.1953 117.202 20.9412 116.644 18.9363 116.965C16.9313 117.285 4.66436 122.03 2.41028 105.457C2.32723 104.271 2.32724 103.096 2.38656 101.945C2.16115 102.693 1.97134 103.381 1.82898 103.986C1.36629 105.813 0.915466 108.826 1.52051 111.009Z" fill="#371A45"/>
</g>
<g id="Group_43">
<path id="Vector_43" d="M39.5153 101.839C33.1327 99.2405 26.6196 101.767 24.413 108.47C24.1401 109.277 23.974 110.048 23.7842 110.831C23.5351 111.472 23.6418 112.374 23.8079 112.848C24.496 114.782 25.1485 116.834 22.6927 117.546C22.2657 117.688 21.6606 117.748 21.2335 117.736C20.6878 117.724 20.2133 118.056 20.0353 118.543C19.9285 118.804 19.7031 119.243 19.5014 119.504C17.2118 122.932 12.7036 121.758 9.6072 119.99C8.84793 119.61 8.18357 119.088 7.5548 118.507C5.34817 116.419 3.56863 113.69 2.70258 110.76C2.16872 108.696 2.48905 106.501 2.96359 104.366C4.61263 97.7457 7.97003 91.4461 12.9409 86.7244C18.6591 81.3977 26.2874 78.5623 33.975 77.5895C37.7121 77.1624 41.3423 77.5064 45.0794 76.7116C45.459 76.6522 45.5302 76.0709 45.1861 75.9167C43.3829 75.0032 41.4254 74.7897 39.456 74.7303C31.7328 74.8964 23.9028 76.6878 17.1643 80.591C8.62252 85.4788 2.928 94.3646 0.602734 103.796C0.0570068 106.216 -0.310764 108.897 0.365463 111.413C1.68232 115.612 4.3279 119.551 8.10052 121.936C9.76143 122.825 11.5528 123.656 13.4154 123.988C17.1762 124.724 20.842 122.98 22.3013 119.349L21.0912 120.156C21.9335 120.18 22.586 120.085 23.369 119.871C25.9315 119.243 27.4501 116.561 26.6908 114.058C26.4891 113.192 26.1925 112.575 26.0501 111.887C26.0383 111.84 26.0383 111.78 26.0383 111.745C26.0501 111.745 26.0264 111.804 26.0383 111.745L26.1213 111.46C26.7501 108.15 28.5178 105.374 31.5667 103.915C33.9869 102.93 36.7392 102.942 39.3848 102.645C39.8001 102.622 39.9187 101.993 39.5153 101.839Z" fill="#371A45"/>
</g>
<g id="Group_44" opacity="0.25">
<path id="Vector_44" d="M36.277 76.1421C37.4041 77.886 38.6379 79.5114 40.0022 81.0299C41.0581 82.2163 42.1851 83.3314 43.3596 84.3754C49.4456 89.7496 57.0621 93.1782 65.1056 94.1985C65.8649 94.2934 66.6241 94.3646 67.3953 94.4239C69.4951 94.5663 71.6187 94.5544 73.7541 94.3646C75.5218 94.2104 77.2895 93.9375 79.0453 93.5341C81.0858 93.0715 83.1145 92.4545 85.1076 91.6478C85.772 91.3868 86.4245 91.1021 87.0532 90.8055C87.7295 90.4971 88.382 90.1649 89.0345 89.8208C89.6514 89.5005 90.2445 89.1565 90.8377 88.8124C91.5614 88.3853 92.2732 87.9345 92.9494 87.46C94.6578 86.2855 96.2594 84.9923 97.7305 83.5924C95.7255 83.2009 93.8155 82.7501 92.1427 82.323C90.9564 75.0269 89.5327 67.0546 87.8955 58.4653L46.5865 60.6957C44.5816 65.9394 42.8495 71.0763 41.3903 76.0235C40.0022 75.9879 38.2583 75.9997 36.277 76.1421Z" fill="#371A45"/>
</g>
<g id="Group_45">
<path id="Vector_45" d="M110.734 65.9868C107.139 72.2864 101.943 77.7081 95.4063 81.6112C94.0776 82.4061 92.6895 83.1416 91.254 83.7941C90.5541 84.1144 89.8423 84.4229 89.1067 84.7195C86.912 85.5974 84.6816 86.2854 82.4394 86.7837C80.5056 87.2227 78.5718 87.5193 76.6262 87.6972C74.2891 87.9108 71.952 87.9226 69.6504 87.7684C68.8081 87.7091 67.9658 87.626 67.1353 87.5193C51.8788 85.5736 38.0695 75.798 31.8293 60.7313C22.635 38.5463 33.3716 13.3006 55.8056 4.35545C60.124 2.63523 64.5728 1.63869 68.9861 1.31837C69.5081 1.27092 70.0182 1.2472 70.5402 1.23533C71.9282 1.18788 73.3163 1.19973 74.6924 1.27091C77.8719 1.44887 81.0039 1.97087 84.041 2.81318C87.078 3.6555 90.0202 4.80626 92.7963 6.26548C93.6861 6.72816 94.5521 7.21457 95.4063 7.73657C96.6876 8.51957 97.9332 9.36189 99.1315 10.2754C105.123 14.8191 110.01 20.9408 113.071 28.3318C118.374 41.1207 117.069 54.8825 110.734 65.9868Z" fill="white"/>
<path id="Vector_46" d="M72.7223 87.9938C74.0392 87.9938 75.3561 87.9344 76.661 87.8158C78.6304 87.6379 80.5879 87.3294 82.4861 86.9023C84.752 86.3922 86.9942 85.6922 89.1653 84.8381C89.9601 84.5177 90.672 84.2093 91.3126 83.9127C92.7244 83.2602 94.1243 82.5247 95.4767 81.7179C101.859 77.9097 107.174 72.488 110.852 66.0461C117.472 54.4317 118.338 40.6818 113.201 28.308C110.235 21.1543 105.407 14.8903 99.2256 10.2042C98.0511 9.31441 96.8054 8.44837 95.4886 7.65351C94.6463 7.14337 93.7684 6.6451 92.8667 6.17056C90.0788 4.71133 87.1247 3.54869 84.0877 2.70638C81.0269 1.8522 77.8711 1.3302 74.7154 1.15225C73.3392 1.0692 71.9393 1.05735 70.5513 1.11667C69.9937 1.12853 69.4836 1.16412 68.9853 1.19971C64.4771 1.52002 60.0283 2.54029 55.7693 4.23678C44.8429 8.59072 36.3367 16.8953 31.8048 27.6318C27.3085 38.2734 27.2848 50.0421 31.7218 60.7668C37.7485 75.3234 51.3204 85.6211 67.1227 87.626C67.9532 87.7328 68.8074 87.8158 69.6378 87.8751C70.6699 87.9582 71.7021 87.9938 72.7223 87.9938ZM110.638 65.9275C106.984 72.3338 101.705 77.7199 95.3462 81.5044C94.0056 82.3111 92.6057 83.0348 91.2058 83.6873C90.5652 83.9839 89.8652 84.2923 89.0704 84.6126C86.9112 85.4668 84.6808 86.1668 82.4268 86.6769C80.5404 87.104 78.5948 87.4125 76.6373 87.5904C74.3477 87.7921 71.9987 87.8158 69.6734 87.6616C68.8429 87.6023 67.9888 87.5192 67.1702 87.4125C51.4509 85.4075 37.9501 75.1811 31.959 60.6956C27.5458 50.0421 27.5695 38.3328 32.0421 27.7504C36.5502 17.0732 45.009 8.81613 55.8642 4.48592C60.0995 2.80129 64.5246 1.78102 69.009 1.4607C69.4954 1.42511 70.0056 1.38952 70.5632 1.37766C71.9393 1.33021 73.3392 1.34208 74.7036 1.41326C77.8474 1.59121 80.9794 2.11321 84.0283 2.95552C87.0417 3.78598 89.9839 4.94861 92.7599 6.39597C93.6497 6.85865 94.5276 7.35691 95.3581 7.86704C96.6631 8.6619 97.9087 9.51608 99.0714 10.4059C105.217 15.0682 110.021 21.2966 112.976 28.4148C118.077 40.6936 117.223 54.3723 110.638 65.9275Z" fill="#371A45"/>
</g>
<g id="Group_46" opacity="0.25">
<path id="Vector_47" d="M31.8402 60.7313C38.0804 75.7981 51.9015 85.5855 67.1462 87.5193C67.9767 87.6261 68.819 87.7091 69.6613 87.7684C71.9747 87.9226 74.3 87.9108 76.6371 87.6972C78.5709 87.5193 80.5165 87.2227 82.4503 86.7837C84.6925 86.2855 86.911 85.5974 89.1176 84.7195C89.8413 84.4229 90.565 84.1144 91.2649 83.7941C92.7004 83.1297 94.0885 82.3942 95.4172 81.5993C101.954 77.6962 107.162 72.2746 110.745 65.975C112.714 62.5227 114.209 58.7975 115.158 54.93C111.587 60.8618 106.569 65.9631 100.329 69.6883C99 70.4832 97.6119 71.2187 96.1765 71.8831C95.4765 72.2034 94.7647 72.5118 94.0291 72.8084C91.8344 73.6863 89.604 74.3744 87.3618 74.8727C85.428 75.3116 83.4943 75.6082 81.5486 75.7862C79.2115 75.9997 76.8744 76.0116 74.5728 75.8574C73.7305 75.7981 72.8882 75.715 72.0578 75.6082C56.8012 73.6745 42.992 63.887 36.7517 48.8202C33.1096 40.0293 32.5994 30.7638 34.6993 22.222C27.9252 33.4687 26.4067 47.6339 31.8402 60.7313Z" fill="#371A45"/>
</g>
<g id="Group_47">
<path id="Vector_48" d="M72.7213 88.8123C74.0618 88.8123 75.4024 88.753 76.7311 88.6343C78.7361 88.4564 80.7292 88.1361 82.6629 87.6971C84.9645 87.1751 87.2542 86.4752 89.4608 85.5854C90.2794 85.2532 90.9912 84.9448 91.6556 84.6363C93.091 83.972 94.5147 83.2245 95.8909 82.406C102.392 78.5266 107.814 72.9981 111.551 66.4376C118.301 54.5977 119.179 40.5868 113.947 27.9758C110.934 20.6915 106.011 14.3089 99.7109 9.52789C98.5246 8.61439 97.2433 7.74836 95.9146 6.92977C95.0604 6.40778 94.1588 5.89763 93.2453 5.42309C90.398 3.94014 87.3965 2.75379 84.3001 1.89961C81.18 1.03357 77.965 0.499698 74.7499 0.321744C73.35 0.238698 71.9264 0.226843 70.5146 0.286161C69.957 0.298025 69.4232 0.33361 68.9249 0.369201C64.3337 0.701382 59.8137 1.73351 55.4716 3.4656C44.3435 7.90258 35.6712 16.3732 31.0563 27.2996C26.477 38.1548 26.4532 50.137 30.9733 61.0633C37.1186 75.8928 50.9278 86.3803 67.0267 88.4208C67.869 88.5276 68.7351 88.6106 69.5893 88.6699C70.6333 88.7767 71.6773 88.8123 72.7213 88.8123ZM109.925 65.5241C106.343 71.7999 101.158 77.0911 94.9299 80.8044C93.613 81.5874 92.2369 82.3111 90.8607 82.9517C90.2319 83.2483 89.5438 83.5449 88.7608 83.8533C86.6491 84.6956 84.4543 85.3718 82.2477 85.8701C80.397 86.2853 78.487 86.5938 76.5651 86.7599C74.311 86.9616 72.0213 86.9853 69.7316 86.8311C68.913 86.7718 68.0826 86.6887 67.2759 86.5938C51.8413 84.6363 38.6015 74.5879 32.7172 60.3753C28.387 49.9234 28.4107 38.4395 32.7884 28.0588C37.2017 17.5951 45.5062 9.48044 56.1715 5.23327C60.3357 3.57237 64.6777 2.57583 69.0791 2.26738C69.5893 2.23179 70.0875 2.1962 70.5977 2.18434C71.962 2.13688 73.3263 2.14874 74.6669 2.21992C77.7514 2.39787 80.8241 2.90801 83.8256 3.73846C86.7915 4.55705 89.6743 5.69596 92.403 7.11959C93.2809 7.57041 94.135 8.05681 94.9536 8.56694C96.2349 9.34994 97.4568 10.1804 98.5958 11.0583C104.634 15.6376 109.344 21.7474 112.239 28.7232C117.222 40.7766 116.379 54.1943 109.925 65.5241Z" fill="#371A45"/>
</g>
<g id="Group_48">
<path id="Vector_49" d="M72.7259 89.0852C74.0784 89.0852 75.4308 89.0259 76.7595 88.9073C78.7763 88.7293 80.7813 88.409 82.7269 87.97C85.0403 87.448 87.3419 86.7362 89.5722 85.8465C90.3908 85.5143 91.1145 85.2058 91.7788 84.8974C93.2262 84.233 94.6617 83.4737 96.0379 82.6552C102.587 78.752 108.032 73.188 111.805 66.5918C118.591 54.6808 119.48 40.575 114.213 27.8928C111.176 20.5611 106.217 14.1429 99.8817 9.33813C98.6834 8.42464 97.4022 7.54673 96.0616 6.72814C95.1955 6.20614 94.2939 5.69602 93.3804 5.20961C90.5213 3.7148 87.4961 2.52844 84.3878 1.66239C81.2558 0.79635 78.0171 0.262486 74.7783 0.0726681C73.3665 -0.010377 71.931 -0.0222464 70.5193 0.0370716C69.9498 0.0489351 69.4278 0.0845346 68.9177 0.120125C64.3027 0.452306 59.7471 1.4963 55.3813 3.22838C44.1821 7.68909 35.4623 16.2072 30.8237 27.2166C26.2206 38.1311 26.185 50.1964 30.7406 61.1939C36.9216 76.1064 50.8138 86.665 67.0195 88.7174C67.8737 88.8242 68.7397 88.9073 69.5939 88.9666C70.626 89.0496 71.6819 89.0852 72.7259 89.0852ZM109.693 65.3818C106.134 71.622 100.985 76.8657 94.7922 80.5672C93.4753 81.3502 92.1229 82.062 90.7467 82.6907C90.1179 82.9873 89.4298 83.2721 88.6587 83.5924C86.5589 84.4347 84.3759 85.0991 82.1812 85.5973C80.3423 86.0126 78.4441 86.3091 76.5341 86.4871C74.2919 86.6888 72.0141 86.7125 69.7481 86.5583C68.9295 86.499 68.111 86.4159 67.3042 86.321C51.9646 84.3754 38.8079 74.3862 32.9591 60.2685C28.6526 49.876 28.6764 38.4751 33.0303 28.1657C37.4199 17.7613 45.665 9.7059 56.2592 5.49433C60.3878 3.84529 64.7061 2.86062 69.0838 2.5403C69.5939 2.50471 70.0922 2.46911 70.5905 2.45725C71.9429 2.40979 73.2953 2.42166 74.6359 2.49284C77.6967 2.6708 80.7576 3.16906 83.7353 3.99951C86.6775 4.8181 89.5485 5.94515 92.2534 7.35692C93.1194 7.80773 93.9736 8.29414 94.7922 8.79241C96.0616 9.56354 97.2835 10.4059 98.4106 11.26C104.402 15.8038 109.088 21.878 111.971 28.8182C116.942 40.8004 116.111 54.1351 109.693 65.3818Z" fill="#371A45"/>
</g>
<g id="Group_49">
<path id="Vector_50" d="M104.021 74.8489C78.0398 92.0511 43.2439 78.7046 41.8559 48.0609C40.9068 27.2165 60.8613 10.3228 81.2074 10.8329C96.0132 11.2007 110.344 17.9511 116.181 40.7766C116.181 40.7766 117.19 51.2641 114.212 58.1805C111.234 65.097 107.153 71.3135 107.153 71.3135L104.021 74.8489Z" fill="#371A45"/>
</g>
<g id="Group_50">
<path id="Vector_51" d="M41.8564 48.061C43.2444 78.7046 78.0403 92.0512 104.022 74.849L104.65 74.1253C76.2727 78.5267 48.3339 61.2414 46.3408 30.2893C43.2682 35.5805 41.5717 41.6309 41.8564 48.061Z" fill="#220F2D"/>
</g>
<g id="Group_51">
<path id="Vector_52" d="M79.3576 88.1006C80.4135 88.1006 81.4694 88.065 82.5371 87.9938L82.7269 87.9701C85.0403 87.4481 87.3537 86.7363 89.5722 85.8465C90.3908 85.5143 91.1145 85.2059 91.7788 84.8974C93.2262 84.2331 94.6617 83.4738 96.0379 82.6552C102.587 78.7521 108.032 73.188 111.805 66.5919C118.591 54.6808 119.48 40.575 114.213 27.8928C111.176 20.5611 106.217 14.1429 99.8817 9.33817L99.6681 9.20768C94.4244 6.71632 88.3147 5.36387 81.505 5.18592C69.2499 4.88933 56.627 10.1212 47.7174 19.2087C39.6977 27.3946 35.5454 37.7159 36.0318 48.2982C36.5538 59.8059 41.145 69.7476 49.2953 77.0556C57.2321 84.15 68.0516 88.1006 79.3576 88.1006ZM82.2761 85.5855C70.5074 86.3211 59.0828 82.5603 50.9088 75.2523C43.2449 68.3951 38.9384 59.0348 38.4401 48.1914C37.9893 38.2972 41.8924 28.6047 49.4377 20.9052C57.8727 12.2922 69.8312 7.32137 81.4338 7.60609C87.852 7.76032 93.594 9.01786 98.5055 11.3313C104.449 15.875 109.1 21.9136 111.959 28.8063C116.93 40.8004 116.099 54.1232 109.681 65.3818C106.122 71.622 100.973 76.8658 94.7803 80.5672C93.4635 81.3502 92.111 82.062 90.7348 82.6908C90.1061 82.9874 89.418 83.2721 88.6468 83.5924C86.5944 84.4229 84.4471 85.0872 82.2761 85.5855Z" fill="#371A45"/>
</g>
<g id="Group_52">
<path id="Vector_53" d="M79.2476 83.0466C87.8724 83.0466 96.6515 80.4485 104.351 75.3471L104.47 75.2404L107.649 71.6338C107.685 71.5745 111.789 65.2987 114.755 58.4178C117.757 51.4539 116.82 41.1563 116.772 40.7292L116.76 40.6343C111.718 20.9288 99.7597 10.7024 81.2169 10.2397C70.4448 9.96687 59.3405 14.5818 51.5223 22.566C44.4872 29.7435 40.8451 38.8073 41.2603 48.0846C41.8654 61.5498 48.9717 72.7016 60.7522 78.6808C66.4942 81.6111 72.8294 83.0466 79.2476 83.0466ZM103.627 74.3981C90.5536 83.0229 74.3479 84.2686 61.2979 77.6368C49.9089 71.8474 43.0399 61.0634 42.4467 48.0372C42.0433 39.092 45.5668 30.3485 52.3647 23.4083C59.9692 15.6495 70.7414 11.177 81.1813 11.438C99.1072 11.8888 110.686 21.7949 115.586 40.8953C115.645 41.6427 116.44 51.5013 113.652 57.9551C110.84 64.4682 106.985 70.4475 106.664 70.9576L103.627 74.3981Z" fill="#371A45"/>
</g>
<g id="Group_53" opacity="0.5">
<path id="Vector_54" d="M70.7076 19.1732C70.7076 19.1732 89.3927 20.8103 99.4649 31.6892C99.4768 31.7011 99.4886 31.713 99.5005 31.7248C101.624 34.0145 103.071 36.8262 103.736 39.8514C104.614 43.8494 104.614 46.7323 104.531 49.2711C104.246 56.9824 102.656 60.5415 102.656 60.5415C107.247 56.6502 109.929 52.1302 110.225 45.7001C110.249 45.0714 110.261 44.407 110.237 43.7427C110.237 43.5884 110.225 43.4342 110.213 43.28C110.213 43.28 110.213 43.28 110.213 43.2681C110.083 41.9038 109.846 40.1243 109.407 38.143C108.078 32.1519 104.958 24.2745 97.543 20.3832C83.6982 13.1108 70.0907 18.3427 70.7076 19.1732Z" fill="white"/>
</g>
<g id="Group_54" opacity="0.5">
<path id="Vector_55" d="M56.0792 47.1064C53.0967 46.1506 51.5688 42.5988 52.6667 39.1733C53.7645 35.7478 57.0723 33.7457 60.0548 34.7016C63.0373 35.6574 64.5651 39.2092 63.4673 42.6347C62.3694 46.0602 59.0617 48.0623 56.0792 47.1064Z" fill="white"/>
</g>
<g id="Group_55" opacity="0.5">
<path id="Vector_56" d="M52.7686 55.8536C51.5814 55.3472 51.0919 53.8277 51.6754 52.4597C52.2589 51.0916 53.6943 50.3931 54.8816 50.8995C56.0688 51.4058 56.5582 52.9253 55.9748 54.2934C55.3913 55.6614 53.9558 56.3599 52.7686 55.8536Z" fill="white"/>
</g>
<g id="Group_56">
<path id="Vector_57" d="M29.5044 104.816C29.7654 104.816 30.0264 104.733 30.2518 104.555C30.7738 104.14 30.8687 103.381 30.4535 102.859C29.9552 102.23 18.1866 87.4006 7.8771 89.2157C7.2246 89.3343 6.77378 89.9631 6.89241 90.6156C7.01105 91.2681 7.63983 91.7189 8.29232 91.6003C17.1663 90.0462 28.4367 104.211 28.5435 104.354C28.7926 104.662 29.1485 104.816 29.5044 104.816Z" fill="#371A45"/>
</g>
<g id="Group_57">
<path id="Vector_58" d="M22.4225 45.7594C21.77 54.2774 26.3138 61.8227 32.5778 62.6294C38.8418 63.4243 44.4651 57.1722 45.1176 48.6541C45.1176 48.6066 45.1295 48.5473 45.1295 48.488C45.7226 40.0411 41.1907 32.5789 34.9624 31.7841C30.122 31.1672 25.6732 34.7618 23.5852 40.3496C22.9801 41.9986 22.5649 43.8256 22.4225 45.7594Z" fill="white"/>
</g>
<g id="Group_58" opacity="0.25">
<path id="Vector_59" d="M22.42 45.7593C21.7675 54.2774 26.3113 61.8227 32.5753 62.6294C38.8392 63.4242 44.4626 57.1721 45.1151 48.6541C45.1151 48.6066 45.127 48.5473 45.127 48.488C44.3677 49.271 43.2288 49.9947 41.8051 49.5201C39.3019 48.6897 35.1497 42.6274 35.1497 42.6274C35.1497 42.6274 30.1432 41.6071 23.5827 40.3495C22.9776 41.9986 22.5624 43.8256 22.42 45.7593Z" fill="#371A45"/>
</g>
<g id="Group_59">
<path id="Vector_60" d="M33.6712 63.9108C36.0202 63.9108 38.298 63.0566 40.3148 61.4076C43.7196 58.6315 45.9144 54.0165 46.3178 48.7491C47.0177 39.6141 41.9876 31.4638 35.1067 30.5859C32.3187 30.23 29.5901 31.0723 27.2174 33.0061C23.8125 35.7822 21.6178 40.3971 21.2144 45.6646C20.5144 54.7995 25.5446 62.9498 32.4255 63.8277C32.8407 63.887 33.2559 63.9108 33.6712 63.9108ZM33.8847 32.9231C34.1932 32.9231 34.5016 32.9468 34.8101 32.9824C40.4334 33.6942 44.5264 40.6818 43.9213 48.5593C43.5654 53.103 41.6554 57.2078 38.7963 59.5331C36.9455 61.0398 34.8457 61.6923 32.734 61.4313C27.1106 60.7195 23.0177 53.7318 23.6227 45.8544C23.9786 41.3106 25.8887 37.2058 28.7478 34.8806C30.3256 33.5993 32.0933 32.9231 33.8847 32.9231Z" fill="#371A45"/>
</g>
<g id="Group_60">
<path id="Vector_61" d="M20.7153 48.3782C20.5863 41.5916 24.6399 36.011 29.7692 35.9135C34.8984 35.8161 39.161 41.2387 39.29 48.0253C39.4189 54.8119 35.3654 60.3925 30.2361 60.49C25.1069 60.5874 20.8442 55.1648 20.7153 48.3782Z" fill="white"/>
<path id="Vector_62" d="M30.1015 60.6245C31.0624 60.6245 32.0234 60.4228 32.9606 60.0313C37.884 57.9671 40.5771 50.9675 38.9636 44.4544C38.062 40.8242 35.9858 37.9532 33.2809 36.5889C31.2641 35.5805 29.1168 35.4974 27.0644 36.3516C22.141 38.4159 19.448 45.4154 21.0614 51.9285C21.9631 55.5588 24.0392 58.4298 26.7441 59.7941C27.8356 60.3517 28.9626 60.6245 30.1015 60.6245ZM29.9117 36.0194C31.0031 36.0194 32.1065 36.2804 33.1623 36.8143C35.8079 38.143 37.8366 40.9547 38.7145 44.5137C40.3042 50.9201 37.6705 57.7773 32.8539 59.7941C30.8726 60.6245 28.7965 60.5533 26.8509 59.5687C24.2053 58.2399 22.1766 55.4283 21.2987 51.8692C19.709 45.4628 22.3427 38.6057 27.1593 36.5889C28.061 36.2092 28.9863 36.0194 29.9117 36.0194Z" fill="#371A45"/>
</g>
<g id="Group_61" opacity="0.25">
<path id="Vector_63" d="M38.3544 54.0995C39.1018 51.8929 39.2323 49.4727 38.8645 47.1593C36.7291 52.0471 31.9362 53.7198 27.7602 50.8607C25.0672 49.01 23.252 45.7001 22.6588 42.1172C22.5165 42.4257 22.3978 42.746 22.2792 43.0782C20.381 48.6897 22.4334 55.7129 26.8704 58.75C31.3193 61.7989 36.4562 59.711 38.3544 54.0995Z" fill="#371A45"/>
</g>
<g id="Group_62">
<path id="Vector_64" d="M29.8721 61.716C31.616 61.716 33.3007 61.0754 34.8192 59.8534C37.5834 57.6112 39.4223 53.6013 39.7544 49.1287C40.312 41.4411 36.5038 34.845 31.0703 34.1094C28.9942 33.8247 26.9536 34.4535 25.1504 35.9127C22.3861 38.1549 20.5473 42.1648 20.2151 46.6374C19.6575 54.325 23.4657 60.9211 28.8993 61.6567C29.2196 61.6923 29.5399 61.716 29.8721 61.716ZM30.1093 36.4584C30.3229 36.4584 30.5246 36.4703 30.7381 36.5059C34.7717 37.0516 37.7851 42.7461 37.3343 48.9508C37.0495 52.7709 35.5429 56.152 33.2888 57.979C32.0194 59.0111 30.6195 59.4501 29.2196 59.2602C25.1859 58.7145 22.1726 53.02 22.6234 46.8153C22.9081 42.9952 24.4148 39.6141 26.6689 37.7871C27.7366 36.9092 28.923 36.4584 30.1093 36.4584Z" fill="#371A45"/>
</g>
<g id="Group_63">
<path id="Vector_65" d="M119.903 177.006C120.152 177.006 120.401 176.888 120.555 176.674C120.816 176.318 120.733 175.808 120.365 175.559C120.081 175.357 113.247 170.541 107.909 174.385C107.553 174.646 107.47 175.144 107.731 175.5C107.992 175.856 108.49 175.939 108.858 175.678C113.259 172.51 119.381 176.817 119.44 176.864C119.57 176.959 119.737 177.006 119.903 177.006Z" fill="#371A45"/>
</g>
<g id="Group_64">
<path id="Vector_66" d="M116.692 182.333C116.989 182.333 117.273 182.167 117.416 181.894C117.617 181.503 117.451 181.016 117.06 180.815C116.834 180.708 111.603 178.133 105.03 179.082C104.591 179.142 104.283 179.557 104.354 179.996C104.413 180.435 104.817 180.743 105.267 180.672C111.354 179.794 116.301 182.226 116.348 182.25C116.443 182.309 116.573 182.333 116.692 182.333Z" fill="#371A45"/>
</g>
<g id="Group_65">
<path id="Vector_67" d="M108.906 189.226C109.238 189.226 109.546 189.024 109.665 188.692C109.819 188.277 109.605 187.814 109.178 187.66C108.929 187.565 102.974 185.441 98.9164 186.213C98.4774 186.296 98.1927 186.711 98.2758 187.15C98.3588 187.589 98.774 187.873 99.213 187.79C102.831 187.102 108.561 189.143 108.621 189.167C108.716 189.214 108.811 189.226 108.906 189.226Z" fill="#371A45"/>
</g>
<g id="Group_66">
<path id="Vector_68" d="M101.886 166.187C99.1215 168.856 96.9623 172.344 96.5827 176.211C97.769 175.025 99.0859 173.257 100.13 171.952C101.115 170.719 102.55 169.081 103.594 167.883C104.555 166.744 103.001 165.214 101.886 166.187Z" fill="#371A45"/>
</g>
<g id="Group_67">
<path id="Vector_69" d="M94.8814 117.975C92.0945 117.444 90.2657 114.754 90.7965 111.968C91.3273 109.181 94.0168 107.352 96.8036 107.883C99.5904 108.414 101.419 111.103 100.888 113.89C100.358 116.677 97.6682 118.506 94.8814 117.975Z" fill="white"/>
</g>
<g id="Group_68" opacity="0.25">
<path id="Vector_70" d="M100.982 113.074C100.911 115.909 98.55 118.151 95.7146 118.08C92.8792 118.009 90.6369 115.648 90.7081 112.801C90.7319 112.018 90.9217 111.27 91.2538 110.618C92.0368 112.374 93.7808 113.631 95.8213 113.679C97.8737 113.738 99.677 112.575 100.543 110.855C100.852 111.531 101.006 112.291 100.982 113.074Z" fill="#371A45"/>
</g>
<g id="Group_69">
<path id="Vector_71" d="M95.8459 119.29C99.2745 119.29 102.098 116.549 102.193 113.109C102.288 109.609 99.5118 106.679 96.012 106.596C92.5004 106.501 89.5938 109.277 89.4989 112.777C89.404 116.277 92.1801 119.195 95.6798 119.29C95.7392 119.29 95.7985 119.29 95.8459 119.29ZM95.8459 109.004C95.8815 109.004 95.9171 109.004 95.9527 109.004C97.0086 109.028 97.9814 109.467 98.7051 110.226C99.4287 110.985 99.8084 111.982 99.7846 113.038C99.7253 115.209 97.9102 116.905 95.751 116.87C94.6952 116.846 93.7223 116.407 92.9987 115.648C92.275 114.889 91.8954 113.892 91.9191 112.836C91.9665 110.701 93.7223 109.004 95.8459 109.004Z" fill="#371A45"/>
</g>
<g id="Group_70" opacity="0.35">
<path id="Vector_72" d="M96.0152 117.949C95.1373 112.172 94.9712 106.821 95.2085 102.064C95.3271 104.816 95.5881 107.699 96.0508 110.713C96.5847 114.236 96.7508 117.914 96.4186 121.532C96.3355 120.322 96.1932 119.124 96.0152 117.949Z" fill="#371A45"/>
</g>
<g id="Group_71">
<path id="Vector_73" d="M91.0638 127.903L64.2165 129.279C61.0371 129.445 58.2966 126.977 58.1424 123.798L57.4068 109.514C57.2645 106.726 59.1389 104.282 61.737 103.606C62.1048 103.511 62.4844 103.452 62.8878 103.428L89.7351 102.052C92.9146 101.886 95.655 104.354 95.8093 107.533L96.3906 118.851L96.5448 121.829C96.7109 125.008 94.2433 127.737 91.0638 127.903Z" fill="white"/>
</g>
<g id="Group_72">
<path id="Vector_74" d="M91.0638 127.903L64.2165 129.279C61.0371 129.445 58.2966 126.977 58.1424 123.798L57.4068 109.514C57.2645 106.726 59.1389 104.282 61.737 103.606C62.1048 103.511 62.4844 103.452 62.8878 103.428L89.7351 102.052C92.9146 101.886 95.655 104.354 95.8093 107.533L96.3906 118.851L96.5448 121.829C96.7109 125.008 94.2433 127.737 91.0638 127.903Z" fill="white"/>
</g>
<g id="Group_73">
<path id="Vector_75" d="M91.0638 127.903L64.2165 129.279C61.0371 129.445 58.2966 126.977 58.1424 123.798L57.4068 109.514C57.2645 106.726 59.1389 104.282 61.737 103.606C62.1048 103.511 62.4844 103.452 62.8878 103.428L89.7351 102.052C92.9146 101.886 95.655 104.354 95.8093 107.533L96.3906 118.851L96.5448 121.829C96.7109 125.008 94.2433 127.737 91.0638 127.903Z" fill="white"/>
</g>
<g id="Group_74" opacity="0.25">
<path id="Vector_76" d="M91.0999 127.903L64.2526 129.279C61.0732 129.445 58.3327 126.977 58.1784 123.798L57.4429 109.514C57.3005 106.726 59.175 104.282 61.7731 103.606C63.351 104.543 64.3475 105.137 64.3475 105.137C66.2457 116.538 69.8048 122.09 84.0648 121.591C90.222 121.378 94.0539 120.239 96.4385 118.851L96.5928 121.829C96.747 125.008 94.2794 127.737 91.0999 127.903Z" fill="#371A45"/>
</g>
<g id="Group_75">
<path id="Vector_77" d="M63.9096 130.501C64.0282 130.501 64.1468 130.501 64.2773 130.489L91.1247 129.113C92.9872 129.018 94.7075 128.2 95.9531 126.812C97.2107 125.424 97.8513 123.632 97.7564 121.77L97.0209 107.474C96.8192 103.618 93.5211 100.64 89.6773 100.842L62.83 102.218C58.9743 102.42 55.9965 105.718 56.1982 109.562L56.9338 123.857C57.1117 127.595 60.2081 130.501 63.9096 130.501ZM64.1468 128.081C61.6199 128.211 59.4726 126.266 59.3421 123.739L58.6065 109.443C58.476 106.916 60.4217 104.769 62.9486 104.638L89.7959 103.262C92.311 103.132 94.4702 105.077 94.6007 107.604L95.3362 121.9C95.3955 123.11 94.9803 124.285 94.1617 125.198C93.3431 126.112 92.2161 126.645 91.006 126.705L64.1468 128.081Z" fill="#371A45"/>
</g>
<g id="Group_76">
<path id="Vector_78" d="M92.1309 127.749C91.7868 127.844 91.4309 127.891 91.0631 127.915L64.2158 129.291C61.8906 129.41 59.7907 128.117 58.7823 126.159C58.4145 125.447 58.1891 124.652 58.1417 123.798L57.8095 117.451L57.7027 115.351L57.4061 109.503C57.24 106.323 59.7077 103.583 62.8871 103.428L68.6884 103.132C66.0428 103.772 64.1209 106.24 64.2633 109.052L64.6548 116.775L64.9988 123.347C65.1649 126.527 67.9054 128.994 71.073 128.828L92.1309 127.749Z" fill="white"/>
</g>
<g id="Group_77" opacity="0.25">
<path id="Vector_79" d="M92.1309 127.749C91.7868 127.844 91.4309 127.891 91.0631 127.915L64.2158 129.291C61.0364 129.457 58.2959 126.99 58.1417 123.81L57.7027 115.363C58.4501 116.822 59.767 118.59 61.7126 118.685C62.7803 118.732 63.7887 117.914 64.6666 116.775L65.0107 123.347C65.1768 126.527 67.9173 128.994 71.0848 128.828L92.1309 127.749Z" fill="#371A45"/>
</g>
<g id="Group_78">
<path id="Vector_80" d="M63.8958 130.501C64.0144 130.501 64.1449 130.501 64.2636 130.489L91.1227 129.113C91.5617 129.089 92.0006 129.03 92.4277 128.923L92.0718 126.539L71.0139 127.618C69.792 127.678 68.6294 127.262 67.7159 126.444C66.8024 125.625 66.2685 124.498 66.2092 123.288L65.4736 108.992C65.355 106.798 66.8261 104.828 68.9734 104.306L68.6294 101.922L62.8281 102.218C60.9655 102.313 59.2453 103.132 57.9996 104.52C56.742 105.908 56.1014 107.699 56.1963 109.562L56.9319 123.857C57.0268 125.72 57.8454 127.44 59.2334 128.686C60.5265 129.872 62.1756 130.501 63.8958 130.501ZM65.8296 127.998L64.1449 128.081C62.923 128.14 61.7603 127.725 60.8468 126.906C59.9333 126.088 59.3995 124.961 59.3402 123.751L58.6046 109.455C58.5453 108.245 58.9605 107.071 59.7791 106.157C60.5977 105.244 61.7248 104.71 62.9467 104.65L64.4534 104.579C63.4924 105.849 62.9704 107.45 63.0653 109.135L63.8009 123.43C63.8721 125.151 64.5957 126.764 65.8296 127.998Z" fill="#371A45"/>
</g>
<g id="Group_79">
<path id="Vector_81" d="M75.2258 115.778C75.2495 116.312 74.7038 120.607 74.7038 120.607C74.7038 120.607 73.3514 120.666 71.6905 120.749C69.6143 120.844 67.8348 118.768 67.7162 116.122C67.5975 113.477 69.1754 111.246 71.2515 111.152C72.6514 111.092 74.2649 111.009 74.2649 111.009C74.2649 111.009 75.1784 114.912 75.2258 115.778Z" fill="#22A7F0"/>
</g>
<g id="Group_80" opacity="0.25">
<path id="Vector_82" d="M75.2258 115.778C75.2495 116.312 74.7038 120.607 74.7038 120.607C74.7038 120.607 73.3514 120.666 71.6905 120.749C69.6143 120.844 67.8348 118.768 67.7162 116.122C67.5975 113.477 69.1754 111.246 71.2515 111.152C72.6514 111.092 74.2649 111.009 74.2649 111.009C74.2649 111.009 75.1784 114.912 75.2258 115.778Z" fill="#371A45"/>
</g>
<g id="Group_81">
<path id="Vector_83" d="M71.5496 121.651C71.6089 121.651 71.6683 121.651 71.7276 121.651L73.8156 121.556C74.7884 121.508 75.5832 120.773 75.7137 119.8C76.1527 116.241 76.1408 115.873 76.129 115.731C76.1052 115.221 75.8442 113.868 75.346 111.697C75.1324 110.748 74.2782 110.084 73.3054 110.143L71.2056 110.238C69.9124 110.297 68.7498 110.974 67.9194 112.148C67.1364 113.251 66.7449 114.675 66.8042 116.158C66.8754 117.641 67.3974 119.017 68.2753 120.049C69.1769 121.081 70.3277 121.651 71.5496 121.651ZM74.3138 115.814C74.3138 116.016 74.2071 117.119 73.9105 119.587C73.8986 119.681 73.8274 119.741 73.7325 119.753L71.6445 119.848C70.9327 119.871 70.2209 119.539 69.6514 118.875C69.0345 118.151 68.6668 117.166 68.6193 116.087C68.5719 115.007 68.8447 113.987 69.4023 113.216C69.9006 112.504 70.5768 112.101 71.3005 112.065L73.4003 111.97C73.4834 111.97 73.5664 112.029 73.5902 112.112C74.2308 114.96 74.3138 115.66 74.3138 115.814Z" fill="#371A45"/>
</g>
<g id="Group_82">
<path id="Vector_84" d="M70.7141 115.974C70.5931 113.323 72.1771 111.097 74.252 111.002C76.3269 110.907 78.1071 112.98 78.2281 115.631C78.3492 118.282 76.7652 120.507 74.6903 120.602C72.6153 120.697 70.8352 118.625 70.7141 115.974Z" fill="#22A7F0"/>
</g>
<g id="Group_83" opacity="0.7">
<path id="Vector_85" d="M70.7284 115.98C70.7403 116.182 70.7521 116.371 70.7877 116.561C71.0843 114.438 72.4961 112.812 74.2637 112.729C76.1857 112.646 77.8466 114.402 78.1787 116.775C78.2381 116.407 78.2499 116.027 78.2381 115.636C78.1194 112.99 76.3399 110.914 74.2637 111.009C72.1876 111.104 70.5979 113.334 70.7284 115.98Z" fill="white"/>
</g>
<g id="Group_84" opacity="0.25">
<path id="Vector_86" d="M70.7302 115.98C70.8488 118.626 72.6283 120.702 74.7045 120.607C76.7806 120.512 78.3585 118.282 78.2398 115.636C78.2161 115.221 78.1568 114.817 78.0619 114.438C77.5992 116.253 76.2942 117.57 74.7045 117.641C72.9605 117.724 71.4182 116.265 70.9081 114.224C70.7657 114.77 70.6946 115.363 70.7302 115.98Z" fill="#371A45"/>
</g>
<g id="Group_85">
<path id="Vector_87" d="M74.5618 121.508C74.6212 121.508 74.6805 121.508 74.7398 121.508C77.3142 121.39 79.2835 118.732 79.1412 115.589C78.9988 112.445 76.7803 109.977 74.2178 110.096C71.6434 110.214 69.674 112.872 69.8164 116.016C69.9588 119.088 72.0705 121.508 74.5618 121.508ZM74.3957 111.911C75.9261 111.911 77.2311 113.572 77.3261 115.672C77.421 117.819 76.2227 119.622 74.6567 119.693C73.0907 119.741 71.7264 118.08 71.6315 115.933C71.5366 113.785 72.7348 111.982 74.3008 111.911C74.3364 111.911 74.3602 111.911 74.3957 111.911Z" fill="#371A45"/>
</g>
<g id="Group_86">
<path id="Vector_88" d="M82.7143 129.137C82.7261 129.137 82.7261 129.137 82.738 129.137C83.2363 129.125 83.6278 128.71 83.6159 128.199L83.4142 120.963C83.3786 119.586 84.0311 118.293 85.1582 117.499C86.8191 116.324 87.7563 114.414 87.6614 112.385L87.175 102.194C87.1513 101.696 86.7242 101.293 86.2259 101.328C85.7276 101.352 85.3361 101.779 85.3599 102.278L85.8463 112.468C85.9174 113.88 85.265 115.209 84.1142 116.016C82.4889 117.154 81.5516 119.029 81.611 121.01L81.8126 128.247C81.8126 128.745 82.216 129.137 82.7143 129.137Z" fill="#371A45"/>
</g>
<g id="Group_87">
<g id="Group_88">
<path id="Vector_89" d="M34.0806 109.265C34.0806 109.265 31.6011 111.246 31.4825 114.295C31.352 117.819 33.5586 119.254 33.5586 119.254C33.5586 119.254 43.2155 124.202 58.7094 120.915C58.7094 120.915 63.265 115.15 58.1874 111.899C58.1993 111.899 41.8394 114.141 34.0806 109.265Z" fill="white"/>
</g>
<g id="Group_89">
<path id="Vector_90" d="M48.2232 123.264C51.3908 123.264 54.9854 122.944 58.9716 122.102L59.3987 122.007L59.6716 121.663C59.7783 121.532 62.2934 118.305 61.7358 114.972C61.4511 113.299 60.4901 111.923 58.8648 110.879L58.4852 110.641L58.0462 110.701C57.892 110.724 42.0304 112.824 34.7343 108.245L34.0106 107.794L33.3344 108.328C33.2157 108.423 30.4159 110.689 30.2854 114.26C30.1312 118.424 32.8005 120.203 32.9192 120.275L33.0259 120.334C33.3225 120.488 38.8747 123.264 48.2232 123.264ZM58.0107 119.824C44.0353 122.659 35.0546 118.626 34.1886 118.21C33.9394 118.021 32.6107 116.87 32.6937 114.343C32.7531 112.741 33.6547 111.46 34.2716 110.772C41.8406 114.817 55.1753 113.477 57.892 113.156C58.7225 113.773 59.197 114.497 59.3394 115.375C59.636 117.143 58.5208 119.065 58.0107 119.824Z" fill="#371A45"/>
</g>
<g id="Group_90" opacity="0.25">
<path id="Vector_91" d="M31.4833 114.295C31.3528 117.819 33.5594 119.254 33.5594 119.254C33.5594 119.254 43.2164 124.202 58.7103 120.915C58.7103 120.915 60.2051 119.017 60.5254 116.787C60.4542 116.894 60.4068 116.953 60.4068 116.953C49.077 119.361 40.8793 117.356 37.2846 116.111C34.7814 115.245 33.1205 112.979 33.1798 110.44C33.1798 110.404 33.1798 110.369 33.1798 110.333C33.1798 110.274 33.1798 110.214 33.1917 110.155C32.468 111.033 31.5545 112.468 31.4833 114.295Z" fill="#371A45"/>
</g>
</g>
</g>
</g>
<g id="Group_91">
<path id="Vector_92" d="M65.1616 166.46C65.5769 166.46 65.9684 166.246 66.2056 165.866C78.8641 144.737 92.531 148.463 93.1123 148.64C93.7529 148.83 94.4291 148.463 94.6189 147.822C94.8088 147.181 94.4528 146.517 93.8122 146.315C93.1597 146.125 77.8201 141.771 64.1414 164.621C63.7973 165.19 63.9871 165.938 64.5566 166.282C64.7345 166.4 64.9481 166.46 65.1616 166.46Z" fill="#371A45"/>
</g>
</g>
</svg>
