<svg width="228" height="200" viewBox="0 0 228 200" fill="none" xmlns="http://www.w3.org/2000/svg">
<g clip-path="url(#clip0_258_138)">
<rect width="228" height="200" fill="white"/>
<path d="M181.267 87.4078C185.506 92.2568 187.988 99.6572 188.947 107.367C190.176 117.301 188.866 127.735 185.476 133.843C179.455 144.691 164.724 140.945 164.724 140.945L160.929 101.991C160.688 101.273 160.73 99.9815 160.91 98.5432C161.163 96.453 161.686 94.0343 161.968 92.6096C162.449 90.1834 171.571 76.3184 181.267 87.4078Z" fill="#FEFEFE"/>
<g opacity="0.25">
<path d="M177.567 84.3115C178.626 85.0003 179.718 85.9366 180.813 87.1631C191.036 98.5996 192.08 123.421 186.092 134.297C180.108 145.167 164.844 141.069 164.844 141.069L164.508 138.234C169.467 138.649 177.61 138.068 181.611 130.804C184.349 125.834 185.614 117.95 185.204 109.755C184.905 103.713 179.532 99.1227 173.54 99.9529C169.148 100.56 166.041 102.941 166.041 102.941L160.242 98.1598C160.496 96.0696 161.018 93.6508 161.301 92.2261C161.71 90.1765 168.319 79.9015 176.234 83.5644C176.239 83.5691 176.255 83.5732 176.26 83.5779C176.644 83.7613 177.03 83.9752 177.418 84.2194C177.476 84.2512 177.519 84.279 177.567 84.3115Z" fill="#371A45"/>
</g>
<path d="M184.837 137.355C185.571 136.517 186.223 135.587 186.787 134.572C189.899 128.955 191.384 120.003 190.762 110.62C190.085 100.558 187.04 91.7377 182.394 86.4267C178.012 81.414 173.757 81.2528 170.959 82.0037C165.118 83.5677 160.896 90.2764 160.492 92.3206L160.334 93.0901C159.544 97.0039 158.885 100.659 159.509 102.477C159.78 103.259 160.628 103.677 161.411 103.416C162.198 103.15 162.61 102.297 162.349 101.515C161.939 100.314 162.914 95.5019 163.278 93.6897L163.439 92.9046C163.646 91.8721 167.057 86.1442 171.758 84.9004C174.621 84.14 177.445 85.3232 180.146 88.4045C189.235 98.8006 190.118 122.41 184.175 133.125C178.796 142.824 165.661 139.645 165.107 139.503C164.309 139.302 163.49 139.789 163.289 140.587C163.087 141.385 163.569 142.198 164.372 142.405C164.533 142.45 168.361 143.404 172.998 142.964C177.989 142.48 182.029 140.562 184.837 137.355Z" fill="#371A45"/>
<path d="M56.674 75.3758C56.9769 75.7174 58.4295 84.3374 58.2127 85.2942C57.996 86.251 53.3546 99.4624 53.3546 99.4624C53.3546 99.4624 58.3866 104.519 55.3905 107.122C53.6229 108.66 47.8257 107.969 43.3696 107.144C40.2597 106.571 37.8025 105.929 37.8025 105.929C37.8025 105.929 27.9096 120.151 24.7118 116.328C21.5092 112.511 22.0254 101.391 22.0254 101.391C22.0254 101.391 6.76883 95.4844 6.4071 91.7947C6.04537 88.105 21.3671 82.6982 21.3671 82.6982C21.3671 82.6982 20.6714 71.8935 22.7752 66.5121C23.3506 65.0476 24.1307 63.9821 25.1885 63.6471C28.7514 62.5245 37.3707 76.7418 37.3707 76.7418L49.0802 70.79C49.0802 70.79 56.3712 75.0342 56.674 75.3758Z" fill="#E94E1B"/>
<g opacity="0.2">
<path d="M56.6735 75.3761C56.9047 75.6358 57.8015 80.7114 58.1209 83.5328C51.0676 78.417 49.5726 84.9145 49.5726 84.9145L45.2226 92.9919C45.2226 92.9919 52.9519 102.312 54.2291 104.749C55.3772 106.929 51.7812 107.86 51.0285 108.033C48.663 108.006 45.8135 107.594 43.369 107.144C48.5472 89.1954 25.0373 68.4459 22.7848 66.5117C23.3602 65.0471 24.1403 63.9817 25.1981 63.6467C28.761 62.5241 37.3804 76.7414 37.3804 76.7414L49.0898 70.7896C49.0797 70.7902 56.3707 75.0345 56.6735 75.3761Z" fill="#000072"/>
</g>
<g opacity="0.7">
<path d="M24.4846 82.1601C24.4846 82.1601 9.16285 87.5669 9.52458 91.2566C9.88631 94.9463 25.1429 100.853 25.1429 100.853C25.1429 100.853 24.6267 111.972 27.8293 115.79C27.9732 115.964 28.1247 116.096 28.2944 116.197C26.8306 117.094 25.5321 117.333 24.6967 116.334C21.4941 112.516 22.0103 101.397 22.0103 101.397C22.0103 101.397 6.75372 95.4902 6.392 91.8005C6.03027 88.1107 21.352 82.7039 21.352 82.7039C21.352 82.7039 20.2483 65.207 25.1936 63.6515C25.7077 63.4901 26.3243 63.6479 27.0072 64.0356C23.5981 68.0161 24.4846 82.1601 24.4846 82.1601Z" fill="#FEFEFE"/>
</g>
<path d="M56.4875 107.538C57.0606 106.884 57.3841 106.078 57.4115 105.184C57.5024 102.789 55.5321 100.271 54.5851 99.2026C55.6953 96.047 59.0572 86.4354 59.2625 85.5354C59.3092 85.3184 59.4637 84.651 58.7027 79.9332C57.939 75.1748 57.6747 74.8765 57.4821 74.6601C57.3496 74.5058 57.0636 74.1885 49.6246 69.8625C49.3068 69.6797 48.9186 69.6647 48.5933 69.8289L37.7713 75.3348C36.969 74.0686 35.347 71.578 33.4829 69.1239C29.566 63.9836 26.9165 61.9789 24.8754 62.6185C19.7853 64.2192 20.0277 77.6367 20.2377 81.958C18.9202 82.4478 16.1039 83.5361 13.2746 84.8902C5.87786 88.4269 5.19604 90.5913 5.32335 91.8972C5.69788 95.7032 16.5634 100.383 20.9164 102.112C20.8592 104.785 20.9269 113.492 23.8807 117.015C24.4837 117.734 25.3018 118.087 26.2519 118.05C30.2493 117.871 36.2736 109.922 38.2601 107.152C41.9115 108.056 53.0855 110.55 56.1006 107.925C56.2305 107.81 56.3644 107.679 56.4875 107.538ZM52.5843 100.222C53.3489 100.996 55.3199 103.372 55.257 105.113C55.2386 105.604 55.0545 105.977 54.679 106.308C52.9114 107.846 43.901 106.406 38.0744 104.887C37.6389 104.773 37.1716 104.947 36.9158 105.315C34.1112 109.347 28.7103 115.788 26.1554 115.901C25.8808 115.909 25.703 115.839 25.5367 115.636C23.1358 112.77 22.9645 104.421 23.0982 101.442C23.1187 100.983 22.8409 100.558 22.4068 100.388C22.3703 100.375 18.5845 98.9041 14.8166 97.0092C7.83972 93.5083 7.49141 91.8655 7.46983 91.6938C7.4658 91.6329 7.40012 90.1039 14.1888 86.847C17.8771 85.0793 21.6747 83.7324 21.7146 83.7195C22.1678 83.5621 22.4642 83.1146 22.4326 82.6378C21.9997 75.723 22.6724 65.5816 25.5164 64.6799C25.5813 64.6603 27.0739 64.2761 31.7552 70.4203C34.2939 73.7518 36.4376 77.2724 36.4552 77.3069C36.7471 77.7919 37.3598 77.9653 37.8623 77.7078L49.0442 72.0201C51.5823 73.4973 54.9019 75.4678 55.776 76.0518C56.1724 77.4978 57.2404 84.0801 57.1541 85.0843C56.9354 85.9342 54.094 94.1001 52.3325 99.1125C52.1951 99.4986 52.295 99.9301 52.5843 100.222Z" fill="#371A45"/>
<path d="M222.906 99.37C219.195 108.791 213.278 109.514 207.193 108.705C206.262 108.578 205.33 108.421 204.396 108.254C197.378 106.971 193.445 102.428 185.656 97.2032C177.92 92.0155 168.017 97.3993 167.86 97.4811C167.86 97.4811 174.521 109.821 173.289 123.678C172.058 137.534 164.752 146.51 164.752 146.51C164.752 146.51 170.994 148.843 175.188 152.095C179.387 155.342 182.64 157.617 184.195 167.55C185.75 177.482 178.216 190.091 167.655 187.169C166.831 186.943 166.079 186.667 165.39 186.341C157.254 182.57 158.153 173.076 158.153 173.076C132.463 172.013 127.56 158.67 127.56 158.67C124.366 160.986 121.955 161.655 120.431 161.791C119.235 161.891 118.583 161.664 118.53 161.627C118.53 161.627 116.747 171.389 117.544 176.033C118.341 180.677 116.721 184.982 111.196 187.788C102.313 191.811 93.9137 192.051 87.0174 190.226C87.012 190.222 87.0072 190.227 87.0018 190.222C77.3 187.651 70.5733 181.005 69.6403 175.076C67.2265 161.793 78.9408 153.609 87.9746 157.555C86.0404 145.665 93.4068 136.828 110.047 131.018L114.074 119.762L115.716 115.171C112.676 115.27 109.57 115.14 106.403 114.774C94.2976 113.376 81.2066 108.553 67.0493 100.016C66.3063 99.5662 65.5579 99.1115 64.8135 98.6412C64.8135 98.6412 62.4235 99.09 59.5608 99.3256C57.95 99.463 56.1917 99.5285 54.631 99.4231C54.2469 99.3926 53.8777 99.3559 53.5226 99.303L47.8123 92.5444L51.5866 86.7721C51.5866 86.7721 43.3441 91.5365 40.5544 86.6475C40.5368 86.613 40.5193 86.5785 40.4963 86.5393C39.5428 84.7584 40.1703 83.0051 41.5451 81.457C43.9197 78.778 48.521 76.7206 51.005 76.2299C51.005 76.2299 51.0727 76.1745 51.1681 76.0764C51.555 75.6891 52.4014 74.6243 51.0486 73.8123C50.4597 73.4591 48.6209 73.6931 46.4858 74.1453C42.5322 74.983 37.5436 76.577 37.5436 76.577C37.5436 76.577 33.6625 73.1308 37.7588 70.6789C40.3555 69.1212 46.6237 69.0776 53.8833 70.466C54.4872 70.5839 55.0964 70.7065 55.7165 70.8386C56.8018 71.0723 57.9046 71.3406 59.0149 71.644C61.6344 72.3516 64.3005 73.2243 66.901 74.2593C66.901 74.2593 83.5111 80.8354 89.1431 80.2634C89.2696 80.25 89.396 80.2365 89.5117 80.2135C92.6936 79.646 118.308 76.2009 137.855 73.5859C150.408 71.9083 160.458 70.5799 160.458 70.5799C162.878 69.6706 165.42 69.0488 168.04 68.6968C168.51 68.63 168.975 68.5788 169.456 68.5316C184.241 67.0983 200.99 74.0064 209.949 86.2756C214.523 86.0285 227.183 88.5057 222.906 99.37Z" fill="#FEFEFE"/>
<g opacity="0.25">
<path d="M122.542 91.9677C110.695 103.685 115.714 115.161 115.714 115.161L115.699 120.699L114.073 119.753L115.714 115.161C112.675 115.261 105.404 114.713 102.237 114.348C115.561 112.39 114.388 103.069 100.758 92.7289L104.606 82.6827C105.287 82.1231 105.942 82.477 110.652 80.6671C115.361 78.8573 134.384 80.2556 122.542 91.9677Z" fill="#371A45"/>
</g>
<path d="M119.493 162.776C119.819 162.403 119.953 161.88 119.802 161.375C117.629 153.796 110.658 144.233 102.026 141.432C97.3456 139.914 92.8679 140.684 89.0662 143.662C88.4175 144.173 88.3015 145.113 88.8084 145.768C89.3154 146.422 90.2601 146.532 90.9142 146.025C93.9312 143.66 97.362 143.081 101.1 144.291C108.467 146.681 114.93 155.274 116.923 162.208C117.154 163.002 117.984 163.462 118.774 163.236C119.064 163.146 119.308 162.987 119.493 162.776Z" fill="#371A45"/>
<path d="M165.709 147.655C165.842 147.503 165.947 147.318 166.01 147.115C166.253 146.325 165.815 145.483 165.025 145.239C151.469 141.023 136.679 144.067 131.348 152.184C129.529 154.948 127.386 160.648 133.475 167.748C134.016 168.375 134.963 168.45 135.59 167.909C136.216 167.368 136.291 166.421 135.75 165.794C132.134 161.576 131.473 157.443 133.852 153.831C137.827 147.786 150.538 143.877 164.14 148.105C164.722 148.28 165.33 148.087 165.709 147.655Z" fill="#371A45"/>
<path d="M184.066 97.0233C184.44 96.5961 184.556 95.9719 184.306 95.418C184.055 94.864 178.567 82.156 189.718 72.3898C190.339 71.8443 190.403 70.8976 189.858 70.2766C189.312 69.6556 188.366 69.591 187.745 70.1365C181.028 76.0173 179.707 82.9158 179.778 87.6692C179.857 92.7837 181.509 96.4949 181.581 96.6531C181.921 97.41 182.809 97.7383 183.561 97.4032C183.754 97.314 183.928 97.1801 184.066 97.0233Z" fill="#371A45"/>
<path d="M90.2479 110.614C92.45 108.099 98.029 101.117 100.719 92.1966C100.956 91.4014 100.509 90.5701 99.7184 90.3271C98.9232 90.0894 98.0919 90.5367 97.8489 91.3272C94.7416 101.63 87.2566 109.446 87.1802 109.523C86.6078 110.111 86.6203 111.068 87.2138 111.645C87.8074 112.222 88.7589 112.205 89.3312 111.617C89.3982 111.551 89.727 111.208 90.2479 110.614Z" fill="#371A45"/>
<g opacity="0.25">
<path d="M62.3102 86.3005C60.5267 81.681 54.5566 78.689 48.5484 79.8871C43.3247 80.9312 41.0068 85.3895 40.4924 86.5443C39.5389 84.7634 40.1665 83.0101 41.5412 81.4621C43.9159 78.783 48.5171 76.7256 51.0012 76.2349C51.0012 76.2349 51.0688 76.1795 51.1642 76.0815C52.9582 76.3243 54.9577 76.8234 57.0598 77.6418C63.4075 80.1044 62.3102 86.3005 62.3102 86.3005Z" fill="#371A45"/>
</g>
<g opacity="0.25">
<path d="M89.1384 80.2693C97.3852 87.3284 104.795 93.903 104.795 93.903C104.795 93.903 88.1244 86.414 79.2988 84.3041C70.4733 82.1942 68.7189 91.6177 67.1418 95.1863C65.5648 98.7549 70.985 101.982 70.985 101.982L67.0433 100.002C66.3003 99.5518 65.5518 99.0971 64.8075 98.6268C64.8075 98.6268 62.4174 99.0756 59.5548 99.3112C64.9827 96.659 60.5185 93.8678 60.5185 93.8678C68.0865 95.2969 72.9423 78.5563 55.6211 71.0135L55.7111 70.8344C56.7964 71.0681 57.8993 71.3363 59.0095 71.6397C61.629 72.3474 64.2951 73.2201 66.8956 74.255C66.9017 74.2699 83.5118 80.846 89.1384 80.2693Z" fill="#371A45"/>
</g>
<g opacity="0.25">
<path d="M51.0039 87.6564L55.8352 92.5272C51.1272 94.2045 53.9813 98.5288 54.6315 99.4231C54.2474 99.3925 53.8782 99.3558 53.5232 99.303L47.8129 92.5444L51.0039 87.6564Z" fill="#371A45"/>
</g>
<g opacity="0.25">
<path d="M222.734 99.5347C219.023 108.955 213.105 109.679 207.02 108.87L206.871 108.615C226.366 105.84 217.182 87.2486 205.236 89.7928C196.569 79.4605 184.563 73.5725 173.466 73.5439C169.395 73.5336 165.582 75.498 163.144 78.7518C148.095 98.8069 128.65 97.1054 128.65 97.1054L137.673 73.7615C150.226 72.0838 160.276 70.7554 160.276 70.7554C162.696 69.8461 165.238 69.2243 167.859 68.8723C167.869 68.8716 167.869 68.8716 167.879 68.871C168.045 68.8446 168.212 68.8285 168.374 68.8076C168.47 68.7961 168.571 68.7793 168.672 68.7725C168.874 68.7489 169.072 68.7308 169.274 68.7072C184.065 67.2785 200.819 74.1813 209.773 86.4559C214.355 86.1878 227.011 88.6705 222.734 99.5347Z" fill="#371A45"/>
</g>
<g opacity="0.25">
<path d="M136.97 124.485L150.862 111.196L151.303 113.923C151.303 113.923 156.908 116.709 149.876 121.455C142.845 126.2 147.135 132.441 147.135 132.441C151.185 134.735 148.47 137.442 148.47 137.442C134.71 130.351 125.895 148.699 125.895 148.699C125.895 148.699 126.194 139.071 133.456 135.34L136.97 124.485Z" fill="#371A45"/>
</g>
<g opacity="0.25">
<path d="M167.687 97.6352C167.687 97.6352 174.348 109.975 173.117 123.832C171.886 137.688 164.579 146.665 164.579 146.665C164.579 146.665 170.822 148.997 175.016 152.249C179.215 155.496 182.468 157.771 184.023 167.704C185.578 177.637 178.044 190.245 167.483 187.323C166.658 187.097 165.906 186.821 165.217 186.495L165.253 186.421C165.253 186.421 170.087 189.871 175.721 179.946C181.354 170.02 172.866 150.557 150.192 144.882C150.192 144.882 165.321 141.027 163.203 121.055C163.203 121.055 162.911 109.123 159.324 101.654C159.329 101.658 163.949 98.2599 167.687 97.6352Z" fill="#371A45"/>
</g>
<g opacity="0.25">
<path d="M115.204 146.646C118.696 152.294 123.367 156.202 126.309 158.254C126.367 158.581 126.43 158.913 126.498 159.25C124.712 160.514 122.648 161.431 120.268 161.955C119.073 162.055 118.421 161.828 118.368 161.791C118.368 161.791 116.585 171.552 117.382 176.196C118.178 180.84 116.559 185.146 111.034 187.952C102.151 191.974 93.7514 192.215 86.8551 190.39C87.4535 190.503 100.006 192.743 106.474 185.259C113.098 177.586 100.997 176.411 95.4511 172.204C89.9095 167.992 82.8113 163.658 79.6408 164.322C79.6408 164.322 85.3581 161.579 94.7599 167.003C94.7599 167.003 97.9873 169.657 102.537 169.284C107.088 168.921 113.151 162.019 110.301 148.535C110.29 148.526 112.097 146.506 115.204 146.646Z" fill="#371A45"/>
</g>
<path d="M197.853 106.069C197.853 106.069 198.71 112.075 203.421 113.22C208.133 114.364 211.202 109.092 211.202 109.092L197.853 106.069Z" fill="#FEFEFE"/>
<path d="M180.601 184.345C184.437 179.964 186.422 173.322 185.509 167.468C183.902 157.213 180.369 154.482 176.273 151.315L175.935 151.057C172.981 148.767 169.142 146.953 166.913 145.995C169.103 142.753 173.643 134.851 174.613 123.967C175.64 112.416 171.438 102.048 169.71 98.3469C172.506 97.1733 179.269 94.993 184.648 98.6049C186.829 100.065 188.668 101.446 190.448 102.785C194.994 106.202 198.586 108.899 203.96 109.887C211.659 111.298 219.561 111.701 224.135 100.083C225.997 95.3497 224.814 92.1831 223.496 90.3601C220.585 86.3401 214.334 84.9459 210.518 84.9391C199.191 70.0708 176.721 63.0834 159.929 69.2957C155.465 69.887 94.2044 77.9974 89.0842 78.9124C85.1421 79.6169 72.0132 74.914 67.289 73.0417C55.4998 68.3366 41.5481 66.7448 36.8343 69.5636C34.8646 70.7436 34.3386 72.1844 34.2469 73.1839C34.0147 75.6751 36.1475 77.6478 36.3915 77.8711C36.787 78.2269 37.3394 78.3381 37.8433 78.1773C41.8194 76.9102 46.507 75.6927 48.8956 75.3765C45.5552 76.4741 40.5249 79.1305 38.9094 82.6558C38.1432 84.3164 38.2095 86.0084 39.0914 87.5546C39.8699 88.9243 41.0834 89.8627 42.5981 90.2718C44.206 90.7052 45.9765 90.5165 47.5597 90.1161L46.3939 91.8949C46.0332 92.4486 46.0763 93.1742 46.5021 93.6809L52.2124 100.439C52.4449 100.719 52.783 100.901 53.1434 100.958C56.9958 101.513 62.5345 100.688 64.3382 100.385C81.8968 111.279 98.3924 116.818 113.408 116.867L108.712 130.011C92.9238 135.688 85.3168 144.277 86.0604 155.573C81.9275 154.629 77.4267 155.666 73.8496 158.496C68.9657 162.36 66.7837 168.715 68.0071 175.491C68.7971 180.492 73.1501 185.679 79.3689 189.042C88.9 194.187 100.665 194.294 111.644 189.318C111.664 189.306 111.683 189.295 111.708 189.288C117.302 186.446 119.846 181.708 118.857 175.941C118.286 172.632 119.156 166.313 119.601 163.492C121.232 163.506 123.704 162.986 126.829 161.021C129.063 164.745 136.368 173.435 156.439 174.662C156.545 179.255 158.797 186.483 167.09 188.776C171.391 189.963 175.677 188.909 179.155 185.811C179.66 185.354 180.142 184.869 180.601 184.345ZM166.562 96.6503C166.159 97.11 166.066 97.7835 166.374 98.349C166.438 98.4721 172.807 110.48 171.635 123.701C170.46 136.947 163.496 145.631 163.431 145.717C163.124 146.089 163.02 146.59 163.148 147.055C163.275 147.52 163.616 147.895 164.07 148.064C164.128 148.085 170.152 150.361 174.115 153.429L174.453 153.687C178.335 156.685 181.138 158.853 182.565 167.928C183.429 173.434 181.155 180.013 177.177 183.563C175.272 185.258 172.12 187.036 167.906 185.879C158.659 183.323 159.452 173.775 159.492 173.37C159.531 172.965 159.397 172.551 159.132 172.242C158.861 171.929 158.477 171.746 158.064 171.727C145.349 171.2 138.057 167.557 134.187 164.588C130.039 161.415 128.831 158.321 128.813 158.286C128.647 157.854 128.288 157.511 127.841 157.378C127.394 157.245 126.91 157.328 126.531 157.597C121.85 160.989 119.232 160.455 118.957 160.387C118.585 160.233 118.167 160.23 117.786 160.393C117.325 160.591 116.991 161.006 116.902 161.501C116.827 161.913 115.083 171.576 115.909 176.427C116.68 180.904 114.818 184.319 110.383 186.579C100.267 191.146 89.4834 191.077 80.7921 186.38C75.3711 183.449 71.5973 179.083 70.9638 174.984C70.9632 174.974 70.9571 174.959 70.9564 174.949C69.928 169.27 71.7072 163.987 75.7105 160.823C79.113 158.127 83.5258 157.452 87.2141 159.067C87.7178 159.288 88.2987 159.214 88.735 158.88C89.1713 158.545 89.3845 157.996 89.2928 157.457C87.4732 146.299 94.3713 138.16 110.374 132.575C110.802 132.425 111.142 132.091 111.292 131.669L116.951 115.822C117.119 115.358 117.043 114.833 116.752 114.435C116.461 114.036 115.987 113.803 115.494 113.82C100.361 114.309 83.5174 108.828 65.4321 97.5204C65.113 97.3174 64.7316 97.251 64.3644 97.3212C64.2988 97.3306 58.204 98.4529 54.1116 98.0415L49.4962 92.5858L52.6602 87.7505C53.0446 87.1698 52.9684 86.4056 52.4919 85.9023C52.0153 85.399 51.2539 85.2864 50.6553 85.6318C49.4385 86.3339 45.7394 88.0157 43.3579 87.3635C42.6006 87.159 42.0638 86.7463 41.6719 86.0591C41.2738 85.357 41.2538 84.6706 41.6098 83.893C42.8782 81.1243 48.1708 78.4301 51.108 77.8585C51.3494 77.8119 51.5767 77.7051 51.7654 77.5551C52.0069 77.3557 53.2009 76.3086 53.0993 74.8533C53.061 74.3515 52.8246 73.3993 51.6415 72.6881C50.8721 72.2246 49.5143 71.8765 43.1184 73.5281C40.9847 74.0771 38.9665 74.6795 37.8432 75.024C37.4964 74.5579 37.166 73.9532 37.2189 73.4454C37.2603 72.9943 37.6487 72.5509 38.3643 72.1265C41.8728 70.0294 54.51 71.1582 66.1789 75.8152C68.0045 76.5348 84.1224 82.8328 89.6099 81.8475C94.7402 80.9318 159.834 72.3178 160.485 72.2288C160.596 72.2112 160.707 72.1835 160.816 72.1457C176.682 66.1833 198.106 72.9905 208.562 87.3255C208.86 87.7388 209.348 87.9662 209.861 87.9373C213.033 87.7525 218.787 88.9504 221.064 92.1005C222.365 93.8991 222.453 96.145 221.341 98.9747C217.583 108.516 211.743 108.256 204.497 106.928C199.82 106.071 196.646 103.683 192.249 100.378C190.523 99.0764 188.566 97.6116 186.322 96.1048C177.866 90.4298 167.41 96.0745 166.972 96.3124C166.806 96.4151 166.671 96.5259 166.562 96.6503Z" fill="#371A45"/>
<path d="M128.516 159.814C128.857 159.425 128.989 158.871 128.806 158.348C127.063 153.181 125.379 143.537 133.591 136.997C134.239 136.475 134.345 135.536 133.828 134.892C133.317 134.244 132.367 134.139 131.724 134.655C124.572 140.346 122.529 149.106 125.966 159.311C126.233 160.098 127.08 160.516 127.863 160.255C128.127 160.161 128.346 160.009 128.516 159.814Z" fill="#371A45"/>
<path d="M145.939 110.402L141.215 132.121C138.768 132.252 135.602 133.98 133.883 135.026C133.124 135.489 132.657 135.816 132.657 135.816C127.392 137.005 119.916 137.893 116.568 138.258C115.46 138.377 114.347 138.023 113.513 137.283C111.597 135.587 110.156 134.057 109.868 131.167C109.473 127.21 114.693 114.2 117.953 112.878C120.389 111.896 127.419 109.367 132.979 108.082C134.86 107.646 136.568 107.355 137.874 107.314C143.05 107.165 145.939 110.402 145.939 110.402Z" fill="#FEFEFE"/>
<g opacity="0.25">
<path d="M145.94 110.401L141.215 132.121C138.769 132.252 135.602 133.98 133.884 135.026C134.354 131.979 131.21 129.198 131.21 129.198L122.554 130.724C122.554 130.724 128.561 128.044 131.599 126.003C134.638 123.963 135.428 118.903 136.527 113.338C137.625 107.774 132.969 108.082 132.969 108.082C134.85 107.647 136.558 107.355 137.865 107.315C143.051 107.165 145.94 110.401 145.94 110.401Z" fill="#371A45"/>
</g>
<path d="M142.437 133.563L147.563 109.978L147.056 109.41C146.924 109.256 143.638 105.643 137.828 105.829C132.109 106.01 120.068 110.42 117.393 111.499C113.31 113.15 107.943 126.939 108.382 131.327C108.728 134.793 110.533 136.66 112.519 138.419C113.672 139.438 115.212 139.926 116.74 139.764C119.825 139.427 127.579 138.516 132.99 137.291L133.276 137.226L133.519 137.057C134.824 136.146 138.767 133.76 141.295 133.623L142.437 133.563ZM144.293 110.918L139.975 130.776C136.726 131.399 133.099 133.718 132.051 134.424C126.804 135.582 119.394 136.45 116.415 136.775C115.727 136.851 115.03 136.632 114.504 136.163C112.816 134.665 111.602 133.421 111.362 131.022C111.226 129.661 112.063 125.999 113.918 121.622C115.989 116.757 117.8 114.559 118.509 114.272C121.838 112.926 133.069 108.972 137.914 108.819C141.167 108.715 143.35 110.14 144.293 110.918Z" fill="#371A45"/>
<path d="M134.706 127.616C137.576 124.339 140.35 111.623 139.368 107.954C139.082 106.873 138.48 106.546 138.036 106.463C137.561 106.372 137.104 106.688 137.013 107.163C136.929 107.596 137.186 108.012 137.588 108.154C137.97 108.775 138.002 111.947 136.851 117.102C135.811 121.771 134.313 125.686 133.205 126.646C130.563 128.91 119.099 130.882 114.375 131.007C111.654 131.08 110.864 130.073 110.825 129.474C110.818 128.991 110.426 128.609 109.942 128.616C109.459 128.622 109.068 129.025 109.075 129.509C109.077 129.615 109.107 130.607 110.005 131.48C110.941 132.385 112.427 132.817 114.42 132.766C118.713 132.655 131.017 130.836 134.348 127.981C134.473 127.871 134.587 127.751 134.706 127.616Z" fill="#371A45"/>
<path d="M121.576 131.655C121.671 131.546 121.733 131.41 121.754 131.256L122.481 125.319C122.505 125.149 122.463 124.978 122.372 124.832L119.496 120.259L122.989 111.546C123.142 111.164 122.956 110.733 122.579 110.585C122.197 110.432 121.766 110.618 121.618 110.995L117.98 120.059C117.893 120.279 117.915 120.527 118.04 120.733L120.978 125.398L120.29 131.073C120.24 131.478 120.529 131.846 120.935 131.896C121.187 131.935 121.42 131.833 121.576 131.655Z" fill="#371A45"/>
<path d="M130.107 114.1C130.32 114.239 130.486 114.432 130.599 114.674C131.134 115.754 130.736 117.747 129.515 119.611C128.294 121.475 126.624 122.64 125.423 122.582C125.157 122.569 124.913 122.498 124.7 122.36C124.577 122.281 124.479 122.186 124.385 122.075L124.341 122.017C123.612 121.005 123.973 118.857 125.282 116.85C126.786 114.565 128.941 113.337 130.107 114.1Z" fill="#0EA6F1"/>
<path d="M129.271 121.165C129.574 120.819 129.864 120.433 130.142 120.017C131.507 117.935 131.946 115.71 131.269 114.344C131.092 113.979 130.839 113.69 130.514 113.482C129.705 112.955 128.62 113.027 127.456 113.69C126.445 114.266 125.455 115.244 124.674 116.442C123.198 118.694 122.822 121.165 123.748 122.453L123.804 122.531C123.954 122.72 124.116 122.862 124.297 122.982C124.617 123.195 124.986 123.308 125.39 123.328C126.611 123.374 128.049 122.56 129.271 121.165ZM126.64 116.291C127.128 115.734 127.668 115.27 128.188 114.971C128.821 114.608 129.391 114.514 129.7 114.718C129.796 114.783 129.873 114.869 129.932 114.998C130.297 115.738 130.062 117.414 128.896 119.203C127.726 120.987 126.287 121.877 125.464 121.835C125.321 121.824 125.207 121.791 125.106 121.732C125.052 121.694 125.009 121.656 124.965 121.598L124.931 121.55C124.465 120.903 124.692 119.105 125.908 117.236C126.136 116.91 126.385 116.583 126.64 116.291Z" fill="#371A45"/>
<path d="M131.649 123C132.009 122.589 132.351 122.143 132.656 121.664C133.576 120.254 134.168 118.727 134.312 117.372C134.476 115.843 134.056 114.664 133.14 114.062C132.874 113.886 132.571 113.774 132.241 113.714L130.226 113.364C129.88 113.3 129.537 113.496 129.411 113.826C129.285 114.155 129.401 114.524 129.694 114.714C129.79 114.779 129.867 114.865 129.926 114.994C130.291 115.734 130.056 117.41 128.891 119.199C127.72 120.983 126.282 121.873 125.459 121.831C125.315 121.82 125.201 121.787 125.1 121.727C125.047 121.69 125.003 121.652 124.959 121.594C124.703 121.275 124.242 121.224 123.922 121.479C123.598 121.73 123.547 122.192 123.792 122.512L125.697 124.973C125.747 125.036 125.808 125.099 125.877 125.14C126.793 125.741 128.04 125.649 129.375 124.888C130.176 124.452 130.948 123.8 131.649 123ZM131.512 115.092L131.986 115.173C132.125 115.199 132.235 115.238 132.331 115.303C132.757 115.58 132.941 116.276 132.839 117.21C132.721 118.339 132.215 119.625 131.42 120.85C130.62 122.069 129.64 123.046 128.659 123.611C127.898 124.043 127.223 124.169 126.792 123.964L126.229 123.232C127.563 122.909 129.018 121.727 130.137 120.013C131.275 118.277 131.77 116.446 131.512 115.092Z" fill="#371A45"/>
<path d="M175.69 116.158C178.194 120.042 173.131 123.892 173.131 123.892C168.86 122.255 164.627 121.175 160.43 120.73C159.994 120.682 159.558 120.645 159.123 120.608C159.113 120.608 159.107 120.604 159.107 120.604C155.652 120.349 152.22 120.535 148.816 121.204C146.955 121.572 145.11 122.087 143.274 122.753C137.169 120.188 141.027 114.059 145.43 112.85C145.822 112.697 146.21 112.549 146.593 112.416C152.875 110.197 158.451 110.398 163.765 111.487C166.812 112.11 169.777 113.035 172.742 113.949C173.949 114.337 175.008 115.092 175.69 116.158Z" fill="#FEFEFE"/>
<g opacity="0.25">
<path d="M175.69 116.158C178.194 120.042 173.13 123.892 173.13 123.892C168.86 122.255 164.626 121.175 160.43 120.73C162.596 120.831 166.745 120.632 167.851 117.711C169.186 114.189 164.827 111.977 163.766 111.497C166.813 112.12 169.778 113.045 172.742 113.959C173.949 114.337 175.008 115.092 175.69 116.158Z" fill="#371A45"/>
</g>
<g opacity="0.25">
<path d="M146.594 112.426C142.448 118.361 148.599 120.852 148.599 120.852L148.817 121.214C146.956 121.582 145.11 122.097 143.275 122.764C137.17 120.198 141.028 114.069 145.43 112.86C145.823 112.707 146.21 112.559 146.594 112.426Z" fill="#371A45"/>
</g>
<path d="M175.618 123.529C177.394 121.501 178.917 118.353 176.941 115.285C176.084 113.961 174.754 112.959 173.183 112.472C164.664 109.828 155.852 107.09 144.945 111.384C141.585 112.341 138.82 115.433 138.618 118.457C138.458 120.887 139.939 122.939 142.685 124.092L143.224 124.316L143.772 124.116C152.716 120.874 162.134 121.238 172.577 125.233L173.356 125.533L174.02 125.025C174.52 124.651 175.082 124.14 175.618 123.529ZM142.764 116.221C143.555 115.318 144.662 114.567 145.818 114.251L145.977 114.199C155.94 110.253 163.888 112.722 172.298 115.338C173.198 115.62 173.953 116.176 174.43 116.908C175.724 118.911 173.843 121.125 172.819 122.12C162.236 118.241 152.585 117.903 143.352 121.093C142.134 120.465 141.555 119.643 141.616 118.655C141.659 117.843 142.101 116.978 142.764 116.221Z" fill="#371A45"/>
<path d="M141.462 133.607C143.696 133.489 145.963 133.344 148.187 133.772C148.697 133.856 149.179 133.513 149.268 133.008C149.33 132.642 149.164 132.286 148.88 132.086C148.309 131.691 147.682 131.381 147.04 131.143C145.109 130.446 142.991 130.158 140.976 130.659C139.241 131.146 139.675 133.695 141.462 133.607Z" fill="#371A45"/>
<path d="M118.352 182.006C118.584 181.741 118.725 181.396 118.725 181.014C118.697 173.298 110.312 171.907 104.182 170.887C101.812 170.494 99.5668 170.123 98.1246 169.501C96.8136 168.935 95.4208 168.136 93.9388 167.297C89.338 164.673 83.6094 161.405 76.6772 163.342C69.0598 165.472 67.6587 172.157 67.9855 175.395C68.0656 176.22 68.8032 176.819 69.6282 176.738C70.4479 176.654 71.0466 175.926 70.9719 175.106C70.9422 174.812 70.4329 168.203 77.4855 166.238C83.2126 164.641 87.9135 167.314 92.4616 169.912C94.018 170.797 95.4797 171.637 96.9428 172.269C98.7204 173.032 101.136 173.438 103.697 173.864C110.732 175.028 115.718 176.231 115.726 181.044C115.73 181.869 116.401 182.543 117.231 182.534C117.678 182.514 118.078 182.32 118.352 182.006Z" fill="#371A45"/>
<path d="M74.1738 183.223C75.0263 182.249 83.1819 169.64 85.6672 165.787C86.1152 165.09 85.9161 164.161 85.219 163.713C84.522 163.265 83.5975 163.459 83.1448 164.161C79.158 170.34 72.5837 180.445 71.918 181.238C71.9132 181.243 71.9038 181.254 71.899 181.259C71.3639 181.87 71.4203 182.799 72.0274 183.35C72.6399 183.905 73.594 183.852 74.1495 183.24C74.1644 183.234 74.1691 183.228 74.1738 183.223Z" fill="#371A45"/>
<path d="M81.1053 188.652C81.1527 188.598 81.1994 188.534 81.246 188.47L93.4393 169.373C93.8873 168.676 93.678 167.747 92.9864 167.304C92.2893 166.856 91.3553 167.061 90.9175 167.757L78.7243 186.854C78.2763 187.551 78.4856 188.479 79.1772 188.923C79.8053 189.329 80.627 189.198 81.1053 188.652Z" fill="#371A45"/>
<path d="M91.7481 192.135C91.8239 192.048 91.8889 191.952 91.9477 191.841L101.907 172.939C102.292 172.205 102.013 171.301 101.279 170.917C100.546 170.533 99.642 170.812 99.2576 171.545L89.2981 190.448C88.9137 191.181 89.1926 192.085 89.9262 192.469C90.5543 192.8 91.303 192.643 91.7481 192.135Z" fill="#371A45"/>
<path d="M103.565 191.331C103.688 191.19 103.784 191.026 103.849 190.844L109.741 174.141C110.015 173.359 109.607 172.505 108.825 172.23C108.043 171.956 107.188 172.364 106.914 173.147L101.022 189.849C100.748 190.631 101.156 191.486 101.938 191.76C102.532 191.965 103.172 191.78 103.565 191.331Z" fill="#371A45"/>
<path d="M87.2928 159.119C89.7574 159.796 92.1191 160.994 94.2561 162.417C94.9058 162.842 95.6271 161.964 95.0809 161.409C93.0813 159.372 90.8389 157.59 88.2764 156.282C86.223 155.43 85.1486 158.512 87.2928 159.119Z" fill="#371A45"/>
<path d="M127.472 157.897C124.859 156.593 122.689 154.521 120.858 152.258C120.283 151.573 119.562 150.54 119.034 149.801C118.793 149.466 118.334 149.389 117.999 149.63C117.693 149.849 117.602 150.248 117.766 150.573C118.719 152.507 119.939 154.301 121.394 155.89C122.713 157.275 124.209 158.546 125.933 159.425C126.218 159.57 126.439 159.677 126.763 159.798C127.28 159.993 127.868 159.725 128.058 159.203C128.257 158.67 127.985 158.097 127.472 157.897Z" fill="#371A45"/>
<path d="M211.247 111.539C212.014 110.663 212.444 109.931 212.5 109.846C212.916 109.131 212.677 108.214 211.961 107.798C211.246 107.382 210.325 107.627 209.914 108.336C209.891 108.374 207.335 112.624 203.783 111.759C200.127 110.87 199.35 105.899 199.346 105.848C199.221 105.031 198.465 104.465 197.647 104.58C196.83 104.695 196.263 105.451 196.379 106.269C196.418 106.551 197.44 113.295 203.079 114.668C206.885 115.603 209.726 113.275 211.247 111.539Z" fill="#371A45"/>
<path d="M50.5337 87.4948C51.234 89.9904 53.4406 91.6934 55.5703 92.9277C56.2627 93.3046 56.9726 93.6396 57.7049 93.9273C58.0558 94.0721 58.4568 93.8978 58.6017 93.5469C58.8853 92.7538 57.8738 92.4795 57.3952 92.0986C56.5359 91.5086 55.5833 90.8178 54.8438 90.1128C53.8933 89.2232 53.0213 88.2112 52.5058 87.0431C52.181 85.7554 50.2739 86.1875 50.5337 87.4948Z" fill="#371A45"/>
<path d="M51.0297 77.3905C54.2339 77.0813 57.3887 78.3343 59.9896 80.1435C60.8509 80.764 61.8001 79.56 60.9956 78.8746C58.8986 77.0574 56.3355 75.7398 53.5603 75.3735C52.5845 75.2548 51.6148 75.2274 50.6335 75.4096C49.3235 75.7053 49.7143 77.605 51.0297 77.3905Z" fill="#371A45"/>
<path d="M81.5293 81.5383C86.2945 87.6412 92.6276 92.5755 100.134 95.6898C101.664 96.322 103.244 96.8846 104.86 97.3633C105.65 97.5962 106.454 97.8129 107.267 98.0087C109.726 98.5946 112.181 98.9769 114.623 99.1665C116.733 99.3323 118.828 99.3514 120.904 99.2392C123.406 99.0989 125.88 98.7617 128.296 98.2399C129.175 98.0441 130.052 97.828 130.917 97.5924C146.739 93.1968 159.835 80.7291 164.116 63.8483C170.421 38.9831 155.191 13.9609 130.111 7.95633C125.282 6.80419 120.428 6.43309 115.708 6.78158C115.155 6.81315 114.603 6.86501 114.052 6.92701C112.575 7.08604 111.118 7.30999 109.675 7.60428C106.338 8.28398 103.106 9.32349 100.027 10.6789C96.948 12.0342 94.0178 13.7109 91.2999 15.6689C90.4348 16.2968 89.5912 16.9437 88.7707 17.6297C87.5395 18.6538 86.353 19.736 85.2273 20.8906C79.5953 26.6128 75.3667 33.8315 73.2719 42.1161C69.6356 56.4274 73.129 70.7807 81.5293 81.5383Z" fill="white"/>
<path d="M154.102 83.2178C158.904 77.734 162.44 71.1419 164.278 63.8933C167.327 51.8674 165.488 39.4217 159.092 28.8523C152.65 18.1942 142.363 10.715 130.142 7.79099C125.375 6.65509 120.508 6.25424 115.687 6.60945C115.16 6.64441 114.613 6.69086 114.026 6.76029C112.554 6.91391 111.077 7.14935 109.635 7.44364C106.322 8.11659 103.064 9.1527 99.9509 10.5256C96.8667 11.8763 93.9224 13.5691 91.195 15.538C90.3149 16.172 89.4619 16.8296 88.6509 17.5049C87.3906 18.5512 86.1953 19.6544 85.0932 20.782C79.2752 26.6949 75.1277 34.061 73.0925 42.092C69.57 55.9679 72.5995 70.3927 81.3952 81.6589C86.2719 87.9073 92.7308 92.8179 100.075 95.8666C101.631 96.5123 103.227 97.0789 104.822 97.5489C105.55 97.7655 106.338 97.9782 107.234 98.199C109.667 98.7815 112.154 99.172 114.622 99.365C116.696 99.5281 118.812 99.5559 120.923 99.4364C123.395 99.298 125.889 98.9595 128.34 98.4302C129.214 98.2399 130.095 98.0184 130.966 97.7773C140.084 95.232 148.083 90.0916 154.102 83.2178ZM83.5079 22.9961C84.0999 22.32 84.7135 21.663 85.3434 21.0201C86.4359 19.9034 87.6218 18.811 88.8773 17.7701C89.6789 17.1056 90.5319 16.448 91.3971 15.8201C94.1048 13.8627 97.0302 12.1915 100.089 10.8476C103.178 9.49155 106.416 8.45678 109.698 7.78585C111.13 7.49223 112.598 7.26761 114.06 7.11466C114.642 7.05064 115.183 6.99945 115.711 6.96449C120.501 6.6113 125.326 7.0047 130.058 8.13787C142.191 11.0423 152.393 18.4659 158.794 29.0402C165.134 39.5318 166.961 51.8815 163.936 63.814C159.83 80.0261 147.158 92.9037 130.861 97.4277C130.001 97.6681 129.124 97.8841 128.25 98.0745C125.819 98.6024 123.34 98.9348 120.889 99.0718C118.792 99.1853 116.692 99.1615 114.633 99.0025C112.181 98.8136 109.71 98.4272 107.303 97.848C106.412 97.632 105.629 97.4241 104.906 97.202C103.327 96.7361 101.736 96.1742 100.196 95.5325C92.9088 92.5056 86.5033 87.6321 81.6603 81.4325C72.9316 70.2535 69.9298 55.9389 73.4238 42.1719C75.2301 35.0679 78.6916 28.4962 83.5079 22.9961Z" fill="#371A45"/>
<path d="M89.9942 89.8763C120.099 104.065 154.82 84.6014 151.575 52.0044C149.366 29.8227 125.681 15.0451 104.259 18.7116C88.6633 21.3754 74.5546 30.711 71.8934 55.7372C71.8934 55.7372 72.445 66.9793 76.658 73.8218C80.8711 80.6643 86.1402 86.6065 86.1402 86.6065L89.9942 89.8763Z" fill="#371A45"/>
<g opacity="0.25">
<path d="M164.107 63.8481C159.832 80.7336 146.73 93.1965 130.908 97.5922C130.043 97.8278 129.171 98.0486 128.292 98.2444C125.877 98.7662 123.408 99.1081 120.906 99.2485C118.83 99.3607 116.735 99.3416 114.625 99.1758C112.178 98.9916 109.723 98.6092 107.264 98.0233C106.451 97.8174 105.647 97.6109 104.857 97.3779C103.236 96.8945 101.661 96.3367 100.131 95.7045C92.6246 92.5902 86.2861 87.6511 81.5263 81.553C78.9098 78.2011 76.7642 74.4972 75.1684 70.5581C79.8472 76.2796 85.9458 80.9034 93.1068 83.8776C94.6416 84.5145 96.2123 85.0778 97.8331 85.5511C98.6181 85.7894 99.4214 85.996 100.24 86.1965C102.698 86.7824 105.154 87.1647 107.596 87.3543C109.706 87.5201 111.801 87.5392 113.877 87.4271C116.379 87.2867 118.853 86.9495 121.263 86.423C122.142 86.2272 123.019 86.0111 123.879 85.7707C139.701 81.3751 152.803 68.9122 157.078 52.0266C159.579 42.1767 158.695 32.3065 155.159 23.6005C164.053 34.4374 167.832 49.1743 164.107 63.8481Z" fill="#371A45"/>
</g>
<path d="M154.994 83.999C159.919 78.3745 163.542 71.6189 165.428 64.1836C168.554 51.8521 166.663 39.0839 160.111 28.2344C153.503 17.3071 142.958 9.63102 130.421 6.63112C125.53 5.46271 120.546 5.05438 115.603 5.41765C115.066 5.45329 114.498 5.50108 113.891 5.57186C112.394 5.73223 110.871 5.96563 109.394 6.26734C105.996 6.96122 102.658 8.023 99.4704 9.42634C96.3125 10.8175 93.2938 12.5408 90.4933 14.5603C89.5937 15.2058 88.717 15.8905 87.8863 16.5773C86.5922 17.6513 85.3678 18.7768 84.2421 19.9314C78.2759 25.9916 74.0235 33.543 71.9355 41.7762C68.3249 56.0145 71.4246 70.8065 80.4535 82.363C85.4579 88.771 92.0785 93.8136 99.6059 96.9367C101.198 97.5953 102.837 98.1795 104.468 98.6623C105.211 98.883 106.021 99.1045 106.937 99.3239C109.432 99.9227 111.98 100.319 114.514 100.513C116.634 100.678 118.806 100.707 120.974 100.589C123.506 100.447 126.061 100.104 128.573 99.5608C129.471 99.3637 130.374 99.1409 131.264 98.8984C140.629 96.3113 148.828 91.0404 154.994 83.999ZM84.4002 23.7773C84.978 23.1175 85.5726 22.482 86.1882 21.8554C87.2571 20.7657 88.4092 19.701 89.6309 18.6878C90.4129 18.0349 91.2368 17.3995 92.0877 16.7878C94.7326 14.8805 97.5843 13.2498 100.569 11.9363C103.584 10.6107 106.737 9.60698 109.938 8.95157C111.331 8.67079 112.762 8.44344 114.189 8.29792C114.751 8.23524 115.292 8.18406 115.789 8.15111C120.468 7.80531 125.176 8.19123 129.788 9.29663C141.611 12.1299 151.555 19.3567 157.781 29.6624C163.96 39.8794 165.735 51.9065 162.792 63.528C158.79 79.3256 146.433 91.8767 130.546 96.2919C129.706 96.5208 128.849 96.7356 128 96.9192C125.63 97.4329 123.221 97.7606 120.825 97.8889C118.78 97.999 116.731 97.982 114.733 97.8189C112.342 97.6361 109.933 97.2558 107.583 96.6983C106.718 96.4856 105.951 96.2818 105.249 96.0685C103.7 95.6108 102.161 95.0658 100.653 94.4424C93.5549 91.4946 87.3103 86.743 82.6005 80.7077C74.0995 69.8142 71.174 55.8817 74.5793 42.467C76.3314 35.5449 79.707 29.1367 84.4002 23.7773Z" fill="#371A45"/>
<path d="M155.096 84.0895C160.036 78.4488 163.672 71.6769 165.562 64.2159C168.7 51.8479 166.802 39.0445 160.228 28.1659C153.602 17.2041 143.026 9.5098 130.452 6.49703C125.551 5.32931 120.551 4.91691 115.594 5.28626C115.056 5.3219 114.489 5.3697 113.877 5.44588C112.37 5.60692 110.852 5.84505 109.369 6.14203C105.961 6.83658 102.619 7.90377 99.4164 9.31319C96.2484 10.705 93.2201 12.4391 90.415 14.4641C89.5106 15.115 88.6386 15.7943 87.8032 16.4864C86.5091 17.5605 85.2752 18.6968 84.1495 19.8514C78.1692 25.9278 73.9032 33.5056 71.8111 41.7543C68.1877 56.0291 71.3056 70.8658 80.3521 82.4567C85.368 88.8844 92.0095 93.9358 99.5633 97.0724C101.161 97.7357 102.804 98.3145 104.441 98.8021C105.184 99.0228 105.994 99.2442 106.915 99.4684C109.42 100.067 111.974 100.468 114.514 100.666C116.639 100.836 118.816 100.86 120.988 100.736C123.526 100.599 126.096 100.25 128.607 99.7067C129.506 99.5096 130.418 99.2861 131.304 99.0389C140.693 96.4349 148.911 91.1525 155.096 84.0895ZM84.5023 23.8677C85.0754 23.2133 85.6748 22.5725 86.2857 21.9512C87.3498 20.867 88.5019 19.8023 89.7188 18.7945C90.4961 18.1469 91.32 17.5116 92.1709 16.8999C94.8056 14.9932 97.6479 13.3734 100.622 12.0606C103.627 10.7356 106.77 9.73258 109.967 9.08258C111.359 8.80179 112.786 8.57985 114.202 8.42486C114.764 8.36219 115.295 8.31167 115.792 8.27873C120.456 7.93901 125.148 8.32086 129.749 9.4168C141.536 12.2372 151.448 19.4457 157.656 29.7169C163.813 39.9049 165.591 51.8961 162.65 63.4818C158.661 79.2327 146.343 91.7507 130.501 96.1477C129.665 96.3813 128.808 96.5859 127.964 96.7742C125.604 97.2873 123.201 97.6096 120.82 97.7419C118.785 97.8514 116.74 97.8289 114.743 97.676C112.352 97.4932 109.959 97.1169 107.614 96.5541C106.754 96.3461 105.991 96.1369 105.285 95.929C103.742 95.476 102.203 94.931 100.705 94.307C93.6274 91.368 87.4044 86.6353 82.7108 80.6142C74.2376 69.7545 71.3249 55.8619 74.7126 42.4891C76.4566 35.5982 79.8234 29.211 84.5023 23.8677Z" fill="#371A45"/>
<path d="M151.574 52.0051C154.82 84.6021 120.099 104.066 89.9937 89.877L89.2162 89.2153C119.878 89.5111 146.762 66.9395 144.099 33.9167C148.172 39.0212 150.891 45.1579 151.574 52.0051Z" fill="#232323"/>
<path d="M147.677 84.6731C147.895 84.4243 148.107 84.1708 148.32 83.9173C155.852 74.9004 159.191 63.6347 157.963 51.332C156.837 40.0261 150.834 29.6955 141.058 22.2436C130.21 13.9764 115.996 10.3591 103.036 12.5783C95.8374 13.8043 89.5562 16.187 84.3755 19.648L84.2436 19.7332L84.1387 19.842C78.1584 25.9185 73.8924 33.4962 71.7956 41.7504C68.1722 56.0252 71.2901 70.8619 80.3365 82.4528C85.3525 88.8804 91.994 93.9318 99.5478 97.0685C101.145 97.7318 102.789 98.3106 104.426 98.7982C105.169 99.0189 105.978 99.2403 106.9 99.4645C109.405 100.063 111.958 100.464 114.498 100.662L114.616 100.67L114.732 100.657C127.726 99.6328 139.669 93.8183 147.677 84.6731ZM86.1754 22.0555C90.9827 18.879 96.8229 16.6834 103.547 15.5296C115.702 13.4555 129.05 16.85 139.25 24.6253C148.355 31.5664 153.947 41.155 154.992 51.6257C156.136 63.1088 153.036 73.6097 146.027 81.9959C138.56 90.9269 127.12 96.6368 114.631 97.6633C112.29 97.4771 109.932 97.1036 107.624 96.5536C106.764 96.3456 106.002 96.1364 105.295 95.9285C103.752 95.4755 102.213 94.9305 100.715 94.3065C93.6375 91.3675 87.4145 86.6347 82.721 80.6137C74.2477 69.754 71.3351 55.8614 74.7228 42.4886C76.6638 34.8052 80.6273 27.7365 86.1754 22.0555Z" fill="#371A45"/>
<path d="M171.766 46.5806C173.767 55.4801 170.129 64.1624 163.626 65.9689C157.124 67.7753 150.232 62.0273 148.226 53.1231C148.211 53.0629 148.203 53.0074 148.194 52.952C146.273 44.1134 149.918 35.5325 156.375 33.7342C161.397 32.3417 166.652 35.4524 169.713 41.0468C170.601 42.6945 171.311 44.5578 171.766 46.5806Z" fill="white"/>
<g opacity="0.25">
<path d="M171.765 46.5809C173.766 55.4804 170.129 64.1627 163.626 65.9692C157.123 67.7756 150.232 62.0276 148.226 53.1234C148.211 53.0632 148.203 53.0077 148.194 52.9523C149.117 53.6654 150.43 54.261 151.87 53.5339C154.389 52.2716 157.835 45.2271 157.835 45.2271C157.835 45.2271 162.969 43.3789 169.707 41.0424C170.601 42.6948 171.31 44.5581 171.765 46.5809Z" fill="#371A45"/>
</g>
<path d="M169.6 63.8056C173.18 59.717 174.759 53.0255 173.236 46.2543C171.981 40.6931 168.92 36.1022 164.846 33.6621C161.987 31.9515 158.914 31.4776 155.973 32.294C148.725 34.3078 144.596 43.8021 146.769 53.4543C148.024 59.0155 151.085 63.6064 155.159 66.0465C158.018 67.7571 161.091 68.231 164.032 67.4146C166.187 66.8081 168.075 65.547 169.6 63.8056ZM152.575 37.9089C153.731 36.5894 155.15 35.6344 156.77 35.1805C158.906 34.5856 161.167 34.9503 163.305 36.2299C166.636 38.22 169.254 42.2136 170.309 46.9118C172.136 55.0282 168.961 62.9309 163.224 64.5287C161.088 65.1237 158.828 64.759 156.69 63.4794C153.359 61.4893 150.741 57.4957 149.685 52.7974C148.372 46.9751 149.639 41.262 152.575 37.9089Z" fill="#371A45"/>
<path d="M165.775 63.3484C160.335 64.035 155.189 58.7578 154.281 51.5615C153.373 44.3653 157.046 37.975 162.486 37.2885C167.925 36.6019 173.071 41.8791 173.979 49.0754C174.888 56.2717 171.214 62.6619 165.775 63.3484Z" fill="white"/>
<path d="M171.132 60.5607C172.818 58.6354 173.914 55.9545 174.211 52.9088C174.913 45.7456 170.976 38.7524 165.43 37.3166C163.149 36.724 160.814 37.1539 158.857 38.5266C156.189 40.3947 154.43 43.7564 154.038 47.7508C153.336 54.914 157.273 61.9072 162.819 63.343C165.1 63.9356 167.435 63.5057 169.392 62.133C170.025 61.6835 170.611 61.1556 171.132 60.5607ZM157.392 40.3303C157.899 39.7516 158.456 39.246 159.065 38.8236C160.964 37.4955 163.133 37.102 165.341 37.6689C170.716 39.06 174.535 45.8827 173.847 52.8668C173.463 56.7537 171.763 60.0145 169.178 61.8212C167.279 63.1492 165.11 63.5427 162.902 62.9758C157.527 61.5847 153.708 54.762 154.401 47.7726C154.698 44.8033 155.758 42.1961 157.392 40.3303Z" fill="#371A45"/>
<g opacity="0.25">
<path d="M156.2 57.8415C155.071 55.6291 154.551 53.0909 154.599 50.5915C157.609 55.4251 162.925 56.4584 166.895 52.7974C169.464 50.4315 170.874 46.6498 170.938 42.779C171.131 43.0821 171.306 43.4067 171.481 43.7415C174.356 49.3839 173.259 57.1184 169.039 61.0099C164.829 64.9008 159.076 63.4838 156.2 57.8415Z" fill="#371A45"/>
</g>
<path d="M171.615 61.8326C174.509 58.5283 175.723 52.9409 174.435 47.1118C173.387 42.3723 170.789 38.3673 167.474 36.4015C165.3 35.109 162.984 34.7531 160.785 35.3879C155.05 37.0263 151.972 44.6985 153.765 52.8425C154.813 57.5821 157.412 61.5871 160.726 63.5529C162.9 64.8454 165.211 65.1965 167.416 64.5664C169.056 64.1011 170.465 63.1468 171.615 61.8326ZM171.508 47.7592C172.919 54.1456 170.673 60.5197 166.593 61.6867C164.833 62.1905 163.265 61.5812 162.256 60.9756C159.642 59.422 157.56 56.1366 156.687 52.1904C155.275 45.8041 157.527 39.4246 161.602 38.263C163.362 37.7592 164.93 38.3684 165.938 38.974C168.558 40.5324 170.64 43.8177 171.508 47.7592Z" fill="#371A45"/>
<g opacity="0.5">
<path d="M116.663 26.7078C116.663 26.7078 97.0819 31.3373 88.0531 44.4523C88.0436 44.4631 88.0348 44.4841 88.0253 44.4949C86.1247 47.2546 85.0185 50.4711 84.7798 53.788C84.4698 58.1794 84.9068 61.2376 85.3954 63.9204C86.8881 72.0691 89.1292 75.5986 89.1292 75.5986C83.6448 72.172 80.1036 67.7811 78.7936 61.006C78.6627 60.3371 78.5609 59.6459 78.4725 58.9284C78.4516 58.7668 78.4355 58.5997 78.4193 58.4327C78.4193 58.4327 78.4139 58.428 78.4186 58.4226C78.3468 56.9551 78.3266 55.0359 78.4877 52.8551C78.9643 46.2875 81.0728 37.4417 88.3384 32.1562C101.927 22.2693 117.189 25.7254 116.663 26.7078Z" fill="white"/>
</g>
<g opacity="0.5">
<path d="M136.289 51.8781C133.179 53.3982 129.241 51.7334 127.495 48.1595C125.748 44.5857 126.853 40.4561 129.963 38.936C133.073 37.4158 137.011 39.0807 138.758 42.6545C140.504 46.2284 139.399 50.3579 136.289 51.8781Z" fill="white"/>
</g>
<g opacity="0.5">
<path d="M140.331 59.7625C139.111 60.5068 137.428 59.9726 136.572 58.5694C135.716 57.1662 136.011 55.4253 137.231 54.681C138.451 53.9367 140.134 54.4709 140.99 55.8741C141.846 57.2773 141.551 59.0182 140.331 59.7625Z" fill="white"/>
</g>
<g opacity="0.2">
<path d="M178.096 84.6022C177.707 84.3579 177.321 84.1441 176.937 83.9607C177.316 84.1393 177.702 84.3532 178.096 84.6022Z" fill="#000072"/>
</g>
</g>
<defs>
<clipPath id="clip0_258_138">
<rect width="228" height="200" fill="white"/>
</clipPath>
</defs>
</svg>
