<svg width="195" height="237" viewBox="0 0 195 237" fill="none" xmlns="http://www.w3.org/2000/svg">
<path d="M92.5967 233.898C143.736 233.898 185.193 222.835 185.193 209.189C185.193 195.543 143.736 184.481 92.5967 184.481C41.4569 184.481 0 195.543 0 209.189C0 222.835 41.4569 233.898 92.5967 233.898Z" fill="#29235C"/>
<path d="M140.158 122.881C140.158 122.881 165.558 155.142 152.256 173.109C140.038 189.615 111.733 169.888 111.733 169.888L108.657 122.872H140.158V122.881Z" fill="white"/>
<path d="M138.355 181.115C134.921 181.115 131.11 180.431 126.967 179.047C118.269 176.151 111.221 171.272 110.922 171.067L110.358 170.674L107.137 121.463H140.842L141.269 122.009C142.337 123.359 167.182 155.338 153.392 173.964C149.889 178.714 144.78 181.115 138.355 181.115ZM113.117 169.102C117.065 171.682 140.765 186.249 151.12 172.263C162.714 156.603 142.644 128.554 139.466 124.308H110.195L113.117 169.102Z" fill="#371A45"/>
<path d="M92.0388 121.77L89.2365 130.314L64.1778 206.797C64.1778 206.797 35.565 204.601 28.6702 192.461C26.2181 188.146 26.0473 176.962 27.3374 164.659C29.029 148.495 33.2667 130.416 38.1964 123.496C45.8516 112.773 82.4101 119.121 92.0388 121.77Z" fill="white"/>
<path d="M89.2365 130.314L64.1778 206.797C64.1778 206.797 35.565 204.601 28.6702 192.461C26.2181 188.146 26.0473 176.962 27.3374 164.659C31.5665 166.283 39.1789 167.522 40.7937 159.995C43.2201 148.708 47.8679 133.475 53.3444 126.29C58.8209 119.104 73.4819 121.334 73.4819 121.334L89.2365 130.314Z" fill="#D8D8D8"/>
<path d="M64.1789 208.224C64.1448 208.224 64.102 208.224 64.0679 208.224C62.8717 208.13 34.6177 205.823 27.4325 193.17C24.126 187.352 24.8608 171.503 26.6464 158.611C28.4235 145.795 32.0888 129.622 37.0441 122.676C45.6733 110.578 85.0256 118.37 92.4159 120.403C93.1763 120.608 93.6205 121.394 93.4155 122.155C93.2104 122.915 92.4244 123.359 91.664 123.154C79.0023 119.668 45.9808 115.063 39.368 124.333C35.5319 129.716 31.6445 143.326 29.4744 159.004C27.347 174.382 27.5179 187.548 29.9187 191.76C36.3606 203.098 64.0166 205.353 64.2985 205.379C65.0846 205.439 65.6655 206.122 65.6057 206.908C65.5459 207.651 64.9222 208.224 64.1789 208.224Z" fill="#371A45"/>
<path d="M45.7576 161.78C45.7662 164.027 45.3902 167.487 44.7751 171.084C43.6388 177.765 41.7079 184.959 39.9479 185.959C35.3599 188.573 28.1918 187.992 24.5949 183.661C22.9545 181.687 22.6725 176.595 23.1681 171.281C23.7747 164.779 25.5347 157.961 27.3887 156.15C29.8065 153.783 42.3145 157.636 42.3145 157.636C44.0916 158.636 45.7491 160.02 45.7576 161.78Z" fill="white"/>
<path d="M44.7751 171.084C43.6388 177.765 41.7079 184.959 39.9479 185.959C35.3599 188.573 28.1918 187.992 24.5949 183.661C22.9545 181.687 22.6725 176.595 23.1681 171.281C23.6038 174.237 24.8597 178.68 28.5677 179.312C36.4108 180.653 38.0512 168.162 38.0512 168.162C38.0512 168.162 40.7766 179.671 44.7751 171.084Z" fill="#D8D8D8"/>
<path d="M33.6595 188.932C29.8917 188.932 26.0044 187.582 23.5011 184.575C20.8012 181.32 21.5189 172.827 21.9546 169.324C22.5954 164.164 24.1418 157.346 26.3974 155.142C29.1314 152.468 38.743 155.048 42.7415 156.287L42.8867 156.329L43.0234 156.406C45.7745 157.953 47.1757 159.764 47.1842 161.78C47.2098 166.855 44.4588 185.036 40.6568 187.206C38.6832 188.325 36.197 188.932 33.6595 188.932ZM28.3881 157.175C27.2517 158.286 25.6028 163.045 24.7826 169.666C24.0137 175.903 24.3725 181.157 25.6968 182.746C28.9178 186.625 35.4195 186.899 39.2471 184.72C41.0754 183.438 44.3648 168.641 44.3392 161.78C44.3392 160.917 43.4164 159.909 41.7589 158.952C35.5733 157.073 29.3449 156.235 28.3881 157.175Z" fill="#371A45"/>
<path d="M39.4364 163.181C39.257 164.386 39.1545 165.65 39.0434 166.906C38.9324 168.162 38.8213 169.435 38.6846 170.7C38.4112 173.237 38.0609 175.783 37.4287 178.321C37.104 179.585 36.7195 180.858 36.1642 182.097C35.6088 183.336 34.8912 184.575 33.7805 185.626C33.2252 186.147 32.5502 186.591 31.8069 186.899C31.0551 187.206 30.2349 187.334 29.4574 187.334C27.8683 187.317 26.4671 186.796 25.2197 186.181C24.5106 185.831 24.2201 184.976 24.5704 184.276C24.9207 183.567 25.775 183.276 26.4756 183.626C26.4927 183.635 26.5098 183.644 26.5354 183.652L26.5525 183.661C27.535 184.207 28.5688 184.6 29.5257 184.652C30.4826 184.711 31.3455 184.404 32.123 183.755C32.892 183.097 33.5413 182.148 34.0624 181.106C34.5836 180.055 35.0022 178.919 35.3525 177.748C36.0531 175.399 36.5059 172.938 36.8819 170.461C37.0698 169.222 37.2407 167.974 37.403 166.718C37.5739 165.463 37.7277 164.207 37.9755 162.917C38.0524 162.506 38.4539 162.242 38.8555 162.318C39.257 162.395 39.5133 162.771 39.4621 163.164L39.4364 163.181Z" fill="#371A45"/>
<path d="M43.306 122.787C45.3052 122.975 47.2361 123.291 49.184 123.667C51.1235 124.051 53.0458 124.513 54.9425 125.059C55.4209 125.188 55.8908 125.333 56.3693 125.478L57.7875 125.922C58.7188 126.247 59.6672 126.555 60.5899 126.922C62.4524 127.605 64.2722 128.434 66.0749 129.297C66.7841 129.639 67.0916 130.485 66.7499 131.194C66.4081 131.903 65.5623 132.21 64.8532 131.869C64.8276 131.86 64.8019 131.843 64.7848 131.835L64.7421 131.809C63.0761 130.886 61.393 129.989 59.6415 129.22C58.7786 128.81 57.8815 128.46 57.0015 128.092L55.6602 127.58C55.2159 127.409 54.7631 127.247 54.3103 127.084C52.499 126.443 50.6621 125.88 48.7996 125.393C46.9456 124.906 45.0403 124.478 43.1778 124.188L43.1522 124.179C42.7677 124.12 42.4943 123.752 42.5541 123.368C42.5883 123.017 42.93 122.753 43.306 122.787Z" fill="#371A45"/>
<g opacity="0.35">
<path d="M166.414 175.348C166.414 175.348 166.406 175.433 166.483 175.587C166.466 175.501 166.44 175.416 166.414 175.348Z" fill="black"/>
</g>
<path d="M193.427 184.447C192.555 194.742 187.591 205.652 184.473 211.633C183.021 214.435 181.525 215.699 176.741 216.135C159.628 217.699 143.984 208.087 102.641 215.751C73.4903 221.159 105.786 174.339 105.786 174.339C105.786 174.339 118.755 165.155 137.918 166.385C140.695 166.565 143.591 166.958 146.607 167.633C154.647 169.435 161.824 173.963 166.779 177.808C171.247 163.668 186.472 160.986 191.419 171.059C193.358 175.031 193.828 179.671 193.427 184.447Z" fill="white"/>
<path d="M193.427 184.447C192.555 194.742 187.591 205.652 184.473 211.633C183.021 214.435 181.525 215.7 176.741 216.135C159.628 217.699 143.984 208.087 102.641 215.751C73.4903 221.159 105.786 174.339 105.786 174.339C105.786 174.339 118.755 165.155 137.918 166.385C136.398 174.963 133.066 199.039 142.686 202.747C159.021 209.027 166.07 180.773 166.07 180.773C166.07 180.773 161.678 220.732 185.063 191.837C188.292 187.864 191.06 185.523 193.427 184.447Z" fill="#D8D8D8"/>
<path d="M172.77 217.742C167.986 217.742 163.193 217.058 157.819 216.289C145.183 214.486 129.454 212.231 102.891 217.161C96.6886 218.314 92.4851 217.272 90.409 214.068C87.5639 209.676 89.1445 201.457 95.1166 189.624C99.4226 181.089 104.557 173.613 104.609 173.545L104.754 173.34L104.959 173.195C105.677 172.691 122.747 160.858 146.909 166.266C154.504 167.966 161.305 172.033 166.081 175.536C168.874 168.718 174.47 164.13 180.776 163.651C185.953 163.258 190.405 165.804 192.686 170.452C198.957 183.208 191.02 202.141 185.731 212.299C184.116 215.401 182.305 217.075 176.863 217.571C175.496 217.69 174.137 217.742 172.77 217.742ZM132.965 211.325C143.201 211.325 151.189 212.47 158.229 213.478C164.953 214.435 170.754 215.264 176.606 214.734C181.032 214.333 182.015 213.282 183.202 210.992C187.26 203.2 196.06 183.78 190.131 171.717C188.354 168.094 185.022 166.189 180.989 166.496C176.666 166.821 170.703 170.102 168.123 178.27L167.507 180.218L165.893 178.962C161.339 175.416 154.239 170.828 146.285 169.051C124.746 164.232 108.744 174.117 106.796 175.39C101.208 183.55 88.2218 205.473 92.7927 212.53C94.1853 214.674 97.3977 215.29 102.362 214.375C114.579 212.094 124.533 211.325 132.965 211.325Z" fill="#371A45"/>
<path d="M174.212 215.759L176.895 215.922C180.047 216.11 183.012 214.435 184.473 211.633C189.035 202.875 197.554 183.55 191.419 171.067C191.24 170.7 191.052 170.35 190.838 170.016C190.838 170.016 184.61 163.626 179.364 171.819C174.468 179.474 163.148 212.769 174.212 215.759Z" fill="#AFAFB2"/>
<g opacity="0.7">
<path d="M176.604 177.321C176.733 177.142 176.861 176.962 176.989 176.809C183.32 168.684 191.06 175.16 191.06 175.16C191.317 175.501 191.565 175.86 191.787 176.219C192.53 177.432 193.102 178.697 193.538 180.021C193.401 176.834 192.761 173.784 191.428 171.067C191.248 170.7 191.06 170.35 190.847 170.016C190.847 170.016 184.618 163.626 179.373 171.819C178.57 173.058 177.613 174.972 176.604 177.321Z" fill="white"/>
</g>
<path d="M193.514 181.106C193.412 181.106 193.301 181.097 193.198 181.072L176.897 177.33C176.128 177.15 175.649 176.39 175.829 175.621C176.008 174.852 176.769 174.374 177.537 174.553L193.839 178.295C194.608 178.475 195.086 179.235 194.907 180.004C194.753 180.662 194.163 181.106 193.514 181.106Z" fill="#371A45"/>
<path d="M192.872 190C192.778 190 192.692 189.992 192.598 189.974L173.495 186.224C172.726 186.07 172.221 185.327 172.375 184.549C172.529 183.78 173.272 183.276 174.05 183.43L193.154 187.181C193.923 187.334 194.427 188.078 194.273 188.855C194.136 189.53 193.538 190 192.872 190Z" fill="#371A45"/>
<path d="M190.65 198.612C190.565 198.612 190.479 198.604 190.394 198.587L170.983 195.015C170.205 194.87 169.701 194.127 169.838 193.358C169.983 192.58 170.726 192.068 171.495 192.213L190.907 195.784C191.684 195.929 192.188 196.673 192.051 197.442C191.923 198.134 191.325 198.612 190.65 198.612Z" fill="#371A45"/>
<path d="M174.213 215.759L176.895 215.922C180.048 216.11 183.013 214.435 184.474 211.633C185.653 209.36 187.096 206.387 188.489 203.004C186.712 205.584 183.337 207.079 179.749 206.865L176.553 206.669C172.051 205.609 170.607 201.039 170.889 195.178C168.745 204.969 168.608 214.247 174.213 215.759Z" fill="#959596"/>
<path d="M186.977 207.925C186.909 207.925 186.832 207.916 186.763 207.908L169.377 205.276C168.599 205.157 168.061 204.43 168.181 203.653C168.3 202.875 169.027 202.337 169.804 202.457L187.19 205.088C187.968 205.208 188.506 205.934 188.387 206.712C188.275 207.421 187.669 207.925 186.977 207.925Z" fill="#371A45"/>
<path d="M177.374 217.357C177.186 217.357 176.998 217.348 176.801 217.34L173.974 217.169L173.837 217.135C171.633 216.537 170.043 214.999 169.095 212.547C165.097 202.2 174.144 177.338 178.168 171.05C180.04 168.128 182.278 166.513 184.824 166.257C188.729 165.856 191.736 168.897 191.856 169.025L191.967 169.136L192.052 169.273C192.283 169.649 192.496 170.042 192.693 170.443C198.964 183.191 191.018 202.132 185.73 212.291C184.106 215.418 180.877 217.357 177.374 217.357ZM174.452 214.35L176.981 214.503C179.57 214.657 182.013 213.273 183.209 210.983C187.268 203.192 196.068 183.772 190.138 171.708C190.002 171.435 189.865 171.178 189.72 170.922C189.258 170.503 187.31 168.863 185.097 169.102C183.466 169.273 181.945 170.452 180.569 172.597C176.374 179.15 168.377 202.799 171.752 211.53C172.342 213.042 173.222 213.974 174.452 214.35Z" fill="#371A45"/>
<path d="M177.374 217.357C177.186 217.357 176.998 217.348 176.801 217.34L173.974 217.169L173.837 217.135C171.633 216.537 170.043 214.999 169.095 212.547C165.097 202.2 174.144 177.338 178.168 171.05C180.04 168.128 182.278 166.513 184.824 166.257C188.729 165.856 191.736 168.897 191.856 169.025L191.967 169.136L192.052 169.273C192.283 169.649 192.496 170.042 192.693 170.443C198.964 183.191 191.018 202.132 185.73 212.291C184.106 215.418 180.877 217.357 177.374 217.357ZM174.452 214.35L176.981 214.503C179.57 214.657 182.013 213.273 183.209 210.983C187.268 203.192 196.068 183.772 190.138 171.708C190.002 171.435 189.865 171.178 189.72 170.922C189.258 170.503 187.31 168.863 185.097 169.102C183.466 169.273 181.945 170.452 180.569 172.597C176.374 179.15 168.377 202.799 171.752 211.53C172.342 213.042 173.222 213.974 174.452 214.35Z" fill="#371A45"/>
<path d="M175.946 217.4C175.203 217.4 174.494 217.314 173.845 217.135C173.084 216.93 172.631 216.152 172.836 215.392C173.042 214.632 173.819 214.179 174.579 214.384C175.203 214.555 175.929 214.589 176.741 214.503C177.527 214.418 178.228 214.982 178.313 215.768C178.398 216.554 177.835 217.255 177.049 217.34C176.673 217.383 176.297 217.4 175.946 217.4Z" fill="#371A45"/>
<path d="M129 181.106L128.872 197.467C120.96 217.528 111.058 208.446 90.1261 218.382C89.0837 218.878 88.0072 219.416 86.9051 220.014C71.5008 228.361 56.1649 213.504 50.5602 206.011C46.7497 198.424 44.7078 190.666 44.5711 183.473C44.5113 180.773 44.7334 178.15 45.2204 175.647C46.2371 170.486 47.6212 163.737 49.6033 156.423C51.2095 150.485 53.2087 144.189 55.712 138.054C58.9757 130.074 61.7354 124.222 64.1361 119.762C71.6461 105.793 75.5676 105.46 79.8651 95.9338C92.6208 67.6798 137.561 75.9757 125.805 112.688C124.429 123.803 124.309 133.33 124.762 141.677C125.6 157.132 128.41 168.572 128.932 178.688C128.966 179.5 128.991 180.303 129 181.106Z" fill="white"/>
<path d="M128.999 181.106L128.87 197.467C120.959 217.528 111.057 208.446 90.1248 218.382L79.9834 174.075L128.922 178.688C128.964 179.5 128.99 180.303 128.999 181.106Z" fill="#D8D8D8"/>
<path d="M72.4575 188.804C72.4575 189.086 56.3697 185.874 44.5623 183.473C44.5025 180.773 44.7246 178.15 45.2116 175.647C46.2283 170.486 47.6124 163.737 49.5945 156.423C52.4225 157.602 55.0027 159.217 56.4466 157.97C58.5825 156.133 60.5475 135.628 63.1192 152.194C65.8105 169.547 72.4575 188.368 72.4575 188.804Z" fill="#D8D8D8"/>
<path d="M125.795 112.688C124.42 123.803 124.3 133.33 124.753 141.677C119.183 143.488 113.373 144.334 107.828 143.95C94.3375 143.001 88.3056 136.653 79.6252 129.861C74.4477 125.82 68.151 124.102 64.127 119.762C71.6369 105.793 75.5584 105.46 79.8559 95.9339C92.6117 67.6798 137.56 75.9758 125.795 112.688Z" fill="#D8D8D8"/>
<path d="M127.581 181.123C127.538 178.329 127.299 175.518 126.966 172.707C126.641 169.888 126.223 167.069 125.813 164.232C124.984 158.568 124.189 152.852 123.702 147.102C123.207 141.352 123.01 135.568 123.121 129.792C123.181 126.905 123.326 124.017 123.531 121.138C123.736 118.258 124.036 115.388 124.377 112.517L124.394 112.389L124.437 112.252C125.65 108.433 126.402 104.46 126.3 100.522C126.206 96.6002 125.189 92.7214 123.096 89.4918C121.011 86.2538 117.893 83.7419 114.313 82.2468C110.733 80.7345 106.735 80.2219 102.839 80.5978C98.9341 80.9567 95.1236 82.2553 91.7745 84.2973C88.4254 86.3478 85.5547 89.1501 83.4017 92.448C83.1197 92.8495 82.872 93.2767 82.6242 93.7039C82.3593 94.1225 82.1458 94.5668 81.9065 95.0025C81.6673 95.4382 81.4708 95.8911 81.2572 96.3353L80.5823 97.7707C80.1038 98.7276 79.6083 99.6845 79.0529 100.607C78.4976 101.53 77.9081 102.436 77.2758 103.307C76.0199 105.041 74.6615 106.639 73.3885 108.237C72.1069 109.834 70.9022 111.449 69.7659 113.132C67.5018 116.49 65.5282 120.078 63.6828 123.735C61.8544 127.4 60.1628 131.151 58.5566 134.936C56.9418 138.738 55.4296 142.523 54.1224 146.41C52.8067 150.297 51.6533 154.236 50.6024 158.209C49.5515 162.182 48.6288 166.189 47.7744 170.221C47.3558 172.229 46.9457 174.271 46.5612 176.27C46.2024 178.218 46.023 180.209 46.0059 182.2C45.9632 186.189 46.5356 190.196 47.5608 194.084C48.5861 197.971 50.0641 201.756 51.8839 205.362L51.7473 205.139C53.9942 208.104 56.6342 210.847 59.4964 213.256C62.3671 215.657 65.5026 217.733 68.8859 219.151C72.2521 220.569 75.8918 221.278 79.4289 220.86C81.1974 220.655 82.9232 220.185 84.5636 219.467C85.3924 219.108 86.1442 218.707 87.0498 218.22C87.9213 217.758 88.8098 217.323 89.6984 216.904C93.2696 215.212 97.0289 213.888 100.865 212.923C102.779 212.444 104.71 212.051 106.632 211.701C108.554 211.351 110.46 211.06 112.305 210.693C114.159 210.325 115.945 209.881 117.576 209.189C119.217 208.506 120.678 207.54 121.942 206.31C123.207 205.088 124.317 203.644 125.326 202.089C126.334 200.534 127.248 198.885 128.213 197.211V197.202C128.41 196.861 128.854 196.741 129.196 196.937C129.478 197.1 129.606 197.424 129.538 197.732C129.076 199.654 128.393 201.525 127.487 203.328C126.582 205.122 125.428 206.857 123.942 208.343C123.198 209.078 122.369 209.753 121.498 210.343C120.618 210.932 119.678 211.428 118.721 211.846C116.799 212.675 114.825 213.162 112.895 213.563C110.955 213.956 109.05 214.273 107.179 214.623C105.299 214.973 103.445 215.366 101.625 215.836C97.9687 216.776 94.4316 218.075 91.0227 219.672C90.1683 220.074 89.3225 220.492 88.4852 220.928C87.6821 221.355 86.7337 221.868 85.7939 222.27C83.8972 223.09 81.8638 223.654 79.7877 223.884C77.7201 224.124 75.6184 224.038 73.585 223.688C71.5516 223.337 69.5865 222.731 67.7154 221.945C63.9733 220.364 60.6156 218.1 57.5741 215.546C54.541 212.974 51.79 210.103 49.3892 206.908L49.3123 206.805L49.2525 206.686C47.3643 202.901 45.8179 198.928 44.75 194.81C43.682 190.701 43.0839 186.437 43.1437 182.148C43.1779 180.004 43.3744 177.859 43.7674 175.732C44.169 173.664 44.5876 171.657 45.0063 169.615C45.8692 165.548 46.8004 161.49 47.8684 157.466C48.9278 153.441 50.1069 149.434 51.4482 145.479L52.482 142.523C52.8494 141.549 53.1997 140.558 53.5841 139.592C54.3445 137.636 55.1391 135.722 55.9507 133.808C57.5741 129.98 59.2913 126.178 61.1539 122.445C63.0335 118.711 65.0583 115.029 67.4164 111.526C68.5954 109.775 69.8599 108.074 71.1756 106.443C72.4828 104.802 73.8071 103.247 74.9776 101.624C76.1481 100.009 77.1477 98.3089 78.0277 96.5148L78.677 95.1392C78.9162 94.6522 79.1298 94.1567 79.3947 93.6868C79.651 93.2084 79.8902 92.7299 80.1807 92.2685C80.4541 91.7986 80.736 91.3373 81.0351 90.8845C83.4017 87.2534 86.5885 84.1349 90.305 81.8623C94.0215 79.5982 98.2421 78.1629 102.582 77.7613C106.914 77.3512 111.374 77.9066 115.432 79.6239C116.44 80.051 117.44 80.538 118.38 81.1105C118.858 81.3839 119.311 81.7 119.772 82.0076C120.216 82.3408 120.669 82.6569 121.088 83.0157C122.805 84.4083 124.292 86.0914 125.505 87.954C127.923 91.6876 129.059 96.1218 129.162 100.453C129.273 104.802 128.453 109.074 127.163 113.132L127.222 112.876C126.889 115.695 126.59 118.523 126.394 121.351C126.197 124.179 126.052 127.016 125.992 129.852C125.881 135.525 126.077 141.207 126.564 146.863C127.043 152.527 127.829 158.166 128.658 163.831C129.068 166.667 129.486 169.512 129.82 172.383C130.161 175.254 130.409 178.158 130.452 181.097C130.469 181.883 129.837 182.533 129.051 182.55C128.265 182.567 127.615 181.935 127.607 181.149L127.581 181.123Z" fill="#371A45"/>
<path d="M164.344 190.521C164.344 190.521 165.258 183.669 166.77 177.825L164.344 190.521Z" fill="white"/>
<path d="M163.645 190.427C163.824 188.257 164.063 186.104 164.345 183.943C164.627 181.781 164.969 179.628 165.396 177.466C165.55 176.697 166.302 176.193 167.071 176.347C167.84 176.501 168.344 177.253 168.19 178.022C168.181 178.073 168.164 178.124 168.156 178.176V178.184C167.515 180.2 166.96 182.259 166.447 184.344C165.943 186.42 165.473 188.522 165.063 190.624V190.632C164.986 191.017 164.61 191.273 164.226 191.196C163.858 191.119 163.611 190.786 163.645 190.427Z" fill="#371A45"/>
<path d="M147.532 214.956C147.028 214.956 146.532 214.683 146.276 214.204C146.165 213.999 143.602 209.155 143.081 201.15C142.602 193.828 143.815 182.319 152.325 169.128C152.752 168.47 153.632 168.273 154.29 168.701C154.948 169.128 155.144 170.008 154.717 170.666C146.669 183.139 145.49 193.939 145.909 200.799C146.37 208.241 148.754 212.803 148.779 212.854C149.147 213.546 148.89 214.409 148.198 214.785C147.985 214.896 147.754 214.956 147.532 214.956Z" fill="#371A45"/>
<path d="M175.835 82.1956C173.264 92.8923 167.975 103 160.106 111.458C158.5 113.184 156.791 114.833 154.98 116.405C154.1 117.174 153.186 117.917 152.246 118.66C149.418 120.864 146.462 122.804 143.412 124.487C140.789 125.939 138.081 127.204 135.33 128.272C132.015 129.57 128.614 130.579 125.188 131.33C123.932 131.595 122.676 131.835 121.42 132.031C98.3695 135.662 74.0883 127.247 58.6242 107.929C35.8296 79.4787 40.802 38.1528 69.7054 15.623C75.2759 11.2914 81.3334 7.9508 87.6386 5.62692C88.3734 5.34497 89.1167 5.08867 89.8685 4.84944C91.8678 4.18303 93.8926 3.61915 95.926 3.14924C100.634 2.06419 105.435 1.50031 110.211 1.44905C114.987 1.38924 119.763 1.83352 124.436 2.77332C125.923 3.07235 127.401 3.4141 128.862 3.81566C131.058 4.41372 133.228 5.12284 135.364 5.94304C146.018 10.0269 155.732 16.879 163.319 26.3625C176.442 42.7151 180.363 63.3396 175.835 82.1956Z" fill="white"/>
<path d="M110.896 132.996C90.6472 132.996 71.2445 123.923 58.5058 108.015C47.5015 94.2764 42.5633 77.1292 44.6052 59.7171C46.6642 42.1684 55.5411 26.4651 69.6126 15.5035C75.1062 11.2316 81.1466 7.85687 87.5886 5.48172C88.2806 5.21686 89.0325 4.95201 89.827 4.6957C91.8177 4.03783 93.8597 3.4654 95.9016 2.9955C100.575 1.91899 105.394 1.34656 110.221 1.28676C114.997 1.22695 119.798 1.67122 124.48 2.61103C125.984 2.91006 127.479 3.2689 128.914 3.65336C131.153 4.26851 133.349 4.98618 135.433 5.78929C146.421 10.0013 156.109 17.0841 163.448 26.2515C176.153 42.1 180.715 62.5024 175.982 82.2213C173.359 93.1487 167.908 103.29 160.219 111.543C158.587 113.295 156.861 114.961 155.075 116.499C154.255 117.208 153.367 117.951 152.341 118.754C149.539 120.933 146.566 122.898 143.481 124.598C140.901 126.025 138.184 127.306 135.382 128.391C132.11 129.664 128.692 130.698 125.215 131.45C123.968 131.715 122.703 131.954 121.439 132.151C117.927 132.732 114.399 132.996 110.896 132.996ZM111.101 1.57724C110.802 1.57724 110.511 1.57724 110.212 1.58579C105.411 1.64559 100.609 2.21802 95.9614 3.28599C93.928 3.75589 91.8946 4.32831 89.9125 4.98618C89.1264 5.24249 88.3831 5.4988 87.6911 5.76366C81.2833 8.13026 75.26 11.4879 69.792 15.7427C55.7804 26.6616 46.9376 42.288 44.8957 59.7599C42.8623 77.095 47.7749 94.1654 58.7365 107.844C73.6111 126.418 97.6274 135.636 121.405 131.894C122.66 131.698 123.925 131.459 125.164 131.194C128.624 130.442 132.033 129.417 135.288 128.144C138.073 127.059 140.782 125.786 143.345 124.367C146.412 122.676 149.377 120.719 152.162 118.549C153.179 117.746 154.076 117.011 154.887 116.302C156.656 114.764 158.382 113.107 160.005 111.364C167.66 103.145 173.085 93.0547 175.7 82.17C180.416 62.5366 175.862 42.2282 163.217 26.448C155.904 17.3147 146.258 10.2747 135.322 6.07123C133.246 5.26812 131.067 4.55045 128.829 3.94385C127.394 3.55084 125.907 3.20055 124.412 2.90152C120.038 2.02152 115.569 1.57724 111.101 1.57724Z" fill="#371A45"/>
<path d="M58.6177 107.929C74.0818 127.247 98.3715 135.662 121.422 132.031C122.678 131.834 123.934 131.595 125.19 131.33C128.625 130.587 132.017 129.57 135.332 128.28C138.083 127.204 140.782 125.948 143.414 124.495C146.464 122.812 149.42 120.873 152.257 118.669C153.188 117.925 154.102 117.182 154.991 116.413C156.802 114.841 158.511 113.184 160.117 111.458C167.994 103.008 173.283 92.8923 175.846 82.1956C177.256 76.3175 177.845 70.2686 177.597 64.2367C174.915 74.3866 169.754 83.9556 162.236 92.0208C160.629 93.7467 158.921 95.3956 157.109 96.9676C156.229 97.7366 155.315 98.4799 154.375 99.2232C151.539 101.427 148.591 103.367 145.541 105.05C142.91 106.502 140.21 107.767 137.467 108.835C134.153 110.125 130.752 111.142 127.326 111.893C126.07 112.158 124.814 112.398 123.558 112.594C100.507 116.225 76.2262 107.81 60.7536 88.4923C51.7229 77.2231 47.058 63.9377 46.5027 50.601C41.385 69.8585 45.1613 91.1408 58.6177 107.929Z" fill="#D8D8D8"/>
<path d="M110.894 133.962C90.355 133.962 70.6788 124.76 57.7522 108.621C46.5856 94.6865 41.579 77.283 43.6465 59.6146C45.7312 41.8095 54.7448 25.8755 69.0213 14.7602C74.5918 10.4285 80.7262 7.01102 87.2536 4.59315C87.9542 4.3283 88.7231 4.0549 89.5262 3.79859C91.534 3.13218 93.6101 2.55121 95.6777 2.07276C100.419 0.979165 105.306 0.398195 110.193 0.338389C115.038 0.278583 119.899 0.722856 124.649 1.67975C126.179 1.98732 127.691 2.34616 129.152 2.73917C131.425 3.36286 133.646 4.08907 135.765 4.90927C146.906 9.18112 156.74 16.3664 164.19 25.6619C177.074 41.7497 181.713 62.4511 176.911 82.4519C174.246 93.5416 168.718 103.828 160.917 112.201C159.26 113.978 157.509 115.67 155.706 117.233C154.877 117.951 153.971 118.703 152.938 119.523C150.093 121.736 147.077 123.727 143.95 125.452C141.335 126.896 138.576 128.195 135.739 129.306C132.424 130.604 128.955 131.647 125.427 132.415C124.162 132.689 122.872 132.928 121.599 133.133C118.028 133.689 114.448 133.962 110.894 133.962ZM111.099 2.54266C110.809 2.54266 110.518 2.54266 110.228 2.5512C105.494 2.61101 100.761 3.1749 96.1732 4.22577C94.174 4.68713 92.1662 5.25102 90.2097 5.90034C89.4323 6.1481 88.6975 6.41296 88.0225 6.66927C81.7002 9.0017 75.7623 12.3167 70.3713 16.5116C56.5646 27.2681 47.8586 42.6724 45.8337 59.888C43.8345 76.9583 48.6702 93.7809 59.4695 107.254C74.1305 125.563 97.7965 134.645 121.24 130.955C122.479 130.758 123.727 130.527 124.948 130.262C128.357 129.519 131.715 128.511 134.919 127.255C137.661 126.187 140.336 124.931 142.865 123.53C145.889 121.864 148.811 119.933 151.562 117.797C152.562 117.011 153.442 116.285 154.245 115.584C155.996 114.072 157.688 112.432 159.294 110.714C166.838 102.624 172.187 92.6702 174.758 81.9478C179.406 62.6049 174.921 42.5955 162.464 27.0545C155.261 18.058 145.752 11.112 134.97 6.97685C132.928 6.18228 130.775 5.4817 128.571 4.88364C127.161 4.49917 125.692 4.15743 124.214 3.8584C119.908 2.97839 115.499 2.54266 111.099 2.54266Z" fill="#371A45"/>
<path d="M110.896 134.278C90.2633 134.278 70.4846 125.034 57.5067 108.818C46.2888 94.8146 41.2566 77.3257 43.3327 59.5719C45.4259 41.6814 54.4822 25.6705 68.8271 14.4953C74.4232 10.138 80.5832 6.70344 87.1448 4.28557C87.8454 4.02072 88.6229 3.74732 89.426 3.48246C91.4423 2.81605 93.5269 2.22654 95.6031 1.74809C100.37 0.654497 105.275 0.0649796 110.187 0.00517369C115.057 -0.0546322 119.944 0.398183 124.711 1.35508C126.241 1.66265 127.77 2.02149 129.231 2.42304C131.512 3.04673 133.751 3.78149 135.87 4.60169C147.062 8.89917 156.938 16.1101 164.423 25.4569C177.375 41.6216 182.031 62.4169 177.204 82.5288C174.53 93.6698 168.968 104.008 161.133 112.423C159.467 114.209 157.707 115.9 155.896 117.473C155.067 118.199 154.153 118.951 153.111 119.771C150.257 121.992 147.216 124 144.08 125.726C141.457 127.178 138.68 128.485 135.835 129.596C132.503 130.895 129.017 131.946 125.48 132.715C124.207 132.988 122.917 133.227 121.636 133.432C118.056 134.005 114.468 134.278 110.896 134.278ZM111.101 2.85877C110.811 2.85877 110.52 2.85877 110.23 2.86731C105.514 2.92712 100.815 3.48246 96.2438 4.53334C94.2532 4.9947 92.2539 5.55004 90.3145 6.19936C89.537 6.44713 88.8108 6.70344 88.1444 6.95975C81.8477 9.28364 75.944 12.5815 70.5786 16.7508C56.8403 27.4561 48.177 42.7835 46.1692 59.9051C44.1785 76.89 48.9972 93.6356 59.7366 107.041C74.3292 125.256 97.8757 134.295 121.2 130.63C122.43 130.433 123.669 130.203 124.891 129.938C128.283 129.203 131.623 128.195 134.81 126.948C137.544 125.88 140.201 124.632 142.713 123.24C145.72 121.582 148.634 119.66 151.368 117.532C152.367 116.746 153.239 116.029 154.033 115.328C155.776 113.816 157.459 112.193 159.057 110.484C166.559 102.427 171.881 92.5335 174.444 81.8624C179.066 62.622 174.607 42.7151 162.21 27.2425C155.042 18.2887 145.584 11.3768 134.853 7.26732C132.819 6.4813 130.675 5.78072 128.488 5.18266C127.087 4.79819 125.626 4.45645 124.156 4.15742C119.867 3.2945 115.484 2.85877 111.101 2.85877Z" fill="#371A45"/>
<path d="M169.797 97.9673C139.211 134.039 82.8481 129.306 67.8539 85.2372C57.6528 55.2574 79.5844 22.1932 109.453 14.3245C131.188 8.59165 154.931 12.368 173.104 43.168C173.104 43.168 179.008 58.0341 177.589 69.363C176.171 80.692 172.847 91.4827 172.847 91.4827L169.797 97.9673Z" fill="#371A45"/>
<path d="M67.8601 85.2286C82.8458 129.297 139.217 134.03 169.804 97.9673L170.419 96.6515C130.93 115.08 82.8799 101.709 66.8861 57.4274C64.622 66.4324 64.716 75.9758 67.8601 85.2286Z" fill="#220F2D"/>
<path d="M119.279 130.186C109.428 130.186 99.7911 128.101 91.1619 123.957C76.2788 116.815 65.4625 104.341 59.8663 87.9028C54.7316 72.7976 56.3976 56.1032 64.5654 40.8868C73.6388 23.9788 89.7351 11.0693 107.609 6.35318C117.545 3.73026 126.969 3.11512 135.606 4.52483L135.752 4.55046L135.888 4.60172C147.089 8.8992 156.966 16.1101 164.45 25.4569C177.402 41.6216 182.058 62.417 177.231 82.5288C174.557 93.6698 168.995 104.008 161.16 112.423C159.494 114.209 157.734 115.901 155.923 117.473C155.094 118.199 154.18 118.951 153.138 119.771C150.284 121.992 147.243 124 144.107 125.726L143.902 125.82C135.854 128.742 127.49 130.186 119.279 130.186ZM126.285 6.64367C120.569 6.64367 114.563 7.46387 108.326 9.1128C91.1961 13.6324 75.7747 26.0122 67.0601 42.2367C59.2683 56.7525 57.6706 72.6438 62.5491 86.9887C67.8889 102.692 78.2097 114.593 92.3837 121.394C107.489 128.648 125.866 129.297 142.817 123.188C145.79 121.548 148.661 119.643 151.369 117.541C152.369 116.755 153.24 116.037 154.035 115.337C155.778 113.824 157.461 112.201 159.059 110.492C166.56 102.436 171.883 92.5421 174.446 81.871C179.068 62.6306 174.608 42.7237 162.211 27.2511C155.069 18.34 145.662 11.4452 134.991 7.32716C132.18 6.8658 129.275 6.64367 126.285 6.64367Z" fill="#371A45"/>
<path d="M38.5557 90.0986C41.2043 102.786 51.0296 111.868 60.496 110.381C69.9709 108.895 75.4987 97.3949 72.8587 84.7075C72.8416 84.6306 72.8245 84.5452 72.8075 84.4683C70.0906 71.9005 60.3251 62.9467 50.9185 64.4248C43.5965 65.5782 38.6326 72.6951 37.9748 81.7258C37.7697 84.3914 37.9491 87.2194 38.5557 90.0986Z" fill="white"/>
<path d="M38.5557 90.0985C41.2043 102.786 51.0296 111.868 60.496 110.381C69.9709 108.895 75.4987 97.3948 72.8587 84.7074C72.8416 84.6305 72.8245 84.5451 72.8075 84.4682C72.0385 85.9377 70.6801 87.4756 68.3989 87.3816C64.3919 87.2278 55.7884 80.1536 55.7884 80.1536C55.7884 80.1536 48.0564 80.7859 37.9748 81.7257C37.7697 84.3913 37.9491 87.2193 38.5557 90.0985Z" fill="#D8D8D8"/>
<path d="M58.4724 111.97C49.0145 111.97 39.7446 102.82 37.1559 90.3976C35.5411 82.657 36.7543 75.1129 40.4879 69.7133C43.0681 65.9797 46.5967 63.6644 50.6891 63.0236C60.8817 61.4174 71.4589 71.0205 74.2526 84.4256C75.8674 92.1662 74.6542 99.7103 70.9206 105.11C68.3404 108.843 64.8118 111.159 60.7194 111.8C59.9676 111.911 59.2157 111.97 58.4724 111.97ZM52.9788 65.6892C52.3637 65.6892 51.7485 65.7319 51.1334 65.8345C47.827 66.3556 44.9563 68.2523 42.8289 71.3366C39.5908 76.0271 38.5058 82.939 39.9411 89.8166C42.4274 101.752 51.552 110.356 60.2666 108.98C63.573 108.459 66.4437 106.562 68.5711 103.487C71.8091 98.7961 72.8942 91.8842 71.4588 85.0065C69.1435 73.8997 61.1039 65.6892 52.9788 65.6892Z" fill="#371A45"/>
<path d="M39.3334 99.5905C44.4084 108.348 53.5843 111.355 59.8212 106.297C66.0667 101.248 67.0065 90.0558 61.9315 81.2985C56.8566 72.5412 47.6806 69.5338 41.4437 74.5916C35.2068 79.641 34.2585 90.8332 39.3334 99.5905Z" fill="white"/>
<path d="M52.9858 108.903C52.2681 108.903 51.5333 108.835 50.79 108.698C46.2704 107.861 42.0498 104.572 39.2048 99.6675C34.1042 90.8675 35.0696 79.5642 41.3578 74.4721C43.9721 72.3618 47.1248 71.5672 50.4824 72.1909C55.0021 73.0282 59.2227 76.3176 62.0677 81.2216C67.1683 90.0217 66.2029 101.325 59.9147 106.417C57.8813 108.057 55.5147 108.903 52.9858 108.903ZM39.4611 99.5137C42.2634 104.341 46.4071 107.588 50.8413 108.408C54.1135 109.014 57.1807 108.245 59.7267 106.186C65.9038 101.188 66.8351 90.0558 61.8029 81.3754C59.0005 76.5397 54.8568 73.3016 50.4226 72.4814C47.1504 71.8748 44.0832 72.6438 41.5372 74.7028C35.3601 79.7009 34.4288 90.8333 39.4611 99.5137Z" fill="#371A45"/>
<path d="M65.3061 95.5066C65.4599 91.9781 64.6397 88.3897 63.1104 85.1858C62.068 93.2084 55.7884 97.6767 48.5006 95.276C43.7931 93.7295 39.7348 89.6627 37.3767 84.6903C37.3084 85.1944 37.2657 85.7241 37.24 86.2538C36.847 95.2418 42.8105 104.606 50.5597 107.152C58.3088 109.715 64.9131 104.486 65.3061 95.5066Z" fill="#D8D8D8"/>
<path d="M53.1045 110.228C45.7056 110.228 38.2983 102.538 36.094 92.2174C34.7014 85.6644 35.6668 79.1541 38.6742 74.8139C40.6136 72.0201 43.2365 70.3113 46.261 69.8585C54.1468 68.6795 62.4684 76.7106 64.8179 87.7576C66.2105 94.3106 65.2451 100.821 62.2377 105.161C60.2983 107.955 57.6754 109.664 54.6509 110.116C54.1383 110.185 53.6171 110.228 53.1045 110.228ZM47.8757 72.584C47.4827 72.584 47.0812 72.6096 46.6882 72.6694C44.4583 73.0026 42.5018 74.3013 41.0237 76.4286C38.452 80.1366 37.6489 85.8182 38.8878 91.6193C40.8016 100.633 46.9872 107.374 53.0532 107.382C53.4462 107.382 53.8478 107.357 54.2408 107.297C56.4707 106.964 58.4272 105.665 59.9053 103.538C62.4769 99.8298 63.28 94.1483 62.0412 88.3471C60.1189 79.3335 53.9332 72.584 47.8757 72.584Z" fill="#371A45"/>
<g opacity="0.5">
<path d="M98.7965 33.5563C98.7965 33.5563 126.102 28.1652 144.967 39.4942C144.984 39.5027 145.009 39.5198 145.027 39.5283C148.999 41.9206 152.237 45.321 154.433 49.3621C157.338 54.702 158.543 58.8115 159.457 62.4596C162.251 73.5665 161.448 79.2993 161.448 79.2993C166.386 71.8492 168.325 64.2965 166.095 55.0181C165.873 54.1039 165.608 53.1726 165.309 52.2157C165.241 51.9936 165.164 51.78 165.087 51.5664C165.096 51.5664 165.087 51.5579 165.079 51.5579C164.327 49.6783 163.25 47.2348 161.806 44.5862C157.441 36.5978 149.726 26.6701 137.551 24.1753C114.799 19.5275 97.5748 32.625 98.7965 33.5563Z" fill="white"/>
</g>
<path d="M152.615 136.875C150.325 141.805 134.707 141.13 134.707 141.13C134.707 141.13 133.289 144.864 129.717 145.487C126.889 145.983 122.976 143.702 121.866 138.968C121.515 137.482 121.447 135.748 121.78 133.782C123.164 125.572 142.422 125.17 147.514 126.033C150.82 126.597 152.606 129.647 153.042 132.586C153.289 134.184 153.136 135.748 152.615 136.875Z" fill="white"/>
<path d="M152.616 136.875C150.326 141.805 134.708 141.13 134.708 141.13C134.708 141.13 133.29 144.864 129.719 145.487C126.891 145.983 122.978 143.702 121.867 138.969C122.961 139.84 124.712 140.677 127.233 140.25C131.607 139.498 133.008 135.645 133.008 135.645C133.008 135.645 149.549 138.396 153.052 132.604C153.291 134.184 153.137 135.748 152.616 136.875Z" fill="#D8D8D8"/>
<path d="M128.946 146.974C126.998 146.974 124.914 146.06 123.299 144.462C121.778 142.95 119.369 139.515 120.377 133.543C120.71 131.561 121.872 129.861 123.82 128.468C130.134 123.983 143.496 123.897 147.751 124.624C150.118 125.025 152.1 126.538 153.321 128.87C154.748 131.587 154.988 135.124 153.894 137.465C151.553 142.506 139.694 142.677 135.568 142.574C134.807 143.941 133.064 146.333 129.954 146.88C129.63 146.948 129.288 146.974 128.946 146.974ZM142.548 127.136C137.088 127.136 129.365 128.024 125.469 130.792C124.136 131.741 123.384 132.792 123.179 134.013C122.385 138.721 124.17 141.31 125.298 142.437C126.528 143.659 128.16 144.3 129.467 144.078C132.159 143.608 133.355 140.643 133.363 140.618C133.586 140.045 134.149 139.669 134.756 139.703C140.848 139.96 150.007 139.071 151.314 136.269C151.92 134.962 151.946 132.39 150.801 130.203C150.229 129.118 149.161 127.759 147.273 127.443C146.187 127.255 144.513 127.136 142.548 127.136Z" fill="#371A45"/>
<path d="M92.7664 177.21C85.9058 178.586 79.8056 179.132 74.4658 179.15C55.1912 179.201 45.7931 172.297 45.7931 172.297C42.0339 167.274 43.2557 163.386 45.2207 160.849V160.84C46.9551 158.61 49.2619 157.423 49.2619 157.423C51.731 159.379 54.4137 160.926 57.2161 162.13C63.1283 164.694 69.5105 165.753 75.3031 166.069C85.8717 166.642 94.4495 164.685 94.4495 164.685C99.6527 168.367 92.7664 177.21 92.7664 177.21Z" fill="white"/>
<path d="M75.2946 166.061L74.4658 179.15C55.1912 179.201 45.7931 172.298 45.7931 172.298C42.0339 167.274 43.2557 163.386 45.2207 160.849C45.0498 164.19 45.9811 167.821 50.1932 169.478C56.3788 171.913 57.2503 165.907 57.2161 162.13C63.1198 164.685 69.5105 165.753 75.2946 166.061Z" fill="#D8D8D8"/>
<path d="M74.1411 180.594C54.9519 180.594 45.4513 173.818 44.9472 173.442L44.7764 173.314L44.6482 173.143C42.3072 170.016 41.4699 166.924 42.1534 163.942C43.3068 158.935 48.3818 156.253 48.6039 156.141L49.4241 155.723L50.1418 156.295C66.6055 169.35 93.8429 163.344 94.1162 163.284L94.7399 163.139L95.2611 163.506C96.6623 164.497 97.491 165.847 97.7388 167.522C98.4308 172.187 94.0821 177.842 93.8941 178.082L93.5695 178.5L93.0483 178.603C85.9399 180.03 79.6432 180.594 74.1411 180.594ZM46.8012 171.255C48.5014 172.374 63.4358 181.491 91.9547 175.92C93.1423 174.263 95.3124 170.563 94.9194 167.94C94.8168 167.24 94.5349 166.676 94.065 166.206C89.5795 167.112 65.4009 171.264 49.1678 159.14C47.9375 159.96 45.5538 161.866 44.9301 164.6C44.4602 166.667 45.0925 168.906 46.8012 171.255Z" fill="#371A45"/>
<path d="M132.536 165.574C132.365 167.598 129.52 181.858 127.307 187.651C126.931 188.642 126.572 189.385 126.248 189.778C124.103 192.358 102.838 194.733 92.7564 192.221C86.5878 190.684 87.9975 179.918 90.0138 171.793C91.2954 166.642 92.8247 162.549 92.8247 162.549C92.8247 162.549 110.621 164.147 124.787 161.421C124.787 161.421 132.707 163.591 132.536 165.574Z" fill="white"/>
<path d="M127.307 187.65C126.931 188.642 126.572 189.385 126.248 189.778C124.103 192.358 102.838 194.733 92.7564 192.221C86.5878 190.683 87.9975 179.918 90.0138 171.793C96.883 172.152 104.735 172.554 104.735 172.554C104.88 172.69 108.656 187.864 113.757 187.386C119.566 186.839 117.918 177.894 120.652 175.373C123.386 172.853 125.949 176.612 125.949 176.612C125.949 176.612 123.505 188.103 127.307 187.65Z" fill="#D8D8D8"/>
<path d="M104.096 194.665C99.6017 194.665 95.3897 194.332 92.4165 193.597C90.5539 193.136 89.1357 191.991 88.1959 190.205C84.018 182.268 91.1862 162.865 91.4937 162.045C91.7159 161.447 92.3139 161.063 92.9547 161.122C93.1341 161.139 110.717 162.669 124.524 160.02C124.737 159.978 124.959 159.986 125.173 160.046C131.179 161.695 134.135 163.592 133.965 165.693C133.794 167.701 130 187.488 127.352 190.684C125.387 193.042 114.066 194.665 104.096 194.665ZM93.8005 164.053C91.7073 170.008 87.9139 183.558 90.7248 188.889C91.2801 189.94 92.0576 190.581 93.1085 190.837C102.917 193.281 123.293 190.778 125.164 188.864C126.924 186.745 130.726 168.948 131.102 165.659C130.504 164.958 127.668 163.72 124.729 162.882C112.443 165.172 97.893 164.352 93.8005 164.053Z" fill="#371A45"/>
<path d="M103.429 169.478C103.429 169.478 126.164 169.265 132.537 165.035L103.429 169.478Z" fill="white"/>
<path d="M103.428 170.896C102.65 170.896 102.01 170.264 102.001 169.487C101.993 168.701 102.625 168.06 103.411 168.051C109.614 167.991 126.803 167.12 131.742 163.848C132.4 163.412 133.28 163.591 133.715 164.249C134.151 164.907 133.972 165.787 133.314 166.223C126.658 170.64 104.376 170.896 103.428 170.905C103.436 170.896 103.436 170.896 103.428 170.896Z" fill="#371A45"/>
<path d="M126.906 179.577C126.838 180.141 125.599 184.635 125.599 184.635C125.599 184.635 124.352 184.498 122.822 184.336C120.908 184.13 119.635 181.67 119.986 178.842C120.336 176.014 122.156 173.878 124.07 174.083C125.36 174.22 126.846 174.382 126.846 174.382C126.846 174.382 127.026 178.662 126.906 179.577Z" fill="#22A7F0"/>
<path d="M126.907 179.577C126.838 180.141 125.6 184.635 125.6 184.635C125.6 184.635 125.565 184.635 125.506 184.626C125.856 183.327 126.257 181.79 126.3 181.473C126.411 180.551 126.24 176.279 126.24 176.279C126.24 176.279 124.754 176.117 123.464 175.98C122.131 175.835 120.832 176.834 120.055 178.415C120.525 175.8 122.259 173.895 124.07 174.092C125.36 174.228 126.847 174.391 126.847 174.391C126.847 174.391 127.026 178.663 126.907 179.577Z" fill="white"/>
<path d="M126.906 179.577C126.838 180.141 125.599 184.635 125.599 184.635C125.599 184.635 124.352 184.498 122.822 184.336C120.908 184.131 119.635 181.67 119.986 178.842C120.071 178.167 120.234 177.535 120.464 176.962C120.823 178.705 121.729 177.612 123.087 177.757C124.616 177.919 125.992 180.423 125.992 180.423C125.992 180.423 126.539 178.432 126.932 176.937C126.949 178.03 126.957 179.158 126.906 179.577Z" fill="#2585EF"/>
<path d="M124.849 185.617C124.781 185.617 124.712 185.617 124.644 185.609L122.713 185.404C121.731 185.301 120.851 184.788 120.167 183.925C119.15 182.652 118.689 180.704 118.928 178.714C119.347 175.254 121.654 172.759 124.191 173.024L126.131 173.229C127.156 173.34 127.925 174.22 127.959 175.322C128.036 177.689 128.044 179.167 127.976 179.713C127.959 179.859 127.908 180.243 126.899 183.968C126.626 184.951 125.789 185.617 124.849 185.617ZM123.832 175.143C122.713 175.143 121.329 176.655 121.047 178.97C120.876 180.38 121.175 181.764 121.833 182.593C122.158 183.003 122.525 183.233 122.935 183.276L124.798 183.473C124.806 183.456 124.823 183.43 124.832 183.396C125.738 180.081 125.84 179.525 125.849 179.449C125.866 179.286 125.917 178.534 125.814 175.39C125.814 175.373 125.814 175.356 125.806 175.339L123.952 175.143C123.918 175.143 123.875 175.143 123.832 175.143Z" fill="#371A45"/>
<path d="M130.452 179.961C130.102 182.789 128.248 184.925 126.309 184.72C124.369 184.515 123.079 182.054 123.429 179.226C123.78 176.398 125.634 174.263 127.573 174.468C129.521 174.664 130.803 177.125 130.452 179.961Z" fill="#22A7F0"/>
<path d="M130.452 179.961C130.41 180.303 130.35 180.636 130.264 180.952C130.23 178.569 129.034 176.655 127.334 176.475C125.625 176.296 123.993 177.919 123.387 180.243C123.387 179.91 123.404 179.568 123.447 179.226C123.797 176.398 125.651 174.263 127.59 174.468C129.521 174.664 130.803 177.125 130.452 179.961Z" fill="white"/>
<path d="M130.452 179.961C130.102 182.789 128.248 184.925 126.309 184.72C124.369 184.515 123.079 182.054 123.429 179.226C123.515 178.526 123.694 177.868 123.942 177.287C124.241 179.201 125.335 180.636 126.796 180.79C128.257 180.944 129.666 179.773 130.427 177.97C130.529 178.586 130.546 179.261 130.452 179.961Z" fill="#2585EF"/>
<path d="M126.573 185.797C126.445 185.797 126.325 185.788 126.197 185.78C125.198 185.677 124.301 185.156 123.609 184.284C122.592 183.003 122.131 181.063 122.378 179.09C122.805 175.63 125.138 173.135 127.692 173.4C128.692 173.502 129.589 174.023 130.281 174.895C131.298 176.176 131.759 178.116 131.512 180.089C131.11 183.379 128.983 185.797 126.573 185.797ZM127.325 175.519C126.052 175.519 124.753 177.253 124.497 179.355C124.326 180.773 124.617 182.114 125.283 182.952C125.514 183.242 125.898 183.592 126.428 183.652C127.735 183.789 129.128 182.003 129.401 179.825C129.572 178.406 129.282 177.065 128.615 176.228C128.384 175.937 128 175.587 127.47 175.527C127.419 175.519 127.376 175.519 127.325 175.519Z" fill="#371A45"/>
<path d="M173.181 141.873L166.764 166.642L166.414 167.991C166.405 167.991 166.405 168 166.405 168.009L165.748 170.546L162.236 184.105C161.441 187.164 158.733 189.342 155.572 189.453L131.291 190.299C129.462 190.137 127.779 189.24 126.634 187.804L125.797 186.753C124.883 185.617 124.541 184.122 124.857 182.695L131.282 153.894L134.512 139.404C134.947 137.431 136.776 136.38 138.826 136.44C141.253 136.499 163.928 136.815 169.669 137.132C172.394 137.285 173.292 139.447 173.181 141.873Z" fill="#E94E1B"/>
<path d="M165.754 170.555L162.243 184.113C161.448 187.172 158.74 189.351 155.579 189.462L131.298 190.308C129.469 190.154 127.786 189.248 126.641 187.813L125.804 186.762C124.89 185.626 124.548 184.131 124.864 182.704L131.28 153.903C132.408 155.039 134.467 156.252 137.517 156.304C142.729 156.398 150.957 154.159 153.161 160.49C155.066 165.967 145.548 175.356 150.461 180.79C153.221 183.84 162.943 178.09 165.754 170.555Z" fill="#FD7D53"/>
<path d="M166.762 166.65L166.412 168C166.532 167.18 166.651 166.744 166.762 166.65Z" fill="#46A8F9"/>
<path d="M131.3 191.726C131.257 191.726 131.214 191.726 131.18 191.717C128.976 191.529 126.917 190.427 125.533 188.693L124.695 187.642C123.508 186.155 123.064 184.241 123.482 182.387L133.128 139.097C133.692 136.576 136.016 134.936 138.869 135.013C139.467 135.03 141.296 135.064 143.808 135.107C151.36 135.235 165.406 135.474 169.755 135.713C172.916 135.884 174.779 138.268 174.616 141.933C174.608 142.036 174.599 142.13 174.574 142.224L163.638 184.455C162.698 188.103 159.408 190.735 155.641 190.863L131.359 191.709C131.334 191.726 131.317 191.726 131.3 191.726ZM138.673 137.866C137.511 137.866 136.204 138.353 135.896 139.72L126.25 183.011C126.028 184.019 126.267 185.062 126.908 185.865L127.746 186.916C128.626 188.018 129.933 188.727 131.334 188.872L155.521 188.035C158.033 187.949 160.229 186.189 160.852 183.754L171.754 141.668C171.84 138.686 170.139 138.592 169.575 138.558C165.278 138.319 151.266 138.08 143.731 137.952C141.21 137.909 139.373 137.875 138.767 137.858C138.75 137.866 138.716 137.866 138.673 137.866Z" fill="#371A45"/>
<path d="M129.494 190.88C129.443 190.829 129.4 190.769 129.357 190.709C129.323 190.658 129.272 190.564 129.263 190.547C129.229 190.478 129.203 190.41 129.186 190.342C129.169 190.265 129.144 190.154 129.135 190.103C129.118 189.974 129.118 189.88 129.109 189.795C129.109 189.616 129.118 189.47 129.126 189.325C129.144 189.043 129.178 188.77 129.212 188.513C129.28 187.992 129.357 187.48 129.443 186.976C129.613 185.967 129.801 184.968 129.998 183.968C130.391 181.977 130.818 179.995 131.245 178.022C132.108 174.066 133.022 170.127 133.945 166.197C135.791 158.329 137.696 150.477 139.644 142.634C139.712 142.343 140.003 142.172 140.293 142.241C140.575 142.309 140.746 142.6 140.686 142.882C138.918 150.759 137.183 158.653 135.509 166.548C134.671 170.495 133.851 174.45 133.082 178.406C132.698 180.38 132.322 182.362 131.972 184.344C131.801 185.335 131.63 186.318 131.493 187.309C131.425 187.796 131.356 188.291 131.305 188.77C131.279 189.009 131.262 189.248 131.254 189.462C131.245 189.564 131.245 189.675 131.254 189.752C131.254 189.786 131.262 189.829 131.262 189.821C131.262 189.838 131.262 189.786 131.254 189.769C131.245 189.727 131.228 189.684 131.211 189.65C131.211 189.65 131.168 189.564 131.143 189.522C131.109 189.47 131.074 189.428 131.032 189.385C131.45 189.804 131.45 190.478 131.032 190.897C130.613 191.316 129.904 191.299 129.494 190.88Z" fill="#371A45"/>
<path d="M144.976 140.857C147.308 140.968 149.649 141.01 151.99 141.053L159.03 141.147C161.379 141.181 163.729 141.224 166.087 141.326C167.266 141.378 168.454 141.438 169.65 141.549C170.248 141.608 170.854 141.668 171.478 141.779C171.794 141.839 172.11 141.899 172.469 142.01C172.649 142.07 172.845 142.138 173.084 142.275C173.153 142.318 173.213 142.36 173.289 142.412C173.332 142.446 173.375 142.48 173.418 142.523C173.46 142.565 173.494 142.591 173.546 142.659C173.64 142.787 173.725 142.907 173.793 143.138C173.853 143.343 173.845 143.573 173.802 143.787C173.657 144.359 173.067 144.701 172.503 144.556C171.931 144.411 171.589 143.821 171.734 143.257C171.692 143.403 171.7 143.556 171.734 143.693C171.743 143.753 171.794 143.838 171.811 143.873C171.828 143.915 171.854 143.949 171.88 143.984L171.931 144.043C171.948 144.06 171.957 144.069 171.974 144.078C171.991 144.086 171.991 144.086 171.999 144.095C171.991 144.086 171.914 144.043 171.811 144.009C171.615 143.941 171.359 143.873 171.094 143.813C170.564 143.702 170 143.616 169.436 143.539C168.3 143.394 167.146 143.283 165.985 143.189C163.661 143.001 161.328 142.873 158.987 142.745L151.956 142.386C149.615 142.258 147.265 142.13 144.916 141.925C144.625 141.899 144.403 141.643 144.429 141.344C144.446 141.062 144.694 140.848 144.976 140.857Z" fill="#371A45"/>
<path d="M94.304 154.911C94.304 154.911 75.1234 176.774 90.4508 188.078L94.304 154.911Z" fill="white"/>
<path d="M90.4504 189.505C90.1599 189.505 89.8609 189.411 89.6046 189.223C85.8197 186.429 83.6582 182.798 83.1797 178.423C81.9409 166.983 92.7658 154.492 93.2271 153.971C93.7483 153.382 94.6454 153.322 95.2349 153.843C95.8244 154.364 95.8842 155.261 95.3716 155.851C95.2691 155.97 84.9056 167.932 86.0162 178.124C86.4007 181.67 88.1778 184.626 91.2963 186.924C91.9285 187.394 92.0652 188.283 91.5953 188.915C91.3219 189.299 90.8862 189.505 90.4504 189.505Z" fill="#371A45"/>
<path d="M145.293 144.735L149.044 144.949C150.299 145.017 151.179 146.205 150.898 147.427L150.855 147.615C150.633 148.563 149.77 149.221 148.804 149.178L145.045 149.024C143.806 148.973 142.901 147.828 143.148 146.606L143.2 146.367C143.396 145.368 144.293 144.676 145.293 144.735Z" fill="#371A45"/>
<path d="M149.855 147.025C149.829 147.632 149.317 148.102 148.71 148.076C148.103 148.05 147.634 147.538 147.659 146.931C147.685 146.325 148.197 145.855 148.804 145.88C149.411 145.897 149.881 146.41 149.855 147.025Z" fill="#48404C"/>
<path d="M149.496 147.008C149.479 147.418 149.129 147.734 148.719 147.717C148.308 147.7 147.992 147.35 148.009 146.948C148.027 146.538 148.377 146.222 148.787 146.239C149.188 146.248 149.513 146.598 149.496 147.008Z" fill="#5B5B5B"/>
<path d="M149.478 147.008C149.461 147.41 149.119 147.726 148.718 147.709C148.316 147.692 148 147.35 148.017 146.948C148.034 146.547 148.376 146.231 148.778 146.248C149.188 146.265 149.495 146.598 149.478 147.008Z" fill="#595959"/>
<path d="M149.47 147.008C149.453 147.41 149.12 147.717 148.718 147.7C148.317 147.683 148.009 147.35 148.026 146.948C148.043 146.547 148.376 146.239 148.778 146.256C149.179 146.273 149.487 146.607 149.47 147.008Z" fill="#585858"/>
<path d="M149.462 147.008C149.445 147.401 149.112 147.7 148.719 147.683C148.326 147.666 148.027 147.333 148.044 146.94C148.061 146.547 148.394 146.248 148.787 146.265C149.171 146.282 149.479 146.615 149.462 147.008Z" fill="#565656"/>
<path d="M149.454 147.008C149.437 147.393 149.112 147.692 148.728 147.675C148.343 147.657 148.044 147.333 148.061 146.948C148.078 146.564 148.403 146.265 148.787 146.282C149.172 146.29 149.471 146.615 149.454 147.008Z" fill="#545454"/>
<path d="M149.437 147.008C149.42 147.384 149.095 147.683 148.719 147.666C148.343 147.649 148.044 147.324 148.061 146.948C148.078 146.572 148.394 146.273 148.779 146.29C149.163 146.299 149.454 146.624 149.437 147.008Z" fill="#535353"/>
<path d="M149.429 147C149.411 147.376 149.095 147.666 148.719 147.649C148.343 147.632 148.053 147.316 148.07 146.94C148.087 146.564 148.403 146.273 148.779 146.29C149.155 146.316 149.446 146.632 149.429 147Z" fill="#515151"/>
<path d="M149.419 146.999C149.402 147.367 149.095 147.657 148.727 147.64C148.36 147.623 148.07 147.316 148.087 146.948C148.104 146.581 148.411 146.29 148.779 146.307C149.146 146.325 149.437 146.632 149.419 146.999Z" fill="#4F4F4F"/>
<path d="M149.411 147C149.394 147.358 149.086 147.64 148.727 147.632C148.368 147.615 148.086 147.307 148.095 146.948C148.112 146.589 148.42 146.308 148.778 146.316C149.146 146.333 149.419 146.641 149.411 147Z" fill="#4E4E4E"/>
<path d="M149.394 147C149.377 147.358 149.078 147.632 148.719 147.615C148.361 147.598 148.087 147.299 148.104 146.94C148.121 146.581 148.42 146.308 148.779 146.325C149.138 146.342 149.411 146.649 149.394 147Z" fill="#4C4C4C"/>
<path d="M149.385 147C149.368 147.35 149.078 147.623 148.727 147.606C148.377 147.589 148.104 147.299 148.121 146.948C148.138 146.598 148.428 146.325 148.779 146.342C149.129 146.359 149.402 146.649 149.385 147Z" fill="#4A4A4A"/>
<path d="M149.377 147C149.36 147.341 149.069 147.615 148.728 147.598C148.386 147.581 148.113 147.29 148.13 146.948C148.147 146.607 148.437 146.333 148.779 146.35C149.121 146.367 149.394 146.658 149.377 147Z" fill="#494949"/>
<path d="M149.368 147C149.351 147.341 149.069 147.598 148.727 147.589C148.386 147.572 148.129 147.29 148.138 146.948C148.155 146.606 148.437 146.35 148.779 146.359C149.12 146.376 149.377 146.658 149.368 147Z" fill="#474747"/>
<path d="M149.351 147C149.334 147.333 149.052 147.589 148.719 147.581C148.386 147.564 148.129 147.282 148.138 146.948C148.155 146.615 148.437 146.359 148.77 146.367C149.112 146.384 149.368 146.666 149.351 147Z" fill="#454545"/>
<path d="M149.343 147C149.326 147.324 149.052 147.581 148.728 147.563C148.403 147.546 148.147 147.273 148.164 146.948C148.181 146.624 148.454 146.367 148.779 146.384C149.104 146.393 149.36 146.675 149.343 147Z" fill="#444444"/>
<path d="M149.334 147C149.317 147.324 149.052 147.572 148.727 147.555C148.402 147.538 148.155 147.273 148.172 146.948C148.189 146.624 148.454 146.376 148.778 146.393C149.094 146.41 149.351 146.675 149.334 147Z" fill="#424242"/>
<path d="M149.324 147C149.307 147.316 149.042 147.563 148.726 147.546C148.41 147.529 148.162 147.264 148.18 146.948C148.197 146.632 148.461 146.384 148.778 146.402C149.094 146.419 149.333 146.683 149.324 147Z" fill="#404040"/>
<path d="M149.309 147C149.292 147.307 149.036 147.546 148.728 147.538C148.42 147.521 148.181 147.264 148.19 146.957C148.207 146.649 148.463 146.41 148.771 146.419C149.087 146.427 149.326 146.692 149.309 147Z" fill="#3F3F3F"/>
<path d="M149.3 147C149.283 147.307 149.026 147.538 148.727 147.529C148.42 147.512 148.189 147.256 148.197 146.957C148.215 146.649 148.471 146.419 148.77 146.427C149.078 146.436 149.317 146.692 149.3 147Z" fill="#3D3D3D"/>
<path d="M149.292 147C149.284 147.299 149.027 147.529 148.728 147.512C148.429 147.495 148.199 147.247 148.216 146.948C148.224 146.649 148.481 146.419 148.78 146.436C149.07 146.444 149.301 146.701 149.292 147Z" fill="#3C3C3C"/>
<path d="M149.282 146.999C149.274 147.29 149.026 147.521 148.735 147.504C148.445 147.495 148.214 147.247 148.231 146.957C148.248 146.666 148.488 146.436 148.778 146.453C149.069 146.461 149.291 146.709 149.282 146.999Z" fill="#000072"/>
<path d="M149.264 147C149.256 147.282 149.008 147.504 148.726 147.495C148.444 147.478 148.222 147.239 148.231 146.957C148.239 146.675 148.487 146.453 148.769 146.461C149.059 146.47 149.282 146.709 149.264 147Z" fill="#383838"/>
<path d="M149.258 146.999C149.25 147.281 149.01 147.495 148.728 147.486C148.447 147.478 148.233 147.239 148.241 146.957C148.25 146.675 148.489 146.461 148.771 146.47C149.053 146.478 149.275 146.717 149.258 146.999Z" fill="#373737"/>
<path d="M149.248 147C149.239 147.273 149 147.487 148.727 147.478C148.453 147.469 148.24 147.23 148.248 146.957C148.257 146.683 148.488 146.47 148.769 146.478C149.043 146.487 149.256 146.718 149.248 147Z" fill="#353535"/>
<path d="M149.24 146.991C149.231 147.256 149.001 147.469 148.736 147.452C148.471 147.444 148.257 147.213 148.274 146.948C148.283 146.683 148.514 146.47 148.778 146.487C149.043 146.504 149.248 146.726 149.24 146.991Z" fill="#000072"/>
<path d="M149.223 146.991C149.214 147.256 148.992 147.461 148.727 147.444C148.462 147.435 148.257 147.213 148.274 146.948C148.283 146.683 148.505 146.478 148.77 146.496C149.035 146.513 149.24 146.735 149.223 146.991Z" fill="#323232"/>
<path d="M149.215 146.991C149.206 147.247 148.984 147.444 148.728 147.435C148.471 147.427 148.275 147.205 148.283 146.948C148.292 146.692 148.514 146.496 148.77 146.504C149.027 146.521 149.223 146.735 149.215 146.991Z" fill="#303030"/>
<path d="M149.205 146.991C149.196 147.239 148.983 147.435 148.735 147.427C148.487 147.418 148.291 147.205 148.299 146.957C148.308 146.709 148.521 146.513 148.769 146.521C149.017 146.53 149.213 146.743 149.205 146.991Z" fill="#2E2E2E"/>
<path d="M149.198 146.991C149.19 147.239 148.985 147.427 148.737 147.418C148.489 147.41 148.301 147.205 148.31 146.957C148.318 146.709 148.523 146.521 148.771 146.53C149.019 146.538 149.207 146.752 149.198 146.991Z" fill="#2D2D2D"/>
<path d="M149.18 146.991C149.172 147.23 148.967 147.418 148.728 147.401C148.488 147.393 148.3 147.188 148.317 146.948C148.326 146.709 148.531 146.521 148.77 146.538C149.01 146.555 149.197 146.752 149.18 146.991Z" fill="#2B2B2B"/>
<path d="M149.171 146.991C149.162 147.222 148.966 147.401 148.735 147.392C148.504 147.384 148.325 147.187 148.333 146.948C148.342 146.718 148.538 146.538 148.769 146.547C149 146.564 149.179 146.76 149.171 146.991Z" fill="#292929"/>
<path d="M149.163 146.991C149.155 147.222 148.958 147.393 148.736 147.384C148.505 147.376 148.335 147.179 148.343 146.957C148.352 146.726 148.548 146.555 148.77 146.564C148.992 146.572 149.172 146.769 149.163 146.991Z" fill="#282828"/>
<path d="M149.154 146.991C149.145 147.213 148.957 147.384 148.735 147.375C148.513 147.367 148.342 147.179 148.351 146.957C148.359 146.735 148.547 146.564 148.77 146.572C148.992 146.581 149.163 146.769 149.154 146.991Z" fill="#262626"/>
<path d="M149.137 146.991C149.128 147.205 148.949 147.376 148.727 147.367C148.513 147.358 148.342 147.179 148.351 146.957C148.359 146.743 148.539 146.572 148.761 146.581C148.983 146.598 149.145 146.778 149.137 146.991Z" fill="#242424"/>
<path d="M149.127 146.991C149.118 147.205 148.939 147.367 148.734 147.35C148.52 147.341 148.358 147.162 148.367 146.957C148.375 146.743 148.555 146.581 148.76 146.598C148.973 146.606 149.135 146.777 149.127 146.991Z" fill="#232323"/>
<path d="M149.119 146.991C149.11 147.196 148.939 147.35 148.734 147.341C148.529 147.333 148.376 147.162 148.384 146.957C148.393 146.752 148.564 146.598 148.769 146.607C148.974 146.615 149.127 146.786 149.119 146.991Z" fill="#212121"/>
<path d="M146.753 146.888C146.728 147.495 146.215 147.965 145.609 147.939C145.002 147.914 144.532 147.401 144.558 146.794C144.583 146.188 145.096 145.718 145.702 145.744C146.309 145.769 146.779 146.282 146.753 146.888Z" fill="#48404C"/>
<path d="M146.394 146.872C146.376 147.282 146.026 147.598 145.616 147.581C145.206 147.564 144.89 147.213 144.907 146.812C144.924 146.402 145.274 146.086 145.676 146.103C146.094 146.12 146.411 146.461 146.394 146.872Z" fill="#5B5B5B"/>
<path d="M146.386 146.871C146.369 147.273 146.028 147.589 145.626 147.572C145.224 147.555 144.908 147.213 144.925 146.811C144.943 146.41 145.284 146.094 145.686 146.111C146.087 146.128 146.404 146.47 146.386 146.871Z" fill="#595959"/>
<path d="M146.377 146.871C146.36 147.273 146.027 147.581 145.625 147.563C145.224 147.546 144.916 147.213 144.933 146.812C144.95 146.41 145.284 146.102 145.685 146.12C146.087 146.137 146.394 146.478 146.377 146.871Z" fill="#585858"/>
<path d="M146.369 146.871C146.352 147.264 146.019 147.563 145.626 147.546C145.233 147.529 144.934 147.196 144.951 146.803C144.968 146.41 145.301 146.111 145.694 146.128C146.079 146.145 146.378 146.478 146.369 146.871Z" fill="#565656"/>
<path d="M146.352 146.871C146.335 147.256 146.011 147.555 145.626 147.538C145.242 147.521 144.943 147.196 144.96 146.812C144.977 146.427 145.301 146.128 145.686 146.145C146.07 146.162 146.369 146.487 146.352 146.871Z" fill="#545454"/>
<path d="M146.342 146.871C146.325 147.247 146.009 147.546 145.624 147.529C145.248 147.512 144.949 147.188 144.967 146.812C144.984 146.436 145.308 146.137 145.684 146.154C146.06 146.171 146.359 146.496 146.342 146.871Z" fill="#535353"/>
<path d="M146.335 146.871C146.318 147.247 146.002 147.538 145.626 147.521C145.25 147.504 144.959 147.188 144.976 146.812C144.993 146.436 145.31 146.145 145.685 146.162C146.061 146.179 146.352 146.496 146.335 146.871Z" fill="#515151"/>
<path d="M146.326 146.871C146.309 147.239 146.001 147.529 145.634 147.512C145.266 147.495 144.976 147.187 144.993 146.82C145.01 146.453 145.318 146.162 145.685 146.179C146.052 146.188 146.334 146.504 146.326 146.871Z" fill="#4F4F4F"/>
<path d="M146.308 146.871C146.291 147.23 145.983 147.512 145.625 147.504C145.266 147.487 144.984 147.179 144.992 146.82C145.009 146.461 145.317 146.179 145.676 146.188C146.043 146.205 146.325 146.504 146.308 146.871Z" fill="#4E4E4E"/>
<path d="M146.301 146.871C146.284 147.23 145.985 147.504 145.626 147.487C145.267 147.469 144.993 147.17 145.011 146.812C145.028 146.453 145.327 146.179 145.685 146.196C146.044 146.214 146.318 146.513 146.301 146.871Z" fill="#4C4C4C"/>
<path d="M146.293 146.872C146.275 147.222 145.985 147.495 145.635 147.478C145.284 147.461 145.011 147.171 145.028 146.82C145.045 146.47 145.336 146.197 145.686 146.214C146.036 146.222 146.31 146.521 146.293 146.872Z" fill="#4A4A4A"/>
<path d="M146.284 146.871C146.267 147.213 145.977 147.487 145.635 147.469C145.293 147.452 145.02 147.162 145.037 146.82C145.054 146.478 145.344 146.205 145.686 146.222C146.028 146.231 146.293 146.521 146.284 146.871Z" fill="#494949"/>
<path d="M146.267 146.871C146.25 147.213 145.968 147.47 145.626 147.461C145.284 147.452 145.028 147.162 145.036 146.82C145.053 146.478 145.335 146.222 145.677 146.231C146.019 146.239 146.284 146.53 146.267 146.871Z" fill="#474747"/>
<path d="M146.258 146.871C146.241 147.205 145.959 147.461 145.626 147.452C145.293 147.435 145.037 147.153 145.045 146.82C145.062 146.487 145.344 146.231 145.677 146.239C146.011 146.256 146.275 146.538 146.258 146.871Z" fill="#454545"/>
<path d="M146.248 146.871C146.231 147.196 145.958 147.452 145.633 147.435C145.308 147.418 145.052 147.145 145.069 146.82C145.086 146.496 145.36 146.239 145.684 146.256C146.009 146.265 146.257 146.538 146.248 146.871Z" fill="#444444"/>
<path d="M146.24 146.863C146.223 147.187 145.958 147.435 145.633 147.418C145.309 147.401 145.061 147.136 145.078 146.812C145.095 146.487 145.36 146.239 145.685 146.256C146.001 146.273 146.248 146.547 146.24 146.863Z" fill="#424242"/>
<path d="M146.223 146.863C146.206 147.179 145.941 147.427 145.625 147.41C145.309 147.393 145.061 147.128 145.078 146.812C145.095 146.496 145.36 146.248 145.676 146.265C145.992 146.282 146.24 146.547 146.223 146.863Z" fill="#404040"/>
<path d="M146.214 146.863C146.197 147.17 145.941 147.41 145.633 147.401C145.326 147.384 145.086 147.128 145.095 146.82C145.112 146.513 145.368 146.273 145.676 146.282C145.983 146.29 146.231 146.555 146.214 146.863Z" fill="#3F3F3F"/>
<path d="M146.207 146.863C146.19 147.17 145.933 147.401 145.634 147.393C145.327 147.375 145.096 147.119 145.105 146.82C145.122 146.521 145.378 146.282 145.677 146.29C145.985 146.308 146.215 146.564 146.207 146.863Z" fill="#3D3D3D"/>
<path d="M146.198 146.863C146.189 147.162 145.933 147.393 145.634 147.375C145.335 147.358 145.104 147.111 145.121 146.812C145.13 146.513 145.386 146.282 145.685 146.299C145.975 146.316 146.206 146.564 146.198 146.863Z" fill="#3C3C3C"/>
<path d="M146.18 146.863C146.171 147.153 145.923 147.384 145.633 147.367C145.342 147.358 145.112 147.111 145.129 146.82C145.137 146.53 145.385 146.299 145.676 146.316C145.966 146.325 146.197 146.572 146.18 146.863Z" fill="#000072"/>
<path d="M146.172 146.863C146.163 147.145 145.915 147.367 145.633 147.358C145.352 147.35 145.129 147.102 145.138 146.82C145.146 146.538 145.394 146.316 145.676 146.325C145.958 146.333 146.18 146.581 146.172 146.863Z" fill="#383838"/>
<path d="M146.163 146.863C146.155 147.145 145.916 147.358 145.634 147.35C145.352 147.341 145.138 147.102 145.147 146.82C145.155 146.538 145.394 146.324 145.676 146.333C145.958 146.35 146.172 146.581 146.163 146.863Z" fill="#373737"/>
<path d="M146.156 146.863C146.148 147.136 145.908 147.35 145.635 147.341C145.362 147.333 145.148 147.094 145.156 146.82C145.165 146.547 145.396 146.333 145.678 146.342C145.951 146.359 146.165 146.59 146.156 146.863Z" fill="#353535"/>
<path d="M146.138 146.863C146.13 147.128 145.899 147.341 145.634 147.324C145.369 147.316 145.156 147.085 145.173 146.82C145.181 146.555 145.412 146.342 145.677 146.359C145.942 146.367 146.155 146.598 146.138 146.863Z" fill="#000072"/>
<path d="M146.13 146.863C146.122 147.128 145.9 147.333 145.635 147.316C145.37 147.307 145.173 147.085 145.182 146.82C145.19 146.555 145.413 146.35 145.677 146.367C145.942 146.376 146.139 146.598 146.13 146.863Z" fill="#323232"/>
<path d="M146.12 146.863C146.111 147.119 145.889 147.316 145.633 147.307C145.377 147.299 145.18 147.077 145.189 146.82C145.197 146.564 145.419 146.367 145.676 146.376C145.932 146.384 146.129 146.607 146.12 146.863Z" fill="#303030"/>
<path d="M146.112 146.863C146.103 147.111 145.89 147.307 145.642 147.299C145.394 147.29 145.198 147.076 145.206 146.829C145.215 146.581 145.428 146.384 145.676 146.393C145.924 146.402 146.121 146.607 146.112 146.863Z" fill="#2E2E2E"/>
<path d="M146.095 146.863C146.086 147.111 145.881 147.299 145.634 147.29C145.386 147.282 145.198 147.076 145.206 146.829C145.215 146.581 145.42 146.393 145.668 146.402C145.915 146.41 146.112 146.615 146.095 146.863Z" fill="#2D2D2D"/>
<path d="M146.087 146.863C146.078 147.102 145.873 147.29 145.634 147.273C145.395 147.264 145.207 147.059 145.224 146.82C145.232 146.581 145.437 146.393 145.677 146.41C145.916 146.419 146.095 146.624 146.087 146.863Z" fill="#2B2B2B"/>
<path d="M146.078 146.863C146.069 147.094 145.873 147.273 145.642 147.264C145.411 147.256 145.232 147.059 145.241 146.82C145.249 146.589 145.446 146.41 145.676 146.419C145.907 146.427 146.086 146.624 146.078 146.863Z" fill="#292929"/>
<path d="M146.07 146.863C146.061 147.094 145.864 147.264 145.642 147.256C145.412 147.247 145.241 147.051 145.249 146.829C145.258 146.598 145.454 146.427 145.677 146.436C145.899 146.444 146.078 146.632 146.07 146.863Z" fill="#282828"/>
<path d="M146.052 146.863C146.044 147.085 145.856 147.256 145.634 147.247C145.412 147.239 145.241 147.051 145.249 146.829C145.258 146.607 145.446 146.436 145.668 146.444C145.89 146.453 146.061 146.641 146.052 146.863Z" fill="#262626"/>
<path d="M146.042 146.854C146.034 147.068 145.854 147.239 145.632 147.23C145.418 147.222 145.248 147.042 145.256 146.82C145.265 146.607 145.444 146.436 145.666 146.444C145.888 146.461 146.051 146.641 146.042 146.854Z" fill="#242424"/>
<path d="M146.035 146.854C146.027 147.068 145.847 147.23 145.642 147.213C145.429 147.205 145.266 147.025 145.283 146.82C145.292 146.606 145.471 146.444 145.676 146.461C145.882 146.47 146.044 146.649 146.035 146.854Z" fill="#232323"/>
<path d="M146.027 146.854C146.019 147.059 145.848 147.213 145.643 147.205C145.438 147.196 145.284 147.025 145.292 146.82C145.301 146.615 145.472 146.461 145.677 146.47C145.873 146.478 146.036 146.658 146.027 146.854Z" fill="#212121"/>
<path d="M156.735 164.061C156.444 166.385 154.445 168.256 152.284 168.239C150.114 168.214 148.593 166.317 148.883 163.985C149.174 161.661 151.173 159.79 153.334 159.807C155.505 159.832 157.025 161.738 156.735 164.061Z" fill="white"/>
<path d="M145.293 175.202C142.687 179.295 139.141 181.619 127.146 183.926C114.211 186.412 93.1249 195.049 74.0724 180.901C63.0169 172.682 59.6934 156.842 59.6934 156.842L65.1955 149.4L79.6344 129.861C83.3594 136.44 85.5893 147.905 93.2957 154.211C98.5416 158.499 114.194 157.918 118.807 155.612C123.412 153.305 125.061 143.112 132.144 150.067C131.11 153.365 131.11 155.27 132.913 156.124C138.193 158.645 142.379 156.227 146.813 157.884C147.121 157.995 147.42 158.132 147.728 158.286C151.624 160.268 148.112 170.76 145.293 175.202Z" fill="white"/>
<path d="M145.293 175.202C142.687 179.295 139.141 181.619 127.146 183.925C114.211 186.412 93.1249 195.049 74.0724 180.901C63.0169 172.682 59.6934 156.842 59.6934 156.842L63.1194 152.203C67.434 167.65 77.208 175.946 88.8274 178.91C120.619 187.035 121.575 166.24 121.575 166.24C121.575 166.24 123.207 176.885 136.407 175.279C146.327 174.083 148.087 163.771 146.796 157.884C147.104 157.995 147.403 158.132 147.711 158.286C151.624 160.268 148.112 170.76 145.293 175.202Z" fill="#D8D8D8"/>
<path d="M80.2487 129.511C81.1202 130.792 81.8293 132.159 82.4957 133.518C83.1536 134.885 83.7773 136.26 84.3839 137.627C85.6057 140.353 86.7932 143.052 88.22 145.573C89.6383 148.093 91.3043 150.443 93.3719 152.305C93.6196 152.544 93.9016 152.758 94.1579 152.989C94.4057 153.194 94.6363 153.348 94.9097 153.518C95.448 153.843 96.0461 154.116 96.6783 154.347C97.9428 154.817 99.3268 155.133 100.737 155.364C103.556 155.808 106.478 155.902 109.374 155.782C110.818 155.723 112.271 155.594 113.68 155.381C114.389 155.278 115.09 155.15 115.765 154.988C116.44 154.834 117.106 154.638 117.679 154.407C117.824 154.347 117.961 154.287 118.089 154.227C118.208 154.168 118.319 154.108 118.431 154.031C118.661 153.886 118.892 153.706 119.114 153.501C119.567 153.091 120.011 152.587 120.455 152.04C121.353 150.938 122.19 149.674 123.335 148.443C123.916 147.828 124.591 147.205 125.505 146.743C125.958 146.513 126.479 146.333 127.017 146.256C127.555 146.179 128.111 146.196 128.623 146.29C129.657 146.487 130.494 146.948 131.212 147.435C131.938 147.931 132.545 148.495 133.126 149.067C133.519 149.434 133.647 149.981 133.502 150.468L133.493 150.511C133.288 151.194 133.1 151.887 132.989 152.536C132.878 153.177 132.852 153.8 132.955 154.168C133.006 154.356 133.066 154.458 133.151 154.552C133.245 154.646 133.348 154.732 133.587 154.843C134.194 155.125 134.817 155.347 135.458 155.509C136.74 155.842 138.09 155.911 139.534 155.868C140.977 155.834 142.532 155.68 144.215 155.808C145.053 155.868 145.916 156.022 146.761 156.278C147.18 156.406 147.599 156.56 148 156.748C148.205 156.85 148.368 156.91 148.658 157.081C148.914 157.235 149.162 157.414 149.376 157.628C149.812 158.038 150.136 158.525 150.358 159.012C150.581 159.49 150.726 159.977 150.82 160.439C151.008 161.37 151.025 162.241 150.982 163.079C150.888 164.762 150.563 166.334 150.145 167.863C149.718 169.393 149.188 170.871 148.564 172.323C147.932 173.767 147.231 175.194 146.3 176.569C145.386 177.936 144.198 179.226 142.831 180.217C141.464 181.217 139.986 181.952 138.508 182.55C137.03 183.148 135.535 183.609 134.04 184.019C132.545 184.421 131.05 184.771 129.554 185.087C128.811 185.241 128.051 185.395 127.316 185.54C126.598 185.677 125.872 185.839 125.146 186.002C122.241 186.651 119.319 187.42 116.354 188.095C110.425 189.436 104.308 190.47 98.0795 190.376C94.9696 190.333 91.8511 190 88.801 189.316C85.7423 188.642 82.7691 187.591 79.9497 186.224C78.54 185.54 77.173 184.771 75.8573 183.925C74.5416 183.08 73.2771 182.191 72.0468 181.174C69.6033 179.141 67.5272 176.74 65.7672 174.169C64.0157 171.58 62.5804 168.812 61.4526 165.941C60.8802 164.506 60.3932 163.045 59.9745 161.558C59.5645 160.071 59.2142 158.585 59.0091 157.03C58.9578 156.637 59.2312 156.278 59.6242 156.227C59.966 156.184 60.2907 156.389 60.3932 156.705L60.4017 156.739C62.2984 162.327 64.7761 167.786 68.0996 172.554C69.7656 174.929 71.6794 177.125 73.8922 178.944C74.9858 179.833 76.199 180.687 77.4293 181.456C78.6596 182.234 79.9326 182.934 81.2398 183.567C83.8542 184.823 86.6138 185.762 89.4503 186.377C92.2868 186.993 95.2002 187.292 98.1222 187.309C103.983 187.369 109.836 186.352 115.654 184.993C118.567 184.327 121.481 183.575 124.462 182.9C125.206 182.729 125.958 182.575 126.718 182.422L128.914 181.986C130.366 181.678 131.81 181.345 133.22 180.961C136.031 180.183 138.816 179.243 140.969 177.671C142.045 176.885 142.925 175.937 143.694 174.801C144.463 173.682 145.104 172.391 145.676 171.076C146.249 169.76 146.736 168.393 147.129 167.017C147.513 165.65 147.812 164.249 147.889 162.916C147.932 162.25 147.906 161.609 147.804 161.054C147.701 160.499 147.488 160.08 147.274 159.875C147.154 159.764 147.095 159.721 146.744 159.559C146.462 159.431 146.172 159.32 145.873 159.217C145.275 159.029 144.651 158.909 143.985 158.858C142.661 158.739 141.2 158.858 139.627 158.892C138.064 158.935 136.372 158.841 134.732 158.405C133.912 158.192 133.109 157.893 132.357 157.525C131.913 157.32 131.383 156.979 130.973 156.509C130.554 156.039 130.281 155.441 130.153 154.894C129.905 153.792 130.033 152.878 130.178 152.04C130.34 151.203 130.563 150.434 130.802 149.682L131.161 151.126C130.665 150.656 130.144 150.212 129.623 149.879C129.102 149.537 128.572 149.298 128.128 149.229C127.675 149.161 127.316 149.221 126.889 149.434C126.47 149.657 126.009 150.05 125.573 150.537C124.685 151.511 123.873 152.758 122.899 153.997C122.412 154.621 121.874 155.253 121.216 155.851C120.891 156.15 120.524 156.432 120.122 156.697C119.926 156.825 119.704 156.944 119.49 157.055C119.285 157.158 119.071 157.252 118.875 157.337C118.063 157.662 117.277 157.884 116.5 158.072C115.722 158.26 114.945 158.397 114.167 158.516C112.621 158.747 111.074 158.892 109.528 158.961C106.444 159.097 103.342 158.969 100.25 158.457C98.7031 158.192 97.1482 157.833 95.6103 157.243C94.8414 156.944 94.081 156.586 93.3377 156.124C92.9703 155.894 92.5859 155.62 92.2697 155.338C91.9707 155.073 91.6546 154.817 91.3727 154.535C89.0231 152.339 87.2204 149.699 85.7594 146.974C84.307 144.24 83.1792 141.395 82.1625 138.567C81.1288 135.747 80.2317 132.911 79.027 130.254V130.245C78.8647 129.886 79.027 129.459 79.3858 129.297C79.6763 129.118 80.0522 129.229 80.2487 129.511Z" fill="#371A45"/>
<path d="M81.7772 186.83C81.2646 186.83 80.7776 186.557 80.5213 186.079C72.2168 170.486 92.5593 154.467 93.4308 153.792C94.0545 153.313 94.943 153.425 95.43 154.048C95.9085 154.672 95.7974 155.56 95.1737 156.047C94.9772 156.201 75.8649 171.264 83.0331 184.746C83.4005 185.438 83.1356 186.301 82.4436 186.677C82.23 186.779 82.0079 186.83 81.7772 186.83Z" fill="#371A45"/>
<path d="M99.0279 231.181C99.0279 231.181 90.9968 237.358 84.5378 234.179C77.0877 230.523 76.4981 226.849 68.0142 224.474C46.5695 218.459 40.7256 201.346 45.2025 175.638L56.4802 183.797C56.9416 182.823 57.4969 181.875 58.1463 180.978C62.9307 174.373 72.4313 170.478 79.984 175.168C91.7401 182.473 95.4993 206.728 95.4993 206.728L97.5327 220.877L99.0279 231.181Z" fill="white"/>
<path d="M99.0279 231.181C99.0279 231.181 90.9968 237.358 84.5378 234.18C77.0877 230.523 76.4981 226.849 68.0142 224.474C46.5695 218.459 40.7256 201.346 45.2025 175.638L56.4802 183.797C56.9416 182.823 57.4969 181.875 58.1463 180.978C53.3874 188.496 53.3703 212.675 62.5804 213.726C71.1669 214.7 78.4205 195.135 78.4205 195.135C78.4205 195.135 78.9331 219.476 86.7677 222.833C90.0143 224.226 93.9871 222.902 97.5413 220.868L99.0279 231.181Z" fill="#D8D8D8"/>
<path d="M55.8401 183.507C57.3865 179.953 60.0607 176.945 63.3329 174.826C64.9733 173.767 66.776 172.938 68.6898 172.4C70.6036 171.879 72.637 171.657 74.6619 171.862C76.6953 172.033 78.6945 172.716 80.4289 173.776C82.1803 174.809 83.6926 176.134 85.0168 177.578C87.6569 180.491 89.5706 183.857 91.1598 187.3C92.7404 190.752 93.9706 194.332 94.9874 197.946C95.4914 199.757 95.9442 201.585 96.3373 203.422C96.5338 204.345 96.7132 205.268 96.8755 206.208L96.9353 206.575L96.9866 206.917L97.0891 207.6L97.2856 208.976L100.455 230.967L100.575 231.804L99.9171 232.3C99.4472 232.65 99.0285 232.924 98.5757 233.214C98.1314 233.496 97.6786 233.761 97.2173 234.009C96.2945 234.513 95.3376 234.966 94.3466 235.342C93.3555 235.726 92.3217 236.034 91.2538 236.239C90.1858 236.452 89.0751 236.546 87.9473 236.478C86.8196 236.41 85.6747 236.179 84.6068 235.752C84.3504 235.632 84.06 235.521 83.8293 235.401L83.1372 235.051C82.6759 234.812 82.2231 234.556 81.7788 234.299C80.8817 233.77 80.0102 233.197 79.173 232.59C78.3357 231.984 77.5411 231.343 76.7722 230.728C75.2343 229.481 73.7648 228.37 72.1073 227.533C71.2871 227.114 70.4242 226.755 69.5442 226.439C68.6471 226.114 67.7842 225.875 66.7675 225.585C62.863 224.414 59.0354 222.74 55.6351 220.339C52.2261 217.964 49.3127 214.82 47.2195 211.206C46.1772 209.403 45.3228 207.498 44.6479 205.541C43.9814 203.585 43.4774 201.577 43.1356 199.561C42.435 195.519 42.2898 191.435 42.4607 187.394C42.6315 183.353 43.1356 179.346 43.8191 175.399C43.9558 174.621 44.6906 174.1 45.468 174.237C46.2455 174.374 46.7667 175.108 46.63 175.886C45.9636 179.748 45.4766 183.635 45.3143 187.522C45.1434 191.401 45.2886 195.297 45.9465 199.074C46.5958 202.85 47.7919 206.515 49.6886 209.77C51.5768 213.025 54.1826 215.836 57.2754 218.006C60.3683 220.185 63.9054 221.748 67.5877 222.859C68.4762 223.124 69.5271 223.406 70.5011 223.765C71.4836 224.115 72.4576 224.525 73.406 225.004C75.3112 225.961 77.0199 227.259 78.5493 228.507C80.0871 229.754 81.5823 230.89 83.2141 231.847C83.6242 232.086 84.0343 232.317 84.453 232.539L85.0852 232.864C85.2988 232.966 85.4697 233.035 85.6662 233.129C86.4351 233.436 87.2553 233.607 88.1097 233.658C89.8184 233.761 91.6126 233.359 93.3299 232.702C94.1928 232.368 95.0301 231.975 95.8503 231.531C96.2604 231.309 96.6619 231.07 97.0549 230.822C97.4394 230.583 97.858 230.301 98.1742 230.062L97.6359 231.394L94.4747 209.42L94.0817 206.703C93.9279 205.823 93.7571 204.926 93.5691 204.037C93.1932 202.26 92.7489 200.483 92.2619 198.732C91.2794 195.229 90.0918 191.777 88.5881 188.505C87.0844 185.241 85.2732 182.097 82.9322 179.517C81.7617 178.235 80.4545 177.091 79.0106 176.253C78.293 175.826 77.5326 175.501 76.7551 175.228C75.9776 174.946 75.1745 174.732 74.3458 174.604C72.6968 174.331 70.9795 174.425 69.2964 174.775C67.6219 175.143 65.9815 175.783 64.4607 176.655C63.6918 177.082 62.9655 177.578 62.265 178.116C61.5644 178.646 60.9065 179.235 60.2828 179.867C59.0354 181.115 57.976 182.559 57.1558 184.131L57.1473 184.139C56.9679 184.489 56.5321 184.626 56.1818 184.438C55.8316 184.25 55.6949 183.849 55.8401 183.507Z" fill="#371A45"/>
<path d="M77.1991 201.944C77.1991 201.944 77.8826 198.826 78.9505 191.854C81.3513 176.057 103.078 170.546 108.042 188.155C109.862 194.614 93.3894 228.284 93.3894 228.284C93.3894 228.284 86.657 219.749 80.8814 216.118C75.1144 212.47 77.1991 201.944 77.1991 201.944Z" fill="white"/>
<path d="M76.7876 201.85C76.8389 199.86 77.0097 197.877 77.1977 195.912C77.3088 194.93 77.4028 193.947 77.5395 192.965C77.6078 192.469 77.6505 191.991 77.736 191.487C77.8214 190.966 77.9239 190.444 78.0435 189.923C78.5476 187.856 79.3934 185.874 80.5639 184.088C81.7259 182.302 83.2125 180.73 84.9127 179.44C86.6214 178.159 88.5523 177.159 90.6199 176.561C92.6789 175.954 94.8917 175.732 97.0618 176.023C99.2319 176.296 101.368 177.108 103.171 178.389C104.982 179.662 106.443 181.362 107.502 183.242C108.04 184.173 108.485 185.156 108.852 186.147L109.117 186.899L109.348 187.659C109.382 187.762 109.433 187.958 109.467 188.129C109.51 188.308 109.519 188.462 109.544 188.625C109.578 188.941 109.587 189.248 109.587 189.539C109.57 190.701 109.39 191.735 109.185 192.76C108.972 193.776 108.724 194.768 108.451 195.75C107.314 199.655 105.896 203.388 104.409 207.096C102.914 210.796 101.351 214.461 99.6762 218.075C98.0102 221.697 96.3271 225.286 94.5158 228.848C94.1997 229.464 93.4478 229.711 92.8241 229.404C92.2175 229.096 91.9698 228.37 92.2517 227.755L92.2603 227.746C95.5838 220.587 98.8047 213.333 101.752 206.028C103.205 202.371 104.597 198.672 105.674 194.956C105.947 194.024 106.186 193.102 106.392 192.179C106.588 191.265 106.742 190.333 106.759 189.505C106.767 189.3 106.759 189.103 106.742 188.932C106.725 188.855 106.725 188.753 106.708 188.693C106.691 188.625 106.691 188.573 106.648 188.445L106.443 187.779L106.221 187.121C105.905 186.258 105.529 185.421 105.076 184.635C104.187 183.054 103 181.679 101.564 180.662C100.138 179.637 98.4544 178.979 96.6944 178.74C93.1573 178.244 89.4152 179.389 86.4847 181.568C85.0152 182.661 83.7251 184.002 82.7084 185.532C81.6917 187.061 80.9398 188.761 80.4956 190.556C80.3845 191 80.2905 191.453 80.2136 191.914L79.9488 193.375C79.7779 194.357 79.5558 195.331 79.3422 196.305C79.1115 197.279 78.8637 198.245 78.5818 199.21C78.2998 200.176 78.0008 201.124 77.6078 202.072C77.5138 202.295 77.2661 202.397 77.0439 202.303C76.8816 202.201 76.7791 202.03 76.7876 201.85Z" fill="#371A45"/>
<path d="M89.0065 235.401C89.0065 235.401 84.1537 235.188 81.5222 228.122C78.8907 221.056 82.069 212.179 82.3936 203.901C82.9319 189.889 87.8189 181.824 99.8143 181.841C111.451 181.858 109.46 198.962 107.939 207.557C105.684 220.296 102.07 235.341 89.0065 235.401Z" fill="#AFAFB2"/>
<path d="M106.94 212.726C104.556 224.038 100.335 235.35 88.9979 235.401C88.9979 235.401 84.1451 235.188 81.5136 228.122C79.3435 222.295 81.1206 215.238 81.9921 208.301C81.975 210.915 82.274 213.418 83.1455 215.742C86.0674 223.585 91.4585 223.825 91.4585 223.825C99.088 223.79 103.813 219.168 106.94 212.726Z" fill="#959596"/>
<path d="M80.644 225.901C79.9007 225.901 79.277 225.328 79.2258 224.577C79.1745 223.79 79.764 223.107 80.55 223.056L103.968 221.424C104.746 221.364 105.438 221.962 105.489 222.748C105.54 223.534 104.951 224.218 104.165 224.269L80.7465 225.901C80.7124 225.901 80.6782 225.901 80.644 225.901Z" fill="#371A45"/>
<path d="M81.0883 216.058C80.345 216.058 79.7214 215.486 79.6701 214.734C79.6188 213.948 80.2084 213.265 80.9944 213.213L106.822 211.419C107.608 211.368 108.291 211.957 108.343 212.744C108.394 213.53 107.805 214.213 107.018 214.264L81.1909 216.058C81.1482 216.058 81.1225 216.058 81.0883 216.058Z" fill="#371A45"/>
<path d="M82.351 205.917C81.6077 205.917 80.9841 205.344 80.9328 204.593C80.8815 203.807 81.471 203.123 82.2571 203.072L108.563 201.235C109.349 201.184 110.033 201.773 110.084 202.559C110.135 203.345 109.546 204.029 108.76 204.08L82.4536 205.917C82.4194 205.917 82.3852 205.917 82.351 205.917Z" fill="#371A45"/>
<path d="M83.9155 195.007C83.1722 195.007 82.5485 194.434 82.4972 193.682C82.446 192.896 83.0355 192.213 83.8215 192.162L108.752 190.427C109.538 190.376 110.222 190.965 110.273 191.752C110.324 192.538 109.735 193.221 108.949 193.272L84.018 195.007C83.9838 195.007 83.9497 195.007 83.9155 195.007Z" fill="#371A45"/>
<g opacity="0.7">
<path d="M107.948 207.472C108.939 198.612 108.521 187.232 99.0201 187.215C89.5537 187.198 84.5129 192.23 82.5479 201.243C83.5902 188.872 88.5968 181.824 99.8061 181.841C111.408 181.858 109.461 198.843 107.948 207.472Z" fill="white"/>
</g>
<path d="M88.9721 236.82H88.9379C88.6987 236.811 83.1111 236.469 80.1806 228.609C78.301 223.551 79.1724 217.716 80.0268 212.068C80.4369 209.343 80.8641 206.515 80.9666 203.832C81.5732 188.069 87.7247 180.405 99.7628 180.405C99.7799 180.405 99.7969 180.405 99.814 180.405C102.932 180.414 105.436 181.508 107.239 183.669C110.776 187.89 111.459 195.784 109.34 207.797C107.555 217.912 104.231 236.751 89.0148 236.82H88.9721ZM99.7542 183.259C89.2797 183.259 84.3585 189.641 83.8117 203.952C83.7006 206.788 83.2649 209.693 82.8462 212.496C82.0175 218.023 81.2315 223.252 82.8548 227.618C85.0078 233.402 88.656 233.932 89.0575 233.974C100.856 233.88 104.265 220.159 106.529 207.31C108.939 193.631 107.059 187.898 105.051 185.506C103.795 184.002 102.078 183.268 99.8055 183.268C99.7884 183.259 99.7713 183.259 99.7542 183.259Z" fill="#371A45"/>
<path d="M88.9721 236.82H88.9379C88.6987 236.811 83.1111 236.469 80.1806 228.609C78.301 223.551 79.1724 217.716 80.0268 212.068C80.4369 209.343 80.8641 206.515 80.9666 203.832C81.5732 188.069 87.7247 180.405 99.7628 180.405C99.7799 180.405 99.7969 180.405 99.814 180.405C102.932 180.414 105.436 181.508 107.239 183.669C110.776 187.89 111.459 195.784 109.34 207.797C107.555 217.912 104.231 236.751 89.0148 236.82H88.9721ZM99.7542 183.259C89.2797 183.259 84.3585 189.641 83.8117 203.952C83.7006 206.788 83.2649 209.693 82.8462 212.496C82.0175 218.023 81.2315 223.252 82.8548 227.618C85.0078 233.402 88.656 233.932 89.0575 233.974C100.856 233.88 104.265 220.159 106.529 207.31C108.939 193.631 107.059 187.898 105.051 185.506C103.795 184.002 102.078 183.268 99.8055 183.268C99.7884 183.259 99.7713 183.259 99.7542 183.259Z" fill="#371A45"/>
<g opacity="0.7">
<path d="M140.456 139.071C141.575 138.422 168.103 139.362 169.402 139.917C170.709 140.481 139.337 139.72 140.456 139.071Z" fill="white"/>
</g>
<path d="M180.647 79.1284V96.1133C180.647 102.624 175.324 107.946 168.814 107.946H161.236L158.476 121.574H153.76C152.957 121.574 152.162 121.146 151.778 120.283L146.284 107.938H138.706C132.196 107.938 126.864 102.615 126.864 96.1048V79.1199C126.864 72.6096 132.196 67.2869 138.706 67.2869H168.814C175.316 67.2954 180.647 72.6267 180.647 79.1284Z" fill="#AFAFB2"/>
<path d="M158.475 122.65H153.758C152.46 122.65 151.324 121.915 150.802 120.728L145.591 109.023H138.704C131.588 109.023 125.795 103.239 125.795 96.1218V79.137C125.795 72.02 131.588 66.236 138.704 66.236H168.812C175.929 66.236 181.722 72.02 181.722 79.137V96.1218C181.722 103.239 175.929 109.023 168.812 109.023H162.106L159.525 121.796C159.414 122.291 158.979 122.65 158.475 122.65ZM138.696 68.3633C132.758 68.3633 127.931 73.1905 127.931 79.1284V96.1133C127.931 102.051 132.758 106.878 138.696 106.878H146.274C146.693 106.878 147.077 107.126 147.248 107.511L152.742 119.856C153.015 120.463 153.579 120.506 153.75 120.506H157.595L160.175 107.733C160.277 107.237 160.713 106.878 161.226 106.878H168.804C174.742 106.878 179.569 102.051 179.569 96.1133V79.1284C179.569 73.1905 174.742 68.3633 168.804 68.3633H138.696Z" fill="#371A45"/>
<path d="M185.363 79.1284V96.1133C185.363 102.624 180.04 107.946 173.53 107.946H165.952L160.458 120.292C159.698 122.009 157.254 122.009 156.494 120.292L151 107.946H143.422C136.912 107.946 131.589 102.624 131.589 96.1133V79.1284C131.589 72.6181 136.92 67.2953 143.422 67.2953H173.53C180.04 67.2953 185.363 72.6266 185.363 79.1284Z" fill="white"/>
<path d="M185.363 79.8802V96.1133C185.363 102.624 180.04 107.946 173.53 107.946H165.952L160.458 120.292C159.698 122.009 157.254 122.009 156.494 120.292L151 107.946H143.422C136.912 107.946 131.589 102.624 131.589 96.1133V95.7117C133.075 98.6508 136.741 102.581 145.771 103.615C163.636 105.665 184.389 102.222 185.363 79.8802Z" fill="#D9D9D9"/>
<path d="M158.474 122.65C157.176 122.65 156.039 121.915 155.518 120.728L150.307 109.023H143.42C136.303 109.023 130.511 103.239 130.511 96.1218V79.137C130.511 72.02 136.303 66.236 143.42 66.236H173.528C180.645 66.236 186.438 72.02 186.438 79.137V96.1218C186.438 103.239 180.645 109.023 173.528 109.023H166.642L161.43 120.728C160.901 121.915 159.764 122.65 158.474 122.65ZM143.412 68.3633C137.474 68.3633 132.647 73.1905 132.647 79.1284V96.1133C132.647 102.051 137.474 106.878 143.412 106.878H150.99C151.409 106.878 151.793 107.126 151.964 107.511L157.458 119.856C157.731 120.463 158.295 120.506 158.466 120.506C158.637 120.506 159.2 120.454 159.474 119.856L164.967 107.511C165.138 107.126 165.523 106.878 165.941 106.878H173.52C179.458 106.878 184.285 102.051 184.285 96.1133V79.1284C184.285 73.1905 179.458 68.3633 173.52 68.3633H143.412Z" fill="#371A45"/>
<path d="M169.514 85.2628C169.514 85.7241 169.463 86.1769 169.369 86.6041C169.275 87.0484 169.13 87.4756 168.951 87.8771C168.942 87.8942 168.933 87.9113 168.925 87.9199C168.609 88.5777 168.156 89.1929 167.618 89.7738C165.131 92.4736 160.74 94.5669 158.459 98.0271C156.178 94.5669 151.795 92.4822 149.309 89.7824C148.753 89.1843 148.292 88.5521 147.967 87.8686C147.967 87.8686 147.967 87.86 147.959 87.86C147.779 87.4585 147.643 87.0399 147.549 86.6041C147.455 86.1684 147.403 85.7241 147.403 85.2628C147.403 81.7513 150.248 78.9062 153.76 78.9062C155.614 78.9062 157.288 79.7008 158.45 80.9738C159.612 79.7008 161.287 78.9062 163.141 78.9062C166.661 78.9062 169.514 81.7513 169.514 85.2628Z" fill="#E94E1B"/>
<g opacity="0.7">
<path d="M135.415 80.9568C135.098 76.2578 135.457 72.9086 139.216 71.2511C143.018 69.5766 147.914 69.9012 148.059 71.5331C148.222 73.3358 140.472 70.4822 138.55 78.6158C137.465 83.2636 135.543 82.8791 135.415 80.9568Z" fill="#AFAFB2"/>
</g>
<g opacity="0.5">
<path d="M94.3562 65.356C94.2537 70.525 90.5286 74.6516 86.0346 74.5832C81.5321 74.5064 77.9694 70.2601 78.0633 65.0912C78.1659 59.9223 81.8909 55.7956 86.3849 55.864C90.8874 55.9409 94.4502 60.1957 94.3562 65.356Z" fill="white"/>
</g>
<g opacity="0.5">
<path d="M87.8265 84.2374C87.6044 86.3648 85.9212 87.9283 84.0758 87.7489C82.2304 87.5609 80.9146 85.6898 81.1368 83.571C81.3589 81.4522 83.042 79.8801 84.8875 80.0595C86.7329 80.2475 88.0572 82.1186 87.8265 84.2374Z" fill="white"/>
</g>
</svg>
