<svg width="416" height="333" viewBox="0 0 416 333" fill="none" xmlns="http://www.w3.org/2000/svg">
<path d="M265.41 131.338C265.41 131.338 301.514 128.575 312.144 135.921C331.283 149.178 336.646 220.88 321.789 246.299C310.871 264.96 244.013 255.329 244.013 255.329" fill="white"/>
<g opacity="0.35">
<path d="M321.775 246.299C310.871 264.96 243.999 255.329 243.999 255.329L249.854 221.373C264.397 223.096 314.36 227.734 323.663 211.837C326.563 206.884 328.698 200.167 330.093 192.465C331.133 213.41 328.575 234.684 321.775 246.299Z" fill="#371A45"/>
</g>
<path d="M279.678 259.898C279.391 259.898 279.09 259.898 278.789 259.898C260.771 259.83 243.875 257.422 243.697 257.394C242.562 257.23 241.768 256.177 241.933 255.028C242.097 253.892 243.164 253.099 244.299 253.263C262.509 255.89 311.61 259.556 319.982 245.246C334.58 220.292 328.67 149.903 310.953 137.645C302.744 131.968 275.41 132.679 265.573 133.432C264.424 133.514 263.425 132.665 263.33 131.503C263.248 130.353 264.096 129.355 265.259 129.259C266.764 129.149 302.238 126.523 313.333 134.211C322.746 140.724 329.641 160.233 331.803 186.39C333.444 206.283 332.145 232.741 323.594 247.366C318.71 255.684 303.935 259.898 279.678 259.898Z" fill="#371A45"/>
<path d="M328.355 194.968L309.817 196.405C308.162 196.528 306.794 197.759 306.507 199.387C305.439 205.38 303.688 219.321 309.516 223.917C314.359 227.734 322.199 227.269 326.782 223.356C331.912 218.992 332.391 205.311 332.281 198.539C332.254 196.446 330.462 194.804 328.355 194.968Z" fill="white"/>
<g opacity="0.35">
<path d="M306.507 199.387C305.439 205.366 303.688 219.32 309.516 223.917C314.359 227.734 322.199 227.269 326.782 223.37C329.942 220.689 331.324 214.477 331.912 208.526C331.077 211.509 329.778 213.917 328.15 215.517C318.819 224.615 311.815 213.93 311.815 213.93C311.815 213.93 310.611 216.53 309.639 216.68C305.604 217.309 306.411 204.668 306.985 198.142C306.753 198.498 306.589 198.922 306.507 199.387Z" fill="#371A45"/>
</g>
<path d="M317.657 228.637C314.223 228.637 310.831 227.625 308.217 225.559C301.719 220.442 303.06 206.734 304.442 199.018C304.893 196.446 307.041 194.517 309.64 194.312L328.178 192.875C329.751 192.752 331.325 193.299 332.487 194.353C333.65 195.42 334.334 196.925 334.362 198.512C334.499 208.034 333.527 220.346 328.123 224.957C325.264 227.406 321.447 228.637 317.657 228.637ZM328.52 197.048L309.982 198.484C309.271 198.539 308.696 199.059 308.573 199.757C306.535 211.153 307.383 219.567 310.817 222.275C314.771 225.381 321.461 225.148 325.442 221.769C328.602 219.088 330.381 210.414 330.216 198.566C330.216 198.129 330.025 197.732 329.71 197.431C329.382 197.157 328.958 197.007 328.52 197.048Z" fill="#371A45"/>
<path d="M317.904 228.158C317.493 227.926 317.288 227.762 317.014 227.556C316.768 227.365 316.522 227.16 316.303 226.954C315.852 226.544 315.427 226.106 315.044 225.655C314.278 224.738 313.594 223.767 313.074 222.727C311.98 220.675 311.31 218.459 310.995 216.256C310.858 215.148 310.735 214.04 310.721 212.945C310.667 211.837 310.721 210.784 310.762 209.689C310.817 208.608 310.899 207.527 311.05 206.447C311.214 205.352 311.364 204.326 311.761 203.177C311.857 202.89 312.171 202.739 312.459 202.849C312.732 202.944 312.869 203.218 312.814 203.492L312.801 203.56C312.582 204.449 312.513 205.544 312.472 206.556C312.445 207.596 312.459 208.636 312.513 209.675C312.637 211.769 312.855 213.821 313.334 215.777C313.827 217.733 314.607 219.58 315.687 221.167C316.207 221.975 316.837 222.7 317.507 223.343C317.835 223.671 318.191 223.958 318.56 224.218C318.738 224.355 318.916 224.478 319.108 224.588C319.272 224.683 319.504 224.82 319.573 224.834C320.558 225.135 321.105 226.175 320.804 227.16C320.503 228.145 319.463 228.692 318.478 228.391C318.355 228.35 318.232 228.295 318.109 228.24L317.904 228.158Z" fill="#371A45"/>
<path d="M287.162 144.322C286.368 144.322 285.616 143.87 285.26 143.104C284.781 142.051 285.246 140.819 286.286 140.34C303.223 132.583 313.593 134.895 314.031 135.005C315.153 135.265 315.851 136.4 315.577 137.522C315.317 138.644 314.195 139.342 313.073 139.082C312.937 139.054 303.497 137.057 288.024 144.144C287.75 144.253 287.449 144.322 287.162 144.322Z" fill="#371A45"/>
<path d="M191.546 144.527C191.546 144.527 174.965 194.312 129.448 210.387V240.923H191.546V144.527Z" fill="white"/>
<path d="M191.546 144.527V240.923H129.448V210.387C174.965 194.312 191.546 144.527 191.546 144.527Z" fill="white"/>
<g opacity="0.35">
<path d="M191.547 163.995V240.923H136.741C176.758 221.058 191.547 163.995 191.547 163.995Z" fill="#371A45"/>
</g>
<path d="M193.64 243.016H127.369V208.909L128.765 208.417C172.749 192.889 189.412 144.349 189.576 143.87L193.64 131.694V243.016ZM131.542 238.843H189.467V154.911C187.168 159.726 183.83 165.938 179.302 172.614C170.327 185.802 154.813 203.177 131.542 211.864V238.843Z" fill="#371A45"/>
<path d="M307.93 240.923H172.612C172.612 240.923 180.068 203.464 186.827 163.037C187.88 156.771 188.906 150.437 189.891 144.158C198.114 91.7322 276.546 125.921 276.546 125.921C276.546 125.921 279.611 130.107 283.825 138.384C292.539 155.485 306.207 190.016 307.93 240.923Z" fill="white"/>
<path d="M310.093 243.016H170.068L170.561 240.526C170.657 240.033 180.575 190.057 187.826 143.843C189.714 131.79 195.351 123.116 204.558 118.054C230.442 103.84 275.466 123.171 277.368 124.005L277.888 124.238L278.216 124.69C278.517 125.1 285.672 135.005 293.21 154.35C300.133 172.121 308.67 201.563 309.997 240.868L310.093 243.016ZM175.144 238.843H305.756C302.951 170.562 278.285 132.187 275.165 127.604C270.021 125.469 229.211 109.271 206.555 121.707C198.538 126.112 193.627 133.774 191.944 144.472C185.61 184.899 177.237 228.145 175.144 238.843Z" fill="#371A45"/>
<g opacity="0.35">
<path d="M185.104 196.815C183.832 208.225 183.093 218.116 182.943 226.366C182.737 218.677 183.476 208.759 185.104 196.815Z" fill="#371A45"/>
</g>
<path d="M185.75 220.444C189.543 216.651 189.543 210.501 185.75 206.708C181.956 202.914 175.806 202.914 172.013 206.708C168.22 210.501 168.22 216.651 172.013 220.444C175.806 224.238 181.956 224.238 185.75 220.444Z" fill="white"/>
<g opacity="0.35">
<path d="M169.179 213.821C169.316 219.183 173.776 223.411 179.139 223.274C184.502 223.137 188.73 218.677 188.593 213.314C188.552 211.837 188.182 210.428 187.553 209.196C186.075 212.521 182.792 214.874 178.92 214.983C175.049 215.093 171.642 212.89 170 209.662C169.439 210.92 169.138 212.343 169.179 213.821Z" fill="#371A45"/>
</g>
<path d="M178.879 224.984C172.723 224.984 167.633 220.059 167.469 213.862C167.387 210.811 168.509 207.91 170.602 205.708C172.695 203.491 175.541 202.233 178.592 202.151C181.656 202.069 184.543 203.191 186.745 205.284C188.962 207.377 190.22 210.222 190.303 213.273C190.467 219.567 185.473 224.82 179.18 224.984C179.084 224.984 178.975 224.984 178.879 224.984ZM178.893 205.571C178.824 205.571 178.756 205.571 178.674 205.571C176.54 205.626 174.556 206.515 173.078 208.061C171.614 209.607 170.835 211.645 170.889 213.78C170.999 218.185 174.706 221.66 179.098 221.564C183.503 221.455 187.005 217.774 186.882 213.355C186.828 211.221 185.938 209.237 184.392 207.76C182.887 206.351 180.945 205.571 178.893 205.571Z" fill="#371A45"/>
<g opacity="0.35">
<path d="M183.584 223.028C185.24 212.124 185.555 202.028 185.103 193.026C184.884 198.224 184.392 203.669 183.516 209.347C182.504 216.01 182.203 222.959 182.818 229.773C182.996 227.515 183.256 225.258 183.584 223.028Z" fill="#371A45"/>
</g>
<path d="M192.929 241.825L243.63 244.425C249.636 244.739 254.794 240.074 255.109 234.068L256.49 207.09C256.764 201.836 253.221 197.212 248.309 195.94C247.612 195.748 246.886 195.652 246.134 195.611L195.446 193.012C189.44 192.697 184.269 197.362 183.968 203.368L182.86 224.738L182.572 230.347C182.271 236.353 186.937 241.524 192.929 241.825Z" fill="white"/>
<g opacity="0.35">
<path d="M192.93 241.825L243.632 244.425C249.638 244.739 254.795 240.074 255.11 234.068L256.492 207.089C256.765 201.836 253.222 197.212 248.311 195.939C245.328 197.704 243.44 198.826 243.44 198.826C239.856 220.36 233.138 230.84 206.228 229.896C194.613 229.485 187.376 227.337 182.875 224.724L182.587 230.333C182.273 236.353 186.938 241.524 192.93 241.825Z" fill="#371A45"/>
</g>
<path d="M244.205 246.545C243.986 246.545 243.754 246.545 243.521 246.532L192.833 243.919C189.372 243.741 186.184 242.222 183.845 239.623C181.505 237.037 180.315 233.699 180.493 230.238L181.875 203.259C182.244 196.09 188.387 190.563 195.542 190.919L246.244 193.532C253.412 193.901 258.939 200.03 258.584 207.199L257.202 234.178C257.024 237.639 255.506 240.827 252.906 243.166C250.485 245.355 247.42 246.545 244.205 246.545ZM243.74 242.345C248.597 242.605 252.769 238.843 253.029 233.973L254.411 206.994C254.657 202.123 250.909 197.964 246.038 197.704L195.35 195.091C192.997 194.968 190.74 195.775 188.975 197.362C187.21 198.949 186.184 201.111 186.061 203.464L184.679 230.443C184.556 232.796 185.363 235.053 186.95 236.818C188.537 238.583 190.699 239.609 193.052 239.732L243.74 242.345Z" fill="#371A45"/>
<path d="M190.904 241.524C191.561 241.689 192.231 241.798 192.929 241.825L243.631 244.425C248.022 244.644 251.976 242.208 253.891 238.515C254.589 237.174 255.027 235.669 255.095 234.068L255.711 222.084L255.916 218.13L256.477 207.089C256.792 201.084 252.126 195.926 246.121 195.611L235.162 195.05C240.169 196.268 243.781 200.906 243.507 206.228L242.769 220.798L242.126 233.206C241.811 239.212 236.653 243.878 230.647 243.563L190.904 241.524Z" fill="white"/>
<g opacity="0.35">
<path d="M190.904 241.524C191.561 241.689 192.231 241.798 192.929 241.825L243.631 244.425C249.637 244.739 254.794 240.074 255.095 234.068L255.916 218.13C254.493 220.88 252.031 224.218 248.337 224.396C246.312 224.492 244.41 222.946 242.769 220.798L242.126 233.206C241.811 239.212 236.653 243.878 230.647 243.563L190.904 241.524Z" fill="#371A45"/>
</g>
<path d="M244.205 246.545C243.972 246.545 243.753 246.545 243.521 246.532L192.819 243.919C192.012 243.878 191.177 243.754 190.384 243.549L191.013 239.445L230.77 241.497C233.109 241.62 235.367 240.813 237.132 239.226C238.896 237.639 239.922 235.464 240.046 233.124L241.427 206.146C241.646 201.904 238.801 198.101 234.683 197.102L235.285 192.984L246.229 193.545C249.691 193.723 252.878 195.255 255.218 197.841C257.557 200.427 258.747 203.765 258.556 207.226L257.174 234.205C256.996 237.666 255.478 240.854 252.878 243.193C250.484 245.355 247.42 246.545 244.205 246.545ZM240.1 242.167L243.739 242.359C246.079 242.482 248.35 241.675 250.101 240.088C251.866 238.501 252.892 236.326 253.015 233.986L254.397 207.007C254.52 204.654 253.713 202.397 252.126 200.632C250.539 198.867 248.364 197.841 246.024 197.718L242.754 197.554C244.697 199.975 245.778 203.081 245.6 206.364L244.218 233.343C244.054 236.709 242.59 239.842 240.1 242.167Z" fill="#371A45"/>
<path d="M222.836 218.923C222.795 219.922 223.821 228.035 223.821 228.035C223.821 228.035 226.38 228.158 229.512 228.295C233.425 228.473 236.791 224.56 237.01 219.566C237.242 214.559 234.246 210.373 230.333 210.195C227.693 210.072 224.642 209.935 224.642 209.935C224.642 209.935 222.905 217.295 222.836 218.923Z" fill="#22A7F0"/>
<g opacity="0.35">
<path d="M222.836 218.923C222.795 219.922 223.821 228.035 223.821 228.035C223.821 228.035 226.38 228.158 229.512 228.295C233.425 228.473 236.791 224.56 237.01 219.566C237.242 214.559 234.246 210.373 230.333 210.195C227.693 210.072 224.642 209.935 224.642 209.935C224.642 209.935 222.905 217.295 222.836 218.923Z" fill="#371A45"/>
</g>
<path d="M229.772 229.868C229.662 229.868 229.553 229.868 229.443 229.855L225.489 229.677C223.711 229.595 222.274 228.254 222.055 226.503C221.235 219.786 221.262 219.102 221.276 218.842C221.317 217.884 221.809 215.339 222.74 211.249C223.136 209.539 224.696 208.348 226.447 208.43L230.415 208.608C232.795 208.718 234.97 209.976 236.516 212.152C237.98 214.204 238.719 216.858 238.582 219.635C238.322 225.354 234.396 229.868 229.772 229.868ZM224.395 218.992C224.395 219.129 224.422 220.114 225.161 226.12C225.188 226.352 225.394 226.544 225.626 226.558L229.58 226.736C232.645 226.872 235.258 223.63 235.449 219.498C235.545 217.432 235.011 215.462 233.958 213.985C232.987 212.617 231.673 211.823 230.264 211.755L226.297 211.577C226.05 211.577 225.845 211.728 225.79 211.96C224.559 217.378 224.409 218.705 224.395 218.992Z" fill="#371A45"/>
<path d="M231.341 219.29C231.57 214.285 228.579 210.083 224.662 209.904C220.744 209.726 217.383 213.637 217.155 218.642C216.926 223.646 219.917 227.848 223.835 228.027C227.752 228.206 231.113 224.294 231.341 219.29Z" fill="#22A7F0"/>
<path d="M231.333 219.307C231.292 220.346 231.1 221.331 230.799 222.248C230.895 217.378 227.953 213.355 224.123 213.177C221.017 213.041 218.267 215.462 217.146 218.965C217.146 218.855 217.146 218.759 217.146 218.65C217.378 213.643 220.73 209.744 224.643 209.921C228.569 210.113 231.552 214.299 231.333 219.307Z" fill="white"/>
<g opacity="0.35">
<path d="M231.333 219.307C231.1 224.314 227.748 228.213 223.835 228.035C219.923 227.857 216.927 223.657 217.159 218.65C217.2 217.679 217.364 216.748 217.638 215.886C218.609 219.06 220.976 221.331 223.835 221.468C226.982 221.605 229.787 219.101 230.867 215.503C231.223 216.666 231.387 217.952 231.333 219.307Z" fill="#371A45"/>
</g>
<path d="M224.093 229.608C223.984 229.608 223.874 229.608 223.751 229.595C218.977 229.376 215.31 224.437 215.584 218.581C215.857 212.726 219.934 208.129 224.723 208.362C227.103 208.471 229.278 209.73 230.824 211.905C232.288 213.957 233.027 216.611 232.89 219.389C232.767 222.152 231.796 224.738 230.14 226.639C228.485 228.568 226.351 229.608 224.093 229.608ZM218.717 218.732C218.525 222.864 220.851 226.338 223.902 226.475C225.297 226.544 226.679 225.873 227.773 224.601C228.964 223.219 229.675 221.318 229.771 219.238C229.867 217.172 229.333 215.202 228.28 213.725C227.308 212.357 225.995 211.563 224.586 211.495C221.508 211.358 218.908 214.6 218.717 218.732Z" fill="#371A45"/>
<path d="M208.704 244.014C208.69 244.014 208.676 244.014 208.662 244.014C207.801 243.987 207.117 243.275 207.144 242.4L207.636 224.505L199.223 218.595L200.44 193.299C200.481 192.437 201.234 191.78 202.082 191.808C202.944 191.849 203.614 192.588 203.573 193.45L202.438 217.022L210.824 222.918L210.277 242.496C210.249 243.33 209.552 244.014 208.704 244.014Z" fill="#371A45"/>
<path d="M300.502 206.638C300.502 206.638 305.195 210.373 305.4 216.133C305.633 222.795 301.474 225.49 301.474 225.49C301.474 225.49 283.237 234.821 253.987 228.623C253.987 228.623 245.382 217.747 254.972 211.604C254.972 211.604 285.85 215.845 300.502 206.638Z" fill="white"/>
<g opacity="0.35">
<path d="M305.401 216.133C305.633 222.782 301.474 225.49 301.474 225.49C301.474 225.49 283.237 234.834 253.988 228.623C253.988 228.623 251.156 225.039 250.554 220.825C250.691 221.03 250.786 221.14 250.786 221.14C272.17 225.682 287.67 221.906 294.456 219.553C299.176 217.911 302.322 213.629 302.213 208.854C302.213 208.786 302.213 208.718 302.213 208.649C302.213 208.54 302.213 208.43 302.186 208.321C303.54 209.963 305.291 212.685 305.401 216.133Z" fill="#371A45"/>
</g>
<path d="M273.811 232.865C267.846 232.865 261.061 232.263 253.563 230.676L252.825 230.525L252.36 229.937C252.154 229.691 247.462 223.671 248.515 217.446C249.035 214.341 250.827 211.796 253.864 209.853L254.507 209.443L255.274 209.552C255.575 209.593 285.577 213.574 299.422 204.887L300.681 204.094L301.843 205.01C302.062 205.188 307.288 209.415 307.521 216.064C307.795 223.821 302.856 227.119 302.637 227.255L302.459 227.365C301.857 227.652 291.405 232.865 273.811 232.865ZM255.219 226.749C281.664 232.139 298.834 224.437 300.421 223.685C300.899 223.329 303.499 221.113 303.321 216.201C303.212 213.027 301.378 210.524 300.202 209.238C285.905 216.981 260.459 214.368 255.506 213.78C253.864 214.984 252.92 216.42 252.633 218.13C252.045 221.578 254.261 225.34 255.219 226.749Z" fill="#371A45"/>
<g opacity="0.35">
<path d="M283.824 138.384C271.402 155.294 252.782 166.389 232.452 169.577C230.961 169.809 229.456 170.001 227.951 170.151C223.819 170.548 219.619 170.63 215.406 170.37C211.917 170.151 208.415 169.7 204.926 169.002C200.876 168.195 196.841 167.059 192.846 165.582C191.519 165.089 190.219 164.569 188.947 164.008C188.235 163.694 187.524 163.379 186.826 163.051C187.88 156.785 188.906 150.451 189.891 144.171C198.113 91.7457 276.546 125.934 276.546 125.934C276.546 125.934 279.61 130.107 283.824 138.384Z" fill="#371A45"/>
</g>
<path d="M150.354 121.885C157.18 133.158 166.853 142.776 178.824 149.548C181.272 150.929 183.79 152.188 186.417 153.324C187.689 153.885 188.989 154.404 190.316 154.897C194.31 156.374 198.346 157.51 202.396 158.317C205.885 159.015 209.387 159.466 212.875 159.685C217.089 159.959 221.276 159.863 225.407 159.466C226.912 159.316 228.417 159.124 229.908 158.892C257.174 154.61 281.39 136.113 291.664 108.395C306.822 67.5715 286 22.1919 245.19 7.03339C237.323 4.11935 229.293 2.53236 221.33 2.17666C220.4 2.12193 219.47 2.10825 218.539 2.09457C216.049 2.06721 213.56 2.16297 211.097 2.36819C205.392 2.8607 199.796 3.96886 194.406 5.65161C189.002 7.32068 183.803 9.57804 178.892 12.3553C177.332 13.2445 175.8 14.1748 174.295 15.1599C172.038 16.6511 169.863 18.2518 167.769 19.9755C157.29 28.5398 148.89 39.9087 143.841 53.5212C135.127 77.025 138.314 102.006 150.354 121.885Z" fill="white"/>
<path d="M217.786 160.055C216.144 160.055 214.516 160 212.888 159.904C209.345 159.685 205.802 159.22 202.381 158.522C198.291 157.715 194.214 156.552 190.26 155.089C188.81 154.541 187.524 154.021 186.347 153.515C183.775 152.407 181.217 151.135 178.741 149.726C167.044 143.104 157.166 133.514 150.189 121.994C137.589 101.199 135.208 76.2179 143.663 53.4665C148.547 40.3055 156.838 28.6767 167.659 19.8388C169.698 18.156 171.9 16.5417 174.199 15.0094C175.676 14.0381 177.222 13.0941 178.809 12.1911C183.734 9.40024 188.96 7.14288 194.364 5.46013C199.809 3.76369 205.446 2.65554 211.11 2.1767C213.572 1.97149 216.09 1.87572 218.58 1.90309C219.578 1.90309 220.495 1.93044 221.384 1.98517C229.497 2.34087 237.541 3.98259 245.299 6.85558C286.163 22.0277 307.068 67.6263 291.909 108.491C281.977 135.279 258.241 154.678 229.99 159.111C228.498 159.343 226.993 159.535 225.489 159.685C222.903 159.932 220.331 160.055 217.786 160.055ZM150.544 121.775C157.494 133.24 167.317 142.776 178.946 149.356C181.409 150.752 183.953 152.01 186.512 153.118C187.688 153.625 188.96 154.145 190.411 154.692C194.337 156.156 198.4 157.305 202.464 158.112C205.87 158.796 209.386 159.261 212.916 159.48C217.047 159.74 221.247 159.672 225.42 159.261C226.911 159.111 228.43 158.919 229.908 158.687C258.022 154.268 281.621 134.978 291.499 108.327C306.589 67.681 285.794 22.3287 245.148 7.23865C237.432 4.37933 229.429 2.7513 221.357 2.3956C220.468 2.34087 219.565 2.32719 218.566 2.31351C216.09 2.28615 213.586 2.38192 211.137 2.58713C205.514 3.06596 199.905 4.17412 194.488 5.85687C189.111 7.52594 183.912 9.76962 179.014 12.5468C177.441 13.4361 175.895 14.3801 174.431 15.3514C172.147 16.87 169.958 18.4844 167.919 20.1534C157.166 28.9366 148.916 40.5107 144.06 53.6033C135.646 76.2453 138.013 101.09 150.544 121.775Z" fill="#371A45"/>
<g opacity="0.35">
<path d="M291.69 108.409C281.416 136.127 257.2 154.623 229.934 158.905C228.443 159.138 226.952 159.33 225.447 159.48C221.315 159.89 217.115 159.959 212.915 159.699C209.427 159.48 205.924 159.029 202.436 158.331C198.386 157.524 194.35 156.388 190.342 154.911C189.015 154.404 187.715 153.884 186.443 153.337C183.816 152.202 181.299 150.929 178.85 149.561C166.879 142.789 157.206 133.172 150.366 121.898C146.617 115.701 143.717 109.011 141.774 102.02C148.533 112.636 157.863 121.68 169.287 128.137C171.722 129.519 174.253 130.777 176.88 131.913C178.152 132.474 179.452 132.98 180.779 133.486C184.774 134.964 188.809 136.113 192.859 136.906C196.348 137.604 199.85 138.056 203.339 138.275C207.552 138.534 211.739 138.452 215.87 138.056C217.375 137.905 218.88 137.714 220.371 137.481C247.637 133.199 271.853 114.716 282.127 86.9847C288.133 70.8139 288.489 53.9316 284.193 38.4995C297.039 58.6241 300.637 84.3033 291.69 108.409Z" fill="#371A45"/>
</g>
<path d="M217.774 161.464C216.105 161.464 214.436 161.409 212.794 161.313C209.183 161.081 205.584 160.615 202.096 159.918C197.937 159.097 193.791 157.92 189.769 156.429C188.292 155.868 186.992 155.348 185.788 154.815C183.175 153.679 180.562 152.393 178.045 150.97C166.142 144.239 156.087 134.471 148.986 122.733C136.167 101.569 133.746 76.1494 142.337 52.9739C147.304 39.5803 155.758 27.7326 166.758 18.7442C168.837 17.0341 171.081 15.3787 173.421 13.8328C174.925 12.8478 176.499 11.8764 178.113 10.9598C183.12 8.12783 188.456 5.81575 193.942 4.11932C199.483 2.39552 205.215 1.26 210.975 0.781168C213.478 0.562273 216.037 0.466507 218.568 0.507549C219.58 0.507549 220.524 0.534908 221.441 0.589632C229.69 0.959017 237.885 2.62809 245.779 5.54213C287.369 20.9879 308.657 67.3936 293.211 108.984C283.101 136.25 258.954 155.991 230.183 160.506C228.664 160.739 227.132 160.944 225.6 161.094C223 161.341 220.387 161.464 217.774 161.464ZM151.75 121.05C158.577 132.31 168.222 141.681 179.632 148.138C182.053 149.507 184.557 150.752 187.074 151.832C188.237 152.339 189.482 152.845 190.905 153.378C194.749 154.801 198.744 155.937 202.739 156.73C206.091 157.4 209.538 157.852 213.013 158.071C217.063 158.331 221.194 158.262 225.285 157.852C226.749 157.701 228.24 157.51 229.69 157.291C257.298 152.954 280.474 134.006 290.174 107.834C304.99 67.9135 284.564 23.3821 244.644 8.55194C237.064 5.74734 229.211 4.14668 221.276 3.79097C220.401 3.74993 219.512 3.72257 218.54 3.70889C216.105 3.68153 213.643 3.7773 211.235 3.98251C205.708 4.44766 200.208 5.52845 194.886 7.19753C189.605 8.83924 184.488 11.0419 179.686 13.7644C178.14 14.64 176.622 15.5703 175.185 16.5142C172.942 18.0055 170.78 19.5925 168.796 21.2205C158.235 29.8532 150.136 41.2083 145.361 54.0684C137.111 76.3273 139.437 100.734 151.75 121.05Z" fill="#371A45"/>
<path d="M217.774 161.929C216.091 161.929 214.422 161.874 212.753 161.765C209.128 161.532 205.502 161.067 201.986 160.356C197.8 159.521 193.627 158.345 189.591 156.84C188.1 156.279 186.787 155.745 185.583 155.225C182.956 154.09 180.329 152.79 177.798 151.354C165.827 144.582 155.717 134.759 148.562 122.952C135.661 101.664 133.226 76.0948 141.886 52.7962C146.879 39.3204 155.375 27.418 166.443 18.3613C168.536 16.6511 170.78 14.9821 173.147 13.4225C174.652 12.4237 176.239 11.4524 177.867 10.5358C182.901 7.67645 188.264 5.36438 193.791 3.65426C199.373 1.91678 205.133 0.781269 210.934 0.288756C213.451 0.0698608 216.037 -0.0122298 218.581 0.00145112C219.594 0.00145112 220.551 0.028818 221.468 0.0835417C229.758 0.452927 237.994 2.13568 245.943 5.07708C287.779 20.6049 309.19 67.2843 293.662 109.121C283.484 136.537 259.2 156.402 230.265 160.944C228.746 161.177 227.186 161.382 225.654 161.532C223.027 161.806 220.401 161.929 217.774 161.929ZM152.147 120.804C158.932 131.995 168.509 141.312 179.864 147.728C182.272 149.083 184.762 150.328 187.252 151.408C188.401 151.915 189.646 152.407 191.069 152.941C194.899 154.363 198.853 155.485 202.821 156.265C206.145 156.935 209.579 157.387 213.027 157.606C217.063 157.866 221.167 157.797 225.23 157.387C226.694 157.236 228.158 157.045 229.608 156.826C257.038 152.516 280.077 133.678 289.722 107.67C304.456 67.9957 284.154 23.7242 244.479 8.98983C236.955 6.19892 229.143 4.61193 221.263 4.25623C220.387 4.21518 219.511 4.18782 218.554 4.18782C216.119 4.16046 213.683 4.25623 211.289 4.46144C205.803 4.92659 200.331 6.00738 195.036 7.6491C189.796 9.27713 184.707 11.4798 179.933 14.1886C178.387 15.0642 176.882 15.9808 175.459 16.9248C173.229 18.4023 171.081 19.9756 169.111 21.6036C158.618 30.1816 150.56 41.482 145.812 54.26C137.604 76.3547 139.916 100.611 152.147 120.804Z" fill="#371A45"/>
<path d="M162.953 137.686C210.644 167.702 272.304 141.681 272.934 85.8629C273.358 47.8846 236.501 18.1559 200.014 20.0849C173.446 21.4941 148.136 34.4773 139.038 76.2999C139.038 76.2999 137.875 95.4395 143.649 107.862C149.422 120.284 157.124 131.393 157.124 131.393L162.953 137.686Z" fill="#371A45"/>
<path d="M272.935 85.8629C272.319 141.667 210.659 167.689 162.968 137.686L161.791 136.414C212.999 143.022 262.113 110.174 263.796 53.7674C269.651 63.2073 273.058 74.1383 272.935 85.8629Z" fill="#220F2D"/>
<path d="M205.638 160.465C204.544 160.465 203.435 160.438 202.341 160.397L202.013 160.356C197.826 159.521 193.653 158.344 189.604 156.84C188.113 156.279 186.799 155.745 185.595 155.225C182.969 154.09 180.342 152.79 177.811 151.353C165.84 144.581 155.73 134.759 148.575 122.952C135.674 101.664 133.239 76.0947 141.899 52.796C146.892 39.3203 155.388 27.4179 166.456 18.3611L166.62 18.2243L166.812 18.1286C176.074 13.3266 186.95 10.5767 199.153 9.92C220.906 8.7708 243.712 17.5129 260.184 33.3144C275.329 47.8299 283.537 66.5317 283.318 85.9586C283.086 107.068 275.342 125.469 260.95 139.177C246.64 152.817 226.638 160.465 205.638 160.465ZM202.656 156.238C223.669 157.004 243.849 149.684 258.063 136.168C271.635 123.253 278.913 105.878 279.146 85.9313C279.351 67.6672 271.594 50.0599 257.297 36.3516C241.646 21.3299 219.989 13.0119 199.386 14.1064C187.866 14.722 177.619 17.2803 168.946 21.7403C158.535 30.3046 150.545 41.5366 145.825 54.2462C137.616 76.3409 139.928 100.597 152.159 120.79C158.945 131.981 168.522 141.298 179.877 147.714C182.285 149.069 184.775 150.314 187.265 151.395C188.414 151.901 189.659 152.393 191.081 152.927C194.844 154.336 198.743 155.458 202.656 156.238Z" fill="#371A45"/>
<path d="M205.831 152.393C190.823 152.393 175.5 148.043 161.846 139.451L161.614 139.301L155.416 132.583C155.102 132.118 147.536 121.187 141.763 108.737C135.839 95.9867 136.92 76.9702 136.961 76.1768L137.002 75.8621C144.964 39.2519 166.129 19.7976 199.907 18.0054C219.32 16.9931 239.677 24.7912 254.371 38.8825C267.887 51.8521 275.22 68.5428 275.029 85.8902C274.755 110.94 262.36 131.968 241.032 143.596C230.224 149.479 218.13 152.393 205.831 152.393ZM164.295 136.058C187.813 150.752 216.42 152.229 239.021 139.916C258.981 129.04 270.583 109.326 270.842 85.8355C271.02 69.6509 264.139 54.0547 251.47 41.8923C237.584 28.5808 218.39 21.2068 200.112 22.1644C168.495 23.8335 148.644 42.1386 141.106 76.5735C141.01 78.3931 140.313 95.7542 145.525 106.973C150.833 118.41 157.92 128.862 158.755 130.08L164.295 136.058Z" fill="#371A45"/>
<path d="M289.027 112.049C300.327 111.404 308.768 98.2766 307.88 82.7291C306.992 67.1816 297.111 55.1011 285.811 55.7465C274.51 56.392 266.07 69.519 266.958 85.0665C267.846 100.614 277.726 112.695 289.027 112.049Z" fill="white"/>
<g opacity="0.35">
<path d="M290.489 111.898C280.037 113.539 270.227 103.99 267.587 90.145C269.666 90.7196 271.828 90.8701 274.031 90.5281C285.235 88.7632 298.342 75.5064 296.645 60.047C296.536 59.0072 290.968 57.2834 290.776 56.2984C299.299 58.6789 306.331 68.2829 307.699 80.7052C309.396 96.1646 301.68 110.133 290.489 111.898Z" fill="#371A45"/>
</g>
<path d="M288.108 114.169C284.127 114.169 280.214 112.773 276.684 110.078C270.336 105.235 266.095 96.9307 265.042 87.3267C263.222 70.8001 271.732 55.7785 284.004 53.8495C288.902 53.0833 293.786 54.4241 298.122 57.7349C304.47 62.5779 308.712 70.8685 309.765 80.4862C311.585 97.0128 303.075 112.034 290.803 113.963C289.9 114.1 289.011 114.169 288.108 114.169ZM286.672 57.8033C286.001 57.8033 285.331 57.858 284.647 57.9674C274.55 59.5544 267.614 72.5239 269.187 86.8615C270.104 95.2206 273.852 102.649 279.215 106.754C282.622 109.353 286.398 110.42 290.146 109.832C300.243 108.245 307.179 95.2753 305.606 80.9377C304.689 72.5787 300.941 65.1499 295.578 61.0456C292.801 58.9114 289.75 57.8033 286.672 57.8033Z" fill="#371A45"/>
<path d="M294.719 107.889C303.934 107.678 311.176 97.4903 310.894 85.1328C310.613 72.7752 302.914 62.9278 293.698 63.138C284.483 63.3481 277.241 73.5362 277.523 85.8938C277.805 98.2513 285.504 108.099 294.719 107.889Z" fill="white"/>
<path d="M294.469 108.122C292.855 108.122 291.24 107.807 289.653 107.178C280.692 103.662 275.425 91.089 277.929 79.1456C279.324 72.4556 282.895 67.1337 287.711 64.5343C291.254 62.619 295.085 62.3727 298.806 63.8366C307.767 67.3526 313.034 79.9254 310.53 91.8688C309.135 98.5588 305.564 103.881 300.749 106.48C298.724 107.575 296.603 108.122 294.469 108.122ZM293.977 63.3441C291.911 63.3441 289.872 63.8776 287.916 64.9311C283.21 67.4757 279.735 72.6882 278.353 79.255C275.89 90.9932 281.034 103.347 289.804 106.781C293.388 108.19 297.096 107.958 300.53 106.097C305.236 103.552 308.711 98.3399 310.093 91.7731C312.555 80.0348 307.411 67.6809 298.642 64.247C297.096 63.6451 295.536 63.3441 293.977 63.3441Z" fill="#371A45"/>
<g opacity="0.35">
<path d="M279.583 96.6573C278.106 92.6761 277.709 88.2845 278.256 84.0571C282.388 92.8403 291.089 95.6449 298.408 90.2409C303.142 86.7523 306.193 80.6232 307.027 74.0837C307.287 74.631 307.533 75.2193 307.752 75.8212C311.515 85.9451 308.245 98.8189 300.46 104.565C292.69 110.325 283.345 106.781 279.583 96.6573Z" fill="#371A45"/>
</g>
<path d="M294.934 109.996C291.993 109.996 289.092 108.956 286.438 106.945C281.308 103.046 277.737 95.85 276.875 87.6825C275.398 73.7827 281.828 61.634 291.5 60.0333C295.153 59.4314 298.806 60.4301 302.075 62.92C307.206 66.8191 310.776 74.0152 311.638 82.1828C313.116 96.0826 306.686 108.231 297.013 109.832C296.316 109.928 295.618 109.996 294.934 109.996ZM293.538 64.0418C293.087 64.0418 292.622 64.0829 292.17 64.1513C284.933 65.3552 279.83 75.9169 281.02 87.231C281.759 94.263 284.728 100.392 288.955 103.607C291.281 105.386 293.826 106.097 296.316 105.687C303.553 104.483 308.656 93.921 307.466 82.6069C306.727 75.5749 303.758 69.4458 299.531 66.2308C297.629 64.7806 295.577 64.0418 293.538 64.0418Z" fill="#371A45"/>
<g opacity="0.7">
<path d="M219.484 32.9451C219.484 32.9451 183.899 37.1041 165.362 58.6926C165.348 58.72 165.321 58.7336 165.307 58.761C161.408 63.3031 158.809 68.8302 157.741 74.7266C156.332 82.5248 156.497 88.1066 156.839 93.0044C157.878 107.917 161.148 114.716 161.148 114.716C152.119 107.424 146.715 98.8051 145.716 86.3828C145.62 85.1652 145.565 83.8929 145.552 82.5932C145.552 82.2922 145.552 81.9912 145.552 81.6902V81.6766C145.716 79.0361 146.058 75.5885 146.769 71.7168C148.904 60.047 154.376 44.6423 168.276 36.7073C194.27 21.8772 220.605 31.3034 219.484 32.9451Z" fill="white"/>
</g>
<g opacity="0.7">
<path d="M252.592 79.4427C258.095 77.5525 260.768 70.8179 258.564 64.4005C256.359 57.9832 250.111 54.3133 244.609 56.2035C239.106 58.0938 236.433 64.8284 238.637 71.2457C240.842 77.6631 247.089 81.333 252.592 79.4427Z" fill="white"/>
</g>
<g opacity="0.7">
<path d="M257.887 93.5969C260.086 92.6274 260.951 89.7622 259.82 87.1973C258.689 84.6324 255.99 83.339 253.791 84.3085C251.593 85.278 250.727 88.1433 251.859 90.7082C252.99 93.2731 255.689 94.5664 257.887 93.5969Z" fill="white"/>
</g>
<path d="M407.884 232.618C381.137 290.584 302.527 332.585 209.702 332.585C116.876 332.585 38.2521 290.584 11.5195 232.618H407.884Z" fill="black"/>
<path d="M271.923 297.206L269.46 297.589C268.968 297.671 268.585 298.054 268.503 298.547L268.12 301.009L267.737 298.547C267.655 298.054 267.271 297.671 266.779 297.589L264.316 297.206L266.779 296.823C267.271 296.741 267.655 296.358 267.737 295.865L268.12 293.403L268.503 295.865C268.585 296.358 268.968 296.741 269.46 296.823L271.923 297.206Z" fill="#E94E1B"/>
<path d="M208.306 286.261L205.843 286.644C205.351 286.726 204.968 287.109 204.886 287.602L204.503 290.064L204.119 287.602C204.037 287.109 203.654 286.726 203.162 286.644L200.699 286.261L203.162 285.878C203.654 285.796 204.037 285.413 204.119 284.92L204.503 282.458L204.886 284.92C204.968 285.413 205.351 285.796 205.843 285.878L208.306 286.261Z" fill="#E94E1B"/>
<path d="M231.961 310.654L229.485 311.037C228.992 311.119 228.596 311.503 228.527 311.995L228.144 314.471L227.761 311.995C227.679 311.503 227.296 311.106 226.803 311.037L224.327 310.654L226.803 310.271C227.296 310.189 227.693 309.806 227.761 309.314L228.144 306.837L228.527 309.314C228.609 309.806 228.992 310.203 229.485 310.271L231.961 310.654Z" fill="#E94E1B"/>
<path d="M344.404 282.636L341.052 283.156C340.382 283.265 339.862 283.785 339.753 284.455L339.233 287.807L338.713 284.455C338.604 283.785 338.084 283.265 337.413 283.156L334.062 282.636L337.413 282.116C338.084 282.006 338.604 281.487 338.713 280.816L339.233 277.464L339.753 280.816C339.862 281.487 340.382 282.006 341.052 282.116L344.404 282.636Z" fill="#E94E1B"/>
<path d="M43.3555 242.961L40.4552 243.413C39.8669 243.508 39.4154 243.96 39.3333 244.534L38.8819 247.435L38.4304 244.534C38.3346 243.946 37.8832 243.495 37.3086 243.413L34.4082 242.961L37.3086 242.51C37.8968 242.414 38.3483 241.962 38.4304 241.388L38.8819 238.487L39.3333 241.388C39.4291 241.976 39.8806 242.428 40.4552 242.51L43.3555 242.961Z" fill="#E94E1B"/>
<path d="M168.672 276.794L165.526 277.273C164.896 277.369 164.404 277.861 164.308 278.49L163.829 281.637L163.351 278.49C163.255 277.861 162.762 277.369 162.133 277.273L158.986 276.794L162.133 276.315C162.762 276.219 163.255 275.727 163.351 275.098L163.829 271.951L164.308 275.098C164.404 275.727 164.896 276.219 165.526 276.315L168.672 276.794Z" fill="#E94E1B"/>
<path d="M307.328 298.027L304.332 298.492C303.73 298.588 303.265 299.053 303.169 299.655L302.704 302.651L302.239 299.655C302.143 299.053 301.678 298.588 301.076 298.492L298.08 298.027L301.076 297.562C301.678 297.466 302.143 297.001 302.239 296.399L302.704 293.403L303.169 296.399C303.265 297.001 303.73 297.466 304.332 297.562L307.328 298.027Z" fill="#E94E1B"/>
<path d="M124.838 276.069L122.375 276.452C121.883 276.534 121.5 276.917 121.418 277.41L121.035 279.872L120.652 277.41C120.57 276.917 120.187 276.534 119.694 276.452L117.231 276.069L119.694 275.686C120.187 275.604 120.57 275.221 120.652 274.728L121.035 272.266L121.418 274.728C121.5 275.221 121.883 275.604 122.375 275.686L124.838 276.069Z" fill="#E94E1B"/>
<path d="M131.295 306.577L129.654 304.689C129.325 304.306 128.792 304.197 128.327 304.388L126.042 305.387L127.93 303.745C128.313 303.417 128.422 302.884 128.231 302.418L127.232 300.134L128.874 302.022C129.202 302.405 129.736 302.514 130.201 302.323L132.486 301.324L130.611 302.966C130.228 303.294 130.119 303.828 130.31 304.293L131.295 306.577Z" fill="#E94E1B"/>
<path d="M178.043 309.601L175.184 310.039C174.609 310.121 174.158 310.572 174.075 311.147L173.638 314.006L173.2 311.147C173.118 310.572 172.666 310.121 172.092 310.039L169.232 309.601L172.092 309.163C172.666 309.081 173.118 308.629 173.2 308.055L173.638 305.196L174.075 308.055C174.158 308.629 174.609 309.081 175.184 309.163L178.043 309.601Z" fill="#E94E1B"/>
<path d="M87.9816 285.468L85.519 285.851C85.0265 285.933 84.6434 286.316 84.5614 286.808L84.1783 289.271L83.7952 286.808C83.7131 286.316 83.3301 285.933 82.8376 285.851L80.375 285.468L82.8376 285.085C83.3301 285.003 83.7131 284.62 83.7952 284.127L84.1783 281.664L84.5614 284.127C84.6434 284.62 85.0265 285.003 85.519 285.085L87.9816 285.468Z" fill="#E94E1B"/>
<path d="M381.041 245.725L378.127 246.176C377.539 246.272 377.087 246.723 376.992 247.312L376.54 250.226L376.089 247.312C375.993 246.723 375.541 246.272 374.953 246.176L372.039 245.725L374.953 245.273C375.541 245.177 375.993 244.726 376.089 244.138L376.54 241.224L376.992 244.138C377.087 244.726 377.539 245.177 378.127 245.273L381.041 245.725Z" fill="#E94E1B"/>
<path d="M321.925 282.814H228.02L232.781 270.98L239.84 253.4L300.405 254.043L314.319 272.649L321.925 282.814Z" fill="white"/>
<path d="M326.085 284.907H224.928L238.445 251.307L301.459 251.977L326.085 284.907ZM231.112 280.721H317.753L299.352 256.109L241.263 255.493L231.112 280.721Z" fill="#371A45"/>
<path d="M309.052 276.069C306.152 276.083 303.265 276.028 300.364 276.001L291.677 275.823C288.777 275.782 285.876 275.659 283.003 275.59C280.117 275.535 277.216 275.508 274.33 275.508C268.543 275.426 262.756 275.44 256.969 275.399L248.281 275.317C245.381 275.262 242.494 275.248 239.594 275.166C242.48 275.016 245.381 274.933 248.281 274.81L256.969 274.605C262.756 274.496 268.556 274.482 274.343 274.482C277.244 274.509 280.144 274.578 283.031 274.66C285.931 274.769 288.818 274.879 291.718 275.043L300.392 275.508C303.279 275.686 306.165 275.85 309.052 276.069Z" fill="#371A45"/>
<path d="M305.181 269.68C302.513 269.707 299.859 269.666 297.191 269.666L289.202 269.543C283.88 269.447 278.558 269.229 273.236 269.078L257.284 268.531C254.63 268.449 251.976 268.367 249.308 268.421C246.654 268.408 243.986 268.435 241.318 268.394C246.627 268.066 251.962 267.669 257.284 267.737C262.62 267.737 267.941 267.874 273.263 268.038C278.585 268.216 283.907 268.462 289.215 268.75L297.191 269.16C299.873 269.338 302.527 269.475 305.181 269.68Z" fill="#371A45"/>
<path d="M301.186 264.18C298.737 264.167 296.302 264.084 293.853 264.043L286.534 263.797L271.895 263.359L257.257 262.84C254.822 262.744 252.386 262.675 249.937 262.648C247.489 262.566 245.04 262.511 242.604 262.388C247.489 262.21 252.359 262.032 257.257 262.06C262.141 262.06 267.025 262.197 271.909 262.333C276.793 262.511 281.677 262.689 286.548 263.017L293.867 263.551C296.316 263.756 298.765 263.934 301.186 264.18Z" fill="#371A45"/>
<path d="M297.6 258.886C293.181 259.337 288.721 259.159 284.288 259.091C279.855 259.009 275.423 258.858 270.99 258.721L257.706 258.243C255.49 258.147 253.273 258.065 251.071 258.024C248.868 257.942 246.611 257.955 244.449 257.819L251.071 257.531C253.287 257.476 255.517 257.463 257.733 257.463C262.166 257.463 266.599 257.572 271.045 257.709C275.478 257.873 279.91 258.051 284.343 258.325C286.559 258.461 288.762 258.598 290.978 258.694C293.181 258.804 295.383 258.94 297.6 258.886Z" fill="#371A45"/>
<path d="M368.866 268.107H274.974L286.808 238.693L295.851 238.789L347.346 239.336L368.866 268.107Z" fill="white"/>
<path d="M219.866 237.448L186.102 267.929C186.102 267.929 216.2 266.383 230.154 266.424C241.537 266.451 279.638 269.379 279.638 269.379L288.503 238.72L219.866 237.448Z" fill="white"/>
<g opacity="0.35">
<path d="M314.319 272.649H280.513L280.157 273.907C280.157 273.907 246.119 271.294 232.78 270.98L239.853 253.4L300.405 254.043L314.319 272.649Z" fill="#371A45"/>
</g>
<path d="M368.866 268.107H274.974L286.808 238.693L295.851 238.789L347.346 239.336L368.866 268.107Z" fill="white"/>
<path d="M373.039 270.2H271.882L285.399 236.6L348.413 237.27L373.039 270.2ZM278.066 266.014H364.707L346.306 241.402L288.217 240.786L278.066 266.014Z" fill="#371A45"/>
<path d="M356.004 261.362C353.104 261.376 350.217 261.321 347.317 261.294L338.629 261.116C335.729 261.075 332.828 260.952 329.955 260.883C327.069 260.828 324.168 260.801 321.282 260.801C315.495 260.719 309.708 260.733 303.921 260.692L295.233 260.609C292.333 260.555 289.446 260.541 286.546 260.459C289.433 260.309 292.333 260.226 295.233 260.103L303.921 259.898C309.708 259.789 315.508 259.775 321.295 259.775C324.196 259.802 327.096 259.871 329.983 259.953C332.883 260.062 335.77 260.172 338.67 260.336L347.344 260.801C350.231 260.979 353.117 261.143 356.004 261.362Z" fill="#371A45"/>
<path d="M352.133 254.973C349.465 255 346.811 254.959 344.143 254.959L336.154 254.836C330.832 254.754 325.51 254.521 320.188 254.371L304.236 253.824C301.582 253.742 298.928 253.66 296.26 253.714C293.606 253.701 290.938 253.728 288.271 253.687C293.579 253.359 298.914 252.962 304.236 253.03C309.572 253.03 314.894 253.167 320.215 253.331C325.537 253.509 330.859 253.755 336.167 254.043L344.143 254.453C346.825 254.631 349.479 254.781 352.133 254.973Z" fill="#371A45"/>
<path d="M348.138 250.157C345.689 250.144 343.254 250.062 340.805 250.02L333.486 249.774L318.847 249.336L304.209 248.817C301.774 248.721 299.338 248.652 296.89 248.625C294.441 248.543 291.992 248.488 289.557 248.365C294.441 248.187 299.311 248.009 304.209 248.037C309.093 248.037 313.977 248.174 318.861 248.31C323.745 248.488 328.629 248.666 333.5 248.994L340.819 249.528C343.268 249.733 345.703 249.911 348.138 250.157Z" fill="#371A45"/>
<path d="M344.554 245.547C340.135 245.998 335.675 245.82 331.242 245.752C326.81 245.67 322.377 245.519 317.944 245.383L304.66 244.904C302.444 244.808 300.228 244.726 298.025 244.685C295.822 244.603 293.565 244.617 291.403 244.48L298.025 244.192C300.241 244.138 302.471 244.124 304.687 244.124C309.12 244.124 313.553 244.233 317.999 244.37C322.432 244.534 326.864 244.712 331.297 244.986C333.513 245.123 335.716 245.26 337.932 245.355C340.121 245.465 342.337 245.602 344.554 245.547Z" fill="#371A45"/>
<path d="M1.81973 230.771L14.6798 230.539L27.5399 230.361L53.2737 230.019L104.728 229.595C121.884 229.417 139.039 229.403 156.182 229.321L207.636 229.239L259.09 229.321C276.246 229.417 293.401 229.417 310.544 229.595L361.998 230.019L387.731 230.361L400.592 230.539L413.452 230.771C414.478 230.785 415.285 231.633 415.271 232.646C415.258 233.644 414.45 234.438 413.452 234.465L400.592 234.698L387.731 234.876L361.998 235.218L310.544 235.656C293.388 235.833 276.232 235.833 259.09 235.929L207.636 236.011L156.182 235.929C139.026 235.833 121.87 235.833 104.728 235.656L53.2737 235.231L27.5399 234.889L14.6798 234.712L1.81973 234.479C0.793664 234.465 -0.0135096 233.617 0.000171362 232.605C0.0275332 231.592 0.834706 230.799 1.81973 230.771Z" fill="#371A45"/>
<path d="M175.786 263.455L205.323 235.998C205.446 235.888 205.515 235.738 205.515 235.573V230.635C205.515 230.306 205.228 230.033 204.899 230.06L110.405 235.82L66.5576 263.455H175.786Z" fill="#E94E1B"/>
<g opacity="0.3">
<path d="M205.515 233.275V235.573C205.515 235.738 205.446 235.888 205.323 235.998L175.786 263.455H66.5576L74.5473 258.421H173.789L205.515 233.275Z" fill="#6B184E"/>
</g>
<path d="M176.607 265.535H59.3203L109.748 233.768L204.776 227.967C205.515 227.926 206.226 228.186 206.773 228.692C207.307 229.198 207.608 229.91 207.608 230.635V235.574C207.608 236.312 207.293 237.024 206.76 237.53L176.607 265.535ZM73.7811 261.362H174.965L203.422 234.903V232.235L111.062 237.872L73.7811 261.362Z" fill="#371A45"/>
<path d="M175.786 251.84L205.515 230.019H110.405L66.5576 251.84H175.786Z" fill="#E94E1B"/>
<path d="M168.111 249.09L187.456 234.889H125.591L97.0664 249.09H168.111Z" fill="white"/>
<path d="M176.237 253.208H60.7285L110.076 228.637H203.735C204.584 228.637 205.322 229.171 205.582 229.978C205.842 230.785 205.569 231.661 204.884 232.153L176.237 253.208ZM72.371 250.472H175.334L201.327 231.373H110.719L72.371 250.472Z" fill="#371A45"/>
<path d="M172.967 264.741H48.7034C47.8962 264.741 47.1575 264.413 46.6376 263.866C46.2819 263.51 46.0219 263.045 45.8988 262.538L24.9944 177.717C24.0914 174.05 26.855 170.521 30.6309 170.521H146.632C150.449 170.521 153.8 173.01 154.936 176.622C154.991 176.8 155.045 176.978 155.086 177.156L175.786 261.157C176.237 262.976 174.842 264.741 172.967 264.741Z" fill="#E94E1B"/>
<g opacity="0.3">
<path d="M172.967 264.741H48.7035C47.8963 264.741 47.1576 264.413 46.6377 263.866C61.8783 264.604 114.823 265.015 140.106 237.735C156.29 220.264 156.55 192.903 154.936 176.622C154.991 176.8 155.045 176.978 155.086 177.156L175.786 261.157C176.237 262.976 174.842 264.741 172.967 264.741Z" fill="#6B184E"/>
</g>
<g opacity="0.35">
<path d="M31.358 180.261L52.1667 264.741H48.7054C47.3646 264.741 46.2154 263.824 45.8871 262.538L24.9826 177.717C24.0797 174.05 26.8432 170.521 30.6192 170.521H146.62C150.519 170.521 153.939 173.12 154.993 176.855C154.623 176.814 154.267 176.786 153.884 176.786H34.0805C32.2609 176.786 30.9202 178.496 31.358 180.261Z" fill="white"/>
</g>
<path d="M172.968 266.834H48.718C46.4196 266.834 44.4222 265.275 43.8749 263.031L22.9705 178.209C22.3822 175.842 22.9158 173.38 24.4207 171.451C25.9256 169.522 28.1966 168.427 30.6318 168.427H146.632C151.612 168.427 155.922 171.807 157.112 176.636L177.811 260.637C178.181 262.142 177.852 263.688 176.895 264.905C175.937 266.137 174.514 266.834 172.968 266.834ZM30.6318 172.614C29.4826 172.614 28.4155 173.134 27.7041 174.037C26.9927 174.94 26.7464 176.102 27.02 177.211L47.9245 262.032C48.0203 262.402 48.3349 262.648 48.718 262.648H172.968C173.31 262.648 173.515 262.456 173.611 262.333C173.707 262.21 173.844 261.978 173.762 261.636L153.062 177.635C152.337 174.666 149.683 172.6 146.632 172.6H30.6318V172.614Z" fill="#371A45"/>
<g opacity="0.35">
<path d="M295.851 238.789L287.382 268.107H274.974L286.808 238.693L295.851 238.789Z" fill="#371A45"/>
</g>
<path d="M219.866 237.448L186.102 267.929C186.102 267.929 216.2 266.383 230.154 266.424C241.537 266.451 279.638 269.379 279.638 269.379L288.503 238.72L219.866 237.448Z" fill="white"/>
<path d="M281.171 271.568L279.475 271.445C279.092 271.417 241.332 268.531 230.141 268.503C216.406 268.476 186.499 269.995 186.198 270.008L180.329 270.309L219.073 235.341L291.254 236.654L281.171 271.568ZM229.622 264.317C229.799 264.317 229.977 264.317 230.155 264.317C240.252 264.344 270.5 266.574 278.093 267.149L285.727 240.731L220.647 239.541L191.835 265.548C201.165 265.111 219.402 264.317 229.622 264.317Z" fill="#371A45"/>
<path d="M238.007 237.858C238.021 242.496 237.118 247.065 235.38 251.088L234.655 252.757C233.834 254.672 231.755 254.672 230.934 252.757L230.195 251.033C228.471 247.052 227.568 242.537 227.568 237.926V190.481C227.568 188.853 229.88 187.526 232.726 187.526C235.572 187.526 237.884 188.853 237.884 190.481C237.884 190.563 237.884 190.632 237.87 190.714L238.007 237.858Z" fill="#371A45"/>
<path d="M274.125 260.651C271.265 260.61 268.406 260.487 265.533 260.418L256.955 260.076C251.25 259.789 245.518 259.611 239.799 259.447C234.08 259.214 228.362 259.036 222.643 258.858C219.784 258.749 216.938 258.735 214.065 258.681C211.206 258.599 208.333 258.544 205.474 258.434C211.206 258.243 216.911 258.065 222.643 258.079C228.376 258.092 234.094 258.27 239.813 258.434L248.391 258.804C251.25 258.927 254.109 259.077 256.969 259.31L265.533 259.939C268.42 260.158 271.279 260.363 274.125 260.651Z" fill="#371A45"/>
<path d="M277.161 255.589C273.55 255.548 269.952 255.438 266.353 255.274C264.548 255.206 262.755 255.096 260.963 255C259.171 254.905 257.365 254.768 255.573 254.699L244.792 254.166C241.194 254.015 237.596 253.796 233.998 253.701C237.596 253.4 241.208 253.345 244.82 253.359C248.431 253.372 252.03 253.495 255.641 253.66C259.253 253.851 262.837 254.152 266.436 254.467C269.993 254.781 273.577 255.151 277.161 255.589Z" fill="#371A45"/>
<path d="M286.341 144.527C286.341 144.527 295.904 165.568 297.519 189.455C299.16 213.78 296.78 248.365 240.141 243.673C220.29 242.031 221.247 233.59 220.509 223.644C219.592 211.304 221.001 197.144 235.421 196.624C261.469 195.666 269.24 189.989 272.948 174.023" fill="white"/>
<g opacity="0.35">
<path d="M297.738 203.026C296.63 224.765 286.78 247.531 240.142 243.673C220.277 242.031 221.248 233.59 220.51 223.63C220.003 216.885 220.209 209.58 222.849 204.271C222.876 205.735 222.945 207.199 223.054 208.649C223.793 218.595 222.822 227.037 242.673 228.678C278.476 231.647 292.594 218.937 297.738 203.026Z" fill="#371A45"/>
</g>
<path d="M266.669 184.831C267.107 183.928 267.613 183.107 268.105 182.231C268.598 181.37 269.132 180.508 269.638 179.605C270.65 177.799 271.594 175.884 272.689 173.941C272.757 173.818 272.907 173.777 273.031 173.845C273.113 173.886 273.154 173.968 273.154 174.05C273.277 176.294 273.044 178.51 272.497 180.713C272.223 181.807 271.881 182.916 271.375 183.955C270.869 184.995 270.253 185.994 269.419 186.828C268.748 187.512 267.654 187.512 266.97 186.842C266.436 186.308 266.313 185.515 266.628 184.872L266.669 184.831Z" fill="#371A45"/>
<path d="M249.938 246.19C246.764 246.19 243.426 246.053 239.965 245.766C219.703 244.083 219.129 234.821 218.568 225.86C218.527 225.189 218.486 224.505 218.431 223.808C217.583 212.288 219.224 204.381 223.479 199.633C226.339 196.432 230.333 194.722 235.341 194.53C251.908 193.929 260.65 191.37 265.493 185.72C266.246 184.844 267.559 184.749 268.435 185.501C269.31 186.254 269.406 187.567 268.654 188.442C262.962 195.078 253.345 198.046 235.477 198.703C231.592 198.84 228.678 200.058 226.571 202.411C223.124 206.269 221.81 213.164 222.576 223.479C222.631 224.191 222.672 224.888 222.713 225.573C223.26 234.383 223.63 240.197 240.293 241.579C261.088 243.303 276.151 239.719 285.071 230.935C295.988 220.182 296.344 203.191 295.414 189.592C293.84 166.348 284.51 145.594 284.414 145.389C283.935 144.335 284.4 143.104 285.454 142.625C286.507 142.146 287.739 142.611 288.217 143.665C288.614 144.54 297.958 165.335 299.573 189.318C300.558 203.806 300.12 221.974 287.985 233.918C279.735 242.072 266.957 246.19 249.938 246.19Z" fill="#371A45"/>
<path d="M289.749 230.853C289.721 230.853 289.694 230.853 289.653 230.853C288.504 230.799 287.601 229.827 287.656 228.678C289.147 194.339 267.955 188.771 267.052 188.552C265.93 188.278 265.246 187.157 265.506 186.035C265.78 184.913 266.902 184.229 268.01 184.489C268.283 184.557 274.631 186.103 280.733 192.465C286.26 198.211 292.677 209.197 291.815 228.87C291.787 229.964 290.871 230.853 289.749 230.853Z" fill="#371A45"/>
<path d="M123.406 224.755C121.525 225.162 120.06 224.081 119.011 221.512C118.739 220.776 118.486 219.87 118.253 218.793C118.055 217.875 117.871 216.837 117.7 215.68C117.334 213.15 117.116 210.491 117.047 207.704L117.031 207.167C111.186 209.298 108.248 210.367 108.216 210.374C108.075 210.404 107.943 210.392 107.818 210.339C107.632 210.253 107.519 210.114 107.478 209.923C107.447 209.782 107.464 209.645 107.529 209.511C107.592 209.371 107.707 209.269 107.873 209.206L117.037 205.854C117.072 201.603 117.571 198.599 118.532 196.843C118.852 196.287 119.24 195.842 119.696 195.51C120.144 195.207 120.562 195.013 120.951 194.929C121.353 194.842 121.727 194.875 122.073 195.026C122.751 195.32 123.228 195.784 123.505 196.418C123.781 197.046 123.967 197.583 124.064 198.029C124.353 199.368 124.302 201.14 123.912 203.347L130.907 200.794C131.047 200.763 131.18 200.778 131.307 200.837C131.499 200.923 131.615 201.061 131.657 201.252C131.687 201.392 131.667 201.533 131.598 201.675C131.533 201.809 131.419 201.911 131.253 201.98L123.627 204.76C122.929 207.86 121.59 211.602 119.609 215.988C119.745 216.866 119.89 217.658 120.043 218.366C120.258 219.36 120.49 220.188 120.739 220.848C121.203 222.002 121.68 222.7 122.173 222.94C122.665 223.181 123.122 223.255 123.542 223.164C123.74 223.122 123.938 223.049 124.136 222.946C125.236 222.388 126.446 221.146 127.764 219.219L127.923 218.984C128.021 218.85 128.146 218.766 128.299 218.733C128.478 218.694 128.641 218.722 128.788 218.817C128.934 218.906 129.024 219.027 129.057 219.18C129.095 219.358 129.064 219.522 128.963 219.671L128.793 219.907C128.081 221.116 127.282 222.142 126.397 222.988C125.518 223.832 124.826 224.332 124.319 224.488C123.812 224.644 123.508 224.733 123.406 224.755ZM122.548 203.842C122.983 201.719 123.104 200.042 122.911 198.809C122.866 198.538 122.832 198.352 122.81 198.25C122.55 197.045 122.098 196.513 121.454 196.652C121.256 196.694 121.033 196.803 120.783 196.977C120.54 197.149 120.327 197.396 120.142 197.716C119.742 198.456 119.439 199.479 119.234 200.785C119.035 202.083 118.92 203.545 118.892 205.173L122.548 203.842ZM119.293 213.604C120.69 210.312 121.668 207.535 122.226 205.273L118.888 206.495C118.893 208.836 119.028 211.205 119.293 213.604Z" fill="white"/>
<path d="M109.794 227.578C109.112 227.726 108.48 227.705 107.899 227.517C106.881 227.13 106.246 226.353 105.994 225.187C105.851 224.524 105.841 223.802 105.966 223.021C106.115 222.041 106.41 221.183 106.851 220.447C107.428 219.535 108.088 218.902 108.832 218.548C109.583 218.192 110.216 217.958 110.733 217.847C111.141 217.758 111.545 217.714 111.945 217.715C113.338 217.707 114.12 218.099 114.291 218.889C114.498 219.845 113.749 220.918 112.044 222.107C111.053 222.802 109.619 223.546 107.742 224.338C107.747 224.484 107.767 224.637 107.801 224.796C107.914 225.319 108.164 225.655 108.55 225.805C109.068 225.98 109.498 226.041 109.84 225.987C110.187 225.925 110.412 225.883 110.514 225.861C111.4 225.67 112.361 225.268 113.396 224.657C114.877 223.823 116.703 222.548 118.875 220.831C118.962 220.772 119.05 220.733 119.139 220.713C119.382 220.661 119.587 220.73 119.755 220.921C119.82 221.007 119.863 221.097 119.884 221.193C119.933 221.423 119.86 221.622 119.663 221.791C117.435 223.554 115.553 224.865 114.017 225.724C113.491 226.038 112.87 226.373 112.152 226.728C111.435 227.083 110.877 227.311 110.478 227.41C110.079 227.51 109.851 227.566 109.794 227.578ZM107.841 222.946C110.684 221.711 112.363 220.617 112.877 219.665C113.015 219.408 113.067 219.2 113.033 219.041C113.009 218.933 112.945 218.85 112.839 218.793C112.613 218.675 112.284 218.662 111.85 218.756C111.27 218.882 110.648 219.183 109.984 219.66C109.395 220.087 108.884 220.652 108.448 221.353C108.177 221.826 107.974 222.357 107.841 222.946Z" fill="white"/>
<path d="M101.487 229.524C100.276 229.786 99.4006 229.085 98.8605 227.42C98.636 226.721 98.4446 226.005 98.2861 225.272L98.131 224.555C97.9339 223.643 97.7325 222.819 97.5266 222.083C97.1011 220.547 96.5791 219.846 95.9608 219.979C95.8269 220.008 95.684 220.073 95.532 220.172C95.0712 220.479 94.4966 221.247 93.8082 222.477C92.6056 224.445 91.5497 227.045 90.6405 230.278C90.615 230.53 90.5272 230.726 90.3771 230.865C90.2321 230.997 90.0767 231.08 89.9109 231.116C89.8472 231.13 89.7757 231.139 89.6964 231.143C89.4326 231.126 89.2312 231.043 89.092 230.893C88.9464 230.744 88.8557 230.587 88.8198 230.421C88.806 230.358 88.7973 230.286 88.7935 230.207C88.8023 230.031 88.7276 229.053 88.5695 227.273C88.2789 223.799 88.1395 221.657 88.1512 220.847C88.1689 220.59 88.2528 220.391 88.4029 220.252C88.558 220.105 88.7152 220.015 88.8746 219.98C88.9511 219.964 89.0296 219.957 89.1102 219.959C89.374 219.976 89.5755 220.059 89.7147 220.209C89.8603 220.358 89.951 220.515 89.9868 220.681C90.0006 220.744 90.0062 220.816 90.0036 220.897C89.9857 221.555 90.1178 223.555 90.4 226.897C91.1224 224.899 91.8996 223.216 92.7316 221.849C93.6858 220.274 94.4288 219.313 94.9607 218.965C95.4975 218.608 95.9062 218.4 96.1867 218.339C96.5947 218.251 96.9731 218.319 97.322 218.544C98.4046 219.231 99.3015 221.219 100.013 224.508L100.104 224.979L100.189 225.371C100.492 226.773 100.851 227.553 101.265 227.711C101.536 227.819 101.763 227.853 101.948 227.813C102.28 227.742 102.675 227.519 103.135 227.146C104.135 226.309 105.107 225.169 106.049 223.724C106.145 223.583 106.27 223.496 106.423 223.463C106.601 223.424 106.764 223.452 106.911 223.547C107.059 223.642 107.149 223.769 107.184 223.929C107.218 224.088 107.189 224.245 107.095 224.398C106.063 225.949 105.011 227.181 103.941 228.093C102.955 228.907 102.138 229.384 101.487 229.524Z" fill="white"/>
<path d="M73.3563 246.075C73.2798 246.092 73.2012 246.099 73.1206 246.096C72.8582 246.086 72.6535 246.004 72.5065 245.849C72.3673 245.699 72.2805 245.544 72.246 245.385C72.2309 245.314 72.2221 245.243 72.2197 245.17C72.4743 237.428 72.2964 230.17 71.6859 223.396C71.253 218.832 70.7224 215.096 70.0939 212.19C69.737 210.539 69.3477 209.155 68.9261 208.038L68.8876 207.906C68.8449 207.709 68.8644 207.521 68.9461 207.343C69.0799 207.067 69.303 206.896 69.6154 206.828C69.813 206.785 70.0007 206.805 70.1785 206.887C70.6654 207.102 71.241 208.745 71.9053 211.818C72.899 216.414 73.5765 222.156 73.938 229.044C76.349 224.239 78.5106 220.225 80.4229 217.003C82.5709 213.389 84.6859 210.209 86.7681 207.464C86.8735 207.334 87.0028 207.253 87.1557 207.22C87.3279 207.182 87.4896 207.221 87.6411 207.335C87.7743 207.426 87.856 207.542 87.8863 207.682C87.9263 207.867 87.8893 208.035 87.7752 208.187C85.7244 210.892 83.635 214.036 81.507 217.619C79.4476 221.087 77.0924 225.486 74.4414 230.817L92.6329 237.184C92.8517 237.27 92.9846 237.421 93.0314 237.638C93.0548 237.746 93.0457 237.858 93.004 237.974C92.9242 238.192 92.776 238.324 92.5592 238.371C92.4445 238.395 92.3267 238.391 92.206 238.357L74.0644 231.99C74.2154 236.114 74.2173 240.521 74.0701 245.21C74.0523 245.468 73.9684 245.666 73.8183 245.805C73.6696 245.951 73.5156 246.041 73.3563 246.075Z" fill="white"/>
</svg>
