<svg width="398" height="427" viewBox="0 0 398 427" fill="none" xmlns="http://www.w3.org/2000/svg">
<path opacity="0.25" d="M197.211 426.369C306.127 426.369 394.422 422.292 394.422 417.262C394.422 412.233 306.127 408.155 197.211 408.155C88.2943 408.155 0 412.233 0 417.262C0 422.292 88.2943 426.369 197.211 426.369Z" fill="#371A45"/>
<path d="M290.248 273.897H85.6047C67.1397 213.582 98.0193 205.313 98.0193 205.313H277.812C277.812 205.334 308.692 213.603 290.248 273.897Z" fill="white"/>
<g opacity="0.25">
<path d="M290.249 273.897H264.729C238.099 267.198 215.74 256.897 248.043 256.918C292.405 256.939 283.298 220.177 277.813 205.334H277.834C277.813 205.334 308.693 213.603 290.249 273.897Z" fill="#371A45"/>
</g>
<path d="M290.247 276.974H85.6044C84.2645 276.974 83.0712 276.095 82.6734 274.797C74.8018 249.088 74.6133 229.221 82.0872 215.697C88.0747 204.915 96.8467 202.444 97.2235 202.34C98.8565 201.9 100.552 202.863 100.992 204.517C101.431 206.15 100.468 207.825 98.8355 208.264C98.5215 208.348 91.9897 210.316 87.342 218.879C82.9665 226.939 79.5959 242.431 87.8863 270.819H287.944C296.235 242.431 292.864 226.939 288.489 218.879C283.82 210.295 277.267 208.348 276.995 208.264C275.383 207.804 274.42 206.108 274.86 204.496C275.299 202.863 276.974 201.921 278.607 202.34C278.984 202.444 287.756 204.894 293.743 215.697C301.238 229.2 301.029 249.088 293.157 274.797C292.78 276.095 291.587 276.974 290.247 276.974Z" fill="#371A45"/>
<path d="M315.685 406.229C312.544 409.558 308.148 411.442 303.563 411.442H67.9568C63.372 411.442 58.9965 409.558 55.8352 406.229C42.3738 391.993 34.6277 379.683 30.9012 369.488C18.3191 335.112 51.4388 324.937 65.5492 347.401C65.5492 347.401 80.1202 331.93 109.786 323.744H261.734C291.4 331.93 305.971 347.401 305.971 347.401C324.289 318.259 374.555 344.009 315.685 406.229Z" fill="white"/>
<g opacity="0.25">
<path d="M127.685 411.044C127.644 411.17 127.581 411.295 127.56 411.442H67.9569C63.3721 411.442 58.9966 409.558 55.8354 406.229C42.3739 391.993 34.6279 379.683 30.9014 369.488C55.0607 411.421 85.8357 398.232 70.1133 354.582C70.4901 355.461 82.7791 383.347 88.5573 386.634C94.4401 389.962 100.825 381.002 100.825 381.002C100.825 381.002 131.014 402.984 127.685 411.044Z" fill="#371A45"/>
</g>
<g opacity="0.25">
<path d="M242.286 411.044C242.328 411.17 242.39 411.295 242.411 411.442H302.014C306.599 411.442 310.974 409.558 314.136 406.229C327.597 391.993 335.343 379.683 339.07 369.488C314.91 411.421 284.135 398.232 299.858 354.582C299.481 355.461 287.192 383.347 281.414 386.634C275.531 389.962 269.146 381.002 269.146 381.002C269.146 381.002 238.957 402.984 242.286 411.044Z" fill="#371A45"/>
</g>
<path d="M65.3415 413.598C64.4413 413.598 63.4364 413.473 62.3059 413.138C60.9451 412.761 60.1496 411.358 60.5264 409.997C60.9032 408.637 62.3268 407.841 63.6667 408.218C66.3045 408.951 66.7233 408.03 66.9954 407.485C71.0359 398.881 52.4872 357.052 38.0628 347.087C34.2107 344.428 32.9127 345.747 32.4102 346.27C31.4263 347.275 29.8143 347.296 28.7884 346.312C27.7835 345.328 27.7626 343.716 28.7466 342.69C30.547 340.848 34.5247 338.42 40.9728 342.879C55.481 352.907 77.4631 397.206 71.6221 409.662C71.015 410.981 69.2774 413.598 65.3415 413.598Z" fill="#371A45"/>
<path d="M68.0827 345.663C74.0911 355.943 79.1575 366.682 83.3655 377.799C83.8051 378.992 82.0884 379.767 81.5022 378.615C76.1637 368.315 69.9878 358.371 63.0373 349.139C60.4832 345.663 65.7379 342.021 68.0827 345.663Z" fill="#371A45"/>
<path d="M303.565 414.52H67.959C62.5576 414.52 57.3238 412.28 53.6183 408.344C30.715 384.122 20.8754 361.323 26.6326 345.789C29.417 338.273 35.7814 333.291 43.6321 332.474C51.9225 331.616 60.2129 335.51 66.012 342.753C71.5808 337.876 85.754 327.178 108.971 320.771C110.604 320.311 112.3 321.274 112.74 322.907C113.2 324.54 112.237 326.235 110.604 326.675C82.2369 334.505 67.9171 349.327 67.7706 349.495C67.1216 350.185 66.1795 350.541 65.2374 350.437C64.2953 350.353 63.4369 349.83 62.9345 349.013C58.4334 341.853 51.2735 337.834 44.2392 338.566C38.6704 339.132 34.3577 342.544 32.3689 347.904C30.0451 354.184 27.8887 372.209 58.0566 404.094C60.6107 406.795 64.2115 408.344 67.938 408.344H303.565C307.292 408.344 310.893 406.795 313.447 404.094C343.615 372.209 341.458 354.163 339.134 347.904C337.146 342.544 332.812 339.132 327.264 338.566C320.251 337.855 313.091 341.832 308.569 349.013C308.066 349.809 307.208 350.332 306.266 350.437C305.324 350.52 304.382 350.185 303.733 349.495C303.586 349.348 289.287 334.526 260.92 326.696C259.287 326.235 258.324 324.561 258.785 322.928C259.245 321.295 260.92 320.332 262.553 320.792C285.77 327.198 299.943 337.896 305.512 342.774C311.311 335.531 319.602 331.658 327.892 332.495C335.743 333.312 342.107 338.294 344.892 345.81C350.649 361.344 340.809 384.143 317.906 408.365C314.2 412.259 308.987 414.52 303.565 414.52Z" fill="#371A45"/>
<path d="M306.179 413.598C302.244 413.598 300.527 410.981 299.899 409.662C294.058 397.206 316.04 352.907 330.548 342.879C336.996 338.419 340.974 340.848 342.774 342.69C343.758 343.695 343.737 345.328 342.732 346.312C341.728 347.296 340.095 347.275 339.111 346.27C338.629 345.768 337.31 344.428 333.458 347.087C319.034 357.052 300.485 398.881 304.525 407.485C304.777 408.029 305.216 408.951 307.854 408.218C309.215 407.841 310.618 408.637 310.995 409.997C311.371 411.358 310.576 412.761 309.215 413.138C308.085 413.473 307.08 413.598 306.179 413.598Z" fill="#371A45"/>
<path d="M308.503 349.118C301.553 358.371 295.377 368.315 290.017 378.615C289.452 379.725 287.694 378.971 288.154 377.778C291.274 369.488 294.958 361.365 299.082 353.493C300.464 350.855 301.867 348.28 303.437 345.642C304.295 344.177 306.2 343.695 307.645 344.575C309.257 345.517 309.655 347.694 308.503 349.118Z" fill="#371A45"/>
<path d="M390.318 300.694C377.275 319.096 329.961 308.126 329.961 308.126C306.179 315.789 281.286 311.832 281.286 311.832C281.286 311.832 261.419 319.473 235.208 329.313C186.449 347.589 115.751 373.382 110.203 371.393C101.682 368.315 70.3001 347.192 72.6867 305.258C75.0734 263.325 124.711 229.912 124.711 229.912H240.797C245.675 233.345 250.658 236.695 255.808 239.898C276.911 253.004 300.463 263.367 328.035 265.062C335.195 261.482 345.684 253.673 352.969 255.202C360.255 256.73 355.272 272.85 355.272 272.85C370.555 270.757 383.43 273.75 389.899 279.843C395.342 284.972 396.263 292.299 390.318 300.694Z" fill="white"/>
<g opacity="0.25">
<path d="M255.809 239.877C181.823 281.245 127.685 234.308 127.685 234.308L132.96 229.891H240.798C245.676 233.345 250.68 236.695 255.809 239.877Z" fill="#371A45"/>
</g>
<g opacity="0.25">
<path d="M126.848 254.699C126.848 254.699 121.153 282.48 145.334 281.622L123.728 284.867L104.803 285.684C104.803 285.663 110.811 267.114 126.848 254.699Z" fill="#371A45"/>
</g>
<g opacity="0.25">
<path d="M390.319 300.694C377.276 319.096 329.962 308.126 329.962 308.126C306.179 315.789 281.287 311.832 281.287 311.832C281.287 311.832 261.42 319.473 235.209 329.313C205.774 319.013 182.514 306.389 205.92 306.096C246.577 305.593 242.431 254.699 242.431 254.699L246.953 268.496C266.088 298.245 328.748 293.241 328.748 293.241C384.352 307.456 389.649 286.94 389.879 279.843C395.343 284.972 396.264 292.299 390.319 300.694Z" fill="#371A45"/>
</g>
<path d="M110.999 374.575C110.036 374.575 109.575 374.408 109.177 374.261C100.72 371.225 67.1184 349.348 69.6516 305.049C72.101 262.089 120.943 228.739 123.016 227.337C124.418 226.395 126.324 226.772 127.266 228.174C128.208 229.577 127.831 231.482 126.428 232.424C125.947 232.759 78.0257 265.481 75.7647 305.384C73.4827 345.6 103.19 365.426 111.062 368.399C111.124 368.399 111.208 368.399 111.292 368.399C121.843 368.399 220.009 332.118 280.177 308.943C280.68 308.754 281.224 308.691 281.768 308.775C282.02 308.817 306.242 312.523 329.019 305.195C329.543 305.028 330.108 305.007 330.652 305.132C343.255 308.042 378.092 312.606 387.806 298.915C390.444 295.188 392.977 289.682 389.92 284.637C385.503 277.33 371.413 273.729 355.691 275.865C354.665 276.011 353.618 275.614 352.928 274.818C352.237 274.023 352.027 272.934 352.341 271.929C353.556 267.972 354.623 261.294 353.179 258.824C352.928 258.384 352.676 258.258 352.341 258.195C347.924 257.253 340.806 261.357 335.091 264.644C333.081 265.795 331.176 266.905 329.417 267.784C328.936 268.035 328.391 268.14 327.847 268.098C290.812 265.837 260.938 247.832 239.018 232.403C237.637 231.419 237.302 229.514 238.286 228.132C239.27 226.751 241.175 226.416 242.557 227.4C263.638 242.243 292.278 259.535 327.387 261.922C328.81 261.189 330.38 260.268 332.013 259.326C338.985 255.306 346.856 250.784 353.598 252.187C355.691 252.627 357.366 253.841 358.454 255.725C360.653 259.452 360.087 265.251 359.292 269.333C375.977 268.035 389.774 272.62 395.154 281.476C398.881 287.631 398.043 295.083 392.809 302.474C379.578 321.127 336.849 312.774 330.087 311.308C308.314 318.091 286.228 315.621 281.622 314.993C275.865 317.212 238.139 331.678 199.974 345.642C130.573 371.058 115.416 374.575 110.999 374.575Z" fill="#371A45"/>
<path d="M310.033 125.256C310.033 170.079 285.915 209.249 249.928 230.498C231.735 241.259 210.506 247.435 187.833 247.435C120.359 247.435 65.6338 192.731 65.6338 125.256C65.6338 57.7606 120.359 3.05658 187.833 3.05658C245.887 3.05658 294.499 43.5455 306.934 97.8099C308.965 106.645 310.033 115.814 310.033 125.256Z" fill="white"/>
<g opacity="0.25">
<path d="M310.033 125.256C310.033 170.079 285.915 209.249 249.928 230.498C231.735 241.259 210.506 247.435 187.833 247.435C120.359 247.435 65.6338 192.731 65.6338 125.256C65.6338 123.665 65.6547 122.074 65.7385 120.483C68.2298 185.759 121.95 237.888 187.833 237.888C210.506 237.888 231.735 231.712 249.928 220.951C284.617 200.456 308.274 163.296 309.928 120.462C309.991 122.053 310.033 123.644 310.033 125.256Z" fill="#371A45"/>
</g>
<path d="M310.032 125.256C310.032 170.079 285.914 209.249 249.927 230.498L241.155 224.092L187.832 226.479L177.386 234.308C104.426 214.189 86.3379 157.936 86.3379 157.936L93.2466 105.786C168.174 30.7541 279.676 58.4724 306.934 97.8099C308.964 106.645 310.032 115.814 310.032 125.256Z" fill="#371A45"/>
<g opacity="0.35">
<path d="M310.032 125.256C310.032 170.079 285.914 209.249 249.927 230.498L241.155 224.092L187.832 226.478L177.386 234.308C104.426 214.189 86.3379 157.936 86.3379 157.936L87.6149 148.264C107.797 186.178 147.009 211.907 192.04 211.907C250.659 211.907 299.355 168.341 309.195 111.02C309.739 115.689 310.032 120.42 310.032 125.256Z" fill="#101928"/>
</g>
<path d="M187.833 250.512C118.768 250.512 62.5771 194.322 62.5771 125.256C62.5771 56.1904 118.768 0 187.833 0C256.899 0 313.089 56.1904 313.089 125.256C313.089 194.322 256.899 250.512 187.833 250.512ZM187.833 6.11311C122.138 6.11311 68.7112 59.561 68.7112 125.235C68.7112 190.93 122.159 244.357 187.833 244.357C253.507 244.357 306.955 190.909 306.955 125.235C306.955 59.561 253.507 6.11311 187.833 6.11311Z" fill="#371A45"/>
<path d="M70.534 164.154C85.7153 164.154 98.0221 147.442 98.0221 126.826C98.0221 106.211 85.7153 89.4986 70.534 89.4986C55.3527 89.4986 43.0459 106.211 43.0459 126.826C43.0459 147.442 55.3527 164.154 70.534 164.154Z" fill="white"/>
<g opacity="0.25">
<path d="M98.021 126.826C98.021 147.448 85.711 164.154 70.5329 164.154C59.8349 164.154 50.5605 155.864 46.0176 143.742C50.9793 150.462 57.8461 154.607 65.4037 154.607C80.5818 154.607 92.8918 137.901 92.8918 117.28C92.8918 111.188 91.8241 105.43 89.898 100.343C94.9225 107.105 98.021 116.463 98.021 126.826Z" fill="#371A45"/>
</g>
<path d="M70.5343 167.231C53.6814 167.231 39.9688 149.101 39.9688 126.826C39.9688 104.551 53.6814 86.4209 70.5343 86.4209C87.3873 86.4209 101.1 104.551 101.1 126.826C101.1 149.101 87.3873 167.231 70.5343 167.231ZM70.5343 92.555C57.0729 92.555 46.1028 107.922 46.1028 126.826C46.1028 145.731 57.052 161.097 70.5343 161.097C84.0167 161.097 94.9659 145.731 94.9659 126.826C94.9659 107.922 83.9958 92.555 70.5343 92.555Z" fill="#371A45"/>
<path d="M60.129 153.875C49.766 153.875 41.3291 142.402 41.3291 128.292C41.3291 114.181 49.766 102.73 60.129 102.73C70.492 102.73 78.929 114.202 78.929 128.292C78.929 142.381 70.492 153.875 60.129 153.875ZM60.129 108.864C53.2622 108.864 47.4632 117.761 47.4632 128.292C47.4632 138.822 53.2622 147.72 60.129 147.72C66.9958 147.72 72.7949 138.822 72.7949 128.292C72.774 117.761 66.9749 108.864 60.129 108.864Z" fill="#371A45"/>
<path d="M95.4244 107.964L91.0908 103.63C138.342 56.2951 194.135 53.6154 223.172 56.2323C260.625 59.6029 295.294 75.6184 309.446 96.0723L304.401 99.5684C291.212 80.5173 258.343 65.5485 222.607 62.3454C194.637 59.8122 140.917 62.4082 95.4244 107.964Z" fill="#371A45"/>
<path d="M177.386 237.386C177.114 237.386 176.842 237.344 176.57 237.281C138.111 226.667 114.852 206.004 102.145 190.533C88.2854 173.701 83.6377 159.465 83.4284 158.878C82.905 157.266 83.8052 155.529 85.4172 155.026C87.0292 154.503 88.7669 155.403 89.2693 157.015C89.3321 157.204 93.896 170.937 107.064 186.869C119.06 201.377 140.833 220.7 176.758 230.959L185.991 224.029C186.493 223.652 187.079 223.443 187.686 223.422L241.009 221.035C241.699 221.014 242.39 221.203 242.956 221.622L251.748 228.028C253.109 229.033 253.423 230.938 252.418 232.32C251.413 233.68 249.508 233.994 248.127 232.989L240.213 227.211L188.922 229.514L179.228 236.779C178.684 237.176 178.035 237.386 177.386 237.386Z" fill="#371A45"/>
<path d="M82.3196 96.156C81.5869 96.156 80.8332 95.8838 80.247 95.3604C78.9909 94.209 78.9071 92.2829 80.0586 91.0268C81.9218 88.9751 126.514 40.9495 195.454 35.0457C196.501 34.962 197.548 35.4226 198.176 36.2809L201.714 41.0332C209.313 41.5985 244.254 44.676 267.555 54.8924L270.905 51.145C271.868 50.0773 273.438 49.8051 274.694 50.5169C275.364 50.8938 291.254 59.9797 301.052 71.871C302.12 73.169 301.931 75.116 300.633 76.1837C299.335 77.2514 297.388 77.063 296.321 75.765C289.265 67.2024 278.337 59.9378 273.794 57.1116L270.633 60.6496C269.733 61.6545 268.267 61.9476 267.032 61.3824C242.559 49.8051 200.332 47.0626 199.913 47.0417C199.013 46.9789 198.176 46.5392 197.652 45.8065L194.303 41.3054C128.67 47.6697 85.0412 94.6905 84.6015 95.1511C83.9735 95.821 83.157 96.156 82.3196 96.156Z" fill="#371A45"/>
<g opacity="0.5">
<path d="M192.043 104.07C200.611 104.07 207.556 97.6209 207.556 89.666C207.556 81.7112 200.611 75.2625 192.043 75.2625C183.476 75.2625 176.53 81.7112 176.53 89.666C176.53 97.6209 183.476 104.07 192.043 104.07Z" fill="#FFFDF9"/>
</g>
<g opacity="0.5">
<path d="M281.959 116.275C275.134 110.894 266.425 108.696 257.758 109.471C226.794 112.234 204.331 76.393 236.383 73.5458C236.383 73.5458 310.347 77.691 298.707 137.126C298.707 137.126 293.536 125.403 281.959 116.275Z" fill="#FFFDF9"/>
</g>
<path d="M355.839 275.865L343.717 276.493C341.917 276.577 341.477 274.002 343.173 273.478L354.75 269.835C359.209 268.663 360.424 275.404 355.839 275.865Z" fill="#371A45"/>
<path d="M288.028 315.098C287.693 315.098 287.358 315.035 287.044 314.909C285.746 314.365 285.118 312.858 285.662 311.56C299.291 279.005 285.013 257.442 284.867 257.232C284.071 256.06 284.364 254.469 285.537 253.673C286.709 252.878 288.3 253.171 289.096 254.343C289.745 255.306 305.069 278.44 290.394 313.527C289.975 314.511 289.033 315.098 288.028 315.098Z" fill="#371A45"/>
<path d="M76.6666 336.242C76.4573 336.242 76.2688 336.221 76.0595 336.159C74.6987 335.824 73.8613 334.463 74.1753 333.102C74.3009 332.6 77.2528 320.96 93.7498 315.537C95.0897 315.098 96.5342 315.83 96.9739 317.17C97.4135 318.51 96.6808 319.955 95.3409 320.394C81.712 324.895 79.2417 333.939 79.137 334.316C78.8648 335.468 77.8181 336.242 76.6666 336.242Z" fill="#371A45"/>
<path d="M117.993 284.427C117.909 275.97 119.982 267.616 123.185 259.849C124.231 257.295 125.467 254.867 126.765 252.459C127.037 251.957 127.665 251.768 128.146 252.04C128.607 252.292 128.816 252.857 128.607 253.338C127.644 255.809 126.765 258.3 126.074 260.854C124.064 268.265 123.101 276.137 124.085 283.778C124.671 288.049 118.349 288.761 117.993 284.427Z" fill="#371A45"/>
<path d="M245.237 283.757C246.514 273.478 244.483 262.927 240.715 253.338C240.233 252.166 241.929 251.329 242.557 252.459C247.896 262.215 251.392 273.206 251.329 284.427C250.973 288.74 244.651 288.07 245.237 283.757Z" fill="#371A45"/>
<path d="M225.119 286.647H148.747C147.784 286.647 146.904 286.102 146.465 285.244C146.025 284.386 146.109 283.36 146.674 282.585L156.137 269.542C156.618 268.873 157.393 268.496 158.209 268.496H215.656C216.472 268.496 217.247 268.893 217.729 269.542L227.191 282.585C227.757 283.36 227.84 284.386 227.401 285.244C226.961 286.102 226.082 286.647 225.119 286.647ZM153.771 281.538H220.115L214.358 273.604H159.528L153.771 281.538Z" fill="#371A45"/>
<path d="M213.709 287.714H160.303C159.507 287.714 158.795 287.254 158.46 286.542C158.125 285.83 158.23 284.972 158.733 284.365L165.348 276.263C165.746 275.781 166.311 275.509 166.939 275.509H207.114C207.721 275.509 208.307 275.781 208.705 276.263L215.321 284.365C215.823 284.972 215.928 285.83 215.593 286.542C215.216 287.254 214.483 287.714 213.709 287.714ZM164.615 283.632H209.396L206.13 279.633H167.902L164.615 283.632Z" fill="#371A45"/>
<path d="M282.67 300.987L272.433 382.07C271.512 389.397 265.273 394.903 257.883 394.903H117.176C110.477 394.903 104.72 390.381 103.024 384.08C102.857 383.431 102.71 382.761 102.626 382.091L92.389 301.008C91.2585 292.048 98.23 284.113 107.274 284.113H267.743C272.035 284.113 275.845 285.893 278.546 288.719C281.624 291.839 283.256 296.256 282.67 300.987Z" fill="#E94E1B"/>
<g opacity="0.25">
<path d="M282.67 300.987L272.432 382.07C271.511 389.397 265.272 394.903 257.882 394.903H117.176C110.476 394.903 104.719 390.381 103.023 384.08C178.893 385.085 224.741 382.3 249.32 363.416C268.161 348.929 272.976 324.33 278.587 288.74C281.623 291.839 283.256 296.256 282.67 300.987Z" fill="#371A45"/>
</g>
<g opacity="0.6">
<path d="M282.671 300.987L282.503 302.39C281.122 295.628 275.134 290.415 267.786 290.415H107.295C99.9472 290.415 93.9597 295.628 92.578 302.39L92.4105 300.987C91.28 292.027 98.2514 284.092 107.295 284.092H267.765C276.83 284.092 283.801 292.027 282.671 300.987Z" fill="#FFFDF9"/>
</g>
<path d="M258.573 411.442H116.506C111.063 411.442 106.311 407.737 105.013 402.44L104.301 399.593C103.715 397.206 105.515 394.882 107.985 394.882H267.073C269.543 394.882 271.344 397.206 270.758 399.593L270.046 402.44C268.748 407.737 264.017 411.442 258.573 411.442Z" fill="#E94E1B"/>
<g opacity="0.25">
<path d="M270.759 399.593L270.047 402.44C268.749 407.737 263.997 411.442 258.554 411.442H116.528C112.299 411.442 108.489 409.202 106.396 405.727C107.149 405.873 107.903 405.957 108.677 405.957H250.724C256.167 405.957 260.919 402.231 262.217 396.955L262.72 394.882H267.074C269.545 394.882 271.366 397.185 270.759 399.593Z" fill="#371A45"/>
</g>
<path d="M257.882 397.96H117.197C108.278 397.96 100.721 391.281 99.6111 382.447L89.3737 301.364C88.7247 296.214 90.3158 291.043 93.7492 287.149C97.1826 283.255 102.123 281.036 107.315 281.036H267.806C272.998 281.036 277.938 283.276 281.372 287.149C284.805 291.043 286.396 296.214 285.747 301.364L275.51 382.447C274.358 391.281 266.801 397.96 257.882 397.96ZM107.294 287.17C103.861 287.17 100.595 288.635 98.334 291.21C96.073 293.786 95.0053 297.198 95.4449 300.61L105.682 381.693C106.415 387.471 111.356 391.826 117.176 391.826H257.882C263.702 391.826 268.664 387.471 269.376 381.693L279.613 300.61C280.032 297.219 278.985 293.786 276.724 291.21C274.463 288.635 271.197 287.17 267.764 287.17H107.294Z" fill="#371A45"/>
<path d="M258.575 414.52H116.507C109.641 414.52 103.674 409.851 102.02 403.194L101.308 400.346C100.806 398.274 101.266 396.138 102.564 394.464C103.883 392.789 105.851 391.826 107.966 391.826H267.053C269.189 391.826 271.157 392.789 272.455 394.464C273.774 396.138 274.234 398.274 273.711 400.346L272.999 403.194C271.387 409.851 265.441 414.52 258.575 414.52ZM108.008 397.96C107.714 397.96 107.526 398.106 107.442 398.232C107.338 398.358 107.233 398.567 107.317 398.86L108.029 401.707C108.992 405.643 112.509 408.386 116.549 408.386H258.595C262.636 408.386 266.153 405.643 267.116 401.707L267.828 398.86C267.891 398.567 267.786 398.358 267.702 398.232C267.598 398.106 267.43 397.96 267.137 397.96H108.008Z" fill="#371A45"/>
<path d="M145.585 400.367H134.343C131.098 400.367 128.272 398.106 127.581 394.945L127.12 392.852C126.722 391.072 128.083 389.397 129.905 389.397H150.044C151.866 389.397 153.227 391.093 152.829 392.852L152.368 394.945C151.656 398.127 148.851 400.367 145.585 400.367Z" fill="#E94E1B"/>
<path d="M240.715 400.367H229.473C226.228 400.367 223.402 398.106 222.711 394.945L222.25 392.851C221.852 391.072 223.213 389.397 225.035 389.397H245.174C246.996 389.397 248.357 391.093 247.959 392.851L247.498 394.945C246.786 398.127 243.981 400.367 240.715 400.367Z" fill="#E94E1B"/>
<path d="M145.585 402.922H134.343C129.862 402.922 126.052 399.865 125.089 395.49L124.629 393.396C124.273 391.784 124.65 390.13 125.696 388.853C126.722 387.576 128.271 386.822 129.904 386.822H150.044C151.698 386.822 153.226 387.555 154.252 388.853C155.278 390.13 155.676 391.805 155.32 393.396L154.859 395.49C153.875 399.865 150.065 402.922 145.585 402.922ZM129.904 391.951C129.862 391.951 129.758 391.951 129.674 392.056C129.59 392.161 129.611 392.265 129.611 392.307L130.072 394.401C130.511 396.411 132.27 397.834 134.343 397.834H145.585C147.657 397.834 149.416 396.432 149.856 394.401L150.316 392.307C150.316 392.265 150.337 392.182 150.253 392.056C150.17 391.931 150.065 391.951 150.023 391.951H129.904Z" fill="#371A45"/>
<path d="M240.715 402.922H229.472C224.992 402.922 221.182 399.865 220.219 395.489L219.758 393.396C219.403 391.784 219.779 390.13 220.826 388.853C221.852 387.576 223.401 386.822 225.034 386.822H245.174C246.828 386.822 248.356 387.555 249.382 388.853C250.408 390.13 250.806 391.805 250.45 393.396L249.989 395.489C249.005 399.865 245.195 402.922 240.715 402.922ZM225.034 391.951C224.992 391.951 224.888 391.951 224.804 392.056C224.72 392.161 224.741 392.265 224.741 392.307L225.202 394.401C225.641 396.411 227.4 397.834 229.472 397.834H240.715C242.787 397.834 244.546 396.432 244.986 394.401L245.446 392.307C245.446 392.265 245.467 392.182 245.383 392.056C245.3 391.93 245.195 391.951 245.153 391.951H225.034Z" fill="#371A45"/>
<path d="M203.954 344.156H201.358C201.044 343.109 200.562 342.125 199.955 341.204L201.797 339.613C202.572 338.943 202.572 337.833 201.797 337.163L199.369 335.049C198.573 334.358 197.317 334.358 196.522 335.049L194.679 336.64C193.633 336.117 192.481 335.698 191.288 335.405V333.144C191.288 332.181 190.388 331.406 189.278 331.406H185.845C184.735 331.406 183.856 332.181 183.856 333.144V335.405C182.642 335.677 181.511 336.096 180.443 336.64L178.601 335.049C177.826 334.358 176.549 334.358 175.775 335.049L173.346 337.163C172.572 337.833 172.572 338.943 173.346 339.613L175.189 341.204C174.581 342.125 174.1 343.109 173.765 344.156H171.169C170.059 344.156 169.159 344.931 169.159 345.894V348.887C169.159 349.85 170.059 350.625 171.169 350.625H173.765C174.1 351.672 174.581 352.656 175.189 353.577L173.346 355.168C172.572 355.838 172.572 356.947 173.346 357.617L175.775 359.732C176.549 360.402 177.826 360.402 178.601 359.732L180.443 358.141C181.511 358.664 182.642 359.083 183.856 359.376V361.637C183.856 362.6 184.756 363.375 185.845 363.375H189.278C190.388 363.375 191.288 362.6 191.288 361.637V359.376C192.481 359.104 193.633 358.685 194.679 358.141L196.522 359.732C197.317 360.402 198.573 360.402 199.369 359.732L201.797 357.617C202.572 356.947 202.572 355.838 201.797 355.168L199.955 353.577C200.562 352.656 201.044 351.672 201.358 350.625H203.954C205.063 350.625 205.943 349.85 205.943 348.887V345.894C205.943 344.931 205.042 344.156 203.954 344.156ZM191.644 350.96C190.597 351.881 189.132 352.446 187.54 352.446C184.358 352.446 181.741 350.185 181.741 347.401C181.741 346.019 182.39 344.742 183.437 343.842C184.484 342.921 185.949 342.355 187.54 342.355C189.132 342.355 190.597 342.921 191.644 343.842C192.691 344.763 193.339 346.019 193.339 347.401C193.339 348.783 192.691 350.039 191.644 350.96Z" fill="white"/>
<g opacity="0.2">
<path d="M119.96 302.39H127.581C133.798 302.39 139.011 307.079 139.681 313.255L143.868 351.776C144.643 358.978 139.011 365.259 131.768 365.259H124.189C117.992 365.259 112.779 360.59 112.088 354.414L107.859 315.893C107.085 308.671 112.716 302.39 119.96 302.39Z" fill="white"/>
</g>
</svg>
