<svg width="138" height="167" viewBox="0 0 138 167" fill="none" xmlns="http://www.w3.org/2000/svg">
<g id="Group">
<g id="Group_2">
<g id="Group_3">
<g id="Group_4">
<path id="Vector" d="M72.2121 164.939C36.1495 164.939 6.91501 157.139 6.91501 147.516C6.91501 137.893 36.1495 130.092 72.2121 130.092C108.275 130.092 137.509 137.893 137.509 147.516C137.509 157.139 108.275 164.939 72.2121 164.939Z" fill="#29235C"/>
</g>
</g>
<g id="Group_5">
<g id="Group_6">
<g id="Group_7">
<g id="Group_8">
<g id="Group_9">
<g id="Group_10">
<path id="Vector_2" d="M38.6717 86.6528C38.6717 86.6528 20.7599 109.403 30.1406 122.073C38.7561 133.713 58.7163 119.801 58.7163 119.801L60.8853 86.6468H38.6717V86.6528Z" fill="white"/>
</g>
</g>
<g id="Group_11">
<g id="Group_12">
<path id="Vector_3" d="M39.9433 127.718C42.3653 127.718 45.0523 127.236 47.9744 126.26C54.1077 124.218 59.0781 120.778 59.289 120.633L59.6866 120.356L61.958 85.6528H38.19L37.8888 86.0384C37.1357 86.9903 19.6155 109.541 29.3396 122.675C31.8098 126.025 35.4126 127.718 39.9433 127.718ZM57.7406 119.247C54.9572 121.067 38.2443 131.339 30.9422 121.476C22.7665 110.433 36.9188 90.6534 39.16 87.659H59.8011L57.7406 119.247Z" fill="#371A45"/>
</g>
</g>
<g id="Group_13">
<g id="Group_14">
<path id="Vector_4" d="M72.6038 85.8696L74.5799 91.8944L92.2508 145.829C92.2508 145.829 112.428 144.28 117.29 135.719C119.019 132.676 119.14 124.79 118.23 116.114C117.037 104.715 114.049 91.9667 110.572 87.0866C105.174 79.5254 79.3938 84.0019 72.6038 85.8696Z" fill="white"/>
</g>
</g>
<g id="Group_15">
<g id="Group_16">
<path id="Vector_5" d="M74.5799 91.8944L92.2508 145.829C92.2508 145.829 112.428 144.28 117.29 135.719C119.019 132.676 119.14 124.79 118.23 116.114C115.248 117.259 109.879 118.133 108.741 112.825C107.03 104.866 103.752 94.1236 99.8903 89.0567C96.0283 83.9898 85.6897 85.5623 85.6897 85.5623L74.5799 91.8944Z" fill="#D8D8D8"/>
</g>
</g>
<g id="Group_17">
<g id="Group_18">
<path id="Vector_6" d="M92.2506 146.835C92.2747 146.835 92.3048 146.835 92.3289 146.835C93.1724 146.769 113.096 145.142 118.163 136.219C120.495 132.116 119.977 120.94 118.718 111.849C117.465 102.811 114.88 91.4065 111.385 86.5083C105.3 77.9771 77.55 83.4718 72.3385 84.9057C71.8023 85.0503 71.489 85.6046 71.6336 86.1408C71.7782 86.677 72.3325 86.9903 72.8687 86.8457C81.7975 84.3875 105.083 81.1402 109.747 87.6771C112.452 91.4727 115.193 101.07 116.723 112.126C118.224 122.971 118.103 132.255 116.41 135.225C111.867 143.22 92.365 144.811 92.1662 144.829C91.6119 144.871 91.2023 145.353 91.2444 145.907C91.2866 146.431 91.7264 146.835 92.2506 146.835Z" fill="#371A45"/>
</g>
</g>
<g id="Group_19">
<g id="Group_20">
<path id="Vector_7" d="M105.24 114.084C105.234 115.668 105.499 118.108 105.933 120.645C106.734 125.356 108.096 130.429 109.337 131.134C112.573 132.978 117.627 132.568 120.164 129.513C121.321 128.122 121.519 124.531 121.17 120.783C120.742 116.199 119.501 111.391 118.194 110.113C116.489 108.445 107.668 111.162 107.668 111.162C106.415 111.867 105.246 112.843 105.24 114.084Z" fill="white"/>
</g>
</g>
<g id="Group_21">
<g id="Group_22">
<path id="Vector_8" d="M105.933 120.645C106.734 125.356 108.096 130.429 109.337 131.134C112.573 132.978 117.627 132.568 120.164 129.513C121.321 128.122 121.519 124.531 121.17 120.783C120.863 122.868 119.977 126.001 117.362 126.447C111.831 127.393 110.675 118.584 110.675 118.584C110.675 118.584 108.753 126.7 105.933 120.645Z" fill="#D8D8D8"/>
</g>
</g>
<g id="Group_23">
<g id="Group_24">
<path id="Vector_9" d="M113.771 133.231C116.428 133.231 119.17 132.279 120.935 130.158C122.839 127.863 122.333 121.874 122.025 119.404C121.574 115.765 120.483 110.957 118.893 109.403C116.965 107.517 110.187 109.336 107.367 110.21L107.265 110.24L107.168 110.294C105.228 111.385 104.24 112.662 104.234 114.084C104.216 117.663 106.156 130.483 108.837 132.014C110.229 132.803 111.982 133.231 113.771 133.231ZM117.489 110.836C118.29 111.62 119.453 114.976 120.031 119.645C120.573 124.043 120.32 127.748 119.387 128.869C117.115 131.604 112.53 131.797 109.831 130.261C108.542 129.357 106.222 118.922 106.24 114.084C106.24 113.475 106.891 112.764 108.06 112.09C112.422 110.764 116.814 110.174 117.489 110.836Z" fill="#371A45"/>
</g>
</g>
<g id="Group_25">
<g id="Group_26">
<path id="Vector_10" d="M109.699 115.072C109.825 115.921 109.898 116.813 109.976 117.699C110.054 118.584 110.132 119.482 110.229 120.374C110.422 122.163 110.669 123.959 111.115 125.748C111.343 126.64 111.615 127.537 112.006 128.411C112.398 129.285 112.904 130.158 113.687 130.899C114.079 131.267 114.555 131.58 115.079 131.797C115.609 132.014 116.187 132.104 116.736 132.104C117.856 132.092 118.844 131.725 119.724 131.291C120.224 131.044 120.429 130.441 120.182 129.947C119.935 129.447 119.332 129.242 118.838 129.489C118.826 129.495 118.814 129.501 118.796 129.507L118.784 129.513C118.091 129.899 117.362 130.176 116.687 130.212C116.013 130.255 115.404 130.038 114.856 129.58C114.314 129.116 113.856 128.447 113.488 127.712C113.121 126.971 112.826 126.17 112.579 125.344C112.085 123.687 111.765 121.952 111.5 120.205C111.368 119.332 111.247 118.452 111.133 117.566C111.012 116.681 110.904 115.795 110.729 114.885C110.675 114.596 110.392 114.409 110.108 114.463C109.825 114.518 109.644 114.783 109.681 115.06L109.699 115.072Z" fill="#371A45"/>
</g>
</g>
<g id="Group_27">
<g id="Group_28">
<path id="Vector_11" d="M106.969 86.5866C105.56 86.7191 104.198 86.942 102.824 87.2071C101.457 87.4782 100.101 87.8036 98.7636 88.1892C98.4262 88.2796 98.0948 88.382 97.7574 88.4844L96.7573 88.7977C96.1006 89.0266 95.4318 89.2435 94.7812 89.5026C93.4677 89.9846 92.1845 90.569 90.9132 91.1775C90.4132 91.4185 90.1963 92.0149 90.4373 92.515C90.6782 93.0151 91.2747 93.232 91.7748 92.991C91.7928 92.9849 91.8109 92.9729 91.823 92.9669L91.8531 92.9488C93.0279 92.2981 94.2148 91.6655 95.4499 91.1233C96.0584 90.8341 96.691 90.5871 97.3116 90.328L98.2575 89.9665C98.5708 89.846 98.8901 89.7315 99.2094 89.6171C100.487 89.1652 101.782 88.7676 103.095 88.4241C104.403 88.0807 105.746 87.7795 107.06 87.5746L107.078 87.5686C107.349 87.5264 107.542 87.2674 107.5 86.9963C107.475 86.7492 107.234 86.5625 106.969 86.5866Z" fill="#371A45"/>
</g>
</g>
<g id="Group_29" opacity="0.35">
<g id="Group_30">
<g id="Group_31">
<g id="Group_32">
<path id="Vector_12" d="M20.1573 123.651C20.1573 123.651 20.1633 123.712 20.1091 123.82C20.1211 123.76 20.1392 123.7 20.1573 123.651Z" fill="black"/>
</g>
</g>
</g>
</g>
<g id="Group_33">
<g id="Group_34">
<path id="Vector_13" d="M1.10712 130.068C1.72165 137.328 5.22208 145.021 7.42114 149.239C8.44537 151.215 9.49972 152.107 12.8736 152.414C24.9414 153.516 35.9728 146.738 65.127 152.143C85.6837 155.956 62.9099 122.94 62.9099 122.94C62.9099 122.94 53.7642 116.464 40.2505 117.331C38.2924 117.458 36.25 117.735 34.1232 118.211C28.4538 119.482 23.393 122.675 19.8986 125.386C16.7476 115.415 6.01133 113.524 2.52296 120.627C1.15532 123.428 0.823952 126.7 1.10712 130.068Z" fill="white"/>
</g>
</g>
<g id="Group_35">
<g id="Group_36">
<path id="Vector_14" d="M1.10712 130.068C1.72165 137.328 5.22208 145.021 7.42114 149.239C8.44537 151.215 9.49972 152.107 12.8736 152.414C24.9414 153.516 35.9728 146.739 65.127 152.143C85.6837 155.957 62.9099 122.94 62.9099 122.94C62.9099 122.94 53.7642 116.464 40.2505 117.331C41.3229 123.38 43.6726 140.358 36.8886 142.973C25.3691 147.401 20.3986 127.477 20.3986 127.477C20.3986 127.477 23.4954 155.655 7.00544 135.279C4.72805 132.478 2.77599 130.827 1.10712 130.068Z" fill="#D8D8D8"/>
</g>
</g>
<g id="Group_37">
<g id="Group_38">
<path id="Vector_15" d="M15.6752 153.547C19.0491 153.547 22.429 153.065 26.2186 152.522C35.1293 151.251 46.2211 149.661 64.9523 153.137C69.3263 153.95 72.2905 153.215 73.7545 150.956C75.7608 147.859 74.6462 142.063 70.4349 133.719C67.3983 127.7 63.7774 122.428 63.7413 122.38L63.6389 122.236L63.4943 122.133C62.9882 121.778 50.9506 113.433 33.9123 117.247C28.5563 118.446 23.7605 121.314 20.3926 123.784C18.4225 118.976 14.4762 115.741 10.0299 115.403C6.37885 115.126 3.23991 116.922 1.63127 120.199C-2.79095 129.194 2.80612 142.545 6.5355 149.709C7.67419 151.896 8.95145 153.077 12.7893 153.426C13.7532 153.51 14.7112 153.547 15.6752 153.547ZM43.7449 149.022C36.5271 149.022 30.8939 149.829 25.9294 150.54C21.1879 151.215 17.097 151.799 12.97 151.426C9.84916 151.143 9.15629 150.402 8.31884 148.787C5.45704 143.292 -0.748528 129.598 3.43271 121.091C4.68587 118.536 7.03556 117.193 9.87928 117.41C12.9278 117.639 17.1332 119.952 18.9527 125.712L19.3865 127.085L20.5252 126.2C23.7364 123.7 28.743 120.464 34.3521 119.211C49.5407 115.813 60.8253 122.784 62.1989 123.681C66.1392 129.435 75.2969 144.895 72.0736 149.871C71.0916 151.384 68.8262 151.817 65.3258 151.173C56.7103 149.564 49.6914 149.022 43.7449 149.022Z" fill="#371A45"/>
</g>
</g>
<g id="Group_39">
<g id="Group_40">
<path id="Vector_16" d="M14.6568 152.149L12.765 152.263C10.5418 152.396 8.45122 151.215 7.42097 149.239C4.20371 143.063 -1.80305 129.435 2.52278 120.633C2.64931 120.374 2.78185 120.127 2.93248 119.892C2.93248 119.892 7.32458 115.385 11.0238 121.163C14.4761 126.561 22.459 150.04 14.6568 152.149Z" fill="#AFAFB2"/>
</g>
</g>
<g id="Group_41" opacity="0.7">
<g id="Group_42">
<g id="Group_43">
<g id="Group_44">
<path id="Vector_17" d="M12.97 125.043C12.8796 124.917 12.7892 124.79 12.6989 124.682C8.23445 118.952 2.77594 123.519 2.77594 123.519C2.5952 123.76 2.42048 124.013 2.26383 124.266C1.73967 125.121 1.33601 126.013 1.02874 126.947C1.12514 124.7 1.57701 122.549 2.51689 120.633C2.64341 120.374 2.77594 120.127 2.92656 119.892C2.92656 119.892 7.31867 115.385 11.0179 121.163C11.5843 122.037 12.259 123.386 12.97 125.043Z" fill="white"/>
</g>
</g>
</g>
</g>
<g id="Group_45">
<g id="Group_46">
<path id="Vector_18" d="M1.0467 127.712C1.119 127.712 1.19732 127.706 1.26961 127.688L12.765 125.049C13.3072 124.923 13.6446 124.386 13.5181 123.844C13.3916 123.302 12.8554 122.965 12.3131 123.091L0.817752 125.73C0.275517 125.856 -0.0618734 126.393 0.0646477 126.935C0.173095 127.399 0.588811 127.712 1.0467 127.712Z" fill="#371A45"/>
</g>
</g>
<g id="Group_47">
<g id="Group_48">
<path id="Vector_19" d="M1.49862 133.984C1.56489 133.984 1.62514 133.978 1.69141 133.966L15.1629 131.321C15.7052 131.213 16.0606 130.688 15.9522 130.14C15.8438 129.598 15.3196 129.242 14.7713 129.351L1.29979 131.996C0.75756 132.104 0.402103 132.628 0.51055 133.177C0.606948 133.653 1.02868 133.984 1.49862 133.984Z" fill="#371A45"/>
</g>
</g>
<g id="Group_49">
<g id="Group_50">
<path id="Vector_20" d="M3.06507 140.057C3.12532 140.057 3.18557 140.051 3.24582 140.039L16.9342 137.521C17.4825 137.418 17.838 136.894 17.7416 136.352C17.6391 135.803 17.115 135.442 16.5727 135.544L2.88433 138.063C2.33607 138.165 1.98061 138.689 2.07701 139.232C2.16738 139.72 2.58911 140.057 3.06507 140.057Z" fill="#371A45"/>
</g>
</g>
<g id="Group_51">
<g id="Group_52">
<path id="Vector_21" d="M14.6568 152.149L12.765 152.263C10.5418 152.396 8.45119 151.215 7.42094 149.239C6.58951 147.636 5.57132 145.54 4.58927 143.154C5.84243 144.973 8.22224 146.028 10.7527 145.877L13.006 145.738C16.181 144.991 17.1992 141.768 17.0004 137.635C18.5127 144.539 18.6091 151.082 14.6568 152.149Z" fill="#959596"/>
</g>
</g>
<g id="Group_53">
<g id="Group_54">
<path id="Vector_22" d="M5.656 146.624C5.7042 146.624 5.75842 146.618 5.80662 146.612L18.0672 144.756C18.6154 144.672 18.995 144.16 18.9106 143.612C18.8263 143.063 18.3142 142.684 17.7659 142.768L5.50538 144.624C4.95712 144.708 4.57755 145.22 4.6619 145.769C4.74022 146.269 5.16799 146.624 5.656 146.624Z" fill="#371A45"/>
</g>
</g>
<g id="Group_55">
<g id="Group_56">
<path id="Vector_23" d="M12.4276 153.275C12.5601 153.275 12.6927 153.269 12.8312 153.263L14.8254 153.143L14.9218 153.119C16.4763 152.697 17.5969 151.613 18.2656 149.883C21.0853 142.587 14.705 125.055 11.8673 120.621C10.5478 118.56 8.96931 117.422 7.17391 117.241C4.42056 116.958 2.29983 119.103 2.21548 119.193L2.13716 119.271L2.07691 119.368C1.91424 119.633 1.76362 119.91 1.62505 120.193C-2.79718 129.182 2.80591 142.539 6.53529 149.703C7.68 151.908 9.95739 153.275 12.4276 153.275ZM14.4881 151.155L12.7047 151.263C10.8792 151.372 9.15609 150.396 8.31261 148.781C5.45082 143.286 -0.754766 129.592 3.42647 121.085C3.52286 120.892 3.61927 120.711 3.72169 120.53C4.04703 120.235 5.42069 119.078 6.98112 119.247C8.13186 119.368 9.20428 120.199 10.1743 121.711C13.1325 126.332 18.7717 143.009 16.3919 149.166C15.9762 150.233 15.3556 150.89 14.4881 151.155Z" fill="#371A45"/>
</g>
</g>
<g id="Group_57">
<g id="Group_58">
<path id="Vector_24" d="M12.4276 153.275C12.5601 153.275 12.6927 153.269 12.8312 153.263L14.8254 153.143L14.9218 153.119C16.4763 152.697 17.5969 151.613 18.2656 149.883C21.0853 142.587 14.705 125.055 11.8673 120.621C10.5478 118.56 8.96931 117.422 7.17391 117.241C4.42056 116.958 2.29983 119.103 2.21548 119.193L2.13716 119.271L2.07691 119.368C1.91424 119.633 1.76362 119.91 1.62505 120.193C-2.79718 129.182 2.80591 142.539 6.53529 149.703C7.68 151.908 9.95739 153.275 12.4276 153.275ZM14.4881 151.155L12.7047 151.263C10.8792 151.372 9.15609 150.396 8.31261 148.781C5.45082 143.286 -0.754766 129.592 3.42647 121.085C3.52286 120.892 3.61927 120.711 3.72169 120.53C4.04703 120.235 5.42069 119.078 6.98112 119.247C8.13186 119.368 9.20428 120.199 10.1743 121.711C13.1325 126.332 18.7717 143.009 16.3919 149.166C15.9762 150.233 15.3556 150.89 14.4881 151.155Z" fill="#371A45"/>
</g>
</g>
<g id="Group_59">
<g id="Group_60">
<path id="Vector_25" d="M13.4338 153.306C13.9579 153.306 14.458 153.245 14.9159 153.119C15.4521 152.974 15.7714 152.426 15.6268 151.89C15.4822 151.354 14.934 151.034 14.3978 151.179C13.9579 151.299 13.4458 151.323 12.8735 151.263C12.3192 151.203 11.8252 151.601 11.7649 152.155C11.7047 152.709 12.1023 153.203 12.6566 153.263C12.9217 153.294 13.1868 153.306 13.4338 153.306Z" fill="#371A45"/>
</g>
</g>
<g id="Group_61">
<g id="Group_62">
<path id="Vector_26" d="M46.5404 127.712L46.6307 139.25C52.2097 153.396 59.1925 146.992 73.9533 153.998C74.6884 154.348 75.4475 154.727 76.2247 155.149C87.0875 161.035 97.9021 150.558 101.854 145.274C104.541 139.924 105.981 134.454 106.078 129.381C106.12 127.477 105.963 125.627 105.62 123.862C104.903 120.223 103.927 115.464 102.529 110.306C101.396 106.119 99.9866 101.679 98.2214 97.3529C95.9199 91.7257 93.9739 87.5987 92.2809 84.4537C86.9851 74.6031 84.2197 74.3682 81.1892 67.6505C72.1941 47.7264 40.5035 53.5765 48.7936 79.4652C49.7636 87.3035 49.848 94.0212 49.5287 99.9074C48.9382 110.806 46.9561 118.874 46.5886 126.007C46.5645 126.579 46.5464 127.146 46.5404 127.712Z" fill="white"/>
</g>
</g>
<g id="Group_63">
<g id="Group_64">
<path id="Vector_27" d="M46.5403 127.712L46.6306 139.25C52.2096 153.396 59.1924 146.992 73.9533 153.998L81.1047 122.754L46.5945 126.007C46.5644 126.579 46.5463 127.146 46.5403 127.712Z" fill="#D8D8D8"/>
</g>
</g>
<g id="Group_65">
<g id="Group_66">
<path id="Vector_28" d="M86.4128 133.14C86.4128 133.339 97.7575 131.074 106.084 129.381C106.126 127.477 105.969 125.627 105.626 123.862C104.909 120.223 103.933 115.464 102.535 110.306C100.541 111.138 98.7215 112.276 97.7033 111.397C96.1971 110.101 94.8114 95.6419 92.9979 107.324C91.1001 119.56 86.4128 132.833 86.4128 133.14Z" fill="#D8D8D8"/>
</g>
</g>
<g id="Group_67">
<g id="Group_68">
<path id="Vector_29" d="M48.7996 79.4652C49.7696 87.3035 49.854 94.0212 49.5347 99.9074C53.4628 101.185 57.5597 101.781 61.4699 101.51C70.9831 100.841 75.2366 96.3648 81.3578 91.5751C85.0089 88.7253 89.4492 87.5144 92.2869 84.4537C86.991 74.6031 84.2256 74.3682 81.1952 67.6505C72.2001 47.7264 40.5034 53.5765 48.7996 79.4652Z" fill="#D8D8D8"/>
</g>
</g>
<g id="Group_69">
<g id="Group_70">
<path id="Vector_30" d="M47.5404 127.724C47.5705 125.754 47.7392 123.772 47.9742 121.79C48.2031 119.801 48.4983 117.813 48.7875 115.813C49.3719 111.819 49.9322 107.788 50.2756 103.733C50.6251 99.6785 50.7637 95.5997 50.6853 91.5269C50.6432 89.4905 50.5407 87.4541 50.3961 85.4237C50.2515 83.3934 50.0407 81.369 49.7997 79.3447L49.7876 79.2543L49.7575 79.1579C48.902 76.4648 48.3718 73.6633 48.4441 70.8858C48.5104 68.1204 49.2273 65.3851 50.7034 63.1077C52.1735 60.8243 54.3725 59.053 56.8969 57.9987C59.4213 56.9323 62.241 56.5708 64.9883 56.8359C67.7416 57.0889 70.4287 58.0047 72.7904 59.4447C75.1522 60.8906 77.1765 62.8668 78.6948 65.1923C78.8936 65.4755 79.0683 65.7768 79.243 66.078C79.4298 66.3732 79.5804 66.6865 79.7491 66.9938C79.9178 67.301 80.0564 67.6204 80.207 67.9336L80.683 68.9458C81.0204 69.6206 81.3698 70.2954 81.7614 70.9461C82.153 71.5967 82.5687 72.2354 83.0146 72.8499C83.9002 74.0729 84.8582 75.1996 85.7559 76.3262C86.6596 77.4529 87.5091 78.5916 88.3104 79.7785C89.907 82.1462 91.2987 84.6766 92.6001 87.2553C93.8894 89.8399 95.0823 92.4848 96.215 95.1538C97.3537 97.8349 98.4201 100.504 99.3419 103.245C100.27 105.986 101.083 108.764 101.824 111.565C102.565 114.367 103.216 117.193 103.818 120.036C104.114 121.452 104.403 122.892 104.674 124.302C104.927 125.676 105.053 127.079 105.065 128.483C105.096 131.297 104.692 134.122 103.969 136.864C103.246 139.605 102.204 142.274 100.92 144.817L101.017 144.66C99.4322 146.75 97.5706 148.684 95.5523 150.383C93.5279 152.076 91.3168 153.54 88.931 154.541C86.5572 155.541 83.9906 156.041 81.4963 155.746C80.2492 155.601 79.0322 155.27 77.8754 154.764C77.291 154.51 76.7608 154.227 76.1222 153.884C75.5076 153.559 74.8811 153.251 74.2545 152.956C71.7361 151.763 69.0852 150.829 66.38 150.148C65.0305 149.811 63.6688 149.534 62.3133 149.287C60.9577 149.04 59.6141 148.835 58.3128 148.576C57.0054 148.317 55.7462 148.004 54.5954 147.516C53.4387 147.034 52.4084 146.353 51.5168 145.485C50.6251 144.624 49.8419 143.606 49.1309 142.509C48.42 141.412 47.7753 140.25 47.0945 139.069V139.063C46.956 138.822 46.6427 138.737 46.4017 138.876C46.2029 138.991 46.1125 139.219 46.1607 139.436C46.486 140.792 46.968 142.111 47.6066 143.383C48.2453 144.648 49.0586 145.871 50.1069 146.919C50.6311 147.437 51.2155 147.913 51.8301 148.329C52.4506 148.745 53.1133 149.094 53.7881 149.389C55.1437 149.974 56.5354 150.317 57.8971 150.6C59.2647 150.877 60.6082 151.1 61.9277 151.347C63.2531 151.594 64.5605 151.872 65.8438 152.203C68.4224 152.866 70.9167 153.781 73.3206 154.908C73.9231 155.191 74.5196 155.487 75.11 155.794C75.6763 156.095 76.3451 156.456 77.0078 156.74C78.3453 157.318 79.7792 157.716 81.2433 157.878C82.7013 158.047 84.1834 157.987 85.6173 157.74C87.0512 157.493 88.4369 157.065 89.7564 156.511C92.3952 155.396 94.763 153.8 96.9078 151.998C99.0467 150.185 100.987 148.16 102.68 145.907L102.734 145.835L102.776 145.75C104.108 143.081 105.198 140.28 105.951 137.376C106.704 134.478 107.126 131.472 107.084 128.447C107.06 126.935 106.921 125.423 106.644 123.922C106.361 122.464 106.066 121.049 105.77 119.609C105.162 116.741 104.505 113.879 103.752 111.041C103.005 108.204 102.174 105.378 101.228 102.588L100.499 100.504C100.24 99.817 99.9926 99.1182 99.7214 98.4374C99.1852 97.0577 98.6249 95.7081 98.0526 94.3585C96.9078 91.6594 95.6969 88.9784 94.3834 86.3455C93.058 83.7127 91.6301 81.116 89.9672 78.6458C89.1358 77.4107 88.2441 76.2118 87.3163 75.061C86.3945 73.9042 85.4607 72.8077 84.6353 71.663C83.8099 70.5243 83.105 69.3254 82.4844 68.0602L82.0265 67.0902C81.8578 66.7468 81.7072 66.3973 81.5204 66.0659C81.3397 65.7286 81.171 65.3912 80.9661 65.0658C80.7733 64.7345 80.5745 64.4091 80.3636 64.0898C78.6948 61.5292 76.4475 59.3302 73.8267 57.7276C71.2059 56.131 68.2296 55.1188 65.169 54.8357C62.1144 54.5465 58.9695 54.9381 56.1077 56.1491C55.3968 56.4503 54.6918 56.7937 54.0291 57.1974C53.6917 57.3902 53.3724 57.6131 53.0471 57.83C52.7338 58.065 52.4145 58.2879 52.1192 58.5409C50.9082 59.523 49.8599 60.7099 49.0044 62.0233C47.2994 64.6561 46.4981 67.783 46.4258 70.8376C46.3474 73.9043 46.9258 76.9167 47.8356 79.7785L47.7934 79.5977C48.0284 81.5859 48.2393 83.5801 48.3778 85.5744C48.5164 87.5686 48.6188 89.5688 48.661 91.5691C48.7393 95.5696 48.6007 99.5761 48.2573 103.564C47.9199 107.559 47.3657 111.535 46.7812 115.53C46.4921 117.53 46.1968 119.536 45.9619 121.561C45.7209 123.585 45.5462 125.633 45.516 127.706C45.504 128.26 45.9498 128.718 46.5041 128.73C47.0584 128.742 47.5163 128.296 47.5223 127.742L47.5404 127.724Z" fill="#371A45"/>
</g>
</g>
<g id="Group_71">
<g id="Group_72">
<path id="Vector_31" d="M21.6157 134.351C21.6157 134.351 20.9711 129.519 19.9047 125.398L21.6157 134.351Z" fill="white"/>
</g>
</g>
<g id="Group_73">
<g id="Group_74">
<path id="Vector_32" d="M22.1096 134.285C21.9831 132.755 21.8144 131.237 21.6156 129.712C21.4167 128.188 21.1758 126.67 20.8745 125.145C20.7661 124.603 20.2359 124.248 19.6936 124.356C19.1514 124.465 18.7959 124.995 18.9044 125.537C18.9104 125.573 18.9225 125.609 18.9285 125.646V125.652C19.3803 127.073 19.772 128.525 20.1335 129.995C20.4889 131.459 20.8203 132.942 21.1095 134.424V134.43C21.1637 134.701 21.4288 134.882 21.6999 134.827C21.959 134.773 22.1337 134.538 22.1096 134.285Z" fill="#371A45"/>
</g>
</g>
<g id="Group_75">
<g id="Group_76">
<path id="Vector_33" d="M33.4725 151.582C33.828 151.582 34.1774 151.39 34.3582 151.052C34.4365 150.908 36.2439 147.492 36.6114 141.846C36.9488 136.683 36.0933 128.568 30.0926 119.265C29.7913 118.801 29.1708 118.663 28.7069 118.964C28.243 119.265 28.1044 119.886 28.4056 120.35C34.081 129.146 34.9124 136.761 34.6172 141.599C34.2919 146.847 32.611 150.064 32.5929 150.1C32.3338 150.588 32.5146 151.197 33.0026 151.462C33.1532 151.54 33.3159 151.582 33.4725 151.582Z" fill="#371A45"/>
</g>
</g>
<g id="Group_77">
<g id="Group_78">
<path id="Vector_34" d="M13.512 57.9626C15.3255 65.5057 19.0549 72.633 24.6038 78.5976C25.7364 79.8146 26.9414 80.9774 28.2187 82.086C28.8392 82.6282 29.4839 83.1524 30.1466 83.6766C32.1408 85.231 34.2254 86.5986 36.3763 87.7855C38.2259 88.8097 40.1358 89.7014 42.0758 90.4545C44.4134 91.3703 46.8113 92.0812 49.2272 92.6114C50.1129 92.7981 50.9986 92.9669 51.8842 93.1054C68.1392 95.666 85.2618 89.7315 96.1667 76.1094C112.241 56.0467 108.735 26.9046 88.3525 11.0171C84.4243 7.96249 80.1527 5.60678 75.7064 3.96802C75.1883 3.7692 74.6641 3.58846 74.1339 3.41976C72.7241 2.94983 71.2962 2.55219 69.8623 2.22082C66.5426 1.45567 63.1567 1.05803 59.7888 1.02188C56.4209 0.979708 53.053 1.293 49.7574 1.95573C48.7091 2.1666 47.6668 2.40759 46.6366 2.69076C45.0882 3.1125 43.5579 3.61256 42.0517 4.19094C34.5387 7.07081 27.6885 11.9027 22.3384 18.5903C13.0843 30.1218 10.3189 44.6658 13.512 57.9626Z" fill="white"/>
</g>
</g>
<g id="Group_79">
<g id="Group_80">
<path id="Vector_35" d="M59.3069 93.7862C73.5858 93.7862 87.2682 87.3879 96.2512 76.1696C104.011 66.4817 107.494 54.3899 106.054 42.1113C104.602 29.7363 98.3418 18.6626 88.4189 10.9328C84.545 7.92035 80.2854 5.54054 75.7427 3.86564C75.2547 3.67887 74.7245 3.49209 74.1642 3.31135C72.7604 2.84744 71.3205 2.44377 69.8805 2.11241C66.5849 1.35328 63.1869 0.949614 59.7829 0.907441C56.415 0.865267 53.0291 1.17856 49.7275 1.84129C48.6671 2.05216 47.6127 2.3052 46.6006 2.57632C45.0221 3.01011 43.4737 3.51619 42.0036 4.08253C34.2557 7.05277 27.4235 12.0474 22.2482 18.512C13.2893 29.6881 10.072 44.0754 13.4098 57.9807C15.2594 65.6864 19.1032 72.8379 24.5256 78.6579C25.6763 79.893 26.8933 81.0678 28.1525 82.1523C28.7309 82.6524 29.3575 83.1765 30.0805 83.7429C32.0566 85.2792 34.1533 86.6649 36.3282 87.8638C38.1477 88.87 40.0636 89.7737 42.0398 90.5389C44.3473 91.4366 46.7572 92.1656 49.2093 92.6958C50.089 92.8825 50.9806 93.0512 51.8723 93.1898C54.3485 93.5995 56.8368 93.7862 59.3069 93.7862ZM59.1623 1.11229C59.3732 1.11229 59.5781 1.11228 59.7889 1.11831C63.1749 1.16048 66.5608 1.56415 69.8383 2.31725C71.2723 2.64862 72.7062 3.05228 74.1039 3.51619C74.6582 3.69694 75.1824 3.87768 75.6704 4.06445C80.189 5.73333 84.4365 8.10109 88.2924 11.1015C98.1731 18.8012 104.409 29.8206 105.849 42.1414C107.283 54.3658 103.818 66.4034 96.0885 76.0491C85.5993 89.1471 68.6635 95.6479 51.8964 93.009C51.0107 92.8705 50.1191 92.7018 49.2455 92.515C46.8054 91.9848 44.4015 91.2618 42.106 90.3642C40.142 89.599 38.2321 88.7013 36.4246 87.7012C34.2617 86.5082 32.1711 85.1286 30.207 83.5983C29.49 83.0319 28.8574 82.5138 28.2851 82.0137C27.0379 80.9293 25.8209 79.7604 24.6762 78.5314C19.278 72.7355 15.4522 65.6202 13.6086 57.9445C10.2829 44.0995 13.4941 29.7784 22.4109 18.6506C27.5681 12.21 34.3702 7.24556 42.082 4.28135C43.546 3.71501 45.0823 3.20893 46.6608 2.78117C47.673 2.50402 48.7213 2.257 49.7757 2.04614C52.8604 1.42558 56.0114 1.11229 59.1623 1.11229Z" fill="#371A45"/>
</g>
</g>
<g id="Group_81">
<g id="Group_82">
<path id="Vector_36" d="M96.173 76.1094C85.2681 89.7315 68.1395 95.666 51.8845 93.1054C50.9989 92.9669 50.1132 92.7981 49.2276 92.6114C46.8056 92.0872 44.4137 91.3703 42.0761 90.4605C40.1361 89.7014 38.2323 88.8157 36.3766 87.7915C34.2257 86.6046 32.1412 85.237 30.1409 83.6826C29.4842 83.1584 28.8395 82.6343 28.213 82.092C26.9357 80.9835 25.7307 79.8146 24.5981 78.5976C19.0432 72.6391 15.3138 65.5057 13.5063 57.9626C12.5122 53.8175 12.0965 49.5519 12.2712 45.2984C14.163 52.4559 17.802 59.2037 23.1039 64.8911C24.2366 66.1081 25.4415 67.2709 26.7188 68.3795C27.3394 68.9217 27.984 69.4459 28.6467 69.9701C30.647 71.5245 32.7255 72.8921 34.8764 74.079C36.7321 75.1032 38.6359 75.9949 40.5699 76.748C42.9075 77.6577 45.3054 78.3747 47.7213 78.9049C48.607 79.0917 49.4927 79.2604 50.3783 79.3989C66.6333 81.9595 83.7559 76.025 94.6668 62.4029C101.035 54.4561 104.325 45.0875 104.716 35.6827C108.325 49.2627 105.662 64.2706 96.173 76.1094Z" fill="#D8D8D8"/>
</g>
</g>
<g id="Group_83">
<g id="Group_84">
<path id="Vector_37" d="M59.3072 94.467C73.7909 94.467 87.6661 87.9783 96.7816 76.5974C104.656 66.7709 108.187 54.4983 106.729 42.039C105.259 29.4832 98.9024 18.2469 88.8349 10.4086C84.9067 7.354 80.5809 4.94407 75.9779 3.23904C75.4839 3.05227 74.9416 2.85948 74.3753 2.67873C72.9595 2.2088 71.4954 1.79911 70.0374 1.46172C66.6936 0.690537 63.2474 0.28085 59.8012 0.238676C56.3851 0.196502 52.957 0.509794 49.6072 1.18458C48.5288 1.40147 47.4624 1.65451 46.4321 1.93165C44.8295 2.37146 43.2631 2.88358 41.7689 3.46196C33.9125 6.47438 26.9779 11.5413 21.7243 18.0963C12.6388 29.441 9.36735 44.0392 12.7533 58.1433C14.6331 65.9636 18.5311 73.2175 24.0318 79.1218C25.2006 80.375 26.4357 81.5679 27.7069 82.6704C28.2914 83.1765 28.93 83.7067 29.659 84.2851C31.6653 85.8455 33.792 87.2493 35.9971 88.4663C37.8407 89.4845 39.7867 90.4003 41.787 91.1835C44.1246 92.0993 46.5707 92.8343 49.059 93.3766C49.9506 93.5694 50.8604 93.738 51.7581 93.8826C54.2765 94.2743 56.8009 94.467 59.3072 94.467ZM59.1626 1.79308C59.3674 1.79308 59.5723 1.79308 59.7771 1.79911C63.1149 1.84128 66.4526 2.23892 69.688 2.97997C71.0978 3.30532 72.5136 3.70295 73.8933 4.16084C74.4416 4.33556 74.9597 4.52233 75.4357 4.70307C79.894 6.34785 84.0813 8.68549 87.883 11.6437C97.6191 19.2289 103.758 30.0917 105.186 42.2318C106.596 54.2694 103.186 66.1323 95.5707 75.6334C85.232 88.5446 68.5433 94.949 52.0111 92.3463C51.1375 92.2077 50.2579 92.0451 49.3963 91.8583C46.9924 91.3341 44.6247 90.6232 42.3654 89.7376C40.4314 88.9845 38.5456 88.0988 36.7623 87.1107C34.6295 85.9359 32.569 84.5743 30.629 83.0681C29.9241 82.5138 29.3035 82.0017 28.7372 81.5076C27.5021 80.4412 26.3092 79.2845 25.1765 78.0735C19.8566 72.368 16.085 65.349 14.2716 57.7879C10.9941 44.1477 14.1571 30.0375 22.9413 19.0783C28.0202 12.7342 34.7259 7.83599 42.3292 4.91997C43.7691 4.35966 45.2874 3.86563 46.8418 3.44389C47.8359 3.17277 48.8722 2.93178 49.9145 2.72091C52.951 2.10035 56.0598 1.79308 59.1626 1.79308Z" fill="#371A45"/>
</g>
</g>
<g id="Group_85">
<g id="Group_86">
<path id="Vector_38" d="M59.3068 94.6899C73.8568 94.6899 87.8043 88.1711 96.956 76.7359C104.867 66.8613 108.415 54.5284 106.951 42.0088C105.475 29.3928 99.0888 18.1023 88.9731 10.2218C85.0268 7.14914 80.6829 4.72716 76.0558 3.02213C75.5618 2.83536 75.0135 2.64257 74.4472 2.4558C73.0253 1.98586 71.5553 1.57015 70.0912 1.23276C66.7294 0.46158 63.2711 0.0458652 59.8069 0.00369141C56.3727 -0.0384824 52.9265 0.280833 49.5646 0.955614C48.4862 1.17251 47.4078 1.42555 46.3775 1.70872C44.7689 2.14853 43.1904 2.66667 41.6962 3.24505C33.8037 6.27554 26.839 11.3605 21.5612 17.9517C12.4276 29.3506 9.14406 44.0151 12.5481 58.1975C14.4339 66.0539 18.356 73.344 23.8808 79.2784C25.0556 80.5376 26.2967 81.7305 27.574 82.8391C28.1584 83.3512 28.8031 83.8814 29.5381 84.4598C31.5504 86.0262 33.6952 87.4421 35.9064 88.6591C37.756 89.6833 39.7141 90.6051 41.7203 91.3883C44.07 92.3041 46.5281 93.0452 49.0224 93.5874C49.9201 93.7802 50.8299 93.9489 51.7336 94.0935C54.258 94.4972 56.7884 94.6899 59.3068 94.6899ZM59.1622 2.01599C59.3671 2.01599 59.5719 2.01599 59.7767 2.02201C63.1024 2.06418 66.4161 2.4558 69.6394 3.19685C71.0432 3.52219 72.453 3.91381 73.8206 4.37169C74.3689 4.54641 74.881 4.72716 75.3509 4.90791C79.7912 6.54666 83.9544 8.87224 87.738 11.8124C97.4259 19.3615 103.535 30.17 104.951 42.2438C106.355 54.2212 102.957 66.0298 95.3835 75.4828C85.0931 88.3277 68.4887 94.702 52.0409 92.1173C51.1733 91.9788 50.2997 91.8161 49.4381 91.6293C47.0463 91.1112 44.6906 90.4003 42.4433 89.5206C40.5154 88.7675 38.6416 87.8879 36.8703 86.9059C34.7496 85.737 32.6951 84.3815 30.7672 82.8813C30.0623 82.327 29.4477 81.8209 28.8874 81.3269C27.6584 80.2605 26.4715 79.1158 25.3448 77.9108C20.055 72.2294 16.3015 65.2526 14.4941 57.7276C11.2347 44.1597 14.3796 30.1218 23.1217 19.2109C28.1765 12.8968 34.846 8.02274 42.4132 5.1248C43.8471 4.57051 45.3593 4.07648 46.9017 3.65474C47.8897 3.38362 48.92 3.14263 49.9563 2.93176C52.9807 2.32325 56.0715 2.01599 59.1622 2.01599Z" fill="#371A45"/>
</g>
</g>
<g id="Group_87">
<g id="Group_88">
<path id="Vector_39" d="M17.7717 69.0844C39.3406 94.5213 79.0864 91.1835 89.66 60.1074C96.8536 38.9663 81.3879 15.6502 60.3251 10.1013C44.9979 6.05867 28.2549 8.72164 15.4401 30.4412C15.4401 30.4412 11.2769 40.9244 12.277 48.9133C13.2771 56.9022 15.6208 64.5116 15.6208 64.5116L17.7717 69.0844Z" fill="#371A45"/>
</g>
</g>
<g id="Group_89">
<g id="Group_90">
<path id="Vector_40" d="M89.6538 60.1014C79.0863 91.1775 39.3344 94.5152 17.7655 69.0844L17.3318 68.1566C45.1785 81.1521 79.0622 71.7233 90.3407 40.4966C91.9373 46.8468 91.871 53.5765 89.6538 60.1014Z" fill="#220F2D"/>
</g>
</g>
<g id="Group_91">
<g id="Group_92">
<path id="Vector_41" d="M53.3966 91.804C60.3433 91.804 67.1393 90.334 73.2244 87.4119C83.7196 82.3752 91.3471 73.5789 95.2933 61.9871C98.9142 51.3352 97.7394 39.5627 91.9797 28.8325C85.5813 16.9093 74.2305 7.8058 61.6266 4.4801C54.6197 2.63047 47.9743 2.19669 41.8832 3.19078L41.7808 3.20886L41.6844 3.245C33.7858 6.2755 26.8211 11.3605 21.5433 17.9516C12.4097 29.3506 9.12617 44.015 12.5302 58.1975C14.416 66.0539 18.3381 73.3439 23.8629 79.2784C25.0378 80.5376 26.2789 81.7305 27.5561 82.8391C28.1405 83.3512 28.7852 83.8814 29.5202 84.4597C31.5325 86.0262 33.6774 87.442 35.8885 88.659L36.0331 88.7253C41.7085 90.7858 47.6068 91.804 53.3966 91.804ZM48.4563 4.68494C52.4869 4.68494 56.7223 5.26333 61.1205 6.42612C73.2003 9.61326 84.0751 18.3432 90.2204 29.7844C95.7151 40.0206 96.8417 51.2268 93.4015 61.3425C89.636 72.4161 82.358 80.8087 72.3628 85.6045C61.7109 90.7195 48.7515 91.1774 36.7982 86.8697C34.7016 85.7129 32.6772 84.3694 30.7674 82.8873C30.0625 82.333 29.4479 81.8269 28.8876 81.3328C27.6586 80.2665 26.4717 79.1217 25.345 77.9168C20.0552 72.2354 16.3017 65.2586 14.4943 57.7336C11.2349 44.1657 14.3798 30.1278 23.1219 19.2168C28.1586 12.9329 34.792 8.0709 42.317 5.16693C44.2991 4.84159 46.3476 4.68494 48.4563 4.68494Z" fill="#371A45"/>
</g>
</g>
<g id="Group_93">
<g id="Group_94">
<path id="Vector_42" d="M110.319 63.5356C108.451 72.4824 101.523 78.8868 94.8474 77.8385C88.1659 76.7902 84.2678 68.6808 86.1295 59.7339C86.1415 59.6797 86.1536 59.6194 86.1656 59.5652C88.0815 50.7027 94.9679 44.3887 101.601 45.431C106.765 46.2443 110.265 51.263 110.729 57.6312C110.873 59.511 110.747 61.5052 110.319 63.5356Z" fill="white"/>
</g>
</g>
<g id="Group_95">
<g id="Group_96">
<path id="Vector_43" d="M110.319 63.5355C108.451 72.4824 101.523 78.8868 94.8474 77.8385C88.1659 76.7902 84.2678 68.6808 86.1295 59.7339C86.1415 59.6797 86.1536 59.6194 86.1656 59.5652C86.7078 60.6015 87.6658 61.6859 89.2744 61.6197C92.1001 61.5112 98.1671 56.5226 98.1671 56.5226C98.1671 56.5226 103.62 56.9685 110.729 57.6312C110.873 59.511 110.747 61.5052 110.319 63.5355Z" fill="#D8D8D8"/>
</g>
</g>
<g id="Group_97">
<g id="Group_98">
<path id="Vector_44" d="M96.2753 78.9592C102.945 78.9592 109.482 72.5066 111.307 63.7465C112.446 58.288 111.59 52.9681 108.958 49.1604C107.138 46.5275 104.65 44.8948 101.764 44.4429C94.5763 43.3103 87.1175 50.0822 85.1474 59.5351C84.0087 64.9936 84.8642 70.3136 87.4971 74.1213C89.3166 76.7541 91.8049 78.3868 94.6907 78.8387C95.2209 78.917 95.7511 78.9592 96.2753 78.9592ZM100.149 46.3227C100.583 46.3227 101.017 46.3528 101.451 46.4251C103.782 46.7926 105.807 48.1301 107.307 50.3051C109.59 53.6127 110.355 58.4868 109.343 63.3368C107.59 71.7535 101.155 77.8205 95.0101 76.8505C92.6785 76.483 90.6541 75.1455 89.1539 72.9765C86.8705 69.6689 86.1054 64.7948 87.1175 59.9448C88.7503 52.1125 94.4196 46.3227 100.149 46.3227Z" fill="#371A45"/>
</g>
</g>
<g id="Group_99">
<g id="Group_100">
<path id="Vector_45" d="M109.771 70.2291C106.192 76.4046 99.7216 78.5253 95.3234 74.9586C90.9193 71.3979 90.2565 63.5054 93.8353 57.33C97.414 51.1545 103.885 49.0338 108.283 52.6005C112.681 56.1611 113.35 64.0537 109.771 70.2291Z" fill="white"/>
</g>
</g>
<g id="Group_101">
<g id="Group_102">
<path id="Vector_46" d="M100.143 76.7962C100.649 76.7962 101.168 76.748 101.692 76.6516C104.879 76.0612 107.855 73.7416 109.861 70.2834C113.458 64.0778 112.777 56.1069 108.343 52.5161C106.499 51.028 104.276 50.4677 101.909 50.9075C98.7214 51.4979 95.7452 53.8175 93.7389 57.2757C90.1421 63.4813 90.8229 71.4522 95.2572 75.043C96.6911 76.1997 98.3599 76.7962 100.143 76.7962ZM109.681 70.1749C107.704 73.5789 104.782 75.8684 101.656 76.4468C99.348 76.8745 97.1851 76.3323 95.3897 74.8803C91.0337 71.3558 90.377 63.5054 93.9257 57.3842C95.9018 53.9741 98.8239 51.6907 101.951 51.1123C104.258 50.6846 106.421 51.2268 108.217 52.6788C112.573 56.2033 113.229 64.0537 109.681 70.1749Z" fill="#371A45"/>
</g>
</g>
<g id="Group_103">
<g id="Group_104">
<path id="Vector_47" d="M91.4555 67.3492C91.347 64.861 91.9254 62.3306 93.0039 60.0712C93.7389 65.7286 98.1671 68.8795 103.306 67.1866C106.626 66.0961 109.488 63.2283 111.151 59.7218C111.199 60.0773 111.229 60.4508 111.247 60.8243C111.524 67.1625 107.319 73.7657 101.854 75.5611C96.3898 77.3685 91.7326 73.6813 91.4555 67.3492Z" fill="#D8D8D8"/>
</g>
</g>
<g id="Group_105">
<g id="Group_106">
<path id="Vector_48" d="M100.059 77.73C105.276 77.73 110.5 72.3077 112.054 65.0297C113.036 60.4086 112.355 55.8177 110.235 52.7571C108.867 50.787 107.017 49.582 104.885 49.2627C99.3237 48.4313 93.4556 54.0946 91.7987 61.8847C90.8167 66.5058 91.4975 71.0967 93.6182 74.1573C94.9859 76.1274 96.8355 77.3324 98.9683 77.6517C99.3298 77.6999 99.6973 77.73 100.059 77.73ZM103.746 51.1846C104.023 51.1846 104.306 51.2027 104.583 51.2449C106.156 51.4799 107.536 52.3956 108.578 53.8958C110.391 56.5106 110.958 60.5171 110.084 64.608C108.735 70.9642 104.373 75.7177 100.095 75.7238C99.8178 75.7238 99.5346 75.7057 99.2575 75.6635C97.685 75.4286 96.3053 74.5128 95.263 73.0126C93.4495 70.3978 92.8832 66.3913 93.7568 62.3004C95.1124 55.9443 99.4744 51.1846 103.746 51.1846Z" fill="#371A45"/>
</g>
</g>
<g id="Group_107" opacity="0.5">
<g id="Group_108">
<g id="Group_109">
<g id="Group_110">
<path id="Vector_49" d="M67.838 23.6632C67.838 23.6632 48.5826 19.8616 35.2798 27.8505C35.2677 27.8565 35.2496 27.8686 35.2376 27.8746C32.4361 29.5615 30.1526 31.9594 28.6043 34.8092C26.5558 38.5747 25.7063 41.4726 25.0617 44.0452C23.0915 51.8775 23.6579 55.9202 23.6579 55.9202C20.1755 50.6665 18.8079 45.3406 20.3804 38.7976C20.537 38.1529 20.7238 37.4962 20.9347 36.8215C20.9828 36.6648 21.0371 36.5142 21.0913 36.3636C21.0853 36.3636 21.0913 36.3575 21.0973 36.3575C21.6275 35.0321 22.3866 33.309 23.4048 31.4413C26.4835 25.8081 31.9239 18.8072 40.5093 17.048C56.5535 13.7705 68.6995 23.0065 67.838 23.6632Z" fill="white"/>
</g>
</g>
</g>
</g>
<g id="Group_111">
<g id="Group_112">
<path id="Vector_50" d="M29.8877 96.5215C31.5023 99.9978 42.5157 99.5219 42.5157 99.5219C42.5157 99.5219 43.5158 102.155 46.0342 102.595C48.0284 102.944 50.7878 101.335 51.571 97.9976C51.8181 96.9493 51.8663 95.7262 51.6313 94.3405C50.6553 88.5506 37.0753 88.2675 33.4845 88.876C31.1529 89.2736 29.8937 91.4245 29.5864 93.497C29.4117 94.6237 29.5201 95.7262 29.8877 96.5215Z" fill="white"/>
</g>
</g>
<g id="Group_113">
<g id="Group_114">
<path id="Vector_51" d="M29.8877 96.5215C31.5023 99.9978 42.5157 99.5219 42.5157 99.5219C42.5157 99.5219 43.5158 102.155 46.0342 102.595C48.0284 102.944 50.7878 101.335 51.571 97.9976C50.7999 98.6121 49.5648 99.2026 47.7874 98.9013C44.7027 98.3711 43.7147 95.6539 43.7147 95.6539C43.7147 95.6539 32.0506 97.5939 29.5804 93.5091C29.4117 94.6237 29.5201 95.7262 29.8877 96.5215Z" fill="#D8D8D8"/>
</g>
</g>
<g id="Group_115">
<g id="Group_116">
<path id="Vector_52" d="M46.5765 103.643C47.9501 103.643 49.4202 102.998 50.5589 101.872C51.6313 100.805 53.3303 98.3832 52.6194 94.1719C52.3844 92.7741 51.565 91.5752 50.1914 90.5931C45.739 87.4301 36.3162 87.3698 33.3158 87.8819C31.6469 88.1651 30.2492 89.2315 29.3876 90.8763C28.3815 92.7922 28.2128 95.2865 28.9839 96.9373C30.6348 100.492 38.9972 100.612 41.9072 100.54C42.4434 101.504 43.6725 103.191 45.8655 103.577C46.0945 103.625 46.3355 103.643 46.5765 103.643ZM36.9849 89.6532C40.8348 89.6532 46.2813 90.2798 49.0286 92.2319C49.9684 92.9006 50.4986 93.6417 50.6432 94.5032C51.2035 97.8229 49.9443 99.6484 49.1491 100.444C48.2815 101.305 47.1307 101.757 46.2089 101.6C44.3111 101.269 43.4676 99.1785 43.4616 99.1604C43.305 98.7568 42.9073 98.4917 42.4796 98.5158C38.1839 98.6965 31.7253 98.0699 30.8035 96.0938C30.3757 95.172 30.3576 93.3585 31.1649 91.8162C31.5686 91.051 32.3217 90.0931 33.6532 89.8701C34.4183 89.7376 35.5992 89.6532 36.9849 89.6532Z" fill="#371A45"/>
</g>
</g>
<g id="Group_117">
<g id="Group_118">
<path id="Vector_53" d="M72.0916 124.965C76.9296 125.935 81.2313 126.32 84.9968 126.332C98.5888 126.369 105.216 121.5 105.216 121.5C107.867 117.958 107.006 115.217 105.62 113.427V113.421C104.397 111.849 102.77 111.011 102.77 111.011C101.029 112.391 99.1371 113.481 97.1609 114.331C92.9918 116.138 88.4912 116.885 84.4064 117.108C76.9537 117.512 70.9047 116.132 70.9047 116.132C67.2356 118.729 72.0916 124.965 72.0916 124.965Z" fill="white"/>
</g>
</g>
<g id="Group_119">
<g id="Group_120">
<path id="Vector_54" d="M84.4124 117.102L84.9968 126.332C98.5888 126.369 105.216 121.5 105.216 121.5C107.867 117.958 107.006 115.217 105.62 113.427C105.74 115.783 105.084 118.343 102.113 119.512C97.7514 121.229 97.1368 116.994 97.1609 114.331C92.9978 116.132 88.4912 116.885 84.4124 117.102Z" fill="#D8D8D8"/>
</g>
</g>
<g id="Group_121">
<g id="Group_122">
<path id="Vector_55" d="M85.2257 127.351C98.7575 127.351 105.457 122.573 105.813 122.308L105.933 122.217L106.023 122.097C107.674 119.892 108.265 117.711 107.783 115.608C106.969 112.078 103.391 110.186 103.234 110.107L102.656 109.812L102.149 110.216C90.5396 119.422 71.3325 115.186 71.1397 115.144L70.6999 115.042L70.3323 115.301C69.3443 116 68.7599 116.952 68.5851 118.133C68.0971 121.422 71.1638 125.411 71.2963 125.579L71.5253 125.874L71.8928 125.947C76.9054 126.953 81.3457 127.351 85.2257 127.351ZM104.505 120.765C103.306 121.555 92.7748 127.983 72.664 124.055C71.8265 122.886 70.2962 120.277 70.5733 118.428C70.6456 117.934 70.8445 117.536 71.1758 117.205C74.3389 117.843 91.3891 120.771 102.836 112.222C103.704 112.801 105.385 114.144 105.825 116.072C106.156 117.53 105.71 119.109 104.505 120.765Z" fill="#371A45"/>
</g>
</g>
<g id="Group_123">
<g id="Group_124">
<path id="Vector_56" d="M44.0459 116.759C44.1664 118.187 46.1727 128.242 47.7331 132.327C47.9982 133.026 48.2513 133.55 48.4802 133.827C49.9924 135.647 64.9882 137.322 72.0975 135.55C76.4475 134.466 75.4534 126.875 74.0315 121.145C73.1278 117.512 72.0493 114.626 72.0493 114.626C72.0493 114.626 59.4996 115.753 49.5105 113.831C49.5105 113.831 43.9254 115.361 44.0459 116.759Z" fill="white"/>
</g>
</g>
<g id="Group_125">
<g id="Group_126">
<path id="Vector_57" d="M47.7331 132.327C47.9982 133.026 48.2513 133.55 48.4802 133.827C49.9924 135.647 64.9882 137.322 72.0975 135.55C76.4475 134.466 75.4534 126.875 74.0315 121.145C69.1876 121.398 63.6507 121.681 63.6507 121.681C63.5483 121.778 60.8853 132.478 57.2885 132.14C53.1916 131.755 54.3544 125.447 52.4265 123.669C50.4985 121.892 48.6911 124.543 48.6911 124.543C48.6911 124.543 50.4142 132.646 47.7331 132.327Z" fill="#D8D8D8"/>
</g>
</g>
<g id="Group_127">
<g id="Group_128">
<path id="Vector_58" d="M64.1029 137.273C67.272 137.273 70.2422 137.039 72.3389 136.52C73.6523 136.195 74.6524 135.388 75.3151 134.129C78.2613 128.531 73.2064 114.849 72.9895 114.271C72.8329 113.849 72.4111 113.578 71.9593 113.62C71.8328 113.632 59.4337 114.71 49.6975 112.843C49.5469 112.813 49.3903 112.819 49.2397 112.861C45.0042 114.024 42.9196 115.361 43.0401 116.843C43.1606 118.259 45.8356 132.213 47.7033 134.466C49.089 136.129 57.0719 137.273 64.1029 137.273ZM71.3628 115.687C72.8389 119.886 75.5139 129.441 73.5318 133.201C73.1402 133.942 72.5919 134.394 71.8508 134.574C64.9343 136.297 50.5651 134.532 49.2457 133.183C48.0046 131.688 45.3235 119.139 45.0584 116.819C45.4801 116.325 47.4804 115.452 49.5529 114.861C58.2166 116.476 68.4769 115.897 71.3628 115.687Z" fill="#371A45"/>
</g>
</g>
<g id="Group_129">
<g id="Group_130">
<path id="Vector_59" d="M64.5725 119.512C64.5725 119.512 48.5404 119.362 44.0459 116.379L64.5725 119.512Z" fill="white"/>
</g>
</g>
<g id="Group_131">
<g id="Group_132">
<path id="Vector_60" d="M64.5726 120.512C65.1209 120.512 65.5728 120.067 65.5788 119.518C65.5848 118.964 65.139 118.512 64.5847 118.506C60.2107 118.464 48.0887 117.849 44.6063 115.542C44.1424 115.235 43.5219 115.361 43.2146 115.825C42.9074 116.289 43.0339 116.91 43.4978 117.217C48.1911 120.332 63.9039 120.512 64.5726 120.518C64.5666 120.512 64.5666 120.512 64.5726 120.512Z" fill="#371A45"/>
</g>
</g>
<g id="Group_133">
<g id="Group_134">
<path id="Vector_61" d="M48.0165 126.634C48.0647 127.031 48.9383 130.2 48.9383 130.2C48.9383 130.2 49.8179 130.104 50.8964 129.989C52.2459 129.845 53.1436 128.11 52.8966 126.115C52.6496 124.121 51.3663 122.615 50.0167 122.76C49.107 122.856 48.0587 122.971 48.0587 122.971C48.0587 122.971 47.9321 125.989 48.0165 126.634Z" fill="#22A7F0"/>
</g>
</g>
<g id="Group_135">
<g id="Group_136">
<path id="Vector_62" d="M48.0165 126.634C48.0647 127.031 48.9383 130.2 48.9383 130.2C48.9383 130.2 48.9624 130.2 49.0045 130.194C48.7575 129.279 48.4744 128.194 48.4442 127.971C48.3659 127.32 48.4864 124.308 48.4864 124.308C48.4864 124.308 49.5347 124.194 50.4445 124.097C51.3844 123.995 52.3001 124.7 52.8484 125.814C52.517 123.971 51.294 122.627 50.0167 122.766C49.107 122.862 48.0586 122.977 48.0586 122.977C48.0586 122.977 47.9321 125.989 48.0165 126.634Z" fill="white"/>
</g>
</g>
<g id="Group_137">
<g id="Group_138">
<path id="Vector_63" d="M48.0165 126.634C48.0647 127.031 48.9383 130.2 48.9383 130.2C48.9383 130.2 49.8179 130.104 50.8964 129.989C52.2459 129.845 53.1436 128.11 52.8966 126.116C52.8364 125.64 52.7219 125.194 52.5592 124.79C52.3062 126.019 51.6675 125.248 50.7096 125.35C49.6311 125.465 48.6611 127.23 48.6611 127.23C48.6611 127.23 48.2756 125.826 47.9984 124.772C47.9864 125.543 47.9803 126.338 48.0165 126.634Z" fill="#2585EF"/>
</g>
</g>
<g id="Group_139">
<g id="Group_140">
<path id="Vector_64" d="M49.4686 130.893C49.5168 130.893 49.565 130.893 49.6132 130.887L50.9748 130.743C51.6676 130.67 52.2882 130.309 52.7702 129.7C53.4871 128.803 53.8125 127.429 53.6438 126.025C53.3486 123.585 51.7219 121.826 49.9325 122.013L48.5648 122.157C47.8419 122.235 47.2996 122.856 47.2755 123.633C47.2213 125.302 47.2153 126.344 47.2635 126.73C47.2755 126.832 47.3117 127.104 48.0226 129.73C48.2154 130.423 48.8058 130.893 49.4686 130.893ZM50.1855 123.507C50.9748 123.507 51.9508 124.573 52.1496 126.206C52.2701 127.2 52.0592 128.176 51.5953 128.76C51.3664 129.05 51.1073 129.212 50.8181 129.242L49.5047 129.381C49.4987 129.369 49.4866 129.351 49.4806 129.327C48.842 126.989 48.7697 126.597 48.7637 126.543C48.7516 126.429 48.7155 125.899 48.7878 123.681C48.7878 123.669 48.7878 123.657 48.7938 123.645L50.1012 123.507C50.1253 123.507 50.1554 123.507 50.1855 123.507Z" fill="#371A45"/>
</g>
</g>
<g id="Group_141">
<g id="Group_142">
<path id="Vector_65" d="M45.5159 126.905C45.7629 128.899 47.0703 130.405 48.438 130.261C49.8056 130.116 50.7154 128.381 50.4683 126.387C50.2213 124.392 48.9139 122.886 47.5463 123.031C46.1726 123.169 45.2689 124.905 45.5159 126.905Z" fill="#22A7F0"/>
</g>
</g>
<g id="Group_143">
<g id="Group_144">
<path id="Vector_66" d="M45.516 126.905C45.5461 127.146 45.5883 127.381 45.6485 127.604C45.6726 125.923 46.5161 124.573 47.7151 124.447C48.92 124.32 50.0708 125.465 50.4985 127.104C50.4985 126.869 50.4865 126.628 50.4564 126.387C50.2093 124.392 48.902 122.886 47.5343 123.031C46.1727 123.169 45.269 124.905 45.516 126.905Z" fill="white"/>
</g>
</g>
<g id="Group_145">
<g id="Group_146">
<path id="Vector_67" d="M45.5159 126.905C45.7629 128.899 47.0703 130.405 48.438 130.261C49.8056 130.116 50.7154 128.381 50.4683 126.387C50.4081 125.893 50.2816 125.429 50.1068 125.019C49.896 126.368 49.1248 127.381 48.0946 127.489C47.0643 127.598 46.0702 126.772 45.534 125.501C45.4617 125.935 45.4497 126.411 45.5159 126.905Z" fill="#2585EF"/>
</g>
</g>
<g id="Group_147">
<g id="Group_148">
<path id="Vector_68" d="M48.2515 131.02C48.3419 131.02 48.4263 131.014 48.5166 131.008C49.2215 130.935 49.8541 130.568 50.3421 129.953C51.0591 129.05 51.3844 127.682 51.2097 126.29C50.9085 123.85 49.2637 122.091 47.4623 122.278C46.7574 122.35 46.1248 122.717 45.6368 123.332C44.9198 124.236 44.5944 125.603 44.7692 126.995C45.0523 129.315 46.5525 131.02 48.2515 131.02ZM47.7213 123.772C48.619 123.772 49.5348 124.995 49.7156 126.477C49.8361 127.477 49.6312 128.423 49.1613 129.013C48.9986 129.218 48.7275 129.465 48.3539 129.507C47.4321 129.604 46.4501 128.345 46.2573 126.808C46.1368 125.808 46.3417 124.862 46.8116 124.272C46.9743 124.067 47.2454 123.82 47.6189 123.778C47.6551 123.772 47.6852 123.772 47.7213 123.772Z" fill="#371A45"/>
</g>
</g>
<g id="Group_149">
<g id="Group_150">
<path id="Vector_69" d="M15.3858 100.046L19.9105 117.512L20.1575 118.464C20.1635 118.464 20.1635 118.47 20.1635 118.476L20.6274 120.265L23.1036 129.827C23.6639 131.984 25.5738 133.52 27.803 133.598L44.9256 134.195C46.2149 134.08 47.4018 133.448 48.2091 132.436L48.7995 131.694C49.4442 130.893 49.6852 129.839 49.4623 128.833L44.9316 108.523L42.6542 98.3048C42.3469 96.9131 41.0576 96.1721 39.6117 96.2142C37.9006 96.2564 21.9107 96.4793 17.862 96.7022C15.9401 96.8107 15.3075 98.335 15.3858 100.046Z" fill="#E94E1B"/>
</g>
</g>
<g id="Group_151">
<g id="Group_152">
<path id="Vector_70" d="M20.6216 120.271L23.0978 129.833C23.6581 131.99 25.5679 133.526 27.7971 133.604L44.9197 134.201C46.209 134.092 47.3959 133.454 48.2032 132.442L48.7937 131.7C49.4383 130.899 49.6793 129.845 49.4564 128.839L44.9318 108.529C44.1365 109.33 42.6845 110.186 40.5336 110.222C36.8585 110.288 31.0566 108.71 29.5022 113.174C28.1586 117.036 34.8703 123.657 31.406 127.489C29.46 129.64 22.6037 125.585 20.6216 120.271Z" fill="#FD7D53"/>
</g>
</g>
<g id="Group_153">
<g id="Group_154">
<path id="Vector_71" d="M19.9105 117.518L20.1575 118.47C20.0731 117.892 19.9888 117.584 19.9105 117.518Z" fill="#46A8F9"/>
</g>
</g>
<g id="Group_155">
<g id="Group_156">
<path id="Vector_72" d="M44.9196 135.201C44.9498 135.201 44.9799 135.201 45.004 135.195C46.5584 135.062 48.0104 134.285 48.9864 133.062L49.5768 132.321C50.4143 131.273 50.7276 129.923 50.4324 128.616L43.6303 98.0879C43.2327 96.3106 41.5939 95.1538 39.5816 95.2081C39.1599 95.2201 37.8706 95.2442 36.0993 95.2743C30.7733 95.3647 20.8685 95.5334 17.8019 95.7021C15.5727 95.8226 14.2593 97.5035 14.3737 100.088C14.3798 100.16 14.3858 100.227 14.4039 100.293L22.1157 130.074C22.7784 132.646 25.098 134.502 27.7549 134.592L44.8775 135.189C44.8955 135.201 44.9076 135.201 44.9196 135.201ZM39.7202 97.2204C40.5396 97.2204 41.4614 97.5638 41.6783 98.5278L48.4803 129.056C48.637 129.767 48.4683 130.502 48.0164 131.068L47.426 131.809C46.8054 132.586 45.8836 133.086 44.8955 133.189L27.8392 132.598C26.0679 132.538 24.5196 131.297 24.0798 129.58L16.3921 99.9014C16.3318 97.7987 17.5308 97.7325 17.9284 97.7084C20.9589 97.5397 30.8396 97.371 36.1535 97.2806C37.9308 97.2505 39.2262 97.2264 39.6539 97.2143C39.666 97.2204 39.6901 97.2204 39.7202 97.2204Z" fill="#371A45"/>
</g>
</g>
<g id="Group_157">
<g id="Group_158">
<path id="Vector_73" d="M46.1908 134.605C46.2269 134.568 46.2571 134.526 46.2872 134.484C46.3113 134.448 46.3474 134.382 46.3535 134.37C46.3776 134.321 46.3956 134.273 46.4077 134.225C46.4197 134.171 46.4378 134.092 46.4438 134.056C46.4559 133.966 46.4559 133.9 46.4619 133.839C46.4619 133.713 46.4559 133.61 46.4499 133.508C46.4378 133.309 46.4137 133.116 46.3896 132.936C46.3414 132.568 46.2872 132.207 46.227 131.851C46.1065 131.14 45.9739 130.435 45.8353 129.73C45.5582 128.327 45.2569 126.929 44.9557 125.537C44.3472 122.748 43.7025 119.97 43.0519 117.199C41.7505 111.65 40.407 106.113 39.0333 100.582C38.9851 100.377 38.7803 100.257 38.5754 100.305C38.3766 100.353 38.2561 100.558 38.2983 100.757C39.5454 106.312 40.7685 111.879 41.9493 117.446C42.5398 120.229 43.1181 123.019 43.6604 125.808C43.9315 127.2 44.1966 128.598 44.4436 129.996C44.5641 130.694 44.6846 131.387 44.781 132.086C44.8292 132.43 44.8774 132.779 44.9135 133.116C44.9316 133.285 44.9437 133.454 44.9497 133.604C44.9557 133.677 44.9557 133.755 44.9497 133.809C44.9497 133.833 44.9437 133.863 44.9437 133.857C44.9437 133.869 44.9437 133.833 44.9497 133.821C44.9557 133.791 44.9677 133.761 44.9798 133.737C44.9798 133.737 45.0099 133.677 45.028 133.647C45.0521 133.61 45.0762 133.58 45.1063 133.55C44.8111 133.845 44.8111 134.321 45.1063 134.617C45.4015 134.912 45.9016 134.9 46.1908 134.605Z" fill="#371A45"/>
</g>
</g>
<g id="Group_159">
<g id="Group_160">
<path id="Vector_74" d="M35.2739 99.329C33.6291 99.4074 31.9783 99.4375 30.3275 99.4676L25.363 99.5339C23.7062 99.558 22.0494 99.5881 20.3865 99.6604C19.5551 99.6965 18.7176 99.7387 17.8742 99.817C17.4524 99.8592 17.0247 99.9014 16.5849 99.9797C16.3619 100.022 16.139 100.064 15.886 100.142C15.7595 100.185 15.6209 100.233 15.4522 100.329C15.404 100.359 15.3618 100.389 15.3076 100.426C15.2775 100.45 15.2473 100.474 15.2172 100.504C15.1871 100.534 15.163 100.552 15.1268 100.6C15.0606 100.691 15.0003 100.775 14.9521 100.938C14.9099 101.082 14.916 101.245 14.9461 101.396C15.0485 101.799 15.4642 102.04 15.8619 101.938C16.2655 101.835 16.5065 101.42 16.4041 101.022C16.4342 101.124 16.4282 101.233 16.4041 101.329C16.3981 101.371 16.3619 101.432 16.3499 101.456C16.3378 101.486 16.3198 101.51 16.3017 101.534L16.2655 101.576C16.2535 101.588 16.2475 101.594 16.2354 101.6C16.2234 101.606 16.2234 101.606 16.2173 101.612C16.2234 101.606 16.2776 101.576 16.3499 101.552C16.4885 101.504 16.6692 101.456 16.856 101.414C17.2295 101.335 17.6271 101.275 18.0248 101.221C18.8261 101.118 19.6394 101.04 20.4588 100.974C22.0976 100.841 23.7424 100.751 25.3932 100.661L30.3516 100.407C32.0024 100.317 33.6592 100.227 35.3161 100.082C35.5209 100.064 35.6775 99.8833 35.6595 99.6725C35.6474 99.4736 35.4727 99.323 35.2739 99.329Z" fill="#371A45"/>
</g>
</g>
<g id="Group_161">
<g id="Group_162">
<path id="Vector_75" d="M71.0071 109.24C71.0071 109.24 84.5328 124.657 73.7243 132.628L71.0071 109.24Z" fill="white"/>
</g>
</g>
<g id="Group_163">
<g id="Group_164">
<path id="Vector_76" d="M73.7244 133.634C73.9293 133.634 74.1401 133.568 74.3209 133.436C76.9899 131.466 78.5142 128.905 78.8515 125.82C79.7251 117.753 72.0917 108.945 71.7663 108.577C71.3988 108.161 70.7662 108.119 70.3505 108.487C69.9348 108.854 69.8926 109.487 70.2541 109.903C70.3264 109.987 77.6345 118.422 76.8513 125.609C76.5802 128.11 75.327 130.194 73.128 131.815C72.6821 132.146 72.5857 132.773 72.9171 133.219C73.1099 133.49 73.4172 133.634 73.7244 133.634Z" fill="#371A45"/>
</g>
</g>
<g id="Group_165">
<g id="Group_166">
<path id="Vector_77" d="M35.0509 102.064L32.406 102.215C31.5203 102.263 30.8998 103.101 31.0986 103.962L31.1287 104.095C31.2854 104.763 31.8939 105.227 32.5747 105.197L35.2256 105.089C36.0992 105.053 36.7379 104.245 36.5631 103.384L36.527 103.215C36.3884 102.51 35.7558 102.022 35.0509 102.064Z" fill="#371A45"/>
</g>
</g>
<g id="Group_167">
<g id="Group_168">
<path id="Vector_78" d="M31.8337 103.679C31.8518 104.107 32.2133 104.438 32.6411 104.42C33.0688 104.402 33.4002 104.04 33.3821 103.613C33.364 103.185 33.0025 102.854 32.5748 102.872C32.147 102.884 31.8157 103.245 31.8337 103.679Z" fill="#48404C"/>
</g>
</g>
<g id="Group_169">
<g id="Group_170">
<path id="Vector_79" d="M32.0867 103.667C32.0988 103.956 32.3458 104.179 32.635 104.167C32.9242 104.155 33.1471 103.908 33.135 103.625C33.123 103.336 32.876 103.113 32.5868 103.125C32.3036 103.131 32.0747 103.378 32.0867 103.667Z" fill="#5B5B5B"/>
</g>
</g>
<g id="Group_171">
<g id="Group_172">
<path id="Vector_80" d="M32.0987 103.667C32.1107 103.95 32.3517 104.173 32.6349 104.161C32.9181 104.149 33.141 103.908 33.1289 103.625C33.1169 103.342 32.8759 103.119 32.5927 103.131C32.3035 103.143 32.0866 103.378 32.0987 103.667Z" fill="#595959"/>
</g>
</g>
<g id="Group_173">
<g id="Group_174">
<path id="Vector_81" d="M32.1049 103.667C32.1169 103.95 32.3519 104.167 32.635 104.155C32.9182 104.143 33.1351 103.908 33.1231 103.625C33.111 103.342 32.876 103.125 32.5929 103.137C32.3097 103.149 32.0928 103.384 32.1049 103.667Z" fill="#585858"/>
</g>
</g>
<g id="Group_175">
<g id="Group_176">
<path id="Vector_82" d="M32.111 103.667C32.123 103.944 32.358 104.155 32.6351 104.143C32.9123 104.131 33.1231 103.896 33.1111 103.619C33.099 103.342 32.8641 103.131 32.5869 103.143C32.3158 103.155 32.0989 103.39 32.111 103.667Z" fill="#565656"/>
</g>
</g>
<g id="Group_177">
<g id="Group_178">
<path id="Vector_83" d="M32.1168 103.667C32.1289 103.938 32.3578 104.149 32.6289 104.137C32.9001 104.125 33.1109 103.896 33.0989 103.625C33.0868 103.354 32.8579 103.143 32.5868 103.155C32.3156 103.161 32.1048 103.39 32.1168 103.667Z" fill="#545454"/>
</g>
</g>
<g id="Group_179">
<g id="Group_180">
<path id="Vector_84" d="M32.1289 103.667C32.1409 103.932 32.3699 104.143 32.635 104.131C32.9001 104.119 33.1109 103.89 33.0989 103.625C33.0868 103.36 32.8639 103.149 32.5928 103.161C32.3217 103.167 32.1168 103.396 32.1289 103.667Z" fill="#535353"/>
</g>
</g>
<g id="Group_181">
<g id="Group_182">
<path id="Vector_85" d="M32.1348 103.661C32.1468 103.926 32.3698 104.131 32.6349 104.119C32.9 104.107 33.1048 103.884 33.0928 103.619C33.0807 103.354 32.8578 103.149 32.5927 103.161C32.3276 103.179 32.1227 103.402 32.1348 103.661Z" fill="#515151"/>
</g>
</g>
<g id="Group_183">
<g id="Group_184">
<path id="Vector_86" d="M32.1412 103.661C32.1532 103.92 32.3701 104.125 32.6292 104.113C32.8882 104.101 33.0931 103.884 33.081 103.625C33.069 103.366 32.8521 103.161 32.593 103.173C32.334 103.185 32.1291 103.402 32.1412 103.661Z" fill="#4F4F4F"/>
</g>
</g>
<g id="Group_185">
<g id="Group_186">
<path id="Vector_87" d="M32.147 103.661C32.159 103.914 32.3759 104.113 32.629 104.107C32.882 104.095 33.0808 103.878 33.0748 103.625C33.0628 103.372 32.8459 103.173 32.5928 103.179C32.3338 103.191 32.141 103.408 32.147 103.661Z" fill="#4E4E4E"/>
</g>
</g>
<g id="Group_187">
<g id="Group_188">
<path id="Vector_88" d="M32.1591 103.661C32.1711 103.914 32.382 104.107 32.635 104.095C32.8881 104.083 33.0809 103.872 33.0688 103.619C33.0568 103.366 32.8459 103.173 32.5928 103.185C32.3398 103.197 32.147 103.414 32.1591 103.661Z" fill="#4C4C4C"/>
</g>
</g>
<g id="Group_189">
<g id="Group_190">
<path id="Vector_89" d="M32.1652 103.661C32.1772 103.908 32.3821 104.101 32.6291 104.089C32.8761 104.077 33.0689 103.872 33.0568 103.625C33.0448 103.378 32.8399 103.185 32.5929 103.197C32.3459 103.209 32.1531 103.414 32.1652 103.661Z" fill="#4A4A4A"/>
</g>
</g>
<g id="Group_191">
<g id="Group_192">
<path id="Vector_90" d="M32.1711 103.661C32.1832 103.902 32.388 104.095 32.629 104.083C32.87 104.071 33.0628 103.866 33.0507 103.625C33.0387 103.384 32.8338 103.191 32.5929 103.203C32.3519 103.215 32.1591 103.42 32.1711 103.661Z" fill="#494949"/>
</g>
</g>
<g id="Group_193">
<g id="Group_194">
<path id="Vector_91" d="M32.1772 103.661C32.1892 103.902 32.3881 104.083 32.6291 104.077C32.87 104.065 33.0508 103.866 33.0448 103.625C33.0327 103.384 32.8339 103.203 32.5929 103.209C32.3519 103.221 32.1712 103.42 32.1772 103.661Z" fill="#474747"/>
</g>
</g>
<g id="Group_195">
<g id="Group_196">
<path id="Vector_92" d="M32.1893 103.661C32.2013 103.896 32.4001 104.077 32.6351 104.071C32.8701 104.059 33.0508 103.86 33.0448 103.625C33.0327 103.39 32.8339 103.209 32.5989 103.215C32.3579 103.227 32.1772 103.426 32.1893 103.661Z" fill="#454545"/>
</g>
</g>
<g id="Group_197">
<g id="Group_198">
<path id="Vector_93" d="M32.1951 103.661C32.2072 103.89 32.3999 104.071 32.6289 104.059C32.8578 104.046 33.0386 103.854 33.0265 103.625C33.0145 103.396 32.8217 103.215 32.5927 103.227C32.3638 103.233 32.1831 103.432 32.1951 103.661Z" fill="#444444"/>
</g>
</g>
<g id="Group_199">
<g id="Group_200">
<path id="Vector_94" d="M32.2013 103.661C32.2133 103.89 32.4001 104.065 32.629 104.053C32.858 104.041 33.0327 103.854 33.0207 103.625C33.0086 103.396 32.8218 103.221 32.5929 103.233C32.37 103.245 32.1892 103.432 32.2013 103.661Z" fill="#424242"/>
</g>
</g>
<g id="Group_201">
<g id="Group_202">
<path id="Vector_95" d="M32.2072 103.661C32.2193 103.884 32.406 104.059 32.629 104.046C32.8519 104.034 33.0266 103.848 33.0145 103.625C33.0025 103.402 32.8157 103.227 32.5928 103.239C32.3699 103.251 32.2012 103.438 32.2072 103.661Z" fill="#404040"/>
</g>
</g>
<g id="Group_203">
<g id="Group_204">
<path id="Vector_96" d="M32.2191 103.661C32.2312 103.878 32.4119 104.047 32.6288 104.041C32.8457 104.028 33.0144 103.848 33.0084 103.631C32.9963 103.414 32.8156 103.245 32.5987 103.251C32.3758 103.257 32.2071 103.444 32.2191 103.661Z" fill="#3F3F3F"/>
</g>
</g>
<g id="Group_205">
<g id="Group_206">
<path id="Vector_97" d="M32.2253 103.661C32.2374 103.878 32.4181 104.04 32.629 104.034C32.8459 104.022 33.0085 103.842 33.0025 103.631C32.9905 103.414 32.8097 103.251 32.5988 103.257C32.382 103.263 32.2133 103.444 32.2253 103.661Z" fill="#3D3D3D"/>
</g>
</g>
<g id="Group_207">
<g id="Group_208">
<path id="Vector_98" d="M32.2312 103.661C32.2372 103.872 32.418 104.034 32.6288 104.022C32.8397 104.01 33.0024 103.836 32.9903 103.625C32.9843 103.414 32.8036 103.251 32.5927 103.263C32.3879 103.269 32.2252 103.45 32.2312 103.661Z" fill="#3C3C3C"/>
</g>
</g>
<g id="Group_209">
<g id="Group_210">
<path id="Vector_99" d="M32.2373 103.661C32.2433 103.866 32.4181 104.028 32.6229 104.016C32.8278 104.01 32.9904 103.836 32.9784 103.631C32.9663 103.426 32.7976 103.263 32.5928 103.275C32.3879 103.281 32.2313 103.456 32.2373 103.661Z" fill="#000072"/>
</g>
</g>
<g id="Group_211">
<g id="Group_212">
<path id="Vector_100" d="M32.2494 103.661C32.2554 103.86 32.4301 104.016 32.6289 104.01C32.8277 103.998 32.9844 103.83 32.9783 103.631C32.9723 103.432 32.7976 103.275 32.5988 103.281C32.3939 103.287 32.2373 103.456 32.2494 103.661Z" fill="#383838"/>
</g>
</g>
<g id="Group_213">
<g id="Group_214">
<path id="Vector_101" d="M32.2553 103.661C32.2613 103.86 32.43 104.01 32.6288 104.004C32.8276 103.998 32.9783 103.83 32.9722 103.631C32.9662 103.432 32.7975 103.281 32.5987 103.287C32.3999 103.293 32.2432 103.462 32.2553 103.661Z" fill="#373737"/>
</g>
</g>
<g id="Group_215">
<g id="Group_216">
<path id="Vector_102" d="M32.2615 103.661C32.2675 103.854 32.4362 104.004 32.629 103.998C32.8218 103.992 32.9724 103.824 32.9664 103.631C32.9604 103.438 32.7977 103.287 32.5989 103.293C32.4061 103.299 32.2555 103.462 32.2615 103.661Z" fill="#353535"/>
</g>
</g>
<g id="Group_217">
<g id="Group_218">
<path id="Vector_103" d="M32.2675 103.655C32.2735 103.842 32.4362 103.992 32.623 103.98C32.8097 103.974 32.9603 103.811 32.9483 103.625C32.9423 103.438 32.7796 103.287 32.5928 103.299C32.4061 103.311 32.2615 103.468 32.2675 103.655Z" fill="#000072"/>
</g>
</g>
<g id="Group_219">
<g id="Group_220">
<path id="Vector_104" d="M32.2795 103.655C32.2856 103.842 32.4422 103.986 32.629 103.974C32.8157 103.968 32.9603 103.812 32.9483 103.625C32.9422 103.438 32.7856 103.293 32.5988 103.305C32.4121 103.318 32.2675 103.474 32.2795 103.655Z" fill="#323232"/>
</g>
</g>
<g id="Group_221">
<g id="Group_222">
<path id="Vector_105" d="M32.2855 103.655C32.2915 103.836 32.4481 103.974 32.6289 103.968C32.8096 103.962 32.9482 103.806 32.9422 103.625C32.9362 103.444 32.7795 103.306 32.5988 103.312C32.418 103.324 32.2795 103.474 32.2855 103.655Z" fill="#303030"/>
</g>
</g>
<g id="Group_223">
<g id="Group_224">
<path id="Vector_106" d="M32.2916 103.655C32.2976 103.83 32.4483 103.968 32.623 103.962C32.7977 103.956 32.9363 103.806 32.9302 103.631C32.9242 103.456 32.7736 103.318 32.5989 103.324C32.4241 103.33 32.2856 103.48 32.2916 103.655Z" fill="#2E2E2E"/>
</g>
</g>
<g id="Group_225">
<g id="Group_226">
<path id="Vector_107" d="M32.2975 103.655C32.3036 103.83 32.4482 103.962 32.6229 103.956C32.7976 103.95 32.9301 103.806 32.9241 103.631C32.9181 103.456 32.7735 103.324 32.5988 103.33C32.424 103.336 32.2915 103.486 32.2975 103.655Z" fill="#2D2D2D"/>
</g>
</g>
<g id="Group_227">
<g id="Group_228">
<path id="Vector_108" d="M32.3097 103.655C32.3157 103.824 32.4603 103.956 32.629 103.944C32.7977 103.938 32.9302 103.793 32.9182 103.625C32.9122 103.456 32.7676 103.324 32.5989 103.336C32.4302 103.348 32.2976 103.486 32.3097 103.655Z" fill="#2B2B2B"/>
</g>
</g>
<g id="Group_229">
<g id="Group_230">
<path id="Vector_109" d="M32.3159 103.655C32.3219 103.818 32.4605 103.944 32.6231 103.938C32.7858 103.932 32.9123 103.793 32.9063 103.625C32.9003 103.462 32.7617 103.336 32.599 103.342C32.4363 103.354 32.3098 103.492 32.3159 103.655Z" fill="#292929"/>
</g>
</g>
<g id="Group_231">
<g id="Group_232">
<path id="Vector_110" d="M32.3218 103.655C32.3278 103.818 32.4664 103.938 32.623 103.932C32.7857 103.926 32.9062 103.787 32.9002 103.631C32.8941 103.468 32.7556 103.348 32.5989 103.354C32.4423 103.36 32.3158 103.498 32.3218 103.655Z" fill="#282828"/>
</g>
</g>
<g id="Group_233">
<g id="Group_234">
<path id="Vector_111" d="M32.3277 103.655C32.3338 103.812 32.4663 103.932 32.623 103.926C32.7796 103.92 32.9001 103.787 32.8941 103.631C32.888 103.474 32.7555 103.354 32.5988 103.36C32.4422 103.366 32.3217 103.498 32.3277 103.655Z" fill="#262626"/>
</g>
</g>
<g id="Group_235">
<g id="Group_236">
<path id="Vector_112" d="M32.3398 103.655C32.3458 103.806 32.4723 103.926 32.629 103.92C32.7796 103.914 32.9001 103.787 32.8941 103.631C32.888 103.48 32.7615 103.36 32.6049 103.366C32.4482 103.378 32.3338 103.504 32.3398 103.655Z" fill="#242424"/>
</g>
</g>
<g id="Group_237">
<g id="Group_238">
<path id="Vector_113" d="M32.3456 103.655C32.3517 103.805 32.4782 103.92 32.6228 103.908C32.7734 103.902 32.8879 103.775 32.8819 103.631C32.8758 103.48 32.7493 103.366 32.6047 103.378C32.4541 103.384 32.3396 103.504 32.3456 103.655Z" fill="#232323"/>
</g>
</g>
<g id="Group_239">
<g id="Group_240">
<path id="Vector_114" d="M32.3518 103.655C32.3578 103.799 32.4783 103.908 32.6229 103.902C32.7675 103.896 32.8759 103.775 32.8699 103.631C32.8639 103.486 32.7434 103.378 32.5988 103.384C32.4542 103.39 32.3457 103.51 32.3518 103.655Z" fill="#212121"/>
</g>
</g>
<g id="Group_241">
<g id="Group_242">
<path id="Vector_115" d="M34.0207 103.583C34.0388 104.01 34.4003 104.342 34.8281 104.324C35.2558 104.306 35.5872 103.944 35.5691 103.516C35.551 103.089 35.1896 102.757 34.7618 102.775C34.334 102.793 34.0027 103.155 34.0207 103.583Z" fill="#48404C"/>
</g>
</g>
<g id="Group_243">
<g id="Group_244">
<path id="Vector_116" d="M34.2737 103.571C34.2858 103.86 34.5328 104.083 34.822 104.071C35.1112 104.059 35.3341 103.812 35.322 103.528C35.31 103.239 35.063 103.016 34.7798 103.028C34.4846 103.04 34.2617 103.281 34.2737 103.571Z" fill="#5B5B5B"/>
</g>
</g>
<g id="Group_245">
<g id="Group_246">
<path id="Vector_117" d="M34.2798 103.57C34.2919 103.854 34.5329 104.077 34.816 104.065C35.0992 104.052 35.3221 103.811 35.3101 103.528C35.298 103.245 35.057 103.022 34.7739 103.034C34.4907 103.046 34.2678 103.287 34.2798 103.57Z" fill="#595959"/>
</g>
</g>
<g id="Group_247">
<g id="Group_248">
<path id="Vector_118" d="M34.2858 103.571C34.2978 103.854 34.5328 104.071 34.8159 104.059C35.0991 104.047 35.316 103.812 35.304 103.528C35.2919 103.245 35.0569 103.028 34.7738 103.04C34.4906 103.052 34.2737 103.293 34.2858 103.571Z" fill="#585858"/>
</g>
</g>
<g id="Group_249">
<g id="Group_250">
<path id="Vector_119" d="M34.2916 103.571C34.3037 103.848 34.5386 104.059 34.8158 104.047C35.0929 104.034 35.3038 103.799 35.2917 103.522C35.2797 103.245 35.0447 103.034 34.7676 103.046C34.4965 103.058 34.2856 103.293 34.2916 103.571Z" fill="#565656"/>
</g>
</g>
<g id="Group_251">
<g id="Group_252">
<path id="Vector_120" d="M34.3041 103.571C34.3161 103.842 34.5451 104.053 34.8162 104.04C35.0873 104.028 35.2982 103.799 35.2861 103.528C35.2741 103.257 35.0451 103.046 34.774 103.058C34.5029 103.07 34.292 103.299 34.3041 103.571Z" fill="#545454"/>
</g>
</g>
<g id="Group_253">
<g id="Group_254">
<path id="Vector_121" d="M34.31 103.571C34.3221 103.836 34.545 104.047 34.8161 104.034C35.0812 104.022 35.2921 103.793 35.28 103.528C35.268 103.263 35.039 103.052 34.7739 103.064C34.5089 103.077 34.298 103.305 34.31 103.571Z" fill="#535353"/>
</g>
</g>
<g id="Group_255">
<g id="Group_256">
<path id="Vector_122" d="M34.316 103.571C34.328 103.836 34.5509 104.041 34.816 104.028C35.0811 104.016 35.286 103.793 35.2739 103.528C35.2619 103.263 35.0389 103.058 34.7738 103.071C34.5088 103.083 34.3039 103.305 34.316 103.571Z" fill="#515151"/>
</g>
</g>
<g id="Group_257">
<g id="Group_258">
<path id="Vector_123" d="M34.3221 103.571C34.3341 103.83 34.551 104.034 34.8101 104.022C35.0692 104.01 35.274 103.793 35.2619 103.534C35.2499 103.275 35.033 103.07 34.7739 103.083C34.5149 103.089 34.316 103.311 34.3221 103.571Z" fill="#4F4F4F"/>
</g>
</g>
<g id="Group_259">
<g id="Group_260">
<path id="Vector_124" d="M34.3342 103.571C34.3463 103.824 34.5632 104.022 34.8162 104.016C35.0693 104.004 35.2681 103.787 35.2621 103.534C35.25 103.281 35.0331 103.083 34.7801 103.089C34.521 103.101 34.3222 103.311 34.3342 103.571Z" fill="#4E4E4E"/>
</g>
</g>
<g id="Group_261">
<g id="Group_262">
<path id="Vector_125" d="M34.3402 103.571C34.3523 103.824 34.5631 104.016 34.8162 104.004C35.0692 103.992 35.262 103.781 35.25 103.528C35.2379 103.275 35.027 103.083 34.774 103.095C34.521 103.107 34.3282 103.318 34.3402 103.571Z" fill="#4C4C4C"/>
</g>
</g>
<g id="Group_263">
<g id="Group_264">
<path id="Vector_126" d="M34.3461 103.571C34.3581 103.818 34.563 104.01 34.81 103.998C35.057 103.986 35.2498 103.782 35.2377 103.534C35.2257 103.287 35.0209 103.095 34.7738 103.107C34.5268 103.113 34.334 103.324 34.3461 103.571Z" fill="#4A4A4A"/>
</g>
</g>
<g id="Group_265">
<g id="Group_266">
<path id="Vector_127" d="M34.352 103.571C34.3641 103.812 34.5689 104.004 34.8099 103.992C35.0509 103.98 35.2437 103.775 35.2316 103.534C35.2196 103.293 35.0147 103.101 34.7737 103.113C34.5328 103.119 34.346 103.324 34.352 103.571Z" fill="#494949"/>
</g>
</g>
<g id="Group_267">
<g id="Group_268">
<path id="Vector_128" d="M34.3642 103.571C34.3763 103.812 34.5751 103.992 34.8161 103.986C35.0571 103.98 35.2378 103.775 35.2318 103.534C35.2197 103.293 35.0209 103.113 34.7799 103.119C34.5389 103.125 34.3522 103.33 34.3642 103.571Z" fill="#474747"/>
</g>
</g>
<g id="Group_269">
<g id="Group_270">
<path id="Vector_129" d="M34.3702 103.571C34.3822 103.806 34.581 103.986 34.816 103.98C35.051 103.968 35.2317 103.769 35.2257 103.534C35.2136 103.299 35.0148 103.119 34.7799 103.125C34.5449 103.137 34.3581 103.336 34.3702 103.571Z" fill="#454545"/>
</g>
</g>
<g id="Group_271">
<g id="Group_272">
<path id="Vector_130" d="M34.376 103.571C34.3881 103.799 34.5809 103.98 34.8098 103.968C35.0388 103.956 35.2195 103.763 35.2074 103.534C35.1954 103.305 35.0026 103.125 34.7737 103.137C34.5447 103.143 34.37 103.336 34.376 103.571Z" fill="#444444"/>
</g>
</g>
<g id="Group_273">
<g id="Group_274">
<path id="Vector_131" d="M34.3822 103.565C34.3942 103.793 34.581 103.968 34.8099 103.956C35.0389 103.944 35.2136 103.757 35.2016 103.528C35.1895 103.299 35.0027 103.125 34.7738 103.137C34.5509 103.149 34.3762 103.342 34.3822 103.565Z" fill="#424242"/>
</g>
</g>
<g id="Group_275">
<g id="Group_276">
<path id="Vector_132" d="M34.3942 103.565C34.4063 103.787 34.593 103.962 34.816 103.95C35.0389 103.938 35.2136 103.751 35.2016 103.528C35.1895 103.305 35.0027 103.131 34.7798 103.143C34.5569 103.155 34.3822 103.342 34.3942 103.565Z" fill="#404040"/>
</g>
</g>
<g id="Group_277">
<g id="Group_278">
<path id="Vector_133" d="M34.4003 103.565C34.4123 103.781 34.5931 103.95 34.81 103.944C35.0269 103.932 35.1956 103.751 35.1895 103.534C35.1775 103.317 34.9968 103.149 34.7799 103.155C34.563 103.161 34.3882 103.348 34.4003 103.565Z" fill="#3F3F3F"/>
</g>
</g>
<g id="Group_279">
<g id="Group_280">
<path id="Vector_134" d="M34.4062 103.565C34.4183 103.781 34.599 103.944 34.8099 103.938C35.0268 103.926 35.1895 103.745 35.1834 103.534C35.1714 103.324 34.9906 103.155 34.7798 103.161C34.5629 103.173 34.4002 103.354 34.4062 103.565Z" fill="#3D3D3D"/>
</g>
</g>
<g id="Group_281">
<g id="Group_282">
<path id="Vector_135" d="M34.4126 103.565C34.4186 103.775 34.5994 103.938 34.8102 103.926C35.0211 103.914 35.1838 103.739 35.1717 103.528C35.1657 103.318 34.985 103.155 34.7741 103.167C34.5692 103.179 34.4066 103.354 34.4126 103.565Z" fill="#3C3C3C"/>
</g>
</g>
<g id="Group_283">
<g id="Group_284">
<path id="Vector_136" d="M34.4246 103.565C34.4306 103.769 34.6053 103.932 34.8102 103.92C35.015 103.914 35.1777 103.739 35.1656 103.534C35.1596 103.33 34.9849 103.167 34.78 103.179C34.5752 103.185 34.4125 103.36 34.4246 103.565Z" fill="#000072"/>
</g>
</g>
<g id="Group_285">
<g id="Group_286">
<path id="Vector_137" d="M34.4303 103.565C34.4363 103.763 34.611 103.92 34.8098 103.914C35.0086 103.908 35.1653 103.733 35.1593 103.534C35.1532 103.336 34.9785 103.179 34.7797 103.185C34.5809 103.191 34.4242 103.366 34.4303 103.565Z" fill="#383838"/>
</g>
</g>
<g id="Group_287">
<g id="Group_288">
<path id="Vector_138" d="M34.4364 103.565C34.4425 103.763 34.6112 103.914 34.81 103.908C35.0088 103.902 35.1594 103.733 35.1534 103.534C35.1474 103.336 34.9787 103.185 34.7799 103.191C34.581 103.203 34.4304 103.366 34.4364 103.565Z" fill="#373737"/>
</g>
</g>
<g id="Group_289">
<g id="Group_290">
<path id="Vector_139" d="M34.4424 103.565C34.4484 103.757 34.6171 103.908 34.8099 103.902C35.0027 103.896 35.1533 103.727 35.1473 103.534C35.1413 103.342 34.9786 103.191 34.7798 103.197C34.587 103.209 34.4364 103.372 34.4424 103.565Z" fill="#353535"/>
</g>
</g>
<g id="Group_291">
<g id="Group_292">
<path id="Vector_140" d="M34.4545 103.565C34.4605 103.751 34.6232 103.902 34.81 103.89C34.9967 103.884 35.1474 103.721 35.1353 103.534C35.1293 103.348 34.9666 103.197 34.7799 103.209C34.5931 103.215 34.4425 103.378 34.4545 103.565Z" fill="#000072"/>
</g>
</g>
<g id="Group_293">
<g id="Group_294">
<path id="Vector_141" d="M34.4607 103.565C34.4667 103.751 34.6234 103.896 34.8101 103.884C34.9969 103.878 35.1355 103.721 35.1294 103.534C35.1234 103.348 34.9668 103.203 34.78 103.215C34.5933 103.221 34.4547 103.378 34.4607 103.565Z" fill="#323232"/>
</g>
</g>
<g id="Group_295">
<g id="Group_296">
<path id="Vector_142" d="M34.4666 103.565C34.4727 103.745 34.6293 103.884 34.8101 103.878C34.9908 103.872 35.1294 103.715 35.1233 103.534C35.1173 103.354 34.9607 103.215 34.7799 103.221C34.5992 103.227 34.4606 103.384 34.4666 103.565Z" fill="#303030"/>
</g>
</g>
<g id="Group_297">
<g id="Group_298">
<path id="Vector_143" d="M34.4725 103.565C34.4785 103.739 34.6291 103.878 34.8039 103.872C34.9786 103.866 35.1172 103.715 35.1111 103.54C35.1051 103.366 34.9545 103.227 34.7798 103.233C34.6051 103.239 34.4665 103.384 34.4725 103.565Z" fill="#2E2E2E"/>
</g>
</g>
<g id="Group_299">
<g id="Group_300">
<path id="Vector_144" d="M34.4845 103.565C34.4906 103.739 34.6352 103.872 34.8099 103.866C34.9846 103.86 35.1172 103.715 35.1111 103.54C35.1051 103.366 34.9605 103.233 34.7858 103.239C34.6111 103.245 34.4725 103.39 34.4845 103.565Z" fill="#2D2D2D"/>
</g>
</g>
<g id="Group_301">
<g id="Group_302">
<path id="Vector_145" d="M34.4906 103.565C34.4966 103.733 34.6412 103.866 34.8099 103.854C34.9786 103.848 35.1111 103.703 35.0991 103.534C35.0931 103.366 34.9485 103.233 34.7798 103.245C34.6111 103.251 34.4846 103.396 34.4906 103.565Z" fill="#2B2B2B"/>
</g>
</g>
<g id="Group_303">
<g id="Group_304">
<path id="Vector_146" d="M34.4965 103.565C34.5025 103.727 34.6411 103.854 34.8038 103.848C34.9665 103.842 35.093 103.703 35.087 103.534C35.0809 103.372 34.9424 103.245 34.7797 103.251C34.617 103.257 34.4905 103.396 34.4965 103.565Z" fill="#292929"/>
</g>
</g>
<g id="Group_305">
<g id="Group_306">
<path id="Vector_147" d="M34.5027 103.565C34.5087 103.727 34.6473 103.848 34.8039 103.842C34.9666 103.836 35.0871 103.697 35.0811 103.54C35.0751 103.378 34.9365 103.257 34.7798 103.263C34.6232 103.269 34.4967 103.402 34.5027 103.565Z" fill="#282828"/>
</g>
</g>
<g id="Group_307">
<g id="Group_308">
<path id="Vector_148" d="M34.5147 103.565C34.5208 103.721 34.6533 103.842 34.81 103.836C34.9666 103.83 35.0871 103.697 35.0811 103.54C35.0751 103.384 34.9425 103.263 34.7859 103.269C34.6292 103.275 34.5087 103.408 34.5147 103.565Z" fill="#262626"/>
</g>
</g>
<g id="Group_309">
<g id="Group_310">
<path id="Vector_149" d="M34.5207 103.559C34.5267 103.709 34.6532 103.83 34.8099 103.824C34.9605 103.818 35.081 103.691 35.075 103.534C35.069 103.384 34.9424 103.263 34.7858 103.269C34.6291 103.281 34.5147 103.408 34.5207 103.559Z" fill="#242424"/>
</g>
</g>
<g id="Group_311">
<g id="Group_312">
<path id="Vector_150" d="M34.5268 103.558C34.5328 103.709 34.6594 103.824 34.804 103.812C34.9546 103.805 35.069 103.679 35.057 103.534C35.051 103.384 34.9245 103.269 34.7799 103.281C34.6353 103.287 34.5208 103.414 34.5268 103.558Z" fill="#232323"/>
</g>
</g>
<g id="Group_313">
<g id="Group_314">
<path id="Vector_151" d="M34.5326 103.559C34.5387 103.703 34.6592 103.812 34.8038 103.806C34.9484 103.8 35.0568 103.679 35.0508 103.534C35.0448 103.39 34.9243 103.281 34.7797 103.287C34.6411 103.293 34.5266 103.42 34.5326 103.559Z" fill="#212121"/>
</g>
</g>
<g id="Group_315">
<g id="Group_316">
<path id="Vector_152" d="M26.9835 115.693C27.1883 117.331 28.5982 118.651 30.1224 118.639C31.6528 118.621 32.7252 117.283 32.5203 115.638C32.3155 114 30.9057 112.68 29.3814 112.692C27.8511 112.71 26.7787 114.054 26.9835 115.693Z" fill="white"/>
</g>
</g>
<g id="Group_317">
<g id="Group_318">
<path id="Vector_153" d="M35.051 123.549C36.8886 126.435 39.3889 128.074 47.8478 129.7C56.9694 131.454 71.8386 137.545 85.274 127.567C93.0702 121.772 95.4138 110.602 95.4138 110.602L91.5338 105.354L81.3519 91.5751C78.725 96.2143 77.1525 104.3 71.7181 108.746C68.0189 111.77 56.9814 111.361 53.728 109.734C50.4806 108.107 49.3178 100.92 44.3232 105.824C45.0522 108.149 45.0522 109.493 43.781 110.095C40.0577 111.873 37.1055 110.168 33.9786 111.337C33.7617 111.415 33.5508 111.511 33.334 111.62C30.5866 113.018 33.0628 120.416 35.051 123.549Z" fill="white"/>
</g>
</g>
<g id="Group_319">
<g id="Group_320">
<path id="Vector_154" d="M35.051 123.549C36.8886 126.435 39.3889 128.074 47.8478 129.7C56.9694 131.454 71.8386 137.545 85.274 127.567C93.0702 121.772 95.4138 110.602 95.4138 110.602L92.9979 107.33C89.9553 118.223 83.0629 124.073 74.8691 126.164C52.4507 131.893 51.776 117.229 51.776 117.229C51.776 117.229 50.6252 124.736 41.3169 123.603C34.322 122.76 33.0809 115.488 33.9907 111.337C33.7738 111.415 33.5629 111.511 33.346 111.62C30.5866 113.018 33.0628 120.416 35.051 123.549Z" fill="#D8D8D8"/>
</g>
</g>
<g id="Group_321">
<g id="Group_322">
<path id="Vector_155" d="M80.9181 91.3281C80.3035 92.2318 79.8035 93.1958 79.3335 94.1537C78.8696 95.1177 78.4298 96.0877 78.002 97.0517C77.1405 98.9736 76.303 100.877 75.2969 102.655C74.2968 104.432 73.1219 106.089 71.6639 107.402C71.4892 107.571 71.2904 107.722 71.1096 107.884C70.9349 108.029 70.7722 108.137 70.5795 108.258C70.1999 108.487 69.7781 108.68 69.3323 108.842C68.4406 109.174 67.4646 109.397 66.4705 109.559C64.4823 109.873 62.4218 109.939 60.3794 109.854C59.3612 109.812 58.337 109.722 57.3429 109.571C56.8428 109.499 56.3488 109.409 55.8728 109.294C55.3969 109.186 54.9269 109.047 54.5233 108.884C54.4209 108.842 54.3245 108.8 54.2341 108.758C54.1497 108.716 54.0714 108.674 53.9931 108.619C53.8304 108.517 53.6677 108.39 53.5111 108.246C53.1918 107.957 52.8785 107.601 52.5652 107.216C51.9326 106.438 51.3422 105.547 50.5348 104.679C50.1251 104.245 49.6492 103.806 49.0045 103.48C48.6852 103.317 48.3177 103.191 47.9381 103.137C47.5586 103.083 47.167 103.095 46.8055 103.161C46.0765 103.299 45.486 103.625 44.9799 103.968C44.4678 104.318 44.0401 104.715 43.6304 105.119C43.3532 105.378 43.2629 105.764 43.3653 106.107L43.3713 106.137C43.5159 106.619 43.6485 107.107 43.7268 107.565C43.8051 108.017 43.8232 108.457 43.7509 108.716C43.7147 108.848 43.6725 108.921 43.6123 108.987C43.546 109.053 43.4737 109.113 43.305 109.192C42.8773 109.391 42.4375 109.547 41.9856 109.662C41.0819 109.897 40.1299 109.945 39.1118 109.915C38.0936 109.891 36.997 109.782 35.8101 109.872C35.2197 109.915 34.6112 110.023 34.0147 110.204C33.7195 110.294 33.4243 110.403 33.1411 110.535C32.9965 110.608 32.8821 110.65 32.6772 110.77C32.4965 110.879 32.3218 111.005 32.1712 111.156C31.8639 111.445 31.6349 111.788 31.4783 112.132C31.3216 112.469 31.2192 112.813 31.1529 113.138C31.0204 113.795 31.0084 114.409 31.0385 115C31.1048 116.187 31.3337 117.295 31.6289 118.374C31.9302 119.452 32.3037 120.494 32.7435 121.519C33.1893 122.537 33.6834 123.543 34.3401 124.513C34.9847 125.477 35.8222 126.387 36.7862 127.085C37.7501 127.79 38.7924 128.308 39.8347 128.73C40.877 129.152 41.9314 129.477 42.9857 129.767C44.0401 130.05 45.0944 130.297 46.1488 130.52C46.6729 130.628 47.2091 130.736 47.7273 130.839C48.2333 130.935 48.7455 131.05 49.2576 131.164C51.306 131.622 53.3665 132.164 55.4571 132.64C59.6384 133.586 63.9521 134.315 68.3442 134.249C70.5373 134.219 72.7363 133.984 74.8872 133.502C77.0441 133.026 79.1407 132.285 81.1289 131.321C82.123 130.839 83.087 130.297 84.0148 129.7C84.9426 129.104 85.8343 128.477 86.7019 127.76C88.425 126.326 89.889 124.633 91.1302 122.82C92.3652 120.994 93.3774 119.042 94.1727 117.018C94.5764 116.006 94.9198 114.976 95.215 113.927C95.5042 112.879 95.7512 111.831 95.8958 110.734C95.9319 110.457 95.7391 110.204 95.462 110.168C95.221 110.138 94.9921 110.282 94.9198 110.505L94.9137 110.529C93.5762 114.469 91.829 118.319 89.4854 121.681C88.3105 123.356 86.961 124.904 85.4005 126.188C84.6294 126.814 83.7738 127.417 82.9063 127.959C82.0387 128.507 81.141 129.001 80.2192 129.447C78.3756 130.333 76.4296 130.996 74.4293 131.429C72.4291 131.863 70.3746 132.074 68.3141 132.086C64.1811 132.128 60.0541 131.411 55.9512 130.453C53.8967 129.983 51.8422 129.453 49.7395 128.977C49.2154 128.857 48.6852 128.748 48.149 128.64L46.6006 128.333C45.5764 128.116 44.5582 127.881 43.5641 127.61C41.5819 127.061 39.6178 126.399 38.0996 125.29C37.3404 124.736 36.7199 124.067 36.1777 123.266C35.6354 122.476 35.1836 121.567 34.7799 120.639C34.3762 119.711 34.0328 118.747 33.7557 117.777C33.4846 116.813 33.2737 115.825 33.2195 114.885C33.1893 114.415 33.2074 113.963 33.2797 113.572C33.352 113.18 33.5026 112.885 33.6532 112.74C33.7376 112.662 33.7798 112.632 34.0268 112.517C34.2256 112.427 34.4305 112.349 34.6413 112.276C35.0631 112.144 35.5029 112.06 35.9728 112.023C36.9067 111.939 37.9369 112.023 39.0455 112.047C40.148 112.078 41.3409 112.011 42.4977 111.704C43.0761 111.553 43.6424 111.343 44.1726 111.083C44.4859 110.939 44.8594 110.698 45.1486 110.367C45.4438 110.035 45.6366 109.613 45.727 109.228C45.9017 108.451 45.8114 107.806 45.7089 107.216C45.5945 106.625 45.4378 106.083 45.2691 105.553L45.0161 106.571C45.3655 106.24 45.733 105.926 46.1006 105.691C46.4681 105.45 46.8416 105.282 47.1549 105.233C47.4742 105.185 47.7273 105.227 48.0285 105.378C48.3237 105.535 48.6491 105.812 48.9563 106.155C49.5829 106.842 50.1553 107.722 50.8421 108.595C51.1855 109.035 51.5651 109.481 52.029 109.903C52.2579 110.113 52.517 110.312 52.8002 110.499C52.9387 110.589 53.0954 110.674 53.246 110.752C53.3906 110.824 53.5412 110.891 53.6798 110.951C54.2522 111.18 54.8064 111.337 55.3547 111.469C55.903 111.602 56.4512 111.698 56.9995 111.782C58.09 111.945 59.1805 112.047 60.271 112.096C62.4459 112.192 64.6329 112.102 66.8139 111.74C67.9044 111.553 69.0009 111.3 70.0854 110.885C70.6276 110.674 71.1639 110.421 71.688 110.095C71.9471 109.933 72.2182 109.74 72.4411 109.541C72.652 109.354 72.8749 109.174 73.0737 108.975C74.7306 107.426 76.0018 105.565 77.032 103.643C78.0563 101.715 78.8515 99.7086 79.5685 97.7144C80.2975 95.7262 80.9301 93.726 81.7796 91.8522V91.8462C81.8941 91.5932 81.7796 91.2919 81.5266 91.1775C81.3217 91.0509 81.0566 91.1293 80.9181 91.3281Z" fill="#371A45"/>
</g>
</g>
<g id="Group_323">
<g id="Group_324">
<path id="Vector_156" d="M79.8394 131.749C80.2009 131.749 80.5443 131.556 80.725 131.219C86.5812 120.223 72.236 108.927 71.6215 108.451C71.1817 108.113 70.5551 108.192 70.2117 108.631C69.8743 109.071 69.9526 109.698 70.3924 110.041C70.531 110.15 84.0086 120.772 78.9537 130.279C78.6947 130.767 78.8814 131.375 79.3694 131.64C79.52 131.713 79.6767 131.749 79.8394 131.749Z" fill="#371A45"/>
</g>
</g>
<g id="Group_325">
<g id="Group_326">
<path id="Vector_157" d="M67.6754 163.024C67.6754 163.024 73.3387 167.379 77.8935 165.138C83.1472 162.56 83.5629 159.969 89.5455 158.294C104.668 154.053 108.789 141.985 105.632 123.856L97.6791 129.61C97.3537 128.923 96.9621 128.254 96.5042 127.622C93.1303 122.964 86.4307 120.217 81.1047 123.525C72.8146 128.676 70.1637 145.78 70.1637 145.78L68.7297 155.758L67.6754 163.024Z" fill="white"/>
</g>
</g>
<g id="Group_327">
<g id="Group_328">
<path id="Vector_158" d="M67.6754 163.024C67.6754 163.024 73.3387 167.38 77.8935 165.138C83.1472 162.56 83.5629 159.969 89.5455 158.294C104.668 154.053 108.789 141.985 105.632 123.856L97.6791 129.61C97.3537 128.923 96.9621 128.254 96.5042 127.622C99.8601 132.924 99.8721 149.974 93.3773 150.715C87.3224 151.402 82.2073 137.605 82.2073 137.605C82.2073 137.605 81.8458 154.77 76.321 157.137C74.0316 158.119 71.23 157.186 68.7237 155.752L67.6754 163.024Z" fill="#D8D8D8"/>
</g>
</g>
<g id="Group_329">
<g id="Group_330">
<path id="Vector_159" d="M98.131 129.405C97.0405 126.899 95.1547 124.778 92.8472 123.284C91.6904 122.537 90.4192 121.952 89.0696 121.573C87.7201 121.205 86.2862 121.049 84.8583 121.193C83.4244 121.314 82.0146 121.796 80.7915 122.543C79.5564 123.272 78.49 124.206 77.5562 125.224C75.6945 127.278 74.3449 129.652 73.2243 132.08C72.1097 134.514 71.2422 137.039 70.5252 139.587C70.1697 140.864 69.8504 142.154 69.5733 143.449C69.4347 144.1 69.3082 144.75 69.1937 145.413L69.1515 145.672L69.1154 145.913L69.0431 146.395L68.9045 147.365L66.6693 162.873L66.585 163.463L67.0489 163.813C67.3802 164.06 67.6755 164.253 67.9948 164.458C68.3081 164.656 68.6274 164.843 68.9527 165.018C69.6034 165.373 70.2782 165.693 70.9771 165.958C71.6759 166.229 72.405 166.446 73.1581 166.59C73.9112 166.741 74.6944 166.807 75.4897 166.759C76.2849 166.711 77.0923 166.548 77.8454 166.247C78.0261 166.163 78.231 166.084 78.3936 166L78.8816 165.753C79.207 165.584 79.5263 165.403 79.8396 165.223C80.4722 164.849 81.0867 164.445 81.6772 164.018C82.2676 163.59 82.8279 163.138 83.3701 162.704C84.4546 161.825 85.4909 161.041 86.6597 160.451C87.2381 160.156 87.8466 159.903 88.4672 159.68C89.0998 159.451 89.7083 159.282 90.4252 159.077C93.1786 158.252 95.8777 157.071 98.2756 155.378C100.679 153.703 102.734 151.486 104.21 148.938C104.945 147.666 105.548 146.323 106.024 144.943C106.493 143.563 106.849 142.148 107.09 140.726C107.584 137.876 107.686 134.996 107.566 132.146C107.445 129.297 107.09 126.471 106.608 123.687C106.512 123.139 105.993 122.772 105.445 122.868C104.897 122.965 104.529 123.483 104.626 124.031C105.096 126.754 105.439 129.495 105.554 132.237C105.674 134.972 105.572 137.719 105.108 140.382C104.65 143.045 103.806 145.63 102.469 147.925C101.137 150.221 99.2998 152.203 97.1188 153.733C94.9378 155.27 92.4435 156.372 89.8468 157.155C89.2203 157.342 88.4792 157.541 87.7924 157.794C87.0995 158.041 86.4127 158.33 85.7439 158.668C84.4004 159.342 83.1954 160.258 82.117 161.138C81.0325 162.017 79.9782 162.819 78.8274 163.494C78.5382 163.662 78.249 163.825 77.9538 163.982L77.508 164.211C77.3574 164.283 77.2369 164.331 77.0983 164.397C76.5561 164.614 75.9777 164.735 75.3752 164.771C74.1702 164.843 72.905 164.56 71.694 164.096C71.0855 163.861 70.4951 163.584 69.9167 163.271C69.6275 163.114 69.3443 162.945 69.0672 162.771C68.7961 162.602 68.5009 162.403 68.2779 162.234L68.6575 163.174L70.8867 147.678L71.1638 145.762C71.2723 145.142 71.3928 144.509 71.5253 143.883C71.7904 142.63 72.1037 141.376 72.4471 140.141C73.14 137.671 73.9774 135.237 75.0378 132.93C76.0982 130.628 77.3754 128.411 79.0262 126.591C79.8516 125.688 80.7734 124.88 81.7916 124.29C82.2977 123.989 82.8339 123.76 83.3822 123.567C83.9305 123.368 84.4968 123.218 85.0812 123.127C86.244 122.934 87.455 123.001 88.6419 123.248C89.8227 123.507 90.9795 123.959 92.0519 124.573C92.5942 124.874 93.1063 125.224 93.6003 125.603C94.0943 125.977 94.5583 126.393 94.9981 126.838C95.8777 127.718 96.6248 128.736 97.2032 129.845L97.2092 129.851C97.3357 130.098 97.643 130.194 97.89 130.062C98.137 129.929 98.2334 129.646 98.131 129.405Z" fill="#371A45"/>
</g>
</g>
<g id="Group_331">
<g id="Group_332">
<path id="Vector_160" d="M83.0688 142.407C83.0688 142.407 82.5868 140.208 81.8337 135.291C80.1407 124.151 64.8196 120.265 61.3192 132.683C60.0359 137.237 71.6517 160.981 71.6517 160.981C71.6517 160.981 76.3993 154.962 80.4721 152.402C84.5389 149.829 83.0688 142.407 83.0688 142.407Z" fill="white"/>
</g>
</g>
<g id="Group_333">
<g id="Group_334">
<path id="Vector_161" d="M83.358 142.34C83.3219 140.937 83.2014 139.539 83.0689 138.153C82.9905 137.46 82.9243 136.767 82.8279 136.075C82.7797 135.725 82.7495 135.388 82.6893 135.032C82.629 134.665 82.5567 134.297 82.4724 133.93C82.1169 132.472 81.5205 131.074 80.6951 129.815C79.8757 128.556 78.8274 127.447 77.6284 126.537C76.4235 125.634 75.0619 124.929 73.6038 124.507C72.1519 124.079 70.5914 123.922 69.0611 124.127C67.5308 124.32 66.0246 124.892 64.7534 125.796C63.4761 126.694 62.4458 127.893 61.6988 129.218C61.3192 129.875 61.0059 130.568 60.7469 131.267L60.5601 131.797L60.3974 132.333C60.3733 132.405 60.3372 132.544 60.3131 132.665C60.2829 132.791 60.2769 132.899 60.2588 133.014C60.2347 133.237 60.2287 133.454 60.2287 133.659C60.2408 134.478 60.3673 135.207 60.5119 135.93C60.6625 136.647 60.8372 137.346 61.03 138.039C61.8313 140.792 62.8314 143.425 63.8798 146.04C64.9341 148.648 66.0367 151.233 67.2175 153.782C68.3924 156.336 69.5793 158.867 70.8565 161.379C71.0794 161.813 71.6096 161.987 72.0494 161.77C72.4772 161.554 72.6519 161.041 72.4531 160.608L72.4471 160.602C70.1034 155.553 67.8321 150.438 65.7535 145.287C64.7293 142.708 63.7472 140.099 62.9881 137.478C62.7953 136.822 62.6266 136.171 62.482 135.52C62.3434 134.876 62.235 134.219 62.2229 133.635C62.2169 133.49 62.2229 133.351 62.235 133.231C62.247 133.177 62.247 133.104 62.2591 133.062C62.2711 133.014 62.2711 132.978 62.3013 132.887L62.4459 132.417L62.6025 131.954C62.8254 131.345 63.0905 130.755 63.4098 130.2C64.0364 129.086 64.8739 128.116 65.886 127.399C66.8922 126.676 68.0791 126.212 69.3202 126.043C71.8145 125.694 74.4533 126.501 76.5199 128.037C77.5561 128.809 78.4659 129.755 79.1828 130.833C79.8998 131.911 80.43 133.11 80.7433 134.376C80.8216 134.689 80.8879 135.008 80.9421 135.334L81.1289 136.364C81.2494 137.057 81.406 137.743 81.5566 138.43C81.7193 139.117 81.894 139.798 82.0928 140.479C82.2917 141.16 82.5025 141.828 82.7797 142.497C82.8459 142.654 83.0207 142.726 83.1773 142.66C83.2918 142.587 83.3641 142.467 83.358 142.34Z" fill="#371A45"/>
</g>
</g>
<g id="Group_335">
<g id="Group_336">
<path id="Vector_162" d="M74.7425 166C74.7425 166 78.1646 165.849 80.0202 160.867C81.8759 155.884 79.6346 149.624 79.4057 143.786C79.0261 133.906 75.5799 128.218 67.1211 128.23C58.9152 128.242 60.319 140.304 61.3914 146.365C62.982 155.348 65.5305 165.958 74.7425 166Z" fill="#AFAFB2"/>
</g>
</g>
<g id="Group_337">
<g id="Group_338">
<path id="Vector_163" d="M62.0963 150.01C63.7772 157.987 66.7535 165.964 74.7485 166C74.7485 166 78.1706 165.849 80.0262 160.867C81.5565 156.758 80.3034 151.781 79.6888 146.889C79.7009 148.733 79.49 150.498 78.8755 152.137C76.815 157.668 73.0133 157.836 73.0133 157.836C67.6331 157.812 64.3014 154.553 62.0963 150.01Z" fill="#959596"/>
</g>
</g>
<g id="Group_339">
<g id="Group_340">
<path id="Vector_164" d="M80.641 159.3C81.1652 159.3 81.605 158.897 81.6411 158.366C81.6773 157.812 81.2616 157.33 80.7073 157.294L64.1932 156.143C63.6449 156.101 63.1569 156.523 63.1208 157.077C63.0846 157.631 63.5003 158.113 64.0546 158.149L80.5687 159.3C80.5928 159.3 80.6169 159.3 80.641 159.3Z" fill="#371A45"/>
</g>
</g>
<g id="Group_341">
<g id="Group_342">
<path id="Vector_165" d="M80.3275 152.36C80.8517 152.36 81.2915 151.956 81.3276 151.426C81.3638 150.872 80.9481 150.39 80.3938 150.353L62.1807 149.088C61.6264 149.052 61.1445 149.468 61.1083 150.022C61.0722 150.576 61.4879 151.058 62.0422 151.095L80.2552 152.36C80.2854 152.36 80.3034 152.36 80.3275 152.36Z" fill="#371A45"/>
</g>
</g>
<g id="Group_343">
<g id="Group_344">
<path id="Vector_166" d="M79.4357 145.208C79.9598 145.208 80.3996 144.804 80.4358 144.274C80.4719 143.72 80.0562 143.238 79.5019 143.202L60.9515 141.907C60.3972 141.87 59.9152 142.286 59.8791 142.84C59.8429 143.395 60.2586 143.877 60.8129 143.913L79.3634 145.208C79.3875 145.208 79.4116 145.208 79.4357 145.208Z" fill="#371A45"/>
</g>
</g>
<g id="Group_345">
<g id="Group_346">
<path id="Vector_167" d="M78.3334 137.514C78.8575 137.514 79.2974 137.111 79.3335 136.581C79.3697 136.026 78.9539 135.544 78.3997 135.508L60.8192 134.285C60.2649 134.249 59.7829 134.665 59.7468 135.219C59.7106 135.773 60.1263 136.255 60.6806 136.291L78.2611 137.514C78.2852 137.514 78.3093 137.514 78.3334 137.514Z" fill="#371A45"/>
</g>
</g>
<g id="Group_347" opacity="0.7">
<g id="Group_348">
<g id="Group_349">
<g id="Group_350">
<path id="Vector_168" d="M61.3855 146.305C60.6867 140.057 60.9819 132.032 67.6815 132.02C74.357 132.008 77.9117 135.556 79.2974 141.913C78.5623 133.189 75.0318 128.218 67.1272 128.23C58.9455 128.242 60.3191 140.22 61.3855 146.305Z" fill="white"/>
</g>
</g>
</g>
</g>
<g id="Group_351">
<g id="Group_352">
<path id="Vector_169" d="M74.7667 167H74.7908C74.9595 166.994 78.8997 166.753 80.9662 161.21C82.2917 157.643 81.6771 153.528 81.0747 149.546C80.7855 147.624 80.4842 145.63 80.4119 143.738C79.9842 132.622 75.6463 127.218 67.1573 127.218C67.1453 127.218 67.1332 127.218 67.1212 127.218C64.9221 127.224 63.1568 127.995 61.8856 129.52C59.3913 132.496 58.9093 138.063 60.4035 146.534C61.6627 153.667 64.0063 166.952 74.7365 167H74.7667ZM67.1633 129.23C74.5498 129.23 78.0201 133.731 78.4057 143.822C78.484 145.823 78.7913 147.871 79.0865 149.847C79.6709 153.745 80.2252 157.433 79.0804 160.511C77.5622 164.59 74.9896 164.964 74.7064 164.994C66.3861 164.927 63.9822 155.252 62.3856 146.19C60.6866 136.544 62.0121 132.502 63.4279 130.815C64.3136 129.754 65.5246 129.236 67.1272 129.236C67.1392 129.23 67.1513 129.23 67.1633 129.23Z" fill="#371A45"/>
</g>
</g>
<g id="Group_353">
<g id="Group_354">
<path id="Vector_170" d="M74.7667 167H74.7908C74.9595 166.994 78.8997 166.753 80.9662 161.21C82.2917 157.643 81.6771 153.528 81.0747 149.546C80.7855 147.624 80.4842 145.63 80.4119 143.738C79.9842 132.622 75.6463 127.218 67.1573 127.218C67.1453 127.218 67.1332 127.218 67.1212 127.218C64.9221 127.224 63.1568 127.995 61.8856 129.52C59.3913 132.496 58.9093 138.063 60.4035 146.534C61.6627 153.667 64.0063 166.952 74.7365 167H74.7667ZM67.1633 129.23C74.5498 129.23 78.0201 133.731 78.4057 143.822C78.484 145.823 78.7913 147.871 79.0865 149.847C79.6709 153.745 80.2252 157.433 79.0804 160.511C77.5622 164.59 74.9896 164.964 74.7064 164.994C66.3861 164.927 63.9822 155.252 62.3856 146.19C60.6866 136.544 62.0121 132.502 63.4279 130.815C64.3136 129.754 65.5246 129.236 67.1272 129.236C67.1392 129.23 67.1513 129.23 67.1633 129.23Z" fill="#371A45"/>
</g>
</g>
<g id="Group_355" opacity="0.7">
<g id="Group_356">
<g id="Group_357">
<g id="Group_358">
<path id="Vector_171" d="M38.4611 98.0699C37.6718 97.612 18.9647 98.2747 18.0489 98.6663C17.1271 99.064 39.2503 98.5278 38.4611 98.0699Z" fill="white"/>
</g>
</g>
</g>
</g>
<g id="Group_359">
<g id="Group_360">
<path id="Vector_172" d="M10.1201 55.7997V67.7771C10.1201 72.368 13.8735 76.1215 18.4645 76.1215H23.8085L25.7545 85.7311H29.0802C29.6465 85.7311 30.2069 85.4298 30.478 84.8213L34.3519 76.1154H39.696C44.2869 76.1154 48.0464 72.362 48.0464 67.771V55.7937C48.0464 51.2028 44.2869 47.4493 39.696 47.4493H18.4645C13.8796 47.4553 10.1201 51.2148 10.1201 55.7997Z" fill="#AFAFB2"/>
</g>
</g>
<g id="Group_361">
<g id="Group_362">
<path id="Vector_173" d="M25.7546 86.4902H29.0803C29.9961 86.4902 30.7974 85.972 31.1649 85.1346L34.84 76.8806H39.696C44.7147 76.8806 48.7996 72.8017 48.7996 67.7831V55.8057C48.7996 50.787 44.7147 46.7082 39.696 46.7082H18.4645C13.4458 46.7082 9.361 50.787 9.361 55.8057V67.7831C9.361 72.8017 13.4458 76.8806 18.4645 76.8806H23.194L25.0135 85.8877C25.0918 86.2371 25.3991 86.4902 25.7546 86.4902ZM39.7021 48.2084C43.8893 48.2084 47.2934 51.6124 47.2934 55.7997V67.777C47.2934 71.9643 43.8893 75.3683 39.7021 75.3683H34.358C34.0628 75.3683 33.7917 75.543 33.6712 75.8142L29.7972 84.52C29.6044 84.9478 29.2068 84.9779 29.0863 84.9779H26.3751L24.5556 75.9708C24.4833 75.6214 24.1761 75.3683 23.8146 75.3683H18.4705C14.2833 75.3683 10.8793 71.9643 10.8793 67.777V55.7997C10.8793 51.6124 14.2833 48.2084 18.4705 48.2084H39.7021Z" fill="#371A45"/>
</g>
</g>
<g id="Group_363">
<g id="Group_364">
<path id="Vector_174" d="M6.79456 55.7997V67.777C6.79456 72.3679 10.548 76.1214 15.1389 76.1214H20.483L24.3569 84.8273C24.8932 86.0383 26.6162 86.0383 27.1525 84.8273L31.0264 76.1214H36.3705C40.9614 76.1214 44.7148 72.3679 44.7148 67.777V55.7997C44.7148 51.2087 40.9553 47.4553 36.3705 47.4553H15.1389C10.548 47.4553 6.79456 51.2148 6.79456 55.7997Z" fill="white"/>
</g>
</g>
<g id="Group_365">
<g id="Group_366">
<path id="Vector_175" d="M6.79456 56.3298V67.777C6.79456 72.3679 10.548 76.1214 15.1389 76.1214H20.483L24.3569 84.8273C24.8932 86.0383 26.6162 86.0383 27.1525 84.8273L31.0264 76.1214H36.3705C40.9614 76.1214 44.7148 72.3679 44.7148 67.777V67.4939C43.6665 69.5664 41.0819 72.3378 34.7136 73.0668C22.1157 74.5128 7.48138 72.0848 6.79456 56.3298Z" fill="#D9D9D9"/>
</g>
</g>
<g id="Group_367">
<g id="Group_368">
<path id="Vector_176" d="M25.7548 86.4902C26.6706 86.4902 27.4719 85.972 27.8394 85.1346L31.5146 76.8806H36.3706C41.3893 76.8806 45.4741 72.8017 45.4741 67.7831V55.8057C45.4741 50.787 41.3893 46.7082 36.3706 46.7082H15.1391C10.1204 46.7082 6.03556 50.787 6.03556 55.8057V67.7831C6.03556 72.8017 10.1204 76.8806 15.1391 76.8806H19.9951L23.6702 85.1346C24.0438 85.972 24.8451 86.4902 25.7548 86.4902ZM36.3766 48.2084C40.5639 48.2084 43.9679 51.6124 43.9679 55.7997V67.777C43.9679 71.9643 40.5639 75.3683 36.3766 75.3683H31.0326C30.7374 75.3683 30.4663 75.543 30.3458 75.8142L26.4718 84.52C26.279 84.9478 25.8814 84.9779 25.7609 84.9779C25.6404 84.9779 25.2427 84.9418 25.0499 84.52L21.176 75.8142C21.0555 75.543 20.7843 75.3683 20.4891 75.3683H15.1451C10.9579 75.3683 7.55382 71.9643 7.55382 67.777V55.7997C7.55382 51.6124 10.9579 48.2084 15.1451 48.2084H36.3766Z" fill="#371A45"/>
</g>
</g>
<g id="Group_369">
<g id="Group_370">
<path id="Vector_177" d="M17.9705 60.1255C17.9705 60.4508 18.0066 60.7701 18.0729 61.0714C18.1392 61.3847 18.2416 61.6859 18.3681 61.9691C18.3741 61.9811 18.3802 61.9932 18.3862 61.9992C18.6091 62.4631 18.9284 62.8969 19.308 63.3066C21.0612 65.2104 24.158 66.6865 25.7666 69.1266C27.3752 66.6865 30.466 65.2165 32.2192 63.3126C32.6108 62.8909 32.9362 62.445 33.1651 61.963C33.1651 61.963 33.1651 61.957 33.1711 61.957C33.2977 61.6739 33.3941 61.3786 33.4603 61.0714C33.5266 60.7641 33.5627 60.4508 33.5627 60.1255C33.5627 57.6493 31.5565 55.643 29.0803 55.643C27.7729 55.643 26.592 56.2033 25.7726 57.101C24.9533 56.2033 23.7724 55.643 22.465 55.643C19.9828 55.643 17.9705 57.6493 17.9705 60.1255Z" fill="#E94E1B"/>
</g>
</g>
<g id="Group_371" opacity="0.7">
<g id="Group_372">
<g id="Group_373">
<g id="Group_374">
<path id="Vector_178" d="M42.0158 57.089C42.2388 53.7753 41.9857 51.4136 39.3348 50.2448C36.6537 49.0639 33.2015 49.2929 33.0991 50.4436C32.9846 51.7148 38.4492 49.7025 39.8047 55.4382C40.5699 58.7157 41.9255 58.4446 42.0158 57.089Z" fill="#AFAFB2"/>
</g>
</g>
</g>
</g>
<g id="Group_375" opacity="0.5">
<g id="Group_376">
<g id="Group_377">
<g id="Group_378">
<path id="Vector_179" d="M70.9708 46.0876C71.0431 49.7326 73.6699 52.6426 76.839 52.5944C80.0141 52.5402 82.5264 49.5459 82.4601 45.9008C82.3878 42.2558 79.761 39.3458 76.592 39.394C73.4169 39.4482 70.9045 42.4486 70.9708 46.0876Z" fill="white"/>
</g>
</g>
</g>
</g>
<g id="Group_379" opacity="0.5">
<g id="Group_380">
<g id="Group_381">
<g id="Group_382">
<path id="Vector_180" d="M75.5739 59.4025C75.7305 60.9027 76.9174 62.0052 78.2188 61.8787C79.5202 61.7462 80.448 60.4267 80.2913 58.9326C80.1347 57.4384 78.9478 56.3298 77.6464 56.4564C76.3451 56.5889 75.4112 57.9083 75.5739 59.4025Z" fill="white"/>
</g>
</g>
</g>
</g>
</g>
</g>
</g>
</g>
</g>
</g>
</svg>
