<svg width="133" height="299" viewBox="0 0 133 299" fill="none" xmlns="http://www.w3.org/2000/svg">
<g opacity="0.3">
<path d="M124.007 289.283C124.007 294.168 98.2666 298.12 66.504 298.12C34.7415 298.12 9.00098 294.159 9.00098 289.283C9.00098 284.398 34.7415 280.445 66.504 280.445C98.2666 280.445 124.007 284.406 124.007 289.283Z" fill="#371B45"/>
</g>
<path d="M98.72 237.491H34.2889C30.3896 237.491 27.2275 234.329 27.2275 230.43V176.631C27.2275 172.731 30.3896 169.569 34.2889 169.569H98.72C102.619 169.569 105.781 172.731 105.781 176.631V230.43C105.79 234.329 102.619 237.491 98.72 237.491Z" fill="white"/>
<g opacity="0.35">
<path d="M98.72 221.068H34.2889C30.3896 221.068 27.2275 217.906 27.2275 214.006V230.43C27.2275 234.329 30.3896 237.491 34.2889 237.491H98.72C102.619 237.491 105.781 234.329 105.781 230.43V214.006C105.79 217.906 102.619 221.068 98.72 221.068Z" fill="#371B45"/>
</g>
<path d="M98.719 238.512H34.2878C29.829 238.512 26.2051 234.889 26.2051 230.43V176.63C26.2051 172.172 29.829 168.548 34.2878 168.548H98.719C103.178 168.548 106.802 172.172 106.802 176.63V230.43C106.802 234.889 103.178 238.512 98.719 238.512ZM34.2878 170.582C30.957 170.582 28.2391 173.291 28.2391 176.63V230.43C28.2391 233.761 30.9481 236.478 34.2878 236.478H98.719C102.05 236.478 104.768 233.769 104.768 230.43V176.63C104.768 173.3 102.059 170.582 98.719 170.582H34.2878Z" fill="#371B45"/>
<path d="M50.8438 179.233L39.1372 199.102C39.1372 199.102 38.0624 198.783 36.2771 198.054V198.045C29.0648 195.088 10.2435 185.397 3.65295 162.863C2.89797 160.278 2.30286 157.525 1.90316 154.594C-2.68891 120.842 11.4692 102.367 29.5533 104.392C29.5533 104.392 12.6595 158.52 50.8438 179.233Z" fill="white"/>
<g opacity="0.35">
<path d="M39.5569 184.989C37.8871 190.105 36.3238 197.823 36.2794 198.045C29.0671 195.088 10.2458 185.397 3.65527 162.863C3.66416 162.872 3.66415 162.881 3.67303 162.89C16.4012 196.713 39.5569 184.989 39.5569 184.989Z" fill="#371B45"/>
</g>
<path d="M5.28138 155.802C3.11413 155.802 1.8884 155.615 1.74629 155.598C1.19559 155.509 0.813662 154.985 0.902483 154.434C0.991305 153.883 1.51535 153.501 2.06604 153.59C2.16375 153.608 12.1384 155.065 27.7888 148.971C28.3128 148.767 28.899 149.025 29.1033 149.549C29.3076 150.073 29.05 150.659 28.526 150.863C17.7253 155.065 9.61587 155.802 5.28138 155.802Z" fill="#371B45"/>
<path d="M39.1385 200.115C39.0408 200.115 38.9431 200.097 38.8454 200.071C38.5079 199.973 30.434 197.512 21.6673 190.7C13.5668 184.402 3.38785 173.051 0.891965 154.718C-1.78156 135.071 1.60254 119.287 10.4047 110.272C15.6275 104.925 22.2802 102.536 29.6613 103.362C29.9632 103.397 30.2297 103.566 30.3985 103.815C30.5672 104.072 30.6117 104.383 30.5139 104.676C30.4695 104.809 26.3393 118.275 26.89 134.049C27.6184 155.029 35.8432 169.933 51.3159 178.327C51.5558 178.46 51.7334 178.682 51.8133 178.949C51.8844 179.215 51.8489 179.499 51.7068 179.739L40.0001 199.609C39.8313 199.937 39.4938 200.115 39.1385 200.115ZM26.8723 105.254C21.161 105.254 16.0183 107.456 11.8703 111.711C3.63655 120.149 0.367911 135.728 2.91709 154.461C5.31527 172.074 15.0856 182.999 22.8664 189.065C29.8389 194.501 36.5005 197.113 38.6855 197.885L49.4507 179.624C34.0846 170.866 25.5932 155.145 24.8738 134.085C24.4208 120.735 27.2453 109.002 28.249 105.298C27.7782 105.262 27.3253 105.254 26.8723 105.254Z" fill="#371B45"/>
<path d="M82.1631 179.233L93.8698 199.102C93.8698 199.102 94.9445 198.783 96.7298 198.054V198.045C103.942 195.088 122.755 185.397 129.354 162.863C130.109 160.278 130.704 157.525 131.104 154.594C135.696 120.842 121.538 102.367 103.454 104.392C103.454 104.392 120.347 158.52 82.1631 179.233Z" fill="white"/>
<g opacity="0.35">
<path d="M93.4629 184.989C95.1327 190.105 96.696 197.823 96.7404 198.045C103.953 195.088 122.774 185.397 129.365 162.863C129.356 162.872 129.356 162.881 129.356 162.89C116.61 196.713 93.4629 184.989 93.4629 184.989Z" fill="#371B45"/>
</g>
<path d="M127.728 155.802C123.394 155.802 115.284 155.073 104.475 150.863C103.95 150.659 103.693 150.073 103.897 149.549C104.101 149.025 104.688 148.767 105.212 148.971C120.862 155.065 130.837 153.608 130.934 153.59C131.494 153.501 132.009 153.883 132.098 154.434C132.187 154.985 131.805 155.509 131.254 155.598C131.121 155.615 129.895 155.802 127.728 155.802Z" fill="#371B45"/>
<path d="M93.8696 200.115C93.5144 200.115 93.1768 199.928 92.9903 199.617L81.2925 179.748C81.1504 179.508 81.1149 179.224 81.1859 178.958C81.257 178.691 81.4346 178.469 81.6833 178.336C97.1649 169.933 105.381 155.038 106.109 134.058C106.66 118.284 102.53 104.818 102.485 104.685C102.397 104.392 102.441 104.081 102.601 103.823C102.77 103.566 103.036 103.406 103.338 103.37C110.719 102.544 117.372 104.934 122.595 110.281C131.397 119.296 134.781 135.08 132.107 154.727C129.611 173.051 119.432 184.411 111.332 190.709C102.565 197.521 94.5003 199.973 94.1539 200.079C94.065 200.106 93.9673 200.115 93.8696 200.115ZM83.5663 179.615L94.3315 197.877C96.5165 197.104 103.178 194.484 110.151 189.057C117.931 182.999 127.702 172.074 130.1 154.452C132.649 135.719 129.38 120.14 121.147 111.702C116.67 107.11 111.021 104.916 104.777 105.289C105.781 108.993 108.605 120.717 108.152 134.076C107.424 155.136 98.9325 170.857 83.5663 179.615Z" fill="#371B45"/>
<path d="M106.527 284.744C104.946 292.134 92.8126 292.871 79.3117 291.495C65.8108 290.127 69.8256 266.287 69.8256 241.923C69.8256 241.923 68.3156 242.181 66.5036 242.181C64.6917 242.181 63.1817 241.923 63.1817 241.923C63.1817 266.287 67.1876 290.127 53.6956 291.495C40.1947 292.862 28.0706 292.125 26.4807 284.744C25.9211 282.106 26.6583 279.903 27.8485 278.154V278.145C29.9802 275.009 33.5508 273.348 33.5508 273.348C31.0638 251.8 31.7478 232.695 33.3643 217.817C35.5316 197.912 39.3775 185.548 39.5641 184.989C39.5729 184.98 39.5729 184.971 39.5729 184.971L42.735 173.682L91.7822 175.476L93.461 184.971C93.461 184.971 105.381 222.311 99.4742 273.357C99.4653 273.357 108.108 277.363 106.527 284.744Z" fill="white"/>
<g opacity="0.35">
<path d="M53.6956 291.495C40.1947 292.862 28.0706 292.125 26.4807 284.744C25.9211 282.106 26.6583 279.903 27.8485 278.154C27.813 278.846 27.7774 286.014 41.7757 286.014C56.4934 286.014 58.7762 280.792 58.7762 271.146V252.351C58.7762 249.793 57.7458 247.332 55.8806 245.574C53.9532 243.744 51.5106 241.062 50.0361 238.024C49.7519 237.438 50.4713 236.878 50.9687 237.305C52.9672 239.037 56.6977 241.239 63.1817 241.932C63.1817 266.287 67.1964 290.127 53.6956 291.495Z" fill="#371B45"/>
</g>
<g opacity="0.35">
<path d="M79.3127 291.495C92.8136 292.862 104.938 292.125 106.528 284.744C107.087 282.106 106.35 279.903 105.16 278.154C105.195 278.846 105.231 286.014 91.2325 286.014C76.5148 286.014 74.2321 280.792 74.2321 271.146V252.351C74.2321 249.793 75.2625 247.332 77.1277 245.574C79.0551 243.744 81.4977 241.062 82.9721 238.024C83.2564 237.438 82.5369 236.878 82.0395 237.305C80.041 239.037 76.3105 241.239 69.8266 241.932C69.8266 266.287 65.8207 290.127 79.3127 291.495Z" fill="#371B45"/>
</g>
<g opacity="0.35">
<path d="M93.4521 184.989C93.6209 185.815 99.0123 211.493 88.3005 214.868H66.5037H44.7069C33.995 211.493 39.3776 185.806 39.5552 184.989C39.3776 185.557 35.5227 197.921 33.3555 217.826H39.12C40.7188 217.826 42.0067 219.123 42.0067 220.713C42.0067 224.932 45.4263 228.342 49.6364 228.342H66.5037H83.362C87.581 228.342 90.9918 224.923 90.9918 220.713C90.9918 219.123 92.2797 217.826 93.8785 217.826H99.643C97.4846 197.921 93.6386 185.557 93.4521 184.989Z" fill="#371B45"/>
</g>
<path d="M69.6831 240.919C70.589 240.84 71.5394 240.689 72.472 240.546C73.4047 240.395 74.3373 240.209 75.2699 240.005C76.2025 239.8 77.1085 239.525 78.0234 239.25C78.9294 238.957 79.8265 238.628 80.7236 238.264C80.768 238.246 80.8213 238.264 80.839 238.317C80.8568 238.353 80.839 238.397 80.8124 238.424C80.0574 239.054 79.2225 239.596 78.352 240.067C77.4816 240.529 76.5667 240.92 75.6519 241.284C74.7281 241.639 73.7955 241.959 72.8451 242.234C71.8947 242.518 70.9532 242.749 69.9406 242.945C69.3899 243.051 68.857 242.696 68.7415 242.145C68.6349 241.595 68.9902 241.062 69.5409 240.946C69.5765 240.937 69.612 240.937 69.6475 240.928L69.6831 240.919Z" fill="#371B45"/>
<path d="M63.0488 242.936C62.0451 242.74 61.1036 242.509 60.1443 242.225C59.1939 241.95 58.2613 241.63 57.3375 241.275C56.4227 240.911 55.5078 240.52 54.6374 240.058C53.7669 239.596 52.932 239.054 52.177 238.415C52.1415 238.379 52.1326 238.326 52.1681 238.29C52.1948 238.264 52.2392 238.255 52.2658 238.264C53.1718 238.628 54.06 238.957 54.966 239.25C55.8809 239.525 56.7868 239.792 57.7195 240.005C58.6521 240.209 59.5758 240.396 60.5174 240.547C61.45 240.689 62.4004 240.84 63.3063 240.92H63.3241C63.8837 240.973 64.3011 241.461 64.2479 242.021C64.1946 242.581 63.706 242.998 63.1465 242.945C63.1198 242.945 63.0843 242.936 63.0488 242.936Z" fill="#371B45"/>
<path d="M33.1611 272.416C34.2359 271.972 35.2662 271.687 36.3409 271.421C37.4068 271.154 38.4993 270.986 39.5918 270.87C40.6843 270.755 41.7946 270.701 42.9048 270.746C44.0151 270.799 45.1165 270.932 46.209 271.154C47.3015 271.376 48.3674 271.732 49.3888 272.185C50.4103 272.629 51.3873 273.197 52.2577 273.89C54.0342 275.231 55.3665 277.061 56.2636 279.006C56.2902 279.06 56.2636 279.113 56.2192 279.139C56.1748 279.157 56.1304 279.148 56.1037 279.113C55.4109 278.305 54.727 277.514 53.9542 276.83C53.5901 276.466 53.1726 276.164 52.7818 275.835C52.3555 275.551 51.9646 275.222 51.5205 274.983C51.0942 274.716 50.6501 274.476 50.1971 274.254C49.7352 274.05 49.2822 273.837 48.8115 273.677C47.87 273.331 46.8929 273.082 45.8981 272.931C44.9033 272.771 43.8996 272.7 42.8871 272.7C41.8745 272.691 40.8619 272.762 39.8494 272.895C38.8368 273.029 37.842 273.224 36.8472 273.455C35.8613 273.686 34.8487 273.988 33.9516 274.308L33.9072 274.325C33.3832 274.512 32.797 274.245 32.6104 273.712C32.4061 273.188 32.6637 272.62 33.1611 272.416Z" fill="#371B45"/>
<path d="M47.7627 259.839C38.5874 259.839 32.1035 256.748 31.6949 256.543C31.1886 256.295 30.9843 255.691 31.2241 255.184C31.4728 254.678 32.0768 254.474 32.5831 254.714C32.7252 254.785 46.9456 261.535 62.7824 254.696C63.2976 254.474 63.8927 254.714 64.1148 255.229C64.3368 255.744 64.097 256.339 63.5818 256.561C57.915 259.021 52.4791 259.839 47.7627 259.839Z" fill="#371B45"/>
<path d="M99.0739 274.299C98.1768 273.979 97.1642 273.677 96.1783 273.446C95.1835 273.215 94.1798 273.02 93.1761 272.886C92.1636 272.753 91.151 272.682 90.1384 272.691C89.1259 272.691 88.1222 272.762 87.1274 272.922C86.1326 273.064 85.1555 273.322 84.214 273.668C83.7344 273.828 83.2903 274.05 82.8284 274.245C82.3843 274.476 81.9313 274.707 81.505 274.974C81.0609 275.214 80.6701 275.542 80.2437 275.826C79.8529 276.146 79.4354 276.457 79.0713 276.821C78.2896 277.505 77.6146 278.296 76.9218 279.104C76.8863 279.148 76.8241 279.148 76.7797 279.113C76.7441 279.086 76.7353 279.033 76.753 278.997C77.6412 277.052 78.9825 275.231 80.7589 273.881C81.6293 273.197 82.6064 272.62 83.6278 272.176C84.6493 271.723 85.7151 271.376 86.8076 271.145C87.9001 270.915 89.0015 270.781 90.1118 270.737C91.2221 270.692 92.3235 270.746 93.4248 270.861C94.5173 270.977 95.6098 271.145 96.6757 271.412C97.7504 271.678 98.7808 271.963 99.8555 272.407C100.371 272.62 100.619 273.215 100.406 273.73C100.202 274.236 99.6335 274.485 99.1272 274.299H99.0739Z" fill="#371B45"/>
<path d="M85.2455 259.839C80.5291 259.839 75.0933 259.021 69.4176 256.57C68.9024 256.348 68.6626 255.753 68.8846 255.238C69.1067 254.722 69.7107 254.483 70.2169 254.705C86.0449 261.544 100.274 254.793 100.416 254.722C100.923 254.474 101.527 254.687 101.775 255.193C102.024 255.699 101.811 256.303 101.304 256.552C100.914 256.748 94.4208 259.839 85.2455 259.839Z" fill="#371B45"/>
<path d="M93.5932 184.927C95.0676 188.373 96.0891 191.979 96.9684 195.603C97.377 197.424 97.7944 199.245 98.1142 201.074L98.6294 203.819C98.7981 204.734 98.9314 205.657 99.0912 206.581L99.5353 209.344C99.6863 210.267 99.7929 211.191 99.9262 212.115C100.166 213.962 100.459 215.81 100.637 217.666C100.832 219.523 101.045 221.37 101.232 223.226L101.676 228.804L101.783 230.199L101.845 231.593L101.969 234.391C102.049 236.256 102.156 238.113 102.147 239.978L102.209 245.574C102.218 247.439 102.138 249.304 102.111 251.17C102.093 254.9 101.774 258.622 101.552 262.343C101.463 264.209 101.223 266.056 101.054 267.912L100.468 273.473L99.8818 272.434C100.921 272.949 101.8 273.517 102.68 274.174C103.55 274.832 104.367 275.578 105.096 276.413C105.824 277.257 106.463 278.198 106.925 279.246C107.405 280.285 107.663 281.449 107.716 282.604C107.76 283.767 107.591 284.904 107.192 286.023C106.783 287.133 106.108 288.155 105.264 288.963C103.559 290.58 101.445 291.415 99.3755 291.983C97.2882 292.525 95.1831 292.8 93.0869 292.942C90.9907 293.084 88.9034 293.084 86.8161 293.031C84.7377 292.969 82.6592 292.827 80.5986 292.64C80.0745 292.587 79.5771 292.552 79.0442 292.481C78.4846 292.383 77.9251 292.338 77.3833 292.152C76.273 291.885 75.2249 291.335 74.2834 290.677L73.6083 290.136C73.3863 289.958 73.1998 289.736 72.9955 289.532C72.578 289.132 72.2671 288.661 71.9207 288.217C71.3167 287.276 70.7838 286.299 70.4108 285.277C69.6203 283.243 69.1761 281.156 68.8741 279.068C68.2968 274.894 68.2258 270.737 68.2435 266.598C68.3146 258.329 68.8031 250.122 68.7942 241.923L69.9844 242.927C69.3716 243.025 68.8209 243.087 68.2346 243.131C67.6573 243.176 67.0711 243.202 66.4937 243.202C65.9075 243.202 65.3302 243.176 64.7528 243.131C64.1666 243.087 63.6159 243.025 63.0031 242.927L64.1933 241.923C64.1844 250.122 64.6729 258.329 64.7439 266.598C64.7617 270.728 64.6907 274.894 64.1133 279.068C63.8113 281.147 63.3672 283.243 62.5767 285.277C62.2037 286.299 61.6707 287.276 61.0667 288.217C60.7203 288.661 60.4095 289.141 59.992 289.532C59.7877 289.736 59.6101 289.958 59.3791 290.136L58.7041 290.677C57.7626 291.335 56.7145 291.894 55.6042 292.152C55.0624 292.338 54.4939 292.374 53.9433 292.481C53.4014 292.552 52.904 292.587 52.38 292.64C50.3105 292.827 48.2409 292.969 46.1625 293.031C44.0841 293.093 41.9879 293.084 39.8917 292.942C37.7955 292.8 35.6904 292.525 33.6031 291.983C31.5425 291.415 29.4196 290.571 27.7143 288.963C26.8793 288.155 26.1954 287.133 25.7868 286.023C25.3871 284.895 25.2184 283.767 25.2628 282.604C25.3161 281.449 25.5825 280.285 26.0533 279.246C26.5152 278.198 27.1547 277.248 27.883 276.413C28.6114 275.569 29.4285 274.832 30.299 274.174C31.1783 273.517 32.0576 272.949 33.0968 272.434L32.5106 273.473L31.9066 267.912C31.729 266.056 31.4803 264.209 31.3915 262.343C31.1694 258.622 30.823 254.9 30.8052 251.17C30.7697 249.304 30.6898 247.439 30.6898 245.574L30.7431 239.978C30.7342 238.113 30.8408 236.248 30.9118 234.382L31.0273 231.584L31.0806 230.19L31.1872 228.795L31.6135 223.217C31.7912 221.361 32.0043 219.505 32.1909 217.648C32.3685 215.792 32.6527 213.945 32.8925 212.097C33.0258 211.173 33.1324 210.25 33.2834 209.326L33.7364 206.563C33.8874 205.64 34.0295 204.725 34.1982 203.801L34.7134 201.048C35.042 199.209 35.4506 197.388 35.8414 195.567C36.0368 194.652 36.2855 193.755 36.5342 192.849L36.9073 191.499C37.0405 191.055 37.1915 190.611 37.3336 190.158C37.609 189.27 37.9199 188.382 38.2574 187.511C38.5949 186.632 38.9502 185.77 39.3765 184.927C39.4121 184.847 39.5098 184.811 39.5897 184.855C39.6519 184.891 39.6874 184.953 39.6785 185.024C38.6748 192.423 36.9339 199.573 35.8947 206.91L35.495 209.654C35.3529 210.569 35.2641 211.484 35.1486 212.408C34.9443 214.247 34.669 216.076 34.5091 217.915C34.3315 219.753 34.1449 221.592 33.9851 223.431L33.6031 228.964L33.5054 230.35L33.4432 231.735L33.3278 234.507C33.2478 236.354 33.1501 238.202 33.1501 240.049L33.088 245.592C33.088 247.439 33.159 249.287 33.1857 251.134C33.2212 254.829 33.4521 258.515 33.6387 262.21C33.7008 264.058 33.914 265.896 34.065 267.735L34.5269 273.26V273.304C34.5624 273.739 34.3137 274.13 33.9406 274.299C33.1324 274.698 32.2708 275.24 31.5069 275.818C30.7342 276.404 30.0236 277.052 29.4019 277.763C28.1584 279.184 27.3412 280.907 27.279 282.701C27.2346 283.589 27.3856 284.531 27.6787 285.339C27.9807 286.156 28.4692 286.894 29.1088 287.515C30.4055 288.759 32.2264 289.523 34.1094 290.038C36.0102 290.535 37.9998 290.802 40.0072 290.935C42.0145 291.068 44.0485 291.077 46.0737 291.015C48.1077 290.953 50.1417 290.811 52.1757 290.633C52.682 290.58 53.206 290.544 53.6857 290.482C54.1387 290.393 54.6183 290.367 55.0446 290.216C55.9417 290.011 56.7411 289.567 57.4784 289.061L58.0024 288.635C58.18 288.492 58.3222 288.315 58.482 288.155C58.8196 287.844 59.0683 287.444 59.3525 287.089C59.8588 286.299 60.3206 285.464 60.6493 284.549C61.3599 282.746 61.7773 280.783 62.0615 278.793C62.6122 274.805 62.6922 270.719 62.6744 266.625C62.6034 258.435 62.1237 250.201 62.1237 241.932C62.1237 241.373 62.5767 240.92 63.1452 240.92C63.1985 240.92 63.2518 240.92 63.305 240.929H63.3228C63.8113 241.008 64.362 241.071 64.8861 241.115C65.419 241.159 65.943 241.177 66.4671 241.177C66.9911 241.177 67.5241 241.151 68.0481 241.115C68.5722 241.071 69.1229 241.008 69.6114 240.929H69.6203C70.1709 240.84 70.695 241.213 70.7838 241.772C70.7927 241.826 70.7927 241.888 70.7927 241.932C70.8016 250.201 70.3131 258.435 70.242 266.625C70.2154 270.71 70.2953 274.805 70.8549 278.793C71.1391 280.774 71.5654 282.737 72.2671 284.549C72.6047 285.464 73.0665 286.299 73.5639 287.089C73.857 287.444 74.1057 287.853 74.4344 288.155C74.5943 288.315 74.7364 288.501 74.914 288.635L75.4381 289.061C76.1753 289.567 76.9747 290.011 77.8718 290.216C78.2981 290.367 78.7778 290.393 79.2307 290.482C79.7104 290.544 80.2433 290.589 80.7407 290.633C82.7747 290.82 84.8087 290.953 86.8427 291.015C88.8768 291.077 90.9019 291.068 92.9093 290.935C94.9166 290.802 96.9062 290.535 98.807 290.038C100.69 289.532 102.511 288.759 103.808 287.515C104.447 286.894 104.936 286.156 105.238 285.339C105.531 284.531 105.682 283.589 105.637 282.701C105.575 280.907 104.758 279.184 103.515 277.763C102.893 277.052 102.182 276.395 101.409 275.818C100.646 275.24 99.7841 274.698 98.9758 274.299C98.5761 274.112 98.354 273.704 98.3895 273.295V273.26L98.8692 267.735C99.0291 265.896 99.2422 264.058 99.3133 262.21C99.5087 258.515 99.7574 254.829 99.7929 251.134C99.8285 249.287 99.9084 247.439 99.9084 245.592L99.8551 240.049C99.864 238.202 99.7663 236.354 99.6863 234.507L99.5709 231.735L99.5176 230.35L99.4288 228.964L99.0646 223.431C98.9136 221.592 98.7182 219.753 98.5494 217.906C98.3984 216.058 98.132 214.229 97.9188 212.399C97.8033 211.484 97.7056 210.56 97.5724 209.646L97.1638 206.901C96.6486 203.242 95.9381 199.609 95.2719 195.976C94.5791 192.343 93.9041 188.71 93.2379 185.042V185.033C93.2201 184.953 93.2734 184.873 93.3622 184.855C93.4955 184.82 93.5665 184.855 93.5932 184.927Z" fill="#371B45"/>
<path d="M98.9232 215.001H34.0923C32.0583 215.001 30.4062 213.349 30.4062 211.315V211.253C30.4062 209.219 32.0583 207.567 34.0923 207.567H98.9232C100.957 207.567 102.609 209.219 102.609 211.253V211.315C102.609 213.349 100.957 215.001 98.9232 215.001Z" fill="white"/>
<g opacity="0.35">
<path d="M98.9233 211.91H34.0924C32.5914 211.91 31.3034 211.013 30.7261 209.734C30.5218 210.196 30.3975 210.711 30.3975 211.244V211.306C30.3975 213.34 32.0495 215.001 34.0836 215.001H98.9233C100.957 215.001 102.609 213.349 102.609 211.306V211.244C102.609 210.702 102.494 210.196 102.281 209.734C101.703 211.022 100.415 211.91 98.9233 211.91Z" fill="#371B45"/>
</g>
<path d="M98.9239 216.192H34.0931C31.4018 216.192 29.2168 214.007 29.2168 211.315V211.253C29.2168 208.562 31.4018 206.377 34.0931 206.377H98.9239C101.615 206.377 103.8 208.562 103.8 211.253V211.315C103.8 213.998 101.606 216.192 98.9239 216.192ZM34.0931 208.748C32.7164 208.748 31.5883 209.868 31.5883 211.253V211.315C31.5883 212.692 32.7075 213.82 34.0931 213.82H98.9239C100.301 213.82 101.429 212.701 101.429 211.315V211.253C101.429 209.876 100.31 208.748 98.9239 208.748H34.0931Z" fill="#371B45"/>
<path d="M81.5069 224.941H51.4941C47.7458 224.941 44.6992 221.903 44.6992 218.146V204.84C44.6992 201.092 47.7369 198.045 51.4941 198.045H81.5069C85.2551 198.045 88.3017 201.083 88.3017 204.84V218.146C88.3017 221.894 85.264 224.941 81.5069 224.941Z" fill="white"/>
<g opacity="0.35">
<path d="M81.5078 221.663H51.495C47.7468 221.663 44.7002 218.625 44.7002 214.868V218.146C44.7002 221.894 47.7379 224.94 51.495 224.94H81.5078C85.2561 224.94 88.3027 221.903 88.3027 218.146V214.868C88.3027 218.625 85.265 221.663 81.5078 221.663Z" fill="#371B45"/>
</g>
<path d="M59.9935 226.122C59.3362 226.122 58.8122 225.589 58.8122 224.941V214.371L54.5399 211.617C54.2023 211.395 53.998 211.022 53.998 210.623V198.045C53.998 197.388 54.531 196.864 55.1794 196.864C55.8278 196.864 56.3607 197.397 56.3607 198.045V209.974L60.633 212.728C60.9705 212.95 61.1748 213.323 61.1748 213.722V224.932C61.1748 225.589 60.6419 226.122 59.9935 226.122Z" fill="#371B45"/>
<path d="M81.7635 211.786C81.7635 214.637 79.4541 216.947 76.6029 216.947C73.7517 216.947 71.4424 214.637 71.4424 211.786C71.4424 208.935 73.7517 206.625 76.6029 206.625C79.4541 206.625 81.7635 208.935 81.7635 211.786Z" fill="#39A1FF"/>
<g opacity="0.35">
<path d="M76.6019 213.678C74.3192 213.678 72.3918 212.195 71.7079 210.152C71.5391 210.667 71.4414 211.218 71.4414 211.786C71.4414 214.637 73.7508 216.947 76.6019 216.947C79.4531 216.947 81.7625 214.637 81.7625 211.786C81.7625 211.218 81.6648 210.667 81.496 210.152C80.8121 212.204 78.8846 213.678 76.6019 213.678Z" fill="#371B45"/>
</g>
<g opacity="0.7">
<path d="M76.6028 208.704C79.0987 208.704 81.1771 210.472 81.6656 212.825C81.7367 212.488 81.7722 212.141 81.7722 211.786C81.7722 208.935 79.4629 206.626 76.6117 206.626C73.7605 206.626 71.4512 208.935 71.4512 211.786C71.4512 212.141 71.4867 212.488 71.5578 212.825C72.0196 210.48 74.1069 208.704 76.6028 208.704Z" fill="white"/>
</g>
<path d="M76.6027 218.137C73.1031 218.137 70.252 215.286 70.252 211.786C70.252 208.287 73.1031 205.435 76.6027 205.435C80.1023 205.435 82.9534 208.287 82.9534 211.786C82.9534 215.286 80.1023 218.137 76.6027 218.137ZM76.6027 207.807C74.4088 207.807 72.6235 209.592 72.6235 211.786C72.6235 213.98 74.4088 215.765 76.6027 215.765C78.7966 215.765 80.5819 213.98 80.5819 211.786C80.5819 209.592 78.7966 207.807 76.6027 207.807Z" fill="#371B45"/>
<path d="M81.5065 226.122H51.4938C47.0971 226.122 43.5176 222.542 43.5176 218.146V204.84C43.5176 200.444 47.0971 196.864 51.4938 196.864H81.5065C85.9032 196.864 89.4827 200.444 89.4827 204.84V218.146C89.4827 222.542 85.9121 226.122 81.5065 226.122ZM51.5026 199.227C48.4116 199.227 45.898 201.74 45.898 204.831V218.137C45.898 221.228 48.4116 223.741 51.5026 223.741H81.5154C84.6064 223.741 87.1201 221.228 87.1201 218.137V204.831C87.1201 201.74 84.6064 199.227 81.5154 199.227H51.5026Z" fill="#371B45"/>
<path d="M107.975 157.179C107.495 157.187 107.105 156.806 107.096 156.326L106.634 131.349C106.625 130.87 107.007 130.479 107.487 130.47C112.514 130.381 116.662 134.378 116.751 139.405L116.911 147.923C116.999 152.933 113.002 157.081 107.975 157.179Z" fill="white"/>
<path d="M107.965 157.356C107.397 157.356 106.926 156.894 106.917 156.326L106.455 131.349C106.446 130.772 106.908 130.292 107.486 130.283C107.548 130.283 107.601 130.283 107.654 130.283C112.69 130.283 116.838 134.334 116.936 139.397L117.096 147.915C117.194 153.031 113.099 157.267 107.983 157.365C107.974 157.356 107.965 157.356 107.965 157.356ZM107.654 130.639C107.601 130.639 107.548 130.639 107.486 130.639C107.104 130.648 106.81 130.958 106.81 131.34L107.272 156.317C107.281 156.699 107.601 157.019 107.974 156.992C112.886 156.903 116.812 152.826 116.723 147.915L116.563 139.397C116.483 134.538 112.495 130.639 107.654 130.639Z" fill="#371B45"/>
<g opacity="0.35">
<path d="M116.839 143.917L116.91 147.914C116.999 152.942 113.002 157.09 107.974 157.178C107.495 157.187 107.104 156.805 107.095 156.326L106.971 149.682C107.113 149.984 107.415 150.188 107.77 150.179L108.365 150.17C112.336 150.099 115.666 147.488 116.839 143.917Z" fill="#371B45"/>
</g>
<path d="M107.966 158.191C106.945 158.191 106.101 157.365 106.083 156.344L105.621 131.358C105.604 130.319 106.43 129.457 107.469 129.44C107.531 129.44 107.593 129.44 107.655 129.44C113.145 129.44 117.666 133.854 117.772 139.37L117.932 147.888C118.039 153.466 113.58 158.085 108.002 158.191C107.984 158.191 107.975 158.191 107.966 158.191ZM107.655 131.474L108.108 156.157C112.496 155.997 115.978 152.338 115.889 147.932L115.729 139.414C115.658 135 112.043 131.474 107.655 131.474Z" fill="#371B45"/>
<path d="M25.0326 131.98C25.5122 131.971 25.9031 132.353 25.9119 132.833L26.3738 157.809C26.3827 158.289 26.0008 158.68 25.5211 158.689C20.4938 158.777 16.3459 154.781 16.257 149.753L16.0972 141.235C16.0083 136.217 20.0053 132.069 25.0326 131.98Z" fill="white"/>
<path d="M25.3526 158.875C22.9367 158.875 20.6628 157.96 18.9131 156.273C17.1277 154.549 16.1152 152.24 16.0708 149.762L15.9109 141.244C15.8132 136.128 19.9079 131.891 25.024 131.793C25.6013 131.802 26.081 132.246 26.0898 132.824L26.5517 157.8C26.5606 158.378 26.0987 158.857 25.5214 158.866C25.4681 158.875 25.4059 158.875 25.3526 158.875ZM25.0329 132.158C20.121 132.246 16.1951 136.323 16.2839 141.235L16.4438 149.753C16.4882 152.134 17.4564 154.354 19.1706 156.006C20.8849 157.658 23.1587 158.555 25.5214 158.502C25.9033 158.493 26.1964 158.182 26.1964 157.809L25.7346 132.833C25.7257 132.451 25.4148 132.14 25.0329 132.158Z" fill="#371B45"/>
<g opacity="0.35">
<path d="M26.2519 150.881L26.3762 157.809C26.3851 158.289 26.0032 158.68 25.5235 158.689C22.8855 158.733 20.4874 157.658 18.7909 155.891C17.2631 154.301 16.3039 152.142 16.2594 149.753L16.1973 146.165C17.6806 149.291 20.8959 151.423 24.582 151.352L25.4969 151.334C25.8255 151.343 26.1009 151.148 26.2519 150.881Z" fill="#371B45"/>
</g>
<path d="M25.3526 159.71C22.7235 159.71 20.2365 158.706 18.3357 156.877C16.3906 155.003 15.2892 152.48 15.2448 149.78L15.0849 141.262C14.9783 135.684 19.4371 131.065 25.0151 130.959C26.0366 130.932 26.9159 131.767 26.9337 132.806L27.3955 157.792C27.4133 158.831 26.5873 159.692 25.5481 159.71C25.477 159.71 25.4148 159.71 25.3526 159.71ZM24.8997 133.001C20.5119 133.161 17.0301 136.821 17.1189 141.226L17.2788 149.744C17.3143 151.903 18.1936 153.919 19.748 155.42C21.2669 156.886 23.2476 157.685 25.3526 157.685C25.3526 157.685 25.3527 157.685 25.3615 157.685L24.8997 133.001Z" fill="#371B45"/>
<path d="M109.032 146.813C107.797 170.298 87.7593 188.328 64.2749 187.094C40.7905 185.859 22.7598 165.821 23.9944 142.337C25.229 118.852 45.2671 100.821 68.7515 102.056C92.2271 103.299 110.267 123.329 109.032 146.813Z" fill="white"/>
<path d="M66.5669 187.334C65.8031 187.334 65.0392 187.316 64.2664 187.271C40.7199 186.028 22.5736 165.865 23.8171 142.328C24.4211 130.923 29.4218 120.433 37.9131 112.794C46.4044 105.156 57.365 101.283 68.7608 101.878C80.1655 102.482 90.6553 107.483 98.294 115.974C105.933 124.466 109.814 135.417 109.21 146.822C108.606 158.227 103.606 168.717 95.1142 176.355C87.2002 183.488 77.1367 187.334 66.5669 187.334ZM66.4603 102.18C55.9794 102.18 46.0047 106 38.1529 113.061C29.7326 120.637 24.7764 131.038 24.1813 142.345C22.9555 165.688 40.9419 185.681 64.2842 186.907C75.5912 187.502 86.4541 183.656 94.8743 176.08C103.295 168.503 108.251 158.102 108.846 146.795C109.441 135.488 105.595 124.626 98.0186 116.205C90.4422 107.785 80.0411 102.829 68.7342 102.234C67.9792 102.198 67.2153 102.18 66.4603 102.18Z" fill="#371B45"/>
<g opacity="0.35">
<path d="M108.937 140.907C109.106 142.843 109.142 144.815 109.035 146.813C107.792 170.298 87.7623 188.328 64.2779 187.094C40.7935 185.85 22.7627 165.821 23.9973 142.337C24.0328 141.662 24.0861 140.986 24.1483 140.32C25.9247 161.167 42.8452 178.034 64.3312 179.171C87.1316 180.37 106.69 163.396 108.937 140.907Z" fill="#371B45"/>
</g>
<path d="M66.5674 188.168C65.7858 188.168 65.0042 188.151 64.2226 188.106C40.223 186.845 21.7215 166.283 22.9827 142.283C23.5956 130.656 28.7028 119.962 37.354 112.173C46.0141 104.383 57.1879 100.431 68.8057 101.043C80.4325 101.656 91.1266 106.755 98.9162 115.415C106.706 124.066 110.658 135.24 110.046 146.866C109.433 158.493 104.325 169.187 95.6742 176.977C87.6004 184.243 77.3415 188.168 66.5674 188.168ZM66.4609 103.015C56.1842 103.015 46.405 106.763 38.713 113.683C30.4615 121.108 25.5941 131.305 25.0167 142.39C24.4305 153.475 28.2054 164.124 35.6309 172.376C43.0564 180.627 53.2531 185.495 64.338 186.072C75.4318 186.65 86.0726 182.884 94.3242 175.458C102.576 168.033 107.443 157.836 108.02 146.751C108.607 135.666 104.832 125.016 97.4063 116.765C89.9808 108.513 79.7841 103.646 68.6992 103.068C67.9531 103.033 67.207 103.015 66.4609 103.015Z" fill="#371B45"/>
<path d="M108.837 147.479C108.526 155.313 105.533 162.481 100.674 168.335C97.0324 172.722 84.2865 176.95 66.5577 176.95C50.2323 176.95 34.0402 170.502 30.7626 165.874C26.3837 159.692 23.9678 152.329 24.2787 144.504C25.1047 123.782 44.379 112.288 67.7302 113.114C91.0725 113.922 109.663 126.757 108.837 147.479Z" fill="#371B45"/>
<g opacity="0.35">
<path d="M101.385 127.583C106.368 132.433 109.165 138.943 108.837 147.31C108.526 155.189 105.533 162.401 100.674 168.281C97.0324 172.696 84.1533 177.412 66.5578 176.941C60.3492 176.773 43.3576 174.499 39.1475 171.097C69.6132 172.891 86.9246 167.242 91.4456 161.771C97.6187 154.301 101.411 145.143 101.811 135.151C101.909 132.486 101.758 129.964 101.385 127.583Z" fill="#232323"/>
</g>
<path d="M105.924 129.457C105.657 129.457 105.391 129.351 105.195 129.155C105.151 129.111 105.106 129.058 105.071 128.996C97.4056 117.342 82.6968 109.446 67.6149 108.877C52.2843 108.309 37.4777 115.113 28.9864 126.651C28.9598 126.677 28.942 126.713 28.9154 126.739C28.5334 127.148 27.885 127.184 27.4764 126.802C27.0856 126.437 27.0412 125.833 27.3699 125.425C36.252 113.372 51.6981 106.257 67.686 106.852C83.3896 107.439 98.7113 115.681 106.741 127.841C107.061 128.267 106.989 128.88 106.572 129.226C106.386 129.377 106.155 129.457 105.924 129.457Z" fill="#371B45"/>
<g opacity="0.5">
<path d="M33.6674 155.669C33.6674 155.669 28.2937 135.266 39.0588 127.645C49.8329 120.016 64.9059 120.637 64.5151 121.623C64.5151 121.623 47.6745 125.167 40.6488 138.588C35.2306 148.954 33.6674 155.669 33.6674 155.669Z" fill="white"/>
</g>
<path d="M102.256 73.18C100.88 74.5213 100.258 76.4576 100.578 78.3495L105.969 109.792C106.786 114.562 101.786 118.195 97.5044 115.948L69.268 101.106C67.5715 100.217 65.5375 100.217 63.841 101.106L35.6047 115.948C33.6595 116.969 31.5633 116.774 29.929 115.823C27.9749 114.669 26.687 112.404 27.1311 109.801L32.5225 78.3584C32.8423 76.4665 32.2206 74.5301 30.8438 73.1889L7.99892 50.9214C4.53488 47.5462 6.44454 41.6662 11.232 40.9645L42.7992 36.3813C44.7 36.1059 46.3432 34.9157 47.1959 33.1926L61.3096 4.59206C63.4502 0.24869 69.6411 0.24869 71.7817 4.59206L85.8954 33.1926C86.7481 34.9157 88.3913 36.1059 90.2921 36.3813L121.859 40.9645C124.604 41.3642 126.407 43.4781 126.789 45.8408C127.064 47.5906 126.567 49.4825 125.092 50.9214L102.256 73.18Z" fill="#E94E1B"/>
<path d="M125.098 50.9125C126.572 49.4736 127.07 47.5817 126.794 45.8319C126.439 43.5936 124.805 41.5862 122.3 41.0355C122.389 41.3109 122.46 41.5951 122.504 41.8793C122.762 43.5048 122.3 45.2634 120.932 46.5958L99.7217 67.2734C98.4426 68.5169 97.8653 70.32 98.1673 72.0698L103.177 101.274C103.932 105.698 99.2865 109.082 95.3073 106.986L69.0871 93.2004C67.5061 92.3744 65.6231 92.3744 64.0421 93.2004L37.822 106.986C36.0189 107.936 34.0737 107.758 32.5548 106.87C30.734 105.795 29.5438 103.69 29.9613 101.274L34.9708 72.0698C35.2728 70.3111 34.6866 68.5169 33.4164 67.2734L12.1792 46.6046C10.5626 45.0325 10.2073 42.8741 10.8113 41.0355C6.3436 42.0126 4.64711 47.635 8.01345 50.9125L30.8583 73.18C32.2351 74.5212 32.8568 76.4576 32.5371 78.3495L27.1456 109.792C26.7015 112.395 27.9805 114.66 29.9435 115.814C31.5778 116.774 33.674 116.96 35.6192 115.939L63.8555 101.097C65.552 100.208 67.5861 100.208 69.2826 101.097L97.5189 115.939C101.8 118.186 106.801 114.553 105.984 109.783L100.592 78.3406C100.272 76.4487 100.894 74.5124 102.271 73.1712L125.098 50.9125Z" fill="#AB3C2A"/>
<g opacity="0.7">
<path d="M126.608 48.4611C126.599 48.4344 126.599 48.4078 126.599 48.39C126.235 46.0895 124.476 44.0289 121.794 43.638L91.0263 39.1703C89.1788 38.9039 87.5711 37.7403 86.7451 36.0616L72.9866 8.1716C70.8993 3.9437 64.8772 3.9437 62.781 8.1716L49.0226 36.0527C48.1965 37.7314 46.5889 38.895 44.7414 39.1614L13.9736 43.6292C9.31045 44.3131 7.4452 50.0421 10.8204 53.3374L30.8497 73.1801L8.00478 50.9125C4.54074 47.5373 6.4504 41.6573 11.2379 40.9556L42.805 36.3724C44.7058 36.0971 46.349 34.9069 47.2017 33.1838L61.3155 4.58321C63.4561 0.23984 69.6469 0.23984 71.7875 4.58321L85.9013 33.1838C86.7539 34.9069 88.3971 36.0971 90.2979 36.3724L121.865 40.9556C124.61 41.3553 126.413 43.4693 126.795 45.8319C126.928 46.6935 126.875 47.5906 126.608 48.4611Z" fill="white"/>
</g>
<path d="M100.221 117.946C99.0842 117.946 97.9384 117.671 96.8815 117.111L68.6451 102.269C67.3305 101.576 65.7673 101.576 64.4527 102.269L36.2164 117.111C33.7826 118.39 30.8959 118.186 28.6665 116.569C26.446 114.953 25.3535 112.27 25.8154 109.561L31.2068 78.1185C31.4555 76.653 30.9759 75.1697 29.91 74.1305L7.06513 51.8629C5.09329 49.9443 4.40048 47.1287 5.25317 44.5174C6.10586 41.906 8.31751 40.0319 11.0354 39.641L42.6026 35.0579C44.0682 34.8447 45.3383 33.9209 45.9956 32.5975L60.1093 3.99697C61.3262 1.53661 63.7866 0 66.54 0C69.2935 0 71.7539 1.52773 72.9707 3.99697L87.0844 32.5975C87.7417 33.9298 89.0119 34.8447 90.4774 35.0579L122.045 39.641C124.763 40.0407 126.983 41.906 127.827 44.5174C128.68 47.1287 127.978 49.9443 126.015 51.8629L103.188 74.1305C102.122 75.1697 101.642 76.653 101.891 78.1185L107.282 109.552C107.744 112.262 106.652 114.944 104.431 116.561C103.179 117.484 101.704 117.946 100.221 117.946ZM66.5489 99.0893C67.6947 99.0893 68.8405 99.3646 69.8886 99.9153L98.125 114.757C99.6793 115.575 101.447 115.441 102.868 114.411C104.289 113.381 104.955 111.737 104.662 110.005L99.2707 78.5627C98.871 76.2355 99.6438 73.864 101.331 72.2208L124.176 49.9532C125.429 48.7275 125.855 47.0044 125.313 45.3345C124.771 43.6647 123.412 42.5189 121.68 42.2702L90.1133 37.687C87.7773 37.3495 85.761 35.8839 84.7129 33.7699L70.5992 5.16941C69.8264 3.59727 68.3164 2.65577 66.5578 2.65577C64.808 2.65577 63.298 3.59727 62.5164 5.16941L48.4027 33.7699C47.3546 35.8839 45.3383 37.3495 43.0023 37.687L11.4351 42.279C9.70313 42.5277 8.34416 43.6735 7.80234 45.3434C7.26053 47.0132 7.68688 48.7364 8.93926 49.9621L31.7842 72.2297C33.4718 73.8729 34.2445 76.2444 33.8448 78.5715L28.4534 110.014C28.1602 111.746 28.8264 113.39 30.2476 114.42C31.6687 115.45 33.4362 115.575 34.9906 114.766L63.227 99.9242C64.2573 99.3646 65.4031 99.0893 66.5489 99.0893Z" fill="#371B45"/>
<path d="M3.67285 123.959C3.67285 123.959 10.3522 99.116 31.3408 94.4973C47.4086 90.9622 34.1919 127.406 16.9428 124.324L12.4307 120.762C9.54395 118.488 5.2894 119.669 3.98373 123.098C3.87714 123.373 3.77056 123.657 3.67285 123.959Z" fill="white"/>
<g opacity="0.35">
<path d="M25.9405 126.42C25.9405 126.42 17.6446 127.921 14.2871 123.018C14.2871 123.018 25.9583 119.42 31.1721 108.815C36.3948 98.2188 29.7421 93.5112 25.4342 96.4512C25.4342 96.4512 32.2735 92.9606 36.9455 95.5897C41.6175 98.2099 37.1587 117.209 25.9405 122.583V126.42Z" fill="#371B45"/>
</g>
<path d="M2.69454 123.684C3.25412 121.819 3.92917 120.069 4.66638 118.319C5.4036 116.578 6.22076 114.864 7.11786 113.194C8.91205 109.854 11.0171 106.657 13.5219 103.779C16.0355 100.91 18.9755 98.3432 22.3685 96.4691C24.065 95.5364 25.8592 94.7726 27.7333 94.2396C28.666 93.9643 29.6163 93.76 30.5756 93.5912C31.5171 93.4225 32.5652 93.2981 33.6133 93.3958C34.6614 93.4758 35.7717 93.7778 36.731 94.3995C37.6991 95.0124 38.4452 95.945 38.9071 96.922C39.8397 98.9205 39.9019 101.026 39.7331 102.989C39.5466 104.969 39.0581 106.87 38.4008 108.7C37.7346 110.529 36.9086 112.288 35.9049 113.94C34.919 115.601 33.7643 117.173 32.4586 118.612C31.8102 119.341 31.1174 120.025 30.3802 120.655C29.643 121.286 28.8791 121.899 28.0442 122.423C26.401 123.489 24.5713 124.306 22.6439 124.688C20.7253 125.078 18.7091 125.007 16.906 124.412C16.8527 124.395 16.8172 124.332 16.8349 124.27C16.8527 124.226 16.8971 124.19 16.9415 124.199C17.8741 124.235 18.789 124.181 19.6861 124.048C20.5743 123.906 21.4448 123.684 22.2797 123.373C23.9495 122.76 25.4861 121.854 26.8895 120.78C29.6963 118.612 31.9968 115.779 33.8087 112.697C34.7058 111.142 35.5052 109.535 36.127 107.856C36.7576 106.186 37.2284 104.463 37.4504 102.731C37.6547 101.017 37.6014 99.2403 36.9619 97.828C36.6421 97.1263 36.1714 96.549 35.5674 96.1493C34.9634 95.7407 34.2262 95.5187 33.4179 95.4387C32.6096 95.3588 31.7836 95.421 30.8954 95.5897C30.016 95.7407 29.1456 95.9272 28.284 96.1848C26.5698 96.6733 24.9088 97.375 23.3455 98.2366C20.2013 99.9686 17.43 102.376 15.0407 105.102C12.6514 107.847 10.6263 110.911 8.89429 114.145C8.03272 115.761 7.2422 117.413 6.52275 119.101C5.81217 120.779 5.14602 122.529 4.63973 124.226L4.63085 124.261C4.47098 124.794 3.90251 125.105 3.3607 124.936C2.83666 124.785 2.52578 124.217 2.69454 123.684Z" fill="#371B45"/>
<path d="M129.345 123.959C129.345 123.959 122.666 99.116 101.678 94.4973C85.6097 90.9622 98.8264 127.406 116.076 124.324L120.588 120.762C123.474 118.488 127.729 119.669 129.035 123.098C129.141 123.373 129.239 123.657 129.345 123.959Z" fill="white"/>
<g opacity="0.35">
<path d="M107.067 126.42C107.067 126.42 115.363 127.921 118.721 123.018C118.721 123.018 107.05 119.421 101.836 108.815C96.613 98.2189 103.266 93.5114 107.574 96.4514C107.574 96.4514 100.734 92.9607 96.0623 95.5898C91.3903 98.21 95.8491 117.209 107.067 122.583V126.42Z" fill="#371B45"/>
</g>
<path d="M128.369 124.235C127.854 122.529 127.188 120.789 126.486 119.11C125.767 117.422 124.976 115.761 124.115 114.154C122.383 110.929 120.357 107.856 117.968 105.112C115.579 102.385 112.808 99.9776 109.663 98.2456C108.091 97.3841 106.439 96.6824 104.716 96.1939C103.863 95.9363 102.984 95.7497 102.105 95.5987C101.216 95.4389 100.39 95.3767 99.5821 95.4566C98.7827 95.5366 98.0366 95.7586 97.4326 96.1672C96.8286 96.5669 96.3668 97.1531 96.0381 97.8459C95.3897 99.2582 95.3364 101.035 95.5496 102.749C95.7628 104.481 96.2424 106.204 96.873 107.874C97.4948 109.544 98.2942 111.16 99.1913 112.715C101.012 115.797 103.304 118.63 106.11 120.797C107.514 121.881 109.05 122.787 110.72 123.391C111.555 123.693 112.426 123.915 113.314 124.066C114.211 124.199 115.126 124.253 116.058 124.217C116.121 124.217 116.174 124.261 116.174 124.324C116.174 124.377 116.147 124.412 116.103 124.43C114.3 125.016 112.284 125.096 110.365 124.706C108.438 124.324 106.608 123.498 104.965 122.441C104.139 121.917 103.366 121.304 102.629 120.673C101.891 120.034 101.199 119.35 100.55 118.63C99.2446 117.191 98.0988 115.619 97.104 113.958C96.1003 112.297 95.2742 110.539 94.6081 108.718C93.9597 106.888 93.4712 104.987 93.2758 103.006C93.107 101.044 93.1692 98.9384 94.1018 96.9399C94.5726 95.954 95.3187 95.0303 96.2779 94.4174C97.2372 93.7957 98.3475 93.4937 99.3956 93.4137C100.444 93.3249 101.492 93.4404 102.433 93.6091C103.393 93.769 104.343 93.9822 105.276 94.2575C107.141 94.7905 108.944 95.5543 110.64 96.487C114.033 98.3611 116.973 100.928 119.487 103.797C122.001 106.684 124.106 109.872 125.891 113.212C126.788 114.882 127.605 116.596 128.343 118.337C129.08 120.087 129.746 121.837 130.314 123.702C130.474 124.244 130.172 124.803 129.639 124.972C129.097 125.132 128.538 124.83 128.369 124.288V124.235Z" fill="#371B45"/>
<g opacity="0.5">
<path d="M89.8742 143.216C88.9771 147.284 90.638 151.103 93.5869 151.751C96.5358 152.4 99.6445 149.629 100.542 145.569C101.439 141.501 99.7777 137.682 96.8289 137.034C93.88 136.385 90.7713 139.157 89.8742 143.216Z" fill="white"/>
</g>
<g opacity="0.5">
<path d="M84.1887 157.223C83.5225 159.017 84.2331 160.927 85.7697 161.495C87.3063 162.064 89.0916 161.078 89.7578 159.284C90.4239 157.489 89.7133 155.58 88.1767 155.011C86.6312 154.443 84.8459 155.438 84.1887 157.223Z" fill="white"/>
</g>
<path d="M90.1102 52.2883L87.1133 47.3847L88.3699 47.113L90.5964 50.9921L91.0514 46.5333L92.2981 46.2638L91.5153 51.9845L90.1102 52.2883Z" fill="white"/>
<path d="M86.8955 52.9833C86.5129 53.066 86.1874 53.0776 85.9191 53.0183C85.6494 52.9523 85.4292 52.7962 85.2586 52.55C85.0946 52.3024 84.9681 51.9568 84.8791 51.5135L84.3796 49.0114L83.5485 49.1911L83.3773 48.3995L84.2053 48.0134L84.0625 46.4907L85.0223 46.2831L85.3432 47.7674L86.6889 47.4764L86.9028 48.4659L85.5571 48.7568L86.0941 51.2404C86.1311 51.4119 86.1783 51.5502 86.2355 51.6552C86.2913 51.7536 86.356 51.8294 86.4297 51.8825C86.5085 51.9276 86.587 51.9555 86.6653 51.9662C86.7435 51.9769 86.823 51.977 86.9035 51.9665L87.5815 51.8924L87.7761 52.7929L86.8955 52.9833Z" fill="white"/>
<path d="M76.6894 68.768C75.4141 69.0437 74.4207 68.3104 73.7092 66.5682C73.5244 66.0697 73.3531 65.4551 73.1952 64.7245C73.0606 64.102 72.9356 63.3982 72.8201 62.6131C72.5714 60.8976 72.4237 59.0945 72.377 57.2041L72.3662 56.8399C68.4023 58.2851 66.4096 59.0101 66.388 59.0147C66.2929 59.0353 66.203 59.0276 66.1183 58.9916C65.9924 58.9328 65.9155 58.8386 65.8875 58.7089C65.8669 58.6138 65.8785 58.5208 65.9222 58.4299C65.9649 58.3347 66.0428 58.2658 66.1558 58.2233L72.3705 55.9497C72.3943 53.0666 72.7323 51.0296 73.3844 49.8388C73.6015 49.4615 73.8644 49.1603 74.1732 48.9352C74.4771 48.7292 74.7609 48.5977 75.0246 48.5407C75.297 48.4818 75.5507 48.5039 75.7856 48.607C76.245 48.8063 76.5687 49.121 76.7567 49.5509C76.9438 49.9766 77.07 50.3407 77.1354 50.6433C77.3317 51.5512 77.2974 52.7532 77.0327 54.2495L81.7763 52.518C81.8714 52.4974 81.9618 52.5073 82.0474 52.5476C82.1776 52.6055 82.2567 52.6992 82.2847 52.8289C82.3053 52.924 82.292 53.0196 82.2449 53.1158C82.2012 53.2067 82.1233 53.2756 82.0113 53.3224L76.8393 55.2076C76.3662 57.31 75.4578 59.8482 74.1143 62.8221C74.2068 63.4175 74.3049 63.9551 74.4087 64.435C74.5545 65.1094 74.7119 65.6704 74.8811 66.118C75.1952 66.9008 75.5192 67.3738 75.8531 67.5369C76.187 67.7 76.4966 67.7507 76.782 67.6891C76.916 67.6601 77.0501 67.6107 77.1844 67.541C77.9306 67.1624 78.7508 66.3199 79.6449 65.0134L79.753 64.8543C79.8193 64.763 79.9043 64.7062 80.008 64.6838C80.1291 64.6576 80.2395 64.6767 80.3394 64.7411C80.4384 64.8011 80.4991 64.8831 80.5215 64.9868C80.5477 65.1079 80.5264 65.2188 80.4577 65.3196L80.3431 65.4802C79.8596 66.2997 79.3178 66.996 78.7177 67.5692C78.1219 68.1415 77.6522 68.4806 77.3086 68.5866C76.965 68.6925 76.7586 68.753 76.6894 68.768ZM76.1075 54.5852C76.4026 53.1458 76.4847 52.0081 76.3538 51.1721C76.3232 50.9886 76.3004 50.8623 76.2854 50.7932C76.1088 49.9761 75.8021 49.6148 75.3655 49.7092C75.2315 49.7381 75.0799 49.8116 74.9109 49.9296C74.7461 50.0467 74.6012 50.2138 74.4762 50.4309C74.2047 50.933 73.9994 51.6268 73.8605 52.5121C73.7249 53.3921 73.6475 54.384 73.6282 55.4878L76.1075 54.5852ZM73.9005 61.2053C74.8478 58.9732 75.5109 57.0899 75.8896 55.5555L73.6252 56.3844C73.629 57.9719 73.7208 59.5789 73.9005 61.2053Z" fill="white"/>
<path d="M67.4587 70.6823C66.9961 70.7823 66.5678 70.7686 66.1737 70.6411C65.4834 70.3786 65.0527 69.8517 64.8817 69.0606C64.7845 68.611 64.7782 68.1214 64.8628 67.5918C64.9635 66.9274 65.1636 66.3457 65.4629 65.8465C65.8541 65.228 66.302 64.7986 66.8067 64.5582C67.3156 64.317 67.7452 64.1585 68.0954 64.0828C68.372 64.023 68.6461 63.9931 68.9177 63.9932C69.8623 63.9881 70.3926 64.2536 70.5085 64.7896C70.6487 65.4381 70.1408 66.1656 68.9847 66.9721C68.3128 67.4432 67.3403 67.9476 66.0673 68.4853C66.0706 68.5841 66.0839 68.6876 66.1073 68.7956C66.1839 69.1501 66.3532 69.3783 66.615 69.48C66.9665 69.5986 67.2582 69.6397 67.4901 69.6031C67.7254 69.5613 67.8776 69.5329 67.9468 69.5179C68.5477 69.388 69.1993 69.1159 69.9017 68.7016C70.9062 68.136 72.1446 67.2709 73.6169 66.1064C73.6761 66.0665 73.736 66.0399 73.7965 66.0269C73.9608 65.9913 74.0999 66.0382 74.2138 66.1674C74.2581 66.2257 74.2872 66.2873 74.3013 66.3522C74.3349 66.5078 74.2849 66.643 74.1514 66.7579C72.6405 67.9534 71.3643 68.8424 70.3228 69.4251C69.9661 69.638 69.5445 69.8649 69.0581 70.1058C68.5717 70.3467 68.1933 70.5009 67.9228 70.5684C67.6523 70.636 67.4976 70.6739 67.4587 70.6823ZM66.1347 67.5408C68.0623 66.7032 69.2007 65.9616 69.5498 65.3159C69.6434 65.1418 69.6785 65.0008 69.6552 64.8927C69.6393 64.8192 69.5954 64.763 69.5237 64.7243C69.3707 64.6442 69.1471 64.636 68.8532 64.6995C68.4598 64.7846 68.0379 64.9889 67.5874 65.3126C67.1885 65.6024 66.8414 65.9852 66.546 66.4608C66.3619 66.7812 66.2248 67.1412 66.1347 67.5408Z" fill="white"/>
<path d="M61.8256 72.0021C61.0042 72.1797 60.4104 71.704 60.0441 70.575C59.8919 70.1011 59.762 69.6155 59.6545 69.1184L59.5494 68.632C59.4157 68.0138 59.2791 67.4551 59.1395 66.9558C58.8509 65.9141 58.4969 65.4385 58.0776 65.5292C57.9868 65.5488 57.8899 65.5924 57.7868 65.6599C57.4743 65.8678 57.0846 66.3887 56.6178 67.2227C55.8023 68.5575 55.0862 70.321 54.4696 72.5132C54.4523 72.6844 54.3927 72.8172 54.291 72.9116C54.1926 73.0007 54.0872 73.0575 53.9748 73.0818C53.9316 73.0911 53.8831 73.0971 53.8293 73.0996C53.6505 73.0885 53.5138 73.0321 53.4194 72.9303C53.3207 72.8295 53.2592 72.7229 53.2349 72.6105C53.2255 72.5672 53.2196 72.5187 53.217 72.465C53.223 72.3461 53.1723 71.6828 53.0651 70.4751C52.868 68.1194 52.7735 66.6669 52.7814 66.1176C52.7935 65.9431 52.8504 65.8086 52.9521 65.7142C53.0573 65.6145 53.1639 65.553 53.272 65.5296C53.3239 65.5184 53.3771 65.5137 53.4318 65.5154C53.6107 65.5265 53.7473 65.583 53.8418 65.6847C53.9405 65.7856 54.002 65.8922 54.0263 66.0046C54.0356 66.0478 54.0394 66.0968 54.0377 66.1515C54.0255 66.5976 54.1151 67.9538 54.3065 70.2203C54.7964 68.8654 55.3235 67.7243 55.8877 66.7968C56.5348 65.7293 57.0387 65.0773 57.3994 64.8409C57.7634 64.5993 58.0406 64.458 58.2308 64.4168C58.5075 64.357 58.7641 64.4033 59.0007 64.5558C59.7349 65.0216 60.3432 66.3698 60.8254 68.6005L60.8877 68.9196L60.9451 69.1855C61.1508 70.1366 61.3941 70.6655 61.6751 70.7722C61.8584 70.8457 62.0127 70.8688 62.1381 70.8417C62.3629 70.7931 62.6312 70.6424 62.9431 70.3894C63.6213 69.8219 64.2799 69.0483 64.9188 68.0685C64.9841 67.9729 65.0687 67.9139 65.1724 67.8915C65.2935 67.8653 65.4039 67.8844 65.5038 67.9488C65.6037 68.0132 65.6654 68.0994 65.6887 68.2075C65.7121 68.3156 65.6921 68.4217 65.6286 68.5259C64.9284 69.5778 64.2152 70.413 63.4892 71.0316C62.8211 71.5833 62.2665 71.9068 61.8256 72.0021Z" fill="white"/>
<path d="M42.7488 83.2264C42.6969 83.2376 42.6436 83.2423 42.5889 83.2406C42.411 83.2338 42.2722 83.1778 42.1725 83.0727C42.0781 82.9709 42.0192 82.866 41.9959 82.7579C41.9856 82.7104 41.9796 82.6619 41.978 82.6124C42.1507 77.3621 42.03 72.44 41.616 67.8459C41.3224 64.7508 40.9626 62.2176 40.5364 60.2463C40.2943 59.1266 40.0303 58.1882 39.7444 57.4309L39.7183 57.3415C39.6893 57.2075 39.7026 57.0802 39.7579 56.9597C39.8487 56.7726 40 56.6562 40.2119 56.6104C40.3459 56.5814 40.4732 56.5946 40.5938 56.65C40.9239 56.7958 41.3143 57.9106 41.7648 59.9943C42.4386 63.1113 42.8982 67.0054 43.1433 71.6766C44.7783 68.418 46.2442 65.6959 47.5411 63.5105C48.9978 61.0597 50.4321 58.9033 51.8442 57.0414C51.9157 56.9535 52.0033 56.8984 52.1071 56.8759C52.2238 56.8507 52.3335 56.8768 52.4362 56.9541C52.5265 57.016 52.582 57.0946 52.6025 57.1897C52.6296 57.315 52.6045 57.4291 52.5272 57.5318C51.1364 59.3665 49.7194 61.4987 48.2763 63.9285C46.8797 66.2803 45.2825 69.2638 43.4847 72.8789L55.8215 77.1963C55.9699 77.2547 56.06 77.3574 56.0917 77.5044C56.1076 77.5779 56.1014 77.6539 56.0732 77.7324C56.0191 77.8799 55.9185 77.9695 55.7715 78.0013C55.6937 78.0181 55.6139 78.015 55.5319 77.992L43.229 73.674C43.3314 76.4711 43.3327 79.4597 43.2328 82.6398C43.2208 82.8144 43.1639 82.9488 43.0621 83.0432C42.9613 83.142 42.8568 83.203 42.7488 83.2264Z" fill="white"/>
</svg>
