<svg width="368" height="484" viewBox="0 0 368 484" fill="none" xmlns="http://www.w3.org/2000/svg">
<path d="M338.739 160.638C338.739 160.638 346.826 167.169 349.914 187.381C353.001 207.593 358.915 240.677 358.915 240.677C358.915 240.677 360.364 274.391 330.877 274.106C301.391 273.821 306.676 247.185 306.676 247.185L315.19 182.714" fill="white"/>
<g opacity="0.3">
<path d="M338.739 160.638C338.739 160.638 346.826 167.169 349.914 187.381C353.001 207.593 358.915 240.677 358.915 240.677C358.915 240.677 360.364 274.391 330.877 274.106C301.391 273.821 306.676 247.185 306.676 247.185L315.19 182.714" fill="#371A45"/>
</g>
<path d="M331.244 275.899C331.114 275.899 330.983 275.899 330.852 275.899C321.174 275.804 314.001 272.966 309.524 267.456C302.791 259.179 304.703 247.945 304.905 246.912L313.407 182.488C313.538 181.514 314.429 180.826 315.402 180.956C316.376 181.087 317.065 181.977 316.934 182.951L308.42 247.422C308.42 247.458 308.408 247.494 308.396 247.541C308.372 247.648 306.425 258.039 312.291 265.223C316.067 269.855 322.314 272.242 330.864 272.325C338.369 272.384 344.402 270.14 348.784 265.615C357.251 256.875 357.144 242.268 357.109 240.867C356.705 238.575 351.088 207.011 348.119 187.654C345.198 168.535 337.645 162.086 337.574 162.027C336.814 161.397 336.707 160.281 337.324 159.521C337.942 158.761 339.058 158.642 339.818 159.26C340.174 159.545 348.475 166.456 351.634 187.119C354.686 207.082 360.564 240.048 360.624 240.38C360.636 240.463 360.647 240.535 360.647 240.618C360.683 241.318 361.265 257.825 351.337 268.085C346.373 273.263 339.593 275.899 331.244 275.899Z" fill="#371A45"/>
<path d="M360.22 227.187C354.995 229.728 349.592 231.569 343.987 232.626C341.612 233.065 339.177 232.84 336.933 231.961C334.273 230.928 331.055 229.633 331.755 229.764L320.284 206.702L311.662 189.352L334.558 177.489L342.336 174.555C344.64 173.689 347.205 173.914 349.331 175.149L352.537 177.037C355.363 178.688 357.382 181.431 358.142 184.614L359.9 192.012L359.923 192.072L365.564 215.822C366.621 220.382 364.448 225.133 360.22 227.187Z" fill="white"/>
<g opacity="0.3">
<path d="M360.221 227.187C354.996 229.728 349.593 231.569 343.987 232.626C341.612 233.065 339.178 232.84 336.933 231.961C334.273 230.928 331.055 229.633 331.756 229.764L320.284 206.702C321.519 200.753 322.956 195.777 322.956 195.777C341.957 229.146 359.888 192 359.888 192L359.912 192.06L365.553 215.81C366.622 220.382 364.449 225.133 360.221 227.187Z" fill="#371A45"/>
</g>
<path d="M330.116 218.898C336.517 255.023 332.907 288.571 312.909 317.938C308.622 324.232 301.568 328.139 293.944 328.27C288.196 328.377 282.354 327.379 276.452 325.242H276.44C273.15 324.066 269.825 322.534 266.488 320.646C265.515 320.1 264.541 319.518 263.555 318.912C261.679 338.008 241.134 344.052 234.389 325.242C233.974 324.09 233.653 322.914 233.404 321.715C232.513 317.368 232.703 312.856 233.855 308.545L239.579 287.169L240.018 285.542L212.028 286.16L205.805 291.551L188.111 316.763C185.748 320.123 182.15 322.463 178.088 323.08C175.963 323.401 173.433 323.448 170.512 322.962C164.717 321.988 159.444 318.983 155.49 314.637C151.155 309.887 146.927 305.137 143.614 300.256C136.691 290.043 133.805 279.26 142.403 266.886C142.403 266.886 153.186 254.037 171.426 267.717L182.625 254.524C181.639 254.75 180.642 254.928 179.656 255.07C179.656 255.07 179.644 255.058 179.644 255.07C167.982 256.757 156.974 252.695 154.29 241.77C153.305 237.756 153.435 232.804 155.086 226.866C156.285 222.567 159.183 218.874 163.185 216.903C166.154 215.43 169.942 214.765 174.217 216.772C174.217 216.772 181.675 207.26 189.762 223.755C196.851 225.833 203.228 224.871 209.035 221.439C198.728 201.334 192.03 182.631 205.615 171.848L315.189 129.774L349.948 144.25L351.088 144.725C351.088 144.725 344.913 171.337 322.944 189.376C324.286 193.817 325.509 198.223 326.601 202.593C327.991 208.068 329.166 213.507 330.116 218.898Z" fill="white"/>
<g opacity="0.3">
<path d="M223.037 178.142C240.624 185.706 292.294 193.651 312.815 152.171C315.237 147.266 316.555 141.887 316.864 136.424L317.672 122.09L288.268 113.837L248.533 125.13" fill="#371A45"/>
</g>
<g opacity="0.3">
<path d="M312.91 317.926C308.623 324.22 301.569 328.127 293.945 328.258C288.197 328.365 282.355 327.367 276.453 325.23C288.423 326.382 279.16 313.236 279.16 313.236C271.655 304.472 269.553 293.962 269.553 293.962C305.013 325.194 328.55 284.2 311.639 242.174C306.355 250.961 296.498 254.488 296.498 254.488L251.004 260.96L241.088 253.681L330.105 218.862C336.518 255.023 332.908 288.571 312.91 317.926Z" fill="#371A45"/>
</g>
<path d="M237.751 179.614C286.776 179.614 326.519 139.872 326.519 90.8463C326.519 41.821 286.776 2.07821 237.751 2.07821C188.725 2.07821 148.982 41.821 148.982 90.8463C148.982 139.872 188.725 179.614 237.751 179.614Z" fill="white"/>
<g opacity="0.3">
<path d="M326.52 90.8465C326.52 139.868 286.773 179.615 237.751 179.615C216.91 179.615 197.755 172.43 182.614 160.412C191.758 163.595 201.579 165.329 211.804 165.329C260.825 165.329 300.572 125.582 300.572 76.5605C300.572 48.3684 287.426 23.2521 266.941 6.98291C301.629 19.0601 326.52 52.0498 326.52 90.8465Z" fill="#371A45"/>
</g>
<path d="M310.345 110.916C298.6 167.953 221.874 181.503 186.723 163.5C180.607 161.279 173.577 152.883 167.699 144.333C160.526 133.906 155.075 123.242 155.075 123.242C148.971 90.8465 158.935 64.7326 184.253 46.3852C202.22 33.358 224.855 28.7385 246.729 32.5386C264.803 35.6737 279.493 42.4307 290.038 53.0592C295.062 58.1299 299.135 64.0914 302.187 70.9553L310.345 110.916Z" fill="#371A45"/>
<path d="M310.345 110.916C298.6 167.953 221.874 181.503 186.723 163.5C180.607 161.279 173.577 152.883 167.699 144.333C168.625 142.445 165.074 140.39 165.074 140.39C191.996 168.083 313.528 147.397 290.038 53.0589C295.062 58.1297 299.135 64.0911 302.187 70.955L310.345 110.916Z" fill="#020202"/>
<path d="M237.751 181.693C187.66 181.693 146.904 140.936 146.904 90.8463C146.904 40.7561 187.66 0 237.751 0C287.841 0 328.597 40.7561 328.597 90.8463C328.597 140.936 287.841 181.693 237.751 181.693ZM237.751 4.14449C189.952 4.14449 151.061 43.0362 151.061 90.8344C151.061 138.633 189.952 177.524 237.751 177.524C285.549 177.524 324.441 138.633 324.441 90.8344C324.441 43.0362 285.549 4.14449 237.751 4.14449Z" fill="#371A45"/>
<path d="M222.229 172.584C208.715 172.584 195.937 170.067 185.973 164.96C185.166 164.545 184.845 163.547 185.261 162.74C185.676 161.932 186.674 161.611 187.482 162.027C208.453 172.774 242.571 171.515 268.602 159.034C283.802 151.743 303.052 137.493 308.669 110.904L300.594 71.4539C291.64 51.3964 273.423 38.8442 246.443 34.1534C224.651 30.3652 202.338 35.3054 185.225 47.7151C160.299 65.7775 150.704 91.0838 156.701 122.933C156.867 123.824 156.285 124.691 155.383 124.857C154.48 125.035 153.625 124.442 153.459 123.539C150.371 107.127 151.345 92.1169 156.344 78.9472C161.356 65.7775 170.417 54.3653 183.29 45.0313C201.114 32.1109 224.343 26.957 247.013 30.8877C275.216 35.7922 294.288 49.0332 303.682 70.2663C303.729 70.3732 303.765 70.492 303.789 70.5988L311.959 110.559C312.006 110.773 312.006 110.999 311.959 111.224C306.164 139.345 285.952 154.356 270.015 161.991C255.408 169.022 238.296 172.584 222.229 172.584Z" fill="#371A45"/>
<path d="M334.748 85.9181C335.983 100.964 328.858 113.552 318.847 114.039C308.836 114.526 301.996 102.104 300.761 87.0462C299.526 72.0002 304.383 60.0061 314.394 59.5311C324.405 59.0561 333.525 70.872 334.748 85.9181Z" fill="white"/>
<g opacity="0.3">
<path d="M334.748 85.9181C335.983 100.964 328.858 113.564 318.847 114.039C310.855 114.419 304.87 106.569 302.162 95.7152C304.739 98.1378 307.779 99.4678 311.187 99.3016C321.198 98.8265 328.323 86.2387 327.088 71.1808C326.91 68.972 326.554 66.8344 326.055 64.8037C330.699 69.6132 334.036 77.2253 334.748 85.9181Z" fill="#371A45"/>
</g>
<path d="M318.312 116.129C308.123 116.129 300.096 104.372 298.694 87.2125C297.828 76.5366 299.929 67.452 304.478 62.2743C307.09 59.3055 310.475 57.643 314.299 57.4648C325.39 56.9542 335.508 69.6252 336.826 85.7637C337.622 95.4659 335.092 104.681 330.057 110.417C326.946 113.956 323.11 115.927 318.954 116.129C318.74 116.129 318.526 116.129 318.312 116.129ZM314.987 61.5974C314.821 61.5974 314.655 61.5975 314.489 61.6093C311.793 61.74 309.465 62.88 307.601 65.0175C303.789 69.352 302.055 77.3204 302.839 86.88C303.884 99.6698 309.679 112.4 318.752 111.961C321.756 111.818 324.583 110.334 326.934 107.662C331.233 102.769 333.382 94.7059 332.682 86.0963C331.565 72.4278 323.692 61.5974 314.987 61.5974Z" fill="#371A45"/>
<path d="M325.557 113.243C325.426 113.243 325.295 113.231 325.165 113.196C317.375 111.201 311.615 100.976 310.487 87.1531C309.311 72.7721 313.895 62.2506 322.172 60.3505C323.015 60.1605 323.859 60.683 324.049 61.5262C324.239 62.3693 323.716 63.2125 322.873 63.4025C316.211 64.9344 312.577 74.1615 313.61 86.8919C314.62 99.1828 319.572 108.529 325.937 110.156C326.78 110.369 327.279 111.224 327.065 112.068C326.899 112.768 326.257 113.243 325.557 113.243Z" fill="#371A45"/>
<g opacity="0.35">
<path d="M176.545 135.699C171.593 91.072 191.152 61.9774 238.867 50.7434C240.232 50.4227 240.339 48.5346 239.009 48.0595C224.248 42.7631 206.435 44.972 191.342 54.116C171.367 66.2288 160.549 89.4094 164.135 112.483C165.489 121.188 168.838 129.216 173.992 136.638C174.835 137.825 176.711 137.136 176.545 135.699Z" fill="white"/>
</g>
<g opacity="0.35">
<path d="M287.366 73.0452L290.335 77.8309C291.213 79.2441 291.415 81.0016 290.821 82.5573C289.444 86.203 286.653 88.6256 282.283 89.6588C280.122 90.1694 277.877 89.255 276.619 87.4262L273.293 82.5929C272.011 80.7285 272.011 78.2466 273.305 76.394C275.182 73.7102 277.652 71.5964 281.357 70.6345C283.672 70.0407 286.119 71.0145 287.366 73.0452Z" fill="white"/>
</g>
<g opacity="0.35">
<path d="M289.444 98.209C294.301 98.3753 298.113 102.508 297.792 107.353C297.436 112.768 296.438 118.124 294.8 123.432C293.529 127.553 289.361 130.035 285.157 129.109C280.846 128.147 278.032 123.943 278.875 119.608C279.73 115.167 280.288 110.773 280.49 106.45C280.704 101.712 284.706 98.0428 289.444 98.209Z" fill="white"/>
</g>
<path d="M150.656 75.4084C150.454 75.4084 150.252 75.3728 150.051 75.3015C149.112 74.969 148.626 73.9359 148.958 73.0096C154.967 56.0754 165.002 42.6444 178.777 33.0847C191.032 24.582 206.043 19.4756 222.205 18.3118C259.007 15.6755 294.906 33.251 309.524 61.0393C309.988 61.918 309.643 63.0106 308.764 63.4618C307.886 63.925 306.793 63.5806 306.342 62.7018C292.365 36.1248 257.879 19.345 222.454 21.8863C188.847 24.297 163.292 43.3688 152.342 74.1971C152.081 74.9453 151.392 75.4084 150.656 75.4084Z" fill="#371A45"/>
<path d="M227.396 180.659C226.493 180.659 225.757 179.935 225.745 179.033C225.733 178.118 226.458 177.37 227.372 177.358C273.128 176.764 305.654 152.871 314.406 113.457C314.608 112.566 315.487 112.008 316.378 112.198C317.268 112.4 317.827 113.279 317.637 114.169C313.171 134.298 302.365 151.078 286.381 162.704C270.646 174.152 250.256 180.351 227.42 180.648C227.408 180.659 227.396 180.659 227.396 180.659Z" fill="#371A45"/>
<path d="M359.364 111.557C358.426 112.804 357.796 114.241 357.571 115.784C355.956 126.781 353.794 136.566 351.087 145.093C344.033 144.024 337.502 142.314 331.6 139.832C326.6 137.754 322.04 135.117 317.979 131.875C321.197 123.349 323.216 114.538 323.417 105.287C316.316 97.9239 320.567 87.4618 326.683 86.013C327.503 82.0941 329.391 79.0421 332.455 76.9402C335.103 75.1233 338.345 74.387 341.551 74.6008C346.159 74.9095 349.947 75.9427 353.011 77.4984C367.226 84.6592 365.872 102.876 359.364 111.557Z" fill="white"/>
<path d="M351.099 146.874C351.016 146.874 350.921 146.862 350.837 146.85C337.015 144.772 325.591 140.2 316.874 133.265C316.268 132.778 316.043 131.971 316.316 131.246C319.629 122.494 321.363 114.217 321.624 105.964C318.299 102.175 317.135 97.1878 318.513 92.4852C319.605 88.7682 322.159 85.7994 325.187 84.6237C326.232 80.693 328.334 77.6173 331.457 75.4678C334.307 73.5084 337.941 72.5702 341.682 72.8196C355.291 73.734 361.157 80.503 363.698 86.0131C367.95 95.264 365.456 106.391 360.801 112.602C360.017 113.635 359.518 114.823 359.34 116.022C357.713 127.09 355.516 137.053 352.797 145.615C352.559 146.387 351.859 146.874 351.099 146.874ZM320.104 131.27C327.954 137.208 337.715 141.079 349.852 143.098C352.298 135.046 354.305 125.784 355.813 115.523C356.075 113.742 356.811 111.996 357.939 110.488C361.858 105.251 364.078 95.4184 360.445 87.5213C357.393 80.8711 350.814 77.0235 341.432 76.3941C338.487 76.2041 335.661 76.9166 333.464 78.4248C330.816 80.2417 329.165 82.8424 328.429 86.3931C328.286 87.07 327.764 87.6044 327.099 87.7588C324.819 88.2932 322.8 90.5495 321.933 93.5065C320.829 97.2591 321.85 101.107 324.712 104.076C325.044 104.42 325.222 104.871 325.211 105.346C325.021 113.837 323.346 122.34 320.104 131.27Z" fill="#371A45"/>
<path d="M326.565 84.3861C330.08 84.0179 333.631 84.778 336.73 86.4168C337.502 86.8324 338.25 87.2955 338.975 87.8181C339.687 88.3524 340.364 88.9462 340.982 89.5994C342.217 90.9175 343.285 92.5444 343.713 94.5276C343.915 95.5133 343.939 96.5821 343.689 97.5915C343.464 98.6009 342.965 99.5628 342.407 100.287C341.433 101.736 339.711 103.208 337.645 103.482C336.623 103.648 335.602 103.458 334.7 103.137C333.785 102.817 333.025 102.258 332.336 101.688C331.018 100.465 330.092 98.969 329.534 97.3896C329.415 97.0689 329.593 96.7127 329.914 96.5939C330.199 96.4989 330.496 96.6058 330.65 96.8552L330.662 96.8671C331.458 98.1615 332.443 99.3015 333.619 100.062C334.771 100.833 336.089 101.166 337.182 100.881C337.716 100.715 338.238 100.501 338.678 100.073C338.797 99.9903 338.903 99.8715 338.998 99.7528L339.307 99.4084C339.485 99.1234 339.711 98.8621 339.877 98.5771C340.602 97.4964 340.732 96.4158 340.447 95.2758C340.15 94.1357 339.402 93.0313 338.452 92.0575C337.49 91.0956 336.315 90.2762 335.056 89.5994C332.526 88.2812 329.641 87.5805 326.802 87.6637H326.779C325.876 87.6874 325.116 86.9868 325.092 86.0843C325.069 85.2055 325.722 84.4692 326.565 84.3861Z" fill="#371A45"/>
<path d="M342.491 97.2707C343.678 98.0901 345.008 98.7077 346.386 99.0283C347.763 99.3608 349.2 99.3608 350.518 98.9808C351.836 98.6008 353.024 97.817 353.938 96.7245C354.865 95.632 355.506 94.2663 355.945 92.8175L355.957 92.7819C356.112 92.295 356.634 92.01 357.121 92.1644C357.596 92.3069 357.869 92.7938 357.75 93.2688C357.358 94.9313 356.717 96.6057 355.648 98.0545C354.592 99.5152 353.048 100.703 351.29 101.32C349.533 101.95 347.633 102.057 345.851 101.748C344.058 101.439 342.36 100.774 340.828 99.8596C340.092 99.4202 339.842 98.4702 340.282 97.7339C340.721 96.9976 341.671 96.7482 342.407 97.1876C342.431 97.2233 342.467 97.247 342.491 97.2707Z" fill="#371A45"/>
<g opacity="0.3">
<path d="M359.365 111.557C358.427 112.804 357.798 114.241 357.572 115.785C355.957 126.781 353.796 136.566 351.088 145.093C344.034 144.024 337.503 142.314 331.601 139.832C331.91 139.547 332.23 139.286 332.586 139.025C347.977 127.826 345.02 105.75 345.02 105.75C334.451 108.077 330.995 98.684 330.995 98.684C341.065 99.2303 337.645 89.0531 337.645 89.0531L341.018 93.0551C349.746 99.6341 356.064 89.1244 353 77.4866C367.227 84.6593 365.873 102.876 359.365 111.557Z" fill="#371A45"/>
</g>
<path d="M247.892 338.732C242.37 338.732 235.838 335.419 232.454 325.93C230.435 320.29 230.233 314.091 231.86 307.999L237.311 287.68L212.848 288.226L207.385 292.964L189.81 317.974C187.09 321.845 182.922 324.458 178.397 325.147C175.773 325.538 172.994 325.503 170.168 325.028C164.064 324.007 158.304 320.824 153.946 316.062C141.738 302.702 126.55 286.077 140.693 265.722C140.729 265.675 140.765 265.616 140.812 265.568C140.931 265.426 152.426 252.137 171.082 264.927L177.447 257.433C169.016 258.098 161.582 255.795 156.903 250.878C153.151 246.936 149.445 239.478 153.103 226.332C154.481 221.356 157.829 217.247 162.283 215.05C166.023 213.198 169.954 212.96 173.742 214.338C175.049 213.21 177.388 211.702 180.416 212.022C184.383 212.438 188.005 215.799 191.211 222.009C196.567 223.387 201.519 222.924 206.281 220.584C196.472 201.097 189.869 181.716 204.333 170.221C205.236 169.509 206.542 169.651 207.255 170.554C207.967 171.456 207.825 172.762 206.922 173.475C195.059 182.904 199.927 199.09 210.9 220.501C211.399 221.475 211.055 222.674 210.105 223.233C203.621 227.068 196.579 227.923 189.18 225.762C188.622 225.596 188.159 225.204 187.898 224.681C185.345 219.468 182.542 216.44 180.001 216.155C177.637 215.882 175.856 218.055 175.844 218.079C175.239 218.827 174.206 219.064 173.339 218.661C170.275 217.224 167.175 217.259 164.111 218.767C160.715 220.442 158.162 223.601 157.093 227.436C154.611 236.355 155.585 243.468 159.908 248.004C164.575 252.909 172.899 254.595 182.162 252.505C183.041 252.315 183.931 252.695 184.395 253.455C184.858 254.215 184.775 255.189 184.205 255.878L173.006 269.071C172.294 269.903 171.059 270.045 170.18 269.392C154.291 257.481 144.933 267.195 144.042 268.181C132.796 284.474 142.783 297.679 157.01 313.248C160.739 317.321 165.655 320.052 170.845 320.919C173.244 321.323 175.583 321.358 177.768 321.026C181.176 320.515 184.323 318.532 186.401 315.575L204.119 290.364C204.214 290.221 204.333 290.102 204.464 289.984L210.687 284.592C211.055 284.272 211.518 284.094 212.005 284.082L239.995 283.464C240.648 283.429 241.277 283.749 241.681 284.26C242.085 284.77 242.227 285.447 242.049 286.077L235.886 309.079C234.473 314.352 234.639 319.696 236.373 324.541C238.843 331.464 243.593 335.193 249.056 334.516C254.364 333.863 260.527 328.638 261.501 318.722C261.572 318.01 262 317.38 262.653 317.059C263.294 316.739 264.054 316.774 264.672 317.154C274.611 323.33 284.456 326.358 293.933 326.192C300.82 326.061 307.28 322.546 311.211 316.763C333.632 283.844 336.826 242.364 320.973 189.958C320.735 189.15 320.996 188.283 321.638 187.749C342.823 170.364 349.022 144.499 349.082 144.238C349.343 143.122 350.459 142.433 351.575 142.682C352.692 142.943 353.392 144.06 353.131 145.176C352.882 146.268 346.742 171.836 325.343 190.065C332.836 215.229 335.959 237.317 334.902 257.564C333.691 280.745 327.065 300.873 314.643 319.102C309.952 325.99 302.233 330.194 294.004 330.348C284.563 330.526 274.873 327.807 265.147 322.273C263.223 331.156 257.131 337.699 249.566 338.637C249.008 338.696 248.45 338.732 247.892 338.732Z" fill="#371A45"/>
<path d="M211.981 186.039C212.789 189.756 213.691 193.461 214.677 197.13C215.674 200.8 216.755 204.434 218.038 207.961V207.973C218.346 208.828 217.907 209.766 217.052 210.075C216.197 210.383 215.259 209.944 214.95 209.089C214.938 209.041 214.914 208.994 214.902 208.946C213.905 205.182 213.133 201.406 212.468 197.617C211.803 193.829 211.221 190.053 210.746 186.241C210.699 185.896 210.948 185.588 211.28 185.54C211.625 185.505 211.91 185.718 211.981 186.039Z" fill="#371A45"/>
<path d="M182.614 256.151C182.234 256.151 181.842 256.02 181.533 255.747C180.856 255.153 180.785 254.12 181.391 253.443L183.92 250.558C186.829 247.256 190.63 244.976 194.917 243.979L221.114 237.839C221.992 237.637 222.871 238.184 223.073 239.062C223.275 239.941 222.729 240.82 221.85 241.022L195.653 247.161C192.031 248.004 188.825 249.928 186.366 252.719L183.837 255.605C183.516 255.961 183.065 256.151 182.614 256.151Z" fill="#371A45"/>
<path d="M209.641 243.836C209.546 243.836 209.463 243.824 209.368 243.812C208.477 243.658 207.872 242.815 208.026 241.924C210.08 229.74 207.515 222.045 207.492 221.962C207.195 221.107 207.646 220.181 208.501 219.884C209.356 219.587 210.282 220.038 210.579 220.893C210.698 221.237 213.453 229.384 211.256 242.47C211.126 243.266 210.425 243.836 209.641 243.836Z" fill="#371A45"/>
<path d="M180.784 225.239C181.223 225.869 181.639 226.534 181.995 227.234C182.351 227.947 182.672 228.636 182.874 229.574C183.028 230.488 182.993 231.462 182.696 232.376C182.375 233.279 181.853 234.11 181.176 234.799C180.487 235.476 179.632 235.975 178.706 236.307C177.779 236.652 176.734 236.711 175.737 236.557C175.226 236.485 174.751 236.319 174.276 236.129C174.039 236.034 173.837 235.903 173.611 235.785L173.291 235.595C173.196 235.535 173.124 235.476 173.029 235.405L172.044 234.657C171.723 234.383 171.414 234.087 171.105 233.802C169.918 232.602 168.861 231.094 168.35 229.336C167.816 227.591 167.863 225.714 168.291 224.064C169.158 220.739 171.022 218.09 172.97 215.692C173.54 214.991 174.561 214.884 175.274 215.442C175.974 216.012 176.081 217.034 175.523 217.746V217.758L175.499 217.782C173.706 219.967 172.103 222.366 171.485 224.847C171.177 226.071 171.165 227.294 171.509 228.386C171.854 229.491 172.566 230.5 173.492 231.367L174.217 232.008L175.012 232.602C175.072 232.65 175.155 232.709 175.202 232.745L175.369 232.828C175.476 232.875 175.582 232.958 175.689 233.006C175.915 233.089 176.129 233.196 176.366 233.231C177.269 233.469 178.361 233.22 179.204 232.59C179.62 232.27 179.976 231.866 180.226 231.391C180.475 230.916 180.594 230.381 180.618 229.811C180.629 229.277 180.475 228.541 180.309 227.864C180.131 227.175 179.917 226.486 179.691 225.786C179.584 225.453 179.763 225.097 180.095 224.99C180.333 224.919 180.629 225.026 180.784 225.239Z" fill="#371A45"/>
<path d="M179.584 234.431C180.261 236.473 180.226 238.682 179.632 240.63C179.038 242.589 177.934 244.347 176.437 245.7C174.965 247.042 173.017 247.992 170.963 248.04C169.942 248.076 168.932 247.886 168.006 247.517C167.08 247.149 166.26 246.615 165.536 245.997C165.275 245.772 165.239 245.38 165.465 245.119C165.678 244.869 166.035 244.834 166.296 245.012L166.308 245.024C167.673 245.997 169.288 246.52 170.832 246.306C172.376 246.116 173.801 245.261 174.858 244.097C175.927 242.934 176.651 241.461 176.948 239.953C177.245 238.445 177.102 236.901 176.521 235.583C176.152 234.751 176.532 233.79 177.352 233.421C178.183 233.053 179.145 233.433 179.513 234.253C179.537 234.3 179.549 234.348 179.572 234.395L179.584 234.431Z" fill="#371A45"/>
<path d="M176.83 324.85C176.189 324.85 175.571 324.47 175.31 323.828C174.966 322.985 175.369 322.035 176.213 321.703C180.048 320.147 182.15 317.796 182.613 314.518C184.537 300.957 158.97 276.256 155.894 273.786C151.607 271.233 147.937 270.52 144.969 271.672C140.634 273.358 139.043 278.572 139.019 278.631C138.758 279.498 137.855 279.985 136.988 279.735C136.121 279.486 135.623 278.572 135.884 277.717C135.967 277.443 137.915 270.936 143.757 268.644C147.736 267.088 152.414 267.884 157.651 271.031C157.948 271.209 187.257 297.323 185.95 314.15C185.57 319.055 182.708 322.617 177.448 324.743C177.234 324.814 177.032 324.85 176.83 324.85Z" fill="#371A45"/>
<path d="M172.579 266.364C174.622 268.371 176.332 270.615 177.804 272.943C179.277 275.282 180.536 277.716 181.652 280.186C181.806 280.531 181.652 280.935 181.308 281.089C180.999 281.232 180.631 281.113 180.453 280.828C179.039 278.571 177.508 276.398 175.809 274.391C174.123 272.396 172.271 270.567 170.24 269.059C169.444 268.466 169.278 267.349 169.872 266.565C170.466 265.77 171.582 265.604 172.366 266.197C172.425 266.245 172.484 266.292 172.544 266.352L172.579 266.364Z" fill="#371A45"/>
<path d="M205.484 293.285C204.903 293.285 204.38 292.869 204.261 292.276C201.91 279.759 196.483 270.603 188.55 265.794C182.565 262.16 177.186 262.243 177.138 262.243C177.126 262.243 177.114 262.243 177.114 262.243C176.437 262.243 175.891 261.709 175.867 261.032C175.856 260.343 176.39 259.773 177.079 259.761C177.316 259.749 183.123 259.642 189.702 263.597C195.711 267.195 203.537 275.021 206.696 291.824C206.826 292.501 206.375 293.154 205.698 293.273C205.639 293.273 205.556 293.285 205.484 293.285Z" fill="#371A45"/>
<path d="M138.77 292.81C138.307 292.81 137.855 292.62 137.523 292.24C136.941 291.551 137.012 290.518 137.701 289.936L157.592 272.871C158.281 272.289 159.314 272.361 159.896 273.05C160.478 273.738 160.407 274.771 159.718 275.353L139.827 292.418C139.53 292.679 139.15 292.81 138.77 292.81Z" fill="#371A45"/>
<path d="M146.12 305.374C145.668 305.374 145.217 305.184 144.897 304.816C144.303 304.139 144.362 303.106 145.039 302.512C145.039 302.512 150.573 297.631 156.119 292.751C158.898 290.304 161.676 287.87 163.766 286.041C167.768 282.55 167.757 282.55 168.481 282.597L168.374 284.224L169.324 285.554C168.528 286.172 155.656 297.501 147.188 304.97C146.892 305.232 146.512 305.374 146.12 305.374Z" fill="#371A45"/>
<path d="M154.22 314.886C153.733 314.886 153.258 314.673 152.937 314.257C152.379 313.544 152.498 312.523 153.21 311.965L174.669 295.078C175.382 294.52 176.403 294.639 176.961 295.351C177.519 296.064 177.4 297.085 176.688 297.643L155.229 314.53C154.932 314.768 154.576 314.886 154.22 314.886Z" fill="#371A45"/>
<path d="M165.916 323.365C165.477 323.365 165.026 323.187 164.705 322.831C164.099 322.166 164.147 321.133 164.812 320.527L181.497 305.279C182.162 304.674 183.195 304.721 183.812 305.386C184.418 306.051 184.371 307.084 183.706 307.69L167.021 322.938C166.712 323.223 166.32 323.365 165.916 323.365Z" fill="#371A45"/>
<path d="M239.592 273.631L242.727 275.626C243.819 276.196 244.864 276.85 245.969 277.396L247.631 278.168C248.189 278.417 248.736 278.702 249.306 278.904L251.016 279.557L251.871 279.89L252.749 280.151C253.913 280.495 255.065 280.887 256.253 281.113C257.428 281.386 258.604 281.695 259.803 281.885L261.585 282.241L263.39 282.502L265.195 282.764L267.024 282.906C271.892 283.286 276.845 283.001 281.749 282.324C286.654 281.623 291.522 280.519 296.332 279.153C296.664 279.058 297.009 279.248 297.104 279.581C297.199 279.89 297.021 280.222 296.724 280.341C291.986 282.099 287.129 283.571 282.141 284.592C277.153 285.625 272.035 286.16 266.869 286.041L264.934 285.994L262.998 285.816C262.357 285.744 261.703 285.709 261.062 285.614L259.15 285.269C258.521 285.127 257.868 285.044 257.25 284.865L255.374 284.307C254.115 283.975 252.928 283.429 251.716 282.965C246.919 280.994 242.513 278.132 238.82 274.617C238.57 274.38 238.558 273.988 238.796 273.738C239.01 273.513 239.342 273.489 239.58 273.643L239.592 273.631Z" fill="#371A45"/>
<path d="M239.911 287.597C239.222 287.597 238.581 287.157 238.355 286.469C238.07 285.614 238.534 284.687 239.401 284.402L252.178 280.186C253.033 279.901 253.96 280.365 254.245 281.232C254.53 282.087 254.067 283.013 253.2 283.298L240.422 287.514C240.256 287.573 240.089 287.597 239.911 287.597Z" fill="#371A45"/>
<path d="M280.633 316.454C280.039 316.003 279.457 315.539 278.875 315.053C278.59 314.815 278.293 314.578 278.02 314.316L277.225 313.521C276.714 312.974 276.156 312.452 275.681 311.87C275.218 311.288 274.731 310.694 274.28 310.101C272.475 307.678 271.014 304.994 269.969 302.168C268.9 299.353 267.998 296.48 267.368 293.546C266.727 290.601 266.311 287.656 266.228 284.569C266.204 283.666 266.917 282.918 267.819 282.894C268.722 282.87 269.47 283.583 269.494 284.485V284.521C269.565 287.264 269.957 290.102 270.551 292.846C271.156 295.601 271.976 298.308 273.068 300.897L273.947 302.809C274.244 303.438 274.576 304.056 274.885 304.685C275.17 305.327 275.515 305.932 275.847 306.55C276.192 307.155 276.465 307.82 276.845 308.402C278.198 310.872 279.849 313.153 281.5 315.563L281.524 315.599C281.714 315.884 281.642 316.276 281.357 316.466C281.144 316.62 280.847 316.608 280.633 316.454Z" fill="#371A45"/>
<path d="M269.671 323.579C269.029 323.579 268.483 323.092 268.436 322.439C267.438 310.908 273.839 307.025 274.1 306.87C274.694 306.526 275.454 306.728 275.798 307.322C276.143 307.915 275.953 308.676 275.359 309.02C275.121 309.162 270.051 312.381 270.906 322.237C270.965 322.926 270.454 323.52 269.777 323.579C269.742 323.579 269.706 323.579 269.671 323.579Z" fill="#371A45"/>
<path d="M262.57 320.396L254.15 313.414C253.865 313.176 253.818 312.749 254.055 312.452C254.269 312.202 254.625 312.131 254.899 312.286L264.553 317.428C265.42 317.891 265.753 318.971 265.289 319.85C264.826 320.717 263.734 321.05 262.867 320.586C262.76 320.539 262.653 320.468 262.57 320.396Z" fill="#371A45"/>
<path d="M302.673 236.889C299.906 240.44 296.818 243.231 293.303 245.107C275.134 249.216 255.302 252.22 234.33 254.453C229.699 254.952 225.364 252.078 223.999 247.613L222.098 241.402L214.451 216.487C213.845 214.516 214.106 212.379 215.175 210.609L219.201 203.947C220.198 202.296 221.802 201.097 223.69 200.646C244.103 195.682 264.577 192.297 285.109 190.623C287.27 190.445 289.372 190.955 291.177 191.989C292.733 192.879 294.075 194.174 295.013 195.789C300.63 205.313 303.694 216.559 304.976 228.968C305.261 231.807 304.418 234.645 302.673 236.889Z" fill="white"/>
<path d="M233.309 256.293C228.309 256.293 223.797 253.016 222.301 248.147L212.753 217.022C212.005 214.564 212.325 211.892 213.655 209.695L217.681 203.033C218.916 200.978 220.959 199.482 223.274 198.924C243.949 193.9 264.707 190.504 284.967 188.853C289.61 188.473 294.158 190.837 296.545 194.886C301.996 204.125 305.333 215.217 306.746 228.79C307.09 232.08 306.14 235.345 304.086 237.994C301.093 241.829 297.756 244.762 294.158 246.686C294.016 246.758 293.861 246.817 293.707 246.853C276.405 250.771 257.048 253.835 234.532 256.234C234.117 256.282 233.713 256.293 233.309 256.293ZM285.929 192.38C285.703 192.38 285.465 192.392 285.24 192.404C265.159 194.043 244.591 197.404 224.094 202.379C222.692 202.724 221.469 203.626 220.709 204.873L216.684 211.535C215.876 212.865 215.686 214.48 216.137 215.977L225.697 247.102C226.813 250.736 230.364 253.087 234.14 252.683C256.406 250.308 275.561 247.28 292.662 243.421C295.738 241.722 298.623 239.157 301.248 235.785C302.744 233.873 303.421 231.51 303.183 229.146C301.818 216.095 298.635 205.479 293.458 196.691C291.89 194.019 288.981 192.38 285.929 192.38Z" fill="#371A45"/>
<path d="M291.569 247.054C291.427 247.054 291.272 247.031 291.13 246.995C290.31 246.758 289.835 245.891 290.073 245.071C292.258 237.649 289.657 218.067 283.625 206.655C282.58 204.671 280.442 203.46 278.198 203.567C262.392 204.363 243.664 207.237 220.947 212.367C219.438 212.877 218.417 213.744 217.8 214.979C216.363 217.901 217.74 222.009 217.752 222.045C218.037 222.853 217.61 223.743 216.802 224.028C215.995 224.313 215.104 223.886 214.819 223.078C214.748 222.864 212.99 217.734 215.009 213.614C215.995 211.595 217.693 210.17 220.032 209.398C220.08 209.386 220.127 209.362 220.187 209.362C243.106 204.185 262.035 201.275 278.043 200.479C281.487 200.313 284.765 202.166 286.368 205.218C292.305 216.452 295.666 237.02 293.042 245.962C292.864 246.615 292.246 247.054 291.569 247.054Z" fill="#371A45"/>
<path d="M271.714 250.854C271.061 250.854 270.467 250.415 270.277 249.762L265.657 232.733C265.396 231.771 264.589 231.046 263.603 230.904L245.481 228.101C243.427 227.781 241.693 226.296 241.076 224.313L235.91 207.783C235.66 206.999 236.1 206.168 236.884 205.918C237.667 205.669 238.499 206.108 238.748 206.892L243.914 223.422C244.199 224.337 244.994 225.014 245.933 225.168L264.054 227.971C266.192 228.303 267.949 229.871 268.519 231.961L273.139 248.99C273.353 249.786 272.89 250.593 272.094 250.807C271.975 250.843 271.845 250.854 271.714 250.854Z" fill="#371A45"/>
<g opacity="0.3">
<path d="M302.673 236.889C299.906 240.44 296.818 243.231 293.303 245.107C275.134 249.216 255.302 252.22 234.33 254.453C229.699 254.951 225.364 252.078 223.999 247.613L222.099 241.402C261.81 250.154 280.941 236.462 281.701 202.712L291.154 191.977C292.709 192.867 294.051 194.162 294.989 195.777C300.606 205.301 303.67 216.547 304.953 228.956C305.262 231.806 304.418 234.645 302.673 236.889Z" fill="#371A45"/>
</g>
<path d="M331.506 222.081C322.529 226.546 313.29 228.683 303.789 228.493C301.925 228.458 300.298 227.235 299.787 225.441L299.645 224.978L299.265 215.894C298.564 213.459 298.529 210.918 301.046 210.55C308.896 209.398 315.403 206.417 322.35 203.947C323.36 203.591 324.357 203.223 325.343 202.831C327.73 201.893 330.402 203.27 330.996 205.776L333.739 217.319C334.202 219.231 333.264 221.202 331.506 222.081Z" fill="white"/>
<path d="M306.533 230.12C302.329 230.12 298.636 227.365 297.472 223.328L296.201 218.91C295.465 216.357 295.857 213.614 297.27 211.357C298.683 209.101 301.011 207.533 303.635 207.082C310 205.978 315.95 204.458 321.306 202.593C323.811 201.726 326.578 201.952 328.906 203.223C331.221 204.493 332.908 206.702 333.525 209.279L334.689 214.148C335.746 218.566 333.478 223.09 329.298 224.931C322.03 228.125 314.477 229.871 306.853 230.12C306.735 230.12 306.628 230.12 306.533 230.12ZM324.405 205.337C323.728 205.337 323.039 205.455 322.374 205.681C316.852 207.605 310.737 209.16 304.193 210.3C302.471 210.597 300.951 211.619 300.037 213.091C299.111 214.576 298.861 216.321 299.348 218.008L300.619 222.425C301.391 225.121 303.896 226.938 306.735 226.855C313.943 226.617 321.08 224.966 327.968 221.938C330.687 220.739 332.171 217.782 331.495 214.908L330.331 210.039C329.927 208.341 328.858 206.94 327.326 206.097C326.412 205.586 325.414 205.337 324.405 205.337Z" fill="#371A45"/>
<g opacity="0.3">
<path d="M331.506 222.081C322.528 226.546 313.289 228.683 303.789 228.493C301.925 228.458 300.298 227.235 299.787 225.441L299.645 224.978C320.403 222.663 322.588 210.158 322.35 203.947C323.36 203.591 324.357 203.223 325.343 202.831C327.73 201.893 330.402 203.27 330.995 205.776L333.739 217.319C334.202 219.231 333.264 221.202 331.506 222.081Z" fill="#371A45"/>
</g>
<path d="M274.042 223.562C277.291 222.221 278.76 218.313 277.324 214.833C275.887 211.353 272.089 209.62 268.839 210.962C265.59 212.303 264.121 216.211 265.557 219.691C266.994 223.171 270.792 224.904 274.042 223.562Z" fill="#22A7F0"/>
<g opacity="0.5">
<path d="M267.616 222.401C266.18 218.922 267.652 215.015 270.894 213.673C273.079 212.77 275.502 213.269 277.295 214.73C275.822 211.322 272.07 209.623 268.863 210.953C265.61 212.295 264.149 216.202 265.586 219.682C266.061 220.822 266.785 221.784 267.676 222.496C267.64 222.473 267.628 222.437 267.616 222.401Z" fill="white"/>
</g>
<path d="M271.773 225.501C270.68 225.501 269.576 225.263 268.531 224.777C266.583 223.886 265.051 222.283 264.208 220.252C262.463 216.024 264.291 211.227 268.293 209.576C272.295 207.925 276.962 210.027 278.72 214.255C280.466 218.483 278.637 223.268 274.635 224.931C273.709 225.311 272.735 225.501 271.773 225.501ZM271.132 211.987C270.55 211.987 269.968 212.094 269.41 212.331C266.928 213.352 265.811 216.404 266.94 219.124C267.486 220.454 268.483 221.511 269.742 222.081C270.965 222.639 272.295 222.675 273.483 222.188C275.965 221.166 277.081 218.114 275.953 215.395C275.098 213.293 273.139 211.987 271.132 211.987Z" fill="#371A45"/>
<path d="M323.585 190.86L316.994 192.57C316.661 192.653 316.317 192.452 316.222 192.119C316.151 191.846 316.269 191.573 316.495 191.43L322.29 187.856C323.062 187.381 324.083 187.618 324.57 188.39C325.045 189.162 324.808 190.183 324.036 190.67C323.905 190.753 323.739 190.813 323.585 190.86Z" fill="#371A45"/>
<path d="M341.612 234.621C339.795 234.621 337.99 234.277 336.28 233.611C335.057 233.136 333.727 232.602 332.694 232.186C330.758 231.391 329.475 230.868 329.939 229.265C330.164 228.481 330.972 227.804 332.076 228.006C332.397 228.066 332.682 228.208 332.907 228.41C333.394 228.624 334.606 229.135 337.574 230.298C339.51 231.058 341.612 231.248 343.655 230.868C348.963 229.871 354.271 228.101 359.437 225.584C362.857 223.921 364.698 219.979 363.807 216.226L356.397 185.018C355.756 182.322 354.01 179.971 351.623 178.569L348.417 176.693C346.754 175.719 344.759 175.553 342.954 176.23L335.176 179.163C334.249 179.507 333.228 179.044 332.884 178.13C332.539 177.216 333.002 176.182 333.917 175.838L341.695 172.905C344.51 171.848 347.609 172.109 350.21 173.629L353.416 175.505C356.646 177.394 358.998 180.564 359.853 184.21L367.263 215.418C368.533 220.786 365.897 226.415 360.981 228.802C355.518 231.45 349.913 233.338 344.296 234.383C343.417 234.538 342.515 234.621 341.612 234.621Z" fill="#371A45"/>
<path d="M356.432 183.225C356.408 183.213 356.265 183.153 356.159 183.106C356.052 183.058 355.933 183.023 355.814 182.987C355.577 182.904 355.327 182.845 355.078 182.785C354.579 182.666 354.057 182.583 353.534 182.548C352.489 182.465 351.42 182.536 350.375 182.761C350.114 182.809 349.853 182.868 349.592 182.952L349.2 183.058L348.784 183.201L347.121 183.807L343.784 185.018L340.448 186.229C340.317 186.277 340.162 186.336 340.032 186.383L339.676 186.538C339.438 186.633 339.224 186.775 338.987 186.894C338.547 187.167 338.132 187.476 337.776 187.856C336.303 189.317 335.555 191.537 335.935 193.651L341.326 221.736L334.403 193.96C333.797 191.395 334.545 188.533 336.351 186.526C336.802 186.015 337.312 185.588 337.871 185.184C338.156 185.006 338.441 184.816 338.737 184.662L339.189 184.436C339.331 184.365 339.462 184.317 339.604 184.258L342.918 182.845L346.231 181.431L347.893 180.719L348.309 180.541L348.772 180.386C349.081 180.28 349.39 180.185 349.71 180.101C350.981 179.769 352.311 179.591 353.641 179.626C354.306 179.638 354.971 179.71 355.636 179.828C355.969 179.888 356.301 179.959 356.634 180.054C356.8 180.101 356.966 180.149 357.132 180.196C357.31 180.256 357.453 180.303 357.69 180.41L357.75 180.434C358.546 180.766 358.914 181.681 358.581 182.477C358.249 183.272 357.334 183.64 356.539 183.308C356.527 183.284 356.479 183.26 356.432 183.225Z" fill="#371A45"/>
<g opacity="0.3">
<path d="M322.956 189.352C324.298 193.794 325.521 198.199 326.614 202.569L301.592 208.448L298.813 203.436C317.208 204.612 306.307 186.134 306.307 186.134C328.811 171.919 337.349 141.138 337.349 141.138L349.949 144.226L351.089 144.701C351.101 144.713 344.925 171.325 322.956 189.352Z" fill="#371A45"/>
</g>
<g opacity="0.3">
<path d="M266.501 320.646C265.527 320.1 264.553 319.518 263.567 318.912C261.691 338.008 241.147 344.052 234.402 325.242C233.986 324.09 233.665 322.914 233.416 321.715C233.428 321.726 233.428 321.726 233.428 321.726C248.581 338.637 256.395 314.103 256.395 314.103L259.577 316.24L266.501 320.646Z" fill="#371A45"/>
</g>
<g opacity="0.3">
<path d="M238.284 292.038C238.284 292.038 259.304 284.711 271.119 298.807L267.854 285.127L254.09 282.217L249.364 283.856L240.552 285.97" fill="#371A45"/>
</g>
<g opacity="0.3">
<path d="M251.503 281.303L244.235 284.533L239.58 287.157L240.019 285.531L212.029 286.148L205.806 291.539L188.112 316.763C185.749 320.123 182.151 322.463 178.089 323.08C175.964 323.401 173.434 323.448 170.513 322.962C164.718 321.988 159.445 318.983 155.491 314.637C151.156 309.887 146.928 305.137 143.615 300.256C143.627 300.268 143.627 300.268 143.639 300.28C175.964 326.619 171.427 287.787 171.427 287.787C171.427 287.787 178.849 298.012 179.348 298.819C184.644 307.5 189.668 287.419 189.668 287.419L203.348 272.088L235.483 271.055L241.112 275.591L251.503 281.303Z" fill="#371A45"/>
</g>
<g opacity="0.3">
<path d="M220.9 237.542L220.104 239.751L190.855 247.197L183.089 253.966C183.089 253.966 181.711 254.405 179.633 255.07C179.633 255.07 179.621 255.058 179.621 255.07C167.96 256.757 156.951 252.695 154.268 241.77C170.074 250.522 172.235 231.818 172.235 231.818L179.277 234.348V240.689L196.686 238.492C215.96 238.694 217.646 227.021 217.646 227.021L220.9 237.542Z" fill="#371A45"/>
</g>
<path d="M1.91405 267.42V408.814C1.91405 415.722 7.5101 421.318 14.4184 421.318H198.137C205.046 421.318 210.642 415.722 210.642 408.814V267.42C210.642 260.512 205.046 254.916 198.137 254.916H14.4184C7.5101 254.916 1.91405 260.512 1.91405 267.42Z" fill="#8C8993"/>
<g opacity="0.6">
<path d="M1.91571 267.42V408.814C1.91571 412.51 3.51459 415.813 6.06372 418.121C5.74696 417.14 5.56595 416.099 5.56595 415.013V268.129C5.56595 262.729 9.92516 258.37 15.3251 258.37H204.519C205.424 258.37 206.284 258.49 207.099 258.717C204.821 256.379 201.653 254.916 198.124 254.916H14.405C7.51176 254.916 1.91571 260.512 1.91571 267.42Z" fill="white"/>
</g>
<g opacity="0.3">
<path d="M3.16599 414.289C5.20227 418.452 9.47096 421.318 14.4184 421.318H198.137C205.046 421.318 210.642 415.722 210.642 408.814V267.42C210.642 263.121 208.47 259.32 205.166 257.073C205.966 258.732 206.418 260.587 206.418 262.548V403.942C206.418 410.85 200.822 416.446 193.914 416.446H133.579C130.336 416.446 127.697 413.822 127.697 410.564V400.458C127.697 397.335 130.216 394.816 133.338 394.816H171.484C175.527 394.816 178.8 391.543 178.8 387.486V304.692C178.8 303.002 178.227 301.434 177.261 300.197L176.869 299.729L168.754 290.151L170.051 297.361H53.8622C49.8197 297.361 46.5466 300.634 46.5466 304.692V387.486C46.5466 391.543 49.8197 394.816 53.8622 394.816H114.272V416.446H10.195C7.58551 416.446 5.1721 415.647 3.16599 414.289Z" fill="#371A45"/>
</g>
<path d="M14.4198 423.234H198.139C206.088 423.234 212.559 416.763 212.559 408.814V267.42C212.559 259.471 206.088 253 198.139 253H14.4198C6.4707 253 -0.000198364 259.471 -0.000198364 267.42V408.814C-0.000198364 416.763 6.4707 423.234 14.4198 423.234ZM198.139 256.831C203.976 256.831 208.727 261.583 208.727 267.42V408.814C208.727 414.651 203.976 419.403 198.139 419.403H14.4198C8.58241 419.403 3.83104 414.651 3.83104 408.814V267.42C3.83104 261.583 8.58241 256.831 14.4198 256.831H198.139Z" fill="#371A45"/>
<path d="M37.618 296.727V379.522C37.618 383.579 40.8912 386.852 44.9336 386.852H152.525C156.568 386.852 159.841 383.579 159.841 379.522V296.727C159.841 292.67 156.568 289.397 152.525 289.397H44.9487C40.9062 289.397 37.618 292.67 37.618 296.727Z" fill="#A5A2AA"/>
<g opacity="0.6">
<path d="M37.6184 296.727V379.522C37.6184 382.689 39.6245 385.389 42.4301 386.4C41.9625 385.434 41.7061 384.363 41.7061 383.217V300.423C41.7061 296.365 44.9792 293.092 49.0216 293.092H156.613C157.503 293.092 158.333 293.243 159.117 293.545C157.941 291.086 155.422 289.397 152.511 289.397H44.9491C40.9066 289.397 37.6184 292.67 37.6184 296.727Z" fill="white"/>
</g>
<path d="M152.54 386.837H162.57C166.613 386.837 169.886 383.564 169.886 379.506V296.712C169.886 292.655 166.613 289.382 162.57 289.382H152.54C156.582 289.382 159.855 292.655 159.855 296.712V379.506C159.855 383.564 156.582 386.837 152.54 386.837Z" fill="#A5A2AA"/>
<path d="M44.9491 388.753H152.541C157.639 388.753 161.787 384.605 161.787 379.506V296.712C161.787 291.614 157.639 287.466 152.541 287.466H44.9491C39.8509 287.466 35.7029 291.614 35.7029 296.712V379.506C35.7029 384.605 39.8509 388.753 44.9491 388.753ZM152.541 291.312C155.512 291.312 157.941 293.741 157.941 296.727V379.522C157.941 382.508 155.512 384.937 152.541 384.937H44.9491C41.9777 384.937 39.5492 382.508 39.5492 379.522V296.727C39.5492 293.741 41.9777 291.312 44.9491 291.312H152.541Z" fill="#371A45"/>
<path d="M198.139 421.318H206.133C213.042 421.318 218.638 415.722 218.638 408.814V267.42C218.638 260.512 213.042 254.916 206.133 254.916H198.139C205.047 254.916 210.643 260.512 210.643 267.42V408.814C210.643 415.722 205.047 421.318 198.139 421.318Z" fill="#8C8993"/>
<g opacity="0.3">
<path d="M152.54 386.837H162.57C166.613 386.837 169.886 383.564 169.886 379.506V296.712C169.886 292.655 166.613 289.382 162.57 289.382H152.54C156.582 289.382 159.855 292.655 159.855 296.712V379.506C159.855 383.564 156.582 386.837 152.54 386.837Z" fill="#371A45"/>
</g>
<g opacity="0.3">
<path d="M198.139 421.318H206.133C213.042 421.318 218.638 415.722 218.638 408.814V267.42C218.638 260.512 213.042 254.916 206.133 254.916H198.139C205.047 254.916 210.643 260.512 210.643 267.42V408.814C210.643 415.722 205.047 421.318 198.139 421.318Z" fill="#371A45"/>
</g>
<path d="M152.54 388.753H162.571C167.669 388.753 171.817 384.605 171.817 379.506V296.712C171.817 291.614 167.669 287.466 162.571 287.466H152.54C151.485 287.466 150.625 288.326 150.625 289.382C150.625 290.438 151.485 291.297 152.54 291.297C155.512 291.297 157.94 293.726 157.94 296.712V379.506C157.94 382.493 155.512 384.922 152.54 384.922C151.485 384.922 150.625 385.781 150.625 386.837C150.625 387.893 151.485 388.753 152.54 388.753ZM162.571 291.312C165.543 291.312 167.971 293.741 167.971 296.727V379.522C167.971 382.508 165.543 384.937 162.571 384.937H160.037C161.138 383.413 161.787 381.543 161.787 379.522V296.727C161.787 294.706 161.138 292.836 160.037 291.312H162.571Z" fill="#371A45"/>
<path d="M198.138 423.234H206.133C214.082 423.234 220.553 416.763 220.553 408.814V267.42C220.553 259.471 214.082 253 206.133 253H198.138C197.083 253 196.223 253.86 196.223 254.916C196.223 255.972 197.083 256.831 198.138 256.831C203.976 256.831 208.727 261.583 208.727 267.42V408.814C208.727 414.652 203.976 419.403 198.138 419.403C197.083 419.403 196.223 420.263 196.223 421.319C196.223 422.374 197.083 423.234 198.138 423.234ZM208.124 257.027C213.011 257.963 216.722 262.277 216.722 267.435V408.829C216.722 413.988 213.011 418.302 208.124 419.237C210.854 416.612 212.558 412.917 212.558 408.829V267.435C212.558 263.332 210.854 259.652 208.124 257.027Z" fill="#371A45"/>
<path d="M49.233 473.221V478.878C49.233 480.597 50.6358 482 52.3554 482H176.192C177.912 482 179.314 480.597 179.314 478.878V473.221C179.314 471.502 177.912 470.099 176.192 470.099H104.877V350.878H88.3751V470.099H52.3554C50.6358 470.114 49.233 471.502 49.233 473.221Z" fill="#A5A2AA"/>
<g opacity="0.6">
<path d="M49.2315 473.221V478.878C49.2315 480.597 50.6343 482 52.3539 482H53.2739V477.158C53.2739 475.439 54.6767 474.036 56.3962 474.036H89.3088C91.0283 474.036 92.4311 472.648 92.4311 470.914V354.815H104.905V350.878H88.4038V470.099H52.384C50.6343 470.114 49.2315 471.502 49.2315 473.221Z" fill="white"/>
</g>
<path d="M52.3548 483.915H176.192C178.967 483.915 181.229 481.653 181.229 478.878V473.221C181.229 470.446 178.967 468.183 176.192 468.183H106.792V350.878C106.792 349.822 105.932 348.962 104.876 348.962H88.3745C87.3187 348.962 86.4589 349.822 86.4589 350.878V468.183H52.3548C49.5794 468.183 47.3168 470.446 47.3168 473.221V478.878C47.3168 481.668 49.5794 483.915 52.3548 483.915ZM176.192 472.03C176.855 472.03 177.383 472.573 177.383 473.221V478.878C177.383 479.541 176.84 480.069 176.192 480.069H52.3548C51.6911 480.069 51.1632 479.526 51.1632 478.878V473.221C51.1632 472.558 51.7062 472.03 52.3548 472.03H88.3745C89.4304 472.03 90.2902 471.17 90.2902 470.114V352.808H102.945V470.114C102.945 471.17 103.805 472.03 104.861 472.03H176.192Z" fill="#371A45"/>
<path d="M145.738 483.916C146.794 483.916 147.653 483.056 147.653 482V470.099C147.653 469.043 146.794 468.183 145.738 468.183C144.682 468.183 143.822 469.043 143.822 470.099V482C143.807 483.071 144.667 483.916 145.738 483.916Z" fill="#371A45"/>
<path d="M104.877 350.893H112.675V470.114H104.877V350.893Z" fill="#A5A2AA"/>
<path d="M104.876 472.03H112.674C113.73 472.03 114.59 471.17 114.59 470.114V350.893C114.59 349.837 113.73 348.977 112.674 348.977H104.876C103.82 348.977 102.96 349.837 102.96 350.893V470.114C102.945 471.17 103.805 472.03 104.876 472.03ZM110.759 468.199H106.792V352.809H110.759V468.199Z" fill="#371A45"/>
<g opacity="0.3">
<path d="M104.877 350.893H112.675V470.114H104.877V350.893Z" fill="#371A45"/>
</g>
<path d="M96.8055 364.016C95.9058 364.016 95.1765 363.01 95.1765 361.768C95.1765 360.527 95.9058 359.521 96.8055 359.521C97.7052 359.521 98.4346 360.527 98.4346 361.768C98.4346 363.01 97.7052 364.016 96.8055 364.016Z" fill="#371A45"/>
<path d="M96.8055 376.822C95.9058 376.822 95.1765 375.816 95.1765 374.574C95.1765 373.333 95.9058 372.327 96.8055 372.327C97.7052 372.327 98.4346 373.333 98.4346 374.574C98.4346 375.816 97.7052 376.822 96.8055 376.822Z" fill="#371A45"/>
<g opacity="0.3">
<path d="M146.794 470.944H178.304V482H146.794V470.944Z" fill="#371A45"/>
</g>
<g opacity="0.6">
<path d="M144.304 373.684C145.149 373.684 145.843 372.99 145.843 372.146V355.267C145.843 354.422 145.149 353.729 144.304 353.729C143.46 353.729 142.766 354.422 142.766 355.267V372.146C142.781 373.006 143.46 373.684 144.304 373.684Z" fill="white"/>
<path d="M137.908 373.684C138.752 373.684 139.446 372.99 139.446 372.146V355.267C139.446 354.422 138.752 353.728 137.908 353.728C137.063 353.728 136.369 354.422 136.369 355.267V372.146C136.384 373.005 137.063 373.684 137.908 373.684Z" fill="white"/>
<path d="M131.514 373.684C132.359 373.684 133.053 372.99 133.053 372.146V355.267C133.053 354.422 132.359 353.728 131.514 353.728C130.669 353.728 129.976 354.422 129.976 355.267V372.146C129.991 373.005 130.669 373.684 131.514 373.684Z" fill="white"/>
</g>
<g opacity="0.6">
<path d="M68.5992 373.684C69.4439 373.684 70.1377 372.99 70.1377 372.146V355.267C70.1377 354.422 69.4439 353.729 68.5992 353.729C67.7545 353.729 67.0606 354.422 67.0606 355.267V372.146C67.0606 373.005 67.7394 373.684 68.5992 373.684Z" fill="white"/>
<path d="M62.2036 373.684C63.0483 373.684 63.7422 372.99 63.7422 372.146V355.267C63.7422 354.422 63.0483 353.728 62.2036 353.728C61.3589 353.728 60.6651 354.422 60.6651 355.267V372.146C60.6651 373.005 61.3589 373.684 62.2036 373.684Z" fill="white"/>
<path d="M55.8091 373.684C56.6538 373.684 57.3477 372.99 57.3477 372.145V355.267C57.3477 354.422 56.6538 353.728 55.8091 353.728C54.9644 353.728 54.2706 354.422 54.2706 355.267V372.145C54.2706 373.005 54.9644 373.684 55.8091 373.684Z" fill="white"/>
</g>
<path d="M143.491 373.171C144.335 373.171 145.029 372.478 145.029 371.633V354.754C145.029 353.91 144.335 353.216 143.491 353.216C142.646 353.216 141.952 353.91 141.952 354.754V371.633C141.952 372.478 142.646 373.171 143.491 373.171Z" fill="#371A45"/>
<path d="M137.095 373.171C137.94 373.171 138.634 372.478 138.634 371.633V354.754C138.634 353.91 137.94 353.216 137.095 353.216C136.251 353.216 135.557 353.91 135.557 354.754V371.633C135.572 372.478 136.251 373.171 137.095 373.171Z" fill="#371A45"/>
<path d="M130.7 373.171C131.544 373.171 132.238 372.478 132.238 371.633V354.754C132.238 353.91 131.544 353.216 130.7 353.216C129.855 353.216 129.161 353.91 129.161 354.754V371.633C129.176 372.478 129.855 373.171 130.7 373.171Z" fill="#371A45"/>
<path d="M67.7847 373.171C68.6294 373.171 69.3232 372.478 69.3232 371.633V354.754C69.3232 353.91 68.6294 353.216 67.7847 353.216C66.94 353.216 66.2462 353.91 66.2462 354.754V371.633C66.2462 372.478 66.9249 373.171 67.7847 373.171Z" fill="#371A45"/>
<path d="M61.3892 373.171C62.2339 373.171 62.9277 372.478 62.9277 371.633V354.754C62.9277 353.91 62.2339 353.216 61.3892 353.216C60.5445 353.216 59.8507 353.91 59.8507 354.754V371.633C59.8507 372.478 60.5294 373.171 61.3892 373.171Z" fill="#371A45"/>
<path d="M54.9947 373.171C55.8394 373.171 56.5332 372.478 56.5332 371.633V354.754C56.5332 353.91 55.8394 353.216 54.9947 353.216C54.15 353.216 53.4561 353.91 53.4561 354.754V371.633C53.4561 372.478 54.15 373.171 54.9947 373.171Z" fill="#371A45"/>
<path d="M150.912 301.871C150.012 301.871 149.283 300.865 149.283 299.624C149.283 298.382 150.012 297.376 150.912 297.376C151.812 297.376 152.541 298.382 152.541 299.624C152.541 300.865 151.812 301.871 150.912 301.871Z" fill="#371A45"/>
<path d="M45.9149 301.871C45.0152 301.871 44.2859 300.865 44.2859 299.624C44.2859 298.382 45.0152 297.376 45.9149 297.376C46.8146 297.376 47.5439 298.382 47.5439 299.624C47.5439 300.865 46.8146 301.871 45.9149 301.871Z" fill="#371A45"/>
<path d="M10.4823 266.696C9.5826 266.696 8.85325 265.69 8.85325 264.448C8.85325 263.207 9.5826 262.201 10.4823 262.201C11.382 262.201 12.1113 263.207 12.1113 264.448C12.1113 265.69 11.382 266.696 10.4823 266.696Z" fill="#371A45"/>
<path d="M199.767 266.696C198.868 266.696 198.138 265.69 198.138 264.448C198.138 263.207 198.868 262.201 199.767 262.201C200.667 262.201 201.396 263.207 201.396 264.448C201.396 265.69 200.667 266.696 199.767 266.696Z" fill="#371A45"/>
<path d="M10.4823 412.751C9.5826 412.751 8.85325 411.745 8.85325 410.503C8.85325 409.262 9.5826 408.256 10.4823 408.256C11.382 408.256 12.1113 409.262 12.1113 410.503C12.1113 411.745 11.382 412.751 10.4823 412.751Z" fill="#371A45"/>
<path d="M199.767 412.751C198.868 412.751 198.138 411.745 198.138 410.503C198.138 409.262 198.868 408.256 199.767 408.256C200.667 408.256 201.396 409.262 201.396 410.503C201.396 411.745 200.667 412.751 199.767 412.751Z" fill="#371A45"/>
<path d="M150.912 379.069C150.012 379.069 149.283 378.063 149.283 376.822C149.283 375.58 150.012 374.574 150.912 374.574C151.812 374.574 152.541 375.58 152.541 376.822C152.541 378.063 151.812 379.069 150.912 379.069Z" fill="#371A45"/>
<path d="M45.9149 379.069C45.0152 379.069 44.2859 378.063 44.2859 376.822C44.2859 375.58 45.0152 374.574 45.9149 374.574C46.8146 374.574 47.5439 375.58 47.5439 376.822C47.5439 378.063 46.8146 379.069 45.9149 379.069Z" fill="#371A45"/>
<path d="M119.915 203.839V211.261L144.335 223.84L154.969 229.316C156.417 230.07 158.182 229.844 159.419 228.758L161.5 226.917L171.682 217.912L174.864 215.092C174.834 214.956 164.939 209.722 155.21 204.609C145.843 199.676 136.657 194.865 136.657 194.865L119.915 203.839Z" fill="#BDBDBD"/>
<path d="M156.795 231.699C158.198 231.699 159.57 231.201 160.686 230.221L176.132 216.57C176.645 216.118 176.871 215.439 176.75 214.775C176.569 213.78 176.569 213.78 169.782 210.175C166.192 208.259 161.425 205.74 156.644 203.236C147.096 198.213 137.563 193.221 137.563 193.221C137.005 192.919 136.326 192.934 135.768 193.221L119.01 202.18C118.392 202.512 118 203.161 118 203.87V211.291C118 212.015 118.407 212.663 119.04 212.995L154.095 231.066C154.955 231.473 155.875 231.699 156.795 231.699ZM171.562 215.469L158.137 227.34C157.504 227.898 156.599 228.019 155.844 227.626L121.831 210.099V205.001L136.673 197.067C148.8 203.417 165.573 212.226 171.562 215.469Z" fill="#371A45"/>
<path d="M168.122 219.964C168.696 219.964 169.239 219.647 169.495 219.104C169.872 218.35 169.555 217.43 168.801 217.053L137.216 201.456C136.779 201.245 136.266 201.245 135.843 201.471L119.221 209.918C118.467 210.295 118.165 211.23 118.542 211.985C118.92 212.739 119.855 213.041 120.609 212.663L136.552 204.564L167.459 219.828C167.655 219.904 167.896 219.964 168.122 219.964Z" fill="#371A45"/>
<path d="M136.539 204.352C137.368 204.352 138.062 203.689 138.077 202.844L138.198 194.91C138.213 194.065 137.534 193.371 136.69 193.356C136.675 193.356 136.675 193.356 136.659 193.356C135.83 193.356 135.136 194.02 135.121 194.865L135 202.799C134.985 203.643 135.664 204.337 136.509 204.352C136.524 204.352 136.524 204.352 136.539 204.352Z" fill="#371A45"/>
</svg>
