<svg width="231" height="136" viewBox="0 0 231 136" fill="none" xmlns="http://www.w3.org/2000/svg">
<g id="Group 70">
<path id="Vector" opacity="0.25" d="M116.793 135.476C80.0545 135.476 50.2725 133.032 50.2725 130.017C50.2725 127.002 80.0545 124.558 116.793 124.558C153.53 124.558 183.312 127.002 183.312 130.017C183.312 133.032 153.53 135.476 116.793 135.476Z" fill="#371A45"/>
<g id="Group">
<g id="Group_2">
<path id="Vector_2" d="M34.4062 66.7006C34.4062 66.7006 27.2731 57.5804 9.40124 72.3602C8.56402 73.0523 8.56401 74.3472 9.42356 75.0281C13.9892 78.6784 27.3178 88.0999 34.4844 80.1742L34.4062 66.7006Z" fill="#E94E1B"/>
</g>
<g id="Group_3">
<path id="Vector_3" d="M34.454 68.643C34.454 68.643 29.386 62.1685 16.7049 72.7063C16.1467 73.164 16.1579 74.0235 16.716 74.4701C19.8752 77.0152 29.4083 83.8134 34.5098 78.165L34.454 68.643Z" fill="#FD7D53"/>
</g>
<g id="Group_4">
<path id="Vector_4" d="M34.9646 70.1946C34.9646 70.1946 31.5487 65.8299 22.9867 72.9295C22.6072 73.2421 22.6183 73.8226 22.9979 74.124C25.13 75.8431 31.5599 80.431 34.998 76.6133L34.9646 70.1946Z" fill="#E94E1B"/>
</g>
<g id="Group_5">
<path id="Vector_5" d="M27.3195 84.4609C30.2665 84.4609 33.0684 83.4897 35.3568 80.9558C35.5577 80.7437 35.6582 80.4534 35.6582 80.1632L35.5801 66.7007C35.5801 66.4439 35.4908 66.1872 35.3345 65.9862C35.2452 65.8746 33.1912 63.3071 28.7484 62.8271C23.0887 62.2131 16.3351 65.1155 8.66619 71.4561C7.99642 72.0142 7.60573 72.8403 7.61689 73.711C7.62805 74.5817 8.01875 75.3966 8.69969 75.9436C12.5174 79.0022 20.3315 84.4609 27.3195 84.4609ZM33.314 79.7055C26.6609 86.3586 13.9463 77.138 10.162 74.1129C9.98344 73.9789 9.96111 73.7891 9.96111 73.6998C9.96111 73.5994 9.98344 73.4208 10.162 73.2756C19.0143 65.9527 24.9641 64.8141 28.4023 65.1602C31.1372 65.4281 32.6777 66.6337 33.247 67.1807L33.314 79.7055Z" fill="#371A45"/>
</g>
</g>
<g id="Group_6">
<path id="Vector_6" d="M42.9785 78.913C39.7413 81.3577 35.8119 81.4359 35.8119 81.4359C35.8119 81.4359 34.1374 78.6339 34.0035 72.6841C33.8807 66.7454 35.4324 63.8654 35.4324 63.8654C35.4324 63.8654 39.3729 63.7761 42.6994 66.0868" fill="#E2E8E8"/>
</g>
<g id="Group_7">
<path id="Vector_7" d="M35.8131 82.6079C35.8243 82.6079 35.8243 82.6079 35.8355 82.6079C36.0141 82.6079 40.189 82.4851 43.683 79.8395C44.1965 79.4488 44.297 78.7121 43.9063 78.1986C43.5156 77.6851 42.7788 77.5846 42.2653 77.9753C40.1779 79.5493 37.7108 80.0516 36.5164 80.1967C36.0699 79.1139 35.255 76.6246 35.1769 72.6617C35.0876 68.6989 35.7908 66.1872 36.1927 65.0709C37.3983 65.1714 39.8765 65.5621 42.0309 67.0468C42.5667 67.4152 43.2923 67.2812 43.6607 66.7454C44.0291 66.2096 43.8951 65.484 43.3593 65.1156C39.7537 62.6263 35.5787 62.6821 35.4001 62.6932C34.9759 62.7044 34.5964 62.9388 34.3955 63.3072C34.3285 63.4412 32.6875 66.5333 32.8215 72.7064C32.9554 78.8795 34.7192 81.9047 34.7973 82.0274C35.0206 82.3958 35.4001 82.6079 35.8131 82.6079Z" fill="#371A45"/>
</g>
<g id="Group_8">
<path id="Vector_8" d="M45.423 83.6238C38.7364 82.273 38.7699 74.4255 38.7252 72.5836C38.6806 70.7417 38.3234 62.9053 44.943 61.2644C51.6408 59.6122 80.5528 61.2197 80.7761 71.6794C80.9993 82.1391 52.1878 84.9856 45.423 83.6238Z" fill="#E94E1B"/>
</g>
<g id="Group_9" opacity="0.7">
<path id="Vector_9" d="M38.7278 70.8534C39.3194 68.1631 40.8376 65.2496 44.5771 64.323C51.1075 62.7156 78.7358 64.2002 80.3321 73.9567C80.6335 73.2422 80.7898 72.4831 80.7674 71.6794C80.5442 61.2197 51.6321 59.6122 44.9344 61.2644C39.6543 62.5816 38.8282 67.8505 38.7278 70.8534Z" fill="white"/>
</g>
<g id="Group_10" opacity="0.25">
<path id="Vector_10" d="M45.4218 80.9893C40.1529 79.9288 39.0589 74.8273 38.8022 71.8133C39.7287 72.7175 40.9455 73.4208 42.5529 73.7334C48.38 74.9166 70.6278 72.9519 76.4883 65.6849C78.6428 66.9798 80.1386 68.5761 80.6074 70.5072C78.2855 79.7725 51.8628 82.2953 45.4218 80.9893Z" fill="#371A45"/>
</g>
<g id="Group_11">
<path id="Vector_11" d="M50.0894 85.1419C58.5062 85.1419 72.6051 82.9874 78.7558 77.8413C80.9326 76.0217 82.0042 73.9455 81.9596 71.657C81.9149 69.3686 80.7428 67.3481 78.4991 65.6179C70.6069 59.5676 50.6922 58.641 44.6754 60.1257C41.3153 60.9518 37.3525 63.7648 37.5646 72.4608L37.5757 72.7622C37.7432 81.4469 41.8176 84.0926 45.2112 84.7735C46.3721 85.0079 48.0689 85.1419 50.0894 85.1419ZM51.7303 61.8783C59.7788 61.8783 71.7901 63.4523 77.059 67.4821C78.7335 68.7659 79.5707 70.15 79.6042 71.7017C79.6377 73.2645 78.8675 74.6822 77.2488 76.0329C70.3836 81.7818 51.0829 83.5679 45.6577 82.4739C41.8958 81.7149 40.0093 78.5223 39.9088 72.7175L39.8976 72.405C39.7525 66.6002 41.5051 63.3295 45.2223 62.403C46.6065 62.0681 48.9284 61.8783 51.7303 61.8783Z" fill="#371A45"/>
</g>
<g id="Group_12">
<path id="Vector_12" d="M56.0499 84.6172C56.1504 84.6172 56.262 84.5949 56.3737 84.5614C56.8983 84.3828 57.1774 83.8247 56.9988 83.3C54.5541 76.0776 54.3866 68.3975 56.5188 61.0857L55.5588 60.8067L54.5987 60.5611C52.355 68.23 52.5336 76.3343 55.1122 83.9363C55.2462 84.3605 55.6369 84.6172 56.0499 84.6172Z" fill="#371A45"/>
</g>
<g id="Group_13">
<g id="Group_14">
<path id="Vector_13" d="M34.0488 17.0925C34.0488 17.0925 26.9157 7.97235 9.04382 22.7521C8.2066 23.4442 8.20659 24.7391 9.06614 25.42C13.6318 29.0703 26.9603 38.4918 34.127 30.5662L34.0488 17.0925Z" fill="#E94E1B"/>
</g>
<g id="Group_15">
<path id="Vector_14" d="M34.1063 19.0348C34.1063 19.0348 29.0383 12.5603 16.3572 23.0981C15.7991 23.5558 15.8102 24.4153 16.3684 24.8618C19.5275 27.407 29.0606 34.2052 34.1621 28.5568L34.1063 19.0348Z" fill="#FD7D53"/>
</g>
<g id="Group_16">
<path id="Vector_15" d="M34.6149 20.5865C34.6149 20.5865 31.1991 16.2218 22.6371 23.3215C22.2576 23.634 22.2687 24.2145 22.6483 24.5159C24.7804 26.235 31.2102 30.823 34.6484 27.0052L34.6149 20.5865Z" fill="#E94E1B"/>
</g>
<g id="Group_17">
<path id="Vector_16" d="M26.9699 34.8527C29.9169 34.8527 32.7188 33.8815 35.0072 31.3475C35.2081 31.1354 35.3086 30.8452 35.3086 30.555L35.2305 17.0924C35.2305 16.8357 35.1412 16.5789 34.9849 16.378C34.8956 16.2664 32.8416 13.6989 28.3987 13.2189C22.7391 12.6049 15.9856 15.5073 8.31661 21.8479C7.64684 22.406 7.25612 23.2321 7.26728 24.1028C7.27844 24.9735 7.66914 25.7884 8.35008 26.3354C12.1678 29.394 19.9819 34.8527 26.9699 34.8527ZM32.9532 30.0973C26.3001 36.7504 13.5855 27.5298 9.80126 24.5046C9.62266 24.3707 9.60035 24.1809 9.60035 24.0916C9.60035 23.9911 9.62266 23.8125 9.80126 23.6674C18.6535 16.3445 24.6033 15.2059 28.0415 15.5519C30.7765 15.8199 32.3169 17.0255 32.8862 17.5724L32.9532 30.0973Z" fill="#371A45"/>
</g>
</g>
<g id="Group_18">
<path id="Vector_17" d="M42.6328 29.3048C39.3956 31.7495 35.4662 31.8276 35.4662 31.8276C35.4662 31.8276 33.7918 29.0258 33.6578 23.0759C33.5239 17.1261 35.0866 14.2572 35.0866 14.2572C35.0866 14.2572 39.0272 14.1679 42.3537 16.4786" fill="#E2E8E8"/>
</g>
<g id="Group_19">
<path id="Vector_18" d="M35.4538 32.9998C35.4649 32.9998 35.4761 32.9998 35.4761 32.9998C35.6547 32.9998 39.8296 32.877 43.3236 30.2313C43.8371 29.8406 43.9376 29.1039 43.5469 28.5904C43.1562 28.0769 42.4194 27.9764 41.906 28.3671C39.8185 29.9411 37.3515 30.4434 36.157 30.5886C35.7105 29.5058 34.8956 27.0164 34.8175 23.0536C34.7282 19.0907 35.4315 16.5791 35.8333 15.4628C37.0389 15.5632 39.5171 15.9539 41.6715 17.4386C42.2073 17.807 42.9329 17.673 43.3013 17.1372C43.6697 16.6014 43.5357 15.8758 42.9999 15.5074C39.3943 13.0181 35.2193 13.0739 35.0407 13.0851C34.6166 13.0962 34.237 13.3306 34.0361 13.699C33.9691 13.833 32.3281 16.9251 32.4621 23.0982C32.596 29.2825 34.3598 32.2965 34.438 32.4305C34.6612 32.7877 35.0519 32.9998 35.4538 32.9998Z" fill="#371A45"/>
</g>
<g id="Group_20">
<path id="Vector_19" d="M45.0792 34.0156C38.3926 32.6649 38.4261 24.8173 38.3815 22.9754C38.3368 21.1335 37.9796 13.2971 44.5992 11.6562C51.297 10.0041 80.209 11.6115 80.4323 22.0712C80.6556 32.5309 51.8328 35.3886 45.0792 34.0156Z" fill="#E94E1B"/>
</g>
<g id="Group_21" opacity="0.7">
<path id="Vector_20" d="M38.3801 21.2452C38.9717 18.5549 40.4899 15.6414 44.2295 14.7148C50.7598 13.1074 78.3881 14.592 79.9844 24.3484C80.2858 23.634 80.4421 22.8749 80.4198 22.0712C80.1965 11.6115 51.2845 10.0041 44.5867 11.6562C39.3066 12.9734 38.4694 18.2423 38.3801 21.2452Z" fill="white"/>
</g>
<g id="Group_22" opacity="0.25">
<path id="Vector_21" d="M45.078 31.381C39.8091 30.3206 38.7152 25.2191 38.4584 22.2051C39.385 23.1093 40.6017 23.8126 42.2092 24.1251C48.0362 25.3084 70.284 23.3437 76.1445 16.0766C78.299 17.3715 79.7948 18.9678 80.2637 20.899C77.9418 30.1643 51.5079 32.6871 45.078 31.381Z" fill="#371A45"/>
</g>
<g id="Group_23">
<path id="Vector_22" d="M49.7339 35.5337C58.1508 35.5337 72.2496 33.3793 78.4003 28.2332C80.5771 26.4136 81.6488 24.3373 81.6041 22.0489C81.5595 19.7605 80.3874 17.74 78.1436 16.0098C70.2514 9.95944 50.3367 9.03292 44.3199 10.5176C40.9598 11.3437 36.997 14.1567 37.2091 22.8526L37.2202 23.154C37.3877 31.8388 41.4622 34.4844 44.8557 35.1654C46.0166 35.3998 47.7134 35.5337 49.7339 35.5337ZM51.386 12.2702C59.4345 12.2702 71.4458 13.8441 76.7148 17.874C78.3892 19.1577 79.2264 20.5419 79.2599 22.0936C79.2934 23.6564 78.5231 25.0741 76.9045 26.4248C70.0393 32.1737 50.7386 33.9598 45.3134 32.8658C41.5515 32.1067 39.6649 28.9141 39.5645 23.1094L39.5533 22.7968C39.4082 16.9921 41.1608 13.7213 44.878 12.7948C46.2622 12.4599 48.5841 12.2702 51.386 12.2702Z" fill="#371A45"/>
</g>
<g id="Group_24">
<path id="Vector_23" d="M55.7062 35.0203C55.8066 35.0203 55.9183 34.998 56.0299 34.9645C56.5545 34.7859 56.8336 34.2278 56.655 33.7031C54.2103 26.4807 54.0429 18.8006 56.175 11.4889C56.3313 10.9642 56.0299 10.406 55.4941 10.2498C54.9694 10.0935 54.4113 10.3949 54.255 10.9307C52.0001 18.6443 52.1787 26.7374 54.7573 34.3394C54.9024 34.7524 55.2931 35.0203 55.7062 35.0203Z" fill="#371A45"/>
</g>
<g id="Group_25">
<path id="Vector_24" d="M59.9004 72.7062L52.131 71.2216C48.6147 70.5518 45.7569 67.9955 44.6741 64.5908C41.4704 54.4213 41.1132 43.5821 43.6472 33.2229C44.4955 29.7512 47.1858 27.0163 50.6463 26.1121L58.3041 24.1139L59.9004 72.7062Z" fill="#E2E8E8"/>
</g>
<g id="Group_26">
<path id="Vector_25" d="M42.8013 37.3533C42.0199 41.9748 41.8078 46.6632 42.1538 51.3182C42.4775 55.7945 43.3259 60.2485 44.6878 64.5686C45.7594 67.9845 48.6283 70.5296 52.1446 71.1994L59.9141 72.684L59.1885 50.7265L58.3066 24.0918L50.6488 26.0899C48.9186 26.5364 47.3781 27.4518 46.1725 28.6797C44.9557 29.9076 44.0738 31.4593 43.6497 33.2007C43.3148 34.5849 43.0357 35.9691 42.8013 37.3533Z" fill="#E2E8E8"/>
</g>
<g id="Group_27" opacity="0.3">
<g id="Group_28">
<path id="Vector_26" d="M41.9861 47.4334C41.9861 48.0362 42.0085 48.6279 42.0308 49.2307C42.1313 45.0781 42.6782 40.9366 43.6717 36.8733C44.0959 35.1318 44.9778 33.5802 46.1946 32.3523C47.4113 31.1243 48.9407 30.209 50.6821 29.7625L58.3398 27.7755L58.2729 25.9894L58.3063 24.1252L50.6486 26.1234C48.9183 26.5699 47.3778 27.4852 46.1611 28.7132C44.9443 29.9411 44.0624 31.4927 43.6382 33.2342C42.5108 37.8891 41.9638 42.6668 41.9861 47.4334Z" fill="white"/>
</g>
</g>
<g id="Group_29">
<path id="Vector_27" d="M228.565 46.7413C224.446 52.4456 215.192 63.2625 199.016 72.7622C185.721 80.5651 167.738 87.4638 144.061 89.875C128.701 91.4378 115.395 90.8238 104.176 89.1047C74.918 84.6284 59.8927 72.6952 59.8927 72.6952C59.7252 72.2933 59.5689 71.8803 59.4126 71.4784C56.3875 63.6644 54.8135 55.4373 54.713 47.1767C54.6572 42.6557 55.0368 38.1236 55.8517 33.6584C55.874 33.5356 55.8963 33.4128 55.9186 33.29C56.4991 30.1867 57.2917 27.128 58.2964 24.114C58.2964 24.114 63.275 19.6042 73.3217 14.5921C74.9626 13.766 76.7487 12.9399 78.6687 12.1139C80.946 11.1315 83.413 10.1492 86.0698 9.21152C86.3265 9.12221 86.5721 9.03291 86.8288 8.9436C90.2335 7.76033 93.9508 6.63288 97.9806 5.63937C99.0858 5.37146 100.224 5.10356 101.385 4.84681C112.47 2.39096 125.709 0.895126 141.148 1.44211C142.108 1.4756 143.068 1.52025 144.017 1.57606C148.058 1.78816 151.931 2.13421 155.648 2.61422C160.806 3.27283 165.673 4.16587 170.25 5.24867C177.45 6.94544 183.924 9.09989 189.718 11.5111C190.867 11.9911 191.984 12.4711 193.078 12.9734C212.3 21.6917 223.474 33.0779 228.308 38.9161C230.172 41.1599 230.273 44.386 228.565 46.7413Z" fill="white"/>
</g>
<g id="Group_30">
<path id="Vector_28" d="M104.24 18.3763C104.43 18.2423 104.62 18.1084 104.787 17.9744C104.486 18.1865 104.296 18.3205 104.24 18.3763Z" fill="#E5E5E5"/>
</g>
<g id="Group_31">
<path id="Vector_29" d="M185.532 79.5382C193.547 76.1223 200.345 72.2376 206.05 68.2859C206.117 68.2301 206.184 68.1854 206.262 68.1408C207.065 67.5938 207.836 67.0357 208.595 66.4663C208.617 66.4552 208.639 66.4329 208.662 66.4217C208.919 66.2319 209.175 66.0421 209.432 65.8524C209.689 65.6626 209.934 65.4728 210.191 65.2831C210.459 65.0821 210.727 64.87 210.995 64.6579C211.453 64.2896 211.91 63.9324 212.357 63.564C213.06 62.9947 213.741 62.4254 214.4 61.8672C214.623 61.6774 214.835 61.4988 215.047 61.3091C215.907 60.5611 216.721 59.8244 217.514 59.0988C217.715 58.9202 217.905 58.7304 218.094 58.5518C219.814 56.9332 221.354 55.3592 222.716 53.8857C222.939 53.6401 223.162 53.3945 223.375 53.1601C223.598 52.9034 223.832 52.6578 224.044 52.401C224.256 52.1554 224.48 51.9098 224.681 51.6643C224.859 51.4633 225.027 51.2624 225.194 51.0615C225.451 50.7601 225.685 50.4698 225.92 50.1908C226.913 48.974 227.762 47.8577 228.465 46.8977C227.639 47.4 226.802 47.9135 225.942 48.4047C215.415 54.5778 202.701 60.3379 187.519 64.6914C187.073 69.659 186.414 74.6153 185.532 79.5382Z" fill="#FD7D53"/>
</g>
<g id="Group_32">
<path id="Vector_30" d="M185.532 79.5381C193.636 76.0887 200.512 72.137 206.25 68.1407C206.797 67.7611 207.333 67.3816 207.858 66.9909C208.125 66.8011 208.382 66.6114 208.639 66.4216L208.65 66.4104C208.907 66.2207 209.152 66.0309 209.409 65.8523C209.923 65.4727 210.414 65.082 210.905 64.7137C211.352 64.3676 211.787 64.0216 212.2 63.6867C213.417 62.7043 214.567 61.7331 215.66 60.762C215.839 60.6057 216.029 60.4383 216.207 60.2708C218.351 58.3619 220.226 56.5089 221.867 54.7675C221.99 54.6447 222.113 54.5219 222.224 54.3879C222.414 54.187 222.593 53.9861 222.782 53.7963C223.262 53.2716 223.72 52.7582 224.155 52.267C224.267 52.1442 224.368 52.0214 224.479 51.8986C224.691 51.653 224.892 51.4074 225.104 51.173C225.205 51.0502 225.305 50.9386 225.406 50.8158C225.607 50.5814 225.796 50.347 225.975 50.1237C226.343 49.666 226.701 49.2307 227.024 48.8065C227.605 48.0697 228.107 47.3776 228.565 46.7636C228.755 46.5069 228.922 46.2278 229.067 45.9487C229.179 45.7366 229.268 45.5246 229.357 45.3125C229.391 45.2455 229.413 45.1673 229.436 45.0892C221.041 48.0474 206.63 52.6019 188.055 56.4084C187.742 64.1332 186.905 71.8691 185.532 79.5381Z" fill="#D1D1D1"/>
</g>
<g id="Group_33">
<path id="Vector_31" d="M183.206 9.0329C185.506 18.287 187.013 27.6973 187.716 37.1635C188.766 51.2847 188.04 65.5174 185.528 79.5381C210.243 69.0114 223.404 53.8856 228.573 46.7525C230.281 44.3859 230.18 41.171 228.316 38.9273C228.171 38.7598 228.026 38.5812 227.869 38.4026C221.975 31.4258 207.921 17.6842 183.206 9.0329Z" fill="#E94E1B"/>
</g>
<g id="Group_34" opacity="0.25">
<path id="Vector_32" d="M223.963 49.1526C218.828 54.9573 210.779 62.4477 199.17 69.2682C185.875 77.06 167.891 83.9698 144.215 86.381C128.855 87.9438 115.548 87.3299 104.341 85.6108C75.0827 81.1344 60.0574 69.2013 60.0574 69.2013L52.2879 67.7166C48.7716 67.0468 45.9139 64.4905 44.8311 61.0858C43.7818 57.7481 43.045 54.3322 42.6097 50.8828L54.9447 50.4587C54.9224 50.0568 54.8889 49.6661 54.8666 49.2642L73.8659 46.3172C73.8659 46.3172 76.3218 56.2076 63.0937 60.6504C72.2919 64.2449 84.08 67.7612 98.4132 69.9603C106.54 71.2106 115.504 72.0143 125.26 72.1818C118.73 67.1138 115.124 58.7081 116.587 49.9898C118.707 37.3534 130.674 28.836 143.311 30.957C155.947 33.078 164.464 45.0446 162.343 57.6811C161.473 62.8272 158.983 67.2812 155.478 70.6189C184.48 67.2254 206.951 58.7862 223.963 49.1526Z" fill="#371A45"/>
</g>
<g id="Group_35" opacity="0.5">
<path id="Vector_33" d="M225.997 48.9517C227.705 46.5852 227.605 43.3702 225.741 41.1265C225.595 40.959 225.45 40.7804 225.294 40.6018C219.668 33.9599 206.63 21.1671 184.013 12.4935C183.757 11.3437 183.478 10.1939 183.199 9.04416C207.913 17.6954 221.967 31.437 227.862 38.4027C228.018 38.5813 228.163 38.7599 228.308 38.9274C230.172 41.1711 230.273 44.3972 228.565 46.7526C225.863 50.4922 220.952 56.4197 213.35 62.7268C219.512 57.2569 223.62 52.2448 225.997 48.9517Z" fill="white"/>
</g>
<g id="Group_36">
<path id="Vector_34" d="M185.532 80.8553C185.71 80.8553 185.889 80.8218 186.056 80.7437C210.392 70.3845 223.664 55.6829 229.413 47.8465C231.646 44.799 231.512 40.6464 229.078 37.7552C222.827 30.3095 208.617 16.5121 183.656 7.77151C183.199 7.61523 182.685 7.7157 182.328 8.03942C181.971 8.36315 181.814 8.86549 181.937 9.3455C187.664 32.397 188.434 55.9284 184.237 79.2925C184.147 79.7725 184.337 80.2637 184.717 80.5651C184.94 80.766 185.23 80.8553 185.532 80.8553ZM185.074 11.1204C208.014 19.6712 221.153 32.4639 227.036 39.4743C228.676 41.4278 228.766 44.2297 227.259 46.2948C221.856 53.6736 209.577 67.3035 187.251 77.339C190.901 55.2029 190.164 32.9551 185.074 11.1204Z" fill="#371A45"/>
</g>
<g id="Group_37">
<path id="Vector_35" d="M126.88 92.0852C132.316 92.0852 138.087 91.8173 144.194 91.1921C159.319 89.6516 173.407 86.1353 186.043 80.7548C186.479 80.565 186.78 80.1743 186.836 79.7166C191.089 55.9954 190.297 32.1067 184.492 8.70912C184.38 8.27376 184.068 7.92771 183.643 7.77142C170.683 3.22811 156.406 0.660631 141.202 0.113646C112.212 -0.924508 91.0134 5.34907 78.3323 10.8078C64.5349 16.7464 57.6919 22.8637 57.4129 23.1205C57.2454 23.2768 57.1227 23.4665 57.0445 23.6786C54.3654 31.7271 53.1375 40.0993 53.4165 48.5832C53.6956 57.0558 55.4594 65.3388 58.6743 73.1975C58.7636 73.4096 58.8976 73.5882 59.0762 73.7333C59.3776 73.9677 66.6 79.6385 80.7658 84.6506C91.0245 88.2897 106.597 92.0852 126.88 92.0852ZM184.347 78.6003C172.123 83.7241 158.538 87.073 143.937 88.5577C92.4757 93.8042 64.0325 74.0905 61.0074 71.8691C58.0045 64.401 56.3524 56.5535 56.0845 48.505C55.8166 40.4565 56.9552 32.5197 59.4557 24.8731C60.8064 23.7344 67.5153 18.3316 79.5155 13.1855C91.9175 7.87189 112.681 1.74344 141.113 2.75927C155.781 3.28393 169.567 5.73977 182.092 10.0375C187.595 32.6425 188.354 55.694 184.347 78.6003Z" fill="#371A45"/>
</g>
<g id="Group_38">
<path id="Vector_36" d="M59.9035 74.0235C60.5286 74.0235 61.0868 73.577 61.2096 72.9407C61.3435 72.2263 60.8747 71.5231 60.1603 71.3891L52.3909 69.9044C49.3545 69.3239 46.8875 67.1248 45.961 64.1778C42.8354 54.2428 42.4893 43.638 44.9563 33.5244C45.6931 30.5215 48.0038 28.1662 50.9955 27.3848L58.6533 25.3866C59.3677 25.1968 59.7919 24.4824 59.6021 23.768C59.4124 23.0535 58.6979 22.6293 57.9835 22.8191L50.3257 24.8173C46.3852 25.8443 43.3377 28.9364 42.3665 32.8993C39.7879 43.4929 40.1451 54.5777 43.427 64.9816C44.655 68.8663 47.8922 71.7575 51.8997 72.5165L59.6691 74.0012C59.7361 74.0235 59.8254 74.0235 59.9035 74.0235Z" fill="#371A45"/>
</g>
<g id="Group_39" opacity="0.3">
<path id="Vector_37" d="M219.91 39.4296C216.316 33.5467 200.777 22.9978 195.944 26.7262C191.344 30.276 223.505 45.3237 219.91 39.4296Z" fill="white"/>
</g>
<g id="Group_40">
<path id="Vector_38" d="M122.642 63.5061C113.705 54.5694 113.705 40.0802 122.642 31.1435C131.578 22.2068 146.068 22.2068 155.004 31.1435C163.941 40.0802 163.941 54.5694 155.004 63.5061C146.068 72.4428 131.578 72.4428 122.642 63.5061Z" fill="#E94E1B"/>
</g>
<g id="Group_41" opacity="0.7">
<path id="Vector_39" d="M116.431 42.4772C116.32 43.1358 116.241 43.8056 116.186 44.4642C119.121 33.0892 130.329 25.6658 142.128 27.6528C153.928 29.6398 162.088 40.3228 161.139 52.0327C161.306 51.3964 161.44 50.7378 161.552 50.0792C163.65 37.6213 155.245 25.8109 142.787 23.7235C130.329 21.6137 118.53 30.0194 116.431 42.4772Z" fill="white"/>
</g>
<g id="Group_42" opacity="0.25">
<path id="Vector_40" d="M116.253 43.5263C114.155 55.9842 122.561 67.7946 135.018 69.882C147.476 71.9807 159.287 63.575 161.374 51.1171C161.486 50.425 161.575 49.7329 161.631 49.0408C158.662 60.36 147.476 67.7499 135.711 65.7629C123.945 63.7871 115.796 53.1488 116.689 41.4723C116.521 42.1533 116.376 42.823 116.253 43.5263Z" fill="#371A45"/>
</g>
<g id="Group_43">
<path id="Vector_41" d="M138.835 71.2888C150.322 71.2888 160.491 62.9835 162.456 51.2959C164.644 38.2688 155.825 25.8779 142.798 23.6788C136.48 22.6183 130.139 24.0807 124.926 27.7868C119.713 31.504 116.252 37.0185 115.192 43.3368C113.004 56.3639 121.823 68.7548 134.85 70.9539C136.178 71.1771 137.518 71.2888 138.835 71.2888ZM138.768 25.5207C139.985 25.5207 141.213 25.6211 142.43 25.8332C154.273 27.8314 162.3 39.0948 160.301 50.9387C159.33 56.6765 156.193 61.6998 151.449 65.071C146.705 68.4422 140.934 69.7706 135.196 68.8106C123.341 66.8124 115.326 55.549 117.324 43.7051C118.295 37.9674 121.432 32.944 126.176 29.5728C129.916 26.9049 134.281 25.5207 138.768 25.5207Z" fill="#371A45"/>
</g>
<g id="Group_44">
<path id="Vector_42" d="M124.736 44.9552C123.954 49.6214 125.528 54.1312 128.587 57.2791C130.295 59.0429 132.46 60.3713 134.95 61.0745C135.441 61.2085 135.932 61.3201 136.445 61.4094C137.238 61.5434 138.031 61.6103 138.812 61.6103C141.458 61.6103 143.98 60.8848 146.157 59.5787C149.607 57.5024 152.174 53.9861 152.9 49.6995C153.625 45.4129 152.353 41.2491 149.763 38.157C148.133 36.2146 145.99 34.6965 143.489 33.8369C142.753 33.5802 141.982 33.3792 141.19 33.2453C140.676 33.156 140.174 33.1002 139.672 33.0667C137.093 32.9104 134.604 33.4574 132.416 34.5625C128.486 36.5272 125.517 40.2891 124.736 44.9552Z" fill="#22A7F0"/>
</g>
<path id="Vector_43" opacity="0.7" d="M132.65 34.7858L148.982 57.7257C150.857 55.8615 152.118 53.5507 152.732 51.0949L140.141 33.4016C137.618 33.1895 135.028 33.6249 132.65 34.7858Z" fill="url(#paint0_linear_133_1358)"/>
<path id="Vector_44" opacity="0.7" d="M125.34 43.1356L138.691 61.9005C141.147 61.934 143.625 61.3424 145.869 60.081L129.404 36.9514C127.473 38.6704 126.111 40.8137 125.34 43.1356Z" fill="url(#paint1_linear_133_1358)"/>
<g id="Group_45">
<path id="Vector_45" d="M138.825 62.682C146.181 62.682 152.711 57.3573 153.973 49.867C154.654 45.8148 153.716 41.7515 151.338 38.4026C148.961 35.0538 145.422 32.8435 141.37 32.1625C137.329 31.4816 133.254 32.4193 129.906 34.797C126.557 37.1747 124.346 40.7134 123.666 44.7655C122.259 53.1154 127.907 61.0634 136.268 62.4699C137.128 62.6151 137.988 62.682 138.825 62.682ZM138.791 34.1272C139.528 34.1272 140.265 34.1942 141.013 34.317C144.484 34.8975 147.521 36.8063 149.575 39.6752C151.618 42.5441 152.421 46.0381 151.841 49.5098C150.635 56.6875 143.815 61.5323 136.648 60.3267C129.47 59.1211 124.626 52.3005 125.831 45.1339C126.412 41.6622 128.32 38.6259 131.189 36.5719C133.433 34.9644 136.079 34.1272 138.791 34.1272Z" fill="#371A45"/>
</g>
<g id="Group_46">
<g id="Group_47">
<path id="Vector_46" d="M26.791 41.4055C26.791 41.4055 19.6579 32.2854 1.78601 47.0651C0.948784 47.7572 0.94878 49.0521 1.80833 49.7331C6.37397 53.3834 19.7025 62.8049 26.8691 54.8792L26.791 41.4055Z" fill="#E94E1B"/>
</g>
<g id="Group_48">
<path id="Vector_47" d="M26.8348 43.3478C26.8348 43.3478 21.7668 36.8734 9.08573 47.4112C8.52758 47.8689 8.53875 48.7284 9.0969 49.1749C12.256 51.7201 21.7892 58.5183 26.8906 52.8698L26.8348 43.3478Z" fill="#FD7D53"/>
</g>
<g id="Group_49">
<path id="Vector_48" d="M27.3493 44.8996C27.3493 44.8996 23.9335 40.5349 15.3715 47.6345C14.992 47.9471 15.0031 48.5276 15.3826 48.829C17.5148 50.5481 23.9446 55.136 27.3828 51.3183L27.3493 44.8996Z" fill="#E94E1B"/>
</g>
<g id="Group_50">
<path id="Vector_49" d="M19.7023 59.1547C22.6493 59.1547 25.4512 58.1835 27.7396 55.6495C27.9406 55.4374 28.041 55.1472 28.041 54.8569L27.9629 41.3944C27.9629 41.1377 27.8736 40.8809 27.7173 40.68C27.628 40.5684 25.574 38.0009 21.1311 37.5209C15.4715 36.9069 8.71795 39.8093 1.04901 46.1498C0.37923 46.708 -0.0114613 47.534 -0.000297546 48.4048C0.0108643 49.2755 0.401562 50.0904 1.0825 50.6373C4.90023 53.696 12.7143 59.1547 19.7023 59.1547ZM25.6968 54.3993C19.0437 61.0524 6.32907 51.8318 2.54483 48.8066C2.36622 48.6727 2.34392 48.4829 2.34392 48.3936C2.34392 48.2931 2.36622 48.1145 2.54483 47.9694C11.397 40.6465 17.3469 39.5079 20.7851 39.854C23.52 40.1219 25.0605 41.3274 25.6298 41.8744L25.6968 54.3993Z" fill="#371A45"/>
</g>
</g>
<g id="Group_51">
<path id="Vector_50" d="M35.3633 53.6066C32.126 56.0513 28.1967 56.1294 28.1967 56.1294C28.1967 56.1294 26.5222 53.3275 26.3883 47.3777C26.2655 41.439 27.8171 38.5589 27.8171 38.5589C27.8171 38.5589 31.7577 38.4696 35.0842 40.7804" fill="#E2E8E8"/>
</g>
<g id="Group_52">
<path id="Vector_51" d="M28.1979 57.3126C28.2091 57.3126 28.2202 57.3126 28.2202 57.3126C28.3988 57.3126 32.5738 57.1898 36.0678 54.5442C36.5813 54.1535 36.6817 53.4167 36.291 52.9032C35.9003 52.3897 35.1636 52.2893 34.6501 52.68C32.5626 54.254 30.0956 54.7563 28.9012 54.9014C28.4547 53.8186 27.6398 51.3293 27.5616 47.3664C27.4723 43.4036 28.1756 40.8919 28.5775 39.7756C29.7831 39.8761 32.2612 40.2668 34.4157 41.7515C34.9515 42.1198 35.6771 41.9859 36.0455 41.45C36.4138 40.9142 36.2799 40.1886 35.7441 39.8203C32.1384 37.3309 27.9523 37.3868 27.7849 37.3979C27.3607 37.4091 26.9812 37.6435 26.7802 38.0119C26.7132 38.1458 25.0723 41.238 25.2062 47.4111C25.3402 53.5953 27.104 56.6093 27.1821 56.7433C27.3942 57.1005 27.7849 57.3126 28.1979 57.3126Z" fill="#371A45"/>
</g>
<g id="Group_53">
<path id="Vector_52" d="M37.8117 58.3285C31.1251 56.9778 31.1586 49.1302 31.1139 47.2883C31.0693 45.4464 30.712 37.61 37.3317 35.9691C44.0294 34.317 72.9415 35.9244 73.1647 46.3841C73.388 56.8438 44.5653 59.6904 37.8117 58.3285Z" fill="#E94E1B"/>
</g>
<g id="Group_54" opacity="0.7">
<path id="Vector_53" d="M31.1126 45.5469C31.7042 42.8566 33.2223 39.9431 36.9619 39.0166C43.4923 37.4091 71.1205 38.8937 72.7169 48.6502C73.0183 47.9357 73.1745 47.1767 73.1522 46.3729C72.9289 35.9132 44.0169 34.3058 37.3191 35.9579C32.0391 37.2751 31.213 42.544 31.1126 45.5469Z" fill="white"/>
</g>
<g id="Group_55" opacity="0.25">
<path id="Vector_54" d="M37.8124 55.694C32.5435 54.6335 31.4496 49.5321 31.1928 46.5181C32.1193 47.4223 33.3361 48.1255 34.9436 48.4381C40.7706 49.6214 63.0184 47.6567 68.8789 40.3896C71.0334 41.6845 72.5292 43.2808 72.998 45.212C70.6762 54.4773 44.2535 56.9889 37.8124 55.694Z" fill="#371A45"/>
</g>
<g id="Group_56">
<path id="Vector_55" d="M42.4761 59.8354C50.893 59.8354 64.9917 57.681 71.1425 52.5348C73.3193 50.7153 74.391 48.639 74.3463 46.3506C74.3017 44.0622 73.1296 42.0417 70.8858 40.3114C62.9936 34.2611 43.0789 33.3346 37.0621 34.8192C33.702 35.6453 29.7392 38.4584 29.9513 47.1543L29.9624 47.4557C30.1299 56.1405 34.2043 58.7861 37.5979 59.467C38.7477 59.7126 40.4444 59.8354 42.4761 59.8354ZM44.1171 36.5718C52.1655 36.5718 64.1769 38.1458 69.4569 42.1756C71.1314 43.4594 71.9686 44.8436 72.0021 46.3952C72.0356 47.958 71.2653 49.3757 69.6467 50.7264C62.7815 56.4754 43.4808 58.2614 38.0556 57.1675C34.2937 56.4084 32.4071 53.2158 32.3066 47.4111L32.2955 47.0985C32.1504 41.2938 33.903 38.023 37.6202 37.0965C38.9933 36.7616 41.3152 36.5718 44.1171 36.5718Z" fill="#371A45"/>
</g>
<g id="Group_57">
<path id="Vector_56" d="M48.4386 59.322C48.5391 59.322 48.6507 59.2997 48.7623 59.2662C49.287 59.0876 49.566 58.5295 49.3874 58.0048C46.9428 50.7935 46.7753 43.1023 48.9074 35.7905L47.9474 35.5115L46.9874 35.2659C44.7437 42.9348 44.9223 51.0391 47.5009 58.6411C47.6349 59.0653 48.0256 59.322 48.4386 59.322Z" fill="#371A45"/>
</g>
</g>
<defs>
<linearGradient id="paint0_linear_133_1358" x1="140.007" y1="39.2175" x2="148.105" y2="50.5067" gradientUnits="userSpaceOnUse">
<stop stop-color="white"/>
<stop offset="1" stop-color="white"/>
</linearGradient>
<linearGradient id="paint1_linear_133_1358" x1="131.202" y1="45.4542" x2="139.367" y2="56.8376" gradientUnits="userSpaceOnUse">
<stop stop-color="white"/>
<stop offset="1" stop-color="white"/>
</linearGradient>
</defs>
</svg>
