<svg width="192" height="151" viewBox="0 0 192 151" fill="none" xmlns="http://www.w3.org/2000/svg">
<path opacity="0.25" d="M96.8478 150.405C149.399 150.405 192 148.413 192 145.955C192 143.497 149.399 141.505 96.8478 141.505C44.2965 141.505 1.69531 143.497 1.69531 145.955C1.69531 148.413 44.2965 150.405 96.8478 150.405Z" fill="#371A45"/>
<path d="M101.912 3.33334H68.1035V27.6568H101.912V3.33334Z" fill="#E94E1B"/>
<path d="M101.912 29.1316H68.104C67.2858 29.1316 66.6191 28.4649 66.6191 27.6468V3.32333C66.6191 2.50514 67.2858 1.83847 68.104 1.83847H101.912C102.731 1.83847 103.397 2.50514 103.397 3.32333V27.6468C103.387 28.475 102.731 29.1316 101.912 29.1316ZM69.5788 26.172H100.427V4.80818H69.5788V26.172Z" fill="#371A45"/>
<path d="M66.3367 75.2633C65.3872 75.2633 64.6094 74.4855 64.6094 73.536V3.33345C64.6094 2.38395 65.3872 1.60617 66.3367 1.60617C67.2862 1.60617 68.064 2.38395 68.064 3.33345V73.536C68.064 74.4956 67.2862 75.2633 66.3367 75.2633Z" fill="#371A45"/>
<path d="M66.3362 31.3438C63.8009 31.3438 61.7402 29.2832 61.7402 26.7478V4.59615C61.7402 2.06077 63.8009 0.000152588 66.3362 0.000152588C68.8716 0.000152588 70.9322 2.06077 70.9322 4.59615V26.7478C70.9322 29.2731 68.8716 31.3438 66.3362 31.3438ZM66.3362 3.45473C65.71 3.45473 65.1948 3.96988 65.1948 4.59615V26.7478C65.1948 27.3741 65.71 27.8893 66.3362 27.8893C66.9625 27.8893 67.4777 27.3741 67.4777 26.7478V4.59615C67.4777 3.96988 66.9625 3.45473 66.3362 3.45473Z" fill="#371A45"/>
<path d="M78.5184 69.0913C78.3972 69.0913 78.276 69.0812 78.1446 69.0711C76.3871 68.8691 75.1244 67.2731 75.3264 65.5155C76.4477 55.8084 68.2355 46.8588 59.5586 43.0507C50.4778 39.0608 41.7807 40.4649 36.3059 46.8083C35.1443 48.1518 33.1241 48.2932 31.7807 47.1417C30.4372 45.98 30.2958 43.9598 31.4473 42.6164C38.7504 34.1618 50.5081 32.0809 62.1344 37.182C74.983 42.8184 83.0235 54.7781 81.7002 66.263C81.5184 67.8893 80.1245 69.0913 78.5184 69.0913Z" fill="#B0B9BB"/>
<g opacity="0.6">
<path d="M69.0838 41.3942C70.7101 44.6367 67.8515 46.566 64.902 46.0912C62.508 43.2023 55.205 41.3942 55.205 41.3942C52.609 39.9801 51.9322 37.8791 53.0433 36.2124C54.1544 34.5457 58.1646 36.2124 58.1646 36.2124C58.1646 36.2124 63.8313 37.6366 69.0838 41.3942Z" fill="#FFFDF9"/>
</g>
<path d="M78.5175 70.5661C78.3357 70.5661 78.1539 70.556 77.972 70.5358C76.7296 70.3944 75.6185 69.7783 74.8407 68.7884C74.0629 67.8086 73.7094 66.5863 73.8609 65.3338C74.9013 56.3337 67.1538 47.9902 58.9618 44.3942C50.5072 40.677 42.4566 41.9396 37.4263 47.7579C36.6081 48.7074 35.4667 49.273 34.2243 49.374C32.9818 49.465 31.7697 49.0609 30.8202 48.2427C29.8707 47.4245 29.305 46.2831 29.204 45.0407C29.1131 43.7882 29.5171 42.5861 30.3353 41.6366C38.0829 32.6669 50.4971 30.4446 62.7396 35.8184C76.1741 41.7174 84.5782 54.3034 83.1842 66.4247C82.9014 68.7883 80.9014 70.5661 78.5175 70.5661ZM49.6082 39.3235C52.9719 39.3235 56.5376 40.1012 60.1537 41.6972C69.3356 45.7276 78.0024 55.263 76.8003 65.6873C76.7498 66.1419 76.871 66.5964 77.164 66.9601C77.4468 67.3237 77.861 67.5459 78.3155 67.6065C78.3862 67.6166 78.4569 67.6166 78.5175 67.6166C79.3963 67.6166 80.1337 66.96 80.2347 66.0914C81.4872 55.2529 73.8003 43.9195 61.5477 38.5457C50.5375 33.7174 39.4364 35.6467 32.5778 43.5962C32.2747 43.9498 32.1333 44.3942 32.1636 44.8488C32.1939 45.3134 32.4061 45.7276 32.7596 46.0306C33.1131 46.3336 33.5576 46.475 34.0121 46.4447C34.4768 46.4144 34.8909 46.2023 35.1939 45.8488C38.901 41.5356 43.9516 39.3235 49.6082 39.3235Z" fill="#371A45"/>
<path d="M41.9709 43.4547C41.4759 43.4547 41.0517 43.0911 40.9911 42.5961C40.6173 39.6466 37.8294 38.6062 37.7082 38.5658C37.1931 38.3839 36.9304 37.8183 37.1122 37.3031C37.2941 36.788 37.8496 36.5254 38.3648 36.7072C38.5264 36.7678 42.4153 38.1718 42.9406 42.3537C43.0113 42.8991 42.6274 43.384 42.082 43.4547C42.0517 43.4547 42.0113 43.4547 41.9709 43.4547Z" fill="#371A45"/>
<path d="M48.104 41.0406C48.0131 41.0406 47.9222 41.0305 47.8212 41.0002C47.2959 40.8487 47.003 40.3032 47.1545 39.7779C47.8111 37.5254 46.9121 35.7274 46.6191 35.1416C46.5585 35.0203 46.5181 34.9395 46.4979 34.889C46.2959 34.384 46.5383 33.8082 47.0434 33.6062C47.5484 33.4042 48.1141 33.6466 48.3262 34.1415C48.3363 34.1718 48.3565 34.2021 48.3767 34.2527C49.407 36.2931 49.6293 38.3436 49.0434 40.3335C48.9222 40.7577 48.5282 41.0406 48.104 41.0406Z" fill="#371A45"/>
<path d="M56.2554 42.384C56.124 42.384 55.9927 42.3537 55.8614 42.3032C55.3665 42.0911 55.1341 41.5052 55.3463 41.0002C56.4877 38.3739 55.4372 36.4042 55.3867 36.3234C55.124 35.8486 55.2957 35.2526 55.7705 34.9799C56.2453 34.7173 56.8412 34.8789 57.1039 35.3537C57.1645 35.4648 58.6998 38.2325 57.1544 41.7881C57.0029 42.1618 56.6392 42.384 56.2554 42.384Z" fill="#371A45"/>
<path d="M63.4671 45.6871C63.2247 45.6871 62.9924 45.5962 62.8004 45.4244C62.3964 45.0507 62.3762 44.4345 62.7398 44.0305C64.8105 41.788 64.1843 39.3941 64.1843 39.3739C64.0429 38.8486 64.3459 38.3032 64.8712 38.1617C65.3964 38.0203 65.9419 38.3234 66.0833 38.8486C66.1237 38.99 67.0025 42.3234 64.1944 45.3739C63.9924 45.5861 63.7297 45.6871 63.4671 45.6871Z" fill="#371A45"/>
<path d="M69.8809 50.7074C69.598 50.7074 69.3253 50.5862 69.1233 50.3538C68.7697 49.9397 68.8202 49.3134 69.2445 48.9599C71.5879 46.9801 71.0324 44.3942 71.0324 44.3639C70.8607 43.8487 71.1435 43.3134 71.6688 43.1416C72.1839 42.9699 72.7496 43.273 72.9213 43.7881C73.1738 44.5558 73.5172 47.9397 70.5273 50.4649C70.3354 50.6367 70.1031 50.7074 69.8809 50.7074Z" fill="#371A45"/>
<path d="M74.5064 57.6166C74.1023 57.6166 73.7185 57.3641 73.5771 56.9601C73.3953 56.4449 73.6579 55.8793 74.1731 55.6974C76.6983 54.7984 77.4256 53.8792 77.6276 53.4045C77.7993 53.0206 77.6983 52.7782 77.6882 52.7479L78.5771 52.3136L79.4458 51.8489C79.4963 51.9499 79.961 52.859 79.4963 54.0509C78.9509 55.4651 77.3852 56.6469 74.8397 57.556C74.7286 57.6065 74.6175 57.6166 74.5064 57.6166Z" fill="#371A45"/>
<path d="M81.7302 143.334C88.5138 143.334 94.0131 137.532 94.0131 130.375C94.0131 123.217 88.5138 117.415 81.7302 117.415C74.9465 117.415 69.4473 123.217 69.4473 130.375C69.4473 137.532 74.9465 143.334 81.7302 143.334Z" fill="#6D6C80"/>
<g opacity="0.25">
<path d="M94.3554 130.193C94.3554 137.345 88.8604 143.153 82.0725 143.153C76.83 143.153 72.3451 139.678 70.5977 134.789C72.8098 138.153 76.4967 140.355 80.6785 140.355C87.4564 140.355 92.9615 134.547 92.9615 127.395C92.9615 125.779 92.6786 124.233 92.1635 122.809C93.5473 124.91 94.3554 127.456 94.3554 130.193Z" fill="#371A45"/>
</g>
<g opacity="0.3">
<path d="M72.2254 122.183C72.2254 122.183 77.8619 119.748 78.9225 124.617C78.9225 124.617 80.074 128.971 76.8416 131.223C76.5689 131.415 70.5487 133.749 70.0537 129.375" fill="white"/>
</g>
<path d="M81.7294 144.819C74.1434 144.819 67.9717 138.345 67.9717 130.385C67.9717 122.425 74.1434 115.95 81.7294 115.95C89.3153 115.95 95.4871 122.425 95.4871 130.385C95.4871 138.345 89.3153 144.819 81.7294 144.819ZM81.7294 118.9C75.7798 118.9 70.9313 124.052 70.9313 130.375C70.9313 136.698 75.7798 141.85 81.7294 141.85C87.6789 141.85 92.5274 136.698 92.5274 130.375C92.5274 124.052 87.6789 118.9 81.7294 118.9Z" fill="#371A45"/>
<path d="M83.357 137.94C87.1505 137.94 90.2258 134.553 90.2258 130.375C90.2258 126.196 87.1505 122.809 83.357 122.809C79.5635 122.809 76.4883 126.196 76.4883 130.375C76.4883 134.553 79.5635 137.94 83.357 137.94Z" fill="#E94E1B"/>
<path d="M83.3554 138.931C79.022 138.931 75.5068 135.092 75.5068 130.385C75.5068 125.668 79.0321 121.839 83.3554 121.839C87.6786 121.839 91.2039 125.678 91.2039 130.385C91.214 135.092 87.6887 138.931 83.3554 138.931ZM83.3554 123.799C80.1129 123.799 77.4765 126.749 77.4765 130.375C77.4765 134.001 80.1129 136.951 83.3554 136.951C86.5978 136.951 89.2342 134.001 89.2342 130.375C89.2342 126.749 86.5978 123.799 83.3554 123.799Z" fill="#371A45"/>
<path d="M56.4167 143.335C63.2004 143.335 68.6996 137.532 68.6996 130.375C68.6996 123.217 63.2004 117.415 56.4167 117.415C49.633 117.415 44.1338 123.217 44.1338 130.375C44.1338 137.532 49.633 143.335 56.4167 143.335Z" fill="#6D6C80"/>
<g opacity="0.25">
<path d="M69.0439 130.193C69.0439 137.345 63.5489 143.153 56.761 143.153C51.5185 143.153 47.0336 139.678 45.2861 134.789C47.4983 138.153 51.1851 140.355 55.367 140.355C62.1448 140.355 67.6499 134.547 67.6499 127.395C67.6499 125.779 67.3671 124.233 66.852 122.809C68.2459 124.91 69.0439 127.456 69.0439 130.193Z" fill="#371A45"/>
</g>
<g opacity="0.3">
<path d="M46.9129 122.183C46.9129 122.183 52.5494 119.748 53.61 124.617C53.61 124.617 54.7615 128.971 51.5291 131.223C51.2564 131.415 45.2362 133.749 44.7412 129.375" fill="white"/>
</g>
<path d="M56.4169 144.819C48.8309 144.819 42.6592 138.345 42.6592 130.385C42.6592 122.425 48.8309 115.95 56.4169 115.95C64.0028 115.95 70.1745 122.415 70.1745 130.375C70.1745 138.334 64.0028 144.819 56.4169 144.819ZM56.4169 118.9C50.4673 118.9 45.6188 124.052 45.6188 130.375C45.6188 136.698 50.4673 141.85 56.4169 141.85C62.3664 141.85 67.2149 136.698 67.2149 130.375C67.2149 124.052 62.3664 118.9 56.4169 118.9Z" fill="#371A45"/>
<path d="M58.0523 137.94C61.8458 137.94 64.9211 134.553 64.9211 130.375C64.9211 126.196 61.8458 122.809 58.0523 122.809C54.2588 122.809 51.1836 126.196 51.1836 130.375C51.1836 134.553 54.2588 137.94 58.0523 137.94Z" fill="#E94E1B"/>
<path d="M58.0526 138.93C53.7193 138.93 50.2041 135.092 50.2041 130.385C50.2041 125.668 53.7294 121.839 58.0526 121.839C62.3759 121.839 65.9012 125.678 65.9012 130.385C65.9012 135.092 62.3759 138.93 58.0526 138.93ZM58.0526 123.799C54.8102 123.799 52.1738 126.748 52.1738 130.375C52.1738 134.001 54.8102 136.951 58.0526 136.951C61.2951 136.951 63.9315 134.001 63.9315 130.375C63.9315 126.748 61.2951 123.799 58.0526 123.799Z" fill="#371A45"/>
<path d="M162.913 76.6167V134.365H64.0835C59.0127 134.082 55.2753 132.435 53.548 128.738C52.8106 127.163 52.4369 125.203 52.4773 122.819V105.243C52.2349 97.9603 53.5884 87.839 53.5884 87.839C57.2854 64.162 78.7603 64.7782 78.7603 64.7782H154.145C158.539 65.6469 160.741 68.2934 161.832 70.8793C163.084 73.7985 162.913 76.6167 162.913 76.6167Z" fill="#B7C6D7"/>
<g opacity="0.25">
<path d="M101.538 134.365H64.0833C59.0125 134.082 55.2751 132.435 53.5479 128.738C93.5482 138.526 100.952 112.243 100.952 112.243L100.75 118.577C100.76 118.577 101.851 126.799 101.538 134.365Z" fill="#371A45"/>
</g>
<path d="M113.893 64.7782C113.893 64.7782 114.963 55.4852 124.832 55.4852H111.428C111.428 55.4852 102.549 56.061 100.074 64.7782" fill="#B7C6D7"/>
<path d="M96.377 124.759C89.8517 124.759 86.4274 119.365 85.4375 117.486H59.3464C57.3868 122.354 52.71 122.617 52.4978 122.617C51.9221 122.637 51.4372 122.193 51.4069 121.617C51.3867 121.041 51.8211 120.556 52.3968 120.526C52.5585 120.516 56.2959 120.264 57.609 116.112C57.7504 115.678 58.1443 115.385 58.5989 115.385H86.0739C86.4981 115.385 86.8718 115.637 87.0335 116.031C87.1547 116.324 90.1648 123.274 97.2962 122.617C97.8719 122.567 98.377 122.991 98.4275 123.567C98.478 124.142 98.0538 124.647 97.4881 124.698C97.1143 124.738 96.7406 124.759 96.377 124.759Z" fill="#371A45"/>
<path d="M83.9433 135.153C83.6504 135.153 83.3675 134.991 83.2362 134.708L80.8018 129.617C80.2059 128.375 78.9432 127.577 77.5695 127.577H65.0946C63.8118 127.577 62.6199 128.274 61.9835 129.385L59.4885 133.759C59.2764 134.132 58.7916 134.264 58.4178 134.052C58.0441 133.839 57.9128 133.355 58.1249 132.981L60.6199 128.607C61.5391 127.001 63.2461 126.011 65.0946 126.011H77.5695C79.5392 126.011 81.3675 127.163 82.216 128.94L84.6504 134.031C84.8322 134.425 84.6706 134.89 84.2766 135.072C84.1756 135.122 84.0645 135.153 83.9433 135.153Z" fill="#371A45"/>
<path d="M142.024 64.7782C139.883 69.061 132.772 68.8489 132.772 68.8489L105.297 69.5863C96.1652 70.3237 93.5793 82.9096 93.0843 91.3037C92.9025 94.334 92.3571 96.8289 91.7308 98.7683C90.6197 102.172 87.6904 104.667 84.1651 105.273C78.6196 106.233 70.6902 106.486 64.6902 105.385C60.175 104.556 56.8618 100.738 56.6598 96.1623C56.1346 84.2228 59.6598 73.5661 59.6598 73.5661C67.276 64.4549 78.7812 64.7782 78.7812 64.7782H142.024Z" fill="#371A45"/>
<path d="M154.156 64.7782C154.873 60.364 153.126 58.0205 151.328 56.7882C150.035 55.9094 148.479 55.4852 146.924 55.4852H131.701C131.701 55.4852 143.277 55.1518 142.53 64.2024" fill="#B7C6D7"/>
<path d="M99.2355 120.021C99.7405 112.183 100.528 104.415 101.741 96.6573C102.357 92.7886 103.084 88.93 104.094 85.1219C104.882 82.2632 105.761 79.3743 107.326 76.8087C107.68 76.243 109.427 73.7076 110.104 74.6268C110.256 74.849 110.195 75.1622 109.973 75.3137C108.528 76.4046 107.72 78.2632 107.054 79.94C103.872 89.0815 103.165 98.9098 102.326 108.506C102.044 112.385 101.831 116.284 101.71 120.142C101.619 121.769 99.1749 121.688 99.2355 120.021Z" fill="#371A45"/>
<g opacity="0.6">
<path d="M162.913 76.6167V78.7884C162.832 76.3945 161.923 69.2631 154.155 67.7378H78.7607C78.7607 67.7378 57.2959 67.1216 53.5888 90.7986C53.5888 90.7986 52.609 98.132 52.4676 104.799C52.2858 97.5562 53.5888 87.839 53.5888 87.839C57.2858 64.162 78.7607 64.7782 78.7607 64.7782H154.145C163.529 66.6267 162.913 76.6167 162.913 76.6167Z" fill="#FFFDF9"/>
</g>
<g opacity="0.6">
<path d="M52.4786 104.799C52.4786 104.951 52.4786 105.092 52.4887 105.243V108.203C52.4483 107.122 52.4483 105.971 52.4786 104.799Z" fill="#FFFDF9"/>
</g>
<g opacity="0.6">
<path d="M162.913 79.5865V78.7986C162.933 79.2835 162.913 79.5865 162.913 79.5865Z" fill="#FFFDF9"/>
</g>
<path d="M73.6292 107.587C70.4877 107.587 67.2857 107.375 64.417 106.839C59.2048 105.88 55.4068 101.516 55.1745 96.2229C54.6391 84.1521 58.0937 73.546 58.2452 73.0914C58.4977 72.3137 59.3361 71.8894 60.1139 72.152C60.8917 72.4046 61.3159 73.243 61.0533 74.0207C61.023 74.1218 57.629 84.5764 58.1341 96.0916C58.3058 100.001 61.1139 103.223 64.9523 103.93C71.0837 105.051 78.8918 104.678 83.9121 103.809C86.9323 103.284 89.3868 101.172 90.3162 98.3038C91.0232 96.132 91.4576 93.7482 91.6091 91.2128C92.003 84.5663 94.1041 69.0106 105.185 68.1116C105.215 68.1116 105.235 68.1116 105.266 68.1116L132.741 67.3742C132.771 67.3742 132.791 67.3742 132.822 67.3742C134.539 67.4348 139.306 66.9197 140.7 64.1217C141.216 63.0914 141.155 62.0106 140.519 60.9095C139.256 58.7378 136.175 57.1519 132.862 56.9701H110.589C109.872 57.0307 102.013 57.8388 101.044 64.9803C100.932 65.7884 100.185 66.354 99.3768 66.253C98.5688 66.1419 98.0031 65.3944 98.1041 64.5863C99.1647 56.7984 106.629 54.263 110.438 54.0105C110.468 54.0105 110.498 54.0105 110.539 54.0105H132.912C132.943 54.0105 132.963 54.0105 132.993 54.0105C137.347 54.2428 141.317 56.364 143.094 59.4247C144.236 61.3843 144.337 63.5257 143.367 65.4449C140.913 70.3642 133.519 70.3439 132.791 70.3338L105.397 71.0712C96.6697 71.8187 94.9223 85.5259 94.5788 91.3946C94.4172 94.1825 93.9323 96.8189 93.1445 99.2331C91.8717 103.152 88.5283 106.031 84.4272 106.738C81.4575 107.243 77.5989 107.587 73.6292 107.587Z" fill="#371A45"/>
<path d="M154.156 66.253C154.075 66.253 153.994 66.2429 153.913 66.2328C153.105 66.1015 152.56 65.3439 152.691 64.5358C153.176 61.5358 152.439 59.3439 150.489 58.0004C149.489 57.3135 148.257 56.96 146.913 56.96H131.691C130.873 56.96 130.206 56.2933 130.206 55.4752C130.206 54.657 130.873 53.9903 131.691 53.9903H146.913C148.853 53.9903 150.661 54.5257 152.156 55.556C154.206 56.96 156.469 59.7378 155.61 65.0106C155.499 65.7378 154.863 66.253 154.156 66.253Z" fill="#371A45"/>
<path d="M89.8117 129.183H86.64C85.741 129.183 85.0137 128.456 85.0137 127.557C85.0137 126.658 85.741 125.93 86.64 125.93H89.8117C90.7107 125.93 91.438 126.658 91.438 127.557C91.4279 128.456 90.7006 129.183 89.8117 129.183Z" fill="#E94E1B"/>
<path d="M120.307 55.4852H131.943V53.8287C131.943 51.2529 129.862 49.1721 127.286 49.1721H124.963C122.387 49.1721 120.307 51.2529 120.307 53.8287V55.4852Z" fill="#E94E1B"/>
<path d="M53.7709 129.183H56.3871C56.8315 129.183 57.2457 129.001 57.5285 128.708C57.8215 128.415 58.0033 128.011 58.0033 127.556C58.0033 126.657 57.276 125.93 56.377 125.93H53.2052C53.0234 125.93 52.8517 125.96 52.7002 126.011" fill="#E94E1B"/>
<path d="M131.944 56.96H120.307C119.489 56.96 118.822 56.2933 118.822 55.4751V53.8287C118.822 50.4448 121.58 47.6872 124.964 47.6872H127.287C130.671 47.6872 133.428 50.4448 133.428 53.8287V55.4852C133.428 56.3034 132.762 56.96 131.944 56.96ZM121.782 54.0004H130.459V53.8287C130.459 52.0812 129.034 50.6468 127.277 50.6468H124.954C123.206 50.6468 121.772 52.0711 121.772 53.8287V54.0004H121.782Z" fill="#371A45"/>
<path d="M113.893 66.2532C113.832 66.2532 113.772 66.2532 113.721 66.2431C112.913 66.1421 112.327 65.4148 112.428 64.6067C112.853 60.94 115.984 54.0005 124.843 54.0005C125.661 54.0005 126.327 54.6672 126.327 55.4854C126.327 56.3036 125.661 56.9703 124.843 56.9703C116.449 56.9703 115.408 64.6269 115.368 64.9602C115.267 65.6976 114.63 66.2532 113.893 66.2532Z" fill="#371A45"/>
<path d="M85.0132 89.7382C85.6496 89.6068 86.1041 89.0311 86.1041 88.3846V84.5866C86.1041 78.0714 78.1546 78.6169 77.7707 83.829C77.7707 83.829 77.3061 89.2937 78.599 92.6271C78.7808 93.1119 79.4273 93.1927 79.7505 92.7887C80.5586 91.7887 82.2051 90.2937 85.0132 89.7382Z" fill="#E94E1B"/>
<path d="M62.6601 88.2936C62.1146 88.1622 61.7409 87.6673 61.7207 87.1117C61.65 84.8794 61.9227 79.7682 65.7712 79.4147C70.4177 78.9905 70.5793 86.4046 68.347 91.4956C68.1651 91.8996 67.6197 91.9603 67.347 91.6067C66.549 90.5764 64.9328 88.8693 62.6601 88.2936Z" fill="#E94E1B"/>
<path d="M162.892 75.3844H133.64C130.902 75.3844 128.397 76.9602 127.236 79.4349C125.316 83.5158 122.751 90.1724 122.458 97.0108C122.286 101.051 125.488 104.435 129.539 104.435H162.892" fill="#E94E1B"/>
<path d="M162.922 112.243H127.982C126.315 112.243 124.79 113.173 124.002 114.647C122.911 116.698 121.669 120.092 121.639 124.91H162.922" fill="#E94E1B"/>
<path d="M162.893 105.658H129.539C127.256 105.658 125.125 104.748 123.539 103.092C121.953 101.435 121.125 99.2433 121.226 96.9403C121.529 90.011 124.054 83.3038 126.125 78.8997C127.479 76.0108 130.428 74.1422 133.64 74.1422H162.893C163.57 74.1422 164.125 74.6977 164.125 75.3745C164.125 76.0513 163.57 76.6068 162.893 76.6068H133.64C131.378 76.6068 129.307 77.92 128.357 79.9503C126.388 84.1523 123.974 90.5261 123.691 97.0514C123.62 98.6777 124.196 100.213 125.317 101.385C126.428 102.546 127.923 103.183 129.529 103.183H162.883C163.56 103.183 164.115 103.738 164.115 104.415C164.115 105.092 163.57 105.658 162.893 105.658Z" fill="#371A45"/>
<path d="M121.64 126.385H121.63C120.812 126.375 120.155 125.708 120.155 124.89C120.196 119.738 121.559 116.092 122.691 113.94C123.731 111.971 125.761 110.748 127.974 110.748H162.913C163.731 110.748 164.398 111.415 164.398 112.233C164.398 113.051 163.731 113.718 162.913 113.718H127.974C126.852 113.718 125.832 114.334 125.307 115.334C124.327 117.193 123.145 120.365 123.115 124.91C123.115 125.728 122.458 126.385 121.64 126.385Z" fill="#371A45"/>
<path d="M89.8102 129.708H86.6385C85.4567 129.708 84.4971 128.748 84.4971 127.567C84.4971 126.385 85.4567 125.425 86.6385 125.425H89.8102C90.9921 125.425 91.9517 126.385 91.9517 127.567C91.9517 128.738 90.9921 129.708 89.8102 129.708ZM86.6385 126.455C86.0324 126.455 85.5375 126.95 85.5375 127.556C85.5375 128.163 86.0324 128.658 86.6385 128.658H89.8102C90.4163 128.658 90.9113 128.163 90.9113 127.556C90.9113 126.95 90.4163 126.455 89.8102 126.455H86.6385Z" fill="#371A45"/>
<path d="M56.3871 129.708H53.7709C53.478 129.708 53.2456 129.476 53.2456 129.183C53.2456 128.89 53.478 128.658 53.7709 128.658H56.3871C56.68 128.658 56.9628 128.536 57.1648 128.334C57.377 128.122 57.4881 127.85 57.4881 127.557C57.4881 126.951 56.9931 126.456 56.3871 126.456H53.2153C53.1042 126.456 52.983 126.476 52.8719 126.516C52.5992 126.607 52.3062 126.466 52.2052 126.193C52.1143 125.92 52.2557 125.627 52.5285 125.526C52.7406 125.456 52.9729 125.415 53.2052 125.415H56.377C57.5588 125.415 58.5184 126.375 58.5184 127.557C58.5184 128.132 58.2962 128.668 57.8921 129.072C57.5083 129.476 56.9527 129.708 56.3871 129.708Z" fill="#371A45"/>
<path d="M162.913 135.849H64.0844C64.0541 135.849 64.0339 135.849 64.0036 135.849C55.2156 135.354 50.8418 130.96 51.0035 122.789V105.243C50.761 97.9703 52.0742 88.0612 52.1247 87.6369C55.9833 62.9196 78.5895 63.2933 78.8017 63.2933H154.146C154.247 63.2933 154.338 63.3034 154.429 63.3236C162.812 64.9802 164.61 72.7479 164.378 76.6671V134.365C164.398 135.183 163.732 135.849 162.913 135.849ZM64.1248 132.88H161.429V76.6166C161.429 76.5863 161.429 76.556 161.429 76.5257C161.449 76.1722 161.823 67.8893 153.994 66.2529H78.7613C77.9027 66.2327 58.4985 66.0004 55.054 88.0612C55.0439 88.1319 53.7207 98.1218 53.9631 105.193V122.809C53.8318 129.375 56.9631 132.476 64.1248 132.88Z" fill="#371A45"/>
<g opacity="0.25">
<path d="M162.913 76.6167V134.365H100.761V112.799C171.852 125.94 154.327 85.6168 161.842 70.8692C163.084 73.7985 162.913 76.6167 162.913 76.6167Z" fill="#371A45"/>
</g>
<path d="M132.77 143.334C139.554 143.334 145.053 137.532 145.053 130.375C145.053 123.217 139.554 117.415 132.77 117.415C125.987 117.415 120.487 123.217 120.487 130.375C120.487 137.532 125.987 143.334 132.77 143.334Z" fill="#6D6C80"/>
<g opacity="0.25">
<path d="M145.396 130.193C145.396 137.344 139.901 143.152 133.114 143.152C127.871 143.152 123.386 139.678 121.639 134.789C123.851 138.152 127.538 140.354 131.72 140.354C138.497 140.354 144.002 134.546 144.002 127.395C144.002 125.779 143.72 124.233 143.204 122.809C144.598 124.91 145.396 127.455 145.396 130.193Z" fill="#371A45"/>
</g>
<g opacity="0.3">
<path d="M123.265 122.183C123.265 122.183 128.902 119.748 129.962 124.617C129.962 124.617 131.114 128.971 127.882 131.223C127.609 131.415 121.589 133.749 121.094 129.375" fill="white"/>
</g>
<path d="M132.771 144.819C125.185 144.819 119.014 138.344 119.014 130.385C119.014 122.425 125.185 115.95 132.771 115.95C140.357 115.95 146.529 122.425 146.529 130.385C146.529 138.344 140.357 144.819 132.771 144.819ZM132.771 118.9C126.822 118.9 121.973 124.051 121.973 130.375C121.973 136.698 126.822 141.85 132.771 141.85C138.721 141.85 143.569 136.698 143.569 130.375C143.569 124.051 138.721 118.9 132.771 118.9Z" fill="#371A45"/>
<path d="M134.407 137.941C138.2 137.941 141.276 134.553 141.276 130.375C141.276 126.196 138.2 122.809 134.407 122.809C130.613 122.809 127.538 126.196 127.538 130.375C127.538 134.553 130.613 137.941 134.407 137.941Z" fill="#E94E1B"/>
<path d="M134.407 138.93C130.074 138.93 126.559 135.092 126.559 130.385C126.559 125.668 130.084 121.839 134.407 121.839C138.73 121.839 142.256 125.678 142.256 130.385C142.256 135.092 138.73 138.93 134.407 138.93ZM134.407 123.799C131.165 123.799 128.528 126.748 128.528 130.375C128.528 134.001 131.165 136.951 134.407 136.951C137.65 136.951 140.286 134.001 140.286 130.375C140.286 126.748 137.65 123.799 134.407 123.799Z" fill="#371A45"/>
<path d="M158.227 143.334C165.011 143.334 170.51 137.532 170.51 130.375C170.51 123.217 165.011 117.415 158.227 117.415C151.444 117.415 145.944 123.217 145.944 130.375C145.944 137.532 151.444 143.334 158.227 143.334Z" fill="#6D6C80"/>
<g opacity="0.25">
<path d="M170.863 130.193C170.863 137.345 165.368 143.153 158.58 143.153C153.338 143.153 148.853 139.678 147.105 134.789C149.318 138.153 153.004 140.355 157.186 140.355C163.964 140.355 169.469 134.547 169.469 127.395C169.469 125.779 169.186 124.233 168.671 122.809C170.055 124.91 170.863 127.456 170.863 130.193Z" fill="#371A45"/>
</g>
<g opacity="0.3">
<path d="M148.722 122.183C148.722 122.183 154.358 119.749 155.419 124.617C155.419 124.617 156.57 128.971 153.338 131.223C153.065 131.415 147.045 133.749 146.55 129.375" fill="white"/>
</g>
<path d="M158.228 144.819C150.642 144.819 144.471 138.345 144.471 130.385C144.471 122.425 150.642 115.951 158.228 115.951C165.814 115.951 171.996 122.415 171.996 130.375C171.996 138.335 165.814 144.819 158.228 144.819ZM158.228 118.9C152.279 118.9 147.43 124.052 147.43 130.375C147.43 136.698 152.279 141.85 158.228 141.85C164.178 141.85 169.026 136.698 169.026 130.375C169.026 124.052 164.188 118.9 158.228 118.9Z" fill="#371A45"/>
<path d="M159.864 137.941C163.657 137.941 166.733 134.553 166.733 130.375C166.733 126.196 163.657 122.809 159.864 122.809C156.07 122.809 152.995 126.196 152.995 130.375C152.995 134.553 156.07 137.941 159.864 137.941Z" fill="#E94E1B"/>
<path d="M159.863 138.93C155.53 138.93 152.015 135.092 152.015 130.385C152.015 125.668 155.54 121.839 159.863 121.839C164.186 121.839 167.712 125.678 167.712 130.385C167.722 135.092 164.197 138.93 159.863 138.93ZM159.863 123.799C156.621 123.799 153.984 126.749 153.984 130.375C153.984 134.001 156.621 136.951 159.863 136.951C163.106 136.951 165.742 134.001 165.742 130.375C165.742 126.749 163.106 123.799 159.863 123.799Z" fill="#371A45"/>
<path d="M107.903 143.335C114.687 143.335 120.186 137.532 120.186 130.375C120.186 123.217 114.687 117.415 107.903 117.415C101.119 117.415 95.6201 123.217 95.6201 130.375C95.6201 137.532 101.119 143.335 107.903 143.335Z" fill="#6D6C80"/>
<g opacity="0.25">
<path d="M120.54 130.193C120.54 137.345 115.045 143.153 108.257 143.153C103.015 143.153 98.5297 139.678 96.7822 134.789C98.9944 138.153 102.681 140.355 106.863 140.355C113.641 140.355 119.146 134.547 119.146 127.395C119.146 125.779 118.863 124.233 118.348 122.809C119.732 124.91 120.54 127.456 120.54 130.193Z" fill="#371A45"/>
</g>
<g opacity="0.3">
<path d="M98.3973 122.183C98.3973 122.183 104.034 119.749 105.094 124.617C105.094 124.617 106.246 128.971 103.014 131.223C102.741 131.415 96.7205 133.749 96.2256 129.375" fill="white"/>
</g>
<path d="M107.903 144.819C100.317 144.819 94.1455 138.345 94.1455 130.385C94.1455 122.425 100.317 115.95 107.903 115.95C115.489 115.95 121.661 122.425 121.661 130.385C121.661 138.345 115.489 144.819 107.903 144.819ZM107.903 118.9C101.954 118.9 97.1051 124.052 97.1051 130.375C97.1051 136.698 101.954 141.85 107.903 141.85C113.853 141.85 118.701 136.698 118.701 130.375C118.701 124.052 113.863 118.9 107.903 118.9Z" fill="#371A45"/>
<path d="M109.539 137.941C113.332 137.941 116.407 134.553 116.407 130.375C116.407 126.197 113.332 122.809 109.539 122.809C105.745 122.809 102.67 126.197 102.67 130.375C102.67 134.553 105.745 137.941 109.539 137.941Z" fill="#E94E1B"/>
<path d="M109.541 138.93C105.208 138.93 101.692 135.092 101.692 130.385C101.692 125.668 105.218 121.839 109.541 121.839C113.864 121.839 117.389 125.678 117.389 130.385C117.4 135.092 113.874 138.93 109.541 138.93ZM109.541 123.799C106.298 123.799 103.662 126.748 103.662 130.375C103.662 134.001 106.298 136.951 109.541 136.951C112.783 136.951 115.42 134.001 115.42 130.375C115.42 126.748 112.783 123.799 109.541 123.799Z" fill="#371A45"/>
<path d="M17.1539 45.7783L40.4369 60.1319C40.4369 60.1319 45.3965 55.4046 48.8511 57.7481C52.3057 60.0915 53.9724 63.8693 53.7905 65.6471C53.6087 67.4249 47.6188 63.6067 47.6188 63.6067C47.6188 63.6067 43.548 65.4552 44.2854 70.2128L48.437 73.0007C48.7703 73.2229 49.0026 73.5462 49.1238 73.93C49.437 74.9805 48.6794 76.0311 47.5884 76.1119C41.9116 76.4957 35.2853 74.4654 37.4874 65.6572L14.5579 51.8288C14.5579 51.8288 9.25482 55.5258 5.54772 52.142C1.85072 48.748 0.739612 45.5359 1.97194 44.8591C2.76993 44.4247 4.73964 45.4449 6.04268 46.2227C6.95177 46.7682 8.11341 46.7177 8.9417 46.0611C9.48715 45.6369 10.0629 45.0409 10.5074 44.2429C11.0629 43.2429 10.8306 41.9904 10.0124 41.1924L6.37602 37.6772C5.79015 37.1116 5.98208 36.152 6.71946 35.8287C12.3963 33.3035 20.5276 38.0409 17.1539 45.7783Z" fill="#BFCBCD"/>
<path d="M46.3057 77.6269C43.5582 77.6269 39.7097 77.0612 37.3764 74.2733C35.7198 72.2935 35.1945 69.647 35.8006 66.3743L14.5479 53.556C12.6792 54.5863 8.1236 56.5156 4.53772 53.2227C1.50739 50.4449 -0.21989 47.4651 0.0225357 45.4549C0.123547 44.6065 0.557891 43.9297 1.24476 43.5559C2.42659 42.9095 4.08317 43.3236 6.79026 44.9499C7.18421 45.1822 7.66906 45.162 8.01249 44.8994C8.50745 44.5054 8.9115 44.0408 9.20443 43.5256C9.42665 43.1418 9.32563 42.6064 8.9721 42.263L5.33571 38.7478C4.70944 38.1417 4.42661 37.273 4.58822 36.4246C4.73974 35.566 5.31551 34.8387 6.1236 34.475C9.74989 32.869 14.2348 33.6973 17.0328 36.4751C19.3257 38.7579 20.0126 41.8691 18.9823 45.1519L40.3057 58.3035C42.1037 56.8894 46.2653 54.2025 49.6896 56.5156C53.4674 59.0712 55.5179 63.3238 55.2654 65.7985C55.1947 66.5056 54.7906 67.0814 54.1745 67.3844C53.7199 67.6066 52.3866 68.243 47.6088 65.344C46.8108 65.9197 45.5885 67.1824 45.6997 69.3642L49.2755 71.7683C49.8916 72.1824 50.3462 72.7986 50.5482 73.5157C50.8209 74.445 50.6593 75.435 50.1037 76.2228C49.5482 77.0208 48.6694 77.5158 47.6896 77.5865C47.2653 77.6067 46.8007 77.6269 46.3057 77.6269ZM14.5479 50.3439C14.8105 50.3439 15.0732 50.4146 15.3156 50.556L38.245 64.3844C38.8006 64.7177 39.0734 65.3844 38.9218 66.0107C38.2249 68.8087 38.4673 70.9501 39.6592 72.3743C41.0632 74.0511 43.9118 74.8693 47.4875 74.6269C47.5886 74.6168 47.6391 74.5663 47.6694 74.5259C47.73 74.445 47.7098 74.3744 47.6997 74.3441C47.6896 74.2936 47.6593 74.2531 47.6088 74.2228L43.4572 71.4349C43.1138 71.2026 42.8815 70.839 42.8208 70.4349C42.0936 65.7985 45.2451 63.0611 47.0027 62.253C47.4573 62.0409 47.9926 62.0813 48.4169 62.354C49.7199 63.1924 51.1745 63.95 52.1543 64.3541C51.6997 62.8389 50.3563 60.5459 48.0229 58.9702C45.639 57.354 41.5077 61.1621 41.4673 61.2025C40.9825 61.6672 40.2451 61.748 39.6693 61.3944L16.3863 47.0408C15.76 46.657 15.5075 45.8691 15.8105 45.1923C16.9318 42.6064 16.6287 40.263 14.9317 38.5761C13.1337 36.7882 10.2044 36.1619 7.79027 37.0003L11.0327 40.1316C12.356 41.4145 12.6691 43.4044 11.7903 44.9701C11.3055 45.8287 10.659 46.5863 9.8509 47.2226C8.54786 48.2529 6.70946 48.3539 5.2751 47.4954C4.21449 46.859 3.50741 46.5459 3.06296 46.3842C3.34579 47.2731 4.29529 48.9802 6.54784 51.0408C9.34584 53.6065 13.659 50.6368 13.7095 50.6065C13.9519 50.4247 14.2449 50.3439 14.5479 50.3439Z" fill="#371A45"/>
<path d="M36.7782 57.8793L34.1722 56.2732C34.1722 56.2732 30.1923 57.3742 31.1216 61.8187L32.7782 62.8187C30.5964 69.041 20.0913 64.9197 17.4044 58.3742C16.7478 56.7984 16.5559 55.0813 17.0407 53.3237C17.0407 53.3237 19.6367 45.2832 26.4549 44.7074L31.0004 47.3135L35.9196 50.1317C35.9095 50.1317 38.3439 51.4651 36.7782 57.8793Z" fill="white"/>
<path d="M28.1529 67.3542C27.163 67.3542 26.1024 67.1825 24.9913 66.839C19.1023 64.9804 13.9205 58.9501 15.6074 52.9197C15.6175 52.8995 15.6175 52.8793 15.6276 52.8692C15.7488 52.5056 18.6074 43.8793 26.3246 43.2328C26.6276 43.2025 26.9206 43.2732 27.1832 43.4247L36.6378 48.8591C37.1833 49.1621 39.951 51.0814 38.2035 58.2329C38.0924 58.6976 37.7691 59.0713 37.3247 59.2531C36.8904 59.4349 36.3853 59.3946 35.9812 59.142L34.0115 57.9299C33.3247 58.2935 32.3145 59.142 32.4661 60.9198L33.5267 61.5562C34.1226 61.9198 34.3954 62.6471 34.1631 63.3138C33.254 65.9198 31.0216 67.3542 28.1529 67.3542ZM18.4458 53.7581C17.1629 58.4551 22.0215 62.7986 25.8802 64.0208C27.0115 64.3744 29.4862 64.9198 30.7994 63.3643L30.3448 63.0915C29.9913 62.8794 29.7388 62.5259 29.658 62.1218C28.7085 57.5359 31.9307 55.3541 33.759 54.8491C34.153 54.7379 34.5772 54.7985 34.9307 55.0107L35.7085 55.4854C36.1025 52.4248 35.2136 51.4955 35.1025 51.3844L26.1125 46.2227C20.87 47.0005 18.5973 53.3238 18.4458 53.7581ZM35.1328 51.3945C35.1732 51.4248 35.2035 51.4349 35.2035 51.4349L35.1328 51.3945Z" fill="#371A45"/>
<path d="M19.0332 62.7179C19.0938 59.3946 20.0635 56.0108 22.1241 53.3744C22.7807 52.4956 23.6393 51.7784 24.4979 51.142C24.7201 50.9804 25.0232 51.0208 25.1848 51.243C25.3262 51.435 25.306 51.7077 25.1444 51.8794C24.4575 52.5966 23.8009 53.334 23.3464 54.2027C21.9726 56.6774 21.5989 59.6674 21.9827 62.4452C22.306 64.5967 19.1039 64.8896 19.0332 62.7179Z" fill="#371A45"/>
<path d="M24.3156 65.1622C24.5278 62.2127 25.1742 59.3945 26.4874 56.7581C26.9419 55.8995 27.4874 55.0813 28.1238 54.354C28.3056 54.152 28.6187 54.1318 28.8207 54.3035C29.0127 54.4651 29.043 54.748 28.9116 54.95C27.1541 57.9399 26.9621 61.6874 27.2854 65.0511C27.447 67.1925 24.2853 67.3137 24.3156 65.1622Z" fill="#371A45"/>
<g opacity="0.25">
<path d="M36.7811 57.8794L34.175 56.2733C34.175 56.2733 30.1952 57.3744 31.1245 61.8188L32.7811 62.8188C30.5993 69.0411 20.0941 64.9199 17.4072 58.3744C31.3568 64.9502 31.2962 51.2834 31.0033 47.3137L35.9225 50.1319C35.9124 50.1319 38.3468 51.4652 36.7811 57.8794Z" fill="#371A45"/>
</g>
<path d="M35.9115 50.1317L29.5579 46.4852L26.4468 44.6973C26.4468 44.6973 26.0933 41.0205 29.0428 41.0205C30.6792 41.0205 32.7802 41.9094 34.5277 42.9903C35.9216 43.8488 37.0934 44.8286 37.6085 45.566C38.7903 47.2428 38.154 49.7984 35.9115 50.1317Z" fill="white"/>
<path d="M35.9104 51.6167C35.6578 51.6167 35.3952 51.546 35.173 51.4247L25.7083 46.0005C25.2941 45.758 25.0113 45.3338 24.9709 44.859C24.9507 44.5964 24.7689 42.2833 26.1426 40.7681C26.8598 39.9802 27.8598 39.556 29.0315 39.556C32.5265 39.556 37.375 42.6974 38.8195 44.7378C39.7387 46.0409 39.9306 47.748 39.3144 49.1823C38.7488 50.5157 37.577 51.3945 36.1225 51.6066C36.0518 51.6066 35.9811 51.6167 35.9104 51.6167ZM27.9406 43.859L36.1023 48.5459C36.3245 48.4348 36.4861 48.253 36.5871 48.0106C36.7993 47.5156 36.7185 46.8995 36.3952 46.4449C35.5063 45.1823 31.4457 42.5156 29.0315 42.5156C28.5467 42.5156 28.3952 42.6873 28.3346 42.758C28.1022 43.0004 27.9911 43.455 27.9406 43.859Z" fill="#371A45"/>
<g opacity="0.25">
<path d="M35.9112 50.1318L29.5576 46.4853C29.9718 46.4853 30.4061 46.5257 30.8304 46.6369C35.8809 47.8086 34.5274 43.0005 34.5274 43.0005C35.9213 43.8591 37.093 44.8389 37.6082 45.5762C38.79 47.2429 38.1537 49.7985 35.9112 50.1318Z" fill="#371A45"/>
</g>
</svg>
