<svg width="100" height="100" viewBox="0 0 100 100" fill="none" xmlns="http://www.w3.org/2000/svg">
<g clip-path="url(#clip0_82_1462)">
<path d="M21.6372 67.2135C21.6372 69.7848 23.7291 71.8767 26.3002 71.8767C28.8715 71.8767 30.9634 69.7848 30.9634 67.2135C30.9634 64.6422 28.8715 62.5505 26.3002 62.5505C23.7291 62.5503 21.6372 64.6422 21.6372 67.2135ZM28.0339 67.2135C28.0339 68.1695 27.2562 68.9472 26.3002 68.9472C25.3442 68.9472 24.5667 68.1695 24.5667 67.2135C24.5667 66.2575 25.3442 65.48 26.3002 65.48C27.2562 65.48 28.0339 66.2575 28.0339 67.2135Z" fill="#E94E1B"/>
<path d="M33.3706 67.2135C33.3706 69.7848 35.4625 71.8767 38.0338 71.8767C40.6051 71.8767 42.697 69.7848 42.697 67.2135C42.697 64.6422 40.6051 62.5505 38.0338 62.5505C35.4625 62.5505 33.3706 64.6422 33.3706 67.2135ZM38.0338 65.4798C38.9898 65.4798 39.7675 66.2575 39.7675 67.2133C39.7675 68.1691 38.9898 68.947 38.0338 68.947C37.0778 68.947 36.3001 68.1693 36.3001 67.2133C36.3001 66.2573 37.078 65.4798 38.0338 65.4798Z" fill="#E94E1B"/>
<path d="M23.5309 33.0159C31.2774 25.269 43.8832 25.269 51.6302 33.0159C51.9163 33.3019 52.2913 33.445 52.666 33.445C53.0408 33.445 53.4158 33.3021 53.7019 33.0159C54.2739 32.4439 54.2739 31.5164 53.7019 30.9446C44.8121 22.0552 30.3488 22.0553 21.4593 30.9446C20.8873 31.5166 20.8873 32.4441 21.4593 33.0159C22.0313 33.588 22.9586 33.588 23.5309 33.0159Z" fill="#E94E1B"/>
<path d="M47.8253 38.2855C48.2001 38.2855 48.5751 38.1426 48.8612 37.8564C49.4332 37.2844 49.4332 36.3569 48.8612 35.7851C45.8524 32.7763 41.846 31.1192 37.5803 31.1192C33.3146 31.1192 29.3086 32.7761 26.2994 35.7851C25.7274 36.3571 25.7274 37.2846 26.2994 37.8564C26.8714 38.4283 27.7987 38.4287 28.371 37.8564C30.8265 35.4009 34.0969 34.0487 37.5801 34.0487C41.0635 34.0487 44.334 35.4009 46.7893 37.8564C47.0756 38.1426 47.4504 38.2855 47.8253 38.2855Z" fill="#E94E1B"/>
<path d="M42.9851 43.126C43.3598 43.126 43.7348 42.9831 44.0209 42.697C44.5929 42.1249 44.5929 41.1975 44.0209 40.6256C42.3003 38.9052 40.0132 37.9578 37.5803 37.9578C35.1475 37.9578 32.8603 38.9052 31.1399 40.6256C30.5679 41.1976 30.5679 42.1251 31.1401 42.697C31.712 43.2692 32.6394 43.269 33.2115 42.697C34.3784 41.53 35.9299 40.8873 37.5801 40.8873C39.2304 40.8873 40.7823 41.53 41.949 42.697C42.2353 42.9831 42.6103 43.126 42.9851 43.126Z" fill="#E94E1B"/>
<path d="M87.8494 38.0277C87.1807 37.5725 86.2695 37.7457 85.8144 38.4144C85.3592 39.0831 85.5324 39.9942 86.2011 40.4494C93.0038 45.0794 97.065 52.7494 97.065 60.9672C97.065 70.3627 91.8546 78.7934 83.6206 83.0214V75.835C83.6206 74.0058 82.3412 72.4729 80.6314 72.0753C82.1035 69.3436 84.885 66.9248 84.9217 66.8932C85.5348 66.3661 85.6047 65.4417 85.0778 64.8283C84.551 64.2149 83.6261 64.1442 83.0125 64.6713C82.9041 64.7642 81.4397 66.0343 79.9638 67.8691V63.3663C79.9638 61.3258 78.3725 59.654 76.366 59.5167V54.7192C76.366 52.9742 75.2686 51.4841 73.7293 50.8927V42.6194C73.7293 41.8105 73.0737 41.1547 72.2645 41.1547C71.4554 41.1547 70.7998 41.8105 70.7998 42.6194V50.8927C69.2604 51.4841 68.1629 52.9742 68.1629 54.7192V59.5167C66.1565 59.654 64.565 61.3258 64.565 63.3663V67.8691C63.0892 66.0343 61.6248 64.7642 61.5164 64.6713C60.9036 64.1449 59.9798 64.2145 59.4523 64.8277C58.925 65.4408 58.9945 66.3653 59.6072 66.893C59.6412 66.9221 62.4244 69.3419 63.8975 72.0749C62.1871 72.4721 60.9073 74.0054 60.9073 75.835V83.0208C52.7051 78.827 47.447 70.3281 47.4629 60.9672C47.4629 47.2924 58.5891 36.1671 72.2649 36.1671C75.0474 36.1671 77.7773 36.6247 80.3804 37.5256C81.2999 37.8977 82.4018 37.1467 82.3617 36.1376L83.3468 15.9382C83.5667 13.4926 81.5655 11.2754 79.0604 11.2985C76.9289 11.2985 75.1013 12.8923 74.8087 15.0062L72.2925 33.238C72.2833 33.238 72.2741 33.2378 72.2647 33.2378C58.7154 33.2378 47.4062 43.0051 45.005 55.868H41.007C40.1979 55.868 39.5423 56.5238 39.5423 57.3327C39.5423 58.1416 40.1979 58.7974 41.007 58.7974H44.6177C44.5621 59.5136 44.5332 60.2374 44.5332 60.9676C44.5332 66.1913 45.9803 71.2347 48.7259 75.6305H4.11808C3.74506 75.6305 3.40153 75.4604 3.17518 75.1636C2.94863 74.8665 2.87539 74.4896 2.97402 74.1302L6.35661 61.8297L6.48472 64.4605C6.57358 68.033 9.99152 70.9875 13.5284 70.5719C15.2988 70.4068 16.8821 69.5489 17.9863 68.156C19.0907 66.7631 19.5651 65.0261 19.322 63.2649L18.7052 58.7974H34.1616C34.9707 58.7974 35.6263 58.1416 35.6263 57.3327C35.6263 56.5238 34.9707 55.868 34.1616 55.868H18.3011L12.6605 15.0056C12.3586 12.7363 10.239 11.091 8.00533 11.3164C6.1406 11.4904 4.66277 12.8241 4.23468 14.5527C4.13586 14.9515 4.09289 15.3716 4.11418 15.803L6.12244 57.0198C4.94205 57.8536 4.07531 59.0752 3.68823 60.4846L0.149401 73.3539C-0.19335 74.6028 0.0607348 75.9098 0.846034 76.9396C1.6077 77.9384 2.75333 78.5221 4.00305 78.5563V80.6845C4.00305 82.8931 5.79981 84.6901 8.00865 84.6901H57.8973C62.2088 87.3133 67.1907 88.7074 72.2651 88.6988C87.1415 89.0158 100.309 75.8629 99.9947 60.9672C99.9945 51.779 95.4542 43.2036 87.8494 38.0277ZM79.9699 25.0339H76.382L77.7107 15.4072C77.8036 14.7349 78.3837 14.2279 79.0602 14.2279C79.9289 14.2153 80.5482 15.0283 80.4179 15.8493L79.9699 25.0339ZM75.9778 27.9634H79.8271L79.523 34.1987C78.1161 33.8179 76.6816 33.5487 75.2282 33.3944L75.9778 27.9634ZM15.6909 66.3356C15.0881 67.0961 14.2235 67.5644 13.2569 67.6545C11.317 67.8789 9.46284 66.2684 9.4109 64.3174L7.63953 27.9634H11.4918L16.4202 63.6651C16.5528 64.6268 16.2938 65.5751 15.6909 66.3356ZM8.2682 14.234C9.00213 14.1647 9.66225 14.6963 9.75833 15.407L11.0872 25.0337H7.49716L7.03996 15.6599C7.00422 14.9281 7.54754 14.3014 8.2682 14.234ZM71.0923 54.7192C71.0923 54.073 71.6181 53.5472 72.2645 53.5472C72.9108 53.5472 73.4365 54.073 73.4365 54.7192V59.5035H71.0923V54.7192ZM68.4281 62.4328H76.1006C76.6154 62.4328 77.0341 62.8515 77.0341 63.3663V71.9718H74.1767C73.6691 69.3667 72.0601 66.7582 71.8462 66.4202C71.4146 65.7366 70.5104 65.5329 69.827 65.9644C69.1431 66.3956 68.9384 67.3 69.369 67.9841C69.7956 68.6616 70.735 70.3828 71.1701 71.972H67.4943V63.3665C67.4945 62.8515 67.9135 62.4328 68.4281 62.4328ZM8.00845 81.7604C7.41513 81.7604 6.93235 81.2776 6.93235 80.6843V78.5594H50.8314C51.7764 79.7115 52.8065 80.7813 53.914 81.7604H8.00845ZM71.6888 85.7625C69.0153 85.7013 66.3509 85.2144 63.8368 84.3002V75.8352C63.8368 75.3204 64.2557 74.9015 64.7705 74.9015H79.7574C80.2724 74.9015 80.6911 75.3204 80.6911 75.8352V84.3002C77.8165 85.3453 74.7454 85.8326 71.6888 85.7625Z" fill="#E94E1B"/>
</g>
<defs>
<clipPath id="clip0_82_1462">
<rect width="100" height="100" fill="white"/>
</clipPath>
</defs>
</svg>
