<svg width="100" height="100" viewBox="0 0 100 100" fill="none" xmlns="http://www.w3.org/2000/svg">
<path d="M95.4041 14.0908H4.5961C2.06192 14.0908 0 16.1527 0 18.6869V75.0505C0 77.5849 2.06192 79.6466 4.5961 79.6466H28.8421L27.1756 82.9794H21.8182C21.0092 82.9794 20.3534 83.6353 20.3534 84.4443C20.3534 85.2533 21.0092 85.9091 21.8182 85.9091H78.1818C78.9908 85.9091 79.6466 85.2533 79.6466 84.4443C79.6466 83.6353 78.9908 82.9794 78.1818 82.9794H72.8244L71.158 79.6466H95.4039C97.9383 79.6466 100 77.5847 100 75.0505V18.6869C100 16.1527 97.9383 14.0908 95.4041 14.0908ZM97.0705 70.4542H92.2726C91.4637 70.4542 90.8078 71.1101 90.8078 71.9191C90.8078 72.7281 91.4637 73.3839 92.2726 73.3839H97.0705V75.0505C97.0705 75.9695 96.3228 76.7171 95.4041 76.7171H40.6055C39.7966 76.7171 39.1407 77.373 39.1407 78.182C39.1407 78.991 39.7966 79.6468 40.6055 79.6468H67.8826L69.549 82.9796H30.451L32.1174 79.6468H34.3436C35.1526 79.6468 35.8085 78.991 35.8085 78.182C35.8085 77.373 35.1526 76.7171 34.3436 76.7171H4.5961C3.67716 76.7171 2.92969 75.9695 2.92969 75.0507V73.3841H86.0109C86.8199 73.3841 87.4758 72.7283 87.4758 71.9193C87.4758 71.1103 86.8199 70.4544 86.0109 70.4544H2.92969V18.6869C2.92969 17.768 3.67735 17.0205 4.5961 17.0205H95.4041C96.323 17.0205 97.0705 17.7682 97.0705 18.6869V70.4542Z" fill="#E94E1B"/>
<path d="M72.955 23.9139C72.383 23.3419 71.4554 23.3419 70.8834 23.9137L33.3079 61.4896C32.7358 62.0617 32.7358 62.9892 33.3079 63.5611C33.5938 63.847 33.9688 63.9902 34.3436 63.9902C34.7185 63.9902 35.0934 63.8472 35.3794 63.5611L72.955 25.9854C73.5271 25.4134 73.5271 24.4858 72.955 23.9139Z" fill="#E94E1B"/>
<path d="M58.8642 27.0451C58.2921 26.4731 57.3646 26.4731 56.7927 27.0451L34.8735 48.9643C34.3014 49.5364 34.3014 50.4639 34.8735 51.0358C35.1594 51.322 35.5344 51.4649 35.9093 51.4649C36.2841 51.4649 36.6591 51.322 36.945 51.0358L58.8642 29.1166C59.4363 28.5446 59.4363 27.617 58.8642 27.0451Z" fill="#E94E1B"/>
</svg>
