<svg width="25" height="25" viewBox="0 0 25 25" fill="none" xmlns="http://www.w3.org/2000/svg">
<g id="Email" clip-path="url(#clip0_82_1296)">
<g id="Group">
<g id="Group_2">
<path id="Vector" d="M18.9852 8.26389C18.7952 8.07248 18.4861 8.07121 18.2946 8.26111C18.1032 8.45105 18.102 8.76023 18.2919 8.95168L18.2948 8.95471C18.3899 9.05056 18.5145 9.09831 18.6393 9.09831C18.7637 9.09831 18.8883 9.05075 18.9839 8.95593C19.1754 8.76599 19.1751 8.45534 18.9852 8.26389Z" fill="black"/>
</g>
</g>
<g id="Group_3">
<g id="Group_4">
<path id="Vector_2" d="M24.857 14.1358L20.3219 9.60078C20.1312 9.41016 19.8221 9.41016 19.6313 9.60078C19.4407 9.79146 19.4407 10.1006 19.6313 10.2914L23.2315 13.8915H14.6463C13.9341 13.8915 13.3548 13.3121 13.3548 12.6V4.0148L16.8305 7.49048C17.0212 7.68111 17.3304 7.68111 17.5211 7.49048C17.7118 7.29981 17.7118 6.99063 17.5211 6.7999L13.1104 2.38931C12.9198 2.19868 12.6106 2.19868 12.4199 2.38931L4.63574 10.1736C4.44507 10.3643 4.44507 10.6735 4.63574 10.8642L16.3823 22.6107C16.4738 22.7023 16.598 22.7537 16.7275 22.7537C16.857 22.7537 16.9812 22.7023 17.0728 22.6107L24.857 14.8264C24.9486 14.7348 25 14.6106 25 14.4812C25 14.3517 24.9485 14.2274 24.857 14.1358ZM12.3783 3.81211V10.0307H6.15977L12.3783 3.81211ZM16.2393 21.0866L6.15977 11.0072H12.3783V12.6C12.3783 13.8506 13.3958 14.8681 14.6464 14.8681H16.2393V21.0866ZM17.2158 21.0866V14.8681H23.4343L17.2158 21.0866Z" fill="black"/>
</g>
</g>
<g id="Group_5">
<g id="Group_6">
<path id="Vector_3" d="M3.35112 12.4023H0.488281C0.218603 12.4023 0 12.621 0 12.8906C0 13.1603 0.218603 13.3789 0.488281 13.3789H3.35112C3.6208 13.3789 3.8394 13.1603 3.8394 12.8906C3.8394 12.621 3.6208 12.4023 3.35112 12.4023Z" fill="black"/>
</g>
</g>
<g id="Group_7">
<g id="Group_8">
<path id="Vector_4" d="M4.80695 12.4023H4.79962C4.52994 12.4023 4.31134 12.621 4.31134 12.8906C4.31134 13.1603 4.52994 13.3789 4.79962 13.3789H4.80695C5.07662 13.3789 5.29523 13.1603 5.29523 12.8906C5.29523 12.621 5.07662 12.4023 4.80695 12.4023Z" fill="black"/>
</g>
</g>
<g id="Group_9">
<g id="Group_10">
<path id="Vector_5" d="M2.05157 7.27551H0.488922C0.219244 7.27551 0.000640869 7.49417 0.000640869 7.76379C0.000640869 8.03342 0.219244 8.25208 0.488922 8.25208H2.05157C2.32125 8.25208 2.53985 8.03342 2.53985 7.76379C2.53985 7.49417 2.32125 7.27551 2.05157 7.27551Z" fill="black"/>
</g>
</g>
<g id="Group_11">
<g id="Group_12">
<path id="Vector_6" d="M5.49365 7.27551H3.64658C3.3769 7.27551 3.15829 7.49417 3.15829 7.76379C3.15829 8.03342 3.3769 8.25208 3.64658 8.25208H5.49365C5.76332 8.25208 5.98193 8.03342 5.98193 7.76379C5.98193 7.49417 5.76332 7.27551 5.49365 7.27551Z" fill="black"/>
</g>
</g>
<g id="Group_13">
<g id="Group_14">
<path id="Vector_7" d="M6.55674 15.0878H3.82242C3.55274 15.0878 3.33414 15.3064 3.33414 15.576C3.33414 15.8457 3.55274 16.0643 3.82242 16.0643H6.55674C6.82642 16.0643 7.04503 15.8457 7.04503 15.576C7.04503 15.3064 6.82637 15.0878 6.55674 15.0878Z" fill="black"/>
</g>
</g>
<g id="Group_15">
<g id="Group_16">
<path id="Vector_8" d="M8.69178 18.2126H1.80707C1.53739 18.2126 1.31879 18.4313 1.31879 18.7009C1.31879 18.9706 1.53739 19.1892 1.80707 19.1892H8.69178C8.96146 19.1892 9.18007 18.9706 9.18007 18.7009C9.18007 18.4313 8.96146 18.2126 8.69178 18.2126Z" fill="black"/>
</g>
</g>
</g>
<defs>
<clipPath id="clip0_82_1296">
<rect width="25" height="25" fill="white"/>
</clipPath>
</defs>
</svg>
