<svg width="21" height="21" viewBox="0 0 21 21" fill="none" xmlns="http://www.w3.org/2000/svg">
<mask id="mask0_82_1335" style="mask-type:luminance" maskUnits="userSpaceOnUse" x="0" y="0" width="21" height="21">
<path d="M0.657898 0.248217H20.3524V20.2214H0.657898V0.248217Z" fill="white"/>
</mask>
<g mask="url(#mask0_82_1335)">
<path d="M19.5827 10.235C19.5807 11.056 19.5716 11.8771 19.5605 12.698C19.5471 13.6885 19.532 14.6795 19.2871 15.653C19.0303 16.6739 18.5237 17.5544 17.7355 18.2062C16.9049 18.8931 15.9011 19.2541 14.8176 19.3209C13.3805 19.4096 11.9428 19.4446 10.5051 19.4412C9.0674 19.4446 7.6297 19.4096 6.19266 19.3209C5.10915 19.2541 4.10527 18.8931 3.27471 18.2062C2.48655 17.5544 1.97995 16.6739 1.72308 15.653C1.47813 14.6795 1.46305 13.6885 1.4497 12.698C1.43862 11.8771 1.42943 11.056 1.42754 10.235C1.42943 9.414 1.43862 8.59295 1.4497 7.77198C1.46305 6.78147 1.47813 5.79054 1.72308 4.817C1.97995 3.7961 2.48655 2.91564 3.27471 2.26382C4.10527 1.57693 5.10915 1.21589 6.19266 1.14906C7.6297 1.06043 9.0674 1.0254 10.5051 1.02883C11.9428 1.0254 13.3805 1.06043 14.8176 1.14906C15.9011 1.21589 16.9049 1.57693 17.7355 2.26382C18.5237 2.91564 19.0303 3.7961 19.2871 4.817C19.532 5.79054 19.5471 6.78147 19.5605 7.77198C19.5716 8.59295 19.5807 9.414 19.5827 10.235Z" stroke="#29235C" stroke-width="1.50152" stroke-miterlimit="10"/>
<path d="M14.5055 10.235C14.5055 12.4972 12.6972 14.3311 10.4666 14.3311C8.23595 14.3311 6.42767 12.4972 6.42767 10.235C6.42767 7.97278 8.23595 6.13891 10.4666 6.13891C12.6972 6.13891 14.5055 7.97278 14.5055 10.235Z" stroke="#29235C" stroke-width="1.50152" stroke-miterlimit="10"/>
<path d="M16.9673 4.96861C16.9673 5.61493 16.4506 6.13892 15.8133 6.13892C15.176 6.13892 14.6593 5.61493 14.6593 4.96861C14.6593 4.32229 15.176 3.7983 15.8133 3.7983C16.4506 3.7983 16.9673 4.32229 16.9673 4.96861Z" fill="#29235C"/>
</g>
</svg>
