<svg width="78" height="78" viewBox="0 0 78 78" fill="none" xmlns="http://www.w3.org/2000/svg">
<g id="handshake(1) 1">
<g id="g3623">
<g id="Clip path group">
<mask id="mask0_117_878" style="mask-type:luminance" maskUnits="userSpaceOnUse" x="0" y="0" width="78" height="78">
<g id="clipPath3629">
<path id="path3627" d="M0 0H78V78H0V0Z" fill="white"/>
</g>
</mask>
<g mask="url(#mask0_117_878)">
<g id="g3625">
<g id="g3631">
<path id="path3633" d="M48.7573 53.0745L56.0753 60.3925C57.9615 62.2787 61.0193 62.2787 62.9055 60.3925C64.7915 58.5065 64.7915 55.4485 62.9055 53.5625" stroke="#E94E1B" stroke-width="3" stroke-miterlimit="10" stroke-linecap="round" stroke-linejoin="round"/>
</g>
<g id="g3635">
<path id="path3637" d="M40.9517 58.929L48.2696 66.247C50.1558 68.1332 53.2137 68.1332 55.0998 66.247C56.9858 64.3608 56.9858 61.303 55.0998 59.4168" stroke="#E94E1B" stroke-width="3" stroke-miterlimit="10" stroke-linecap="round" stroke-linejoin="round"/>
</g>
<g id="g3639">
<path id="path3641" d="M49.7334 26.73L70.7114 47.7081C72.5975 49.5942 72.5975 52.6521 70.7114 54.5382C68.8253 56.4243 65.7674 56.4243 63.8813 54.5382L56.5633 47.2203" stroke="#E94E1B" stroke-width="3" stroke-miterlimit="10" stroke-linecap="round" stroke-linejoin="round"/>
</g>
<g id="g3643">
<path id="path3645" d="M13.6313 45.2688L6.8011 38.4386C-0.74327 30.8943 -0.74327 18.6624 6.8011 11.1181C14.3453 3.57368 26.5771 3.57368 34.1215 11.1181L39.0003 15.9969" stroke="#E94E1B" stroke-width="3" stroke-miterlimit="10" stroke-linecap="round" stroke-linejoin="round"/>
</g>
<g id="g3647">
<path id="path3649" d="M46.318 64.2955C48.204 66.1816 48.204 69.2395 46.318 71.1256C44.432 73.0117 41.374 73.0117 39.4879 71.1256L38.0239 69.6616" stroke="#E94E1B" stroke-width="3" stroke-miterlimit="10" stroke-linecap="round" stroke-linejoin="round"/>
</g>
<g id="g3651">
<path id="path3653" d="M66.3207 43.3173L71.1994 38.4386C78.7437 30.8942 78.7437 18.6626 71.1994 11.1182C63.655 3.57398 51.4232 3.57382 43.8788 11.118L32.6579 22.3391C30.7719 24.2251 30.7719 27.2831 32.6579 29.1691C34.5441 31.0553 37.6019 31.0553 39.4881 29.1691L47.7818 20.8753" stroke="#E94E1B" stroke-width="3" stroke-miterlimit="10" stroke-linecap="round" stroke-linejoin="round"/>
</g>
<g id="g3655">
<path id="path3657" d="M37.5364 70.1498C35.6504 72.0358 32.5924 72.0358 30.7064 70.1498C28.8202 68.2637 28.8202 65.2057 30.7064 63.3196C32.5924 61.4336 35.6504 61.4336 37.5364 63.3196C39.4226 65.2057 39.4226 68.2637 37.5364 70.1498Z" stroke="#E94E1B" stroke-width="3" stroke-miterlimit="10" stroke-linecap="round" stroke-linejoin="round"/>
</g>
<g id="g3659">
<path id="path3661" d="M30.7063 63.3197C28.8203 65.2058 25.7623 65.2058 23.8763 63.3197C21.9901 61.4337 21.9901 58.3757 23.8763 56.4897C25.7623 54.6035 28.8203 54.6035 30.7063 56.4897C32.5923 58.3757 32.5923 61.4337 30.7063 63.3197Z" stroke="#E94E1B" stroke-width="3" stroke-miterlimit="10" stroke-linecap="round" stroke-linejoin="round"/>
</g>
<g id="g3663">
<path id="path3665" d="M23.8762 56.4897C21.9902 58.3757 18.9322 58.3757 17.0462 56.4897C15.16 54.6036 15.16 51.5457 17.0462 49.6596C18.9322 47.7735 21.9902 47.7735 23.8762 49.6596C25.7623 51.5457 25.7623 54.6036 23.8762 56.4897Z" stroke="#E94E1B" stroke-width="3" stroke-miterlimit="10" stroke-linecap="round" stroke-linejoin="round"/>
</g>
</g>
</g>
</g>
</g>
</g>
</svg>
